<svg xmlns="http://www.w3.org/2000/svg" xmlns:xlink="http://www.w3.org/1999/xlink" width="1920" height="245" viewBox="0 0 1920 245">
  <defs>
    <style>
      .cls-1 {
        fill: none;
      }

      .cls-2 {
        fill: #297380;
      }

      .cls-3 {
        fill: #7fd7c3;
      }

      .cls-4 {
        clip-path: url(#clip-path);
      }

      .cls-5 {
        fill: #fff;
      }

      .cls-6 {
        fill: #efa220;
      }
    </style>
    <clipPath id="clip-path">
      <rect class="cls-1" y="200" width="1920" height="45"/>
    </clipPath>
  </defs>
  <g id="Textos">
    <g>
      <rect class="cls-2" y="100" width="1920" height="100"/>
      <g>
        <rect class="cls-3" y="200" width="1920" height="45"/>
        <g class="cls-4">
          <g>
            <polygon class="cls-5" points="113.601 200 86.225 226.324 97.859 237.957 135.813 200 113.601 200"/>
            <polygon class="cls-5" points="150.48 200 105.306 245.205 115.954 256.451 172.313 200 150.48 200"/>
            <polygon class="cls-5" points="186.514 200 123.112 263.402 133.961 274.453 208.309 200 186.514 200"/>
            <polygon class="cls-5" points="229.115 200 222.891 206.226 233.844 217.173 249.212 201.802 265.125 217.712 276.075 206.765 269.313 200 229.115 200"/>
            <polygon class="cls-5" points="0 240.825 0 262.727 20.223 242.501 93.598 315.876 104.451 304.825 20.223 220.598 0 240.825"/>
            <polygon class="cls-5" points="72.272 200 55.856 216.489 55.764 216.395 44.817 227.345 113.271 295.804 124.224 284.854 66.972 227.6 93.876 200 72.272 200"/>
            <polygon class="cls-5" points="528.351 200 500.975 226.324 512.609 237.957 550.563 200 528.351 200"/>
            <polygon class="cls-5" points="565.23 200 520.057 245.205 530.704 256.451 587.063 200 565.23 200"/>
            <polygon class="cls-5" points="601.264 200 537.862 263.402 548.711 274.453 623.06 200 601.264 200"/>
            <polygon class="cls-5" points="487.023 200 470.606 216.489 470.514 216.395 459.568 227.345 528.021 295.804 538.974 284.854 481.723 227.6 508.626 200 487.023 200"/>
            <polygon class="cls-5" points="299.896 200 283.479 216.489 283.388 216.395 272.441 227.345 362.526 318.233 373.788 306.798 294.596 227.6 321.5 200 299.896 200"/>
            <polygon class="cls-5" points="0 424.743 0 446.633 224.429 227.346 213.48 216.399 0 424.743"/>
            <polygon class="cls-5" points="647.489 200 641.265 206.226 652.215 217.173 667.586 201.802 683.499 217.712 694.449 206.765 687.683 200 647.489 200"/>
            <polygon class="cls-5" points="642.802 227.346 631.853 216.396 403.951 438.995 414.639 450.207 642.802 227.346"/>
            <polygon class="cls-5" points="0 200 0 213.597 4.118 217.712 20.031 201.802 35.402 217.173 46.352 206.226 40.128 200 0 200"/>
            <polygon class="cls-5" points="522.341 304.824 511.489 315.875 438.117 242.503 369.264 311.353 355.301 303.419 438.117 220.6 522.341 304.824"/>
            <polygon class="cls-5" points="364.616 200 390.791 226.176 362.797 254.166 325.436 216.811 312.734 229.289 362.797 279.349 415.243 226.9 388.85 200 364.616 200"/>
            <polygon class="cls-5" points="417.825 200 411.06 206.765 422.013 217.712 437.926 201.802 453.293 217.173 464.243 206.226 458.02 200 417.825 200"/>
            <polygon class="cls-5" points="345.484 200 335.791 209.693 361.343 235.244 372.397 224.402 347.998 200 345.484 200"/>
            <polygon class="cls-5" points="0 468.248 0 474.361 16.593 474.361 249.017 242.501 417.301 410.782 428.251 399.836 249.017 220.598 0 468.248"/>
            <polygon class="cls-5" points="945.895 200 918.519 226.324 930.149 237.957 968.107 200 945.895 200"/>
            <polygon class="cls-5" points="982.771 200 937.601 245.205 948.248 256.451 1004.608 200 982.771 200"/>
            <polygon class="cls-5" points="1018.807 200 955.402 263.402 966.251 274.453 1040.603 200 1018.807 200"/>
            <polygon class="cls-5" points="904.566 200 888.149 216.489 888.058 216.395 877.108 227.345 945.564 295.804 956.517 284.854 899.266 227.6 926.169 200 904.566 200"/>
            <polygon class="cls-5" points="717.44 200 701.023 216.489 700.931 216.395 689.982 227.345 780.07 318.233 791.328 306.798 712.14 227.6 739.043 200 717.44 200"/>
            <polygon class="cls-5" points="1065.032 200 1058.809 206.226 1069.759 217.173 1085.126 201.802 1101.039 217.712 1111.992 206.765 1105.224 200 1065.032 200"/>
            <polygon class="cls-5" points="1060.345 227.346 1049.396 216.396 821.494 438.995 832.182 450.207 1060.345 227.346"/>
            <polygon class="cls-5" points="939.885 304.824 929.032 315.875 855.66 242.503 786.807 311.353 772.842 303.419 855.66 220.6 939.885 304.824"/>
            <polygon class="cls-5" points="782.157 200 808.332 226.176 780.339 254.166 742.98 216.811 730.278 229.289 780.339 279.349 832.784 226.9 806.391 200 782.157 200"/>
            <polygon class="cls-5" points="835.369 200 828.604 206.765 839.557 217.712 855.466 201.802 870.837 217.173 881.787 206.226 875.564 200 835.369 200"/>
            <polygon class="cls-5" points="763.027 200 753.334 209.693 778.886 235.244 789.937 224.402 765.542 200 763.027 200"/>
            <polygon class="cls-5" points="411.397 474.361 434.134 474.361 666.561 242.501 834.842 410.783 845.799 399.833 666.561 220.599 411.397 474.361"/>
            <polygon class="cls-5" points="1363.439 200 1336.062 226.324 1347.693 237.957 1385.65 200 1363.439 200"/>
            <polygon class="cls-5" points="1400.314 200 1355.141 245.205 1365.792 256.451 1422.151 200 1400.314 200"/>
            <polygon class="cls-5" points="1436.351 200 1372.946 263.402 1383.795 274.453 1458.146 200 1436.351 200"/>
            <polygon class="cls-5" points="1322.109 200 1305.692 216.489 1305.604 216.395 1294.651 227.345 1363.104 295.804 1374.06 284.854 1316.806 227.6 1343.713 200 1322.109 200"/>
            <polygon class="cls-5" points="1134.983 200 1118.566 216.489 1118.477 216.395 1107.524 227.345 1197.612 318.233 1208.871 306.798 1129.679 227.6 1156.586 200 1134.983 200"/>
            <polygon class="cls-5" points="1482.576 200 1476.353 206.226 1487.303 217.173 1502.67 201.802 1518.583 217.712 1529.533 206.765 1522.771 200 1482.576 200"/>
            <polygon class="cls-5" points="1477.889 227.346 1466.939 216.396 1239.037 438.995 1249.725 450.207 1477.889 227.346"/>
            <polygon class="cls-5" points="1357.428 304.824 1346.575 315.875 1273.203 242.503 1204.35 311.353 1190.385 303.419 1273.203 220.6 1357.428 304.824"/>
            <polygon class="cls-5" points="1199.7 200 1225.876 226.176 1197.882 254.166 1160.52 216.811 1147.818 229.289 1197.882 279.349 1250.328 226.9 1223.935 200 1199.7 200"/>
            <polygon class="cls-5" points="1252.913 200 1246.147 206.765 1257.097 217.712 1273.01 201.802 1288.381 217.173 1299.33 206.226 1293.104 200 1252.913 200"/>
            <polygon class="cls-5" points="1180.571 200 1170.878 209.693 1196.43 235.244 1207.481 224.402 1183.085 200 1180.571 200"/>
            <polygon class="cls-5" points="828.94 474.361 851.678 474.361 1084.105 242.501 1252.386 410.783 1263.342 399.833 1084.105 220.599 828.94 474.361"/>
            <polygon class="cls-5" points="1780.982 200 1753.605 226.324 1765.236 237.957 1803.193 200 1780.982 200"/>
            <polygon class="cls-5" points="1817.858 200 1772.685 245.205 1783.332 256.451 1839.695 200 1817.858 200"/>
            <polygon class="cls-5" points="1853.892 200 1790.49 263.402 1801.339 274.453 1875.691 200 1853.892 200"/>
            <polygon class="cls-5" points="1739.653 200 1723.233 216.489 1723.145 216.395 1712.195 227.345 1780.648 295.804 1791.598 284.854 1734.35 227.6 1761.256 200 1739.653 200"/>
            <polygon class="cls-5" points="1552.526 200 1536.112 216.489 1536.018 216.395 1525.068 227.345 1615.153 318.233 1626.415 306.798 1547.223 227.6 1574.13 200 1552.526 200"/>
            <polygon class="cls-5" points="1900.118 200 1893.892 206.226 1904.845 217.173 1919.998 202.017 1919.998 200 1900.118 200"/>
            <polygon class="cls-5" points="1895.432 227.346 1884.482 216.396 1656.58 438.995 1667.268 450.207 1895.432 227.346"/>
            <polygon class="cls-5" points="1774.971 304.824 1764.118 315.875 1690.747 242.503 1621.893 311.353 1607.931 303.419 1690.747 220.6 1774.971 304.824"/>
            <polygon class="cls-5" points="1617.243 200 1643.419 226.176 1615.425 254.166 1578.063 216.811 1565.362 229.289 1615.425 279.349 1667.871 226.9 1641.478 200 1617.243 200"/>
            <polygon class="cls-5" points="1670.455 200 1663.692 206.765 1674.639 217.712 1690.552 201.802 1705.923 217.173 1716.876 206.226 1710.652 200 1670.455 200"/>
            <polygon class="cls-5" points="1598.114 200 1588.418 209.693 1613.973 235.244 1625.024 224.402 1600.629 200 1598.114 200"/>
            <polygon class="cls-5" points="1246.484 474.361 1269.222 474.361 1501.648 242.501 1669.93 410.783 1680.879 399.833 1501.648 220.599 1246.484 474.361"/>
            <polygon class="cls-5" points="1664.027 474.361 1686.765 474.361 1919.192 242.501 1919.998 243.308 1919.998 221.408 1919.192 220.599 1664.027 474.361"/>
          </g>
        </g>
      </g>
      <rect class="cls-6" width="1920" height="100"/>
      <g>
        <g>
          <path class="cls-5" d="M1443.17725,19.40049a4.149,4.149,0,0,0-3.41211,1.53808,6.57487,6.57487,0,0,0-1.24219,4.24463,6.6174,6.6174,0,0,0,1.19531,4.28662,4.21955,4.21955,0,0,0,3.459,1.45361,9.09285,9.09285,0,0,0,1.89648-.19482q.917-.19482,1.90625-.50049V32.3873a11.54887,11.54887,0,0,1-4.10742.68457,6.56892,6.56892,0,0,1-5.19336-2.04834,8.5731,8.5731,0,0,1-1.81055-5.86133,9.4767,9.4767,0,0,1,.87891-4.20263,6.272,6.272,0,0,1,2.54394-2.75977,7.69383,7.69383,0,0,1,3.90723-.95849,9.70071,9.70071,0,0,1,4.36133.99023l-.90625,2.09619a13.474,13.474,0,0,0-1.64844-.64795A5.94081,5.94081,0,0,0,1443.17725,19.40049Z"/>
          <path class="cls-5" d="M1463.96924,25.14072a8.42051,8.42051,0,0,1-1.87988,5.8457,7.90155,7.90155,0,0,1-10.67969.01612,8.47344,8.47344,0,0,1-1.87012-5.88282,8.34667,8.34667,0,0,1,1.87988-5.85595,6.92975,6.92975,0,0,1,5.36719-2.04346,6.788,6.788,0,0,1,5.30859,2.07519A8.41751,8.41751,0,0,1,1463.96924,25.14072Zm-11.75488,0a6.90409,6.90409,0,0,0,1.14843,4.31348,4.6731,4.6731,0,0,0,6.78907.01562,6.918,6.918,0,0,0,1.14257-4.3291,6.93309,6.93309,0,0,0-1.13281-4.29736,4.00343,4.00343,0,0,0-3.375-1.46387,4.08765,4.08765,0,0,0-3.418,1.46387A6.83565,6.83565,0,0,0,1452.21436,25.14072Z"/>
          <path class="cls-5" d="M1473.93311,32.86142l-4.46485-12.86035h-.085q.18018,2.86524.17871,5.37158v7.48877h-2.28515V17.4625h3.5498L1475.103,29.712h.0625l4.40234-12.24951h3.56055V32.86142h-2.42188V25.24619q0-1.14771.05664-2.99121.05861-1.84278.10157-2.23291h-.084l-4.625,12.83935Z"/>
          <path class="cls-5" d="M1500.855,25.14072a8.42077,8.42077,0,0,1-1.88086,5.8457,7.90155,7.90155,0,0,1-10.67969.01612,8.47791,8.47791,0,0,1-1.86914-5.88282,8.351,8.351,0,0,1,1.87891-5.85595,6.92975,6.92975,0,0,1,5.36719-2.04346A6.788,6.788,0,0,1,1498.98,19.2955,8.41314,8.41314,0,0,1,1500.855,25.14072Zm-11.75391,0a6.90434,6.90434,0,0,0,1.14649,4.31348,4.67309,4.67309,0,0,0,6.78906.01562,6.9179,6.9179,0,0,0,1.14258-4.3291,6.9267,6.9267,0,0,0-1.13281-4.29736,4.001,4.001,0,0,0-3.375-1.46387,4.08888,4.08888,0,0,0-3.418,1.46387A6.83592,6.83592,0,0,0,1489.10107,25.14072Z"/>
          <path class="cls-5" d="M1518.53857,32.86142H1509.396V17.4625h9.14257v3.33886h-4.98242v2.42286h4.61328v3.33886h-4.61328v2.90674h4.98242Z"/>
          <path class="cls-5" d="M1521.23584,32.86142V17.4625h4.16016V29.50156h5.92968v3.35986Z"/>
          <path class="cls-5" d="M1546.25146,20.6539a2.65168,2.65168,0,0,0-2.3164,1.2168,5.87475,5.87475,0,0,0-.832,3.35449q0,4.44507,3.38086,4.44483a6.92364,6.92364,0,0,0,1.97851-.28418,19.55388,19.55388,0,0,0,1.92774-.68506v3.51806a10.66372,10.66372,0,0,1-4.35938.853,6.89681,6.89681,0,0,1-5.3457-2.022,8.33743,8.33743,0,0,1-1.85938-5.8457,9.338,9.338,0,0,1,.90039-4.20264,6.4525,6.4525,0,0,1,2.5918-2.78564,7.8233,7.8233,0,0,1,3.97656-.97461,10.94387,10.94387,0,0,1,4.76953,1.085l-1.27343,3.27588a14.1766,14.1766,0,0,0-1.707-.67432A5.95862,5.95862,0,0,0,1546.25146,20.6539Z"/>
          <path class="cls-5" d="M1567.80029,25.14072a8.30309,8.30309,0,0,1-1.90625,5.90918,8.66342,8.66342,0,0,1-11.13867-.01074,8.26884,8.26884,0,0,1-1.93164-5.91944,8.21847,8.21847,0,0,1,1.92188-5.87207,8.71614,8.71614,0,0,1,11.1582-.01562Q1567.80224,21.244,1567.80029,25.14072Zm-10.5957,0q0,4.46631,3.10742,4.46631a2.67342,2.67342,0,0,0,2.34375-1.085,5.95292,5.95292,0,0,0,.76367-3.38135,5.9696,5.9696,0,0,0-.77539-3.40723,2.64089,2.64089,0,0,0-2.31054-1.10058Q1557.20459,20.63291,1557.20459,25.14072Z"/>
          <path class="cls-5" d="M1569.37061,28.72226V25.43564h5.95117v3.28662Z"/>
          <path class="cls-5" d="M1584.29443,20.6539a2.654,2.654,0,0,0-2.3164,1.2168,5.87475,5.87475,0,0,0-.832,3.35449q0,4.44507,3.38086,4.44483a6.9271,6.9271,0,0,0,1.98046-.28418,19.91808,19.91808,0,0,0,1.92774-.68506v3.51806a10.6666,10.6666,0,0,1-4.36133.853,6.89964,6.89964,0,0,1-5.3457-2.022,8.34622,8.34622,0,0,1-1.85742-5.8457,9.31205,9.31205,0,0,1,.90039-4.20264,6.43672,6.43672,0,0,1,2.58984-2.78564,7.82836,7.82836,0,0,1,3.97656-.97461,10.95861,10.95861,0,0,1,4.77149,1.085l-1.27539,3.27588a14.27931,14.27931,0,0,0-1.70508-.67432A5.96223,5.96223,0,0,0,1584.29443,20.6539Z"/>
          <path class="cls-5" d="M1595.59717,27.25791v5.60351H1591.437V17.4625h5.04492q6.27833,0,6.27735,4.55029A4.54728,4.54728,0,0,1,1600.148,26.152l4.48633,6.70947h-4.71875l-3.26563-5.60351Zm0-3.12793h.77929q2.1797,0,2.17969-1.92774,0-1.59009-2.13672-1.59033h-.82226Z"/>
          <path class="cls-5" d="M1615.17725,32.86142h-9.14258V17.4625h9.14258v3.33886h-4.98243v2.42286h4.61329v3.33886h-4.61329v2.90674h4.98243Z"/>
          <path class="cls-5" d="M1627.32178,32.86142l-.75977-2.88574h-5.002l-.7793,2.88574h-4.57226l5.02539-15.46191h5.55078l5.08594,15.46191Zm-1.623-6.29834-.66406-2.52783q-.23145-.843-.5625-2.18066-.33107-1.3374-.4375-1.917-.09375.5376-.373,1.76954-.28125,1.23266-1.23828,4.856Z"/>
          <path class="cls-5" d="M1646.60693,24.83554a7.958,7.958,0,0,1-2.123,5.94043,8.15153,8.15153,0,0,1-5.9668,2.08545h-4.98242V17.4625h5.33008a8.04274,8.04274,0,0,1,5.72461,1.896A7.15868,7.15868,0,0,1,1646.60693,24.83554Zm-4.31836.14746a4.89123,4.89123,0,0,0-.83789-3.13867,3.097,3.097,0,0,0-2.543-1.022h-1.21289v8.62647h.92774a3.357,3.357,0,0,0,2.78125-1.10059A5.31753,5.31753,0,0,0,1642.28857,24.983Z"/>
          <path class="cls-5" d="M1663.7749,25.14072a8.30309,8.30309,0,0,1-1.90625,5.90918,8.66342,8.66342,0,0,1-11.13867-.01074,8.26884,8.26884,0,0,1-1.93164-5.91944,8.21847,8.21847,0,0,1,1.92187-5.87207,8.71615,8.71615,0,0,1,11.15821-.01562Q1663.77685,21.244,1663.7749,25.14072Zm-10.5957,0q0,4.46631,3.10742,4.46631a2.67342,2.67342,0,0,0,2.34375-1.085,5.95292,5.95292,0,0,0,.76367-3.38135,5.9696,5.9696,0,0,0-.77539-3.40723,2.64089,2.64089,0,0,0-2.31054-1.10058Q1653.1792,20.63291,1653.1792,25.14072Z"/>
          <path class="cls-5" d="M1670.71631,27.25791v5.60351h-4.16016V17.4625h5.04492q6.27833,0,6.27735,4.55029a4.54728,4.54728,0,0,1-2.61133,4.13916l4.48633,6.70947h-4.71875l-3.26563-5.60351Zm0-3.12793h.7793q2.17968,0,2.17968-1.92774,0-1.59009-2.13672-1.59033h-.82226Z"/>
          <path class="cls-5" d="M1699.82764,24.83554a7.95709,7.95709,0,0,1-2.1211,5.94043,8.15458,8.15458,0,0,1-5.96679,2.08545h-4.98243V17.4625h5.33008a8.0344,8.0344,0,0,1,5.72266,1.896A7.15153,7.15153,0,0,1,1699.82764,24.83554Zm-4.31836.14746a4.89129,4.89129,0,0,0-.83789-3.13867,3.0918,3.0918,0,0,0-2.543-1.022h-1.21094v8.62647h.92773a3.35285,3.35285,0,0,0,2.7793-1.10059A5.31747,5.31747,0,0,0,1695.50928,24.983Z"/>
          <path class="cls-5" d="M1711.73,32.86142h-9.14258V17.4625H1711.73v3.33886h-4.98242v2.42286h4.61328v3.33886h-4.61328v2.90674H1711.73Z"/>
          <path class="cls-5" d="M1729.478,32.86142l-.75782-2.88574h-5.0039l-.7793,2.88574h-4.57031l5.02344-15.46191h5.55078l5.08789,15.46191Zm-1.6211-6.29834-.66406-2.52783q-.23145-.843-.56445-2.18066-.33107-1.3374-.43555-1.917-.09668.5376-.375,1.76954-.27833,1.23266-1.23828,4.856Z"/>
          <path class="cls-5" d="M1739.853,27.25791v5.60351h-4.16016V17.4625h5.04492q6.27833,0,6.27735,4.55029a4.54728,4.54728,0,0,1-2.61133,4.13916l4.48633,6.70947h-4.71875l-3.26563-5.60351Zm0-3.12793h.77929q2.1797,0,2.17969-1.92774,0-1.59009-2.13672-1.59033h-.82226Z"/>
          <path class="cls-5" d="M1763.36084,24.83554a7.95712,7.95712,0,0,1-2.12109,5.94043,8.15462,8.15462,0,0,1-5.9668,2.08545h-4.98242V17.4625h5.33008a8.03439,8.03439,0,0,1,5.72265,1.896A7.15153,7.15153,0,0,1,1763.36084,24.83554Zm-4.31836.14746a4.89129,4.89129,0,0,0-.83789-3.13867,3.0918,3.0918,0,0,0-2.543-1.022h-1.21094v8.62647h.92774a3.35284,3.35284,0,0,0,2.77929-1.10059A5.31747,5.31747,0,0,0,1759.04248,24.983Z"/>
          <path class="cls-5" d="M1779.2124,17.4625v9.269a6.21927,6.21927,0,0,1-1.71094,4.68164,8.12062,8.12062,0,0,1-9.77343.04736,6.10149,6.10149,0,0,1-1.69141-4.63427V17.4625h4.18164v9.03711a3.69746,3.69746,0,0,0,.61133,2.37011,2.63132,2.63132,0,0,0,3.64844.00489,3.91842,3.91842,0,0,0,.57422-2.396V17.4625Z"/>
          <path class="cls-5" d="M1782.44678,32.86142V17.4625h4.18164V32.86142Z"/>
          <path class="cls-5" d="M1804.61865,32.86142h-5.45508l-5.625-10.84863h-.0957q.20215,2.55908.20117,3.90771v6.94092h-3.6875V17.4625h5.43555l5.60352,10.70117h.0625q-.14649-2.32764-.14649-3.73877V17.4625h3.707Z"/>
          <path class="cls-5" d="M1822.355,25.14072a8.30313,8.30313,0,0,1-1.90625,5.90918,8.66342,8.66342,0,0,1-11.13867-.01074,8.26884,8.26884,0,0,1-1.93164-5.91944,8.21847,8.21847,0,0,1,1.92187-5.87207,8.71615,8.71615,0,0,1,11.15821-.01562Q1822.35693,21.244,1822.355,25.14072Zm-10.5957,0q0,4.46631,3.10742,4.46631a2.67344,2.67344,0,0,0,2.34375-1.085,5.95292,5.95292,0,0,0,.76367-3.38135,5.9696,5.9696,0,0,0-.77539-3.40723,2.64089,2.64089,0,0,0-2.31055-1.10058Q1811.75929,20.63291,1811.75928,25.14072Z"/>
        </g>
        <g>
          <path class="cls-5" d="M1461.59033,65.97275q0,8.042-4.42676,12.39258-4.42968,4.35058-12.44824,4.35059h-10.39355v-32.124h11.11914q7.73438,0,11.9414,3.95508T1461.59033,65.97275Zm-9.00879.30762q0-4.41651-1.74609-6.54785a6.46278,6.46278,0,0,0-5.30664-2.13135h-2.52735v17.9956h1.9336q3.95508,0,5.80078-2.29589Q1452.58155,71.00473,1452.58154,66.28037Z"/>
          <path class="cls-5" d="M1483.07959,82.71592l-1.64844-3.2959h-.17578a9.7759,9.7759,0,0,1-3.53711,2.94433,11.68488,11.68488,0,0,1-4.6582.791A7.307,7.307,0,0,1,1467.523,81.046a8.22817,8.22817,0,0,1-2.02149-5.93261A6.74974,6.74974,0,0,1,1468.27,69.1915q2.76855-1.94385,8.02051-2.186l4.15234-.13184v-.35156q0-3.07617-3.03223-3.07617a18.12743,18.12743,0,0,0-6.92089,1.8457l-2.4834-5.669a23.88129,23.88129,0,0,1,10.98633-2.24121q4.79,0,7.416,2.373a8.489,8.489,0,0,1,2.626,6.63574V82.71592Zm-6.37207-5.625a3.8758,3.8758,0,0,0,2.66992-.98877,3.28357,3.28357,0,0,0,1.10938-2.57081V71.59775l-1.97754.08789q-4.24073.15381-4.24024,3.12012Q1474.269,77.09092,1476.70752,77.09092Z"/>
          <path class="cls-5" d="M1501.40479,82.71592l-9.49219-24.895h8.96484l4.21875,14.72168q.022.10986.08789.37353t.13184.626q.06591.36327.12109.76953a5.75878,5.75878,0,0,1,.05469.75781h.1543a8.81111,8.81111,0,0,1,.39453-2.48291l4.417-14.76562h8.94238l-9.49219,24.895Z"/>
          <path class="cls-5" d="M1522.19092,51.62461a3.63269,3.63269,0,0,1,1.07617-2.87842,6.82384,6.82384,0,0,1,6.96582.022,3.60328,3.60328,0,0,1,1.09863,2.85645q0,3.7793-4.59179,3.77929Q1522.18994,55.4039,1522.19092,51.62461Zm8.81054,31.09131h-8.59082V57.8209h8.59082Z"/>
          <path class="cls-5" d="M1544.73486,83.15537a7.45027,7.45027,0,0,1-4.64746-1.51612,9.6083,9.6083,0,0,1-3.07617-4.46044,19.828,19.828,0,0,1-1.08789-6.87745q0-6.06444,2.43945-9.49218a7.782,7.782,0,0,1,6.70117-3.42774,7.67733,7.67733,0,0,1,3.65821.835,8.08374,8.08374,0,0,1,2.86914,2.8125h.17578a41.1346,41.1346,0,0,1-.418-5.84472V48.52646h8.65625V82.71592h-6.48047l-1.8457-3.14209h-.33008A7.28313,7.28313,0,0,1,1544.73486,83.15537Zm3.5166-6.78955a3.21049,3.21049,0,0,0,2.91016-1.29639,7.79623,7.79623,0,0,0,.91211-3.999v-.68116a8.68948,8.68948,0,0,0-.94531-4.69091,3.32685,3.32685,0,0,0-2.96485-1.39551,2.90638,2.90638,0,0,0-2.62695,1.59277,9.05321,9.05321,0,0,0-.93359,4.5376,8.41374,8.41374,0,0,0,.94531,4.4165A3.004,3.004,0,0,0,1548.25146,76.36582Z"/>
          <path class="cls-5" d="M1592.437,57.24961a5.53772,5.53772,0,0,0-4.834,2.53759,12.26552,12.26552,0,0,0-1.73438,6.99854q0,9.27246,7.05274,9.27246a14.45528,14.45528,0,0,0,4.13086-.59326,41.42928,41.42928,0,0,0,4.02148-1.42822v7.33886a22.25742,22.25742,0,0,1-9.09766,1.77979q-7.27147,0-11.15039-4.21875t-3.8789-12.19483a19.46246,19.46246,0,0,1,1.8789-8.76709,13.43776,13.43776,0,0,1,5.40625-5.81152,16.31613,16.31613,0,0,1,8.293-2.03271,22.85318,22.85318,0,0,1,9.95508,2.26318l-2.66016,6.8335a29.87509,29.87509,0,0,0-3.55859-1.40625A12.44629,12.44629,0,0,0,1592.437,57.24961Z"/>
          <path class="cls-5" d="M1624.562,82.71592l-1.07812-3.09815H1622.98a6.99582,6.99582,0,0,1-3,2.62549,10.43729,10.43729,0,0,1-4.51562.91211,8.44092,8.44092,0,0,1-6.39454-2.38379,9.34246,9.34246,0,0,1-2.28515-6.73486V57.8209h8.59179V71.422a7.79247,7.79247,0,0,0,.69336,3.69141,2.3951,2.3951,0,0,0,2.27344,1.25244,3.31172,3.31172,0,0,0,3.16406-1.74658q.94337-1.74756.94532-5.89991V57.8209h8.58984v24.895Z"/>
          <path class="cls-5" d="M1653.21436,82.71592l-1.64844-3.2959h-.17578a9.7919,9.7919,0,0,1-3.53711,2.94433,11.68493,11.68493,0,0,1-4.65821.791,7.307,7.307,0,0,1-5.53711-2.10938,8.22821,8.22821,0,0,1-2.02148-5.93261,6.74908,6.74908,0,0,1,2.76758-5.92188q2.76855-1.94385,8.01953-2.186l4.1543-.13184v-.35156q0-3.07617-3.03321-3.07617a18.14007,18.14007,0,0,0-6.92187,1.8457l-2.48242-5.669a23.88128,23.88128,0,0,1,10.98632-2.24121q4.79,0,7.416,2.373a8.4884,8.4884,0,0,1,2.625,6.63574V82.71592Zm-6.373-5.625a3.8741,3.8741,0,0,0,2.66992-.98877,3.28041,3.28041,0,0,0,1.10938-2.57081V71.59775l-1.97657.08789q-4.24218.15381-4.24218,3.12012Q1644.40186,77.09092,1646.84131,77.09092Z"/>
          <path class="cls-5" d="M1680.04248,57.38144a12.43373,12.43373,0,0,1,2.13086.17578l.48437.08789-.76953,8.10791a12.63956,12.63956,0,0,0-2.92187-.26367,5.57358,5.57358,0,0,0-4.08789,1.28516,5.03866,5.03866,0,0,0-1.27344,3.70264V82.71592h-8.5918V57.8209h6.39453l1.33985,3.977h.418a8.59992,8.59992,0,0,1,2.998-3.19727A7.18622,7.18622,0,0,1,1680.04248,57.38144Z"/>
          <path class="cls-5" d="M1698.32373,76.36582a12.7798,12.7798,0,0,0,4.15234-.85694v6.26221a16.94,16.94,0,0,1-3.30664,1.06592,18.75963,18.75963,0,0,1-3.68164.31836q-4.32714,0-6.24023-2.12012-1.91016-2.12036-1.91016-6.51514V64.25888h-3.01172V60.76523l3.82422-2.70264,2.21875-5.22949h5.625v4.9878h6.10938v6.438h-6.10938v9.68995Q1695.99365,76.36581,1698.32373,76.36582Z"/>
          <path class="cls-5" d="M1706.65186,51.62461a3.63269,3.63269,0,0,1,1.07617-2.87842,6.822,6.822,0,0,1,6.96484.022,3.60377,3.60377,0,0,1,1.09961,2.85645q0,3.7793-4.5918,3.77929Q1706.65088,55.4039,1706.65186,51.62461Zm8.81054,31.09131h-8.59179V57.8209h8.59179Z"/>
          <path class="cls-5" d="M1733.48,83.15537q-6.21972,0-9.6582-3.30664-3.43653-3.30689-3.4375-9.41553,0-6.30615,3.18554-9.6792,3.18458-3.37208,9.09571-3.37256,5.625,0,8.6914,2.93311,3.06445,2.93408,3.06446,8.44873v3.82324H1729.062a4.26269,4.26269,0,0,0,1.52735,3.27393,5.98709,5.98709,0,0,0,3.92187,1.18652,18.89527,18.89527,0,0,0,4.16406-.42871,20.61286,20.61286,0,0,0,4.1211-1.46094v6.17432a15.1645,15.1645,0,0,1-4.17578,1.42822A28.878,28.878,0,0,1,1733.48,83.15537Zm-.50586-19.9292a3.5686,3.5686,0,0,0-2.53711.95557,4.48705,4.48705,0,0,0-1.19922,2.99951h7.38282a4.27868,4.27868,0,0,0-1.02149-2.87842A3.37035,3.37035,0,0,0,1732.97412,63.22617Z"/>
          <path class="cls-5" d="M1757.87061,82.71592h-8.5918V48.52646h8.5918Z"/>
          <path class="cls-5" d="M1772.41553,82.71592h-8.5918V48.52646h8.5918Z"/>
          <path class="cls-5" d="M1790.39014,83.15537q-6.21974,0-9.65821-3.30664-3.43651-3.30689-3.4375-9.41553,0-6.30615,3.18555-9.6792,3.18457-3.37208,9.0957-3.37256,5.625,0,8.69141,2.93311,3.06445,2.93408,3.06445,8.44873v3.82324h-15.35937a4.26268,4.26268,0,0,0,1.52734,3.27393,5.98714,5.98714,0,0,0,3.92188,1.18652,18.8954,18.8954,0,0,0,4.16406-.42871,20.61279,20.61279,0,0,0,4.12109-1.46094v6.17432a15.16428,15.16428,0,0,1-4.17578,1.42822A28.878,28.878,0,0,1,1790.39014,83.15537Zm-.50586-19.9292a3.5686,3.5686,0,0,0-2.53711.95557,4.48705,4.48705,0,0,0-1.19922,2.99951h7.38281a4.27868,4.27868,0,0,0-1.02148-2.87842A3.37036,3.37036,0,0,0,1789.88428,63.22617Z"/>
          <path class="cls-5" d="M1825.41357,75.06943a7.07805,7.07805,0,0,1-2.72461,6.04248q-2.7246,2.04347-7.82226,2.04346a33.89416,33.89416,0,0,1-4.8125-.29688,20.417,20.417,0,0,1-4.17578-1.0874V74.89365a25.878,25.878,0,0,0,4.38476,1.45019,18.47271,18.47271,0,0,0,4.252.57129q2.78906,0,2.78906-1.27441a1.44287,1.44287,0,0,0-.7793-1.17578,35.71751,35.71751,0,0,0-4.53711-2.01026,11.309,11.309,0,0,1-4.791-3.19677,7.2813,7.2813,0,0,1-1.36133-4.5376,6.28371,6.28371,0,0,1,2.67969-5.40527q2.68066-1.93361,7.582-1.9336a19.11278,19.11278,0,0,1,4.625.53858,27.4698,27.4698,0,0,1,4.49219,1.5708l-2.32813,5.53711a26.20724,26.20724,0,0,0-3.625-1.30713,12.07138,12.07138,0,0,0-3.12109-.53858q-2.10937,0-2.10938,1.03272a1.28825,1.28825,0,0,0,.73633,1.08789,39.61192,39.61192,0,0,0,4.25195,1.83447,16.367,16.367,0,0,1,3.90039,2.10938,6.30666,6.30666,0,0,1,1.88868,2.42822A8.5012,8.5012,0,0,1,1825.41357,75.06943Z"/>
        </g>
      </g>
      <g>
        <g>
          <path class="cls-5" d="M146.76123,20.6539a2.65333,2.65333,0,0,0-2.31738,1.2168,5.87475,5.87475,0,0,0-.832,3.35449q0,4.44507,3.38183,4.44483a6.92535,6.92535,0,0,0,1.97949-.28418,19.91808,19.91808,0,0,0,1.92774-.68506v3.51806a10.66515,10.66515,0,0,1-4.36035.853,6.89825,6.89825,0,0,1-5.34571-2.022,8.3421,8.3421,0,0,1-1.85937-5.8457,9.32516,9.32516,0,0,1,.90137-4.20264,6.43879,6.43879,0,0,1,2.59082-2.78564,7.82467,7.82467,0,0,1,3.97558-.97461,10.95544,10.95544,0,0,1,4.77149,1.085l-1.27442,3.27588a14.29226,14.29226,0,0,0-1.706-.67432A5.96494,5.96494,0,0,0,146.76123,20.6539Z"/>
          <path class="cls-5" d="M168.9585,25.14072a8.30759,8.30759,0,0,1-1.90625,5.90918,8.66343,8.66343,0,0,1-11.13868-.01074,8.2735,8.2735,0,0,1-1.93261-5.91944,8.21847,8.21847,0,0,1,1.92187-5.87207A8.71885,8.71885,0,0,1,167.063,19.232,8.313,8.313,0,0,1,168.9585,25.14072Zm-10.59571,0q0,4.46631,3.10645,4.46631a2.67114,2.67114,0,0,0,2.34375-1.085,5.94494,5.94494,0,0,0,.76367-3.38135,5.97824,5.97824,0,0,0-.77441-3.40723,2.64038,2.64038,0,0,0-2.31153-1.10058Q158.36182,20.63291,158.36279,25.14072Z"/>
          <path class="cls-5" d="M187.04834,32.86142h-5.457l-5.624-10.84863h-.09473q.19922,2.55908.20019,3.90771v6.94092h-3.68652V17.4625h5.43457l5.60352,10.70117h.06347q-.14794-2.32764-.14746-3.73877V17.4625h3.708Z"/>
          <path class="cls-5" d="M197.27393,32.86142V17.4625h4.16015V29.50156h5.93067v3.35986Z"/>
          <path class="cls-5" d="M219.92432,32.86142l-.75879-2.88574H214.1626l-.7793,2.88574H208.812l5.02442-15.46191h5.55078l5.08691,15.46191Zm-1.62207-6.29834-.66407-2.52783q-.23144-.843-.56347-2.18066-.33106-1.3374-.43653-1.917-.0952.5376-.374,1.76954-.27978,1.23266-1.23828,4.856Z"/>
          <path class="cls-5" d="M244.21143,22.36045a5.15653,5.15653,0,0,1-1.52247,3.98632,6.13925,6.13925,0,0,1-4.32324,1.40625H237.1958v5.1084h-4.16016V17.4625h5.33008a6.51294,6.51294,0,0,1,4.38086,1.27441A4.54511,4.54511,0,0,1,244.21143,22.36045Zm-7.01563,2.001h.75879a2.07033,2.07033,0,0,0,1.49023-.52636,1.91012,1.91012,0,0,0,.55274-1.45362q0-1.55859-1.72656-1.55908h-1.0752Z"/>
          <path class="cls-5" d="M251.47217,27.25791v5.60351H247.312V17.4625h5.04492q6.27833,0,6.27832,4.55029A4.54654,4.54654,0,0,1,256.023,26.152l4.48633,6.70947h-4.71875l-3.26465-5.60351Zm0-3.12793h.78027q2.17969,0,2.17969-1.92774,0-1.59009-2.1377-1.59033h-.82226Z"/>
          <path class="cls-5" d="M271.70068,32.86142h-9.14257V17.4625h9.14257v3.33886h-4.98242v2.42286h4.61328v3.33886h-4.61328v2.90674h4.98242Z"/>
          <path class="cls-5" d="M285.11279,28.18467a4.54388,4.54388,0,0,1-.72656,2.54394,4.76473,4.76473,0,0,1-2.0957,1.72754,7.77552,7.77552,0,0,1-3.21289.61572,12.97864,12.97864,0,0,1-2.58008-.21582,9.56233,9.56233,0,0,1-2.16992-.75293V28.3956a12.37,12.37,0,0,0,2.47461.95313,9.211,9.211,0,0,0,2.35937.34228,2.29266,2.29266,0,0,0,1.35938-.32129.98885.98885,0,0,0,.43164-.82666.91468.91468,0,0,0-.17383-.55322,2.02947,2.02947,0,0,0-.5586-.479q-.38378-.24243-2.04882-.99024a9.79861,9.79861,0,0,1-2.25879-1.32715,4.06922,4.06922,0,0,1-1.11621-1.47461,4.89208,4.89208,0,0,1-.36328-1.96923,3.947,3.947,0,0,1,1.54785-3.31787,6.82379,6.82379,0,0,1,4.25488-1.19043,11.93944,11.93944,0,0,1,4.877,1.106l-1.27441,3.21241a9.24138,9.24138,0,0,0-3.72852-.98975,1.94413,1.94413,0,0,0-1.17968.28418.85984.85984,0,0,0-.36914.70557,1.01784,1.01784,0,0,0,.46875.811,17.88861,17.88861,0,0,0,2.54394,1.30615,7.035,7.035,0,0,1,2.76465,1.92237A4.17088,4.17088,0,0,1,285.11279,28.18467Z"/>
          <path class="cls-5" d="M297.28271,32.86142h-9.14257V17.4625h9.14257v3.33886h-4.98242v2.42286h4.61328v3.33886h-4.61328v2.90674h4.98242Z"/>
          <path class="cls-5" d="M315.28857,32.86142h-5.45605l-5.625-10.84863h-.09473q.20068,2.55908.2002,3.90771v6.94092h-3.68653V17.4625H306.061l5.60351,10.70117h.06348q-.148-2.32764-.14746-3.73877V17.4625h3.708Z"/>
          <path class="cls-5" d="M326.11963,20.6539a2.65283,2.65283,0,0,0-2.31641,1.2168,5.87483,5.87483,0,0,0-.832,3.35449q0,4.44507,3.38086,4.44483a6.9254,6.9254,0,0,0,1.97949-.28418,19.73477,19.73477,0,0,0,1.92774-.68506v3.51806a10.66515,10.66515,0,0,1-4.36035.853,6.89825,6.89825,0,0,1-5.34571-2.022,8.34182,8.34182,0,0,1-1.8584-5.8457,9.32515,9.32515,0,0,1,.90039-4.20264,6.44457,6.44457,0,0,1,2.59083-2.78564,7.82582,7.82582,0,0,1,3.97656-.97461,10.95129,10.95129,0,0,1,4.77051,1.085l-1.27442,3.27588a14.228,14.228,0,0,0-1.70605-.67432A5.96041,5.96041,0,0,0,326.11963,20.6539Z"/>
          <path class="cls-5" d="M333.90869,32.86142V17.4625h4.18164V32.86142Z"/>
          <path class="cls-5" d="M351.51318,32.86142l-.75879-2.88574h-5.00293l-.77929,2.88574h-4.57129l5.02441-15.46191h5.55078L356.063,32.86142Zm-1.62207-6.29834-.66406-2.52783q-.23145-.843-.56348-2.18066-.331-1.3374-.43652-1.917-.09522.5376-.374,1.76954-.2798,1.23266-1.23828,4.856Z"/>
          <path class="cls-5" d="M377.69678,24.83554a7.95756,7.95756,0,0,1-2.12207,5.94043,8.15306,8.15306,0,0,1-5.9668,2.08545h-4.98242V17.4625h5.33008a8.03857,8.03857,0,0,1,5.72363,1.896A7.15509,7.15509,0,0,1,377.69678,24.83554Zm-4.31836.14746a4.89129,4.89129,0,0,0-.83789-3.13867,3.09439,3.09439,0,0,0-2.543-1.022h-1.21192v8.62647h.92774a3.35492,3.35492,0,0,0,2.78027-1.10059A5.31747,5.31747,0,0,0,373.37842,24.983Z"/>
          <path class="cls-5" d="M390.24561,32.86142H381.103V17.4625h9.14258v3.33886h-4.98243v2.42286h4.61328v3.33886h-4.61328v2.90674h4.98243Z"/>
        </g>
        <g>
          <path class="cls-5" d="M126.14014,82.71592l-1.582-6.02051H114.12158l-1.626,6.02051h-9.53614l10.48047-32.25586H125.02l10.6123,32.25586Zm-3.38379-13.13965-1.38379-5.27344q-.4834-1.75782-1.17578-4.54834-.69141-2.79052-.91211-3.999-.19776,1.1206-.7793,3.6914-.583,2.57081-2.582,10.1294Z"/>
          <path class="cls-5" d="M159.56982,82.71592H138.95947V77.816l10.30469-13.42529h-9.71191V57.8209h19.53418v5.31738l-9.86622,13.00781h10.34961Z"/>
          <path class="cls-5" d="M165.731,51.62461a3.62943,3.62943,0,0,1,1.07617-2.87842,6.82384,6.82384,0,0,1,6.96582.022,3.60328,3.60328,0,0,1,1.09863,2.85645q0,3.7793-4.59277,3.77929Q165.73046,55.4039,165.731,51.62461Zm8.81054,31.09131h-8.59082V57.8209h8.59082Z"/>
          <path class="cls-5" d="M194.80908,83.15537q-6.21827,0-9.65722-3.30664-3.438-3.30689-3.43848-9.41553,0-6.30615,3.18652-9.6792,3.186-3.37208,9.09668-3.37256,5.625,0,8.68946,2.93311,3.06591,2.93408,3.06542,8.44873v3.82324H190.39307a4.26188,4.26188,0,0,0,1.52636,3.27393,5.98635,5.98635,0,0,0,3.92286,1.18652,18.89892,18.89892,0,0,0,4.16308-.42871,20.58448,20.58448,0,0,0,4.12012-1.46094v6.17432a15.15825,15.15825,0,0,1-4.17481,1.42822A28.88953,28.88953,0,0,1,194.80908,83.15537Zm-.50488-19.9292a3.57425,3.57425,0,0,0-2.53809.95557,4.48637,4.48637,0,0,0-1.19726,2.99951h7.38281a4.2792,4.2792,0,0,0-1.02246-2.87842A3.37036,3.37036,0,0,0,194.3042,63.22617Z"/>
          <path class="cls-5" d="M221.44873,82.71592h-8.59082V48.52646h8.59082Z"/>
          <path class="cls-5" d="M258.09521,82.71592,251.5249,59.57871h-.19726q.46,5.91065.46093,9.18457V82.71592h-7.69043v-32.124h11.55762l6.70117,22.80762h.17578L269.103,50.59189h11.58008v32.124h-7.97657V68.63144q0-1.09863.03321-2.439.03222-1.34034.29687-6.56983h-.19824l-6.48145,23.09327Z"/>
          <path class="cls-5" d="M301.36768,83.15537q-6.21827,0-9.65723-3.30664-3.438-3.30689-3.43848-9.41553,0-6.30615,3.18653-9.6792,3.18456-3.37208,9.0957-3.37256,5.625,0,8.69043,2.93311,3.06591,2.93408,3.06543,8.44873v3.82324H296.95068a4.26269,4.26269,0,0,0,1.52735,3.27393A5.9835,5.9835,0,0,0,302.3999,77.047a18.908,18.908,0,0,0,4.16406-.42871,20.58448,20.58448,0,0,0,4.12012-1.46094v6.17432a15.15819,15.15819,0,0,1-4.1748,1.42822A28.88969,28.88969,0,0,1,301.36768,83.15537Zm-.50489-19.9292a3.57257,3.57257,0,0,0-2.53808.95557,4.48671,4.48671,0,0,0-1.19825,2.99951h7.38282a4.27863,4.27863,0,0,0-1.02149-2.87842A3.37175,3.37175,0,0,0,300.86279,63.22617Z"/>
          <path class="cls-5" d="M327.15186,83.15537a7.44636,7.44636,0,0,1-4.64747-1.51612,9.6083,9.6083,0,0,1-3.07617-4.46044,19.80523,19.80523,0,0,1-1.08789-6.87745q0-6.06444,2.43848-9.49218a7.78481,7.78481,0,0,1,6.70215-3.42774,7.68,7.68,0,0,1,3.6582.835,8.08949,8.08949,0,0,1,2.86816,2.8125h.17579a41.1346,41.1346,0,0,1-.418-5.84472V48.52646h8.65722V82.71592h-6.48144l-1.84571-3.14209h-.33007A7.28052,7.28052,0,0,1,327.15186,83.15537Zm3.51562-6.78955a3.21118,3.21118,0,0,0,2.91113-1.29639,7.80712,7.80712,0,0,0,.91114-3.999v-.68116a8.7,8.7,0,0,0-.94434-4.69091,3.32859,3.32859,0,0,0-2.96582-1.39551,2.9039,2.9039,0,0,0-2.626,1.59277,9.05241,9.05241,0,0,0-.93457,4.5376,8.42316,8.42316,0,0,0,.94532,4.4165A3.0061,3.0061,0,0,0,330.66748,76.36582Z"/>
          <path class="cls-5" d="M350.4292,51.62461a3.62943,3.62943,0,0,1,1.07617-2.87842,6.82205,6.82205,0,0,1,6.96484.022,3.60374,3.60374,0,0,1,1.09961,2.85645q0,3.7793-4.59277,3.77929Q350.42871,55.4039,350.4292,51.62461Zm8.81055,31.09131H350.648V57.8209h8.5918Z"/>
          <path class="cls-5" d="M383.19873,82.71592V69.13681a7.7949,7.7949,0,0,0-.71387-3.74609,2.44235,2.44235,0,0,0-2.29687-1.26367,3.32335,3.32335,0,0,0-3.1416,1.73584q-.96679,1.73583-.9668,5.95459V82.71592h-8.59082V57.8209h6.48144l1.07715,3.07617h.50489a6.80845,6.80845,0,0,1,3.043-2.63672,10.75687,10.75687,0,0,1,4.47168-.87891,8.48156,8.48156,0,0,1,6.42676,2.395,9.352,9.352,0,0,1,2.2959,6.74561V82.71592Z"/>
          <path class="cls-5" d="M416.12256,82.71592,414.4751,79.42h-.17578a9.79414,9.79414,0,0,1-3.53809,2.94433,11.68491,11.68491,0,0,1-4.6582.791,7.307,7.307,0,0,1-5.53711-2.10938,8.22817,8.22817,0,0,1-2.02149-5.93261A6.74974,6.74974,0,0,1,401.313,69.1915q2.76855-1.94385,8.01953-2.186l4.15332-.13184v-.35156q0-3.07617-3.03223-3.07617a18.13575,18.13575,0,0,0-6.92187,1.8457l-2.48242-5.669a23.88128,23.88128,0,0,1,10.98632-2.24121q4.79,0,7.416,2.373a8.4884,8.4884,0,0,1,2.625,6.63574V82.71592Zm-6.37207-5.625a3.8758,3.8758,0,0,0,2.66992-.98877,3.28357,3.28357,0,0,0,1.10938-2.57081V71.59775l-1.97754.08789q-4.24073.15381-4.24121,3.12012Q407.311,77.09092,409.75049,77.09092Z"/>
        </g>
      </g>
    </g>
  </g>
</svg>
