<svg xmlns="http://www.w3.org/2000/svg" xmlns:xlink="http://www.w3.org/1999/xlink" width="1920" height="245" viewBox="0 0 1920 245">
  <defs>
    <style>
      .cls-1 {
        fill: none;
      }

      .cls-2 {
        fill: #297380;
      }

      .cls-3 {
        fill: #7fd7c3;
      }

      .cls-4 {
        clip-path: url(#clip-path);
      }

      .cls-5 {
        fill: #fff;
      }

      .cls-6 {
        fill: #efa220;
      }
    </style>
    <clipPath id="clip-path">
      <rect class="cls-1" y="200" width="1920" height="45"/>
    </clipPath>
  </defs>
  <g id="Textos">
    <rect class="cls-2" y="100" width="1920" height="100"/>
    <g>
      <rect class="cls-3" y="200" width="1920" height="45"/>
      <g class="cls-4">
        <g>
          <polygon class="cls-5" points="113.601 200 86.225 226.324 97.859 237.957 135.813 200 113.601 200"/>
          <polygon class="cls-5" points="150.48 200 105.306 245.205 115.954 256.451 172.313 200 150.48 200"/>
          <polygon class="cls-5" points="186.514 200 123.112 263.402 133.961 274.453 208.309 200 186.514 200"/>
          <polygon class="cls-5" points="229.115 200 222.891 206.226 233.844 217.173 249.212 201.802 265.125 217.712 276.075 206.765 269.313 200 229.115 200"/>
          <polygon class="cls-5" points="0 240.825 0 262.727 20.223 242.501 93.598 315.876 104.451 304.825 20.223 220.598 0 240.825"/>
          <polygon class="cls-5" points="72.272 200 55.856 216.489 55.764 216.395 44.817 227.345 113.271 295.804 124.224 284.854 66.972 227.6 93.876 200 72.272 200"/>
          <polygon class="cls-5" points="528.351 200 500.975 226.324 512.609 237.957 550.563 200 528.351 200"/>
          <polygon class="cls-5" points="565.23 200 520.057 245.205 530.704 256.451 587.063 200 565.23 200"/>
          <polygon class="cls-5" points="601.264 200 537.862 263.402 548.711 274.453 623.06 200 601.264 200"/>
          <polygon class="cls-5" points="487.023 200 470.606 216.489 470.514 216.395 459.568 227.345 528.021 295.804 538.974 284.854 481.723 227.6 508.626 200 487.023 200"/>
          <polygon class="cls-5" points="299.896 200 283.479 216.489 283.388 216.395 272.441 227.345 362.526 318.233 373.788 306.798 294.596 227.6 321.5 200 299.896 200"/>
          <polygon class="cls-5" points="0 424.743 0 446.633 224.429 227.346 213.48 216.399 0 424.743"/>
          <polygon class="cls-5" points="647.489 200 641.265 206.226 652.215 217.173 667.586 201.802 683.499 217.712 694.449 206.765 687.683 200 647.489 200"/>
          <polygon class="cls-5" points="642.802 227.346 631.853 216.396 403.951 438.995 414.639 450.207 642.802 227.346"/>
          <polygon class="cls-5" points="0 200 0 213.597 4.118 217.712 20.031 201.802 35.402 217.173 46.352 206.226 40.128 200 0 200"/>
          <polygon class="cls-5" points="522.341 304.824 511.489 315.875 438.117 242.503 369.264 311.353 355.301 303.419 438.117 220.6 522.341 304.824"/>
          <polygon class="cls-5" points="364.616 200 390.791 226.176 362.797 254.166 325.436 216.811 312.734 229.289 362.797 279.349 415.243 226.9 388.85 200 364.616 200"/>
          <polygon class="cls-5" points="417.825 200 411.06 206.765 422.013 217.712 437.926 201.802 453.293 217.173 464.243 206.226 458.02 200 417.825 200"/>
          <polygon class="cls-5" points="345.484 200 335.791 209.693 361.343 235.244 372.397 224.402 347.998 200 345.484 200"/>
          <polygon class="cls-5" points="0 468.248 0 474.361 16.593 474.361 249.017 242.501 417.301 410.782 428.251 399.836 249.017 220.598 0 468.248"/>
          <polygon class="cls-5" points="945.895 200 918.519 226.324 930.149 237.957 968.107 200 945.895 200"/>
          <polygon class="cls-5" points="982.771 200 937.601 245.205 948.248 256.451 1004.608 200 982.771 200"/>
          <polygon class="cls-5" points="1018.807 200 955.402 263.402 966.251 274.453 1040.603 200 1018.807 200"/>
          <polygon class="cls-5" points="904.566 200 888.149 216.489 888.058 216.395 877.108 227.345 945.564 295.804 956.517 284.854 899.266 227.6 926.169 200 904.566 200"/>
          <polygon class="cls-5" points="717.44 200 701.023 216.489 700.931 216.395 689.982 227.345 780.07 318.233 791.328 306.798 712.14 227.6 739.043 200 717.44 200"/>
          <polygon class="cls-5" points="1065.032 200 1058.809 206.226 1069.759 217.173 1085.126 201.802 1101.039 217.712 1111.992 206.765 1105.224 200 1065.032 200"/>
          <polygon class="cls-5" points="1060.345 227.346 1049.396 216.396 821.494 438.995 832.182 450.207 1060.345 227.346"/>
          <polygon class="cls-5" points="939.885 304.824 929.032 315.875 855.66 242.503 786.807 311.353 772.842 303.419 855.66 220.6 939.885 304.824"/>
          <polygon class="cls-5" points="782.157 200 808.332 226.176 780.339 254.166 742.98 216.811 730.278 229.289 780.339 279.349 832.784 226.9 806.391 200 782.157 200"/>
          <polygon class="cls-5" points="835.369 200 828.604 206.765 839.557 217.712 855.466 201.802 870.837 217.173 881.787 206.226 875.564 200 835.369 200"/>
          <polygon class="cls-5" points="763.027 200 753.334 209.693 778.886 235.244 789.937 224.402 765.542 200 763.027 200"/>
          <polygon class="cls-5" points="411.397 474.361 434.134 474.361 666.561 242.501 834.842 410.783 845.799 399.833 666.561 220.599 411.397 474.361"/>
          <polygon class="cls-5" points="1363.439 200 1336.062 226.324 1347.693 237.957 1385.65 200 1363.439 200"/>
          <polygon class="cls-5" points="1400.314 200 1355.141 245.205 1365.792 256.451 1422.151 200 1400.314 200"/>
          <polygon class="cls-5" points="1436.351 200 1372.946 263.402 1383.795 274.453 1458.146 200 1436.351 200"/>
          <polygon class="cls-5" points="1322.109 200 1305.692 216.489 1305.604 216.395 1294.651 227.345 1363.104 295.804 1374.06 284.854 1316.806 227.6 1343.713 200 1322.109 200"/>
          <polygon class="cls-5" points="1134.983 200 1118.566 216.489 1118.477 216.395 1107.524 227.345 1197.612 318.233 1208.871 306.798 1129.679 227.6 1156.586 200 1134.983 200"/>
          <polygon class="cls-5" points="1482.576 200 1476.353 206.226 1487.303 217.173 1502.67 201.802 1518.583 217.712 1529.533 206.765 1522.771 200 1482.576 200"/>
          <polygon class="cls-5" points="1477.889 227.346 1466.939 216.396 1239.037 438.995 1249.725 450.207 1477.889 227.346"/>
          <polygon class="cls-5" points="1357.428 304.824 1346.575 315.875 1273.203 242.503 1204.35 311.353 1190.385 303.419 1273.203 220.6 1357.428 304.824"/>
          <polygon class="cls-5" points="1199.7 200 1225.876 226.176 1197.882 254.166 1160.52 216.811 1147.818 229.289 1197.882 279.349 1250.328 226.9 1223.935 200 1199.7 200"/>
          <polygon class="cls-5" points="1252.913 200 1246.147 206.765 1257.097 217.712 1273.01 201.802 1288.381 217.173 1299.33 206.226 1293.104 200 1252.913 200"/>
          <polygon class="cls-5" points="1180.571 200 1170.878 209.693 1196.43 235.244 1207.481 224.402 1183.085 200 1180.571 200"/>
          <polygon class="cls-5" points="828.94 474.361 851.678 474.361 1084.105 242.501 1252.386 410.783 1263.342 399.833 1084.105 220.599 828.94 474.361"/>
          <polygon class="cls-5" points="1780.982 200 1753.605 226.324 1765.236 237.957 1803.193 200 1780.982 200"/>
          <polygon class="cls-5" points="1817.858 200 1772.685 245.205 1783.332 256.451 1839.695 200 1817.858 200"/>
          <polygon class="cls-5" points="1853.892 200 1790.49 263.402 1801.339 274.453 1875.691 200 1853.892 200"/>
          <polygon class="cls-5" points="1739.653 200 1723.233 216.489 1723.145 216.395 1712.195 227.345 1780.648 295.804 1791.598 284.854 1734.35 227.6 1761.256 200 1739.653 200"/>
          <polygon class="cls-5" points="1552.526 200 1536.112 216.489 1536.018 216.395 1525.068 227.345 1615.153 318.233 1626.415 306.798 1547.223 227.6 1574.13 200 1552.526 200"/>
          <polygon class="cls-5" points="1900.118 200 1893.892 206.226 1904.845 217.173 1919.998 202.017 1919.998 200 1900.118 200"/>
          <polygon class="cls-5" points="1895.432 227.346 1884.482 216.396 1656.58 438.995 1667.268 450.207 1895.432 227.346"/>
          <polygon class="cls-5" points="1774.971 304.824 1764.118 315.875 1690.747 242.503 1621.893 311.353 1607.931 303.419 1690.747 220.6 1774.971 304.824"/>
          <polygon class="cls-5" points="1617.243 200 1643.419 226.176 1615.425 254.166 1578.063 216.811 1565.362 229.289 1615.425 279.349 1667.871 226.9 1641.478 200 1617.243 200"/>
          <polygon class="cls-5" points="1670.455 200 1663.692 206.765 1674.639 217.712 1690.552 201.802 1705.923 217.173 1716.876 206.226 1710.652 200 1670.455 200"/>
          <polygon class="cls-5" points="1598.114 200 1588.418 209.693 1613.973 235.244 1625.024 224.402 1600.629 200 1598.114 200"/>
          <polygon class="cls-5" points="1246.484 474.361 1269.222 474.361 1501.648 242.501 1669.93 410.783 1680.879 399.833 1501.648 220.599 1246.484 474.361"/>
          <polygon class="cls-5" points="1664.027 474.361 1686.765 474.361 1919.192 242.501 1919.998 243.308 1919.998 221.408 1919.192 220.599 1664.027 474.361"/>
        </g>
      </g>
    </g>
    <rect class="cls-6" width="1920" height="100"/>
    <g>
      <g>
        <path class="cls-5" d="M1443.17725,118.879a4.149,4.149,0,0,0-3.41211,1.53809,8.07383,8.07383,0,0,0-.04688,8.53125,4.21955,4.21955,0,0,0,3.459,1.45361,9.09285,9.09285,0,0,0,1.89648-.19482q.917-.19484,1.90625-.50049v2.15918a11.54887,11.54887,0,0,1-4.10742.68457,6.56892,6.56892,0,0,1-5.19336-2.04834,8.57311,8.57311,0,0,1-1.81055-5.86133,9.47677,9.47677,0,0,1,.87891-4.20264,6.27206,6.27206,0,0,1,2.54394-2.75976,7.69384,7.69384,0,0,1,3.90723-.9585,9.70071,9.70071,0,0,1,4.36133.99024l-.90625,2.09619a13.47074,13.47074,0,0,0-1.64844-.648A5.94051,5.94051,0,0,0,1443.17725,118.879Z"/>
        <path class="cls-5" d="M1463.96924,124.61924a8.42054,8.42054,0,0,1-1.87988,5.8457,7.90153,7.90153,0,0,1-10.67969.01611,8.47341,8.47341,0,0,1-1.87012-5.88281,8.34671,8.34671,0,0,1,1.87988-5.856,6.92978,6.92978,0,0,1,5.36719-2.04345,6.788,6.788,0,0,1,5.30859,2.07519A8.41748,8.41748,0,0,1,1463.96924,124.61924Zm-11.75488,0a6.90406,6.90406,0,0,0,1.14843,4.31347,4.67309,4.67309,0,0,0,6.78907.01563,8.74508,8.74508,0,0,0,.00976-8.62647,4.00346,4.00346,0,0,0-3.375-1.46387,4.08767,4.08767,0,0,0-3.418,1.46387A6.83567,6.83567,0,0,0,1452.21436,124.61924Z"/>
        <path class="cls-5" d="M1473.93311,132.33994l-4.46485-12.86035h-.085q.18018,2.86523.17871,5.37158v7.48877h-2.28515V116.941h3.5498l4.27637,12.24951h.0625l4.40234-12.24951h3.56055v15.39893h-2.42188V124.7247q0-1.14769.05664-2.99121.05861-1.84276.10157-2.23291h-.084l-4.625,12.83936Z"/>
        <path class="cls-5" d="M1500.855,124.61924a8.4208,8.4208,0,0,1-1.88086,5.8457,7.90153,7.90153,0,0,1-10.67969.01611,8.47788,8.47788,0,0,1-1.86914-5.88281,8.35106,8.35106,0,0,1,1.87891-5.856,6.92978,6.92978,0,0,1,5.36719-2.04345A6.788,6.788,0,0,1,1498.98,118.774,8.4131,8.4131,0,0,1,1500.855,124.61924Zm-11.75391,0a6.90431,6.90431,0,0,0,1.14649,4.31347,4.67308,4.67308,0,0,0,6.78906.01563,8.745,8.745,0,0,0,.00977-8.62647,4.001,4.001,0,0,0-3.375-1.46387,4.0889,4.0889,0,0,0-3.418,1.46387A6.83594,6.83594,0,0,0,1489.10107,124.61924Z"/>
        <path class="cls-5" d="M1518.53857,132.33994H1509.396V116.941h9.14257v3.33887h-4.98242v2.42285h4.61328v3.33887h-4.61328v2.90674h4.98242Z"/>
        <path class="cls-5" d="M1521.23584,132.33994V116.941h4.16016v12.03907h5.92968v3.35986Z"/>
        <path class="cls-5" d="M1546.25146,120.13242a2.65166,2.65166,0,0,0-2.3164,1.2168,5.87473,5.87473,0,0,0-.832,3.35449q0,4.44507,3.38086,4.44482a6.92329,6.92329,0,0,0,1.97851-.28418,19.55388,19.55388,0,0,0,1.92774-.68506v3.51807a10.66372,10.66372,0,0,1-4.35938.853,6.89681,6.89681,0,0,1-5.3457-2.022,8.33744,8.33744,0,0,1-1.85938-5.84571,9.338,9.338,0,0,1,.90039-4.20263,6.45253,6.45253,0,0,1,2.5918-2.78565,7.8234,7.8234,0,0,1,3.97656-.97461,10.944,10.944,0,0,1,4.76953,1.085l-1.27343,3.27588a14.1766,14.1766,0,0,0-1.707-.67432A5.95892,5.95892,0,0,0,1546.25146,120.13242Z"/>
        <path class="cls-5" d="M1567.80029,124.61924a8.3031,8.3031,0,0,1-1.90625,5.90918,8.6634,8.6634,0,0,1-11.13867-.01075,9.98363,9.98363,0,0,1-.00976-11.7915,8.71616,8.71616,0,0,1,11.1582-.01563Q1567.80224,120.72251,1567.80029,124.61924Zm-10.5957,0q0,4.46629,3.10742,4.4663a2.6734,2.6734,0,0,0,2.34375-1.085,7.87073,7.87073,0,0,0-.01172-6.78857,2.64089,2.64089,0,0,0-2.31054-1.10059Q1557.20459,120.11142,1557.20459,124.61924Z"/>
        <path class="cls-5" d="M1569.37061,128.20078v-3.28662h5.95117v3.28662Z"/>
        <path class="cls-5" d="M1584.29443,120.13242a2.65393,2.65393,0,0,0-2.3164,1.2168,5.87473,5.87473,0,0,0-.832,3.35449q0,4.44507,3.38086,4.44482a6.92675,6.92675,0,0,0,1.98046-.28418,19.91808,19.91808,0,0,0,1.92774-.68506v3.51807a10.6666,10.6666,0,0,1-4.36133.853,6.89964,6.89964,0,0,1-5.3457-2.022,8.34623,8.34623,0,0,1-1.85742-5.84571,9.312,9.312,0,0,1,.90039-4.20263,6.43674,6.43674,0,0,1,2.58984-2.78565,7.82846,7.82846,0,0,1,3.97656-.97461,10.95875,10.95875,0,0,1,4.77149,1.085l-1.27539,3.27588a14.27931,14.27931,0,0,0-1.70508-.67432A5.96253,5.96253,0,0,0,1584.29443,120.13242Z"/>
        <path class="cls-5" d="M1595.59717,126.73642v5.60352H1591.437V116.941h5.04492q6.27833,0,6.27735,4.5503a4.54728,4.54728,0,0,1-2.61133,4.13916l4.48633,6.70947h-4.71875l-3.26563-5.60352Zm0-3.12793h.77929q2.1797,0,2.17969-1.92773,0-1.59009-2.13672-1.59033h-.82226Z"/>
        <path class="cls-5" d="M1615.17725,132.33994h-9.14258V116.941h9.14258v3.33887h-4.98243v2.42285h4.61329v3.33887h-4.61329v2.90674h4.98243Z"/>
        <path class="cls-5" d="M1627.32178,132.33994l-.75977-2.88574h-5.002l-.7793,2.88574h-4.57226l5.02539-15.46192h5.55078l5.08594,15.46192Zm-1.623-6.29834-.66406-2.52783q-.23145-.843-.5625-2.18067-.33107-1.3374-.4375-1.917-.09375.5376-.373,1.76953-.28125,1.23267-1.23828,4.856Z"/>
        <path class="cls-5" d="M1646.60693,124.31406a7.958,7.958,0,0,1-2.123,5.94043,8.15153,8.15153,0,0,1-5.9668,2.08545h-4.98242V116.941h5.33008a8.04274,8.04274,0,0,1,5.72461,1.896A7.15865,7.15865,0,0,1,1646.60693,124.31406Zm-4.31836.14746a4.89121,4.89121,0,0,0-.83789-3.13867,3.097,3.097,0,0,0-2.543-1.022h-1.21289v8.62646h.92774a3.357,3.357,0,0,0,2.78125-1.10059A5.31748,5.31748,0,0,0,1642.28857,124.46152Z"/>
        <path class="cls-5" d="M1663.7749,124.61924a8.3031,8.3031,0,0,1-1.90625,5.90918,8.6634,8.6634,0,0,1-11.13867-.01075,9.98365,9.98365,0,0,1-.00977-11.7915,8.71617,8.71617,0,0,1,11.15821-.01563Q1663.77685,120.72251,1663.7749,124.61924Zm-10.5957,0q0,4.46629,3.10742,4.4663a2.6734,2.6734,0,0,0,2.34375-1.085,7.87073,7.87073,0,0,0-.01172-6.78857,2.64089,2.64089,0,0,0-2.31054-1.10059Q1653.1792,120.11142,1653.1792,124.61924Z"/>
        <path class="cls-5" d="M1670.71631,126.73642v5.60352h-4.16016V116.941h5.04492q6.27833,0,6.27735,4.5503a4.54728,4.54728,0,0,1-2.61133,4.13916l4.48633,6.70947h-4.71875l-3.26563-5.60352Zm0-3.12793h.7793q2.17968,0,2.17968-1.92773,0-1.59009-2.13672-1.59033h-.82226Z"/>
        <path class="cls-5" d="M1699.82764,124.31406a7.95712,7.95712,0,0,1-2.1211,5.94043,8.15458,8.15458,0,0,1-5.96679,2.08545h-4.98243V116.941h5.33008a8.03441,8.03441,0,0,1,5.72266,1.896A7.1515,7.1515,0,0,1,1699.82764,124.31406Zm-4.31836.14746a4.89127,4.89127,0,0,0-.83789-3.13867,3.0918,3.0918,0,0,0-2.543-1.022h-1.21094v8.62646h.92773a3.35285,3.35285,0,0,0,2.7793-1.10059A5.31742,5.31742,0,0,0,1695.50928,124.46152Z"/>
        <path class="cls-5" d="M1711.73,132.33994h-9.14258V116.941H1711.73v3.33887h-4.98242v2.42285h4.61328v3.33887h-4.61328v2.90674H1711.73Z"/>
        <path class="cls-5" d="M1729.478,132.33994l-.75782-2.88574h-5.0039l-.7793,2.88574h-4.57031l5.02344-15.46192h5.55078l5.08789,15.46192Zm-1.6211-6.29834-.66406-2.52783q-.23145-.843-.56445-2.18067-.33107-1.3374-.43555-1.917-.09668.5376-.375,1.76953-.27833,1.23267-1.23828,4.856Z"/>
        <path class="cls-5" d="M1739.853,126.73642v5.60352h-4.16016V116.941h5.04492q6.27833,0,6.27735,4.5503a4.54728,4.54728,0,0,1-2.61133,4.13916l4.48633,6.70947h-4.71875l-3.26563-5.60352Zm0-3.12793h.77929q2.1797,0,2.17969-1.92773,0-1.59009-2.13672-1.59033h-.82226Z"/>
        <path class="cls-5" d="M1763.36084,124.31406a7.95715,7.95715,0,0,1-2.12109,5.94043,8.15462,8.15462,0,0,1-5.9668,2.08545h-4.98242V116.941h5.33008a8.0344,8.0344,0,0,1,5.72265,1.896A7.1515,7.1515,0,0,1,1763.36084,124.31406Zm-4.31836.14746a4.89127,4.89127,0,0,0-.83789-3.13867,3.0918,3.0918,0,0,0-2.543-1.022h-1.21094v8.62646h.92774a3.35284,3.35284,0,0,0,2.77929-1.10059A5.31742,5.31742,0,0,0,1759.04248,124.46152Z"/>
        <path class="cls-5" d="M1779.2124,116.941v9.269a6.21928,6.21928,0,0,1-1.71094,4.68164,8.12062,8.12062,0,0,1-9.77343.04736,6.10151,6.10151,0,0,1-1.69141-4.63428V116.941h4.18164v9.03711a3.69749,3.69749,0,0,0,.61133,2.37012,2.63133,2.63133,0,0,0,3.64844.00488,3.91839,3.91839,0,0,0,.57422-2.396V116.941Z"/>
        <path class="cls-5" d="M1782.44678,132.33994V116.941h4.18164v15.39893Z"/>
        <path class="cls-5" d="M1804.61865,132.33994h-5.45508l-5.625-10.84863h-.0957q.20215,2.55908.20117,3.90771v6.94092h-3.6875V116.941h5.43555l5.60352,10.70117h.0625q-.14649-2.32762-.14649-3.73876V116.941h3.707Z"/>
        <path class="cls-5" d="M1822.355,124.61924a8.30315,8.30315,0,0,1-1.90625,5.90918,8.6634,8.6634,0,0,1-11.13867-.01075,9.98365,9.98365,0,0,1-.00977-11.7915,8.71617,8.71617,0,0,1,11.15821-.01563Q1822.35693,120.72251,1822.355,124.61924Zm-10.5957,0q0,4.46629,3.10742,4.4663a2.67342,2.67342,0,0,0,2.34375-1.085,7.87073,7.87073,0,0,0-.01172-6.78857,2.6409,2.6409,0,0,0-2.31055-1.10059Q1811.75929,120.11142,1811.75928,124.61924Z"/>
      </g>
      <g>
        <path class="cls-5" d="M1461.59033,165.45127q0,8.042-4.42676,12.39257-4.42968,4.3506-12.44824,4.35059h-10.39355v-32.124h11.11914q7.73438,0,11.9414,3.95508T1461.59033,165.45127Zm-9.00879.30761q0-4.4165-1.74609-6.54785a6.46278,6.46278,0,0,0-5.30664-2.13135h-2.52735v17.99561h1.9336q3.95508,0,5.80078-2.2959Q1452.58155,170.48325,1452.58154,165.75888Z"/>
        <path class="cls-5" d="M1483.07959,182.19443l-1.64844-3.2959h-.17578a9.77594,9.77594,0,0,1-3.53711,2.94434,11.68507,11.68507,0,0,1-4.6582.791,7.307,7.307,0,0,1-5.53711-2.10937,8.22818,8.22818,0,0,1-2.02149-5.93262A6.74971,6.74971,0,0,1,1468.27,168.67q2.76855-1.94385,8.02051-2.186l4.15234-.13183v-.35157q0-3.07617-3.03223-3.07617a18.12761,18.12761,0,0,0-6.92089,1.8457l-2.4834-5.66894a23.88129,23.88129,0,0,1,10.98633-2.24121q4.79,0,7.416,2.373a8.489,8.489,0,0,1,2.626,6.63575v16.32568Zm-6.37207-5.625a3.8758,3.8758,0,0,0,2.66992-.98877,3.28354,3.28354,0,0,0,1.10938-2.5708v-1.93359l-1.97754.08789q-4.24073.15381-4.24024,3.12011Q1474.269,176.56943,1476.70752,176.56943Z"/>
        <path class="cls-5" d="M1501.40479,182.19443l-9.49219-24.895h8.96484l4.21875,14.72168q.022.10986.08789.37354t.13184.626q.06591.36328.12109.76953a5.75892,5.75892,0,0,1,.05469.75782h.1543a8.81106,8.81106,0,0,1,.39453-2.48291l4.417-14.76563h8.94238l-9.49219,24.895Z"/>
        <path class="cls-5" d="M1522.19092,151.10312a3.63272,3.63272,0,0,1,1.07617-2.87842,6.82387,6.82387,0,0,1,6.96582.022,3.60328,3.60328,0,0,1,1.09863,2.85644q0,3.77929-4.59179,3.7793Q1522.18994,154.88242,1522.19092,151.10312Zm8.81054,31.09131h-8.59082v-24.895h8.59082Z"/>
        <path class="cls-5" d="M1544.73486,182.63388a7.45032,7.45032,0,0,1-4.64746-1.51611,9.60833,9.60833,0,0,1-3.07617-4.46045,19.828,19.828,0,0,1-1.08789-6.87744q0-6.06446,2.43945-9.49219A7.782,7.782,0,0,1,1545.064,156.86a7.67733,7.67733,0,0,1,3.65821.835,8.08374,8.08374,0,0,1,2.86914,2.8125h.17578a41.13474,41.13474,0,0,1-.418-5.84473V148.005h8.65625v34.18945h-6.48047l-1.8457-3.14209h-.33008A7.28312,7.28312,0,0,1,1544.73486,182.63388Zm3.5166-6.78955a3.21051,3.21051,0,0,0,2.91016-1.29638,7.79627,7.79627,0,0,0,.91211-3.999v-.68115a8.68952,8.68952,0,0,0-.94531-4.69092,3.32687,3.32687,0,0,0-2.96485-1.39551,2.90637,2.90637,0,0,0-2.62695,1.59278,9.05321,9.05321,0,0,0-.93359,4.5376,8.41374,8.41374,0,0,0,.94531,4.4165A3.004,3.004,0,0,0,1548.25146,175.84433Z"/>
        <path class="cls-5" d="M1592.437,156.72812a5.53771,5.53771,0,0,0-4.834,2.5376,12.26546,12.26546,0,0,0-1.73438,6.99853q0,9.27247,7.05274,9.27247a14.45529,14.45529,0,0,0,4.13086-.59327,41.42662,41.42662,0,0,0,4.02148-1.42822v7.33887a22.25758,22.25758,0,0,1-9.09766,1.77978q-7.27147,0-11.15039-4.21875t-3.8789-12.19482a19.4624,19.4624,0,0,1,1.8789-8.76709,13.43776,13.43776,0,0,1,5.40625-5.81152,16.31613,16.31613,0,0,1,8.293-2.03272,22.85319,22.85319,0,0,1,9.95508,2.26319l-2.66016,6.83349a29.87848,29.87848,0,0,0-3.55859-1.40625A12.44629,12.44629,0,0,0,1592.437,156.72812Z"/>
        <path class="cls-5" d="M1624.562,182.19443l-1.07812-3.09814H1622.98a6.99586,6.99586,0,0,1-3,2.62548,10.43729,10.43729,0,0,1-4.51562.91211,8.44089,8.44089,0,0,1-6.39454-2.38379,9.34245,9.34245,0,0,1-2.28515-6.73486V157.29941h8.59179v13.60108a7.79245,7.79245,0,0,0,.69336,3.6914,2.3951,2.3951,0,0,0,2.27344,1.25244,3.31172,3.31172,0,0,0,3.16406-1.74658q.94337-1.74756.94532-5.8999V157.29941h8.58984v24.895Z"/>
        <path class="cls-5" d="M1653.21436,182.19443l-1.64844-3.2959h-.17578a9.79194,9.79194,0,0,1-3.53711,2.94434,11.68512,11.68512,0,0,1-4.65821.791,7.307,7.307,0,0,1-5.53711-2.10937,8.22822,8.22822,0,0,1-2.02148-5.93262,6.749,6.749,0,0,1,2.76758-5.92187q2.76855-1.94385,8.01953-2.186l4.1543-.13183v-.35157q0-3.07617-3.03321-3.07617a18.14026,18.14026,0,0,0-6.92187,1.8457l-2.48242-5.66894a23.88128,23.88128,0,0,1,10.98632-2.24121q4.79,0,7.416,2.373a8.48844,8.48844,0,0,1,2.625,6.63575v16.32568Zm-6.373-5.625a3.8741,3.8741,0,0,0,2.66992-.98877,3.28039,3.28039,0,0,0,1.10938-2.5708v-1.93359l-1.97657.08789q-4.24218.15381-4.24218,3.12011Q1644.40186,176.56943,1646.84131,176.56943Z"/>
        <path class="cls-5" d="M1680.04248,156.86a12.43273,12.43273,0,0,1,2.13086.17578l.48437.08789-.76953,8.10791a12.63956,12.63956,0,0,0-2.92187-.26367,5.57362,5.57362,0,0,0-4.08789,1.28515,5.03868,5.03868,0,0,0-1.27344,3.70264v12.23877h-8.5918v-24.895h6.39453l1.33985,3.977h.418a8.59982,8.59982,0,0,1,2.998-3.19726A7.18622,7.18622,0,0,1,1680.04248,156.86Z"/>
        <path class="cls-5" d="M1698.32373,175.84433a12.77975,12.77975,0,0,0,4.15234-.85693v6.26221a16.94058,16.94058,0,0,1-3.30664,1.06591,18.75886,18.75886,0,0,1-3.68164.31836q-4.32714,0-6.24023-2.12011-1.91016-2.12037-1.91016-6.51514V163.7374h-3.01172v-3.49365l3.82422-2.70264,2.21875-5.22949h5.625v4.98779h6.10938v6.438h-6.10938v9.68994Q1695.99365,175.84434,1698.32373,175.84433Z"/>
        <path class="cls-5" d="M1706.65186,151.10312a3.63272,3.63272,0,0,1,1.07617-2.87842,6.82208,6.82208,0,0,1,6.96484.022,3.60376,3.60376,0,0,1,1.09961,2.85644q0,3.77929-4.5918,3.7793Q1706.65088,154.88242,1706.65186,151.10312Zm8.81054,31.09131h-8.59179v-24.895h8.59179Z"/>
        <path class="cls-5" d="M1733.48,182.63388q-6.21972,0-9.6582-3.30664-3.43653-3.30688-3.4375-9.41552,0-6.30617,3.18554-9.6792,3.18458-3.37208,9.09571-3.37256,5.625,0,8.6914,2.9331,3.06445,2.93409,3.06446,8.44873V172.065H1729.062a4.26265,4.26265,0,0,0,1.52735,3.27392,5.987,5.987,0,0,0,3.92187,1.18653,18.89465,18.89465,0,0,0,4.16406-.42872,20.61278,20.61278,0,0,0,4.1211-1.46093v6.17431a15.16453,15.16453,0,0,1-4.17578,1.42823A28.8781,28.8781,0,0,1,1733.48,182.63388Zm-.50586-19.9292a3.5686,3.5686,0,0,0-2.53711.95557,4.4871,4.4871,0,0,0-1.19922,2.99951h7.38282a4.2787,4.2787,0,0,0-1.02149-2.87842A3.37035,3.37035,0,0,0,1732.97412,162.70468Z"/>
        <path class="cls-5" d="M1757.87061,182.19443h-8.5918V148.005h8.5918Z"/>
        <path class="cls-5" d="M1772.41553,182.19443h-8.5918V148.005h8.5918Z"/>
        <path class="cls-5" d="M1790.39014,182.63388q-6.21974,0-9.65821-3.30664-3.43651-3.30688-3.4375-9.41552,0-6.30617,3.18555-9.6792,3.18457-3.37208,9.0957-3.37256,5.625,0,8.69141,2.9331,3.06445,2.93409,3.06445,8.44873V172.065h-15.35937a4.26264,4.26264,0,0,0,1.52734,3.27392,5.98709,5.98709,0,0,0,3.92188,1.18653,18.89478,18.89478,0,0,0,4.16406-.42872,20.61271,20.61271,0,0,0,4.12109-1.46093v6.17431a15.1643,15.1643,0,0,1-4.17578,1.42823A28.87806,28.87806,0,0,1,1790.39014,182.63388Zm-.50586-19.9292a3.5686,3.5686,0,0,0-2.53711.95557,4.4871,4.4871,0,0,0-1.19922,2.99951h7.38281a4.2787,4.2787,0,0,0-1.02148-2.87842A3.37036,3.37036,0,0,0,1789.88428,162.70468Z"/>
        <path class="cls-5" d="M1825.41357,174.54795a7.07808,7.07808,0,0,1-2.72461,6.04248q-2.7246,2.04345-7.82226,2.04345a33.89577,33.89577,0,0,1-4.8125-.29687,20.41761,20.41761,0,0,1-4.17578-1.0874v-6.87744a25.87977,25.87977,0,0,0,4.38476,1.45019,18.47271,18.47271,0,0,0,4.252.57129q2.78906,0,2.78906-1.27441a1.44287,1.44287,0,0,0-.7793-1.17579,35.71655,35.71655,0,0,0-4.53711-2.01025,11.30887,11.30887,0,0,1-4.791-3.19678,7.28125,7.28125,0,0,1-1.36133-4.53759,6.28371,6.28371,0,0,1,2.67969-5.40528q2.68066-1.93359,7.582-1.93359a19.11328,19.11328,0,0,1,4.625.53857,27.47168,27.47168,0,0,1,4.49219,1.5708l-2.32813,5.53711a26.20984,26.20984,0,0,0-3.625-1.30713,12.07172,12.07172,0,0,0-3.12109-.53857q-2.10937,0-2.10938,1.03271a1.28824,1.28824,0,0,0,.73633,1.08789,39.60884,39.60884,0,0,0,4.25195,1.83448,16.367,16.367,0,0,1,3.90039,2.10937,6.30676,6.30676,0,0,1,1.88868,2.42823A8.50116,8.50116,0,0,1,1825.41357,174.54795Z"/>
      </g>
    </g>
    <g>
      <g>
        <path class="cls-5" d="M1510.71143,19.6539a2.65333,2.65333,0,0,0-2.31739,1.2168,5.87483,5.87483,0,0,0-.832,3.35449q0,4.44507,3.38184,4.44483a6.9254,6.9254,0,0,0,1.97949-.28418,19.91791,19.91791,0,0,0,1.92773-.68506v3.51806a10.66512,10.66512,0,0,1-4.36035.853,6.89823,6.89823,0,0,1-5.3457-2.022,8.34206,8.34206,0,0,1-1.85938-5.8457,9.32529,9.32529,0,0,1,.90137-4.20264,6.43885,6.43885,0,0,1,2.59082-2.78564,7.82471,7.82471,0,0,1,3.97559-.97461,10.95543,10.95543,0,0,1,4.77148,1.085l-1.27441,3.27588a14.29239,14.29239,0,0,0-1.70606-.67432A5.96483,5.96483,0,0,0,1510.71143,19.6539Z"/>
        <path class="cls-5" d="M1532.90869,24.14072a8.30755,8.30755,0,0,1-1.90625,5.90918,8.66341,8.66341,0,0,1-11.13867-.01074,8.27345,8.27345,0,0,1-1.93262-5.91944,8.21847,8.21847,0,0,1,1.92188-5.87207,8.71883,8.71883,0,0,1,11.16015-.01562A8.313,8.313,0,0,1,1532.90869,24.14072Zm-10.5957,0q0,4.46631,3.10644,4.46631a2.67114,2.67114,0,0,0,2.34375-1.085,5.94493,5.94493,0,0,0,.76368-3.38135,5.97823,5.97823,0,0,0-.77442-3.40723,2.64035,2.64035,0,0,0-2.31152-1.10058Q1522.312,19.63291,1522.313,24.14072Z"/>
        <path class="cls-5" d="M1550.99854,31.86142h-5.457l-5.624-10.84863h-.09473q.19923,2.55908.2002,3.90771v6.94092h-3.68652V16.4625h5.43457l5.60351,10.70117h.06348q-.14794-2.32764-.14746-3.73877V16.4625h3.708Z"/>
        <path class="cls-5" d="M1561.22412,31.86142V16.4625h4.16016V28.50156h5.93066v3.35986Z"/>
        <path class="cls-5" d="M1583.87451,31.86142l-.75879-2.88574h-5.00293l-.77929,2.88574h-4.57129l5.02441-15.46191h5.55078l5.08692,15.46191Zm-1.62207-6.29834-.66406-2.52783q-.23145-.843-.56348-2.18066-.331-1.3374-.43652-1.917-.09522.5376-.374,1.76954-.27979,1.23266-1.23829,4.856Z"/>
        <path class="cls-5" d="M1608.16162,21.36045a5.15653,5.15653,0,0,1-1.52246,3.98632,6.13927,6.13927,0,0,1-4.32324,1.40625H1601.146v5.1084h-4.16016V16.4625h5.33008a6.513,6.513,0,0,1,4.38086,1.27441A4.5451,4.5451,0,0,1,1608.16162,21.36045Zm-7.01562,2.001h.75879a2.07033,2.07033,0,0,0,1.49023-.52636,1.91012,1.91012,0,0,0,.55273-1.45362q0-1.55859-1.72656-1.55908H1601.146Z"/>
        <path class="cls-5" d="M1615.42236,26.25791v5.60351h-4.16015V16.4625h5.04492q6.27833,0,6.27832,4.55029a4.54654,4.54654,0,0,1-2.61231,4.13916l4.48633,6.70947h-4.71875l-3.26465-5.60351Zm0-3.12793h.78028q2.17968,0,2.17968-1.92774,0-1.59009-2.13769-1.59033h-.82227Z"/>
        <path class="cls-5" d="M1635.65088,31.86142h-9.14258V16.4625h9.14258v3.33886h-4.98242v2.42286h4.61328v3.33886h-4.61328v2.90674h4.98242Z"/>
        <path class="cls-5" d="M1649.063,27.18467a4.544,4.544,0,0,1-.72656,2.54394,4.76482,4.76482,0,0,1-2.09571,1.72754,7.77546,7.77546,0,0,1-3.21289.61572,12.97871,12.97871,0,0,1-2.58008-.21582,9.5625,9.5625,0,0,1-2.16992-.75293V27.3956a12.37028,12.37028,0,0,0,2.47461.95313,9.21117,9.21117,0,0,0,2.35938.34228,2.29262,2.29262,0,0,0,1.35937-.32129.98885.98885,0,0,0,.43164-.82666.91462.91462,0,0,0-.17383-.55322,2.0294,2.0294,0,0,0-.55859-.479q-.38379-.24243-2.04883-.99024a9.799,9.799,0,0,1-2.25879-1.32715,4.06944,4.06944,0,0,1-1.11621-1.47461,4.89208,4.89208,0,0,1-.36328-1.96923,3.947,3.947,0,0,1,1.54785-3.31787,6.82384,6.82384,0,0,1,4.25489-1.19043,11.93951,11.93951,0,0,1,4.87695,1.106l-1.27442,3.21241a9.24134,9.24134,0,0,0-3.72851-.98975,1.94415,1.94415,0,0,0-1.17969.28418.85986.85986,0,0,0-.36914.70557,1.01784,1.01784,0,0,0,.46875.811,17.88835,17.88835,0,0,0,2.54395,1.30615,7.035,7.035,0,0,1,2.76464,1.92237A4.17082,4.17082,0,0,1,1649.063,27.18467Z"/>
        <path class="cls-5" d="M1661.23291,31.86142h-9.14258V16.4625h9.14258v3.33886h-4.98242v2.42286h4.61328v3.33886h-4.61328v2.90674h4.98242Z"/>
        <path class="cls-5" d="M1679.23877,31.86142h-5.45606l-5.625-10.84863h-.09472q.20069,2.55908.20019,3.90771v6.94092h-3.68652V16.4625h5.43457l5.60352,10.70117h.06347q-.14794-2.32764-.14746-3.73877V16.4625h3.708Z"/>
        <path class="cls-5" d="M1690.06982,19.6539a2.65283,2.65283,0,0,0-2.3164,1.2168,5.87475,5.87475,0,0,0-.832,3.35449q0,4.44507,3.38086,4.44483a6.9254,6.9254,0,0,0,1.97949-.28418,19.7346,19.7346,0,0,0,1.92773-.68506v3.51806a10.66512,10.66512,0,0,1-4.36035.853,6.89823,6.89823,0,0,1-5.3457-2.022,8.34182,8.34182,0,0,1-1.8584-5.8457,9.325,9.325,0,0,1,.90039-4.20264,6.4446,6.4446,0,0,1,2.59082-2.78564,7.82584,7.82584,0,0,1,3.97656-.97461,10.95122,10.95122,0,0,1,4.77051,1.085l-1.27441,3.27588a14.22742,14.22742,0,0,0-1.70606-.67432A5.96041,5.96041,0,0,0,1690.06982,19.6539Z"/>
        <path class="cls-5" d="M1697.85889,31.86142V16.4625h4.18164V31.86142Z"/>
        <path class="cls-5" d="M1715.46338,31.86142l-.75879-2.88574h-5.00293l-.7793,2.88574h-4.57129l5.02442-15.46191h5.55078l5.08691,15.46191Zm-1.62207-6.29834-.66406-2.52783q-.23145-.843-.56348-2.18066-.331-1.3374-.43652-1.917-.09522.5376-.374,1.76954-.27978,1.23266-1.23828,4.856Z"/>
        <path class="cls-5" d="M1741.647,23.83554a7.95756,7.95756,0,0,1-2.12207,5.94043,8.153,8.153,0,0,1-5.96679,2.08545h-4.98243V16.4625h5.33008a8.03855,8.03855,0,0,1,5.72363,1.896A7.15509,7.15509,0,0,1,1741.647,23.83554Zm-4.31836.14746a4.89123,4.89123,0,0,0-.83789-3.13867,3.09436,3.09436,0,0,0-2.543-1.022h-1.21191v8.62647h.92773a3.35494,3.35494,0,0,0,2.78028-1.10059A5.31753,5.31753,0,0,0,1737.32861,23.983Z"/>
        <path class="cls-5" d="M1754.1958,31.86142h-9.14258V16.4625h9.14258v3.33886h-4.98242v2.42286h4.61328v3.33886h-4.61328v2.90674h4.98242Z"/>
      </g>
      <g>
        <path class="cls-5" d="M1490.09033,81.71592l-1.582-6.02051h-10.43652l-1.626,6.02051h-9.53613l10.48047-32.25586h11.58007l10.61231,32.25586Zm-3.38379-13.13965-1.38379-5.27344q-.48339-1.75782-1.17578-4.54834-.6914-2.79052-.91211-3.999-.19774,1.1206-.77929,3.6914-.583,2.57081-2.582,10.1294Z"/>
        <path class="cls-5" d="M1523.52,81.71592h-20.61035V76.816l10.30469-13.42529h-9.71192V56.8209h19.53418v5.31738l-9.86621,13.00781H1523.52Z"/>
        <path class="cls-5" d="M1529.68115,50.62461a3.62943,3.62943,0,0,1,1.07617-2.87842,6.82384,6.82384,0,0,1,6.96582.022,3.60325,3.60325,0,0,1,1.09864,2.85645q0,3.7793-4.59278,3.77929Q1529.68067,54.4039,1529.68115,50.62461Zm8.81055,31.09131h-8.59082V56.8209h8.59082Z"/>
        <path class="cls-5" d="M1558.75928,82.15537q-6.21827,0-9.65723-3.30664-3.438-3.30689-3.43848-9.41553,0-6.30615,3.18653-9.6792,3.186-3.37208,9.09668-3.37256,5.625,0,8.68945,2.93311,3.06592,2.93408,3.06543,8.44873v3.82324h-15.3584a4.26189,4.26189,0,0,0,1.52637,3.27393,5.98634,5.98634,0,0,0,3.92285,1.18652,18.899,18.899,0,0,0,4.16309-.42871,20.58463,20.58463,0,0,0,4.12011-1.46094v6.17432a15.15807,15.15807,0,0,1-4.1748,1.42822A28.88969,28.88969,0,0,1,1558.75928,82.15537Zm-.50489-19.9292a3.57421,3.57421,0,0,0-2.53808.95557,4.48637,4.48637,0,0,0-1.19727,2.99951h7.38282a4.27915,4.27915,0,0,0-1.02247-2.87842A3.37033,3.37033,0,0,0,1558.25439,62.22617Z"/>
        <path class="cls-5" d="M1585.39893,81.71592h-8.59082V47.52646h8.59082Z"/>
        <path class="cls-5" d="M1622.04541,81.71592l-6.57031-23.13721h-.19727q.46,5.91065.46094,9.18457V81.71592h-7.69043v-32.124H1619.606l6.70117,22.80762h.17578l6.57031-22.80762h11.58008v32.124h-7.97656V67.63144q0-1.09863.0332-2.439.03224-1.34034.29688-6.56983h-.19825l-6.48144,23.09327Z"/>
        <path class="cls-5" d="M1665.31787,82.15537q-6.21827,0-9.65723-3.30664-3.438-3.30689-3.43847-9.41553,0-6.30615,3.18652-9.6792,3.18457-3.37208,9.0957-3.37256,5.625,0,8.69043,2.93311,3.06593,2.93408,3.06543,8.44873v3.82324h-15.35937a4.26268,4.26268,0,0,0,1.52734,3.27393,5.98351,5.98351,0,0,0,3.92188,1.18652,18.908,18.908,0,0,0,4.16406-.42871,20.58448,20.58448,0,0,0,4.12012-1.46094v6.17432a15.15825,15.15825,0,0,1-4.17481,1.42822A28.88953,28.88953,0,0,1,1665.31787,82.15537Zm-.50488-19.9292a3.57261,3.57261,0,0,0-2.53809.95557,4.48671,4.48671,0,0,0-1.19824,2.99951h7.38281a4.27863,4.27863,0,0,0-1.02148-2.87842A3.37178,3.37178,0,0,0,1664.813,62.22617Z"/>
        <path class="cls-5" d="M1691.10205,82.15537a7.44634,7.44634,0,0,1-4.64746-1.51612,9.6083,9.6083,0,0,1-3.07617-4.46044,19.805,19.805,0,0,1-1.08789-6.87745q0-6.06444,2.43847-9.49218a7.78483,7.78483,0,0,1,6.70215-3.42774,7.68007,7.68007,0,0,1,3.65821.835,8.08949,8.08949,0,0,1,2.86816,2.8125h.17578a41.1346,41.1346,0,0,1-.418-5.84472V47.52646h8.65723V81.71592h-6.48145l-1.8457-3.14209h-.33008A7.28051,7.28051,0,0,1,1691.10205,82.15537Zm3.51563-6.78955a3.21119,3.21119,0,0,0,2.91113-1.29639,7.80713,7.80713,0,0,0,.91113-3.999v-.68116a8.7,8.7,0,0,0-.94433-4.69091,3.32861,3.32861,0,0,0-2.96582-1.39551,2.9039,2.9039,0,0,0-2.626,1.59277,9.0523,9.0523,0,0,0-.93457,4.5376,8.42327,8.42327,0,0,0,.94531,4.4165A3.00611,3.00611,0,0,0,1694.61768,75.36582Z"/>
        <path class="cls-5" d="M1714.37939,50.62461a3.6294,3.6294,0,0,1,1.07618-2.87842,6.82205,6.82205,0,0,1,6.96484.022,3.60377,3.60377,0,0,1,1.09961,2.85645q0,3.7793-4.59277,3.77929Q1714.37891,54.4039,1714.37939,50.62461Zm8.81055,31.09131h-8.5918V56.8209h8.5918Z"/>
        <path class="cls-5" d="M1747.14893,81.71592V68.13681a7.795,7.795,0,0,0-.71387-3.74609,2.44237,2.44237,0,0,0-2.29688-1.26367,3.32335,3.32335,0,0,0-3.1416,1.73584q-.9668,1.73583-.96679,5.95459V81.71592H1731.439V56.8209h6.48145l1.07715,3.07617h.50488a6.80842,6.80842,0,0,1,3.043-2.63672,10.75687,10.75687,0,0,1,4.47168-.87891,8.48157,8.48157,0,0,1,6.42676,2.395,9.352,9.352,0,0,1,2.2959,6.74561V81.71592Z"/>
        <path class="cls-5" d="M1780.07275,81.71592l-1.64746-3.2959h-.17578a9.794,9.794,0,0,1-3.53808,2.94433,11.685,11.685,0,0,1-4.65821.791,7.307,7.307,0,0,1-5.53711-2.10938,8.22821,8.22821,0,0,1-2.02148-5.93261,6.74973,6.74973,0,0,1,2.76855-5.92188q2.76857-1.94385,8.01953-2.186l4.15333-.13184v-.35156q0-3.07617-3.03223-3.07617a18.13579,18.13579,0,0,0-6.92188,1.8457l-2.48242-5.669a23.88129,23.88129,0,0,1,10.98633-2.24121q4.79,0,7.416,2.373a8.4884,8.4884,0,0,1,2.625,6.63574V81.71592Zm-6.37207-5.625a3.87585,3.87585,0,0,0,2.66993-.98877,3.28359,3.28359,0,0,0,1.10937-2.57081V70.59775l-1.97754.08789q-4.24073.15381-4.24121,3.12012Q1771.26123,76.09092,1773.70068,76.09092Z"/>
      </g>
    </g>
  </g>
</svg>
