<svg id="Capa_1" data-name="Capa 1" xmlns="http://www.w3.org/2000/svg" xmlns:xlink="http://www.w3.org/1999/xlink" viewBox="0 0 167.04 219.38"><defs><style>.cls-1{fill:url(#linear-gradient);}.cls-2{fill:#ffec00;}.cls-3{fill:#fff;}</style><linearGradient id="linear-gradient" x1="83.52" y1="94.12" x2="83.52" y2="-2.34" gradientUnits="userSpaceOnUse"><stop offset="0" stop-color="#c41718"/><stop offset="0.17" stop-color="#c91d1e"/><stop offset="0.4" stop-color="#d52c30"/><stop offset="0.64" stop-color="#e74249"/><stop offset="0.7" stop-color="#e13b41"/><stop offset="0.79" stop-color="#d1272b"/><stop offset="0.85" stop-color="#c41718"/><stop offset="0.87" stop-color="#ca1e20"/><stop offset="0.95" stop-color="#df383e"/><stop offset="1" stop-color="#e74249"/></linearGradient></defs><polygon class="cls-1" points="0 0 0 219.38 11.92 207.3 23.85 219.38 35.77 207.3 47.71 219.38 59.65 207.3 71.57 219.38 83.5 207.3 95.43 219.38 107.37 207.3 119.31 219.38 131.24 207.3 143.17 219.38 155.11 207.3 167.04 219.38 167.04 0 0 0"/><path class="cls-2" d="M34.59,139.82h3.76V150.4H34.59v-1.17a3.94,3.94,0,0,1-3.24,1.51,5.24,5.24,0,0,1-3.82-1.61,5.53,5.53,0,0,1-1.12-1.8,6.12,6.12,0,0,1-.4-2.25,6,6,0,0,1,.39-2.15,5.69,5.69,0,0,1,1.09-1.79,5.3,5.3,0,0,1,1.67-1.21,5.23,5.23,0,0,1,2.15-.44,4.32,4.32,0,0,1,3.28,1.38Zm-4.7,5.26a2.49,2.49,0,0,0,.18,1,2.3,2.3,0,0,0,.51.77,2,2,0,0,0,.76.52,2.57,2.57,0,0,0,1,.19,2.5,2.5,0,0,0,.94-.19,2.1,2.1,0,0,0,.76-.52,2.39,2.39,0,0,0,.52-.76,2.24,2.24,0,0,0,.19-.93,2.32,2.32,0,0,0-.19-.94,2.55,2.55,0,0,0-.52-.77,2.21,2.21,0,0,0-.76-.51,2.32,2.32,0,0,0-.94-.19,2.38,2.38,0,0,0-1,.19,2.12,2.12,0,0,0-.76.51,2.56,2.56,0,0,0-.51.75A2.36,2.36,0,0,0,29.89,145.08Z"/><path class="cls-2" d="M40.37,139.82H44.1v1.34a4.11,4.11,0,0,1,1.55-1.25,4.87,4.87,0,0,1,1.83-.32,4.58,4.58,0,0,1,1.91.37,3.78,3.78,0,0,1,1.35,1,2.78,2.78,0,0,1,.62,1.19,6.28,6.28,0,0,1,.17,1.51v6.72H47.79v-5.34a5.59,5.59,0,0,0-.11-1.27,1.62,1.62,0,0,0-.4-.77,1.39,1.39,0,0,0-.56-.35,2.08,2.08,0,0,0-.66-.11,1.83,1.83,0,0,0-1.45.57,2.35,2.35,0,0,0-.51,1.62v5.65H40.37Z"/><path class="cls-2" d="M53.3,135.76a2.08,2.08,0,0,1,.17-.82,2.09,2.09,0,0,1,1.12-1.12,2.08,2.08,0,0,1,.82-.17,2,2,0,0,1,.81.17,2.08,2.08,0,0,1,.67.45,2.22,2.22,0,0,1,.46.67,2.07,2.07,0,0,1,.16.82,2,2,0,0,1-.16.81,2.1,2.1,0,0,1-.46.67,2,2,0,0,1-.67.46,2,2,0,0,1-.81.16,2.11,2.11,0,0,1-1.94-1.29A2,2,0,0,1,53.3,135.76Zm4,4.06V150.4H53.55V139.82Z"/><path class="cls-2" d="M62.46,139.82,65,145.25l2.56-5.43H71.7L66.2,150.4H63.7l-5.45-10.58Z"/><path class="cls-2" d="M75.34,145.74c0,1.61.75,2.42,2.27,2.42a2,2,0,0,0,1.83-1h3.61q-1.1,3.63-5.46,3.63a7.13,7.13,0,0,1-2.46-.41,5.46,5.46,0,0,1-1.91-1.14A5.22,5.22,0,0,1,72,147.48a6.11,6.11,0,0,1-.43-2.32,6.64,6.64,0,0,1,.41-2.38,5,5,0,0,1,1.18-1.8A5.13,5.13,0,0,1,75,139.83a6.9,6.9,0,0,1,2.44-.4,6.77,6.77,0,0,1,2.41.4A4.84,4.84,0,0,1,81.67,141a5.16,5.16,0,0,1,1.14,1.86,7.48,7.48,0,0,1,.39,2.49v.39Zm4.37-2.16a2.21,2.21,0,0,0-.76-1.26,2.15,2.15,0,0,0-1.41-.48,2.12,2.12,0,0,0-1.41.46,2.09,2.09,0,0,0-.69,1.28Z"/><path class="cls-2" d="M84.8,139.82h3.74v1.73A4.39,4.39,0,0,1,90,140.1a4,4,0,0,1,2-.51h.32a2.17,2.17,0,0,1,.4,0v3.56a3.66,3.66,0,0,0-1.61-.37,2.38,2.38,0,0,0-2,.78,3.44,3.44,0,0,0-.65,2.26v4.53H84.8Z"/><path class="cls-2" d="M100.86,142.54a4.45,4.45,0,0,0-2-.53,1.58,1.58,0,0,0-.84.2.65.65,0,0,0-.32.56.81.81,0,0,0,0,.3.54.54,0,0,0,.23.22,1.74,1.74,0,0,0,.51.18l.9.21a4.32,4.32,0,0,1,2.31,1.1,2.82,2.82,0,0,1,.77,2,3.71,3.71,0,0,1-.38,1.68,3.43,3.43,0,0,1-1,1.24,4.93,4.93,0,0,1-1.59.79,7.24,7.24,0,0,1-2,.28,8.32,8.32,0,0,1-4.23-1.22l1.36-2.64a5.38,5.38,0,0,0,3,1.07,1.4,1.4,0,0,0,.85-.23.67.67,0,0,0,.33-.57,1.06,1.06,0,0,0,0-.34.51.51,0,0,0-.22-.25,1.84,1.84,0,0,0-.48-.21c-.22-.06-.49-.12-.84-.19a4.76,4.76,0,0,1-2.42-1.05,2.56,2.56,0,0,1-.69-1.9,3.75,3.75,0,0,1,.33-1.6,3.2,3.2,0,0,1,1-1.21,4.46,4.46,0,0,1,1.49-.76,6.66,6.66,0,0,1,1.95-.27,8.94,8.94,0,0,1,3.41.68Z"/><path class="cls-2" d="M112,139.82h3.75V150.4H112v-1.17a3.94,3.94,0,0,1-3.24,1.51,5.33,5.33,0,0,1-2.13-.43,5.26,5.26,0,0,1-1.69-1.18,5.53,5.53,0,0,1-1.12-1.8,6.12,6.12,0,0,1-.4-2.25,6,6,0,0,1,.39-2.15,5.52,5.52,0,0,1,1.09-1.79,5.3,5.3,0,0,1,1.67-1.21,5.2,5.2,0,0,1,2.15-.44,4.32,4.32,0,0,1,3.28,1.38Zm-4.71,5.26a2.49,2.49,0,0,0,.19,1,2.16,2.16,0,0,0,.51.77,2,2,0,0,0,.76.52,2.47,2.47,0,0,0,1.9,0,2.1,2.1,0,0,0,.76-.52,2.56,2.56,0,0,0,.52-.76,2.24,2.24,0,0,0,.19-.93,2.32,2.32,0,0,0-.19-.94,2.75,2.75,0,0,0-.52-.77,2.21,2.21,0,0,0-.76-.51,2.47,2.47,0,0,0-1.9,0,2.12,2.12,0,0,0-.76.51,2.36,2.36,0,0,0-.7,1.67Z"/><path class="cls-2" d="M117.77,139.82h3.74v1.73A4.39,4.39,0,0,1,123,140.1a3.92,3.92,0,0,1,2-.51h.32a2.17,2.17,0,0,1,.4,0v3.56a3.66,3.66,0,0,0-1.61-.37,2.38,2.38,0,0,0-2,.78,3.44,3.44,0,0,0-.65,2.26v4.53h-3.74Z"/><path class="cls-2" d="M126.63,135.76a2.07,2.07,0,0,1,.16-.82,2.19,2.19,0,0,1,.45-.67,2.32,2.32,0,0,1,.67-.45,2.08,2.08,0,0,1,.82-.17,2,2,0,0,1,.81.17,2.08,2.08,0,0,1,.67.45,2,2,0,0,1,.62,1.49,2,2,0,0,1-.16.81,2.22,2.22,0,0,1-1.13,1.13,2,2,0,0,1-.81.16,2.07,2.07,0,0,1-.82-.16,2.17,2.17,0,0,1-.67-.46,2.08,2.08,0,0,1-.45-.67A2,2,0,0,1,126.63,135.76Zm4,4.06V150.4h-3.74V139.82Z"/><path class="cls-2" d="M132.24,145a5.12,5.12,0,0,1,.47-2.2,5.47,5.47,0,0,1,1.32-1.77,6.49,6.49,0,0,1,2-1.19,7.26,7.26,0,0,1,2.55-.43,7.42,7.42,0,0,1,2.53.42,6.32,6.32,0,0,1,2,1.18,5.34,5.34,0,0,1,1.33,1.79,5.52,5.52,0,0,1-1.34,6.4,5.86,5.86,0,0,1-2,1.16,7.65,7.65,0,0,1-2.57.42,7.32,7.32,0,0,1-2.52-.42,5.73,5.73,0,0,1-2-1.17,5.48,5.48,0,0,1-1.31-1.83A5.65,5.65,0,0,1,132.24,145Zm3.94,0a2.38,2.38,0,0,0,.19,1,2.49,2.49,0,0,0,.52.77,2.1,2.1,0,0,0,.76.52,2.42,2.42,0,0,0,1.88,0,2,2,0,0,0,.76-.52,2.45,2.45,0,0,0,.52-2.67,2.55,2.55,0,0,0-.52-.77,2.28,2.28,0,0,0-.76-.52,2.54,2.54,0,0,0-1.88,0,2.39,2.39,0,0,0-.76.52,2.7,2.7,0,0,0-.52.76A2.24,2.24,0,0,0,136.18,145.06Z"/><path class="cls-3" d="M144.71,97.13q-1.47-12.24-11.46-18-11.69-6.51-27.41-4.72c-2.32.3-3.63-.18-3.93-1.46A1.78,1.78,0,0,1,103,70.85a6.18,6.18,0,0,1,2.47-.68,126.82,126.82,0,0,1,20.9-.45,28,28,0,0,1,3.31.45,17.09,17.09,0,0,0,4.44.28,4.57,4.57,0,0,0,2.92-1.29c.82-.82,1.35-2.36,1.57-4.6q.56-6.41.56-12.47c0-1.8-.45-2.92-1.34-3.37a7.77,7.77,0,0,0-3.32-1,39.53,39.53,0,0,0-4.72-.06q-2.75.12-3.54.12-4.26-.12-13-.23-7.41,0-11.12.11c-1.2,0-3.44.08-6.74.23l-2,.08,0-.08a21.83,21.83,0,0,0-10.85-9.54,66.67,66.67,0,0,0-19.35-4.46A47.75,47.75,0,0,0,43.56,36.6,35.71,35.71,0,0,0,27.5,47.72a4.41,4.41,0,0,0-1.23,2.47,3.91,3.91,0,0,0,.82,2.47,38.55,38.55,0,0,0,2.2,4c.09.09.66,1.1,1.71,3s1.92,3.39,2.61,4.39,1.6,2.27,2.74,3.78A11.11,11.11,0,0,0,39.72,71a4,4,0,0,0,3.08.48,16.4,16.4,0,0,0,4.6-2.88,37.18,37.18,0,0,1,12.9-6.45,5.1,5.1,0,0,1,3.3,0,3.12,3.12,0,0,1,1.3,3.23,8.86,8.86,0,0,1-1.85,3.91Q58,76,46.37,86.9t-16,16.26a21.75,21.75,0,0,0-2.6,3.71,21.5,21.5,0,0,0-1,5.35,89.36,89.36,0,0,0,.82,17.16,2.38,2.38,0,0,0,.82,1.92,3.39,3.39,0,0,0,1.65.27A508.6,508.6,0,0,0,93,128.69a13.27,13.27,0,0,0,1.38-.14l1.71-.2c.41,0,.94-.14,1.58-.28a6,6,0,0,0,1.51-.48,3.74,3.74,0,0,0,1.1-.89s0-.06.05-.08a40.46,40.46,0,0,0,13.52,1.52q3.94-.12,6.07-.28a36.47,36.47,0,0,0,5.34-1,23.38,23.38,0,0,0,5.67-2.13,29.2,29.2,0,0,0,6.85-5,24.47,24.47,0,0,0,6-10.39A30.05,30.05,0,0,0,144.71,97.13ZM91.26,81.25a5.43,5.43,0,0,1,8.85-.89.66.66,0,0,1-.67,1.06,11.06,11.06,0,0,0-7.32.78A.67.67,0,0,1,91.26,81.25ZM73.14,83.44a4.23,4.23,0,1,1,3.66,4.73A4.22,4.22,0,0,1,73.14,83.44Zm43.77,9.19c-2,13.73-11.94,26.09-28.21,26.17-12.24,0-24-9.84-25.32-21.2-.17-1.52-.7-3.33,1.26-3.88,2.13-.59,2.72,1.28,3.27,2.84,3.35,9.5,9.49,13.71,19.25,13.11,4.85-.3,8.67-2.82,12-6A32,32,0,0,0,108,90.48c.82-2.49,2.36-3.91,5.11-3.46A4.74,4.74,0,0,1,116.91,92.63Z"/><path class="cls-3" d="M41.87,175.36V156.31H53.34v2.48H44.41v5.81h8.42v2.49H44.42v5.8h8.92v2.48Z"/><path class="cls-3" d="M69.49,172.77A10.73,10.73,0,0,1,67.2,175a3.75,3.75,0,0,1-1.77.54H60.25c-1.66,0-3-1.39-3.87-2.56a10.15,10.15,0,0,1-.84-1.66l2.46-.67a4,4,0,0,0,.31.6A5.28,5.28,0,0,0,60.09,173a1,1,0,0,0,.26,0h5c.09,0,.15,0,.18,0,.5-.24,1.88-1.41,1.88-2v-1.93a1.12,1.12,0,0,0-.71-1.08L58,165.74a3.25,3.25,0,0,1-2.22-3.24v-1.87a3.06,3.06,0,0,1,.45-1.68,11.26,11.26,0,0,1,2.27-2.25,4,4,0,0,1,1.79-.55H65c1.62,0,3,1.4,3.83,2.57a8.64,8.64,0,0,1,.89,1.62l-2.51.74c-.25-.52-.32-.64-.32-.64a5.08,5.08,0,0,0-1.76-1.78,1,1,0,0,0-.23,0H60.46a1.81,1.81,0,0,0-.22,0c-.47.23-1.86,1.49-1.87,2v1.73a1.06,1.06,0,0,0,.68,1l8.58,2.34a3.3,3.3,0,0,1,2.28,3.19v2.15A3.06,3.06,0,0,1,69.49,172.77Z"/><path class="cls-3" d="M84.33,173c-.9,1.13-2.21,2.56-3.83,2.56H76.39a3.89,3.89,0,0,1-1.81-.53,10.63,10.63,0,0,1-2.26-2.23,3.08,3.08,0,0,1-.47-1.68V160.61a2.9,2.9,0,0,1,.47-1.65,11.64,11.64,0,0,1,2.24-2.25,3.71,3.71,0,0,1,1.79-.54h4.14c1.63,0,3,1.41,3.84,2.58a8,8,0,0,1,.88,1.61l-2.51.74a5.1,5.1,0,0,0-2-2.42,1.3,1.3,0,0,0-.25,0H76.5a.68.68,0,0,0-.22,0,6.26,6.26,0,0,0-1.8,1.77,4.23,4.23,0,0,0,0,1v9.65c0,.54,1.35,1.72,1.85,2a.6.6,0,0,0,.21,0h3.9a.9.9,0,0,0,.25,0,5,5,0,0,0,2.06-2.37l2.5.67A6.57,6.57,0,0,1,84.33,173Z"/><path class="cls-3" d="M99.64,172.8A10.78,10.78,0,0,1,97.38,175a3.69,3.69,0,0,1-1.77.53H91.42a4,4,0,0,1-1.81-.53,11.32,11.32,0,0,1-2.25-2.23,3.15,3.15,0,0,1-.47-1.65v-14.8h2.55v14.74c0,.48,1.44,1.74,1.91,2,0,0,.09,0,.22,0h3.88a1.06,1.06,0,0,0,.21,0c.47-.22,1.84-1.52,1.84-2V156.34h2.56v14.79A2.86,2.86,0,0,1,99.64,172.8Z"/><path class="cls-3" d="M114.82,173.05a10.08,10.08,0,0,1-1.65,1.69,3.7,3.7,0,0,1-2.08.66h-8.81V156.34h8.8a3.71,3.71,0,0,1,2.09.7,9.9,9.9,0,0,1,1.65,1.65,3.19,3.19,0,0,1,.5,1.85V163a3.5,3.5,0,0,1-1.49,2.9,3.53,3.53,0,0,1,1.5,2.89v2.5A3.22,3.22,0,0,1,114.82,173.05Zm-2-12.48a.62.62,0,0,0-.07-.32c-.25-.44-1.06-1.43-1.66-1.43h-6.2v5.84h6.25c.56,0,1.4-.95,1.62-1.41a.7.7,0,0,0,.07-.34Zm0,8.22a.56.56,0,0,0-.07-.32,4,4,0,0,0-1.3-1.32s-.17,0-.32,0h-6.25v5.8h6.21c.6,0,1.41-.94,1.65-1.39a.62.62,0,0,0,.07-.32Z"/><path class="cls-3" d="M128.82,175.42l-4.48-8H120.1v7.94h-2.56v-19h8.82a3.6,3.6,0,0,1,2.07.67,10.59,10.59,0,0,1,1.67,1.68,3.42,3.42,0,0,1,.52,1.8v2.86a3.28,3.28,0,0,1-.52,1.78,11,11,0,0,1-1.66,1.69,2.72,2.72,0,0,1-1.46.57l4.62,8Zm-.77-14.84a1.27,1.27,0,0,0,0-.35c-.18-.35-1.09-1.36-1.52-1.4h-6.4V165h6.21c.56,0,1.47-.89,1.71-1.34a.94.94,0,0,0,0-.34Z"/><path class="cls-3" d="M133.45,175.42v-19h11.49v2.48H136v5.81h8.41v2.48H136v5.81H145v2.48Z"/><path class="cls-3" d="M39.14,172.45a10.72,10.72,0,0,1-2.24,2.22,4,4,0,0,1-1.78.55H26.54l0-19h8.6a3.54,3.54,0,0,1,1.77.5A11.29,11.29,0,0,1,39.14,159a2.86,2.86,0,0,1,.43,1.65v10.17A2.92,2.92,0,0,1,39.14,172.45ZM37,160.7c0-.12,0-.22,0-.26a5.9,5.9,0,0,0-1.8-1.74s-.1,0-.21,0H29.08v14.07H35a1.06,1.06,0,0,0,.21,0c.5-.26,1.84-1.43,1.85-2Z"/></svg>