<svg id="Capa_1" data-name="Capa 1" xmlns="http://www.w3.org/2000/svg" xmlns:xlink="http://www.w3.org/1999/xlink" viewBox="0 0 214.04 399.5"><defs><style>.cls-1{fill:url(#linear-gradient);}.cls-2{fill:#ffea01;}.cls-3{fill:#fff;}</style><linearGradient id="linear-gradient" x1="107.02" y1="171.39" x2="107.02" y2="-4.25" gradientUnits="userSpaceOnUse"><stop offset="0" stop-color="#c21718"/><stop offset="0.17" stop-color="#c71d1e"/><stop offset="0.4" stop-color="#d32c30"/><stop offset="0.64" stop-color="#e54249"/><stop offset="0.7" stop-color="#df3b41"/><stop offset="0.79" stop-color="#cf272b"/><stop offset="0.85" stop-color="#c21718"/><stop offset="0.87" stop-color="#c81e20"/><stop offset="0.95" stop-color="#dd383e"/><stop offset="1" stop-color="#e54249"/></linearGradient></defs><polygon class="cls-1" points="0 0 0 399.5 15.28 384.02 30.55 399.5 45.84 384.02 61.13 399.5 76.42 384.02 91.71 399.5 106.99 384.02 122.28 399.5 137.58 384.02 152.87 399.5 168.16 384.02 183.45 399.5 198.75 384.02 214.04 399.5 214.04 0 0 0"/><path class="cls-2" d="M44.32,297.56h4.81v13.56H44.32v-1.5a5,5,0,0,1-4.15,1.93,6.68,6.68,0,0,1-4.89-2.06,6.94,6.94,0,0,1-1.44-2.31,7.93,7.93,0,0,1-.52-2.88,7.51,7.51,0,0,1,.51-2.76,7.13,7.13,0,0,1,1.4-2.29,6.62,6.62,0,0,1,2.14-1.54,6.51,6.51,0,0,1,2.75-.57,5.52,5.52,0,0,1,4.2,1.77Zm-6,6.74a3.14,3.14,0,0,0,.24,1.23,3,3,0,0,0,.65,1,2.65,2.65,0,0,0,1,.66,3.14,3.14,0,0,0,1.23.24,3.06,3.06,0,0,0,1.2-.24,2.74,2.74,0,0,0,1-.66,3.47,3.47,0,0,0,.66-1,2.82,2.82,0,0,0,.25-1.19,2.91,2.91,0,0,0-.25-1.21,3.43,3.43,0,0,0-.66-1,3,3,0,0,0-1-.66,3.06,3.06,0,0,0-1.2-.24,3.14,3.14,0,0,0-1.23.24,2.92,2.92,0,0,0-1,.66,3.18,3.18,0,0,0-.65,1A2.85,2.85,0,0,0,38.29,304.3Z"/><path class="cls-2" d="M51.72,297.56h4.79v1.72a5.31,5.31,0,0,1,2-1.6,6.25,6.25,0,0,1,2.35-.41,6.05,6.05,0,0,1,2.45.46A5,5,0,0,1,65,299a3.71,3.71,0,0,1,.79,1.54,8,8,0,0,1,.21,1.93v8.61H61.24v-6.84a7.23,7.23,0,0,0-.15-1.63,2,2,0,0,0-.51-1,1.82,1.82,0,0,0-.72-.45,2.55,2.55,0,0,0-.84-.13,2.38,2.38,0,0,0-1.87.73,3,3,0,0,0-.64,2.07v7.24H51.72Z"/><path class="cls-2" d="M68.3,292.36a2.63,2.63,0,0,1,.21-1.05A2.72,2.72,0,0,1,70,289.87a2.58,2.58,0,0,1,1-.21,2.66,2.66,0,0,1,1.05.21,2.78,2.78,0,0,1,.86.58,2.83,2.83,0,0,1,.58.86,2.71,2.71,0,0,1,0,2.09,2.83,2.83,0,0,1-.58.86,2.78,2.78,0,0,1-.86.58,2.66,2.66,0,0,1-1.05.21,2.58,2.58,0,0,1-1-.21,2.72,2.72,0,0,1-1.44-1.44A2.61,2.61,0,0,1,68.3,292.36Zm5.1,5.2v13.56H68.61V297.56Z"/><path class="cls-2" d="M80,297.56l3.23,6.95,3.28-6.95h5.34l-7.06,13.56h-3.2l-7-13.56Z"/><path class="cls-2" d="M96.53,305.15q0,3.09,2.91,3.09a2.59,2.59,0,0,0,2.35-1.27h4.63c-.94,3.11-3.27,4.66-7,4.66a9.27,9.27,0,0,1-3.14-.52,6.94,6.94,0,0,1-2.45-1.47,6.47,6.47,0,0,1-1.57-2.27,7.58,7.58,0,0,1-.56-3,8.37,8.37,0,0,1,.53-3.05A6.48,6.48,0,0,1,93.73,299a6.67,6.67,0,0,1,2.36-1.46,8.84,8.84,0,0,1,3.14-.52,8.63,8.63,0,0,1,3.09.52,6.26,6.26,0,0,1,2.33,1.49,6.47,6.47,0,0,1,1.45,2.39,9.37,9.37,0,0,1,.5,3.19v.5Zm5.6-2.78a2.85,2.85,0,0,0-1-1.61,2.8,2.8,0,0,0-1.8-.61,2.77,2.77,0,0,0-1.81.58,2.68,2.68,0,0,0-.89,1.64Z"/><path class="cls-2" d="M108.66,297.56h4.79v2.22a5.45,5.45,0,0,1,1.87-1.86,5.09,5.09,0,0,1,2.6-.65h.41a3.49,3.49,0,0,1,.51.05v4.58a4.49,4.49,0,0,0-2.06-.48,3.09,3.09,0,0,0-2.5,1,4.44,4.44,0,0,0-.83,2.9v5.81h-4.79Z"/><path class="cls-2" d="M129.23,301.05a5.56,5.56,0,0,0-2.59-.69,1.91,1.91,0,0,0-1.07.27.8.8,0,0,0-.41.71.88.88,0,0,0,.07.39.64.64,0,0,0,.29.27,2.44,2.44,0,0,0,.66.24l1.15.27a5.45,5.45,0,0,1,3,1.41,3.62,3.62,0,0,1,1,2.6,4.72,4.72,0,0,1-.48,2.15,4.62,4.62,0,0,1-1.32,1.59,6.18,6.18,0,0,1-2,1,9,9,0,0,1-2.61.36,10.62,10.62,0,0,1-5.42-1.56l1.74-3.39a6.81,6.81,0,0,0,3.81,1.38,1.89,1.89,0,0,0,1.08-.29.89.89,0,0,0,.43-.74,1.35,1.35,0,0,0-.07-.44.82.82,0,0,0-.28-.32,2.5,2.5,0,0,0-.62-.26c-.27-.08-.63-.16-1.07-.25a6.15,6.15,0,0,1-3.11-1.34,3.29,3.29,0,0,1-.88-2.44,4.85,4.85,0,0,1,.42-2.05,4.27,4.27,0,0,1,1.22-1.55,5.74,5.74,0,0,1,1.91-1,8.84,8.84,0,0,1,2.5-.34,11.35,11.35,0,0,1,4.36.87Z"/><path class="cls-2" d="M143.5,297.56h4.82v13.56H143.5v-1.5a5,5,0,0,1-4.14,1.93,6.68,6.68,0,0,1-4.9-2.06,7.28,7.28,0,0,1-1.44-2.31,7.93,7.93,0,0,1-.51-2.88,7.72,7.72,0,0,1,.5-2.76,7.31,7.31,0,0,1,1.4-2.29,6.62,6.62,0,0,1,2.14-1.54,6.54,6.54,0,0,1,2.75-.57,5.51,5.51,0,0,1,4.2,1.77Zm-6,6.74a3.14,3.14,0,0,0,.24,1.23,3,3,0,0,0,.64,1,2.74,2.74,0,0,0,1,.66,3.14,3.14,0,0,0,1.23.24,3.06,3.06,0,0,0,1.2-.24,2.65,2.65,0,0,0,1-.66,3.09,3.09,0,0,0,.66-1,2.82,2.82,0,0,0,.25-1.19,2.91,2.91,0,0,0-.25-1.21,3.07,3.07,0,0,0-.66-1,2.92,2.92,0,0,0-1-.66,3.06,3.06,0,0,0-1.2-.24,3.14,3.14,0,0,0-1.23.24,3,3,0,0,0-1,.66,3.15,3.15,0,0,0-.64,1A2.85,2.85,0,0,0,137.48,304.3Z"/><path class="cls-2" d="M150.91,297.56h4.78v2.22a5.47,5.47,0,0,1,1.88-1.86,5.06,5.06,0,0,1,2.59-.65h.41a3.36,3.36,0,0,1,.51.05v4.58a4.49,4.49,0,0,0-2.06-.48,3.09,3.09,0,0,0-2.5,1,4.44,4.44,0,0,0-.83,2.9v5.81h-4.78Z"/><path class="cls-2" d="M162.25,292.36a2.63,2.63,0,0,1,.21-1.05,2.72,2.72,0,0,1,1.44-1.44,2.58,2.58,0,0,1,1-.21,2.66,2.66,0,0,1,1.05.21,2.78,2.78,0,0,1,.86.58,2.83,2.83,0,0,1,.58.86,2.71,2.71,0,0,1,0,2.09,2.83,2.83,0,0,1-.58.86,2.78,2.78,0,0,1-.86.58,2.66,2.66,0,0,1-1.05.21,2.58,2.58,0,0,1-1-.21,2.72,2.72,0,0,1-1.44-1.44A2.61,2.61,0,0,1,162.25,292.36Zm5.1,5.2v13.56h-4.79V297.56Z"/><path class="cls-2" d="M169.44,304.22a6.66,6.66,0,0,1,.6-2.81,6.88,6.88,0,0,1,1.7-2.27,7.92,7.92,0,0,1,2.57-1.52,9.13,9.13,0,0,1,3.27-.56,9.5,9.5,0,0,1,3.24.54,8.1,8.1,0,0,1,2.59,1.51,6.66,6.66,0,0,1,1.7,2.3,7.36,7.36,0,0,1,0,5.89,6.82,6.82,0,0,1-1.71,2.3,7.49,7.49,0,0,1-2.6,1.5,10,10,0,0,1-3.29.53,9.64,9.64,0,0,1-3.23-.53,7.57,7.57,0,0,1-2.55-1.51,7.07,7.07,0,0,1-1.68-2.34A7.45,7.45,0,0,1,169.44,304.22Zm5.05.06a3,3,0,0,0,.25,1.25,3.07,3.07,0,0,0,.66,1,2.65,2.65,0,0,0,1,.66,3.12,3.12,0,0,0,2.4,0,2.65,2.65,0,0,0,1-.66,3.43,3.43,0,0,0,.66-1,3,3,0,0,0,.25-1.23,2.9,2.9,0,0,0-.25-1.2,3.43,3.43,0,0,0-.66-1,2.92,2.92,0,0,0-1-.66,3.12,3.12,0,0,0-2.4,0,2.92,2.92,0,0,0-1,.66,3.13,3.13,0,0,0-.66,1A2.79,2.79,0,0,0,174.49,304.28Z"/><path class="cls-3" d="M185.42,242.87q-1.87-15.69-14.69-23-15-8.35-35.12-6.05-4.46.57-5-1.87a2.31,2.31,0,0,1,1.44-2.74,8,8,0,0,1,3.16-.86q9.51-1.29,26.77-.57a36.14,36.14,0,0,1,4.25.57,22.73,22.73,0,0,0,5.69.36,5.82,5.82,0,0,0,3.74-1.66q1.58-1.58,2-5.9.72-8.2.72-16,0-3.47-1.72-4.32a10.17,10.17,0,0,0-4.25-1.23,50.88,50.88,0,0,0-6-.07c-2.36.1-3.87.15-4.54.15q-5.48-.15-16.7-.29-9.5,0-14.25.14-2.3,0-8.63.29l-2.53.11a1.17,1.17,0,0,0,0-.11,28,28,0,0,0-13.9-12.22A85.61,85.61,0,0,0,81,161.88a61.12,61.12,0,0,0-25.15,3.43,45.71,45.71,0,0,0-20.57,14.24,5.6,5.6,0,0,0-1.58,3.17,5,5,0,0,0,1.05,3.16,48.49,48.49,0,0,0,2.82,5.1q.16.18,2.19,3.87c1.35,2.46,2.47,4.34,3.34,5.63s2,2.9,3.52,4.83a14.23,14.23,0,0,0,4.31,4.05,5.14,5.14,0,0,0,4,.61q1.84-.53,5.89-3.69A47.58,47.58,0,0,1,77.27,198a6.4,6.4,0,0,1,4.22,0,4,4,0,0,1,1.67,4.13,11.29,11.29,0,0,1-2.38,5q-6.51,8.61-21.36,22.6T38.93,250.59a28.73,28.73,0,0,0-3.34,4.75,27.46,27.46,0,0,0-1.23,6.86,114.41,114.41,0,0,0,1.06,22q.16,1.94,1,2.46a4.19,4.19,0,0,0,2.11.35,653.34,653.34,0,0,0,80.54-3.69c.23,0,.82-.06,1.76-.18l2.19-.26c.53-.06,1.2-.18,2-.35a8.42,8.42,0,0,0,1.93-.62,4.71,4.71,0,0,0,1.41-1.14,1.05,1.05,0,0,0,.07-.11,51.34,51.34,0,0,0,17.32,1.95c3.36-.1,5.95-.21,7.78-.36a43.92,43.92,0,0,0,6.83-1.22,30,30,0,0,0,7.27-2.74,37.66,37.66,0,0,0,8.78-6.33,31.48,31.48,0,0,0,7.63-13.31A38.2,38.2,0,0,0,185.42,242.87Zm-68.49-20.35a7,7,0,0,1,11.34-1.15.86.86,0,0,1-.86,1.37,13.65,13.65,0,0,0-4.74-.31,13.48,13.48,0,0,0-4.64,1.31A.86.86,0,0,1,116.93,222.52Zm-23.21,2.8a5.42,5.42,0,1,1,4.69,6.06A5.42,5.42,0,0,1,93.72,225.32ZM149.8,237.1c-2.56,17.59-15.3,33.43-36.14,33.53C98,270.67,82.88,258,81.22,243.47c-.23-1.95-.91-4.28,1.6-5,2.73-.75,3.49,1.65,4.19,3.64,4.29,12.18,12.17,17.56,24.67,16.8,6.21-.38,11.11-3.61,15.4-7.7,5-4.76,9.1-10.21,11.28-16.88,1-3.2,3-5,6.54-4.45A6.1,6.1,0,0,1,149.8,237.1Z"/><path class="cls-3" d="M53.65,343.1V318.68l14.71,0v3.17l-11.44,0v7.45H67.71v3.19H56.92v7.44H68.36v3.18Z"/><path class="cls-3" d="M89,339.78a13.86,13.86,0,0,1-2.92,2.85,4.78,4.78,0,0,1-2.28.68H77.2c-2.13,0-3.83-1.79-5-3.28a14.27,14.27,0,0,1-1.08-2.13l3.15-.86a5.75,5.75,0,0,0,.4.77A6.88,6.88,0,0,0,77,340.09a1.26,1.26,0,0,0,.33.05h6.35c.11,0,.19,0,.24,0,.64-.32,2.4-1.81,2.41-2.51l0-2.48a1.44,1.44,0,0,0-.91-1.38l-11.05-2.94a4.17,4.17,0,0,1-2.84-4.15v-2.4a4,4,0,0,1,.57-2.16A15,15,0,0,1,75,319.18a5,5,0,0,1,2.29-.69h6c2.08,0,3.78,1.81,4.91,3.3a11,11,0,0,1,1.14,2.08l-3.21.94-.41-.81a6.53,6.53,0,0,0-2.27-2.29.9.9,0,0,0-.29,0H77.47a1.86,1.86,0,0,0-.28,0c-.6.3-2.39,1.91-2.4,2.53v2.23a1.33,1.33,0,0,0,.88,1.31l11,3a4.2,4.2,0,0,1,2.93,4.07v2.76A3.89,3.89,0,0,1,89,339.78Z"/><path class="cls-3" d="M108.05,340.05c-1.15,1.45-2.82,3.28-4.9,3.28H97.88a5.1,5.1,0,0,1-2.33-.69,13.2,13.2,0,0,1-2.88-2.85,3.88,3.88,0,0,1-.61-2.15V324.2a3.73,3.73,0,0,1,.61-2.12,14.66,14.66,0,0,1,2.86-2.87,4.89,4.89,0,0,1,2.3-.71h5.31c2.08,0,3.8,1.8,4.91,3.31a10,10,0,0,1,1.13,2.06l-3.21.95a6.64,6.64,0,0,0-2.63-3.11,2,2,0,0,0-.33,0H98a1.31,1.31,0,0,0-.29,0,8.48,8.48,0,0,0-2.3,2.27,4.93,4.93,0,0,0,0,1.23v12.37c0,.69,1.72,2.2,2.37,2.51a.74.74,0,0,0,.26,0h5a1.14,1.14,0,0,0,.32,0,6.49,6.49,0,0,0,2.64-3l3.2.87A8.6,8.6,0,0,1,108.05,340.05Z"/><path class="cls-3" d="M127.67,339.81a14,14,0,0,1-2.9,2.85,5,5,0,0,1-2.27.68h-5.36a5,5,0,0,1-2.32-.69,13.66,13.66,0,0,1-2.88-2.85,3.88,3.88,0,0,1-.6-2.11v-19h3.27v18.89c0,.6,1.84,2.22,2.44,2.51a.84.84,0,0,0,.28,0h5a1.87,1.87,0,0,0,.27-.05c.6-.27,2.36-1.94,2.36-2.51V318.73h3.28v19A3.66,3.66,0,0,1,127.67,339.81Z"/><path class="cls-3" d="M147.13,340.13A12.79,12.79,0,0,1,145,342.3a4.68,4.68,0,0,1-2.66.85H131.06V318.73h11.27a4.71,4.71,0,0,1,2.68.9,12,12,0,0,1,2.11,2.11,4.17,4.17,0,0,1,.66,2.37v3.12c0,1.8-.71,2.57-1.91,3.71,1.2,1.13,1.92,1.92,1.92,3.7v3.21A4.13,4.13,0,0,1,147.13,340.13Zm-2.64-16a.74.74,0,0,0-.09-.4c-.31-.57-1.36-1.83-2.12-1.84h-7.95v7.48h8c.71,0,1.8-1.22,2.08-1.8a.9.9,0,0,0,.09-.43Zm0,10.54a.74.74,0,0,0-.09-.4,5.38,5.38,0,0,0-1.68-1.71,1,1,0,0,0-.4,0h-8V340h8c.76,0,1.8-1.21,2.11-1.78a.66.66,0,0,0,.08-.4Z"/><path class="cls-3" d="M165.05,343.18,159.32,333h-5.44v10.17h-3.27l0-24.41h11.3a4.55,4.55,0,0,1,2.66.85,12.75,12.75,0,0,1,2.13,2.16,4.35,4.35,0,0,1,.68,2.31v3.65a4.25,4.25,0,0,1-.66,2.29,15,15,0,0,1-2.13,2.17,3.53,3.53,0,0,1-1.88.73l5.93,10.25Zm-1-19a2,2,0,0,0,0-.45c-.24-.45-1.4-1.74-2-1.79h-8.2v7.89h8c.72,0,1.88-1.14,2.19-1.71.05,0,.05-.37.05-.44Z"/><path class="cls-3" d="M171,343.18V318.76h14.72v3.17H174.28v7.44h10.78v3.18H174.28V340h11.43v3.18Z"/><path class="cls-3" d="M50.15,339.37a13.85,13.85,0,0,1-2.87,2.85,5,5,0,0,1-2.27.69H34l0-24.36,11,0a4.56,4.56,0,0,1,2.27.64,15,15,0,0,1,2.88,2.92,3.71,3.71,0,0,1,.56,2.12v13A3.61,3.61,0,0,1,50.15,339.37Zm-2.73-15.06a.55.55,0,0,0,0-.32,7.35,7.35,0,0,0-2.31-2.23,1,1,0,0,0-.28,0H37.26l0,18h7.53c.15,0,.23,0,.27,0,.63-.34,2.36-1.83,2.36-2.53Z"/></svg>