<svg id="Capa_1" data-name="Capa 1" xmlns="http://www.w3.org/2000/svg" viewBox="0 0 317.25 206.36"><defs><style>.cls-1{fill:#0065ae;}</style></defs><path class="cls-1" d="M34.57,157.58l-.93,5.24H13.57L10.74,179H30.81l-.94,5.24H9.8L7,200.32H27l-.94,5.24H0l8.47-48Z"/><path class="cls-1" d="M48,157.58l-8.47,48h-6l8.46-48Z"/><path class="cls-1" d="M54,189.39l0,.1a9.61,9.61,0,0,0,1.85,8.17A8.88,8.88,0,0,0,63,201a12.85,12.85,0,0,0,8.43-3.37c.38-.31,1.1-1,2.17-2.1l5.34,2a23.47,23.47,0,0,1-3.6,3.77,20,20,0,0,1-13.27,5.1q-7.24,0-11.37-5a14,14,0,0,1-2.94-11.85,19.94,19.94,0,0,1,7.14-11.9,19.79,19.79,0,0,1,13.13-5q7.3,0,11.47,5.07,3.57,4.41,2.3,11.74Zm2-5.27H76q-1.08-6.19-8.87-6.2T56,184.12Z"/><path class="cls-1" d="M110.22,195.82l5.36,2.1q-2.13,2.31-3.3,3.34A19.91,19.91,0,0,1,99,206.36q-7.24,0-11.37-5a14,14,0,0,1-2.94-11.89A21.39,21.39,0,0,1,105,172.58q7.3,0,11.34,4.94a24.44,24.44,0,0,1,2.23,3.43l-6.1,2.14c-.62-1-1.06-1.66-1.3-2a8.83,8.83,0,0,0-7.13-3.2,12.62,12.62,0,0,0-8.36,3.32,13.71,13.71,0,0,0-4.75,8.21,9.78,9.78,0,0,0,1.87,8.19A8.79,8.79,0,0,0,100,201a12.85,12.85,0,0,0,8.43-3.37C108.63,197.39,109.24,196.8,110.22,195.82Z"/><path class="cls-1" d="M128.09,175.08l2.06-11.83h6l-2.06,11.83h5.67l-.94,5.21h-5.67l-4.46,25.27h-6l4.46-25.27h-5.66l.93-5.21Z"/><path class="cls-1" d="M157.26,179.62a12.34,12.34,0,0,0-7,3.28,11.84,11.84,0,0,0-3.43,6.65l-2.84,16h-6l5.37-30.48h6l-.77,4.34a10.67,10.67,0,0,1,6.64-5Z"/><path class="cls-1" d="M179.93,172.58q7.31,0,11.38,5a14,14,0,0,1,2.85,11.9,19.93,19.93,0,0,1-7,11.85,19.7,19.7,0,0,1-13.15,5q-7.23,0-11.37-5a14,14,0,0,1-2.93-11.85,21.34,21.34,0,0,1,20.27-16.91Zm-9.35,8.67a13.71,13.71,0,0,0-4.75,8.24,9.57,9.57,0,0,0,1.85,8.17,8.86,8.86,0,0,0,7.21,3.3,12.74,12.74,0,0,0,8.37-3.3,13.6,13.6,0,0,0,4.77-8.17,9.72,9.72,0,0,0-1.87-8.24,8.85,8.85,0,0,0-7.2-3.33A12.64,12.64,0,0,0,170.58,181.25Zm22.15-18.13-11.87,8h-6.3l8.37-8Z"/><path class="cls-1" d="M207.07,182.82l-4,22.74h-6l5.37-30.48h6c1.22-1.11,3.44-1.66,6.64-1.66q5.76,0,8.68,3.53a10.34,10.34,0,0,1,2.09,8.64l-3.54,20h-6l3.47-19.71a5.89,5.89,0,0,0-1.19-5.15,5.61,5.61,0,0,0-4.45-2,7.84,7.84,0,0,0-5,1.94A9.85,9.85,0,0,0,207.07,182.82Z"/><path class="cls-1" d="M240.87,175.08l-5.37,30.48h-6l5.37-30.48Zm1.62-8.68a3,3,0,0,1,.75,2.65,4.56,4.56,0,0,1-1.7,2.72,5,5,0,0,1-3.27,1.18,3.51,3.51,0,0,1-2.88-1.18,3.19,3.19,0,0,1-.72-2.72,4.52,4.52,0,0,1,1.67-2.65,4.93,4.93,0,0,1,3.3-1.18A3.56,3.56,0,0,1,242.49,166.4Z"/><path class="cls-1" d="M269.51,195.82l5.37,2.1q-2.14,2.31-3.3,3.34a20,20,0,0,1-13.27,5.1q-7.25,0-11.37-5A14,14,0,0,1,244,189.45a21.36,21.36,0,0,1,20.26-16.87q7.31,0,11.34,4.94a24.44,24.44,0,0,1,2.23,3.43l-6.1,2.14c-.62-1-1.05-1.66-1.3-2a8.82,8.82,0,0,0-7.13-3.2,12.59,12.59,0,0,0-8.35,3.32,13.61,13.61,0,0,0-4.75,8.21,9.75,9.75,0,0,0,1.86,8.19,8.79,8.79,0,0,0,7.17,3.32,12.89,12.89,0,0,0,8.44-3.37Q268,197.29,269.51,195.82Z"/><path class="cls-1" d="M311.88,205.56h-6l.93-5.34a14.33,14.33,0,0,1-11.93,6.14q-7.25,0-11.37-5a14,14,0,0,1-2.94-11.85,21.37,21.37,0,0,1,20.27-16.91q7.31,0,9.77,6.07l.64-3.57h6Zm-3.63-13.67.86-4.87a8.72,8.72,0,0,0-2-5.7,8.87,8.87,0,0,0-7.23-3.4,12.66,12.66,0,0,0-8.39,3.33,13.76,13.76,0,0,0-4.75,8.24,9.61,9.61,0,0,0,1.85,8.17,8.88,8.88,0,0,0,7.22,3.3,12.85,12.85,0,0,0,8.43-3.37A13.39,13.39,0,0,0,308.25,191.89Z"/><path class="cls-1" d="M289.18,65.87h-2V41.06a2.73,2.73,0,0,0-.88-2,3.11,3.11,0,0,0-4.25,0l-.8.89-2,2.15-3.75,3.65L214,110.21l-2.24,2.35-1.08,1.14-.15.17a2.8,2.8,0,0,0-.76,1.91,3,3,0,0,0,3.07,2.91h2.34l68.91,1h4.2a2,2,0,0,0,2-1.89V106.17a2,2,0,0,0-2-1.89h-39.7l21.88-23H313.1a2.5,2.5,0,0,1,2.57,2.43l0,1v17.67l0-15.25v50.19l0,1.06a3.73,3.73,0,0,1-3.83,3.63H189.36c-11,0-19.85-8.42-19.85-18.78a18.22,18.22,0,0,1,5.13-12.62l.6-.63L272.59,7.81l.35-.37,3.56-3.75,1.29-1.24A9.24,9.24,0,0,1,284,.11h16.51c8.39,0,15.2,6.44,15.2,14.39l0,8.17V65.78Z"/><path class="cls-1" d="M155.91,0H135a9.33,9.33,0,0,0-6.36,2.47l-1.87,1.84L2,141.54l-.32.34H36.81L92.16,81.26l43.19-.06v60.68h30.49V9.39A9.67,9.67,0,0,0,155.91,0ZM135.35,36.63V58.57a2.34,2.34,0,0,1-2.26,2.4h-15.7a2.33,2.33,0,0,1-2.25-2.4,2.6,2.6,0,0,1,.42-1.41l.12-.19,4.84-5.71,4.91-5.75.88-1,7.59-8.76a.8.8,0,0,1,.64-.31.84.84,0,0,1,.81.86Z"/></svg>