<svg xmlns="http://www.w3.org/2000/svg" width="637.95712" height="287.06334" viewBox="0 0 637.95712 287.06334">
  <defs>
    <style>
      .cls-1 {
        fill: #fff;
      }

      .cls-2 {
        fill: #3cbfc4;
      }

      .cls-3 {
        fill: #ff5200;
      }

      .cls-4 {
        fill: #00626f;
      }

      .cls-5 {
        fill: #36d2b6;
      }

      .cls-6 {
        fill: #0092a0;
      }

      .cls-7 {
        fill: #006d71;
      }

      .cls-8 {
        fill: #00a8b1;
      }

      .cls-9 {
        fill: #00a2a8;
      }
    </style>
  </defs>
  <g id="Capa_2" data-name="Capa 2">
    <g id="Capa_9" data-name="Capa 9">
      <g>
        <path class="cls-1" d="M633.68055,237.7671a27.62809,27.62809,0,0,1,1.62975,9.35813,28.76427,28.76427,0,0,1-3.148,12.987,27.77988,27.77988,0,0,1-24.87155,14.81414L416.4811,274.918a20.08173,20.08173,0,0,1-15.94918-7.879,20.0253,20.0253,0,0,1-13.27239,5.43372c-1.25782.03022-2.51563.05036-3.77345.05036H382.641a20.2498,20.2498,0,0,1-18.56553,12.387,19.4,19.4,0,0,1-2.8576-.21133c-46.15687-6.58086-80.02744-32.985-101.994-57.00416-3.5317,3.77344-7.16413,7.38591-10.86732,10.79712a20.10927,20.10927,0,0,1-6.89292,11.04861c-24.2704,19.72251-51.1778,31.80759-79.98666,35.92319a157.63494,157.63494,0,0,1-22.35912,1.5999c-39.11261,0-75.91154-14.61072-103.62374-41.13555a20.14,20.14,0,0,1-5.77563-18.686A133.27748,133.27748,0,0,1,.36572,153.715c0-.13082-.05012-.8855-.05012-.97609L.01392,144.6587a20.171,20.171,0,0,1,14.852-20.17533A119.62338,119.62338,0,0,1,52.78168,55.08219l-.20144-.31194a20.12082,20.12082,0,0,1,5.86652-27.853A147.31514,147.31514,0,0,1,139.14831,3.22a155.775,155.775,0,0,1,21.92626,1.55967c25.146,3.59233,48.92357,13.43343,70.699,29.28189a19.979,19.979,0,0,1,7.6879,3.80366,206.33017,206.33017,0,0,1,19.79288,18.13261C288.46609,24.7739,323.393,5.55453,360.87589.20126A20.64794,20.64794,0,0,1,363.73349,0a20.034,20.034,0,0,1,11.28,3.46151c2.89788-.161,5.71519-.24149,8.43226-.24149a147.01277,147.01277,0,0,1,95.27206,34.58485,20.08407,20.08407,0,0,1,7.52674,4.5382,139.1871,139.1871,0,0,1,43.55034,101.36975c0,4.3671-.201,8.76441-.60385,13.0712a19.95969,19.95969,0,0,1-1.07651,4.91051s65.88313-.00453,80.0351-.003a25.59548,25.59548,0,0,1,6.04433.65374c12.64773,3.06944,23.76312,13.15447,23.76312,34.23593,0,10.74676-3.1696,18.15275-7.00347,23.174a27.05179,27.05179,0,0,1,2.7269,18.01186Z"/>
        <g>
          <path class="cls-2" d="M414.77585,211.33535l9.26164-29.513h8.2179l9.39882,29.513h-7.76313l-1.63569-6.03825h-8.48926l-1.49835,6.03825Zm13.0754-22.52047-2.67769,10.80625H430.757Z"/>
          <path class="cls-2" d="M446.33286,181.8224h11.89607c8.17181,0,11.25945,4.17762,11.25945,9.85359,0,4.04029-1.634,7.12808-4.85735,8.85311l5.76533,10.80625h-8.62644l-4.449-9.35256h-3.67817v9.35256h-7.30992Zm15.39239,9.89826c0-2.633-.95423-3.94951-4.35963-3.94951h-3.72284v8.35366H457.503C460.04489,196.12481,461.72525,194.99031,461.72525,191.72066Z"/>
          <path class="cls-2" d="M475.39561,181.8224h9.67016c11.03293,0,14.71094,5.22277,14.71094,14.48441,0,6.99233-2.1334,15.02854-14.66468,15.02854h-9.71642Zm7.31008,5.94875V205.2971h2.76861c6.03983,0,6.493-3.67817,6.493-8.67284,0-5.76532-.59053-8.85311-7.12823-8.85311Z"/>
          <path class="cls-2" d="M521.39078,181.8224h7.03715v19.388c0,8.71752-6.67329,10.57957-11.89449,10.57957-5.04093,0-11.4877-1.6802-11.4877-10.62582V181.8224h7.31008V199.803c0,4.9036,1.725,6.03825,4.49506,6.03825,3.31448,0,4.5399-1.49835,4.5399-5.99357Z"/>
          <path class="cls-2" d="M534.96879,205.2971h7.62753v-17.435h-7.62753V181.8224h22.6114v6.03967h-7.67378v17.435h7.67378v6.03825h-22.6114Z"/>
          <path class="cls-2" d="M570.523,211.33535h-6.90156v-29.513h7.94671L581.14739,199.53V181.8224h6.81048v29.513h-7.39943l-10.08012-18.88713Z"/>
          <path class="cls-2" d="M617.83625,196.57958c0,8.53551-3.13246,15.21039-12.6222,15.21039-8.49084,0-12.39568-5.13169-12.39568-14.89278,0-8.89937,3.40539-15.48332,12.351-15.48332C613.56771,181.41387,617.83625,185.31856,617.83625,196.57958Zm-7.76328,0c0-7.219-.59038-9.217-4.90359-9.217-3.90485,0-4.58615,2.31541-4.58615,9.53457,0,5.94732.40853,8.944,4.63082,8.944C609.48259,205.84122,610.073,203.39022,610.073,196.57958Z"/>
          <g>
            <path class="cls-3" d="M416.4829,224.7452h9.84443c11.23265,0,14.97646,5.31624,14.97646,14.74469,0,7.118-2.1726,15.29974-14.93011,15.29974H416.4829Zm7.44126,6.05549v17.842h2.81915c6.14819,0,6.61053-3.745,6.61053-8.82949,0-5.87006-.6014-9.01247-7.25707-9.01247Z"/>
            <path class="cls-3" d="M443.79723,254.78963l9.42845-30.04443h8.36594l9.56874,30.04443h-7.9036l-1.66514-6.147h-8.64285l-1.52485,6.147Zm13.31133-22.92643-2.72643,11.00088h5.68464Z"/>
            <path class="cls-3" d="M486.17952,237.04037l5.315-12.29517H498.937l-9.38332,18.16524v11.87919h-7.44127V243.14221l-9.70658-18.397h8.04267Z"/>
          </g>
          <g>
            <g>
              <path class="cls-4" d="M527.24068,233.42831a4.994,4.994,0,0,0-5.36137-5.26866,9.17506,9.17506,0,0,0-6.37875,3.18876l-1.94083-2.40316a12.80213,12.80213,0,0,1,9.05883-3.92923c4.66848,0,8.41351,2.774,8.41351,7.99631,0,6.1482-8.13538,14.74469-14.19086,19.27532h15.623v3.18877H512.12637v-2.58858C517.71952,248.86711,527.24068,239.34473,527.24068,233.42831Z"/>
              <path class="cls-4" d="M561.95115,239.668c0,7.34977-1.98719,16.27076-11.69377,16.27076-7.62669,0-11.279-5.31624-11.279-14.88376,0-8.55136,2.54223-16.039,11.60228-16.039C558.76238,225.016,561.95115,230.70188,561.95115,239.668Zm-17.01,10.724,8.921-21.49306a8.11281,8.11281,0,0,0-3.55839-.73925c-6.14819,0-7.58033,6.00791-7.58033,11.87919C542.7234,244.01321,543.04667,247.94244,544.94114,250.392Zm13.2662-10.21527c0-3.55839-.32327-7.34856-2.31168-9.70659l-8.96611,21.58578a7.75734,7.75734,0,0,0,3.6511.7856C557.00576,252.84148,558.20734,246.18581,558.20734,240.17669Z"/>
              <path class="cls-4" d="M583.626,233.42831a4.994,4.994,0,0,0-5.36138-5.26866,9.17506,9.17506,0,0,0-6.37875,3.18876l-1.94083-2.40316a12.80215,12.80215,0,0,1,9.05883-3.92923c4.66848,0,8.41351,2.774,8.41351,7.99631,0,6.1482-8.13538,14.74469-14.19086,19.27532h15.623v3.18877H568.51166v-2.58858C574.10481,248.86711,583.626,239.34473,583.626,233.42831Z"/>
            </g>
            <path class="cls-4" d="M597.91964,250.87655a13.29608,13.29608,0,0,0,6.50855,1.853c5.10728,0,6.68981-3.25427,6.64473-5.69522-.046-4.11269-3.752-5.87554-7.59331-5.87554H601.265V238.176h2.2146c2.89269,0,6.55363-1.49189,6.55363-4.972,0-2.35031-1.49142-4.4292-5.15237-4.4292a10.79317,10.79317,0,0,0-5.87648,1.94318l-1.03967-2.89269a13.97055,13.97055,0,0,1,7.68441-2.25968c5.78538,0,8.40664,3.43507,8.40664,7.00538,0,3.0284-1.80793,5.60505-5.42379,6.91569v.09016c3.61586.72317,6.55363,3.43507,6.55363,7.54823,0,4.70062-3.66094,8.81378-10.71234,8.81378a14.93477,14.93477,0,0,1-7.63839-1.98873Z"/>
          </g>
          <g>
            <path class="cls-3" d="M256.70948,191.94751a192.13864,192.13864,0,0,1-33.31976,35.44l2.89592,3.56447a195.689,195.689,0,0,0,33.02959-34.7849c20.622,28.13776,54.93355,61.51486,104.67173,68.61457l1.17845-8.24756c-50.83606-7.25822-84.88421-43.20321-105.1293-73.79419C259.08213,181.29669,256.70948,191.94751,256.70948,191.94751Z"/>
            <path class="cls-5" d="M157.3674,257.20372l-1.5151-10.60809c49.38317-7.05087,82.05637-43.79357,100.78523-73.416.57337-.9942,5.61634-9.74442,7.54741-13.41744l9.48572,4.98688c-2.13843,4.06576-7.57663,13.48328-7.80723,13.88213l-.10855.18176C245.8282,210.35921,210.84931,249.56737,157.3674,257.20372Z"/>
            <path class="cls-4" d="M139.0374,266.942c-33.90037-.00487-65.75637-12.63185-89.70871-35.55463l8.46841-8.8489c21.66138,20.73175,50.51041,32.15105,81.2343,32.15592a125.775,125.775,0,0,0,17.79187-1.27714c22.91429-3.27416,44.49759-13.03083,64.15345-29.00018l7.72192,9.50521c-21.40281,17.38827-45.00138,28.02684-70.14067,31.61816A138.03614,138.03614,0,0,1,139.0374,266.942Z"/>
            <path class="cls-6" d="M383.405,219.56924a90.24145,90.24145,0,0,1-12.81972-.92225c-53.47217-7.63647-84.75605-61.92846-90.48456-72.73529l8.27329-4.38429c3.28266,6.19207,33.51488,60.70728,83.541,67.85221a80.98008,80.98008,0,0,0,11.49.82831Z"/>
            <path class="cls-3" d="M341.41794,83.64285,339.65276,80.459c-35.14591,19.484-55.7204,57.62348-59.48861,65.07208l-3.72186,7.57539-3.93659-1.9347-1.62241,3.60357,13.9652,6.27015,6.2604-13.94322c3.68277-6.824,32.27685-57.16717,78.28829-65.64545l-1.38456-7.51442A87.79378,87.79378,0,0,0,341.41794,83.64285Z"/>
            <path class="cls-5" d="M181.88823,79.96008l1.08926-2.014A94.2677,94.2677,0,0,0,152.03775,67.543a92.68232,92.68232,0,0,0-12.9625-.92475c-34.47374,0-65.316,20.73676-76.74871,51.5998l11.096,4.10848C83.14262,96.0832,109.52731,78.4511,139.07525,78.4511a80.68993,80.68993,0,0,1,11.29488.80633c20.03285,2.86182,39.28261,13.78957,57.21476,32.47808l6.53246-6.26889C205.29281,96.03686,194.5237,86.7951,181.88823,79.96008Z"/>
            <path class="cls-2" d="M100.99432,218.13833C71.278,204.3244,52.07709,175.10949,52.07709,143.71106A79.836,79.836,0,0,1,65.5385,99.25619,83.70849,83.70849,0,0,1,77.30056,85.25314l5.45532,5.69928A75.74659,75.74659,0,0,0,72.1002,103.63186a71.98159,71.98159,0,0,0-12.13531,40.0792c0,28.77808,16.99528,54.55668,44.35481,67.27385Z"/>
            <path class="cls-2" d="M245.74888,153.39927l-3.42057-7.98036c-.31228-.61609-.74287-1.4419-1.265-2.41425-5.98958,11.34247-37.50156,66.725-89.31222,74.1236-4.23052.60509-8.59408,1.98841-12.71967,1.98841a81.01922,81.01922,0,0,1-34.39941-7.54978l-3.95,7.23874a90.32431,90.32431,0,0,0,38.35537,8.42319,98.6478,98.6478,0,0,0,13.90786-1.00507c49.99076-7.14006,81.54409-52.86108,93.16475-72.97937Z"/>
            <path class="cls-3" d="M249.70858,151.70242l-3.9597,1.69685-3.42057-7.98036a183.85588,183.85588,0,0,0-28.211-39.95229l-6.53246,6.26889a164.68206,164.68206,0,0,1,25.5139,34.77641l12.00727,20.95386,10.26408-5.88478Z"/>
            <path class="cls-6" d="M275.88729,163.30833,249.339,150.679l6.31411-13.27479c4.10123-8.61843,19.601-38.60432,46.89348-62.5639l11.04717-9.69808,19.396,22.09446-11.04717,9.69808c-23.6644,20.77336-37.25635,47.87782-39.74,53.10017Z"/>
            <path class="cls-4" d="M82.801,91.00251l-5.54551-5.79934C93.66527,69.51064,115.6207,60.869,139.07525,60.869a96.09779,96.09779,0,0,1,46.6299,12.03288l-3.8158,7.05823a88.09768,88.09768,0,0,0-42.8141-11.06678C117.69693,68.8933,97.71154,76.74575,82.801,91.00251Z"/>
            <path class="cls-4" d="M27.85268,143.71106H22.95374a109.17206,109.17206,0,0,1,34.22-79.5021l3.38634,3.54012A104.32074,104.32074,0,0,0,27.85268,143.71106Z"/>
            <path class="cls-4" d="M221.721,59.96508c-19.795-15.82432-41.493-25.51266-64.49147-28.79657a129.07127,129.07127,0,0,0-18.15425-1.29425,120.7296,120.7296,0,0,0-66.14674,19.3753l-3.567-5.47231a127.23688,127.23688,0,0,1,69.7137-20.4367,135.56876,135.56876,0,0,1,19.07775,1.3602C182.32244,28.1518,205.0817,38.3,225.80022,54.861Z"/>
            <path class="cls-7" d="M282.42575,104.25394,273.306,97.35922c18.04557-23.87177,48.7952-53.6478,92.8035-59.92656a122.31571,122.31571,0,0,1,17.25523-1.23329,115.68933,115.68933,0,0,1,42.7043,8.04145l-4.20129,10.63244a104.30277,104.30277,0,0,0-38.503-7.24123,110.97222,110.97222,0,0,0-15.63882,1.11862C327.57116,54.4804,299.176,82.09614,282.42575,104.25394Z"/>
            <path class="cls-8" d="M264.03979,122.86938l-12.76-5.19425,3.79382-9.32233.327-.516c16.47325-26.0749,52.6-71.02994,109.45975-79.14209a131.29417,131.29417,0,0,1,18.50439-1.32111V41.15078a117.62213,117.62213,0,0,0-16.5562,1.18332c-48.522,6.92283-80.81222,43.04345-99.436,72.34868Z"/>
            <path class="cls-3" d="M466.58984,62.80978c-22.19577-21.23929-51.7522-32.93552-83.22508-32.93552a129.09875,129.09875,0,0,0-18.15063,1.29425l-.92225-6.46776a135.56537,135.56537,0,0,1,19.07288-1.3602c33.16362,0,64.32421,12.34029,87.741,34.74829Z"/>
            <path class="cls-5" d="M155.63632,245.08065l-2.38114-16.67088c66.65789-9.51632,99.8716-87.158,100.1985-87.94115,1.476-3.54873,37.10633-87.25436,113.35488-98.13577l2.37877,16.67088c-66.86163,9.54068-99.863,87.1568-100.18876,87.94C267.51769,150.50335,231.86538,234.19687,155.63632,245.08065Z"/>
            <path class="cls-3" d="M85.597,228.22677l7.3107-12.58188c17.94076,10.42271,38.73123,14.31159,60.12792,11.24978l2.0616,14.39816a113.25793,113.25793,0,0,0,40.47444-14.18106l-12.19889-21.24054a87.1726,87.1726,0,0,1-44.34133,12.08048,80.20172,80.20172,0,0,1-55.83519-21.95544,73.26867,73.26867,0,0,1-16.60742-23.595l-21.02706,9.21016a96.399,96.399,0,0,0,21.75894,30.974l-1.05878,1.10638A102.42008,102.42008,0,0,0,85.597,228.22677Z"/>
            <path class="cls-4" d="M139.0374,248.85123c-29.21241-.00125-56.628-10.84468-77.20365-30.53115l4.62326-4.832c19.32533,18.491,45.09894,28.67453,72.57314,28.67578a113.52178,113.52178,0,0,0,16.02306-1.15035c54.97153-7.8512,88.19986-54.37006,103.158-81.516L262.005,150.518l6.16034,2.60324-4.01092,9.44912c-15.51928,28.21583-50.20787,76.7878-108.15463,85.06222A120.123,120.123,0,0,1,139.0374,248.85123Z"/>
            <path class="cls-5" d="M85.98733,227.55822c-30.74588-17.85295-49.10012-49.19779-49.10012-83.84716A96.00173,96.00173,0,0,1,38.06679,128.687l7.5584,1.20044a88.54664,88.54664,0,0,0-1.08452,13.82367c0,31.8901,16.9307,60.761,45.28931,77.22813Z"/>
            <path class="cls-3" d="M49.10547,130.43877l-14.51895-2.3032C38.78893,101.65931,53.4238,78.26448,75.7977,62.2609c22.72392-16.2549,51.01782-22.95938,79.6911-18.86914a112.447,112.447,0,0,1,19.12034,4.477L170.02,61.83394a97.78809,97.78809,0,0,0-16.60992-3.89025C102.53616,50.7037,56.709,82.5316,49.10547,130.43877Z"/>
            <path class="cls-4" d="M188.23644,221.05624l-3.32912-5.80046,2.89966-1.664c37.81761-21.709,58.94223-63.20921,62.79338-71.308l1.43578-3.01921,6.03842,2.87156-1.43578,3.01922c-4,8.41357-25.9591,51.53746-65.50142,74.23577Z"/>
            <path class="cls-6" d="M271.78231,139.3194a160.03593,160.03593,0,0,0-7.2546-14.65074l1.703-.93812C250.45758,95.10736,215.20674,45.83511,156.339,37.43266a122.42049,122.42049,0,0,0-17.26372-1.23329V47.632a111.08164,111.08164,0,0,1,15.64744,1.11862A108.18222,108.18222,0,0,1,172.92453,52.997L168.74273,65.712c54.33832,17.87244,81.66363,81.76245,81.9272,82.3894,1.50649,3.6218,37.78575,88.839,115.71291,99.96178l3.2302-22.636C304.68373,216.15842,272.09947,140.07451,271.78231,139.3194Z"/>
            <path class="cls-3" d="M486.29092,143.71106h-9.18568a87.98913,87.98913,0,0,0-30.62146-66.36759c-20.90626-18.136-49.27337-26.19819-77.83809-22.12869l-1.2955-9.093c31.1947-4.4525,62.23462,4.4014,85.15253,24.283A97.17229,97.17229,0,0,1,486.29092,143.71106Z"/>
            <rect class="cls-9" x="127.44735" y="105.18356" width="24.84161" height="77.07199"/>
            <rect class="cls-3" x="101.33347" y="131.29994" width="77.06711" height="24.84536"/>
            <path class="cls-4" d="M509.07454,154.93873l-9.8175-.91c.31342-3.39.47331-6.86062.47331-10.31766a109.46236,109.46236,0,0,0-34.29086-79.69971l6.81665-7.12407a119.23868,119.23868,0,0,1,37.33318,86.82378C509.58932,147.46952,509.41619,151.24747,509.07454,154.93873Z"/>
            <path class="cls-5" d="M475.29609,160.67586l-6.40917-1.27351A80.93012,80.93012,0,0,0,445.07973,84.7957l4.516-4.72094a87.47058,87.47058,0,0,1,25.70041,80.6011Z"/>
            <path class="cls-3" d="M464.072,162.24955l-14.83374-3.7817a59.83483,59.83483,0,0,0,1.84076-14.758c0-35.02524-30.37625-63.52038-67.7143-63.52038a79.10487,79.10487,0,0,0-11.04842.78922q-1.46751.21042-2.92528.47942l-2.76188-15.05821c1.17108-.2146,2.34466-.40735,3.53161-.577a94.3418,94.3418,0,0,1,13.204-.943c45.7796,0,83.02384,35.36438,83.02384,78.83117A75.144,75.144,0,0,1,464.072,162.24955Z"/>
            <path class="cls-5" d="M383.405,252.39621a123.91351,123.91351,0,0,1-17.46871-1.254c-25.98821-3.71087-50.10169-15.78647-71.67038-35.89015l9.39316-10.07857c19.46923,18.14687,41.07815,29.02453,64.2254,32.33043a112.62533,112.62533,0,0,0,18.50189,1.076l.32216,13.77483C385.60812,252.38035,384.50774,252.39621,383.405,252.39621Z"/>
            <path class="cls-1" d="M457.91282,122.851a72.48938,72.48938,0,0,0-19.22777-30.88A78.32429,78.32429,0,0,0,395.29146,71.0782l1.5151-10.60809a88.96738,88.96738,0,0,1,49.28686,23.75834,83.23171,83.23171,0,0,1,22.06149,35.46807Z"/>
            <path class="cls-5" d="M267.669,102.37171l-12.8893-9.09536C275.39812,64.0517,311.0222,27.63827,363.63807,20.12621l2.23,15.61684C318.82094,42.461,286.499,75.68322,267.669,102.37171Z"/>
            <path class="cls-8" d="M263.82268,108.74928l-6.602-8.1A191.64315,191.64315,0,0,0,220.701,61.23984L226.82,53.585a201.31187,201.31187,0,0,1,38.3079,41.27227l6.28476,7.69256Z"/>
            <path class="cls-5" d="M139.0374,258.51883c-31.72047-.00375-61.51-11.79991-83.88989-33.21621a112.77821,112.77821,0,0,1-34.7849-73.08418l-.01086-.19886-.30255-8.10853,10.708-.40011.29893,8.00735a102.0846,102.0846,0,0,0,31.501,66.043c20.37562,19.4986,47.535,30.23835,76.47426,30.242a119.11048,119.11048,0,0,0,16.81965-1.20768l1.5176,10.60809A129.96823,129.96823,0,0,1,139.0374,258.51883Z"/>
            <path class="cls-6" d="M47.21349,233.599a124.52024,124.52024,0,0,1-30.175-44.77316l17.10271-6.70447A106.3094,106.3094,0,0,0,59.91242,220.3256Z"/>
            <path class="cls-4" d="M389.563,226.23711A96.49436,96.49436,0,0,1,369.613,225.46c-15.27407-2.18352-30.07733-8.28178-43.99856-18.12614l-4.3282,6.11887c14.90082,10.53739,30.80321,17.07348,47.26547,19.42664a105.24954,105.24954,0,0,0,14.85323,1.06741c2.06286,0,4.11347-.07932,6.158-.20374Z"/>
            <path class="cls-2" d="M314.76968,88.76277l-5.05035-5.7505c18.18723-15.97309,37.97737-25.57973,58.82143-28.55373a105.08407,105.08407,0,0,1,14.824-1.06016c25.38324,0,49.16357,9.3773,66.95918,26.40556l-5.2918,5.53089C428.66743,69.67652,406.767,61.052,383.36476,61.052a97.45267,97.45267,0,0,0-13.742.98446C350.27546,64.79582,331.81992,73.78875,314.76968,88.76277Z"/>
          </g>
        </g>
      </g>
    </g>
  </g>
</svg>
