<svg id="Capa_1" data-name="Capa 1" xmlns="http://www.w3.org/2000/svg" xmlns:xlink="http://www.w3.org/1999/xlink" viewBox="0 0 1920 262.47"><defs><style>.cls-1{fill:none;}.cls-2{fill:#9bc6ca;}.cls-3{clip-path:url(#clip-path);}.cls-4{fill:#fff;}.cls-5{fill:#e65300;}.cls-6{fill:#007481;}</style><clipPath id="clip-path"><rect class="cls-1" x="0.25" width="1920" height="262.47"/></clipPath></defs><rect class="cls-2" x="-0.25" width="1920" height="262.47" transform="translate(1919.5 262.47) rotate(180)"/><g class="cls-3"><path class="cls-4" d="M950.63,32.38a1.22,1.22,0,0,1-1.22-1.22v-8a1.23,1.23,0,0,1,2.45,0v8a1.23,1.23,0,0,1-1.23,1.22"/><path class="cls-4" d="M950.63,16.43a1.22,1.22,0,0,1-1.22-1.22v-8a1.23,1.23,0,0,1,2.45,0v8A1.23,1.23,0,0,1,950.63,16.43Z"/><path class="cls-5" d="M933.28,32.66a1.51,1.51,0,0,1-1.51-1.5v-8a1.51,1.51,0,0,1,3,0v8a1.5,1.5,0,0,1-1.51,1.5"/><path class="cls-5" d="M933.28,16.7a1.5,1.5,0,0,1-1.51-1.49v-8a1.51,1.51,0,0,1,3,0v8A1.5,1.5,0,0,1,933.28,16.7Z"/><path class="cls-4" d="M968.6,8.72H914.15V-3.07H968.6Zm-51.44-3h48.42V-.08H917.16Z"/><path class="cls-4" d="M246,42.09H227.63V28.45h-5.08V42.09H204.22V28.45h-5.07V42.09H180.82V27.67a10.74,10.74,0,0,1-9.24-10.53V-31.33h9.54V-43.71h-9.54V-49A10.68,10.68,0,0,1,182.3-59.63h62.18A10.67,10.67,0,0,1,255.19-49v5.29h-9.54v12.38h9.54V17.14A10.73,10.73,0,0,1,246,27.67Zm-15.77-2.54H243.4V25.26l1.25,0a8.19,8.19,0,0,0,8-8.09V-28.8h-9.55V-46.25h9.55V-49a8.14,8.14,0,0,0-8.16-8.1H182.3a8.14,8.14,0,0,0-8.16,8.1v2.75h9.54V-28.8h-9.54V17.14a8.18,8.18,0,0,0,8,8.09l1.25,0V39.55h13.21V25.91h10.19V39.55H220V25.91h10.2Z"/><rect class="cls-4" x="182.1" y="25.23" width="62.58" height="2.54"/><path class="cls-4" d="M1908.41,107.09a1.27,1.27,0,0,1-1.28-1.27V97.48a1.28,1.28,0,0,1,2.56,0v8.34A1.27,1.27,0,0,1,1908.41,107.09Z"/><path class="cls-4" d="M1965,98.75h-18.33V85.12h-5.08V98.75h-18.33V85.12h-5.07V98.75h-18.33V84.33a10.73,10.73,0,0,1-9.24-10.52V25.33h9.54V13h-9.54V7.66A10.69,10.69,0,0,1,1901.3-3h62.18A10.69,10.69,0,0,1,1974.2,7.66V13h-9.55V25.33h9.55V73.81A10.73,10.73,0,0,1,1965,84.33Zm-15.77-2.54h13.21V81.92l1.25,0a8.18,8.18,0,0,0,8-8.09V27.87h-9.55V10.42h9.55V7.66a8.13,8.13,0,0,0-8.16-8.09H1901.3a8.13,8.13,0,0,0-8.16,8.09v2.76h9.54V27.87h-9.54V73.81a8.18,8.18,0,0,0,8,8.09l1.25,0V96.21h13.21V82.58h10.19V96.21H1939V82.58h10.2Z"/><rect class="cls-4" x="1901.1" y="81.9" width="62.58" height="2.54"/><polygon class="cls-6" points="1913.18 45.1 1908.43 49.81 1903.68 45.1 1908.43 40.39 1913.18 45.1"/><path class="cls-4" d="M205.77,295.72a1.27,1.27,0,0,1-1.28-1.27v-8.34a1.28,1.28,0,0,1,2.56,0v8.34A1.28,1.28,0,0,1,205.77,295.72Zm0-16.67a1.28,1.28,0,0,1-1.28-1.28v-8.33a1.28,1.28,0,0,1,2.56,0v8.33A1.28,1.28,0,0,1,205.77,279.05Zm0-16.67a1.28,1.28,0,0,1-1.28-1.28v-8.33a1.28,1.28,0,0,1,2.56,0v8.33A1.29,1.29,0,0,1,205.77,262.38Z"/><path class="cls-4" d="M242.77,295.72a1.28,1.28,0,0,1-1.29-1.27v-8.34a1.29,1.29,0,0,1,2.57,0v8.34A1.28,1.28,0,0,1,242.77,295.72Zm0-16.67a1.28,1.28,0,0,1-1.29-1.28v-8.33a1.29,1.29,0,0,1,2.57,0v8.33A1.28,1.28,0,0,1,242.77,279.05Zm0-16.67a1.29,1.29,0,0,1-1.29-1.28v-8.33a1.29,1.29,0,0,1,2.57,0v8.33A1.29,1.29,0,0,1,242.77,262.38Z"/><polygon class="cls-4" points="213.39 177.8 210.24 177.8 210.24 172.94 201.78 172.94 201.78 177.8 198.63 177.8 198.63 169.82 213.39 169.82 213.39 177.8"/><polygon class="cls-4" points="250.15 177.8 247 177.8 247 172.94 238.54 172.94 238.54 177.8 235.39 177.8 235.39 169.82 250.15 169.82 250.15 177.8"/><polygon class="cls-4" points="213.39 254.33 198.63 254.33 198.63 246.02 201.78 246.02 201.78 251.21 210.24 251.21 210.24 246.02 213.39 246.02 213.39 254.33"/><polygon class="cls-4" points="250.15 254.33 235.39 254.33 235.39 246.02 238.54 246.02 238.54 251.21 247 251.21 247 246.02 250.15 246.02 250.15 254.33"/><path class="cls-5" d="M224.47,247.82a35.75,35.75,0,1,1,36-35.73A35.92,35.92,0,0,1,224.47,247.82Zm0-68.37a32.63,32.63,0,1,0,32.89,32.64A32.8,32.8,0,0,0,224.47,179.45Z"/><path class="cls-4" d="M249.78,247.82H199.17a10.7,10.7,0,0,1-10.73-10.66V187a10.7,10.7,0,0,1,10.73-10.66h50.61A10.7,10.7,0,0,1,260.51,187v50.18A10.7,10.7,0,0,1,249.78,247.82Zm-50.61-68.38a7.57,7.57,0,0,0-7.58,7.54v50.18a7.57,7.57,0,0,0,7.58,7.54h50.61a7.57,7.57,0,0,0,7.58-7.54V187a7.57,7.57,0,0,0-7.58-7.54Z"/><rect class="cls-6" x="243.18" y="209.89" width="9.24" height="2.94"/><rect class="cls-6" x="196.53" y="209.89" width="9.24" height="2.94"/><g id="INSERT"><g id="CIRCLE"><path class="cls-6" d="M229.09,211.36a4.62,4.62,0,0,1-9.23,0"/></g></g><path class="cls-4" d="M88.28,70.45c-39.54,0-71.7-31.9-71.7-71.12s32.16-71.12,71.7-71.12S160-39.89,160-.67,127.81,70.45,88.28,70.45Zm0-139.71c-38.12,0-69.14,30.77-69.14,68.59s31,68.59,69.14,68.59S157.41,37.15,157.41-.67,126.4-69.26,88.28-69.26Z"/><g id="INSERT-2" data-name="INSERT"><g id="CIRCLE-2" data-name="CIRCLE"><path class="cls-6" d="M94.78,5.78a9.08,9.08,0,0,0,0-12.92,9.31,9.31,0,0,0-13,0,9.11,9.11,0,0,0,0,12.92,9.2,9.2,0,0,0,13,0Z"/></g></g><path class="cls-6" d="M61.26-5a6.23,6.23,0,0,0-8.73,0,6.12,6.12,0,0,0,0,8.67,6.19,6.19,0,0,0,8.73,0A6.08,6.08,0,0,0,61.26-5ZM56.9,2.4,53.81-.67,56.9-3.73,60-.67Z"/><path class="cls-6" d="M124-5a6.23,6.23,0,0,0-8.73,0,6.12,6.12,0,0,0,0,8.67,6.19,6.19,0,0,0,8.73,0A6.08,6.08,0,0,0,124-5ZM119.65,2.4,116.56-.67l3.09-3.06,3.09,3.06Z"/><path class="cls-4" d="M111.08,169.05h-1.71a1.27,1.27,0,1,1,0-2.54h1.71a1.27,1.27,0,1,1,0,2.54Zm4-4.31a1.28,1.28,0,0,1-1.28-1.27v-8.34a1.29,1.29,0,0,1,2.57,0v8.34A1.28,1.28,0,0,1,115.13,164.74Zm0-16.67a1.28,1.28,0,0,1-1.28-1.27v-8.34a1.29,1.29,0,0,1,2.57,0v8.34A1.28,1.28,0,0,1,115.13,148.07Zm0-16.67a1.28,1.28,0,0,1-1.28-1.27v-8.34a1.29,1.29,0,0,1,2.57,0v8.34A1.28,1.28,0,0,1,115.13,131.4Z"/><path class="cls-4" d="M102.28,206.17A1.27,1.27,0,0,1,101,204.9v-3.53a1.28,1.28,0,0,1,2.56,0v3.53A1.28,1.28,0,0,1,102.28,206.17Zm0-11.87A1.27,1.27,0,0,1,101,193V184.7a1.28,1.28,0,0,1,2.56,0V193A1.28,1.28,0,0,1,102.28,194.3Zm0-16.67a1.27,1.27,0,0,1-1.28-1.27V168a1.28,1.28,0,0,1,2.56,0v8.34A1.28,1.28,0,0,1,102.28,177.63Z"/><path class="cls-4" d="M61.67,175.62a1.27,1.27,0,0,1-1.28-1.27V166A1.28,1.28,0,1,1,63,166v8.33A1.27,1.27,0,0,1,61.67,175.62Zm0-16.67a1.27,1.27,0,0,1-1.28-1.27v-8.34a1.28,1.28,0,0,1,2.56,0v8.34A1.27,1.27,0,0,1,61.67,159Z"/><path class="cls-4" d="M61.67,207a1.27,1.27,0,0,1-1.28-1.27v-8.33a1.28,1.28,0,0,1,2.56,0v8.33A1.27,1.27,0,0,1,61.67,207Zm0-16.67a1.27,1.27,0,0,1-1.28-1.27v-8.34a1.28,1.28,0,0,1,2.56,0v8.34A1.27,1.27,0,0,1,61.67,190.32Z"/><path class="cls-4" d="M67.18,146.38H65.47a1.28,1.28,0,1,1,0-2.55h.43v-5.37a1.28,1.28,0,0,1,2.56,0v6.65A1.27,1.27,0,0,1,67.18,146.38Zm0-15a1.27,1.27,0,0,1-1.28-1.27v-8.34a1.28,1.28,0,0,1,2.56,0v8.34A1.27,1.27,0,0,1,67.18,131.4Z"/><path class="cls-4" d="M160,123.06H16.58V67.92H160ZM19.14,120.52H157.41V70.45H19.14Z"/><polygon class="cls-6" points="63.16 95.48 56.94 101.65 50.73 95.48 56.94 89.33 63.16 95.48"/><polygon class="cls-6" points="125.83 95.48 119.61 101.65 113.4 95.48 119.61 89.33 125.83 95.48"/><g id="INSERT-3" data-name="INSERT"><g id="CIRCLE-3" data-name="CIRCLE"><path class="cls-6" d="M91.38,95.48a3.11,3.11,0,1,0-3.11,3.08,3.09,3.09,0,0,0,3.11-3.08Z"/></g></g><rect class="cls-4" x="158.92" y="91.13" width="134.55" height="2.54"/><rect class="cls-4" x="637.87" y="-154.55" width="3.15" height="155.59"/><rect class="cls-4" x="637.87" y="100.32" width="3.15" height="133.6"/><rect class="cls-4" x="651.68" y="-154.61" width="3.15" height="155.65"/><rect class="cls-4" x="651.68" y="100.32" width="3.15" height="270.69"/><path class="cls-5" d="M435.85,352.82c-28.76,0-53.41-.1-62.69-.41-18,0-35.16-9.08-45.93-24.29-11.7-16.53-14.29-37.37-7.09-57.17,18.86-33.73,45-33.76,51.74-33.14.87-6.75,5-26.89,23.69-40,22-15.4,46.29-8.82,51.72-7,24.5-21.26,58.61-26.51,87.14-13.34C570.19,194,578.18,231.5,579.31,238c6.72,2.4,48.61,19.26,43.28,64.66-9.14,48.22-55,49.74-55.49,49.75C566,352.41,492.87,352.82,435.85,352.82ZM368.14,240.57c-9.15,0-29.53,3.49-45.28,31.61-6.76,18.66-4.3,38.5,6.83,54.22,10.21,14.42,26.48,23,43.52,23,27.67.93,192.19,0,193.85,0s43.9-1.51,52.56-47.22c5.46-46.5-40.15-61.07-42.1-61.67l-.91-.28-.13-.93c-.24-1.72-6.39-42.14-43.32-59.2-27.7-12.78-60.88-7.51-84.53,13.44l-.68.59-.84-.3c-2.75-1-27.5-9.2-49.81,6.4-19.41,13.58-22.22,35.16-22.59,39.35l-.14,1.66-1.65-.33A27.08,27.08,0,0,0,368.14,240.57Z"/><path class="cls-4" d="M848,1.12h-1.7a1.27,1.27,0,0,1-1.28-1.27,1.27,1.27,0,0,1,1.28-1.27H848a1.27,1.27,0,0,1,1.28,1.27A1.27,1.27,0,0,1,848,1.12Zm4.06-4.31a1.27,1.27,0,0,1-1.28-1.27V-12.8a1.27,1.27,0,0,1,1.28-1.27,1.27,1.27,0,0,1,1.28,1.27v8.34A1.27,1.27,0,0,1,852.1-3.19Zm0-16.68a1.27,1.27,0,0,1-1.28-1.27v-8.33a1.27,1.27,0,0,1,1.28-1.27,1.27,1.27,0,0,1,1.28,1.27v8.33A1.27,1.27,0,0,1,852.1-19.87Zm0-16.67a1.27,1.27,0,0,1-1.28-1.27v-8.33a1.28,1.28,0,0,1,1.28-1.28,1.28,1.28,0,0,1,1.28,1.28v8.33A1.27,1.27,0,0,1,852.1-36.54Z"/><path class="cls-4" d="M774.49,54.81A47.41,47.41,0,0,1,765.9,54a1.27,1.27,0,1,1,.47-2.5,44.92,44.92,0,0,0,8.12.74,1.27,1.27,0,1,1,0,2.54Zm-68.93,0a1.27,1.27,0,1,1,0-2.54c1.39,0,2.76-.07,4.12-.19a1.29,1.29,0,0,1,1.4,1.15,1.27,1.27,0,0,1-1.16,1.38C708.48,54.74,707,54.81,705.56,54.81Zm12.49-1.73a1.29,1.29,0,0,1-1.24-.92,1.27,1.27,0,0,1,.88-1.57,44.19,44.19,0,0,0,7.59-3,1.29,1.29,0,0,1,1.72.57,1.27,1.27,0,0,1-.56,1.71,46.91,46.91,0,0,1-8,3.11A1.48,1.48,0,0,1,718.05,53.08Zm40-1.31a1.25,1.25,0,0,1-.46-.09,46.67,46.67,0,0,1-7.72-3.84,1.26,1.26,0,0,1-.4-1.75,1.28,1.28,0,0,1,1.76-.4,44.19,44.19,0,0,0,7.29,3.62,1.28,1.28,0,0,1,.73,1.65A1.3,1.3,0,0,1,758.07,51.77ZM733,45.64a1.33,1.33,0,0,1-1-.5,1.27,1.27,0,0,1,.24-1.78,44,44,0,0,0,6-5.48,1.1,1.1,0,0,1,.16-.15c-.37-.47-.75-.94-1.11-1.42a1.26,1.26,0,0,1,.26-1.78,1.28,1.28,0,0,1,1.79.26,43.74,43.74,0,0,0,5.47,6,1.26,1.26,0,0,1,.08,1.8,1.29,1.29,0,0,1-1.81.08c-1-.95-2-2-3-3a47.33,47.33,0,0,1-6.28,5.72A1.31,1.31,0,0,1,733,45.64Zm11.2-12.31a1.35,1.35,0,0,1-.67-.18,1.27,1.27,0,0,1-.43-1.75,43,43,0,0,0,3.59-7.26,1.29,1.29,0,0,1,1.66-.74,1.27,1.27,0,0,1,.74,1.64,45.8,45.8,0,0,1-3.8,7.69A1.27,1.27,0,0,1,744.17,33.33Zm-10.29-3.6a1.29,1.29,0,0,1-1.15-.71,46.48,46.48,0,0,1-3.07-8,1.28,1.28,0,0,1,2.47-.68,42.93,42.93,0,0,0,2.9,7.55,1.27,1.27,0,0,1-1.15,1.84Zm16.21-11.89-.23,0a1.27,1.27,0,0,1-1-1.48,43.65,43.65,0,0,0,.64-5.84,9.32,9.32,0,0,0-.19-1.83,1.27,1.27,0,0,1,1-1.5,1.29,1.29,0,0,1,1.51,1,12,12,0,0,1,.25,2.31v.1c0,.05,0,.09,0,.14a45.27,45.27,0,0,1-.68,6.07A1.28,1.28,0,0,1,750.09,17.84Zm-20.67-4.08a1.28,1.28,0,0,1-1.28-1.17c0-.67-.09-1.34-.12-2a11.82,11.82,0,0,1,2.06-6.76,1.29,1.29,0,0,1,1.78-.34,1.28,1.28,0,0,1,.35,1.77,9.27,9.27,0,0,0-1.63,5.27c0,.59.07,1.23.12,1.87a1.27,1.27,0,0,1-1.17,1.37ZM746,2.93a1.27,1.27,0,0,1-.72-.22,9.57,9.57,0,0,0-7-1.42,1.26,1.26,0,0,1-1.5-1,1.27,1.27,0,0,1,1-1.5,12.15,12.15,0,0,1,9,1.81,1.26,1.26,0,0,1,.34,1.77A1.29,1.29,0,0,1,746,2.93Z"/><path class="cls-4" d="M862.61,54.81a1.27,1.27,0,1,1,0-2.54c.68,0,1.35,0,2-.05A1.22,1.22,0,0,1,866,53.44a1.27,1.27,0,0,1-1.22,1.32C864,54.79,863.33,54.81,862.61,54.81ZM873,53.63a1.27,1.27,0,0,1-.3-2.51,44.36,44.36,0,0,0,7.73-2.57,1.28,1.28,0,0,1,1.69.64,1.27,1.27,0,0,1-.65,1.68,46.18,46.18,0,0,1-8.18,2.72A1,1,0,0,1,873,53.63Zm15.27-6.72a1.27,1.27,0,0,1-.73-2.32,43.17,43.17,0,0,0,6.26-5.18,1.28,1.28,0,0,1,1.82,1.79A47.15,47.15,0,0,1,889,46.69,1.27,1.27,0,0,1,888.26,46.91ZM900,35.16a1.27,1.27,0,0,1-.72-.22,1.28,1.28,0,0,1-.34-1.77,43.81,43.81,0,0,0,3.95-7.08,1.28,1.28,0,0,1,2.35,1,45.76,45.76,0,0,1-4.18,7.49A1.27,1.27,0,0,1,900,35.16ZM906.72,20a1.43,1.43,0,0,1-.29,0,1.27,1.27,0,0,1-1-1.53,43.3,43.3,0,0,0,1.06-7.95,1.28,1.28,0,0,1,2.56,0v.07A45.72,45.72,0,0,1,908,19,1.29,1.29,0,0,1,906.72,20Z"/><path class="cls-4" d="M794.67,209.85H794a1.27,1.27,0,0,1-.56-2.42V201a1.29,1.29,0,0,1,2.57,0v7.62A1.28,1.28,0,0,1,794.67,209.85Zm0-16a1.28,1.28,0,0,1-1.28-1.27v-8.33a1.29,1.29,0,0,1,2.57,0v8.33A1.28,1.28,0,0,1,794.67,193.89Zm0-16.67a1.28,1.28,0,0,1-1.28-1.27v-8.33a1.29,1.29,0,0,1,2.57,0V176A1.28,1.28,0,0,1,794.67,177.22Zm0-16.67a1.28,1.28,0,0,1-1.28-1.27v-8.34a1.29,1.29,0,0,1,2.57,0v8.34A1.28,1.28,0,0,1,794.67,160.55Zm0-16.67a1.28,1.28,0,0,1-1.28-1.27v-8.34a1.29,1.29,0,0,1,2.57,0v8.34A1.28,1.28,0,0,1,794.67,143.88Zm0-16.67a1.28,1.28,0,0,1-1.28-1.27V117.6a1.29,1.29,0,0,1,2.57,0v8.34A1.28,1.28,0,0,1,794.67,127.21Zm0-16.67a1.28,1.28,0,0,1-1.28-1.28v-8.33a1.29,1.29,0,0,1,2.57,0v8.33A1.28,1.28,0,0,1,794.67,110.54Zm0-16.68a1.28,1.28,0,0,1-1.28-1.27V84.26a1.29,1.29,0,0,1,2.57,0v8.33A1.28,1.28,0,0,1,794.67,93.86Zm0-16.67a1.28,1.28,0,0,1-1.28-1.27V67.58a1.29,1.29,0,0,1,2.57,0v8.34A1.28,1.28,0,0,1,794.67,77.19Z"/><path class="cls-5" d="M842.63,124.53h-3a1.57,1.57,0,1,1,0-3.13h1.41v-3.8a1.58,1.58,0,0,1,3.15,0V123A1.56,1.56,0,0,1,842.63,124.53Zm0-13.7a1.57,1.57,0,0,1-1.58-1.57v-8.33a1.58,1.58,0,0,1,3.15,0v8.33A1.57,1.57,0,0,1,842.63,110.83Zm0-16.67a1.57,1.57,0,0,1-1.58-1.57V84.26a1.58,1.58,0,0,1,3.15,0v8.33A1.57,1.57,0,0,1,842.63,94.16Zm0-16.68a1.57,1.57,0,0,1-1.58-1.56V67.58a1.58,1.58,0,0,1,3.15,0v8.34A1.56,1.56,0,0,1,842.63,77.48Z"/><path class="cls-4" d="M863.91,68.87H773.4v-29h90.51ZM776,66.3h85.34V42.48H776Z"/><path class="cls-5" d="M864.19,35.55H773.12V8.8A11.9,11.9,0,0,1,785.05-3h67.21A11.9,11.9,0,0,1,864.19,8.8Zm-87.92-3.12H861V8.8A8.76,8.76,0,0,0,852.26.09H785.05a8.76,8.76,0,0,0-8.78,8.71Z"/><path class="cls-5" d="M879.17,42.75h-121V32.43h121ZM761.29,39.63H876V35.55H761.29Z"/><rect class="cls-6" x="789.95" y="51.28" width="9.49" height="3.03"/><rect class="cls-6" x="837.87" y="51.28" width="9.49" height="3.03"/><g id="INSERT-4" data-name="INSERT"><g id="CIRCLE-4" data-name="CIRCLE"><path class="cls-6" d="M813.91,52.8a4.74,4.74,0,0,0,9.48,0"/></g></g><path class="cls-5" d="M728.45,302.29a7.58,7.58,0,0,1-5.4-12.93l4-4a44.83,44.83,0,0,1-11.15-30.09c.24-24.32,20.39-44.37,44.9-44.7a45.34,45.34,0,0,1,32.6,13,44.9,44.9,0,0,1,2.39,61.77l4,4a7.52,7.52,0,0,1-.1,10.81,7.82,7.82,0,0,1-10.85-.24l-4.06-4c-.12-.13-.24-.25-.35-.38a.81.81,0,0,0-1-.21,46.65,46.65,0,0,1-44,0,.82.82,0,0,0-1,.21l-.36.38-4.2,4.16A7.58,7.58,0,0,1,728.45,302.29Zm.86-14.72-4,4a4.45,4.45,0,0,0,0,6.31,4.62,4.62,0,0,0,6.35,0l4.43-4.4a4,4,0,0,1,4.91-.88,43.42,43.42,0,0,0,40.92,0,4,4,0,0,1,4.93.89l.21.23,4.06,4a4.63,4.63,0,0,0,6.43.2,4.42,4.42,0,0,0,.06-6.36l-4.2-4.17a2.79,2.79,0,0,1-.14-3.85,41.78,41.78,0,0,0-2-57.71,42.24,42.24,0,0,0-29.76-12.12h-.59c-22.81.3-41.56,19-41.79,41.6a41.71,41.71,0,0,0,10.59,28.24,2.78,2.78,0,0,1-.16,3.82Z"/><path class="cls-6" d="M740.18,262.29a5.53,5.53,0,1,0,0,7.81A5.53,5.53,0,0,0,740.18,262.29Zm-3.9,6.67-2.77-2.76,2.77-2.77,2.77,2.77Z"/><path class="cls-6" d="M790.5,262.29a5.53,5.53,0,1,0,0,7.81A5.54,5.54,0,0,0,790.5,262.29ZM786.59,269l-2.77-2.76,2.77-2.77,2.77,2.77Z"/><path class="cls-4" d="M892.69,177.82c-10.9,0-20.24,0-23.76-.16h0a22.38,22.38,0,0,1-18.13-9.6A24.13,24.13,0,0,1,848,145.55c6.86-12.28,16-13.36,19.65-13.24a22.75,22.75,0,0,1,9.24-14.88c8.11-5.67,17-3.8,19.89-3a31.69,31.69,0,0,1,33.59-4.84c13.26,6.12,16.69,19.24,17.43,23.08,3.86,1.51,18.46,8.37,16.48,25.28-3.62,19.07-21.76,19.66-21.94,19.67C941.9,177.66,914.26,177.82,892.69,177.82Zm-25.6-42.45c-3.21,0-10.57,1.22-16.29,11.45a21.08,21.08,0,0,0,2.53,19.48A19.31,19.31,0,0,0,869,174.59c10.47.35,72.68,0,73.31,0s15.8-.59,18.92-17.06c2-16.7-14.55-22-15.25-22.22L945,135l-.14-1c-.09-.63-2.35-15.42-15.83-21.64a28.6,28.6,0,0,0-30.9,4.92l-.69.61-.87-.31c-1-.35-9.92-3.31-17.94,2.3a20.1,20.1,0,0,0-8.14,14.18l-.15,1.71-1.69-.34A9,9,0,0,0,867.09,135.37Z"/><path class="cls-6" d="M909.67,151.16a3.85,3.85,0,0,1-7.7,0Z"/><ellipse class="cls-6" cx="923.98" cy="151.16" rx="2.4" ry="2.38"/><ellipse class="cls-6" cx="886.3" cy="151.16" rx="2.4" ry="2.38"/><path class="cls-4" d="M874.36,261.7a47.33,47.33,0,0,1-8.59-.79,1.27,1.27,0,1,1,.47-2.5,44,44,0,0,0,8.12.75,1.27,1.27,0,1,1,0,2.54Zm-68.93,0a1.27,1.27,0,1,1,0-2.54c1.39,0,2.77-.07,4.13-.19a1.27,1.27,0,0,1,1.39,1.14,1.28,1.28,0,0,1-1.16,1.39C808.35,261.63,806.88,261.7,805.43,261.7ZM817.92,260a1.27,1.27,0,0,1-.35-2.49,44,44,0,0,0,7.59-2.94,1.27,1.27,0,1,1,1.15,2.27,46.1,46.1,0,0,1-8,3.11A1.1,1.1,0,0,1,817.92,260Zm40-1.31a1.25,1.25,0,0,1-.46-.09,46.23,46.23,0,0,1-7.72-3.83,1.27,1.27,0,0,1-.4-1.75,1.29,1.29,0,0,1,1.77-.41,43.36,43.36,0,0,0,7.28,3.63,1.27,1.27,0,0,1,.73,1.64A1.3,1.3,0,0,1,857.94,258.65Zm-25.1-6.13a1.27,1.27,0,0,1-.77-2.28,43.87,43.87,0,0,0,6-5.48l.17-.15c-.39-.46-.76-.93-1.12-1.41a1.27,1.27,0,0,1,.26-1.78,1.29,1.29,0,0,1,1.79.25,43.82,43.82,0,0,0,5.47,6,1.26,1.26,0,0,1,.08,1.8,1.28,1.28,0,0,1-1.81.07c-1-.95-2-1.95-3-3a46.65,46.65,0,0,1-6.28,5.72A1.24,1.24,0,0,1,832.84,252.52Zm11.2-12.3a1.28,1.28,0,0,1-1.09-1.94,43,43,0,0,0,3.59-7.26,1.28,1.28,0,0,1,1.65-.73,1.26,1.26,0,0,1,.74,1.64,46.43,46.43,0,0,1-3.79,7.68A1.31,1.31,0,0,1,844,240.22Zm-10.29-3.61a1.29,1.29,0,0,1-1.15-.71,45.86,45.86,0,0,1-3.07-8,1.28,1.28,0,0,1,2.47-.67,43.73,43.73,0,0,0,2.9,7.55,1.26,1.26,0,0,1-.58,1.7A1.28,1.28,0,0,1,833.75,236.61ZM850,224.72h-.23a1.28,1.28,0,0,1-1-1.48,42.38,42.38,0,0,0,.64-5.85,9.29,9.29,0,0,0-.19-1.82,1.28,1.28,0,0,1,2.51-.5,11.92,11.92,0,0,1,.25,2.31v0h0v.06s0,.09,0,.13a47.5,47.5,0,0,1-.67,6.08A1.28,1.28,0,0,1,850,224.72Zm-20.68-4.08a1.27,1.27,0,0,1-1.27-1.16c-.06-.67-.1-1.35-.13-2A11.89,11.89,0,0,1,830,210.7a1.29,1.29,0,0,1,1.78-.34,1.26,1.26,0,0,1,.35,1.76,9.3,9.3,0,0,0-1.63,5.28c0,.59.07,1.23.12,1.87a1.28,1.28,0,0,1-1.17,1.37Zm16.57-10.83a1.34,1.34,0,0,1-.72-.21,9.3,9.3,0,0,0-5.24-1.6c-.47.06-1.22.06-1.81.17a1.27,1.27,0,1,1-.5-2.49,11.69,11.69,0,0,1,2.29-.22h0a11.88,11.88,0,0,1,6.67,2,1.27,1.27,0,0,1-.72,2.32Z"/><path class="cls-4" d="M718.29,261.69a1.36,1.36,0,0,1-1.38-1.28,1.2,1.2,0,0,1,1.18-1.27h.1a1.32,1.32,0,0,1,1.33,1.27A1.23,1.23,0,0,1,718.29,261.69Zm-65-.15a1.27,1.27,0,0,1-.1-2.54,44.61,44.61,0,0,0,8-1.43,1.28,1.28,0,0,1,1.57.89,1.26,1.26,0,0,1-.89,1.56,47,47,0,0,1-8.5,1.51Zm56.5-.64-.24,0a47,47,0,0,1-8.29-2.39,1.27,1.27,0,1,1,.94-2.36,44.34,44.34,0,0,0,7.83,2.25,1.26,1.26,0,0,1,1,1.48A1.27,1.27,0,0,1,709.75,260.9Zm-40.4-3.8a1.3,1.3,0,0,1-1.15-.7,1.27,1.27,0,0,1,.59-1.71,44.37,44.37,0,0,0,6.94-4.23,1.3,1.3,0,0,1,1.8.25,1.27,1.27,0,0,1-.26,1.78,46.41,46.41,0,0,1-7.35,4.48A1.25,1.25,0,0,1,669.35,257.1Zm24.86-2.29a1.31,1.31,0,0,1-.69-.19,46.22,46.22,0,0,1-6.83-5.22,1.27,1.27,0,0,1-.07-1.8,1.29,1.29,0,0,1,1.81-.06,44.29,44.29,0,0,0,6.46,4.93,1.26,1.26,0,0,1,.4,1.75A1.28,1.28,0,0,1,694.21,254.81Zm-11.49-7.66a1.31,1.31,0,0,1-.87-.33,1.27,1.27,0,0,1-.07-1.8l.38-.42a45.81,45.81,0,0,1-3.35-4.67,1.25,1.25,0,0,1,.41-1.75,1.28,1.28,0,0,1,1.76.4,43.24,43.24,0,0,0,3.84,5.22,1.26,1.26,0,0,1,0,1.65c-.38.44-.76.87-1.16,1.29A1.24,1.24,0,0,1,682.72,247.15Zm3-3.61a1.28,1.28,0,0,1-.76-.25,1.26,1.26,0,0,1-.26-1.78,43.58,43.58,0,0,0,4.22-6.91,1.29,1.29,0,0,1,1.71-.59,1.27,1.27,0,0,1,.6,1.7,45.69,45.69,0,0,1-4.48,7.32A1.3,1.3,0,0,1,685.73,243.54Zm-9.59-10.45a1.3,1.3,0,0,1-1.2-.81,46.66,46.66,0,0,1-2.36-8.23,1.28,1.28,0,0,1,2.52-.47,42.41,42.41,0,0,0,2.24,7.77,1.28,1.28,0,0,1-.74,1.65A1.25,1.25,0,0,1,676.14,233.09ZM693,228.63a1.3,1.3,0,0,1-1.24-1.6,44,44,0,0,0,1.39-8,1.28,1.28,0,0,1,2.55.2,47.32,47.32,0,0,1-1.46,8.44A1.29,1.29,0,0,1,693,228.63ZM673.28,216.8a.82.82,0,0,1-.22,0,1.26,1.26,0,0,1-1-1.47,12,12,0,0,1,4.91-7.68,1.3,1.3,0,0,1,1.79.3,1.27,1.27,0,0,1-.31,1.78,8.83,8.83,0,0,0-1.24,1,9.33,9.33,0,0,0-2.63,5A1.28,1.28,0,0,1,673.28,216.8Zm19.28-4.3a1.28,1.28,0,0,1-1-.54,9.34,9.34,0,0,0-6.08-3.84,1.27,1.27,0,1,1,.44-2.51,11.88,11.88,0,0,1,7.73,4.89,1.26,1.26,0,0,1-.31,1.77A1.31,1.31,0,0,1,692.56,212.5Z"/><path class="cls-4" d="M404.89,54.81a1.32,1.32,0,0,1-1.33-1.27,1.28,1.28,0,0,1,1.28-1.27h0c1.32-.05,2.77-.06,4.13-.19a1.27,1.27,0,1,1,.24,2.53C407.78,54.74,406.32,54.81,404.89,54.81Zm68.88,0a47.3,47.3,0,0,1-8.58-.78,1.27,1.27,0,1,1,.46-2.5,45.09,45.09,0,0,0,8.12.74,1.27,1.27,0,1,1,0,2.54Zm-56.44-1.73a1.27,1.27,0,0,1-.35-2.49,44.84,44.84,0,0,0,7.59-3,1.29,1.29,0,0,1,1.72.57,1.27,1.27,0,0,1-.57,1.71,46.91,46.91,0,0,1-8,3.11A1.34,1.34,0,0,1,417.33,53.08Zm40-1.31a1.25,1.25,0,0,1-.46-.09,46.67,46.67,0,0,1-7.72-3.84,1.28,1.28,0,0,1-.4-1.76,1.3,1.3,0,0,1,1.77-.4,43,43,0,0,0,7.28,3.63,1.27,1.27,0,0,1,.73,1.65A1.3,1.3,0,0,1,457.35,51.77Zm-25.09-6.13a1.31,1.31,0,0,1-1-.5,1.26,1.26,0,0,1,.24-1.78,44.55,44.55,0,0,0,6-5.48.75.75,0,0,1,.16-.15c-.38-.47-.75-.94-1.11-1.42a1.26,1.26,0,0,1,.25-1.78,1.3,1.3,0,0,1,1.8.25,43.19,43.19,0,0,0,5.47,6,1.27,1.27,0,0,1,.07,1.8,1.29,1.29,0,0,1-1.81.08q-1.56-1.44-3-3A47.88,47.88,0,0,1,433,45.38,1.35,1.35,0,0,1,432.26,45.64Zm11.19-12.31a1.22,1.22,0,0,1-.66-.18,1.26,1.26,0,0,1-.43-1.75A43.74,43.74,0,0,0,446,24.14a1.3,1.3,0,0,1,1.65-.74,1.27,1.27,0,0,1,.75,1.64,46.57,46.57,0,0,1-3.8,7.69A1.28,1.28,0,0,1,443.45,33.33Zm-10.29-3.6A1.3,1.3,0,0,1,432,29a46.07,46.07,0,0,1-3.07-8,1.29,1.29,0,0,1,2.48-.68,42.89,42.89,0,0,0,2.89,7.55,1.26,1.26,0,0,1-.58,1.7A1.3,1.3,0,0,1,433.16,29.73Zm16.22-11.89-.23,0a1.26,1.26,0,0,1-1-1.47,44,44,0,0,0,.64-5.85,10.24,10.24,0,0,0-.19-1.83,1.28,1.28,0,0,1,2.51-.5,12.84,12.84,0,0,1,.24,2.31v.1a.66.66,0,0,1,0,.14,45.26,45.26,0,0,1-.67,6.07A1.28,1.28,0,0,1,449.38,17.84Zm-20.67-4.08a1.28,1.28,0,0,1-1.28-1.17c-.06-.67-.1-1.35-.13-2a11.9,11.9,0,0,1,2.07-6.75,1.29,1.29,0,0,1,1.78-.34,1.26,1.26,0,0,1,.34,1.77,9.31,9.31,0,0,0-1.62,5.27c0,.59.06,1.23.11,1.87a1.27,1.27,0,0,1-1.17,1.37ZM445.28,2.93a1.27,1.27,0,0,1-.72-.22,9.6,9.6,0,0,0-7.05-1.42,1.28,1.28,0,0,1-1.51-1,1.28,1.28,0,0,1,1-1.49,12.06,12.06,0,0,1,9,1.82,1.25,1.25,0,0,1,.34,1.76A1.29,1.29,0,0,1,445.28,2.93Z"/><path class="cls-5" d="M277.54,55.1a47.07,47.07,0,0,1-8.64-.79,1.56,1.56,0,1,1,.58-3.07,44.27,44.27,0,0,0,8.06.74,1.56,1.56,0,1,1,0,3.12Zm-16.42-3a1.65,1.65,0,0,1-.57-.11,46.38,46.38,0,0,1-7.76-3.86,1.57,1.57,0,1,1,1.67-2.65,44.7,44.7,0,0,0,7.23,3.6,1.55,1.55,0,0,1,.9,2A1.58,1.58,0,0,1,261.12,52.06Z"/><path class="cls-5" d="M891.05,318.81a7.1,7.1,0,0,1-3.86-1.15,7,7,0,0,1-2-9.69l2.74-4.12a40.43,40.43,0,0,1-16.06-32.67,41.3,41.3,0,0,1,69.62-29.4,40.7,40.7,0,0,1-3.21,62.07L941,308a7,7,0,0,1-2,9.69,7.09,7.09,0,0,1-9.76-2l-3-4.44a1.31,1.31,0,0,0-1.49-.54,41.87,41.87,0,0,1-23.56-.05,1.21,1.21,0,0,0-1.31.56l-3,4.47A7.1,7.1,0,0,1,891.05,318.81Zm-.38-13.43-2.86,4.31a3.85,3.85,0,0,0,1.11,5.36,3.93,3.93,0,0,0,5.4-1.1l3-4.5a4.31,4.31,0,0,1,4.82-1.8,38.85,38.85,0,0,0,21.77.05,4.47,4.47,0,0,1,5,1.8l3,4.45a3.93,3.93,0,0,0,5.4,1.1,3.85,3.85,0,0,0,1.1-5.36l-3-4.44a2.7,2.7,0,0,1,.64-3.65A37.6,37.6,0,0,0,939.31,244,38.15,38.15,0,0,0,875,271.2a37.41,37.41,0,0,0,15.17,30.44,2.67,2.67,0,0,1,.59,3.6Z"/><path class="cls-4" d="M616.32,190.54h-2.75a1.27,1.27,0,1,1,0-2.54H615v-4.33a1.28,1.28,0,0,1,2.56,0v5.6A1.27,1.27,0,0,1,616.32,190.54Zm0-13.94a1.27,1.27,0,0,1-1.28-1.27V167a1.28,1.28,0,0,1,2.56,0v8.33A1.27,1.27,0,0,1,616.32,176.6Zm0-16.67a1.27,1.27,0,0,1-1.28-1.27v-8.34a1.28,1.28,0,0,1,2.56,0v8.34A1.27,1.27,0,0,1,616.32,159.93Zm0-16.67A1.27,1.27,0,0,1,615,142v-8.34a1.28,1.28,0,0,1,2.56,0V142A1.27,1.27,0,0,1,616.32,143.26Zm0-16.67a1.27,1.27,0,0,1-1.28-1.27V117a1.28,1.28,0,0,1,2.56,0v8.34A1.27,1.27,0,0,1,616.32,126.59Zm0-16.68a1.27,1.27,0,0,1-1.28-1.27v-8.33a1.28,1.28,0,0,1,2.56,0v8.33A1.27,1.27,0,0,1,616.32,109.91Z"/><path class="cls-4" d="M564.66,197.93h-2a1.27,1.27,0,1,1,0-2.54h2a1.27,1.27,0,1,1,0,2.54Zm3.71-4.66a1.28,1.28,0,0,1-1.29-1.27v-8.33a1.29,1.29,0,0,1,2.57,0V192A1.27,1.27,0,0,1,568.37,193.27Zm0-16.67a1.28,1.28,0,0,1-1.29-1.27V167a1.29,1.29,0,0,1,2.57,0v8.33A1.28,1.28,0,0,1,568.37,176.6Zm0-16.67a1.28,1.28,0,0,1-1.29-1.27v-8.34a1.29,1.29,0,0,1,2.57,0v8.34A1.28,1.28,0,0,1,568.37,159.93Zm0-16.67a1.28,1.28,0,0,1-1.29-1.27v-8.34a1.29,1.29,0,0,1,2.57,0V142A1.28,1.28,0,0,1,568.37,143.26Zm0-16.67a1.28,1.28,0,0,1-1.29-1.27V117a1.29,1.29,0,0,1,2.57,0v8.34A1.28,1.28,0,0,1,568.37,126.59Zm0-16.68a1.28,1.28,0,0,1-1.29-1.27v-8.33a1.29,1.29,0,0,1,2.57,0v8.33A1.27,1.27,0,0,1,568.37,109.91Z"/><path class="cls-4" d="M695.87,101.58H483.06a10.94,10.94,0,0,1-11-10.88v-80a10.94,10.94,0,0,1,11-10.88H695.87a10.94,10.94,0,0,1,11,10.88v80A10.94,10.94,0,0,1,695.87,101.58ZM483.06,2.32a8.38,8.38,0,0,0-8.41,8.34v80A8.38,8.38,0,0,0,483.06,99H695.87a8.38,8.38,0,0,0,8.41-8.34v-80a8.38,8.38,0,0,0-8.41-8.34Z"/><path class="cls-5" d="M511.33,56H491.12V28.58h20.21Zm-17.65-2.54h15.09V31.12H493.68Z"/><path class="cls-5" d="M511.33,80.94H491.12V53.49h20.21ZM493.68,78.4h15.09V56H493.68Z"/><path class="cls-5" d="M529,56H508.77V28.58H529Zm-17.65-2.54h15.09V31.12H511.33Z"/><path class="cls-5" d="M529,80.94H508.77V53.49H529ZM511.33,78.4h15.09V56H511.33Z"/><path class="cls-5" d="M546.62,56h-20.2V28.58h20.2ZM529,53.49h15.08V31.12H529Z"/><path class="cls-5" d="M546.62,80.94h-20.2V53.49h20.2ZM529,78.4h15.08V56H529Z"/><path class="cls-5" d="M564.27,56H544.06V28.58h20.21Zm-17.65-2.54h15.09V31.12H546.62Z"/><path class="cls-5" d="M564.27,80.94H544.06V53.49h20.21ZM546.62,78.4h15.09V56H546.62Z"/><path class="cls-5" d="M581.92,56H561.71V28.58h20.21Zm-17.65-2.54h15.09V31.12H564.27Z"/><path class="cls-5" d="M581.92,80.94H561.71V53.49h20.21ZM564.27,78.4h15.09V56H564.27Z"/><path class="cls-5" d="M599.57,56H579.36V28.58h20.21Zm-17.65-2.54H597V31.12H581.92Z"/><path class="cls-5" d="M599.57,80.94H579.36V53.49h20.21ZM581.92,78.4H597V56H581.92Z"/><path class="cls-5" d="M617.22,56H597V28.58h20.21Zm-17.65-2.54h15.09V31.12H599.57Z"/><path class="cls-5" d="M617.22,80.94H597V53.49h20.21ZM599.57,78.4h15.09V56H599.57Z"/><path class="cls-5" d="M634.86,56h-20.2V28.58h20.2Zm-17.64-2.54H632.3V31.12H617.22Z"/><path class="cls-5" d="M634.86,80.94h-20.2V53.49h20.2ZM617.22,78.4H632.3V56H617.22Z"/><path class="cls-5" d="M652.51,56H632.3V28.58h20.21Zm-17.65-2.54H650V31.12H634.86Z"/><path class="cls-5" d="M652.51,80.94H632.3V53.49h20.21ZM634.86,78.4H650V56H634.86Z"/><path class="cls-5" d="M670.16,56H650V28.58h20.21Zm-17.65-2.54H667.6V31.12H652.51Z"/><path class="cls-5" d="M670.16,80.94H650V53.49h20.21ZM652.51,78.4H667.6V56H652.51Z"/><path class="cls-5" d="M687.81,56H667.6V28.58h20.21Zm-17.65-2.54h15.09V31.12H670.16Z"/><path class="cls-5" d="M687.81,80.94H667.6V53.49h20.21ZM670.16,78.4h15.09V56H670.16Z"/><g id="INSERT-5" data-name="INSERT"><g id="CIRCLE-5" data-name="CIRCLE"><path class="cls-6" d="M591.14,17a2.37,2.37,0,1,0-3.36,0,2.37,2.37,0,0,0,3.36,0Z"/></g></g><path class="cls-6" d="M571.23,12a4.73,4.73,0,1,0,0,6.69A4.72,4.72,0,0,0,571.23,12Zm-3.34,5.71-2.38-2.37,2.38-2.37,2.37,2.37Z"/><path class="cls-6" d="M614.4,12a4.74,4.74,0,1,0,0,6.69A4.74,4.74,0,0,0,614.4,12ZM611,17.68l-2.37-2.37L611,12.94l2.38,2.37Z"/><rect class="cls-4" x="298.63" y="107.19" width="2.64" height="49.73"/><rect class="cls-4" x="291.34" y="107.19" width="3.13" height="49.73"/><path class="cls-4" d="M225.76,172.87h0a1.27,1.27,0,0,1-1.25-1.27v-.06a43.16,43.16,0,0,1,1.19-8.41,1.28,1.28,0,0,1,2.49.6,40.53,40.53,0,0,0-1.12,7.92A1.27,1.27,0,0,1,225.76,172.87Zm3.94-16a1.32,1.32,0,0,1-.54-.12,1.27,1.27,0,0,1-.62-1.69,44.16,44.16,0,0,1,4.44-7.36,1.3,1.3,0,0,1,1.8-.26,1.28,1.28,0,0,1,.26,1.78,40.38,40.38,0,0,0-4.17,6.92A1.29,1.29,0,0,1,229.7,156.85Zm10-13.29a1.27,1.27,0,0,1-.85-2.21,42.72,42.72,0,0,1,7-5.07,1.29,1.29,0,0,1,1.76.44,1.27,1.27,0,0,1-.46,1.74,41.45,41.45,0,0,0-6.55,4.78A1.31,1.31,0,0,1,239.66,143.56ZM254,135.15a1.27,1.27,0,0,1-1.21-.86,1.25,1.25,0,0,1,.79-1.61,43.22,43.22,0,0,1,8.41-2,1.31,1.31,0,0,1,1.44,1.1,1.27,1.27,0,0,1-1.11,1.42,40.89,40.89,0,0,0-7.9,1.86A1.28,1.28,0,0,1,254,135.15Z"/><path class="cls-4" d="M486.81,172.87a1.26,1.26,0,0,1-1.28-1.22,40.53,40.53,0,0,0-1.12-7.92,1.28,1.28,0,0,1,2.49-.6,42.39,42.39,0,0,1,1.18,8.27.61.61,0,0,1,0,.14v.06a1.28,1.28,0,0,1-1.26,1.27Zm-3.95-16a1.29,1.29,0,0,1-1.16-.73,41,41,0,0,0-4.17-6.92,1.26,1.26,0,0,1,.26-1.78,1.28,1.28,0,0,1,1.79.26A42.85,42.85,0,0,1,484,155a1.26,1.26,0,0,1-.61,1.69A1.37,1.37,0,0,1,482.86,156.85Zm-10-13.29a1.3,1.3,0,0,1-.85-.32,41.07,41.07,0,0,0-6.56-4.78,1.26,1.26,0,0,1-.45-1.74,1.29,1.29,0,0,1,1.76-.44,43.15,43.15,0,0,1,7,5.07,1.26,1.26,0,0,1,.1,1.79A1.31,1.31,0,0,1,472.9,143.56Zm-14.37-8.41a1.23,1.23,0,0,1-.42-.07,41.17,41.17,0,0,0-7.91-1.86,1.27,1.27,0,0,1-1.1-1.42,1.31,1.31,0,0,1,1.44-1.1,43.22,43.22,0,0,1,8.41,2,1.26,1.26,0,0,1,.79,1.61A1.28,1.28,0,0,1,458.53,135.15Z"/><path class="cls-5" d="M419.67,158.33H292.91a26.21,26.21,0,1,1,0-52.41H419.67a26.21,26.21,0,1,1,0,52.41ZM292.91,108.46a23.67,23.67,0,1,0,0,47.33H419.67a23.67,23.67,0,1,0,0-47.33Z"/><path class="cls-6" d="M335.52,137.38a4.77,4.77,0,0,0-6.71,0,4.68,4.68,0,0,0,0,6.65,4.75,4.75,0,0,0,6.71,0A4.66,4.66,0,0,0,335.52,137.38Zm-3.35,5.69-2.38-2.36,2.38-2.35,2.37,2.35Z"/><path class="cls-6" d="M383.75,137.38a4.77,4.77,0,0,0-6.71,0,4.68,4.68,0,0,0,0,6.65,4.75,4.75,0,0,0,6.71,0A4.65,4.65,0,0,0,383.75,137.38Zm-3.35,5.69L378,140.71l2.37-2.35,2.38,2.35Z"/><g id="INSERT-6" data-name="INSERT"><g id="CIRCLE-6" data-name="CIRCLE"><path class="cls-6" d="M351.55,140.72a4.74,4.74,0,0,0,9.48,0"/></g></g><rect class="cls-6" x="303.26" y="38.09" width="12.47" height="3.98"/><rect class="cls-6" x="366.23" y="38.09" width="12.47" height="3.98"/><g id="INSERT-7" data-name="INSERT"><g id="CIRCLE-7" data-name="CIRCLE"><path class="cls-6" d="M334.74,40.09a6.23,6.23,0,0,0,12.46,0"/></g></g><path class="cls-4" d="M394.74,93.53H287.22a10.94,10.94,0,0,1-11-10.88V-85.86A10.78,10.78,0,0,1,282-95.42l1.2,2.25a8.24,8.24,0,0,0-4.42,7.31V82.65A8.39,8.39,0,0,0,287.22,91H394.74a8.38,8.38,0,0,0,8.41-8.34V-85.86a8.23,8.23,0,0,0-4.41-7.31l1.19-2.25a10.78,10.78,0,0,1,5.78,9.56V82.65A10.94,10.94,0,0,1,394.74,93.53Z"/><path class="cls-5" d="M341,6a14,14,0,0,1-14-13.43l-6-77H292.41a11.11,11.11,0,0,1-11.14-11.06,10.93,10.93,0,0,1,3.26-7.82,11.1,11.1,0,0,1,7.88-3.24h28.52l6-77A14,14,0,0,1,341-197a14,14,0,0,1,9.76,3.91,13.78,13.78,0,0,1,4.29,9.52l6,77h28.58a11.11,11.11,0,0,1,11.14,11.06,10.92,10.92,0,0,1-3.27,7.82,11.06,11.06,0,0,1-7.87,3.24H361L355-7.37a13.74,13.74,0,0,1-4.28,9.47A14,14,0,0,1,341,6ZM292.41-104a8.56,8.56,0,0,0-6.07,2.5,8.42,8.42,0,0,0-2.51,6A8.56,8.56,0,0,0,292.41-87H323.3l6.17,79.39A11.43,11.43,0,0,0,341,3.47a11.49,11.49,0,0,0,8-3.2,11.31,11.31,0,0,0,3.51-7.79L358.62-87h30.95a8.51,8.51,0,0,0,6.06-2.49,8.45,8.45,0,0,0,2.52-6,8.56,8.56,0,0,0-8.58-8.52H358.62l-6.17-79.39a11.29,11.29,0,0,0-3.51-7.83,11.43,11.43,0,0,0-8-3.2,11.42,11.42,0,0,0-11.49,11L323.3-104Z"/><path class="cls-4" d="M713.28,85.93h-1.57a1.27,1.27,0,1,1,0-2.54h1.57a1.27,1.27,0,1,1,0,2.54Zm4.19-4.18a1.28,1.28,0,0,1-1.29-1.27V72.14a1.29,1.29,0,0,1,2.57,0v8.34A1.28,1.28,0,0,1,717.47,81.75Zm0-16.67a1.28,1.28,0,0,1-1.29-1.27V55.47a1.29,1.29,0,0,1,2.57,0v8.34A1.28,1.28,0,0,1,717.47,65.08Zm0-16.67a1.28,1.28,0,0,1-1.29-1.27V38.8a1.29,1.29,0,0,1,2.57,0v8.34A1.28,1.28,0,0,1,717.47,48.41Zm0-16.67a1.28,1.28,0,0,1-1.29-1.27V22.13a1.29,1.29,0,0,1,2.57,0v8.34A1.28,1.28,0,0,1,717.47,31.74Zm0-16.67a1.28,1.28,0,0,1-1.29-1.28V5.46a1.29,1.29,0,0,1,2.57,0v8.33A1.28,1.28,0,0,1,717.47,15.07Zm0-16.68a1.28,1.28,0,0,1-1.29-1.27v-8.33a1.28,1.28,0,0,1,1.29-1.27,1.27,1.27,0,0,1,1.28,1.27v8.33A1.28,1.28,0,0,1,717.47-1.61Zm0-16.67a1.28,1.28,0,0,1-1.29-1.27v-8.34a1.28,1.28,0,0,1,1.29-1.27,1.28,1.28,0,0,1,1.28,1.27v8.34A1.28,1.28,0,0,1,717.47-18.28Z"/><path class="cls-6" d="M47.1,241.14l-5.79,5.74,5.79,5.74,5.79-5.74Zm-2.85,5.74L47.14,244l2.9,2.87-2.9,2.87Z"/><path class="cls-6" d="M94.66,241.14l-5.79,5.74,5.79,5.74,5.79-5.74Zm-2.85,5.74,2.9-2.87,2.89,2.87-2.89,2.87Z"/><g id="INSERT-8" data-name="INSERT"><g id="CIRCLE-8" data-name="CIRCLE"><path class="cls-6" d="M65.1,245.44a5.78,5.78,0,0,0,11.56,0"/></g></g><path class="cls-5" d="M36.2,221.53a6.12,6.12,0,1,1,6.17-6.12A6.16,6.16,0,0,1,36.2,221.53Zm0-9.12a3,3,0,1,0,3,3A3,3,0,0,0,36.2,212.41Z"/><path class="cls-5" d="M105.57,221.53a6.12,6.12,0,1,1,6.17-6.12A6.15,6.15,0,0,1,105.57,221.53Zm0-9.12a3,3,0,1,0,3,3A3,3,0,0,0,105.57,212.41Z"/><path class="cls-5" d="M108.14,422.05H33.63a9.36,9.36,0,0,1-9.38-9.31V213a9.36,9.36,0,0,1,9.38-9.31h74.51a9.36,9.36,0,0,1,9.38,9.31V412.74A9.36,9.36,0,0,1,108.14,422.05ZM33.63,206.78A6.22,6.22,0,0,0,27.4,213V412.74a6.21,6.21,0,0,0,6.23,6.18h74.51a6.21,6.21,0,0,0,6.23-6.18V213a6.22,6.22,0,0,0-6.23-6.19Z"/><path class="cls-4" d="M1169.65,295.72a1.27,1.27,0,0,1-1.28-1.27v-8.34a1.28,1.28,0,0,1,2.56,0v8.34A1.28,1.28,0,0,1,1169.65,295.72Zm0-16.67a1.28,1.28,0,0,1-1.28-1.28v-8.33a1.28,1.28,0,0,1,2.56,0v8.33A1.28,1.28,0,0,1,1169.65,279.05Zm0-16.67a1.28,1.28,0,0,1-1.28-1.28v-8.33a1.28,1.28,0,1,1,2.56,0v8.33A1.29,1.29,0,0,1,1169.65,262.38Z"/><path class="cls-4" d="M1206.65,295.72a1.28,1.28,0,0,1-1.29-1.27v-8.34a1.29,1.29,0,0,1,2.57,0v8.34A1.28,1.28,0,0,1,1206.65,295.72Zm0-16.67a1.28,1.28,0,0,1-1.29-1.28v-8.33a1.29,1.29,0,0,1,2.57,0v8.33A1.28,1.28,0,0,1,1206.65,279.05Zm0-16.67a1.29,1.29,0,0,1-1.29-1.28v-8.33a1.29,1.29,0,0,1,2.57,0v8.33A1.29,1.29,0,0,1,1206.65,262.38Z"/><polygon class="cls-4" points="1177.27 177.8 1174.12 177.8 1174.12 172.94 1165.66 172.94 1165.66 177.8 1162.51 177.8 1162.51 169.82 1177.27 169.82 1177.27 177.8"/><polygon class="cls-4" points="1214.03 177.8 1210.88 177.8 1210.88 172.94 1202.42 172.94 1202.42 177.8 1199.27 177.8 1199.27 169.82 1214.03 169.82 1214.03 177.8"/><polygon class="cls-4" points="1177.27 254.33 1162.51 254.33 1162.51 246.02 1165.66 246.02 1165.66 251.21 1174.12 251.21 1174.12 246.02 1177.27 246.02 1177.27 254.33"/><polygon class="cls-4" points="1214.03 254.33 1199.27 254.33 1199.27 246.02 1202.42 246.02 1202.42 251.21 1210.88 251.21 1210.88 246.02 1214.03 246.02 1214.03 254.33"/><path class="cls-5" d="M1188.35,247.82a35.75,35.75,0,1,1,36-35.73A35.92,35.92,0,0,1,1188.35,247.82Zm0-68.37a32.63,32.63,0,1,0,32.9,32.64A32.8,32.8,0,0,0,1188.35,179.45Z"/><path class="cls-4" d="M1213.66,247.82h-50.61a10.7,10.7,0,0,1-10.73-10.66V187a10.7,10.7,0,0,1,10.73-10.66h50.61A10.7,10.7,0,0,1,1224.39,187v50.18A10.7,10.7,0,0,1,1213.66,247.82Zm-50.61-68.38a7.57,7.57,0,0,0-7.58,7.54v50.18a7.57,7.57,0,0,0,7.58,7.54h50.61a7.58,7.58,0,0,0,7.59-7.54V187a7.58,7.58,0,0,0-7.59-7.54Z"/><rect class="cls-6" x="1207.06" y="209.89" width="9.24" height="2.94"/><rect class="cls-6" x="1160.41" y="209.89" width="9.24" height="2.94"/><g id="INSERT-9" data-name="INSERT"><g id="CIRCLE-9" data-name="CIRCLE"><path class="cls-6" d="M1193,211.36a4.62,4.62,0,0,1-9.23,0"/></g></g><path class="cls-4" d="M1052.16,70.45c-39.53,0-71.7-31.9-71.7-71.12s32.17-71.12,71.7-71.12,71.69,31.9,71.69,71.12S1091.69,70.45,1052.16,70.45Zm0-139.71C1014-69.26,983-38.49,983-.67s31,68.59,69.14,68.59,69.13-30.77,69.13-68.59S1090.28-69.26,1052.16-69.26Z"/><g id="INSERT-10" data-name="INSERT"><g id="CIRCLE-10" data-name="CIRCLE"><path class="cls-6" d="M1058.66,5.78a9.08,9.08,0,0,0,0-12.92,9.3,9.3,0,0,0-13,0,9.1,9.1,0,0,0,0,12.92,9.19,9.19,0,0,0,13,0Z"/></g></g><path class="cls-6" d="M1025.14-5a6.23,6.23,0,0,0-8.73,0,6.12,6.12,0,0,0,0,8.67,6.19,6.19,0,0,0,8.73,0A6.08,6.08,0,0,0,1025.14-5Zm-4.36,7.41-3.09-3.07,3.09-3.06,3.09,3.06Z"/><path class="cls-6" d="M1087.89-5a6.23,6.23,0,0,0-8.73,0,6.12,6.12,0,0,0,0,8.67,6.19,6.19,0,0,0,8.73,0A6.08,6.08,0,0,0,1087.89-5Zm-4.36,7.41-3.08-3.07,3.08-3.06,3.09,3.06Z"/><path class="cls-4" d="M1075,169.05h-1.71a1.27,1.27,0,1,1,0-2.54H1075a1.27,1.27,0,1,1,0,2.54Zm4-4.31a1.28,1.28,0,0,1-1.28-1.27v-8.34a1.29,1.29,0,0,1,2.57,0v8.34A1.28,1.28,0,0,1,1079,164.74Zm0-16.67a1.28,1.28,0,0,1-1.28-1.27v-8.34a1.29,1.29,0,0,1,2.57,0v8.34A1.28,1.28,0,0,1,1079,148.07Zm0-16.67a1.28,1.28,0,0,1-1.28-1.27v-8.34a1.29,1.29,0,0,1,2.57,0v8.34A1.28,1.28,0,0,1,1079,131.4Z"/><path class="cls-4" d="M1066.16,206.17a1.27,1.27,0,0,1-1.28-1.27v-3.53a1.28,1.28,0,0,1,2.56,0v3.53A1.28,1.28,0,0,1,1066.16,206.17Zm0-11.87a1.27,1.27,0,0,1-1.28-1.27V184.7a1.28,1.28,0,0,1,2.56,0V193A1.28,1.28,0,0,1,1066.16,194.3Zm0-16.67a1.27,1.27,0,0,1-1.28-1.27V168a1.28,1.28,0,0,1,2.56,0v8.34A1.28,1.28,0,0,1,1066.16,177.63Z"/><path class="cls-4" d="M1025.55,175.62a1.27,1.27,0,0,1-1.28-1.27V166a1.28,1.28,0,0,1,2.56,0v8.33A1.27,1.27,0,0,1,1025.55,175.62Zm0-16.67a1.27,1.27,0,0,1-1.28-1.27v-8.34a1.28,1.28,0,0,1,2.56,0v8.34A1.27,1.27,0,0,1,1025.55,159Z"/><path class="cls-4" d="M1025.55,207a1.27,1.27,0,0,1-1.28-1.27v-8.33a1.28,1.28,0,0,1,2.56,0v8.33A1.27,1.27,0,0,1,1025.55,207Zm0-16.67a1.27,1.27,0,0,1-1.28-1.27v-8.34a1.28,1.28,0,0,1,2.56,0v8.34A1.27,1.27,0,0,1,1025.55,190.32Z"/><path class="cls-4" d="M1031.06,146.38h-1.71a1.28,1.28,0,1,1,0-2.55h.43v-5.37a1.28,1.28,0,0,1,2.56,0v6.65A1.27,1.27,0,0,1,1031.06,146.38Zm0-15a1.27,1.27,0,0,1-1.28-1.27v-8.34a1.28,1.28,0,0,1,2.56,0v8.34A1.27,1.27,0,0,1,1031.06,131.4Z"/><path class="cls-4" d="M1123.85,123.06H980.46V67.92h143.39ZM983,120.52h138.27V70.45H983Z"/><polygon class="cls-6" points="1027.04 95.48 1020.82 101.65 1014.61 95.48 1020.82 89.33 1027.04 95.48"/><polygon class="cls-6" points="1089.71 95.48 1083.49 101.65 1077.28 95.48 1083.49 89.33 1089.71 95.48"/><g id="INSERT-11" data-name="INSERT"><g id="CIRCLE-11" data-name="CIRCLE"><path class="cls-6" d="M1055.26,95.48a3.11,3.11,0,1,0-3.11,3.08,3.09,3.09,0,0,0,3.11-3.08Z"/></g></g><rect class="cls-4" x="1122.8" y="91.13" width="134.55" height="2.54"/><rect class="cls-4" x="1601.75" y="-154.55" width="3.15" height="155.59"/><rect class="cls-4" x="1601.75" y="100.32" width="3.15" height="133.6"/><rect class="cls-4" x="1615.56" y="-154.61" width="3.15" height="155.65"/><rect class="cls-4" x="1615.56" y="100.32" width="3.15" height="270.69"/><path class="cls-5" d="M1399.73,352.82c-28.76,0-53.41-.1-62.69-.41-18,0-35.16-9.08-45.93-24.29-11.7-16.53-14.29-37.37-7.09-57.17,18.86-33.73,45-33.76,51.75-33.14.86-6.75,5-26.89,23.68-40,22-15.4,46.29-8.82,51.72-7,24.5-21.26,58.61-26.51,87.14-13.34,35.76,16.52,43.75,54.07,44.88,60.57,6.72,2.4,48.62,19.26,43.28,64.66-9.14,48.22-55,49.74-55.49,49.75C1529.86,352.41,1456.75,352.82,1399.73,352.82ZM1332,240.57c-9.15,0-29.53,3.49-45.28,31.61-6.76,18.66-4.3,38.5,6.83,54.22,10.21,14.42,26.48,23,43.52,23,27.67.93,192.19,0,193.85,0s43.9-1.51,52.56-47.22c5.46-46.5-40.15-61.07-42.1-61.67l-.91-.28-.13-.93c-.24-1.72-6.39-42.14-43.32-59.2-27.7-12.78-60.88-7.51-84.53,13.44l-.68.59-.84-.3c-2.75-1-27.5-9.2-49.81,6.4-19.41,13.58-22.22,35.16-22.59,39.35l-.14,1.66-1.65-.33A27.08,27.08,0,0,0,1332,240.57Z"/><path class="cls-4" d="M1811.92,1.12h-1.7a1.27,1.27,0,0,1-1.28-1.27,1.27,1.27,0,0,1,1.28-1.27h1.7a1.28,1.28,0,0,1,1.29,1.27A1.28,1.28,0,0,1,1811.92,1.12ZM1816-3.19a1.27,1.27,0,0,1-1.28-1.27V-12.8a1.27,1.27,0,0,1,1.28-1.27,1.27,1.27,0,0,1,1.28,1.27v8.34A1.27,1.27,0,0,1,1816-3.19Zm0-16.68a1.27,1.27,0,0,1-1.28-1.27v-8.33a1.27,1.27,0,0,1,1.28-1.27,1.27,1.27,0,0,1,1.28,1.27v8.33A1.27,1.27,0,0,1,1816-19.87Zm0-16.67a1.27,1.27,0,0,1-1.28-1.27v-8.33a1.28,1.28,0,0,1,1.28-1.28,1.28,1.28,0,0,1,1.28,1.28v8.33A1.27,1.27,0,0,1,1816-36.54Z"/><path class="cls-4" d="M1738.37,54.81a47.49,47.49,0,0,1-8.59-.78,1.27,1.27,0,1,1,.47-2.5,44.92,44.92,0,0,0,8.12.74,1.27,1.27,0,1,1,0,2.54Zm-68.93,0a1.27,1.27,0,1,1,0-2.54c1.39,0,2.76-.07,4.13-.19a1.28,1.28,0,0,1,1.39,1.15,1.27,1.27,0,0,1-1.16,1.38C1672.36,54.74,1670.89,54.81,1669.44,54.81Zm12.49-1.73a1.27,1.27,0,0,1-1.23-.92,1.25,1.25,0,0,1,.88-1.57,44.84,44.84,0,0,0,7.59-3,1.28,1.28,0,0,1,1.15,2.28,46.91,46.91,0,0,1-8,3.11A1.48,1.48,0,0,1,1681.93,53.08Zm40-1.31a1.25,1.25,0,0,1-.46-.09,47.06,47.06,0,0,1-7.72-3.84,1.26,1.26,0,0,1-.4-1.75,1.28,1.28,0,0,1,1.76-.4,44.19,44.19,0,0,0,7.29,3.62,1.27,1.27,0,0,1,.73,1.65A1.3,1.3,0,0,1,1722,51.77Zm-25.1-6.13a1.33,1.33,0,0,1-1-.5,1.26,1.26,0,0,1,.25-1.78,43.87,43.87,0,0,0,6-5.48,1.14,1.14,0,0,1,.17-.15c-.38-.47-.76-.94-1.12-1.42a1.27,1.27,0,0,1,.26-1.78,1.28,1.28,0,0,1,1.79.26,43.74,43.74,0,0,0,5.47,6,1.26,1.26,0,0,1,.08,1.8,1.29,1.29,0,0,1-1.81.08c-1-.95-2.05-2-3-3a47.33,47.33,0,0,1-6.28,5.72A1.31,1.31,0,0,1,1696.85,45.64Zm11.2-12.31a1.35,1.35,0,0,1-.67-.18,1.27,1.27,0,0,1-.43-1.75,43,43,0,0,0,3.59-7.26,1.3,1.3,0,0,1,1.66-.74,1.27,1.27,0,0,1,.74,1.64,45.8,45.8,0,0,1-3.8,7.69A1.27,1.27,0,0,1,1708.05,33.33Zm-10.29-3.6a1.29,1.29,0,0,1-1.15-.71,46.48,46.48,0,0,1-3.07-8,1.28,1.28,0,0,1,2.47-.68,43.73,43.73,0,0,0,2.9,7.55,1.27,1.27,0,0,1-1.15,1.84ZM1714,17.84l-.22,0a1.27,1.27,0,0,1-1-1.48,43.65,43.65,0,0,0,.64-5.84,9.32,9.32,0,0,0-.19-1.83,1.28,1.28,0,0,1,2.51-.5,12,12,0,0,1,.25,2.31v.1c0,.05,0,.09,0,.14a45.27,45.27,0,0,1-.68,6.07A1.28,1.28,0,0,1,1714,17.84Zm-20.67-4.08a1.27,1.27,0,0,1-1.27-1.17c-.06-.67-.1-1.34-.13-2A11.9,11.9,0,0,1,1694,3.81a1.29,1.29,0,0,1,1.78-.34,1.28,1.28,0,0,1,.35,1.77,9.27,9.27,0,0,0-1.63,5.27c0,.59.07,1.23.12,1.87a1.27,1.27,0,0,1-1.17,1.37Zm16.57-10.83a1.27,1.27,0,0,1-.72-.22,9.57,9.57,0,0,0-7.05-1.42,1.26,1.26,0,0,1-1.5-1,1.27,1.27,0,0,1,1-1.5,12.15,12.15,0,0,1,9,1.81,1.26,1.26,0,0,1,.34,1.77A1.28,1.28,0,0,1,1709.87,2.93Z"/><path class="cls-4" d="M1826.5,54.81a1.27,1.27,0,1,1,0-2.54c.67,0,1.34,0,2-.05a1.22,1.22,0,0,1,1.34,1.22,1.27,1.27,0,0,1-1.22,1.32C1827.91,54.79,1827.21,54.81,1826.5,54.81Zm10.37-1.18a1.29,1.29,0,0,1-1.25-1,1.27,1.27,0,0,1,1-1.53,44.36,44.36,0,0,0,7.73-2.57,1.28,1.28,0,0,1,1.69.64,1.27,1.27,0,0,1-.65,1.68,46.18,46.18,0,0,1-8.18,2.72A1,1,0,0,1,1836.87,53.63Zm15.27-6.72a1.27,1.27,0,0,1-.73-2.32,43.17,43.17,0,0,0,6.26-5.18,1.29,1.29,0,0,1,1.81,0,1.27,1.27,0,0,1,0,1.8,47.15,47.15,0,0,1-6.63,5.49A1.27,1.27,0,0,1,1852.14,46.91Zm11.77-11.75a1.27,1.27,0,0,1-.72-.22,1.28,1.28,0,0,1-.34-1.77,43.06,43.06,0,0,0,4-7.08,1.28,1.28,0,0,1,2.35,1A45.76,45.76,0,0,1,1865,34.6,1.27,1.27,0,0,1,1863.91,35.16ZM1870.6,20a1.43,1.43,0,0,1-.29,0,1.27,1.27,0,0,1-1-1.53,43.3,43.3,0,0,0,1.06-7.95,1.28,1.28,0,0,1,2.56,0v.07a45.72,45.72,0,0,1-1.12,8.4A1.29,1.29,0,0,1,1870.6,20Z"/><path class="cls-4" d="M1758.55,209.85h-.72a1.27,1.27,0,0,1-.56-2.42V201a1.29,1.29,0,0,1,2.57,0v7.62A1.28,1.28,0,0,1,1758.55,209.85Zm0-16a1.28,1.28,0,0,1-1.28-1.27v-8.33a1.29,1.29,0,0,1,2.57,0v8.33A1.28,1.28,0,0,1,1758.55,193.89Zm0-16.67a1.28,1.28,0,0,1-1.28-1.27v-8.33a1.29,1.29,0,0,1,2.57,0V176A1.28,1.28,0,0,1,1758.55,177.22Zm0-16.67a1.28,1.28,0,0,1-1.28-1.27v-8.34a1.29,1.29,0,0,1,2.57,0v8.34A1.28,1.28,0,0,1,1758.55,160.55Zm0-16.67a1.28,1.28,0,0,1-1.28-1.27v-8.34a1.29,1.29,0,0,1,2.57,0v8.34A1.28,1.28,0,0,1,1758.55,143.88Zm0-16.67a1.28,1.28,0,0,1-1.28-1.27V117.6a1.29,1.29,0,0,1,2.57,0v8.34A1.28,1.28,0,0,1,1758.55,127.21Zm0-16.67a1.28,1.28,0,0,1-1.28-1.28v-8.33a1.29,1.29,0,0,1,2.57,0v8.33A1.28,1.28,0,0,1,1758.55,110.54Zm0-16.68a1.28,1.28,0,0,1-1.28-1.27V84.26a1.29,1.29,0,0,1,2.57,0v8.33A1.28,1.28,0,0,1,1758.55,93.86Zm0-16.67a1.28,1.28,0,0,1-1.28-1.27V67.58a1.29,1.29,0,0,1,2.57,0v8.34A1.28,1.28,0,0,1,1758.55,77.19Z"/><path class="cls-5" d="M1806.51,124.53h-3a1.57,1.57,0,1,1,0-3.13h1.41v-3.8a1.58,1.58,0,0,1,3.15,0V123A1.56,1.56,0,0,1,1806.51,124.53Zm0-13.7a1.57,1.57,0,0,1-1.58-1.57v-8.33a1.58,1.58,0,0,1,3.15,0v8.33A1.57,1.57,0,0,1,1806.51,110.83Zm0-16.67a1.57,1.57,0,0,1-1.58-1.57V84.26a1.58,1.58,0,0,1,3.15,0v8.33A1.57,1.57,0,0,1,1806.51,94.16Zm0-16.68a1.57,1.57,0,0,1-1.58-1.56V67.58a1.58,1.58,0,0,1,3.15,0v8.34A1.56,1.56,0,0,1,1806.51,77.48Z"/><path class="cls-4" d="M1827.79,68.87h-90.51v-29h90.51Zm-87.92-2.57h85.33V42.48h-85.33Z"/><path class="cls-5" d="M1828.07,35.55H1737V8.8A11.9,11.9,0,0,1,1748.93-3h67.21A11.9,11.9,0,0,1,1828.07,8.8Zm-87.92-3.12h84.77V8.8a8.76,8.76,0,0,0-8.78-8.71h-67.21a8.76,8.76,0,0,0-8.78,8.71Z"/><path class="cls-5" d="M1843.05,42.75H1722V32.43h121Zm-117.88-3.12H1839.9V35.55H1725.17Z"/><rect class="cls-6" x="1753.83" y="51.28" width="9.49" height="3.03"/><rect class="cls-6" x="1801.75" y="51.28" width="9.49" height="3.03"/><g id="INSERT-12" data-name="INSERT"><g id="CIRCLE-12" data-name="CIRCLE"><path class="cls-6" d="M1777.79,52.8a4.74,4.74,0,0,0,9.48,0"/></g></g><path class="cls-5" d="M1692.34,302.29a7.58,7.58,0,0,1-5.41-12.93l4-4a44.83,44.83,0,0,1-11.15-30.09c.25-24.32,20.39-44.37,44.9-44.7a45.32,45.32,0,0,1,32.6,13,44.88,44.88,0,0,1,2.39,61.77l4,4a7.52,7.52,0,0,1-.1,10.81,7.82,7.82,0,0,1-10.85-.24l-4-4c-.13-.13-.25-.25-.36-.38a.81.81,0,0,0-1-.21,46.65,46.65,0,0,1-44,0,.82.82,0,0,0-1,.21l-.36.38-4.2,4.16A7.58,7.58,0,0,1,1692.34,302.29Zm.85-14.72-4,4a4.45,4.45,0,0,0,0,6.31,4.62,4.62,0,0,0,6.35,0l4.43-4.4a4,4,0,0,1,4.91-.88,43.42,43.42,0,0,0,40.92,0,4,4,0,0,1,4.93.89l.21.23,4.06,4a4.64,4.64,0,0,0,6.44.2,4.43,4.43,0,0,0,0-6.36l-4.2-4.17a2.79,2.79,0,0,1-.14-3.85,41.78,41.78,0,0,0-2-57.71,42.24,42.24,0,0,0-29.76-12.12h-.59c-22.81.3-41.56,19-41.79,41.6a41.71,41.71,0,0,0,10.59,28.24,2.78,2.78,0,0,1-.16,3.82Z"/><path class="cls-6" d="M1704.06,262.29a5.53,5.53,0,1,0,0,7.81A5.53,5.53,0,0,0,1704.06,262.29Zm-3.9,6.67-2.77-2.76,2.77-2.77,2.77,2.77Z"/><path class="cls-6" d="M1754.38,262.29a5.53,5.53,0,1,0,0,7.81A5.54,5.54,0,0,0,1754.38,262.29Zm-3.91,6.67-2.77-2.76,2.77-2.77,2.77,2.77Z"/><path class="cls-4" d="M1845.47,177.82c-10.9,0-20.24,0-23.76-.16h0a22.38,22.38,0,0,1-18.13-9.6,24.13,24.13,0,0,1-2.81-22.51c6.86-12.28,16-13.36,19.65-13.24a22.75,22.75,0,0,1,9.24-14.88c8.11-5.67,17-3.8,19.89-3a31.69,31.69,0,0,1,33.59-4.84c13.26,6.12,16.7,19.24,17.43,23.08,3.87,1.51,18.46,8.37,16.48,25.28-3.61,19.07-21.76,19.66-21.94,19.67C1894.68,177.66,1867,177.82,1845.47,177.82Zm-25.6-42.45c-3.21,0-10.56,1.22-16.29,11.45a21.08,21.08,0,0,0,2.53,19.48,19.31,19.31,0,0,0,15.66,8.29c10.47.35,72.67,0,73.3,0s15.8-.59,18.92-17.06c2-16.7-14.55-22-15.25-22.22l-.93-.29-.14-1c-.09-.63-2.35-15.42-15.83-21.64a28.6,28.6,0,0,0-30.9,4.92l-.69.61-.87-.31c-1-.35-9.92-3.31-17.94,2.3a20.08,20.08,0,0,0-8.13,14.18l-.16,1.71-1.69-.34A9,9,0,0,0,1819.87,135.37Z"/><path class="cls-6" d="M1862.45,151.16a3.85,3.85,0,0,1-7.7,0Z"/><ellipse class="cls-6" cx="1876.76" cy="151.16" rx="2.4" ry="2.38"/><ellipse class="cls-6" cx="1839.08" cy="151.16" rx="2.4" ry="2.38"/><path class="cls-4" d="M1838.24,261.7a47.33,47.33,0,0,1-8.59-.79,1.27,1.27,0,1,1,.47-2.5,44,44,0,0,0,8.12.75,1.27,1.27,0,1,1,0,2.54Zm-68.93,0a1.27,1.27,0,1,1,0-2.54c1.39,0,2.77-.07,4.13-.19a1.27,1.27,0,1,1,.23,2.53C1772.23,261.63,1770.76,261.7,1769.31,261.7ZM1781.8,260a1.27,1.27,0,0,1-.35-2.49,44,44,0,0,0,7.59-2.94,1.27,1.27,0,1,1,1.15,2.27,46.1,46.1,0,0,1-8,3.11A1.06,1.06,0,0,1,1781.8,260Zm40-1.31a1.25,1.25,0,0,1-.46-.09,45.76,45.76,0,0,1-7.71-3.83,1.26,1.26,0,0,1-.41-1.75,1.29,1.29,0,0,1,1.77-.41,43.36,43.36,0,0,0,7.28,3.63,1.27,1.27,0,0,1,.73,1.64A1.29,1.29,0,0,1,1821.82,258.65Zm-25.1-6.13a1.27,1.27,0,0,1-.77-2.28,43.87,43.87,0,0,0,6-5.48l.17-.15c-.39-.46-.76-.93-1.12-1.41a1.27,1.27,0,0,1,.26-1.78,1.29,1.29,0,0,1,1.79.25,43.9,43.9,0,0,0,5.48,6,1.28,1.28,0,1,1-1.74,1.87c-1-.95-2-1.95-3-3a46.65,46.65,0,0,1-6.28,5.72A1.24,1.24,0,0,1,1796.72,252.52Zm11.2-12.3a1.28,1.28,0,0,1-1.09-1.94,43,43,0,0,0,3.59-7.26,1.28,1.28,0,0,1,1.65-.73,1.26,1.26,0,0,1,.74,1.64,46.43,46.43,0,0,1-3.79,7.68A1.31,1.31,0,0,1,1807.92,240.22Zm-10.29-3.61a1.29,1.29,0,0,1-1.15-.71,45.86,45.86,0,0,1-3.07-8,1.28,1.28,0,0,1,2.48-.67,42.89,42.89,0,0,0,2.89,7.55,1.25,1.25,0,0,1-.58,1.7A1.28,1.28,0,0,1,1797.63,236.61Zm16.22-11.89h-.23a1.28,1.28,0,0,1-1-1.48,42.38,42.38,0,0,0,.64-5.85,9.29,9.29,0,0,0-.19-1.82,1.28,1.28,0,0,1,2.51-.5,11.92,11.92,0,0,1,.25,2.31v0h0v.06s0,.09,0,.13a47.5,47.5,0,0,1-.67,6.08A1.28,1.28,0,0,1,1813.85,224.72Zm-20.68-4.08a1.27,1.27,0,0,1-1.27-1.16c-.06-.67-.1-1.35-.13-2a11.89,11.89,0,0,1,2.06-6.75,1.29,1.29,0,0,1,1.78-.34,1.26,1.26,0,0,1,.35,1.76,9.3,9.3,0,0,0-1.63,5.28c0,.59.07,1.23.12,1.87a1.28,1.28,0,0,1-1.17,1.37Zm16.57-10.83a1.34,1.34,0,0,1-.72-.21,9.29,9.29,0,0,0-5.23-1.6c-.48.06-1.23.06-1.82.17a1.27,1.27,0,1,1-.49-2.49,11.69,11.69,0,0,1,2.29-.22h0a11.88,11.88,0,0,1,6.67,2,1.26,1.26,0,0,1,.35,1.76A1.28,1.28,0,0,1,1809.74,209.81Z"/><path class="cls-4" d="M1682.17,261.69a1.37,1.37,0,0,1-1.38-1.28,1.2,1.2,0,0,1,1.18-1.27h.1a1.32,1.32,0,0,1,1.33,1.27A1.23,1.23,0,0,1,1682.17,261.69Zm-65-.15a1.27,1.27,0,0,1-.1-2.54,44.61,44.61,0,0,0,8-1.43,1.28,1.28,0,0,1,1.57.89,1.26,1.26,0,0,1-.89,1.56,47,47,0,0,1-8.5,1.51Zm56.5-.64-.24,0a47,47,0,0,1-8.29-2.39,1.27,1.27,0,1,1,.94-2.36,44.34,44.34,0,0,0,7.83,2.25,1.27,1.27,0,0,1,1,1.48A1.29,1.29,0,0,1,1673.63,260.9Zm-40.4-3.8a1.27,1.27,0,0,1-1.14-.7,1.26,1.26,0,0,1,.58-1.71,44.37,44.37,0,0,0,6.94-4.23,1.3,1.3,0,0,1,1.8.25,1.27,1.27,0,0,1-.26,1.78,46,46,0,0,1-7.35,4.48A1.25,1.25,0,0,1,1633.23,257.1Zm24.86-2.29a1.31,1.31,0,0,1-.69-.19,46.22,46.22,0,0,1-6.83-5.22,1.27,1.27,0,0,1-.07-1.8,1.29,1.29,0,0,1,1.81-.06,44.29,44.29,0,0,0,6.46,4.93,1.26,1.26,0,0,1,.4,1.75A1.28,1.28,0,0,1,1658.09,254.81Zm-11.49-7.66a1.31,1.31,0,0,1-.87-.33,1.27,1.27,0,0,1-.07-1.8l.38-.42a47.41,47.41,0,0,1-3.35-4.67,1.26,1.26,0,0,1,.41-1.75,1.28,1.28,0,0,1,1.76.4,43.24,43.24,0,0,0,3.84,5.22,1.26,1.26,0,0,1,0,1.65c-.38.44-.76.87-1.16,1.29A1.24,1.24,0,0,1,1646.6,247.15Zm3-3.61a1.28,1.28,0,0,1-.76-.25,1.26,1.26,0,0,1-.26-1.78,43.58,43.58,0,0,0,4.22-6.91,1.29,1.29,0,0,1,1.71-.59,1.27,1.27,0,0,1,.6,1.7,45.69,45.69,0,0,1-4.48,7.32A1.3,1.3,0,0,1,1649.61,243.54ZM1640,233.09a1.3,1.3,0,0,1-1.2-.81,46.66,46.66,0,0,1-2.36-8.23,1.28,1.28,0,0,1,2.52-.47,42.41,42.41,0,0,0,2.24,7.77,1.28,1.28,0,0,1-.74,1.65A1.25,1.25,0,0,1,1640,233.09Zm16.88-4.46a1.3,1.3,0,0,1-1.24-1.6,44,44,0,0,0,1.39-8,1.28,1.28,0,0,1,2.55.2,47.32,47.32,0,0,1-1.46,8.44A1.29,1.29,0,0,1,1656.9,228.63Zm-19.74-11.83a.82.82,0,0,1-.22,0,1.26,1.26,0,0,1-1-1.47,12,12,0,0,1,4.91-7.68,1.3,1.3,0,0,1,1.79.3,1.27,1.27,0,0,1-.31,1.78,8.83,8.83,0,0,0-1.24,1,9.33,9.33,0,0,0-2.63,5A1.28,1.28,0,0,1,1637.16,216.8Zm19.28-4.3a1.28,1.28,0,0,1-1-.54,9.34,9.34,0,0,0-6.07-3.84,1.27,1.27,0,1,1,.43-2.51,11.88,11.88,0,0,1,7.73,4.89,1.26,1.26,0,0,1-.31,1.77A1.31,1.31,0,0,1,1656.44,212.5Z"/><path class="cls-4" d="M1368.77,54.81a1.32,1.32,0,0,1-1.33-1.27,1.28,1.28,0,0,1,1.28-1.27h0c1.32-.05,2.77-.06,4.13-.19a1.27,1.27,0,1,1,.24,2.53C1371.66,54.74,1370.2,54.81,1368.77,54.81Zm68.88,0a47.3,47.3,0,0,1-8.58-.78,1.27,1.27,0,1,1,.47-2.5,44.89,44.89,0,0,0,8.11.74,1.27,1.27,0,1,1,0,2.54Zm-56.44-1.73a1.27,1.27,0,0,1-.35-2.49,44.84,44.84,0,0,0,7.59-3,1.29,1.29,0,0,1,1.72.57,1.27,1.27,0,0,1-.57,1.71,47.13,47.13,0,0,1-8,3.11A1.49,1.49,0,0,1,1381.21,53.08Zm40-1.31a1.25,1.25,0,0,1-.46-.09,46.18,46.18,0,0,1-7.71-3.84,1.27,1.27,0,0,1-.41-1.76,1.3,1.3,0,0,1,1.77-.4,43,43,0,0,0,7.28,3.63,1.27,1.27,0,0,1,.73,1.65A1.29,1.29,0,0,1,1421.23,51.77Zm-25.09-6.13a1.31,1.31,0,0,1-1-.5,1.26,1.26,0,0,1,.24-1.78,44.55,44.55,0,0,0,6-5.48.75.75,0,0,1,.16-.15c-.38-.47-.75-.94-1.11-1.42a1.26,1.26,0,0,1,.26-1.78,1.29,1.29,0,0,1,1.79.25,43.82,43.82,0,0,0,5.47,6,1.27,1.27,0,0,1,.07,1.8,1.29,1.29,0,0,1-1.81.08q-1.56-1.44-3-3a47.88,47.88,0,0,1-6.27,5.72A1.33,1.33,0,0,1,1396.14,45.64Zm11.2-12.31a1.23,1.23,0,0,1-.67-.18,1.26,1.26,0,0,1-.43-1.75,43.74,43.74,0,0,0,3.59-7.26,1.3,1.3,0,0,1,1.65-.74,1.27,1.27,0,0,1,.75,1.64,46.57,46.57,0,0,1-3.8,7.69A1.27,1.27,0,0,1,1407.34,33.33Zm-10.3-3.6a1.3,1.3,0,0,1-1.15-.72,46.07,46.07,0,0,1-3.07-8,1.29,1.29,0,0,1,2.48-.68,42.89,42.89,0,0,0,2.89,7.55,1.29,1.29,0,0,1-1.15,1.84Zm16.22-11.89-.23,0a1.26,1.26,0,0,1-1-1.47,44,44,0,0,0,.64-5.85,10.24,10.24,0,0,0-.19-1.83,1.28,1.28,0,0,1,2.51-.5,12.84,12.84,0,0,1,.24,2.31v.1a.66.66,0,0,1,0,.14,45.26,45.26,0,0,1-.67,6.07A1.28,1.28,0,0,1,1413.26,17.84Zm-20.67-4.08a1.28,1.28,0,0,1-1.28-1.17c-.06-.67-.1-1.35-.13-2a11.9,11.9,0,0,1,2.07-6.75,1.29,1.29,0,0,1,1.78-.34,1.26,1.26,0,0,1,.34,1.77,9.31,9.31,0,0,0-1.62,5.27c0,.59.06,1.23.11,1.87a1.27,1.27,0,0,1-1.17,1.37Zm16.57-10.83a1.27,1.27,0,0,1-.72-.22,9.6,9.6,0,0,0-7-1.42,1.28,1.28,0,0,1-1.51-1,1.29,1.29,0,0,1,1-1.49,12.06,12.06,0,0,1,9,1.82,1.25,1.25,0,0,1,.34,1.76A1.28,1.28,0,0,1,1409.16,2.93Z"/><path class="cls-5" d="M1241.42,55.1a47.07,47.07,0,0,1-8.64-.79,1.56,1.56,0,1,1,.58-3.07,44.27,44.27,0,0,0,8.06.74,1.56,1.56,0,1,1,0,3.12Zm-16.42-3a1.65,1.65,0,0,1-.57-.11,46.38,46.38,0,0,1-7.76-3.86,1.57,1.57,0,1,1,1.67-2.65,44.7,44.7,0,0,0,7.23,3.6,1.55,1.55,0,0,1,.9,2A1.58,1.58,0,0,1,1225,52.06Zm-14.17-8.78a1.55,1.55,0,0,1-1.07-.41,46.88,46.88,0,0,1-5.82-6.38,1.56,1.56,0,0,1,.32-2.19,1.58,1.58,0,0,1,2.2.31,44.46,44.46,0,0,0,5.43,6,1.56,1.56,0,0,1,.1,2.21A1.62,1.62,0,0,1,1210.83,43.28Zm-10-13.26a1.57,1.57,0,0,1-1.41-.87,46.35,46.35,0,0,1-3.09-8.06,1.55,1.55,0,0,1,1.1-1.92,1.58,1.58,0,0,1,1.94,1.09,42.32,42.32,0,0,0,2.87,7.5,1.56,1.56,0,0,1-.71,2.1A1.59,1.59,0,0,1,1200.81,30Zm-4.46-16a1.58,1.58,0,0,1-1.57-1.43c0-.68-.09-1.36-.13-2A1.58,1.58,0,0,1,1196.16,9a1.54,1.54,0,0,1,1.64,1.5c0,.64.07,1.27.12,1.91a1.56,1.56,0,0,1-1.44,1.68Z"/><path class="cls-5" d="M1854.93,318.81a7.1,7.1,0,0,1-3.86-1.15,7,7,0,0,1-2-9.69l2.74-4.12a40.43,40.43,0,0,1-16.06-32.67,41.3,41.3,0,0,1,69.62-29.4,40.7,40.7,0,0,1-3.21,62.07l2.73,4.12a7,7,0,0,1-2,9.69,7.09,7.09,0,0,1-9.76-2l-3-4.44a1.31,1.31,0,0,0-1.49-.54,41.87,41.87,0,0,1-23.56-.05,1.21,1.21,0,0,0-1.31.56l-3,4.47A7.1,7.1,0,0,1,1854.93,318.81Zm-.38-13.43-2.86,4.31a3.85,3.85,0,0,0,1.11,5.36,3.93,3.93,0,0,0,5.4-1.1l3-4.5a4.32,4.32,0,0,1,4.83-1.8,38.81,38.81,0,0,0,21.76.05,4.47,4.47,0,0,1,5,1.8l3,4.45a3.93,3.93,0,0,0,5.4,1.1,3.86,3.86,0,0,0,1.11-5.36l-3-4.44a2.7,2.7,0,0,1,.64-3.65,37.6,37.6,0,0,0,3.25-57.56,38.15,38.15,0,0,0-64.3,27.16,37.41,37.41,0,0,0,15.17,30.44,2.67,2.67,0,0,1,.59,3.6Z"/><path class="cls-4" d="M1580.2,190.54h-2.75a1.27,1.27,0,1,1,0-2.54h1.47v-4.33a1.28,1.28,0,0,1,2.56,0v5.6A1.27,1.27,0,0,1,1580.2,190.54Zm0-13.94a1.28,1.28,0,0,1-1.28-1.27V167a1.28,1.28,0,0,1,2.56,0v8.33A1.27,1.27,0,0,1,1580.2,176.6Zm0-16.67a1.28,1.28,0,0,1-1.28-1.27v-8.34a1.28,1.28,0,0,1,2.56,0v8.34A1.27,1.27,0,0,1,1580.2,159.93Zm0-16.67a1.28,1.28,0,0,1-1.28-1.27v-8.34a1.28,1.28,0,0,1,2.56,0V142A1.27,1.27,0,0,1,1580.2,143.26Zm0-16.67a1.28,1.28,0,0,1-1.28-1.27V117a1.28,1.28,0,0,1,2.56,0v8.34A1.27,1.27,0,0,1,1580.2,126.59Zm0-16.68a1.27,1.27,0,0,1-1.28-1.27v-8.33a1.28,1.28,0,0,1,2.56,0v8.33A1.27,1.27,0,0,1,1580.2,109.91Z"/><path class="cls-4" d="M1528.54,197.93h-2a1.27,1.27,0,1,1,0-2.54h2a1.27,1.27,0,1,1,0,2.54Zm3.71-4.66A1.28,1.28,0,0,1,1531,192v-8.33a1.29,1.29,0,0,1,2.57,0V192A1.27,1.27,0,0,1,1532.25,193.27Zm0-16.67a1.28,1.28,0,0,1-1.29-1.27V167a1.29,1.29,0,0,1,2.57,0v8.33A1.28,1.28,0,0,1,1532.25,176.6Zm0-16.67a1.28,1.28,0,0,1-1.29-1.27v-8.34a1.29,1.29,0,0,1,2.57,0v8.34A1.28,1.28,0,0,1,1532.25,159.93Zm0-16.67A1.28,1.28,0,0,1,1531,142v-8.34a1.29,1.29,0,0,1,2.57,0V142A1.28,1.28,0,0,1,1532.25,143.26Zm0-16.67a1.28,1.28,0,0,1-1.29-1.27V117a1.29,1.29,0,0,1,2.57,0v8.34A1.28,1.28,0,0,1,1532.25,126.59Zm0-16.68a1.28,1.28,0,0,1-1.29-1.27v-8.33a1.29,1.29,0,0,1,2.57,0v8.33A1.27,1.27,0,0,1,1532.25,109.91Z"/><path class="cls-4" d="M1659.75,101.58H1446.94a10.94,10.94,0,0,1-11-10.88v-80a10.94,10.94,0,0,1,11-10.88h212.81a10.94,10.94,0,0,1,11,10.88v80A10.94,10.94,0,0,1,1659.75,101.58ZM1446.94,2.32a8.38,8.38,0,0,0-8.41,8.34v80a8.38,8.38,0,0,0,8.41,8.34h212.81a8.38,8.38,0,0,0,8.41-8.34v-80a8.38,8.38,0,0,0-8.41-8.34Z"/><path class="cls-5" d="M1475.21,56H1455V28.58h20.21Zm-17.65-2.54h15.09V31.12h-15.09Z"/><path class="cls-5" d="M1475.21,80.94H1455V53.49h20.21Zm-17.65-2.54h15.09V56h-15.09Z"/><path class="cls-5" d="M1492.86,56h-20.21V28.58h20.21Zm-17.65-2.54h15.09V31.12h-15.09Z"/><path class="cls-5" d="M1492.86,80.94h-20.21V53.49h20.21Zm-17.65-2.54h15.09V56h-15.09Z"/><path class="cls-5" d="M1510.5,56h-20.2V28.58h20.2Zm-17.64-2.54h15.08V31.12h-15.08Z"/><path class="cls-5" d="M1510.5,80.94h-20.2V53.49h20.2Zm-17.64-2.54h15.08V56h-15.08Z"/><path class="cls-5" d="M1528.15,56h-20.21V28.58h20.21Zm-17.65-2.54h15.09V31.12H1510.5Z"/><path class="cls-5" d="M1528.15,80.94h-20.21V53.49h20.21ZM1510.5,78.4h15.09V56H1510.5Z"/><path class="cls-5" d="M1545.8,56h-20.21V28.58h20.21Zm-17.65-2.54h15.09V31.12h-15.09Z"/><path class="cls-5" d="M1545.8,80.94h-20.21V53.49h20.21Zm-17.65-2.54h15.09V56h-15.09Z"/><path class="cls-5" d="M1563.45,56h-20.21V28.58h20.21Zm-17.65-2.54h15.09V31.12H1545.8Z"/><path class="cls-5" d="M1563.45,80.94h-20.21V53.49h20.21ZM1545.8,78.4h15.09V56H1545.8Z"/><path class="cls-5" d="M1581.1,56h-20.21V28.58h20.21Zm-17.65-2.54h15.09V31.12h-15.09Z"/><path class="cls-5" d="M1581.1,80.94h-20.21V53.49h20.21Zm-17.65-2.54h15.09V56h-15.09Z"/><path class="cls-5" d="M1598.74,56h-20.2V28.58h20.2Zm-17.64-2.54h15.08V31.12H1581.1Z"/><path class="cls-5" d="M1598.74,80.94h-20.2V53.49h20.2ZM1581.1,78.4h15.08V56H1581.1Z"/><path class="cls-5" d="M1616.39,56h-20.21V28.58h20.21Zm-17.65-2.54h15.09V31.12h-15.09Z"/><path class="cls-5" d="M1616.39,80.94h-20.21V53.49h20.21Zm-17.65-2.54h15.09V56h-15.09Z"/><path class="cls-5" d="M1634,56h-20.21V28.58H1634Zm-17.65-2.54h15.09V31.12h-15.09Z"/><path class="cls-5" d="M1634,80.94h-20.21V53.49H1634Zm-17.65-2.54h15.09V56h-15.09Z"/><path class="cls-5" d="M1651.69,56h-20.21V28.58h20.21ZM1634,53.49h15.09V31.12H1634Z"/><path class="cls-5" d="M1651.69,80.94h-20.21V53.49h20.21ZM1634,78.4h15.09V56H1634Z"/><g id="INSERT-13" data-name="INSERT"><g id="CIRCLE-13" data-name="CIRCLE"><path class="cls-6" d="M1555,17a2.37,2.37,0,1,0-3.36,0,2.37,2.37,0,0,0,3.36,0Z"/></g></g><path class="cls-6" d="M1535.11,12a4.73,4.73,0,1,0,0,6.69A4.72,4.72,0,0,0,1535.11,12Zm-3.34,5.71-2.38-2.37,2.38-2.37,2.37,2.37Z"/><path class="cls-6" d="M1578.28,12a4.74,4.74,0,1,0,0,6.69A4.74,4.74,0,0,0,1578.28,12Zm-3.36,5.71-2.37-2.37,2.37-2.37,2.38,2.37Z"/><rect class="cls-4" x="1262.51" y="107.19" width="2.64" height="49.73"/><rect class="cls-4" x="1255.22" y="107.19" width="3.13" height="49.73"/><path class="cls-4" d="M1189.64,172.87h0a1.27,1.27,0,0,1-1.25-1.27v-.06a43.16,43.16,0,0,1,1.19-8.41,1.28,1.28,0,0,1,2.49.6,40.53,40.53,0,0,0-1.12,7.92A1.27,1.27,0,0,1,1189.64,172.87Zm3.95-16a1.33,1.33,0,0,1-.55-.12,1.27,1.27,0,0,1-.62-1.69,44.16,44.16,0,0,1,4.44-7.36,1.3,1.3,0,0,1,1.8-.26,1.28,1.28,0,0,1,.26,1.78,41,41,0,0,0-4.17,6.92A1.29,1.29,0,0,1,1193.59,156.85Zm10-13.29a1.27,1.27,0,0,1-.85-2.21,42.72,42.72,0,0,1,7-5.07,1.29,1.29,0,0,1,1.76.44,1.27,1.27,0,0,1-.46,1.74,41.45,41.45,0,0,0-6.55,4.78A1.31,1.31,0,0,1,1203.54,143.56Zm14.38-8.41a1.27,1.27,0,0,1-1.21-.86,1.25,1.25,0,0,1,.79-1.61,43.22,43.22,0,0,1,8.41-2,1.31,1.31,0,0,1,1.44,1.1,1.27,1.27,0,0,1-1.11,1.42,41.07,41.07,0,0,0-7.9,1.86A1.28,1.28,0,0,1,1217.92,135.15Z"/><path class="cls-4" d="M1450.69,172.87a1.26,1.26,0,0,1-1.28-1.22,40.53,40.53,0,0,0-1.12-7.92,1.28,1.28,0,0,1,2.49-.6,42.39,42.39,0,0,1,1.18,8.27.61.61,0,0,1,0,.14v.06a1.28,1.28,0,0,1-1.26,1.27Zm-4-16a1.29,1.29,0,0,1-1.16-.73,41,41,0,0,0-4.17-6.92,1.26,1.26,0,0,1,.26-1.78,1.28,1.28,0,0,1,1.79.26,42.85,42.85,0,0,1,4.44,7.36,1.26,1.26,0,0,1-.61,1.69A1.37,1.37,0,0,1,1446.74,156.85Zm-10-13.29a1.3,1.3,0,0,1-.85-.32,41.07,41.07,0,0,0-6.56-4.78,1.26,1.26,0,0,1-.45-1.74,1.29,1.29,0,0,1,1.76-.44,43.15,43.15,0,0,1,7,5.07,1.26,1.26,0,0,1,.1,1.79A1.31,1.31,0,0,1,1436.78,143.56Zm-14.37-8.41a1.23,1.23,0,0,1-.42-.07,41.17,41.17,0,0,0-7.91-1.86,1.27,1.27,0,0,1-1.1-1.42,1.31,1.31,0,0,1,1.44-1.1,43.22,43.22,0,0,1,8.41,2,1.26,1.26,0,0,1,.79,1.61A1.28,1.28,0,0,1,1422.41,135.15Z"/><path class="cls-5" d="M1383.55,158.33H1256.79a26.21,26.21,0,1,1,0-52.41h126.76a26.21,26.21,0,1,1,0,52.41Zm-126.76-49.87a23.67,23.67,0,1,0,0,47.33h126.76a23.67,23.67,0,1,0,0-47.33Z"/><path class="cls-6" d="M1299.4,137.38a4.77,4.77,0,0,0-6.71,0,4.68,4.68,0,0,0,0,6.65,4.75,4.75,0,0,0,6.71,0A4.66,4.66,0,0,0,1299.4,137.38Zm-3.35,5.69-2.38-2.36,2.38-2.35,2.37,2.35Z"/><path class="cls-6" d="M1347.64,137.38a4.78,4.78,0,0,0-6.72,0,4.68,4.68,0,0,0,0,6.65,4.76,4.76,0,0,0,6.72,0A4.67,4.67,0,0,0,1347.64,137.38Zm-3.35,5.69-2.38-2.36,2.38-2.35,2.37,2.35Z"/><g id="INSERT-14" data-name="INSERT"><g id="CIRCLE-14" data-name="CIRCLE"><path class="cls-6" d="M1315.43,140.72a4.74,4.74,0,0,0,9.48,0"/></g></g><rect class="cls-6" x="1267.14" y="38.09" width="12.47" height="3.98"/><rect class="cls-6" x="1330.11" y="38.09" width="12.47" height="3.98"/><g id="INSERT-15" data-name="INSERT"><g id="CIRCLE-15" data-name="CIRCLE"><path class="cls-6" d="M1298.62,40.09a6.23,6.23,0,0,0,12.46,0"/></g></g><path class="cls-4" d="M1358.62,93.53H1251.11a10.94,10.94,0,0,1-11-10.88V-85.86a10.78,10.78,0,0,1,5.78-9.56l1.2,2.25a8.24,8.24,0,0,0-4.42,7.31V82.65a8.39,8.39,0,0,0,8.42,8.34h107.51a8.38,8.38,0,0,0,8.41-8.34V-85.86a8.23,8.23,0,0,0-4.41-7.31l1.19-2.25a10.78,10.78,0,0,1,5.78,9.56V82.65A10.94,10.94,0,0,1,1358.62,93.53Z"/><path class="cls-5" d="M1304.84,6a14,14,0,0,1-14-13.43l-6-77H1256.3a11.12,11.12,0,0,1-11.15-11.06,11,11,0,0,1,3.26-7.82,11.1,11.1,0,0,1,7.89-3.24h28.51l6-77a14,14,0,0,1,14-13.38,14,14,0,0,1,9.76,3.91,13.78,13.78,0,0,1,4.29,9.52l6,77h28.58a11.11,11.11,0,0,1,11.14,11.06,10.92,10.92,0,0,1-3.27,7.82,11.06,11.06,0,0,1-7.87,3.24h-28.58l-6,77.05a13.74,13.74,0,0,1-4.28,9.47A14,14,0,0,1,1304.84,6ZM1256.3-104a8.57,8.57,0,0,0-6.08,2.5,8.42,8.42,0,0,0-2.51,6A8.56,8.56,0,0,0,1256.3-87h30.88l6.17,79.39a11.43,11.43,0,0,0,11.49,11,11.49,11.49,0,0,0,8-3.2,11.31,11.31,0,0,0,3.51-7.79L1322.5-87h31a8.51,8.51,0,0,0,6.06-2.49,8.45,8.45,0,0,0,2.52-6,8.56,8.56,0,0,0-8.58-8.52h-31l-6.17-79.39a11.29,11.29,0,0,0-3.51-7.83,11.43,11.43,0,0,0-8-3.2,11.42,11.42,0,0,0-11.49,11L1287.18-104Z"/><path class="cls-4" d="M1677.16,85.93h-1.57a1.27,1.27,0,1,1,0-2.54h1.57a1.27,1.27,0,1,1,0,2.54Zm4.19-4.18a1.28,1.28,0,0,1-1.29-1.27V72.14a1.29,1.29,0,0,1,2.57,0v8.34A1.28,1.28,0,0,1,1681.35,81.75Zm0-16.67a1.28,1.28,0,0,1-1.29-1.27V55.47a1.29,1.29,0,0,1,2.57,0v8.34A1.28,1.28,0,0,1,1681.35,65.08Zm0-16.67a1.28,1.28,0,0,1-1.29-1.27V38.8a1.29,1.29,0,0,1,2.57,0v8.34A1.28,1.28,0,0,1,1681.35,48.41Zm0-16.67a1.28,1.28,0,0,1-1.29-1.27V22.13a1.29,1.29,0,0,1,2.57,0v8.34A1.28,1.28,0,0,1,1681.35,31.74Zm0-16.67a1.28,1.28,0,0,1-1.29-1.28V5.46a1.29,1.29,0,0,1,2.57,0v8.33A1.28,1.28,0,0,1,1681.35,15.07Zm0-16.68a1.28,1.28,0,0,1-1.29-1.27v-8.33a1.28,1.28,0,0,1,1.29-1.27,1.27,1.27,0,0,1,1.28,1.27v8.33A1.28,1.28,0,0,1,1681.35-1.61Zm0-16.67a1.28,1.28,0,0,1-1.29-1.27v-8.34a1.28,1.28,0,0,1,1.29-1.27,1.28,1.28,0,0,1,1.28,1.27v8.34A1.28,1.28,0,0,1,1681.35-18.28Z"/><path class="cls-6" d="M1011,241.14l-5.79,5.74,5.79,5.74,5.79-5.74Zm-2.85,5.74L1011,244l2.9,2.87-2.9,2.87Z"/><path class="cls-6" d="M1058.54,241.14l-5.79,5.74,5.79,5.74,5.79-5.74Zm-2.85,5.74,2.9-2.87,2.89,2.87-2.89,2.87Z"/><g id="INSERT-16" data-name="INSERT"><g id="CIRCLE-16" data-name="CIRCLE"><path class="cls-6" d="M1029,245.44a5.78,5.78,0,0,0,11.56,0"/></g></g><path class="cls-5" d="M1000.08,221.53a6.12,6.12,0,1,1,6.17-6.12A6.15,6.15,0,0,1,1000.08,221.53Zm0-9.12a3,3,0,1,0,3,3A3,3,0,0,0,1000.08,212.41Z"/><path class="cls-5" d="M1069.45,221.53a6.12,6.12,0,1,1,6.17-6.12A6.16,6.16,0,0,1,1069.45,221.53Zm0-9.12a3,3,0,1,0,3,3A3,3,0,0,0,1069.45,212.41Z"/><path class="cls-5" d="M1072,422.05H997.51a9.36,9.36,0,0,1-9.38-9.31V213a9.36,9.36,0,0,1,9.38-9.31H1072a9.36,9.36,0,0,1,9.38,9.31V412.74A9.36,9.36,0,0,1,1072,422.05ZM997.51,206.78a6.22,6.22,0,0,0-6.23,6.19V412.74a6.21,6.21,0,0,0,6.23,6.18H1072a6.21,6.21,0,0,0,6.23-6.18V213a6.22,6.22,0,0,0-6.23-6.19Z"/></g></svg>