<svg id="Capa_1" data-name="Capa 1" xmlns="http://www.w3.org/2000/svg" xmlns:xlink="http://www.w3.org/1999/xlink" viewBox="0 0 1920.5 420.01"><defs><style>.cls-1{fill:none;}.cls-2{fill:#ffb100;}.cls-3{clip-path:url(#clip-path);}.cls-4{opacity:0.8;}.cls-5{fill:#f2b021;stroke:#fddca7;stroke-miterlimit:10;stroke-width:1.5px;}</style><clipPath id="clip-path"><rect class="cls-1" y="-3.07" width="1920.5" height="420.01"/></clipPath></defs><rect class="cls-2" y="-3.07" width="1920.5" height="426.14"/><g class="cls-3"><g class="cls-4"><polyline class="cls-5" points="297.6 250.72 297.6 383.9 289.54 383.9 289.54 250.72"/><line class="cls-5" x1="289.54" y1="126.57" x2="289.54" y2="47.98"/><line class="cls-5" x1="289.54" y1="207.21" x2="289.54" y2="163.59"/><line class="cls-5" x1="297.6" y1="207.21" x2="297.6" y2="47.98"/><path class="cls-5" d="M312.73,424.86v40.93H273.12V424.86a3.33,3.33,0,0,1,1.05-2.42l4.68-4.4V396.69a4.4,4.4,0,0,1,4.4-4.4H302.6a4.4,4.4,0,0,1,4.4,4.4V418l4.69,4.4A3.36,3.36,0,0,1,312.73,424.86Z"/><path class="cls-5" d="M292.29,383.89h1.28a8.4,8.4,0,0,1,8.4,8.4v0a0,0,0,0,1,0,0H283.89a0,0,0,0,1,0,0v0A8.4,8.4,0,0,1,292.29,383.89Z"/><path class="cls-5" d="M150.4,112.51s-17.7-3.6-30.15,18.81c-8.57,23.79,8.3,46.74,30.15,46.74,16.32.56,113.13,0,113.13,0s26.27-.55,31.53-28.49c3.32-28.48-25.17-37.27-25.17-37.27-.25-1.74-4-25.36-25.78-35.49-16.39-7.63-36.26-4.48-50.28,8-1.38-.5-16.39-5.64-29.88,3.87C152,97.18,150.57,110.59,150.4,112.51Z"/><path class="cls-5" d="M213.18,139.23a5.94,5.94,0,1,1-11.88,0Z"/><circle class="cls-5" cx="235.26" cy="139.23" r="3.7"/><circle class="cls-5" cx="177.11" cy="139.23" r="3.7"/><path class="cls-5" d="M387.82,307.95h9a3.25,3.25,0,0,1,3.25,3.25V317a3.25,3.25,0,0,1-3.25,3.25h-9a0,0,0,0,1,0,0V307.95A0,0,0,0,1,387.82,307.95Z"/><path class="cls-5" d="M387.82,331.3h9a3.25,3.25,0,0,1,3.25,3.25v5.77a3.25,3.25,0,0,1-3.25,3.25h-9a0,0,0,0,1,0,0V331.3A0,0,0,0,1,387.82,331.3Z"/><path class="cls-5" d="M387.82,354.66h9a3.25,3.25,0,0,1,3.25,3.25v5.77a3.25,3.25,0,0,1-3.25,3.25h-9a0,0,0,0,1,0,0V354.66A0,0,0,0,1,387.82,354.66Z"/><path class="cls-5" d="M321.72,307.95h9A3.25,3.25,0,0,1,334,311.2V317a3.25,3.25,0,0,1-3.25,3.25h-9a0,0,0,0,1,0,0V307.95A0,0,0,0,1,321.72,307.95Z" transform="translate(655.72 628.16) rotate(180)"/><path class="cls-5" d="M321.72,331.3h9a3.25,3.25,0,0,1,3.25,3.25v5.77a3.25,3.25,0,0,1-3.25,3.25h-9a0,0,0,0,1,0,0V331.3A0,0,0,0,1,321.72,331.3Z" transform="translate(655.72 674.88) rotate(180)"/><path class="cls-5" d="M321.72,354.66h9a3.25,3.25,0,0,1,3.25,3.25v5.77a3.25,3.25,0,0,1-3.25,3.25h-9a0,0,0,0,1,0,0V354.66A0,0,0,0,1,321.72,354.66Z" transform="translate(655.72 721.59) rotate(-180)"/><polyline class="cls-5" points="363.9 374.05 363.9 432.22 411.73 432.22"/><polyline class="cls-5" points="359.48 374.05 359.48 432.22 352.23 432.22"/><g id="INSERT"><g id="CIRCLE"><path class="cls-5" d="M362.51,327.67a2.27,2.27,0,1,0-3.21,0,2.25,2.25,0,0,0,3.21,0Z"/></g></g><path class="cls-5" d="M347.72,322.84a4.51,4.51,0,0,0-6.41,0,4.61,4.61,0,0,0,0,6.46,4.51,4.51,0,0,0,6.41,0A4.57,4.57,0,0,0,347.72,322.84Zm-3.19,5.51-2.28-2.28,2.28-2.28,2.26,2.28Z"/><path class="cls-5" d="M380.49,322.84a4.51,4.51,0,0,0-6.41,0,4.59,4.59,0,0,0,0,6.46,4.51,4.51,0,0,0,6.41,0A4.58,4.58,0,0,0,380.49,322.84Zm-3.2,5.51L375,326.07l2.27-2.28,2.27,2.28Z"/><rect class="cls-5" x="333.99" y="300.77" width="53.83" height="73.33"/><path class="cls-5" d="M79.63,210A18.68,18.68,0,0,1,61,192.13h0"/><path class="cls-5" d="M105.57,210a18.67,18.67,0,0,0,18.66-17.91h0"/><path class="cls-5" d="M368.35,20.46A26.39,26.39,0,0,1,342-4.85h0a6.27,6.27,0,0,1,6.27-6.28,6.3,6.3,0,0,1,6.26,6.32v0a26.39,26.39,0,0,1-26.38,25.31"/><path class="cls-5" d="M446.15-4.81v0a26.39,26.39,0,0,1-26.37,25.31"/><polyline class="cls-5" points="380.13 28.72 380.13 111.66 376.77 111.66"/><polyline class="cls-5" points="408.11 28.72 408.11 61.3 404.75 61.3"/><rect class="cls-5" x="368.47" y="13.2" width="51.31" height="15.53"/><path class="cls-5" d="M375.21-11.9H413a6.74,6.74,0,0,1,6.74,6.74V9a0,0,0,0,1,0,0H368.47a0,0,0,0,1,0,0V-5.16A6.74,6.74,0,0,1,375.21-11.9Z"/><rect class="cls-5" x="359.72" y="8.96" width="68.79" height="4.24"/><rect class="cls-5" x="377.37" y="19.13" width="5.54" height="1.78"/><rect class="cls-5" x="405.33" y="19.13" width="5.54" height="1.78"/><g id="INSERT-2" data-name="INSERT"><g id="CIRCLE-2" data-name="CIRCLE"><path class="cls-5" d="M391.35,20a2.77,2.77,0,1,0,5.53,0"/></g></g><polyline class="cls-5" points="380.41 165.87 380.41 289.97 394.04 289.97"/><polyline class="cls-5" points="341.04 250.72 341.04 289.95 256.32 289.99"/><line class="cls-5" x1="341.04" y1="207.21" x2="341.04" y2="165.87"/><path class="cls-5" d="M382.47,159.83a3.53,3.53,0,0,1,0,5,3.62,3.62,0,0,1-5-.13L375,162.38l-.17-.18a1.41,1.41,0,0,0-1.74-.32,25.71,25.71,0,0,1-24.77,0,1.41,1.41,0,0,0-1.74.32l-.16.18L344,164.83a3.54,3.54,0,0,1-5-5l2.45-2.46h0a.72.72,0,0,0,.05-1,25.65,25.65,0,1,1,38.49,0,.73.73,0,0,0,0,1h0Z"/><g id="INSERT-3" data-name="INSERT"><g id="CIRCLE-3" data-name="CIRCLE"><path class="cls-5" d="M361.87,146.69a1.62,1.62,0,1,0-2.29-2.29,1.64,1.64,0,0,0,0,2.29,1.61,1.61,0,0,0,2.29,0Z"/></g></g><path class="cls-5" d="M348.33,143.26a3.2,3.2,0,0,0-4.57,0,3.26,3.26,0,0,0,0,4.59,3.22,3.22,0,0,0,4.57,0A3.25,3.25,0,0,0,348.33,143.26Zm-2.28,3.92-1.62-1.63,1.62-1.62,1.61,1.62Z"/><path class="cls-5" d="M377.69,143.26a3.2,3.2,0,0,0-4.57,0,3.28,3.28,0,0,0,0,4.59,3.22,3.22,0,0,0,4.57,0A3.25,3.25,0,0,0,377.69,143.26Zm-2.28,3.92-1.62-1.63,1.62-1.62,1.61,1.62Z"/><polyline class="cls-5" points="414.62 195.83 414.62 313.5 400.58 313.5"/><polyline class="cls-5" points="397.96 195.83 397.96 289.97 394.04 289.97"/><path class="cls-5" d="M415.44,190.28a.44.44,0,0,0-.1.59h0l1.13,1.71a2.1,2.1,0,1,1-3.5,2.31l-1.13-1.71h0a1.08,1.08,0,0,0-1.2-.46,15.33,15.33,0,0,1-8.7,0,1.08,1.08,0,0,0-1.2.46h0l-1.13,1.71a2.1,2.1,0,1,1-3.5-2.31l1.14-1.71h0a.43.43,0,0,0-.1-.59,15.18,15.18,0,1,1,18.3,0Z"/><g id="INSERT-4" data-name="INSERT"><g id="CIRCLE-4" data-name="CIRCLE"><path class="cls-5" d="M407.43,180.54a1.62,1.62,0,1,0-2.28,0,1.61,1.61,0,0,0,2.28,0Z"/></g></g><polygon class="cls-5" points="394.13 178.36 396.31 178.36 396.31 176.17 398.39 176.17 398.39 178.36 400.58 178.36 400.58 180.44 398.39 180.44 398.39 182.63 396.31 182.63 396.31 180.44 394.13 180.44 394.13 178.36"/><polygon class="cls-5" points="412 178.36 414.18 178.36 414.18 176.17 416.26 176.17 416.26 178.36 418.45 178.36 418.45 180.44 416.26 180.44 416.26 182.63 414.18 182.63 414.18 180.44 412 180.44 412 178.36"/><polyline class="cls-5" points="186.09 251.57 198.56 251.57 198.56 272.65"/><polyline class="cls-5" points="98.25 226.87 98.25 251.57 149.8 251.57"/><line class="cls-5" x1="87.67" y1="226.86" x2="87.67" y2="273.85"/><rect class="cls-5" x="76.92" y="221.45" width="31.36" height="5.41"/><path class="cls-5" d="M79.63,221.45V204.27a13,13,0,0,1,13-13h0a13,13,0,0,1,13,13v17.18"/><g id="INSERT-5" data-name="INSERT"><g id="CIRCLE-5" data-name="CIRCLE"><path class="cls-5" d="M93.28,212.27a1,1,0,1,0-1.36,0,1,1,0,0,0,1.36,0Z"/></g></g><path class="cls-5" d="M85.25,210.24a1.88,1.88,0,0,0-2.7,0,1.93,1.93,0,0,0,0,2.72,1.92,1.92,0,1,0,2.7-2.72Zm-1.35,2.32-1-1,1-1,1,1Z"/><path class="cls-5" d="M102.65,210.24a1.9,1.9,0,0,0-2.71,0,1.94,1.94,0,0,0,0,2.72,1.91,1.91,0,0,0,2.71,0A1.93,1.93,0,0,0,102.65,210.24Zm-1.35,2.32-1-1,1-1,1,1Z"/><line class="cls-5" x1="174.81" y1="391.79" x2="227" y2="391.79"/><path class="cls-5" d="M272.48,434.48a29.86,29.86,0,0,1-29.84-28.64h0a7.09,7.09,0,1,1,14.17,0v0A29.87,29.87,0,0,1,227,434.48"/><path class="cls-5" d="M227,440.16a6.07,6.07,0,0,1-6.07,6.07h-40a6.08,6.08,0,0,1-6.08-6.07v-51a6.08,6.08,0,0,1,6.08-6.08h40a6.08,6.08,0,0,1,6.07,6.08Z"/><path class="cls-5" d="M352.23,432.22a26.08,26.08,0,0,1-26.08-25h0a6.19,6.19,0,1,1,12.38,0v0a25.83,25.83,0,0,1-25.8,25"/><line class="cls-5" x1="219.59" y1="318.65" x2="219.61" y2="325.64"/><line class="cls-5" x1="228.57" y1="318.65" x2="228.59" y2="325.64"/><path class="cls-5" d="M148.63,401.31V407h0a26.09,26.09,0,0,0,26.07,25"/><path class="cls-5" d="M98.85,386.08A29.85,29.85,0,0,1,69,357.45h0"/><line class="cls-5" x1="116.77" y1="414.3" x2="116.77" y2="510.14"/><polyline class="cls-5" points="137.53 414.3 137.53 504.68 164.78 504.68"/><path class="cls-5" d="M156.07,382a28.85,28.85,0,1,0-45.84,23.27v8.77h12.83V408.3a25.74,25.74,0,0,0,8.34,0v5.76h12.81v-8.77A28.76,28.76,0,0,0,156.07,382Z"/><g id="INSERT-6" data-name="INSERT"><g id="CIRCLE-6" data-name="CIRCLE"><path class="cls-5" d="M126,388.23a1.69,1.69,0,1,1,2.38-2.39,1.69,1.69,0,0,1-2.38,2.39Z"/></g></g><polygon class="cls-5" points="147.66 385.95 145.37 385.95 145.37 383.66 143.19 383.66 143.19 385.95 140.9 385.95 140.9 388.12 143.19 388.12 143.19 390.41 145.37 390.41 145.37 388.12 147.66 388.12 147.66 385.95"/><polygon class="cls-5" points="111.79 383.88 110.17 385.49 108.56 383.88 107.02 385.41 108.64 387.03 107.01 388.65 108.55 390.19 110.17 388.56 111.8 390.19 113.33 388.65 111.71 387.03 113.32 385.41 111.79 383.88"/><circle class="cls-5" cx="224.61" cy="287.06" r="31.99"/><g id="INSERT-7" data-name="INSERT"><g id="CIRCLE-7" data-name="CIRCLE"><path class="cls-5" d="M227.57,290a4.19,4.19,0,1,0-5.92,0,4.19,4.19,0,0,0,5.92,0Z"/></g></g><path class="cls-5" d="M212.34,285.07a2.81,2.81,0,1,0,0,4A2.82,2.82,0,0,0,212.34,285.07Zm-2,3.39-1.41-1.4,1.41-1.4,1.4,1.4Z"/><path class="cls-5" d="M240.84,285.07a2.8,2.8,0,1,0,0,4A2.81,2.81,0,0,0,240.84,285.07Zm-2,3.39-1.4-1.4,1.4-1.4,1.41,1.4Z"/><polyline class="cls-5" points="236.81 349.73 236.81 426.07 234.19 426.07"/><polyline class="cls-5" points="215.03 349.73 215.03 376.57 212.41 376.57"/><rect class="cls-5" x="192.62" y="325.64" width="63.98" height="24.09"/><rect class="cls-5" x="208.38" y="335.69" width="3.99" height="3.99" transform="translate(-177.14 247.58) rotate(-44.99)"/><rect class="cls-5" x="236.85" y="335.69" width="3.99" height="3.99" transform="translate(-168.81 267.71) rotate(-44.99)"/><g id="INSERT-8" data-name="INSERT"><g id="CIRCLE-8" data-name="CIRCLE"><path class="cls-5" d="M226,337.69a1.41,1.41,0,1,0-2.82,0,1.41,1.41,0,0,0,2.82,0Z"/></g></g><path class="cls-5" d="M78.38,289.15s-10.94-2.22-18.63,11.63c-5.3,14.7,5.13,28.88,18.63,28.88,10.08.35,69.91,0,69.91,0s16.24-.34,19.49-17.6c2.05-17.61-15.56-23-15.56-23-.15-1.07-2.47-15.67-15.93-21.93a28.68,28.68,0,0,0-31.07,5c-.85-.31-10.13-3.49-18.47,2.39A20.75,20.75,0,0,0,78.38,289.15Z"/><path class="cls-5" d="M117.18,305.67a3.68,3.68,0,0,1-7.35,0Z"/><circle class="cls-5" cx="130.82" cy="305.67" r="2.29"/><circle class="cls-5" cx="94.89" cy="305.67" r="2.29"/><path class="cls-5" d="M417,67.78s-6.69-1.36-11.4,7.11c-3.24,9,3.14,17.68,11.4,17.68,6.18.21,42.79,0,42.79,0A12.75,12.75,0,0,0,471.72,81.8C473,71,462.2,67.7,462.2,67.7c-.09-.66-1.51-9.59-9.75-13.42a17.53,17.53,0,0,0-19,3,12.92,12.92,0,0,0-11.3,1.46A12.75,12.75,0,0,0,417,67.78Z"/><path class="cls-5" d="M440.76,77.88a2.25,2.25,0,0,1-4.5,0Z"/><circle class="cls-5" cx="449.11" cy="77.88" r="1.4"/><circle class="cls-5" cx="427.12" cy="77.88" r="1.4"/><path class="cls-5" d="M424.15,410.77l-3.38,3.38,3.38,3.38,3.38-3.38Zm-1.66,3.38,1.68-1.69,1.69,1.69-1.69,1.69Z"/><path class="cls-5" d="M451.9,410.77l-3.38,3.38,3.38,3.38,3.38-3.38Zm-1.66,3.38,1.69-1.69,1.69,1.69-1.69,1.69Z"/><g id="INSERT-9" data-name="INSERT"><g id="CIRCLE-9" data-name="CIRCLE"><path class="cls-5" d="M434.65,413.3a3.38,3.38,0,1,0,6.75,0"/></g></g><circle class="cls-5" cx="417.79" cy="395.64" r="2.68"/><circle class="cls-5" cx="458.27" cy="395.64" r="2.68"/><rect class="cls-5" x="411.73" y="389.64" width="52.59" height="126.63" rx="5.08"/><line class="cls-5" x1="427.11" y1="361.38" x2="427.11" y2="389.23"/><line class="cls-5" x1="448.7" y1="361.38" x2="448.7" y2="389.23"/><polyline class="cls-5" points="423.86 317.28 423.86 313.5 430.64 313.5 430.64 317.28"/><polyline class="cls-5" points="445.31 317.28 445.31 313.5 452.09 313.5 452.09 317.28"/><polyline class="cls-5" points="423.86 357.41 423.86 361.38 430.64 361.38 430.64 357.41"/><polyline class="cls-5" points="445.31 357.41 445.31 361.38 452.09 361.38 452.09 357.41"/><path class="cls-5" d="M458.14,337.44A20.11,20.11,0,1,1,438,317.33,20.11,20.11,0,0,1,458.14,337.44Z"/><path class="cls-5" d="M458.14,352.19a5.35,5.35,0,0,1-5.35,5.36H423.26a5.35,5.35,0,0,1-5.34-5.36V322.68a5.35,5.35,0,0,1,5.34-5.36h29.53a5.35,5.35,0,0,1,5.35,5.36Z"/><rect class="cls-5" x="448.94" y="336.15" width="5.39" height="1.73"/><rect class="cls-5" x="421.72" y="336.15" width="5.39" height="1.73"/><g id="INSERT-10" data-name="INSERT"><g id="CIRCLE-10" data-name="CIRCLE"><path class="cls-5" d="M440.72,337a2.7,2.7,0,0,1-5.39,0"/></g></g><path class="cls-5" d="M426.63,142.16a26.39,26.39,0,0,1-26.37-25.31h0a6.26,6.26,0,1,1,12.52,0v0a26.39,26.39,0,0,1-26.38,25.31"/><path class="cls-5" d="M297.6,142.07a26.34,26.34,0,0,0,17.85-9.21,26.27,26.27,0,0,1-6.26-16,6.25,6.25,0,0,1,1.83-4.42,6.19,6.19,0,0,1,4.43-1.85,6.28,6.28,0,0,1,6.25,6.27,26.27,26.27,0,0,1-6.25,16,26.26,26.26,0,0,0,20.1,9.29"/><path class="cls-5" d="M192.86,20.46A26.39,26.39,0,0,1,166.49-4.85h0a6.27,6.27,0,0,1,6.26-6.28A6.3,6.3,0,0,1,179-4.81v0a26.39,26.39,0,0,1-26.38,25.31"/><path class="cls-5" d="M78.34,20.46A26.39,26.39,0,0,1,52-4.85h0"/><polyline class="cls-5" points="462.6 175.59 462.6 289.97 517.71 289.97"/><polyline class="cls-5" points="435.86 175.59 435.86 289.97 431.94 289.97"/><path class="cls-5" d="M438.24,150.62a3.23,3.23,0,1,0,0,4.57A3.24,3.24,0,0,0,438.24,150.62ZM436,154.53l-1.62-1.62,1.62-1.62,1.62,1.62Z"/><path class="cls-5" d="M464.79,150.62a3.23,3.23,0,1,0,0,4.57A3.24,3.24,0,0,0,464.79,150.62Zm-2.28,3.91-1.62-1.62,1.62-1.62,1.62,1.62Z"/><g id="INSERT-11" data-name="INSERT"><g id="CIRCLE-11" data-name="CIRCLE"><path class="cls-5" d="M446,152.91a3.23,3.23,0,0,0,6.45,0"/></g></g><path class="cls-5" d="M463.19,167.11a.67.67,0,0,0-.16.91h0l1.72,2.61a3.19,3.19,0,1,1-5.33,3.52l-1.72-2.61h0a1.67,1.67,0,0,0-1.89-.68,23.39,23.39,0,0,1-13.23,0,1.6,1.6,0,0,0-1.8.71h0L439,174.15a3.19,3.19,0,1,1-5.33-3.52l1.72-2.61h0a.65.65,0,0,0-.13-.88,23.15,23.15,0,1,1,27.88,0Z"/><polyline class="cls-5" points="276.04 47.97 276.04 100.3 272.68 100.3"/><polyline class="cls-5" points="248.06 47.97 248.06 104.65 244.7 104.65"/><rect class="cls-5" x="192.62" y="-10.42" width="135.5" height="58.39" rx="6.3"/><rect class="cls-5" x="203.73" y="6.52" width="10.3" height="14.65"/><rect class="cls-5" x="203.73" y="21.18" width="10.3" height="14.65"/><rect class="cls-5" x="214.03" y="6.52" width="10.3" height="14.65"/><rect class="cls-5" x="214.03" y="21.18" width="10.3" height="14.65"/><rect class="cls-5" x="224.33" y="6.52" width="10.3" height="14.65"/><rect class="cls-5" x="224.33" y="21.18" width="10.3" height="14.65"/><rect class="cls-5" x="234.62" y="6.52" width="10.3" height="14.65"/><rect class="cls-5" x="234.62" y="21.18" width="10.3" height="14.65"/><rect class="cls-5" x="244.92" y="6.52" width="10.3" height="14.65"/><rect class="cls-5" x="244.92" y="21.18" width="10.3" height="14.65"/><rect class="cls-5" x="255.22" y="6.52" width="10.3" height="14.65"/><rect class="cls-5" x="255.22" y="21.18" width="10.3" height="14.65"/><rect class="cls-5" x="265.52" y="6.52" width="10.3" height="14.65"/><rect class="cls-5" x="265.52" y="21.18" width="10.3" height="14.65"/><rect class="cls-5" x="275.82" y="6.52" width="10.3" height="14.65"/><rect class="cls-5" x="275.82" y="21.18" width="10.3" height="14.65"/><rect class="cls-5" x="286.12" y="6.52" width="10.3" height="14.65"/><rect class="cls-5" x="286.12" y="21.18" width="10.3" height="14.65"/><rect class="cls-5" x="296.42" y="6.52" width="10.3" height="14.65"/><rect class="cls-5" x="296.42" y="21.18" width="10.3" height="14.65"/><rect class="cls-5" x="306.72" y="6.52" width="10.3" height="14.65"/><rect class="cls-5" x="306.72" y="21.18" width="10.3" height="14.65"/><g id="INSERT-12" data-name="INSERT"><g id="CIRCLE-12" data-name="CIRCLE"><path class="cls-5" d="M261.35-1a1.4,1.4,0,0,0,0-2,1.39,1.39,0,0,0-2,0,1.4,1.4,0,0,0,0,2,1.37,1.37,0,0,0,2,0Z"/></g></g><path class="cls-5" d="M249.73-4a2.75,2.75,0,0,0-3.91,0,2.8,2.8,0,0,0,0,3.94,2.75,2.75,0,0,0,3.91,0A2.79,2.79,0,0,0,249.73-4ZM247.78-.63,246.39-2l1.39-1.39L249.17-2Z"/><path class="cls-5" d="M274.92-4A2.76,2.76,0,0,0,271-4a2.8,2.8,0,0,0,0,3.94,2.76,2.76,0,0,0,3.92,0A2.79,2.79,0,0,0,274.92-4ZM273-.63,271.58-2,273-3.42,274.35-2Z"/><polyline class="cls-5" points="177.7 268.49 177.7 320.18 174.34 320.18"/><polyline class="cls-5" points="158.19 268.49 158.19 287.85 154.83 287.85"/><path class="cls-5" d="M155.42,234.88h25a5.63,5.63,0,0,1,5.63,5.63v22a0,0,0,0,1,0,0H149.8a0,0,0,0,1,0,0v-22A5.63,5.63,0,0,1,155.42,234.88Z"/><rect class="cls-5" x="173.84" y="262.55" width="7.71" height="5.94"/><rect class="cls-5" x="154.34" y="262.55" width="7.71" height="5.94" transform="translate(316.39 531.04) rotate(180)"/><g id="INSERT-13" data-name="INSERT"><g id="CIRCLE-13" data-name="CIRCLE"><path class="cls-5" d="M168.92,250.68a1.39,1.39,0,1,0-2-2,1.41,1.41,0,0,0,0,2,1.37,1.37,0,0,0,2,0Z"/></g></g><path class="cls-5" d="M159.9,247.74a2.74,2.74,0,0,0-3.92,0,2.79,2.79,0,0,0,0,3.93,2.74,2.74,0,0,0,3.92,0A2.78,2.78,0,0,0,159.9,247.74Zm-2,3.36-1.38-1.39,1.38-1.4,1.39,1.4Z"/><path class="cls-5" d="M179.91,247.74a2.74,2.74,0,0,0-3.92,0,2.79,2.79,0,0,0,0,3.93,2.74,2.74,0,0,0,3.92,0A2.8,2.8,0,0,0,179.91,247.74Zm-2,3.36-1.39-1.39,1.39-1.4,1.38,1.4Z"/><line class="cls-5" x1="91.42" y1="52.02" x2="91.42" y2="81.28"/><line class="cls-5" x1="87.31" y1="52.02" x2="87.31" y2="81.28"/><path class="cls-5" d="M48.12,89.87v0A24.53,24.53,0,0,1,72.64,66.38"/><path class="cls-5" d="M200.46,89.87v0a24.53,24.53,0,0,0-24.52-23.53"/><rect class="cls-5" x="72.64" y="52.02" width="103.31" height="29.33" rx="14.67"/><path class="cls-5" d="M112.18,69.78a2.77,2.77,0,1,0,0,3.91A2.78,2.78,0,0,0,112.18,69.78Zm-2,3.35-1.38-1.39,1.38-1.39,1.39,1.39Z"/><path class="cls-5" d="M140.33,69.78a2.77,2.77,0,1,0,0,3.91A2.78,2.78,0,0,0,140.33,69.78Zm-2,3.35L137,71.74l1.39-1.39,1.39,1.39Z"/><g id="INSERT-14" data-name="INSERT"><g id="CIRCLE-14" data-name="CIRCLE"><path class="cls-5" d="M121.53,71.74a2.77,2.77,0,1,0,5.53,0"/></g></g><rect class="cls-5" x="93.35" y="11.37" width="7.28" height="2.34"/><rect class="cls-5" x="130.1" y="11.37" width="7.28" height="2.34"/><g id="INSERT-15" data-name="INSERT"><g id="CIRCLE-15" data-name="CIRCLE"><path class="cls-5" d="M111.72,12.55a3.64,3.64,0,0,0,7.28,0"/></g></g><path class="cls-5" d="M149.42-66.5a5.61,5.61,0,0,1,3,5V37.58a5.66,5.66,0,0,1-5.65,5.66H84a5.66,5.66,0,0,1-5.65-5.66V-61.54a5.61,5.61,0,0,1,3-5"/><rect class="cls-5" x="250.68" y="207.21" width="112.07" height="43.51" rx="19.08" transform="translate(613.42 457.93) rotate(180)"/><line class="cls-5" x1="271.96" y1="260.29" x2="271.96" y2="289.99"/><polyline class="cls-5" points="341.31 260.29 341.31 297.18 345.46 297.18"/><rect class="cls-5" x="268.02" y="250.72" width="7.88" height="9.57" transform="translate(543.93 511.01) rotate(180)"/><rect class="cls-5" x="337.52" y="250.72" width="7.88" height="9.57"/><path class="cls-5" d="M339.23,236.08l3.55,3.55,3.56-3.55-3.56-3.56Zm3.52,1.77L341,236.08l1.77-1.78,1.78,1.78Z"/><path class="cls-5" d="M303.13,236.08l3.56,3.55,3.55-3.55-3.55-3.56Zm3.53,1.77-1.78-1.77,1.78-1.78,1.77,1.78Z"/><g id="CIRCLE-16" data-name="CIRCLE"><path class="cls-5" d="M328.28,235.19a3.55,3.55,0,1,1-7.09,0"/></g><line class="cls-5" x1="267.79" y1="250.02" x2="267.79" y2="207.91"/><line class="cls-5" x1="271.96" y1="250.02" x2="271.96" y2="207.91"/><polyline class="cls-5" points="335.07 -27.44 335.07 38.77 331.71 38.77"/></g><g class="cls-4"><polyline class="cls-5" points="733.47 250.72 733.47 383.9 741.53 383.9 741.53 250.72"/><line class="cls-5" x1="741.53" y1="126.57" x2="741.53" y2="47.98"/><line class="cls-5" x1="741.53" y1="207.21" x2="741.53" y2="163.59"/><line class="cls-5" x1="733.47" y1="207.21" x2="733.47" y2="47.98"/><path class="cls-5" d="M718.34,424.86v40.93H758V424.86a3.33,3.33,0,0,0-1.05-2.42l-4.69-4.4V396.69a4.4,4.4,0,0,0-4.4-4.4H728.47a4.4,4.4,0,0,0-4.4,4.4V418l-4.69,4.4A3.32,3.32,0,0,0,718.34,424.86Z"/><path class="cls-5" d="M729.1,383.89h18.08a0,0,0,0,1,0,0v0a8.4,8.4,0,0,1-8.4,8.4H737.5a8.4,8.4,0,0,1-8.4-8.4v0A0,0,0,0,1,729.1,383.89Z" transform="translate(1476.28 776.19) rotate(180)"/><path class="cls-5" d="M880.67,112.51s17.7-3.6,30.15,18.81c8.57,23.79-8.3,46.74-30.15,46.74-16.32.56-113.13,0-113.13,0s-26.28-.55-31.53-28.49c-3.32-28.48,25.17-37.27,25.17-37.27.24-1.74,4-25.36,25.78-35.49,16.39-7.63,36.25-4.48,50.28,8,1.38-.5,16.39-5.64,29.87,3.87C879.1,97.18,880.5,110.59,880.67,112.51Z"/><path class="cls-5" d="M817.88,139.23a5.95,5.95,0,0,0,11.89,0Z"/><circle class="cls-5" cx="795.81" cy="139.23" r="3.7"/><circle class="cls-5" cx="853.96" cy="139.23" r="3.7"/><path class="cls-5" d="M631,307.95h9a3.25,3.25,0,0,1,3.25,3.25V317a3.25,3.25,0,0,1-3.25,3.25h-9a0,0,0,0,1,0,0V307.95A0,0,0,0,1,631,307.95Z" transform="translate(1274.23 628.16) rotate(180)"/><path class="cls-5" d="M631,331.3h9a3.25,3.25,0,0,1,3.25,3.25v5.77a3.25,3.25,0,0,1-3.25,3.25h-9a0,0,0,0,1,0,0V331.3A0,0,0,0,1,631,331.3Z" transform="translate(1274.23 674.88) rotate(180)"/><path class="cls-5" d="M631,354.66h9a3.25,3.25,0,0,1,3.25,3.25v5.77a3.25,3.25,0,0,1-3.25,3.25h-9a0,0,0,0,1,0,0V354.66A0,0,0,0,1,631,354.66Z" transform="translate(1274.23 721.59) rotate(180)"/><path class="cls-5" d="M697.08,307.95h9a3.25,3.25,0,0,1,3.25,3.25V317a3.25,3.25,0,0,1-3.25,3.25h-9a0,0,0,0,1,0,0V307.95a0,0,0,0,1,0,0Z"/><path class="cls-5" d="M697.08,331.3h9a3.25,3.25,0,0,1,3.25,3.25v5.77a3.25,3.25,0,0,1-3.25,3.25h-9a0,0,0,0,1,0,0V331.3A0,0,0,0,1,697.08,331.3Z"/><path class="cls-5" d="M697.08,354.66h9a3.25,3.25,0,0,1,3.25,3.25v5.77a3.25,3.25,0,0,1-3.25,3.25h-9a0,0,0,0,1,0,0V354.66A0,0,0,0,1,697.08,354.66Z"/><polyline class="cls-5" points="667.17 374.05 667.17 432.22 619.34 432.22"/><polyline class="cls-5" points="671.59 374.05 671.59 432.22 678.84 432.22"/><g id="INSERT-16" data-name="INSERT"><g id="CIRCLE-17" data-name="CIRCLE"><path class="cls-5" d="M668.56,327.67a2.27,2.27,0,1,1,3.21,0,2.25,2.25,0,0,1-3.21,0Z"/></g></g><path class="cls-5" d="M683.34,329.3a4.53,4.53,0,0,0,6.42,0,4.61,4.61,0,0,0,0-6.46,4.53,4.53,0,0,0-6.42,0A4.58,4.58,0,0,0,683.34,329.3Zm.93-3.23,2.27-2.28,2.27,2.28-2.27,2.28Z"/><path class="cls-5" d="M650.57,329.3a4.53,4.53,0,0,0,6.42,0,4.59,4.59,0,0,0,0-6.46,4.53,4.53,0,0,0-6.42,0A4.59,4.59,0,0,0,650.57,329.3Zm.94-3.23,2.27-2.28,2.27,2.28-2.27,2.28Z"/><rect class="cls-5" x="643.25" y="300.77" width="53.83" height="73.33" transform="translate(1340.32 674.88) rotate(-180)"/><path class="cls-5" d="M951.44,210a18.67,18.67,0,0,0,18.65-17.91h0"/><path class="cls-5" d="M925.49,210a18.67,18.67,0,0,1-18.65-17.91h0"/><path class="cls-5" d="M662.72,20.46A26.39,26.39,0,0,0,689.09-4.85h0a6.27,6.27,0,0,0-6.26-6.28,6.3,6.3,0,0,0-6.26,6.32v0A26.39,26.39,0,0,0,703,20.46"/><path class="cls-5" d="M584.92-4.81v0a26.39,26.39,0,0,0,26.37,25.31"/><polyline class="cls-5" points="650.94 28.72 650.94 111.66 654.3 111.66"/><polyline class="cls-5" points="622.96 28.72 622.96 61.3 626.32 61.3"/><rect class="cls-5" x="611.29" y="13.2" width="51.31" height="15.53" transform="translate(1273.89 41.92) rotate(-180)"/><path class="cls-5" d="M611.29-11.9H662.6a0,0,0,0,1,0,0V2.22A6.74,6.74,0,0,1,655.86,9H618a6.74,6.74,0,0,1-6.74-6.74V-11.9A0,0,0,0,1,611.29-11.9Z" transform="translate(1273.89 -2.95) rotate(-180)"/><rect class="cls-5" x="602.55" y="8.96" width="68.79" height="4.24" transform="translate(1273.89 22.15) rotate(-180)"/><rect class="cls-5" x="648.16" y="19.13" width="5.54" height="1.78"/><rect class="cls-5" x="620.19" y="19.13" width="5.54" height="1.78"/><g id="INSERT-17" data-name="INSERT"><g id="CIRCLE-18" data-name="CIRCLE"><path class="cls-5" d="M639.72,20a2.77,2.77,0,1,1-5.54,0"/></g></g><polyline class="cls-5" points="650.65 165.87 650.65 289.97 637.03 289.97"/><polyline class="cls-5" points="690.03 250.72 690.03 289.95 774.74 289.99"/><line class="cls-5" x1="690.03" y1="207.21" x2="690.03" y2="165.87"/><path class="cls-5" d="M648.59,159.83a3.54,3.54,0,0,0,0,5,3.62,3.62,0,0,0,5-.13l2.37-2.37.17-.18a1.4,1.4,0,0,1,1.73-.32,25.71,25.71,0,0,0,24.77,0,1.41,1.41,0,0,1,1.74.32l.17.18,2.45,2.45a3.54,3.54,0,1,0,5-5l-2.46-2.46h0a.72.72,0,0,1,0-1,25.65,25.65,0,1,0-38.49,0,.75.75,0,0,1,0,1h0Z"/><g id="INSERT-18" data-name="INSERT"><g id="CIRCLE-19" data-name="CIRCLE"><path class="cls-5" d="M669.2,146.69a1.62,1.62,0,1,1,2.28,0,1.59,1.59,0,0,1-2.28,0Z"/></g></g><path class="cls-5" d="M682.74,147.85a3.22,3.22,0,0,0,4.57,0,3.28,3.28,0,0,0,0-4.59,3.2,3.2,0,0,0-4.57,0A3.25,3.25,0,0,0,682.74,147.85Zm.66-2.3,1.62-1.62,1.62,1.62L685,147.18Z"/><path class="cls-5" d="M653.38,147.85a3.21,3.21,0,0,0,4.56,0,3.26,3.26,0,0,0,0-4.59,3.19,3.19,0,0,0-4.56,0A3.25,3.25,0,0,0,653.38,147.85Zm.66-2.3,1.62-1.62,1.61,1.62-1.61,1.63Z"/><polyline class="cls-5" points="616.45 195.83 616.45 313.5 630.48 313.5"/><polyline class="cls-5" points="633.11 195.83 633.11 289.97 637.03 289.97"/><path class="cls-5" d="M615.62,190.28a.44.44,0,0,1,.11.59h0l-1.14,1.71a2.1,2.1,0,1,0,3.5,2.31l1.13-1.71h0a1.08,1.08,0,0,1,1.2-.46,15.33,15.33,0,0,0,8.7,0,1.08,1.08,0,0,1,1.2.46h0l1.13,1.71a2.1,2.1,0,1,0,3.5-2.31l-1.13-1.71h0a.44.44,0,0,1,.09-.59,15.18,15.18,0,1,0-18.3,0Z"/><g id="INSERT-19" data-name="INSERT"><g id="CIRCLE-20" data-name="CIRCLE"><path class="cls-5" d="M623.64,180.54a1.62,1.62,0,1,1,2.28,0,1.61,1.61,0,0,1-2.28,0Z"/></g></g><polygon class="cls-5" points="636.94 178.36 634.76 178.36 634.76 176.17 632.67 176.17 632.67 178.36 630.48 178.36 630.48 180.44 632.67 180.44 632.67 182.63 634.76 182.63 634.76 180.44 636.94 180.44 636.94 178.36"/><polygon class="cls-5" points="619.07 178.36 616.89 178.36 616.89 176.17 614.81 176.17 614.81 178.36 612.62 178.36 612.62 180.44 614.81 180.44 614.81 182.63 616.89 182.63 616.89 180.44 619.07 180.44 619.07 178.36"/><polyline class="cls-5" points="844.98 251.57 832.5 251.57 832.5 272.65"/><polyline class="cls-5" points="932.82 226.87 932.82 251.57 881.27 251.57"/><line class="cls-5" x1="943.4" y1="226.86" x2="943.4" y2="273.85"/><rect class="cls-5" x="922.79" y="221.45" width="31.36" height="5.41"/><path class="cls-5" d="M951.44,221.45V204.27a13,13,0,0,0-13-13h0a13,13,0,0,0-13,13v17.18"/><g id="INSERT-20" data-name="INSERT"><g id="CIRCLE-21" data-name="CIRCLE"><path class="cls-5" d="M937.79,212.27a1,1,0,1,1,1.36,0,1,1,0,0,1-1.36,0Z"/></g></g><path class="cls-5" d="M945.81,213a1.91,1.91,0,0,0,2.71,0,1.94,1.94,0,0,0,0-2.72,1.9,1.9,0,0,0-2.71,0A1.93,1.93,0,0,0,945.81,213Zm.4-1.36.95-1,1,1-1,1Z"/><path class="cls-5" d="M928.42,213a1.91,1.91,0,0,0,2.71,0,1.94,1.94,0,0,0,0-2.72,1.9,1.9,0,0,0-2.71,0A1.93,1.93,0,0,0,928.42,213Zm.39-1.36,1-1,1,1-1,1Z"/><line class="cls-5" x1="856.25" y1="391.79" x2="804.06" y2="391.79"/><path class="cls-5" d="M758.59,434.48a29.86,29.86,0,0,0,29.84-28.64h0a7.09,7.09,0,1,0-14.17,0v0a29.87,29.87,0,0,0,29.84,28.64"/><path class="cls-5" d="M804.06,440.16a6.08,6.08,0,0,0,6.08,6.07h40a6.07,6.07,0,0,0,6.07-6.07v-51a6.08,6.08,0,0,0-6.07-6.08h-40a6.08,6.08,0,0,0-6.08,6.08Z"/><path class="cls-5" d="M678.84,432.22a26.08,26.08,0,0,0,26.07-25h0a6.19,6.19,0,1,0-12.37,0v0a25.83,25.83,0,0,0,25.8,25"/><line class="cls-5" x1="811.48" y1="318.65" x2="811.46" y2="325.64"/><line class="cls-5" x1="802.5" y1="318.65" x2="802.48" y2="325.64"/><path class="cls-5" d="M882.44,401.31V407h0a26.09,26.09,0,0,1-26.07,25"/><path class="cls-5" d="M932.22,386.08a29.85,29.85,0,0,0,29.84-28.63h0"/><line class="cls-5" x1="914.3" y1="414.3" x2="914.3" y2="510.14"/><polyline class="cls-5" points="893.54 414.3 893.54 504.68 866.29 504.68"/><path class="cls-5" d="M875,382a28.85,28.85,0,1,1,45.84,23.27v8.77H908V408.3a25.74,25.74,0,0,1-8.34,0v5.76H886.85v-8.77A28.78,28.78,0,0,1,875,382Z"/><g id="INSERT-21" data-name="INSERT"><g id="CIRCLE-22" data-name="CIRCLE"><path class="cls-5" d="M905,388.23a1.69,1.69,0,1,0-2.38,0,1.68,1.68,0,0,0,2.38,0Z"/></g></g><polygon class="cls-5" points="883.41 385.95 885.69 385.95 885.69 383.66 887.88 383.66 887.88 385.95 890.17 385.95 890.17 388.12 887.88 388.12 887.88 390.41 885.69 390.41 885.69 388.12 883.41 388.12 883.41 385.95"/><polygon class="cls-5" points="919.28 383.88 920.89 385.49 922.51 383.88 924.05 385.41 922.43 387.03 924.05 388.65 922.52 390.19 920.89 388.56 919.27 390.19 917.74 388.65 919.36 387.03 917.75 385.41 919.28 383.88"/><circle class="cls-5" cx="806.46" cy="287.06" r="31.99"/><g id="INSERT-22" data-name="INSERT"><g id="CIRCLE-23" data-name="CIRCLE"><path class="cls-5" d="M803.5,290a4.19,4.19,0,1,1,5.92,0,4.19,4.19,0,0,1-5.92,0Z"/></g></g><path class="cls-5" d="M818.73,289a2.81,2.81,0,1,0,0-4A2.8,2.8,0,0,0,818.73,289Zm.58-2,1.4-1.4,1.4,1.4-1.4,1.4Z"/><path class="cls-5" d="M790.22,289a2.81,2.81,0,1,0,0-4A2.8,2.8,0,0,0,790.22,289Zm.58-2,1.4-1.4,1.41,1.4-1.41,1.4Z"/><polyline class="cls-5" points="794.26 349.73 794.26 426.07 796.87 426.07"/><polyline class="cls-5" points="816.04 349.73 816.04 376.57 818.66 376.57"/><rect class="cls-5" x="774.47" y="325.64" width="63.98" height="24.09" transform="translate(1612.91 675.37) rotate(-180)"/><rect class="cls-5" x="818.7" y="335.69" width="3.99" height="3.99" transform="translate(1.67 679.4) rotate(-45.01)"/><rect class="cls-5" x="790.23" y="335.69" width="3.99" height="3.99" transform="translate(-6.67 659.26) rotate(-45.01)"/><g id="INSERT-23" data-name="INSERT"><g id="CIRCLE-24" data-name="CIRCLE"><path class="cls-5" d="M805.05,337.69a1.41,1.41,0,1,1,2.82,0,1.41,1.41,0,0,1-2.82,0Z"/></g></g><path class="cls-5" d="M952.69,289.15s10.94-2.22,18.63,11.63c5.3,14.7-5.13,28.88-18.63,28.88-10.09.35-69.91,0-69.91,0s-16.24-.34-19.49-17.6c-2-17.61,15.55-23,15.55-23,.16-1.07,2.48-15.67,15.94-21.93a28.68,28.68,0,0,1,31.07,5c.85-.31,10.13-3.49,18.46,2.39A20.74,20.74,0,0,1,952.69,289.15Z"/><path class="cls-5" d="M913.89,305.67a3.67,3.67,0,0,0,7.34,0Z"/><circle class="cls-5" cx="900.24" cy="305.67" r="2.29"/><circle class="cls-5" cx="936.18" cy="305.67" r="2.29"/><path class="cls-5" d="M614.05,67.78s6.7-1.36,11.4,7.11c3.25,9-3.13,17.68-11.4,17.68-6.17.21-42.78,0-42.78,0A12.74,12.74,0,0,1,559.35,81.8c-1.26-10.78,9.51-14.1,9.51-14.1.1-.66,1.52-9.59,9.75-13.42a17.55,17.55,0,0,1,19,3,12.92,12.92,0,0,1,11.3,1.46A12.68,12.68,0,0,1,614.05,67.78Z"/><path class="cls-5" d="M590.31,77.88a2.25,2.25,0,1,0,4.49,0Z"/><circle class="cls-5" cx="581.96" cy="77.88" r="1.4"/><circle class="cls-5" cx="603.95" cy="77.88" r="1.4"/><path class="cls-5" d="M603.54,414.15l3.38,3.38,3.38-3.38-3.38-3.38Zm3.36,1.69-1.69-1.69,1.69-1.69,1.68,1.69Z"/><path class="cls-5" d="M575.79,414.15l3.37,3.38,3.38-3.38-3.38-3.38Zm3.35,1.69-1.69-1.69,1.69-1.69,1.69,1.69Z"/><g id="INSERT-24" data-name="INSERT"><g id="CIRCLE-25" data-name="CIRCLE"><path class="cls-5" d="M596.42,413.3a3.38,3.38,0,1,1-6.75,0"/></g></g><circle class="cls-5" cx="613.28" cy="395.64" r="2.68"/><circle class="cls-5" cx="572.8" cy="395.64" r="2.68"/><rect class="cls-5" x="566.75" y="389.64" width="52.59" height="126.63" rx="5.08" transform="translate(1186.08 905.92) rotate(-180)"/><line class="cls-5" x1="603.96" y1="361.38" x2="603.96" y2="389.23"/><line class="cls-5" x1="582.37" y1="361.38" x2="582.37" y2="389.23"/><polyline class="cls-5" points="607.2 317.28 607.2 313.5 600.43 313.5 600.43 317.28"/><polyline class="cls-5" points="585.75 317.28 585.75 313.5 578.98 313.5 578.98 317.28"/><polyline class="cls-5" points="607.2 357.41 607.2 361.38 600.43 361.38 600.43 357.41"/><polyline class="cls-5" points="585.75 357.41 585.75 361.38 578.98 361.38 578.98 357.41"/><path class="cls-5" d="M572.93,337.44A20.11,20.11,0,1,0,593,317.33,20.11,20.11,0,0,0,572.93,337.44Z"/><path class="cls-5" d="M572.93,352.19a5.35,5.35,0,0,0,5.35,5.36h29.53a5.35,5.35,0,0,0,5.34-5.36V322.68a5.35,5.35,0,0,0-5.34-5.36H578.28a5.35,5.35,0,0,0-5.35,5.36Z"/><rect class="cls-5" x="576.73" y="336.15" width="5.39" height="1.73"/><rect class="cls-5" x="603.96" y="336.15" width="5.39" height="1.73"/><g id="INSERT-25" data-name="INSERT"><g id="CIRCLE-26" data-name="CIRCLE"><path class="cls-5" d="M590.35,337a2.69,2.69,0,1,0,5.38,0"/></g></g><path class="cls-5" d="M604.44,142.16a26.39,26.39,0,0,0,26.37-25.31h0a6.26,6.26,0,1,0-12.52,0v0a26.39,26.39,0,0,0,26.38,25.31"/><path class="cls-5" d="M733.47,142.07a26.32,26.32,0,0,1-17.85-9.21,26.27,26.27,0,0,0,6.26-16,6.25,6.25,0,0,0-1.83-4.42,6.19,6.19,0,0,0-4.43-1.85,6.28,6.28,0,0,0-6.25,6.27,26.21,26.21,0,0,0,6.25,16,26.28,26.28,0,0,1-20.1,9.29"/><path class="cls-5" d="M838.21,20.46A26.39,26.39,0,0,0,864.58-4.85h0a6.27,6.27,0,0,0-6.26-6.28,6.29,6.29,0,0,0-6.26,6.32v0a26.39,26.39,0,0,0,26.38,25.31"/><path class="cls-5" d="M952.73,20.46A26.39,26.39,0,0,0,979.1-4.85h0"/><polyline class="cls-5" points="568.47 175.59 568.47 289.97 513.36 289.97"/><polyline class="cls-5" points="595.21 175.59 595.21 289.97 599.12 289.97"/><path class="cls-5" d="M592.83,155.19a3.23,3.23,0,1,0,0-4.57A3.24,3.24,0,0,0,592.83,155.19Zm.66-2.28,1.62-1.62,1.61,1.62-1.61,1.62Z"/><path class="cls-5" d="M566.28,155.19a3.23,3.23,0,1,0,0-4.57A3.24,3.24,0,0,0,566.28,155.19Zm.66-2.28,1.62-1.62,1.62,1.62-1.62,1.62Z"/><g id="INSERT-26" data-name="INSERT"><g id="CIRCLE-27" data-name="CIRCLE"><path class="cls-5" d="M585.06,152.91a3.23,3.23,0,0,1-6.45,0"/></g></g><path class="cls-5" d="M567.88,167.11a.68.68,0,0,1,.16.91h0l-1.73,2.61a3.2,3.2,0,1,0,5.34,3.52l1.72-2.61h0a1.66,1.66,0,0,1,1.89-.68,23.35,23.35,0,0,0,13.22,0,1.59,1.59,0,0,1,1.8.71h0l1.72,2.61a3.2,3.2,0,0,0,5.34-3.52L595.63,168h0a.65.65,0,0,1,.13-.88,23.15,23.15,0,1,0-27.88,0Z"/><polyline class="cls-5" points="755.02 47.97 755.02 100.3 758.38 100.3"/><polyline class="cls-5" points="783.01 47.97 783.01 104.65 786.37 104.65"/><rect class="cls-5" x="702.95" y="-10.42" width="135.5" height="58.39" rx="6.3" transform="translate(1541.39 37.55) rotate(-180)"/><rect class="cls-5" x="817.04" y="6.52" width="10.3" height="14.65" transform="translate(1644.38 27.7) rotate(-180)"/><rect class="cls-5" x="817.04" y="21.18" width="10.3" height="14.65" transform="translate(1644.38 57.01) rotate(-180)"/><rect class="cls-5" x="806.74" y="6.52" width="10.3" height="14.65" transform="translate(1623.78 27.7) rotate(-180)"/><rect class="cls-5" x="806.74" y="21.18" width="10.3" height="14.65" transform="translate(1623.78 57.01) rotate(-180)"/><rect class="cls-5" x="796.44" y="6.52" width="10.3" height="14.65" transform="translate(1603.18 27.7) rotate(-180)"/><rect class="cls-5" x="796.44" y="21.18" width="10.3" height="14.65" transform="translate(1603.18 57.01) rotate(-180)"/><rect class="cls-5" x="786.14" y="6.52" width="10.3" height="14.65" transform="translate(1582.59 27.7) rotate(-180)"/><rect class="cls-5" x="786.14" y="21.18" width="10.3" height="14.65" transform="translate(1582.59 57.01) rotate(-180)"/><rect class="cls-5" x="775.85" y="6.52" width="10.3" height="14.65" transform="translate(1561.99 27.7) rotate(-180)"/><rect class="cls-5" x="775.85" y="21.18" width="10.3" height="14.65" transform="translate(1561.99 57.01) rotate(-180)"/><rect class="cls-5" x="765.55" y="6.52" width="10.3" height="14.65" transform="translate(1541.39 27.7) rotate(-180)"/><rect class="cls-5" x="765.55" y="21.18" width="10.3" height="14.65" transform="translate(1541.39 57.01) rotate(-180)"/><rect class="cls-5" x="755.25" y="6.52" width="10.3" height="14.65" transform="translate(1520.79 27.7) rotate(-180)"/><rect class="cls-5" x="755.25" y="21.18" width="10.3" height="14.65" transform="translate(1520.79 57.01) rotate(-180)"/><rect class="cls-5" x="744.95" y="6.52" width="10.3" height="14.65" transform="translate(1500.2 27.7) rotate(-180)"/><rect class="cls-5" x="744.95" y="21.18" width="10.3" height="14.65" transform="translate(1500.2 57.01) rotate(-180)"/><rect class="cls-5" x="734.65" y="6.52" width="10.3" height="14.65" transform="translate(1479.6 27.7) rotate(-180)"/><rect class="cls-5" x="734.65" y="21.18" width="10.3" height="14.65" transform="translate(1479.6 57.01) rotate(-180)"/><rect class="cls-5" x="724.35" y="6.52" width="10.3" height="14.65" transform="translate(1459 27.7) rotate(-180)"/><rect class="cls-5" x="724.35" y="21.18" width="10.3" height="14.65" transform="translate(1459 57.01) rotate(-180)"/><rect class="cls-5" x="714.05" y="6.52" width="10.3" height="14.65" transform="translate(1438.4 27.7) rotate(-180)"/><rect class="cls-5" x="714.05" y="21.18" width="10.3" height="14.65" transform="translate(1438.4 57.01) rotate(-180)"/><g id="INSERT-27" data-name="INSERT"><g id="CIRCLE-28" data-name="CIRCLE"><path class="cls-5" d="M769.72-1a1.39,1.39,0,0,1,0-2,1.39,1.39,0,0,1,2,0,1.4,1.4,0,0,1,0,2,1.37,1.37,0,0,1-2,0Z"/></g></g><path class="cls-5" d="M781.33-.06a2.76,2.76,0,0,0,3.92,0,2.8,2.8,0,0,0,0-3.94,2.76,2.76,0,0,0-3.92,0A2.79,2.79,0,0,0,781.33-.06Zm.57-2,1.39-1.39L784.67-2l-1.38,1.4Z"/><path class="cls-5" d="M756.15-.06a2.75,2.75,0,0,0,3.91,0,2.8,2.8,0,0,0,0-3.94,2.75,2.75,0,0,0-3.91,0A2.79,2.79,0,0,0,756.15-.06Zm.57-2,1.38-1.39L759.49-2,758.1-.63Z"/><polyline class="cls-5" points="853.37 268.49 853.37 320.18 856.73 320.18"/><polyline class="cls-5" points="872.88 268.49 872.88 287.85 876.24 287.85"/><path class="cls-5" d="M845,234.88h36.29a0,0,0,0,1,0,0v22a5.63,5.63,0,0,1-5.63,5.63h-25a5.63,5.63,0,0,1-5.63-5.63v-22A0,0,0,0,1,845,234.88Z" transform="translate(1726.24 497.43) rotate(-180)"/><rect class="cls-5" x="849.52" y="262.55" width="7.71" height="5.94" transform="translate(1706.74 531.04) rotate(-180)"/><rect class="cls-5" x="869.02" y="262.55" width="7.71" height="5.94"/><g id="INSERT-28" data-name="INSERT"><g id="CIRCLE-29" data-name="CIRCLE"><path class="cls-5" d="M862.14,250.68a1.4,1.4,0,0,1,0-2,1.37,1.37,0,0,1,2,0,1.39,1.39,0,0,1,0,2,1.37,1.37,0,0,1-2,0Z"/></g></g><path class="cls-5" d="M871.17,251.67a2.74,2.74,0,0,0,3.92,0,2.81,2.81,0,0,0,0-3.93,2.74,2.74,0,0,0-3.92,0A2.78,2.78,0,0,0,871.17,251.67Zm.57-2,1.38-1.4,1.39,1.4-1.39,1.39Z"/><path class="cls-5" d="M851.16,251.67a2.74,2.74,0,0,0,3.92,0,2.79,2.79,0,0,0,0-3.93,2.74,2.74,0,0,0-3.92,0A2.79,2.79,0,0,0,851.16,251.67Zm.57-2,1.39-1.4,1.39,1.4-1.39,1.39Z"/><line class="cls-5" x1="939.65" y1="52.02" x2="939.65" y2="81.28"/><line class="cls-5" x1="943.76" y1="52.02" x2="943.76" y2="81.28"/><path class="cls-5" d="M982.94,89.87v0a24.53,24.53,0,0,0-24.52-23.53"/><path class="cls-5" d="M830.6,89.87v0a24.53,24.53,0,0,1,24.52-23.53"/><rect class="cls-5" x="855.12" y="52.02" width="103.31" height="29.33" rx="14.67" transform="translate(1813.54 133.38) rotate(-180)"/><path class="cls-5" d="M918.89,73.69a2.77,2.77,0,1,0,0-3.91A2.76,2.76,0,0,0,918.89,73.69Zm.57-2,1.39-1.39,1.38,1.39-1.38,1.39Z"/><path class="cls-5" d="M890.74,73.69a2.77,2.77,0,1,0,0-3.91A2.76,2.76,0,0,0,890.74,73.69Zm.57-2,1.39-1.39,1.38,1.39-1.38,1.39Z"/><g id="INSERT-29" data-name="INSERT"><g id="CIRCLE-30" data-name="CIRCLE"><path class="cls-5" d="M909.54,71.74a2.77,2.77,0,1,1-5.54,0"/></g></g><rect class="cls-5" x="930.44" y="11.37" width="7.28" height="2.34"/><rect class="cls-5" x="893.69" y="11.37" width="7.28" height="2.34"/><g id="INSERT-30" data-name="INSERT"><g id="CIRCLE-31" data-name="CIRCLE"><path class="cls-5" d="M919.34,12.55a3.64,3.64,0,0,1-7.27,0"/></g></g><path class="cls-5" d="M881.65-66.5a5.61,5.61,0,0,0-3,5V37.58a5.66,5.66,0,0,0,5.65,5.66h62.74a5.66,5.66,0,0,0,5.66-5.66V-61.54a5.61,5.61,0,0,0-3-5"/><rect class="cls-5" x="668.32" y="207.21" width="112.07" height="43.51" rx="19.08"/><line class="cls-5" x1="759.1" y1="260.29" x2="759.1" y2="289.99"/><polyline class="cls-5" points="689.76 260.29 689.76 297.18 685.61 297.18"/><rect class="cls-5" x="755.16" y="250.72" width="7.88" height="9.57"/><rect class="cls-5" x="685.67" y="250.72" width="7.88" height="9.57" transform="translate(1379.21 511.01) rotate(-180)"/><path class="cls-5" d="M688.29,232.52l-3.56,3.56,3.56,3.55,3.55-3.55Zm-1.75,3.56,1.77-1.78,1.78,1.78-1.78,1.77Z"/><path class="cls-5" d="M724.38,232.52l-3.56,3.56,3.56,3.55,3.56-3.55Zm-1.75,3.56,1.78-1.78,1.78,1.78-1.78,1.77Z"/><g id="CIRCLE-32" data-name="CIRCLE"><path class="cls-5" d="M702.79,235.19a3.55,3.55,0,1,0,7.09,0"/></g><line class="cls-5" x1="763.28" y1="250.02" x2="763.28" y2="207.91"/><line class="cls-5" x1="759.1" y1="250.02" x2="759.1" y2="207.91"/><polyline class="cls-5" points="696 -27.44 696 38.77 699.36 38.77"/></g><g class="cls-4"><polyline class="cls-5" points="1186.53 250.72 1186.53 383.9 1178.47 383.9 1178.47 250.72"/><line class="cls-5" x1="1178.47" y1="126.57" x2="1178.47" y2="47.98"/><line class="cls-5" x1="1178.47" y1="207.21" x2="1178.47" y2="163.59"/><line class="cls-5" x1="1186.53" y1="207.21" x2="1186.53" y2="47.98"/><path class="cls-5" d="M1201.66,424.86v40.93h-39.61V424.86a3.33,3.33,0,0,1,1-2.42l4.69-4.4V396.69a4.4,4.4,0,0,1,4.4-4.4h19.34a4.4,4.4,0,0,1,4.4,4.4V418l4.69,4.4A3.32,3.32,0,0,1,1201.66,424.86Z"/><path class="cls-5" d="M1181.22,383.89h1.28a8.4,8.4,0,0,1,8.4,8.4v0a0,0,0,0,1,0,0h-18.08a0,0,0,0,1,0,0v0A8.4,8.4,0,0,1,1181.22,383.89Z"/><path class="cls-5" d="M1039.33,112.51s-17.7-3.6-30.15,18.81c-8.57,23.79,8.3,46.74,30.15,46.74,16.32.56,113.13,0,113.13,0s26.28-.55,31.53-28.49c3.32-28.48-25.17-37.27-25.17-37.27-.24-1.74-4-25.36-25.78-35.49-16.39-7.63-36.25-4.48-50.28,8-1.38-.5-16.39-5.64-29.87,3.87C1040.9,97.18,1039.5,110.59,1039.33,112.51Z"/><path class="cls-5" d="M1102.12,139.23a5.95,5.95,0,0,1-11.89,0Z"/><circle class="cls-5" cx="1124.19" cy="139.23" r="3.7"/><circle class="cls-5" cx="1066.04" cy="139.23" r="3.7"/><path class="cls-5" d="M1276.75,307.95h9a3.25,3.25,0,0,1,3.25,3.25V317a3.25,3.25,0,0,1-3.25,3.25h-9a0,0,0,0,1,0,0V307.95a0,0,0,0,1,0,0Z"/><path class="cls-5" d="M1276.75,331.3h9a3.25,3.25,0,0,1,3.25,3.25v5.77a3.25,3.25,0,0,1-3.25,3.25h-9a0,0,0,0,1,0,0V331.3a0,0,0,0,1,0,0Z"/><path class="cls-5" d="M1276.75,354.66h9a3.25,3.25,0,0,1,3.25,3.25v5.77a3.25,3.25,0,0,1-3.25,3.25h-9a0,0,0,0,1,0,0V354.66A0,0,0,0,1,1276.75,354.66Z"/><path class="cls-5" d="M1210.66,307.95h9a3.25,3.25,0,0,1,3.25,3.25V317a3.25,3.25,0,0,1-3.25,3.25h-9a0,0,0,0,1,0,0V307.95A0,0,0,0,1,1210.66,307.95Z" transform="translate(2433.58 628.16) rotate(180)"/><path class="cls-5" d="M1210.66,331.3h9a3.25,3.25,0,0,1,3.25,3.25v5.77a3.25,3.25,0,0,1-3.25,3.25h-9a0,0,0,0,1,0,0V331.3A0,0,0,0,1,1210.66,331.3Z" transform="translate(2433.58 674.88) rotate(180)"/><path class="cls-5" d="M1210.66,354.66h9a3.25,3.25,0,0,1,3.25,3.25v5.77a3.25,3.25,0,0,1-3.25,3.25h-9a0,0,0,0,1,0,0V354.66A0,0,0,0,1,1210.66,354.66Z" transform="translate(2433.58 721.59) rotate(-180)"/><polyline class="cls-5" points="1252.83 374.05 1252.83 432.22 1300.66 432.22"/><polyline class="cls-5" points="1248.41 374.05 1248.41 432.22 1241.16 432.22"/><g id="INSERT-31" data-name="INSERT"><g id="CIRCLE-33" data-name="CIRCLE"><path class="cls-5" d="M1251.44,327.67a2.27,2.27,0,1,0-3.21,0,2.25,2.25,0,0,0,3.21,0Z"/></g></g><path class="cls-5" d="M1236.66,322.84a4.53,4.53,0,0,0-6.42,0,4.61,4.61,0,0,0,0,6.46,4.53,4.53,0,0,0,6.42,0A4.58,4.58,0,0,0,1236.66,322.84Zm-3.2,5.51-2.27-2.28,2.27-2.28,2.27,2.28Z"/><path class="cls-5" d="M1269.43,322.84a4.53,4.53,0,0,0-6.42,0,4.59,4.59,0,0,0,0,6.46,4.53,4.53,0,0,0,6.42,0A4.59,4.59,0,0,0,1269.43,322.84Zm-3.21,5.51-2.27-2.28,2.27-2.28,2.27,2.28Z"/><rect class="cls-5" x="1222.92" y="300.77" width="53.83" height="73.33"/><path class="cls-5" d="M968.56,210a18.67,18.67,0,0,1-18.65-17.91h0"/><path class="cls-5" d="M994.51,210a18.67,18.67,0,0,0,18.65-17.91h0"/><path class="cls-5" d="M1257.28,20.46a26.39,26.39,0,0,1-26.37-25.31h0a6.27,6.27,0,0,1,6.26-6.28,6.3,6.3,0,0,1,6.26,6.32v0a26.39,26.39,0,0,1-26.38,25.31"/><path class="cls-5" d="M1335.08-4.81v0a26.39,26.39,0,0,1-26.37,25.31"/><polyline class="cls-5" points="1269.06 28.72 1269.06 111.66 1265.7 111.66"/><polyline class="cls-5" points="1297.05 28.72 1297.05 61.3 1293.68 61.3"/><rect class="cls-5" x="1257.4" y="13.2" width="51.31" height="15.53"/><path class="cls-5" d="M1264.14-11.9H1302a6.74,6.74,0,0,1,6.74,6.74V9a0,0,0,0,1,0,0H1257.4a0,0,0,0,1,0,0V-5.16A6.74,6.74,0,0,1,1264.14-11.9Z"/><rect class="cls-5" x="1248.66" y="8.96" width="68.79" height="4.24"/><rect class="cls-5" x="1266.3" y="19.13" width="5.54" height="1.78"/><rect class="cls-5" x="1294.27" y="19.13" width="5.54" height="1.78"/><g id="INSERT-32" data-name="INSERT"><g id="CIRCLE-34" data-name="CIRCLE"><path class="cls-5" d="M1280.28,20a2.77,2.77,0,0,0,5.54,0"/></g></g><polyline class="cls-5" points="1269.35 165.87 1269.35 289.97 1282.97 289.97"/><polyline class="cls-5" points="1229.97 250.72 1229.97 289.95 1145.26 289.99"/><line class="cls-5" x1="1229.97" y1="207.21" x2="1229.97" y2="165.87"/><path class="cls-5" d="M1271.41,159.83a3.54,3.54,0,0,1-.05,5,3.62,3.62,0,0,1-5-.13l-2.37-2.37-.17-.18a1.4,1.4,0,0,0-1.73-.32,25.71,25.71,0,0,1-24.77,0,1.41,1.41,0,0,0-1.74.32l-.17.18-2.45,2.45a3.54,3.54,0,1,1-5-5l2.46-2.46h0a.72.72,0,0,0,.05-1,25.65,25.65,0,1,1,38.49,0,.75.75,0,0,0,0,1h0Z"/><g id="INSERT-33" data-name="INSERT"><g id="CIRCLE-35" data-name="CIRCLE"><path class="cls-5" d="M1250.8,146.69a1.62,1.62,0,1,0-2.28,0,1.59,1.59,0,0,0,2.28,0Z"/></g></g><path class="cls-5" d="M1237.26,143.26a3.2,3.2,0,0,0-4.57,0,3.28,3.28,0,0,0,0,4.59,3.22,3.22,0,0,0,4.57,0A3.25,3.25,0,0,0,1237.26,143.26Zm-2.28,3.92-1.62-1.63,1.62-1.62,1.62,1.62Z"/><path class="cls-5" d="M1266.62,143.26a3.19,3.19,0,0,0-4.56,0,3.26,3.26,0,0,0,0,4.59,3.21,3.21,0,0,0,4.56,0A3.25,3.25,0,0,0,1266.62,143.26Zm-2.28,3.92-1.61-1.63,1.61-1.62,1.62,1.62Z"/><polyline class="cls-5" points="1303.55 195.83 1303.55 313.5 1289.52 313.5"/><polyline class="cls-5" points="1286.89 195.83 1286.89 289.97 1282.97 289.97"/><path class="cls-5" d="M1304.38,190.28a.44.44,0,0,0-.11.59h0l1.14,1.71a2.1,2.1,0,1,1-3.5,2.31l-1.13-1.71h0a1.08,1.08,0,0,0-1.2-.46,15.33,15.33,0,0,1-8.7,0,1.08,1.08,0,0,0-1.2.46h0l-1.13,1.71a2.1,2.1,0,1,1-3.5-2.31l1.13-1.71h0a.44.44,0,0,0-.09-.59,15.18,15.18,0,1,1,18.3,0Z"/><g id="INSERT-34" data-name="INSERT"><g id="CIRCLE-36" data-name="CIRCLE"><path class="cls-5" d="M1296.36,180.54a1.62,1.62,0,1,0-2.28,0,1.61,1.61,0,0,0,2.28,0Z"/></g></g><polygon class="cls-5" points="1283.06 178.36 1285.24 178.36 1285.24 176.17 1287.33 176.17 1287.33 178.36 1289.52 178.36 1289.52 180.44 1287.33 180.44 1287.33 182.63 1285.24 182.63 1285.24 180.44 1283.06 180.44 1283.06 178.36"/><polygon class="cls-5" points="1300.93 178.36 1303.11 178.36 1303.11 176.17 1305.19 176.17 1305.19 178.36 1307.38 178.36 1307.38 180.44 1305.19 180.44 1305.19 182.63 1303.11 182.63 1303.11 180.44 1300.93 180.44 1300.93 178.36"/><polyline class="cls-5" points="1075.02 251.57 1087.49 251.57 1087.49 272.65"/><polyline class="cls-5" points="987.18 226.87 987.18 251.57 1038.73 251.57"/><line class="cls-5" x1="976.6" y1="226.86" x2="976.6" y2="273.85"/><rect class="cls-5" x="965.85" y="221.45" width="31.36" height="5.41"/><path class="cls-5" d="M968.56,221.45V204.27a13,13,0,0,1,13-13h0a13,13,0,0,1,13,13v17.18"/><g id="INSERT-35" data-name="INSERT"><g id="CIRCLE-37" data-name="CIRCLE"><path class="cls-5" d="M982.21,212.27a1,1,0,1,0-1.36,0,1,1,0,0,0,1.36,0Z"/></g></g><path class="cls-5" d="M974.19,210.24a1.9,1.9,0,0,0-2.71,0,1.94,1.94,0,0,0,0,2.72,1.91,1.91,0,0,0,2.71,0A1.93,1.93,0,0,0,974.19,210.24Zm-1.35,2.32-1-1,1-1,.95,1Z"/><path class="cls-5" d="M991.58,210.24a1.9,1.9,0,0,0-2.71,0,1.94,1.94,0,0,0,0,2.72,1.92,1.92,0,1,0,2.71-2.72Zm-1.35,2.32-1-1,1-1,1,1Z"/><line class="cls-5" x1="1063.75" y1="391.79" x2="1115.94" y2="391.79"/><path class="cls-5" d="M1161.41,434.48a29.86,29.86,0,0,1-29.84-28.64h0a7.09,7.09,0,1,1,14.17,0v0a29.87,29.87,0,0,1-29.84,28.64"/><path class="cls-5" d="M1115.94,440.16a6.08,6.08,0,0,1-6.08,6.07h-40a6.07,6.07,0,0,1-6.07-6.07v-51a6.08,6.08,0,0,1,6.07-6.08h40a6.08,6.08,0,0,1,6.08,6.08Z"/><path class="cls-5" d="M1241.16,432.22a26.08,26.08,0,0,1-26.07-25h0a6.19,6.19,0,1,1,12.37,0v0a25.83,25.83,0,0,1-25.8,25"/><line class="cls-5" x1="1108.52" y1="318.65" x2="1108.54" y2="325.64"/><line class="cls-5" x1="1117.5" y1="318.65" x2="1117.52" y2="325.64"/><path class="cls-5" d="M1037.56,401.31V407h0a26.09,26.09,0,0,0,26.07,25"/><path class="cls-5" d="M987.78,386.08a29.85,29.85,0,0,1-29.84-28.63h0"/><line class="cls-5" x1="1005.7" y1="414.3" x2="1005.7" y2="510.14"/><polyline class="cls-5" points="1026.46 414.3 1026.46 504.68 1053.71 504.68"/><path class="cls-5" d="M1045,382a28.85,28.85,0,1,0-45.84,23.27v8.77H1012V408.3a25.74,25.74,0,0,0,8.34,0v5.76h12.82v-8.77A28.78,28.78,0,0,0,1045,382Z"/><g id="INSERT-36" data-name="INSERT"><g id="CIRCLE-38" data-name="CIRCLE"><path class="cls-5" d="M1015,388.23a1.69,1.69,0,1,1,2.38,0,1.68,1.68,0,0,1-2.38,0Z"/></g></g><polygon class="cls-5" points="1036.59 385.95 1034.31 385.95 1034.31 383.66 1032.12 383.66 1032.12 385.95 1029.83 385.95 1029.83 388.12 1032.12 388.12 1032.12 390.41 1034.31 390.41 1034.31 388.12 1036.59 388.12 1036.59 385.95"/><polygon class="cls-5" points="1000.72 383.88 999.11 385.49 997.49 383.88 995.95 385.41 997.57 387.03 995.95 388.65 997.48 390.19 999.11 388.56 1000.73 390.19 1002.26 388.65 1000.64 387.03 1002.25 385.41 1000.72 383.88"/><circle class="cls-5" cx="1113.54" cy="287.06" r="31.99"/><g id="INSERT-37" data-name="INSERT"><g id="CIRCLE-39" data-name="CIRCLE"><path class="cls-5" d="M1116.5,290a4.19,4.19,0,1,0-5.92,0,4.19,4.19,0,0,0,5.92,0Z"/></g></g><path class="cls-5" d="M1101.27,285.07a2.81,2.81,0,1,0,0,4A2.82,2.82,0,0,0,1101.27,285.07Zm-2,3.39-1.4-1.4,1.4-1.4,1.4,1.4Z"/><path class="cls-5" d="M1129.78,285.07a2.81,2.81,0,1,0,0,4A2.82,2.82,0,0,0,1129.78,285.07Zm-2,3.39-1.41-1.4,1.41-1.4,1.4,1.4Z"/><polyline class="cls-5" points="1125.74 349.73 1125.74 426.07 1123.13 426.07"/><polyline class="cls-5" points="1103.96 349.73 1103.96 376.57 1101.34 376.57"/><rect class="cls-5" x="1081.55" y="325.64" width="63.98" height="24.09"/><rect class="cls-5" x="1097.31" y="335.69" width="3.99" height="3.99" transform="translate(83.08 876.01) rotate(-44.99)"/><rect class="cls-5" x="1125.78" y="335.69" width="3.99" height="3.99" transform="translate(91.42 896.14) rotate(-44.99)"/><g id="INSERT-38" data-name="INSERT"><g id="CIRCLE-40" data-name="CIRCLE"><path class="cls-5" d="M1115,337.69a1.41,1.41,0,1,0-2.82,0,1.41,1.41,0,0,0,2.82,0Z"/></g></g><path class="cls-5" d="M967.31,289.15s-10.94-2.22-18.63,11.63c-5.3,14.7,5.13,28.88,18.63,28.88,10.09.35,69.91,0,69.91,0s16.24-.34,19.49-17.6c2-17.61-15.55-23-15.55-23-.16-1.07-2.48-15.67-15.94-21.93a28.68,28.68,0,0,0-31.07,5c-.85-.31-10.13-3.49-18.46,2.39A20.74,20.74,0,0,0,967.31,289.15Z"/><path class="cls-5" d="M1006.11,305.67a3.67,3.67,0,1,1-7.34,0Z"/><circle class="cls-5" cx="1019.76" cy="305.67" r="2.29"/><circle class="cls-5" cx="983.82" cy="305.67" r="2.29"/><path class="cls-5" d="M1306,67.78s-6.7-1.36-11.4,7.11c-3.25,9,3.13,17.68,11.4,17.68,6.17.21,42.78,0,42.78,0a12.74,12.74,0,0,0,11.92-10.77c1.26-10.78-9.51-14.1-9.51-14.1-.1-.66-1.52-9.59-9.75-13.42a17.55,17.55,0,0,0-19,3,12.92,12.92,0,0,0-11.3,1.46A12.68,12.68,0,0,0,1306,67.78Z"/><path class="cls-5" d="M1329.69,77.88a2.25,2.25,0,1,1-4.49,0Z"/><circle class="cls-5" cx="1338.04" cy="77.88" r="1.4"/><circle class="cls-5" cx="1316.05" cy="77.88" r="1.4"/><path class="cls-5" d="M1313.08,410.77l-3.38,3.38,3.38,3.38,3.38-3.38Zm-1.66,3.38,1.68-1.69,1.69,1.69-1.69,1.69Z"/><path class="cls-5" d="M1340.84,410.77l-3.38,3.38,3.38,3.38,3.37-3.38Zm-1.67,3.38,1.69-1.69,1.69,1.69-1.69,1.69Z"/><g id="INSERT-39" data-name="INSERT"><g id="CIRCLE-41" data-name="CIRCLE"><path class="cls-5" d="M1323.58,413.3a3.38,3.38,0,1,0,6.75,0"/></g></g><circle class="cls-5" cx="1306.72" cy="395.64" r="2.68"/><circle class="cls-5" cx="1347.2" cy="395.64" r="2.68"/><rect class="cls-5" x="1300.66" y="389.64" width="52.59" height="126.63" rx="5.08"/><line class="cls-5" x1="1316.04" y1="361.38" x2="1316.04" y2="389.23"/><line class="cls-5" x1="1337.63" y1="361.38" x2="1337.63" y2="389.23"/><polyline class="cls-5" points="1312.8 317.28 1312.8 313.5 1319.57 313.5 1319.57 317.28"/><polyline class="cls-5" points="1334.24 317.28 1334.24 313.5 1341.02 313.5 1341.02 317.28"/><polyline class="cls-5" points="1312.8 357.41 1312.8 361.38 1319.57 361.38 1319.57 357.41"/><polyline class="cls-5" points="1334.24 357.41 1334.24 361.38 1341.02 361.38 1341.02 357.41"/><path class="cls-5" d="M1347.07,337.44A20.11,20.11,0,1,1,1327,317.33,20.11,20.11,0,0,1,1347.07,337.44Z"/><path class="cls-5" d="M1347.07,352.19a5.35,5.35,0,0,1-5.35,5.36h-29.53a5.35,5.35,0,0,1-5.34-5.36V322.68a5.35,5.35,0,0,1,5.34-5.36h29.53a5.35,5.35,0,0,1,5.35,5.36Z"/><rect class="cls-5" x="1337.88" y="336.15" width="5.39" height="1.73"/><rect class="cls-5" x="1310.65" y="336.15" width="5.39" height="1.73"/><g id="INSERT-40" data-name="INSERT"><g id="CIRCLE-42" data-name="CIRCLE"><path class="cls-5" d="M1329.65,337a2.69,2.69,0,1,1-5.38,0"/></g></g><path class="cls-5" d="M1315.56,142.16a26.39,26.39,0,0,1-26.37-25.31h0a6.26,6.26,0,1,1,12.52,0v0a26.39,26.39,0,0,1-26.38,25.31"/><path class="cls-5" d="M1186.53,142.07a26.32,26.32,0,0,0,17.85-9.21,26.27,26.27,0,0,1-6.26-16,6.25,6.25,0,0,1,1.83-4.42,6.19,6.19,0,0,1,4.43-1.85,6.28,6.28,0,0,1,6.25,6.27,26.21,26.21,0,0,1-6.25,16,26.28,26.28,0,0,0,20.1,9.29"/><path class="cls-5" d="M1081.79,20.46a26.39,26.39,0,0,1-26.37-25.31h0a6.27,6.27,0,0,1,6.26-6.28,6.29,6.29,0,0,1,6.26,6.32v0a26.39,26.39,0,0,1-26.38,25.31"/><path class="cls-5" d="M967.27,20.46A26.39,26.39,0,0,1,940.9-4.85h0"/><polyline class="cls-5" points="1351.53 175.59 1351.53 289.97 1406.64 289.97"/><polyline class="cls-5" points="1324.8 175.59 1324.8 289.97 1320.88 289.97"/><path class="cls-5" d="M1327.17,150.62a3.23,3.23,0,1,0,0,4.57A3.24,3.24,0,0,0,1327.17,150.62Zm-2.28,3.91-1.61-1.62,1.61-1.62,1.62,1.62Z"/><path class="cls-5" d="M1353.72,150.62a3.23,3.23,0,1,0,0,4.57A3.24,3.24,0,0,0,1353.72,150.62Zm-2.28,3.91-1.62-1.62,1.62-1.62,1.62,1.62Z"/><g id="INSERT-41" data-name="INSERT"><g id="CIRCLE-43" data-name="CIRCLE"><path class="cls-5" d="M1334.94,152.91a3.23,3.23,0,0,0,6.45,0"/></g></g><path class="cls-5" d="M1352.12,167.11a.68.68,0,0,0-.16.91h0l1.73,2.61a3.2,3.2,0,0,1-5.34,3.52l-1.72-2.61h0a1.66,1.66,0,0,0-1.89-.68,23.35,23.35,0,0,1-13.22,0,1.59,1.59,0,0,0-1.8.71h0l-1.72,2.61a3.2,3.2,0,0,1-5.34-3.52l1.73-2.61h0a.65.65,0,0,0-.13-.88,23.15,23.15,0,1,1,27.88,0Z"/><polyline class="cls-5" points="1164.98 47.97 1164.98 100.3 1161.62 100.3"/><polyline class="cls-5" points="1136.99 47.97 1136.99 104.65 1133.63 104.65"/><rect class="cls-5" x="1081.55" y="-10.42" width="135.5" height="58.39" rx="6.3"/><rect class="cls-5" x="1092.66" y="6.52" width="10.3" height="14.65"/><rect class="cls-5" x="1092.66" y="21.18" width="10.3" height="14.65"/><rect class="cls-5" x="1102.96" y="6.52" width="10.3" height="14.65"/><rect class="cls-5" x="1102.96" y="21.18" width="10.3" height="14.65"/><rect class="cls-5" x="1113.26" y="6.52" width="10.3" height="14.65"/><rect class="cls-5" x="1113.26" y="21.18" width="10.3" height="14.65"/><rect class="cls-5" x="1123.56" y="6.52" width="10.3" height="14.65"/><rect class="cls-5" x="1123.56" y="21.18" width="10.3" height="14.65"/><rect class="cls-5" x="1133.86" y="6.52" width="10.3" height="14.65"/><rect class="cls-5" x="1133.86" y="21.18" width="10.3" height="14.65"/><rect class="cls-5" x="1144.15" y="6.52" width="10.3" height="14.65"/><rect class="cls-5" x="1144.15" y="21.18" width="10.3" height="14.65"/><rect class="cls-5" x="1154.45" y="6.52" width="10.3" height="14.65"/><rect class="cls-5" x="1154.45" y="21.18" width="10.3" height="14.65"/><rect class="cls-5" x="1164.75" y="6.52" width="10.3" height="14.65"/><rect class="cls-5" x="1164.75" y="21.18" width="10.3" height="14.65"/><rect class="cls-5" x="1175.05" y="6.52" width="10.3" height="14.65"/><rect class="cls-5" x="1175.05" y="21.18" width="10.3" height="14.65"/><rect class="cls-5" x="1185.35" y="6.52" width="10.3" height="14.65"/><rect class="cls-5" x="1185.35" y="21.18" width="10.3" height="14.65"/><rect class="cls-5" x="1195.65" y="6.52" width="10.3" height="14.65"/><rect class="cls-5" x="1195.65" y="21.18" width="10.3" height="14.65"/><g id="INSERT-42" data-name="INSERT"><g id="CIRCLE-44" data-name="CIRCLE"><path class="cls-5" d="M1150.28-1a1.39,1.39,0,0,0,0-2,1.39,1.39,0,0,0-2,0,1.4,1.4,0,0,0,0,2,1.37,1.37,0,0,0,2,0Z"/></g></g><path class="cls-5" d="M1138.67-4a2.76,2.76,0,0,0-3.92,0,2.8,2.8,0,0,0,0,3.94,2.76,2.76,0,0,0,3.92,0A2.79,2.79,0,0,0,1138.67-4Zm-2,3.37L1135.33-2l1.38-1.39L1138.1-2Z"/><path class="cls-5" d="M1163.85-4a2.75,2.75,0,0,0-3.91,0,2.8,2.8,0,0,0,0,3.94,2.75,2.75,0,0,0,3.91,0A2.79,2.79,0,0,0,1163.85-4ZM1161.9-.63,1160.51-2l1.39-1.39L1163.28-2Z"/><polyline class="cls-5" points="1066.63 268.49 1066.63 320.18 1063.27 320.18"/><polyline class="cls-5" points="1047.13 268.49 1047.13 287.85 1043.77 287.85"/><path class="cls-5" d="M1044.36,234.88h25a5.63,5.63,0,0,1,5.63,5.63v22a0,0,0,0,1,0,0h-36.29a0,0,0,0,1,0,0v-22A5.63,5.63,0,0,1,1044.36,234.88Z"/><rect class="cls-5" x="1062.78" y="262.55" width="7.71" height="5.94"/><rect class="cls-5" x="1043.27" y="262.55" width="7.71" height="5.94" transform="translate(2094.25 531.04) rotate(180)"/><g id="INSERT-43" data-name="INSERT"><g id="CIRCLE-45" data-name="CIRCLE"><path class="cls-5" d="M1057.86,250.68a1.4,1.4,0,0,0,0-2,1.37,1.37,0,0,0-2,0,1.39,1.39,0,0,0,0,2,1.37,1.37,0,0,0,2,0Z"/></g></g><path class="cls-5" d="M1048.83,247.74a2.74,2.74,0,0,0-3.92,0,2.81,2.81,0,0,0,0,3.93,2.74,2.74,0,0,0,3.92,0A2.78,2.78,0,0,0,1048.83,247.74Zm-1.95,3.36-1.39-1.39,1.39-1.4,1.38,1.4Z"/><path class="cls-5" d="M1068.84,247.74a2.74,2.74,0,0,0-3.92,0,2.79,2.79,0,0,0,0,3.93,2.74,2.74,0,0,0,3.92,0A2.79,2.79,0,0,0,1068.84,247.74Zm-2,3.36-1.39-1.39,1.39-1.4,1.39,1.4Z"/><line class="cls-5" x1="980.35" y1="52.02" x2="980.35" y2="81.28"/><line class="cls-5" x1="976.24" y1="52.02" x2="976.24" y2="81.28"/><path class="cls-5" d="M937.06,89.87v0a24.53,24.53,0,0,1,24.52-23.53"/><path class="cls-5" d="M1089.4,89.87v0a24.53,24.53,0,0,0-24.52-23.53"/><rect class="cls-5" x="961.58" y="52.02" width="103.31" height="29.33" rx="14.67"/><path class="cls-5" d="M1001.11,69.78a2.77,2.77,0,1,0,0,3.91A2.78,2.78,0,0,0,1001.11,69.78Zm-2,3.35-1.38-1.39,1.38-1.39,1.39,1.39Z"/><path class="cls-5" d="M1029.26,69.78a2.77,2.77,0,1,0,0,3.91A2.78,2.78,0,0,0,1029.26,69.78Zm-2,3.35-1.38-1.39,1.38-1.39,1.39,1.39Z"/><g id="INSERT-44" data-name="INSERT"><g id="CIRCLE-46" data-name="CIRCLE"><path class="cls-5" d="M1010.46,71.74a2.77,2.77,0,1,0,5.54,0"/></g></g><rect class="cls-5" x="982.28" y="11.37" width="7.28" height="2.34"/><rect class="cls-5" x="1019.03" y="11.37" width="7.28" height="2.34"/><g id="INSERT-45" data-name="INSERT"><g id="CIRCLE-47" data-name="CIRCLE"><path class="cls-5" d="M1000.66,12.55a3.64,3.64,0,1,0,7.27,0"/></g></g><path class="cls-5" d="M1038.35-66.5a5.61,5.61,0,0,1,3,5V37.58a5.66,5.66,0,0,1-5.65,5.66H972.93a5.66,5.66,0,0,1-5.66-5.66V-61.54a5.61,5.61,0,0,1,3-5"/><rect class="cls-5" x="1139.61" y="207.21" width="112.07" height="43.51" rx="19.08" transform="translate(2391.29 457.93) rotate(180)"/><line class="cls-5" x1="1160.9" y1="260.29" x2="1160.9" y2="289.99"/><polyline class="cls-5" points="1230.24 260.29 1230.24 297.18 1234.39 297.18"/><rect class="cls-5" x="1156.96" y="250.72" width="7.88" height="9.57" transform="translate(2321.79 511.01) rotate(180)"/><rect class="cls-5" x="1226.45" y="250.72" width="7.88" height="9.57"/><path class="cls-5" d="M1228.16,236.08l3.55,3.55,3.56-3.55-3.56-3.56Zm3.53,1.77-1.78-1.77,1.78-1.78,1.77,1.78Z"/><path class="cls-5" d="M1192.06,236.08l3.56,3.55,3.56-3.55-3.56-3.56Zm3.53,1.77-1.78-1.77,1.78-1.78,1.78,1.78Z"/><g id="CIRCLE-48" data-name="CIRCLE"><path class="cls-5" d="M1217.21,235.19a3.55,3.55,0,1,1-7.09,0"/></g><line class="cls-5" x1="1156.72" y1="250.02" x2="1156.72" y2="207.91"/><line class="cls-5" x1="1160.9" y1="250.02" x2="1160.9" y2="207.91"/><polyline class="cls-5" points="1224 -27.44 1224 38.77 1220.64 38.77"/></g><g class="cls-4"><polyline class="cls-5" points="1622.4 250.72 1622.4 383.9 1630.46 383.9 1630.46 250.72"/><line class="cls-5" x1="1630.46" y1="126.57" x2="1630.46" y2="47.98"/><line class="cls-5" x1="1630.46" y1="207.21" x2="1630.46" y2="163.59"/><line class="cls-5" x1="1622.4" y1="207.21" x2="1622.4" y2="47.98"/><path class="cls-5" d="M1607.27,424.86v40.93h39.61V424.86a3.33,3.33,0,0,0-1.05-2.42l-4.68-4.4V396.69a4.4,4.4,0,0,0-4.4-4.4H1617.4a4.4,4.4,0,0,0-4.4,4.4V418l-4.69,4.4A3.36,3.36,0,0,0,1607.27,424.86Z"/><path class="cls-5" d="M1618,383.89h18.08a0,0,0,0,1,0,0v0a8.4,8.4,0,0,1-8.4,8.4h-1.28a8.4,8.4,0,0,1-8.4-8.4v0A0,0,0,0,1,1618,383.89Z" transform="translate(3254.15 776.19) rotate(180)"/><path class="cls-5" d="M1769.6,112.51s17.7-3.6,30.15,18.81c8.57,23.79-8.3,46.74-30.15,46.74-16.32.56-113.13,0-113.13,0s-26.27-.55-31.53-28.49c-3.32-28.48,25.17-37.27,25.17-37.27.25-1.74,4-25.36,25.78-35.49,16.39-7.63,36.26-4.48,50.28,8,1.38-.5,16.39-5.64,29.88,3.87C1768,97.18,1769.43,110.59,1769.6,112.51Z"/><path class="cls-5" d="M1706.82,139.23a5.94,5.94,0,1,0,11.88,0Z"/><circle class="cls-5" cx="1684.74" cy="139.23" r="3.7"/><circle class="cls-5" cx="1742.89" cy="139.23" r="3.7"/><path class="cls-5" d="M1519.91,307.95h9a3.25,3.25,0,0,1,3.25,3.25V317a3.25,3.25,0,0,1-3.25,3.25h-9a0,0,0,0,1,0,0V307.95A0,0,0,0,1,1519.91,307.95Z" transform="translate(3052.09 628.16) rotate(180)"/><path class="cls-5" d="M1519.91,331.3h9a3.25,3.25,0,0,1,3.25,3.25v5.77a3.25,3.25,0,0,1-3.25,3.25h-9a0,0,0,0,1,0,0V331.3A0,0,0,0,1,1519.91,331.3Z" transform="translate(3052.09 674.88) rotate(180)"/><path class="cls-5" d="M1519.91,354.66h9a3.25,3.25,0,0,1,3.25,3.25v5.77a3.25,3.25,0,0,1-3.25,3.25h-9a0,0,0,0,1,0,0V354.66a0,0,0,0,1,0,0Z" transform="translate(3052.09 721.59) rotate(180)"/><path class="cls-5" d="M1586,307.95h9a3.25,3.25,0,0,1,3.25,3.25V317a3.25,3.25,0,0,1-3.25,3.25h-9a0,0,0,0,1,0,0V307.95A0,0,0,0,1,1586,307.95Z"/><path class="cls-5" d="M1586,331.3h9a3.25,3.25,0,0,1,3.25,3.25v5.77a3.25,3.25,0,0,1-3.25,3.25h-9a0,0,0,0,1,0,0V331.3A0,0,0,0,1,1586,331.3Z"/><path class="cls-5" d="M1586,354.66h9a3.25,3.25,0,0,1,3.25,3.25v5.77a3.25,3.25,0,0,1-3.25,3.25h-9a0,0,0,0,1,0,0V354.66a0,0,0,0,1,0,0Z"/><polyline class="cls-5" points="1556.1 374.05 1556.1 432.22 1508.27 432.22"/><polyline class="cls-5" points="1560.52 374.05 1560.52 432.22 1567.77 432.22"/><g id="INSERT-46" data-name="INSERT"><g id="CIRCLE-49" data-name="CIRCLE"><path class="cls-5" d="M1557.49,327.67a2.27,2.27,0,1,1,3.21,0,2.25,2.25,0,0,1-3.21,0Z"/></g></g><path class="cls-5" d="M1572.28,329.3a4.51,4.51,0,0,0,6.41,0,4.61,4.61,0,0,0,0-6.46,4.51,4.51,0,0,0-6.41,0A4.57,4.57,0,0,0,1572.28,329.3Zm.93-3.23,2.26-2.28,2.28,2.28-2.28,2.28Z"/><path class="cls-5" d="M1539.51,329.3a4.51,4.51,0,0,0,6.41,0,4.59,4.59,0,0,0,0-6.46,4.51,4.51,0,0,0-6.41,0A4.58,4.58,0,0,0,1539.51,329.3Zm.93-3.23,2.27-2.28,2.27,2.28-2.27,2.28Z"/><rect class="cls-5" x="1532.18" y="300.77" width="53.83" height="73.33" transform="translate(3118.19 674.88) rotate(-180)"/><path class="cls-5" d="M1840.37,210A18.68,18.68,0,0,0,1859,192.13h0"/><path class="cls-5" d="M1814.43,210a18.67,18.67,0,0,1-18.66-17.91h0"/><path class="cls-5" d="M1551.65,20.46A26.39,26.39,0,0,0,1578-4.85h0a6.27,6.27,0,0,0-6.27-6.28,6.3,6.3,0,0,0-6.26,6.32v0a26.39,26.39,0,0,0,26.38,25.31"/><path class="cls-5" d="M1473.85-4.81v0a26.39,26.39,0,0,0,26.37,25.31"/><polyline class="cls-5" points="1539.87 28.72 1539.87 111.66 1543.23 111.66"/><polyline class="cls-5" points="1511.89 28.72 1511.89 61.3 1515.25 61.3"/><rect class="cls-5" x="1500.22" y="13.2" width="51.31" height="15.53" transform="translate(3051.76 41.92) rotate(-180)"/><path class="cls-5" d="M1500.22-11.9h51.31a0,0,0,0,1,0,0V2.22A6.74,6.74,0,0,1,1544.79,9H1507a6.74,6.74,0,0,1-6.74-6.74V-11.9A0,0,0,0,1,1500.22-11.9Z" transform="translate(3051.76 -2.95) rotate(-180)"/><rect class="cls-5" x="1491.48" y="8.96" width="68.79" height="4.24" transform="translate(3051.76 22.15) rotate(-180)"/><rect class="cls-5" x="1537.09" y="19.13" width="5.54" height="1.78"/><rect class="cls-5" x="1509.13" y="19.13" width="5.54" height="1.78"/><g id="INSERT-47" data-name="INSERT"><g id="CIRCLE-50" data-name="CIRCLE"><path class="cls-5" d="M1528.65,20a2.77,2.77,0,1,1-5.53,0"/></g></g><polyline class="cls-5" points="1539.59 165.87 1539.59 289.97 1525.96 289.97"/><polyline class="cls-5" points="1578.96 250.72 1578.96 289.95 1663.68 289.99"/><line class="cls-5" x1="1578.96" y1="207.21" x2="1578.96" y2="165.87"/><path class="cls-5" d="M1537.53,159.83a3.53,3.53,0,0,0,0,5,3.62,3.62,0,0,0,5-.13l2.37-2.37.17-.18a1.41,1.41,0,0,1,1.74-.32,25.71,25.71,0,0,0,24.77,0,1.41,1.41,0,0,1,1.74.32l.16.18,2.45,2.45a3.54,3.54,0,0,0,5-5l-2.45-2.46h0a.72.72,0,0,1,0-1,25.65,25.65,0,1,0-38.49,0,.73.73,0,0,1,0,1h0Z"/><g id="INSERT-48" data-name="INSERT"><g id="CIRCLE-51" data-name="CIRCLE"><path class="cls-5" d="M1558.13,146.69a1.62,1.62,0,0,1,2.29-2.29,1.64,1.64,0,0,1,0,2.29,1.61,1.61,0,0,1-2.29,0Z"/></g></g><path class="cls-5" d="M1571.67,147.85a3.22,3.22,0,0,0,4.57,0,3.26,3.26,0,0,0,0-4.59,3.2,3.2,0,0,0-4.57,0A3.25,3.25,0,0,0,1571.67,147.85Zm.67-2.3,1.61-1.62,1.62,1.62-1.62,1.63Z"/><path class="cls-5" d="M1542.31,147.85a3.22,3.22,0,0,0,4.57,0,3.28,3.28,0,0,0,0-4.59,3.2,3.2,0,0,0-4.57,0A3.25,3.25,0,0,0,1542.31,147.85Zm.67-2.3,1.61-1.62,1.62,1.62-1.62,1.63Z"/><polyline class="cls-5" points="1505.38 195.83 1505.38 313.5 1519.42 313.5"/><polyline class="cls-5" points="1522.04 195.83 1522.04 289.97 1525.96 289.97"/><path class="cls-5" d="M1504.56,190.28a.44.44,0,0,1,.1.59h0l-1.13,1.71a2.1,2.1,0,1,0,3.5,2.31l1.13-1.71h0a1.08,1.08,0,0,1,1.2-.46,15.33,15.33,0,0,0,8.7,0,1.08,1.08,0,0,1,1.2.46h0l1.13,1.71a2.1,2.1,0,1,0,3.5-2.31l-1.14-1.71h0a.43.43,0,0,1,.1-.59,15.18,15.18,0,1,0-18.3,0Z"/><g id="INSERT-49" data-name="INSERT"><g id="CIRCLE-52" data-name="CIRCLE"><path class="cls-5" d="M1512.57,180.54a1.62,1.62,0,1,1,2.28,0,1.61,1.61,0,0,1-2.28,0Z"/></g></g><polygon class="cls-5" points="1525.88 178.36 1523.69 178.36 1523.69 176.17 1521.61 176.17 1521.61 178.36 1519.42 178.36 1519.42 180.44 1521.61 180.44 1521.61 182.63 1523.69 182.63 1523.69 180.44 1525.88 180.44 1525.88 178.36"/><polygon class="cls-5" points="1508.01 178.36 1505.82 178.36 1505.82 176.17 1503.74 176.17 1503.74 178.36 1501.55 178.36 1501.55 180.44 1503.74 180.44 1503.74 182.63 1505.82 182.63 1505.82 180.44 1508.01 180.44 1508.01 178.36"/><polyline class="cls-5" points="1733.91 251.57 1721.44 251.57 1721.44 272.65"/><polyline class="cls-5" points="1821.75 226.87 1821.75 251.57 1770.2 251.57"/><line class="cls-5" x1="1832.33" y1="226.86" x2="1832.33" y2="273.85"/><rect class="cls-5" x="1811.72" y="221.45" width="31.36" height="5.41"/><path class="cls-5" d="M1840.37,221.45V204.27a13,13,0,0,0-13-13h0a13,13,0,0,0-13,13v17.18"/><g id="INSERT-50" data-name="INSERT"><g id="CIRCLE-53" data-name="CIRCLE"><path class="cls-5" d="M1826.72,212.27a1,1,0,1,1,1.36,0,1,1,0,0,1-1.36,0Z"/></g></g><path class="cls-5" d="M1834.75,213a1.9,1.9,0,0,0,2.7,0,1.93,1.93,0,0,0,0-2.72,1.88,1.88,0,0,0-2.7,0A1.92,1.92,0,0,0,1834.75,213Zm.39-1.36,1-1,1,1-1,1Z"/><path class="cls-5" d="M1817.35,213a1.91,1.91,0,0,0,2.71,0,1.94,1.94,0,0,0,0-2.72,1.9,1.9,0,0,0-2.71,0A1.93,1.93,0,0,0,1817.35,213Zm.39-1.36,1-1,1,1-1,1Z"/><line class="cls-5" x1="1745.19" y1="391.79" x2="1693" y2="391.79"/><path class="cls-5" d="M1647.52,434.48a29.86,29.86,0,0,0,29.84-28.64h0a7.09,7.09,0,1,0-14.17,0v0A29.87,29.87,0,0,0,1693,434.48"/><rect class="cls-5" x="1693" y="383.1" width="52.19" height="63.13" rx="6.08"/><path class="cls-5" d="M1567.77,432.22a26.08,26.08,0,0,0,26.08-25h0a6.19,6.19,0,1,0-12.38,0v0a25.83,25.83,0,0,0,25.8,25"/><line class="cls-5" x1="1700.41" y1="318.65" x2="1700.39" y2="325.64"/><line class="cls-5" x1="1691.43" y1="318.65" x2="1691.41" y2="325.64"/><path class="cls-5" d="M1771.37,401.31V407h0a26.09,26.09,0,0,1-26.07,25"/><path class="cls-5" d="M1821.15,386.08A29.85,29.85,0,0,0,1851,357.45h0"/><line class="cls-5" x1="1803.23" y1="414.3" x2="1803.23" y2="510.14"/><polyline class="cls-5" points="1782.47 414.3 1782.47 504.68 1755.22 504.68"/><path class="cls-5" d="M1763.93,382a28.85,28.85,0,1,1,45.84,23.27v8.77h-12.83V408.3a25.74,25.74,0,0,1-8.34,0v5.76h-12.81v-8.77A28.76,28.76,0,0,1,1763.93,382Z"/><g id="INSERT-51" data-name="INSERT"><g id="CIRCLE-54" data-name="CIRCLE"><path class="cls-5" d="M1794,388.23a1.69,1.69,0,1,0-2.38-2.39,1.69,1.69,0,0,0,2.38,2.39Z"/></g></g><polygon class="cls-5" points="1772.34 385.95 1774.63 385.95 1774.63 383.66 1776.81 383.66 1776.81 385.95 1779.1 385.95 1779.1 388.12 1776.81 388.12 1776.81 390.41 1774.63 390.41 1774.63 388.12 1772.34 388.12 1772.34 385.95"/><polygon class="cls-5" points="1808.21 383.88 1809.83 385.49 1811.44 383.88 1812.98 385.41 1811.36 387.03 1812.99 388.65 1811.45 390.19 1809.83 388.56 1808.2 390.19 1806.67 388.65 1808.29 387.03 1806.68 385.41 1808.21 383.88"/><circle class="cls-5" cx="1695.39" cy="287.06" r="31.99"/><g id="INSERT-52" data-name="INSERT"><g id="CIRCLE-55" data-name="CIRCLE"><path class="cls-5" d="M1692.43,290a4.19,4.19,0,1,1,5.92,0,4.19,4.19,0,0,1-5.92,0Z"/></g></g><path class="cls-5" d="M1707.66,289a2.81,2.81,0,1,0,0-4A2.8,2.8,0,0,0,1707.66,289Zm.58-2,1.4-1.4,1.41,1.4-1.41,1.4Z"/><path class="cls-5" d="M1679.16,289a2.79,2.79,0,0,0,4,0,2.8,2.8,0,1,0-4,0Zm.57-2,1.41-1.4,1.4,1.4-1.4,1.4Z"/><polyline class="cls-5" points="1683.19 349.73 1683.19 426.07 1685.81 426.07"/><polyline class="cls-5" points="1704.97 349.73 1704.97 376.57 1707.59 376.57"/><rect class="cls-5" x="1663.4" y="325.64" width="63.98" height="24.09" transform="translate(3390.78 675.37) rotate(-180)"/><rect class="cls-5" x="1707.63" y="335.69" width="3.99" height="3.99" transform="translate(262.17 1308.11) rotate(-45.01)"/><rect class="cls-5" x="1679.16" y="335.69" width="3.99" height="3.99" transform="translate(253.82 1287.97) rotate(-45.01)"/><g id="INSERT-53" data-name="INSERT"><g id="CIRCLE-56" data-name="CIRCLE"><path class="cls-5" d="M1694,337.69a1.41,1.41,0,1,1,2.82,0,1.41,1.41,0,0,1-2.82,0Z"/></g></g><path class="cls-5" d="M1841.62,289.15s10.94-2.22,18.63,11.63c5.3,14.7-5.13,28.88-18.63,28.88-10.08.35-69.91,0-69.91,0s-16.24-.34-19.49-17.6c-2-17.61,15.56-23,15.56-23,.15-1.07,2.47-15.67,15.93-21.93a28.68,28.68,0,0,1,31.07,5c.85-.31,10.13-3.49,18.47,2.39A20.75,20.75,0,0,1,1841.62,289.15Z"/><path class="cls-5" d="M1802.82,305.67a3.68,3.68,0,0,0,7.35,0Z"/><circle class="cls-5" cx="1789.18" cy="305.67" r="2.29"/><circle class="cls-5" cx="1825.11" cy="305.67" r="2.29"/><path class="cls-5" d="M1503,67.78s6.69-1.36,11.4,7.11c3.24,9-3.14,17.68-11.4,17.68-6.18.21-42.79,0-42.79,0a12.75,12.75,0,0,1-11.92-10.77C1447,71,1457.8,67.7,1457.8,67.7c.09-.66,1.51-9.59,9.75-13.42a17.53,17.53,0,0,1,19,3,12.92,12.92,0,0,1,11.3,1.46A12.75,12.75,0,0,1,1503,67.78Z"/><path class="cls-5" d="M1479.24,77.88a2.25,2.25,0,0,0,4.5,0Z"/><circle class="cls-5" cx="1470.89" cy="77.88" r="1.4"/><circle class="cls-5" cx="1492.88" cy="77.88" r="1.4"/><path class="cls-5" d="M1492.47,414.15l3.38,3.38,3.38-3.38-3.38-3.38Zm3.36,1.69-1.69-1.69,1.69-1.69,1.68,1.69Z"/><path class="cls-5" d="M1464.72,414.15l3.38,3.38,3.38-3.38-3.38-3.38Zm3.35,1.69-1.69-1.69,1.69-1.69,1.69,1.69Z"/><g id="INSERT-54" data-name="INSERT"><g id="CIRCLE-57" data-name="CIRCLE"><path class="cls-5" d="M1485.35,413.3a3.38,3.38,0,1,1-6.75,0"/></g></g><circle class="cls-5" cx="1502.21" cy="395.64" r="2.68"/><circle class="cls-5" cx="1461.73" cy="395.64" r="2.68"/><rect class="cls-5" x="1455.68" y="389.64" width="52.59" height="126.63" rx="5.08" transform="translate(2963.95 905.92) rotate(-180)"/><line class="cls-5" x1="1492.89" y1="361.38" x2="1492.89" y2="389.23"/><line class="cls-5" x1="1471.3" y1="361.38" x2="1471.3" y2="389.23"/><polyline class="cls-5" points="1496.14 317.28 1496.14 313.5 1489.36 313.5 1489.36 317.28"/><polyline class="cls-5" points="1474.69 317.28 1474.69 313.5 1467.91 313.5 1467.91 317.28"/><polyline class="cls-5" points="1496.14 357.41 1496.14 361.38 1489.36 361.38 1489.36 357.41"/><polyline class="cls-5" points="1474.69 357.41 1474.69 361.38 1467.91 361.38 1467.91 357.41"/><path class="cls-5" d="M1461.86,337.44A20.11,20.11,0,1,0,1482,317.33,20.11,20.11,0,0,0,1461.86,337.44Z"/><path class="cls-5" d="M1461.86,352.19a5.35,5.35,0,0,0,5.35,5.36h29.53a5.35,5.35,0,0,0,5.34-5.36V322.68a5.35,5.35,0,0,0-5.34-5.36h-29.53a5.35,5.35,0,0,0-5.35,5.36Z"/><rect class="cls-5" x="1465.66" y="336.15" width="5.39" height="1.73"/><rect class="cls-5" x="1492.89" y="336.15" width="5.39" height="1.73"/><g id="INSERT-55" data-name="INSERT"><g id="CIRCLE-58" data-name="CIRCLE"><path class="cls-5" d="M1479.28,337a2.7,2.7,0,0,0,5.39,0"/></g></g><path class="cls-5" d="M1493.37,142.16a26.39,26.39,0,0,0,26.37-25.31h0a6.26,6.26,0,1,0-12.52,0v0a26.39,26.39,0,0,0,26.38,25.31"/><path class="cls-5" d="M1622.4,142.07a26.34,26.34,0,0,1-17.85-9.21,26.27,26.27,0,0,0,6.26-16,6.25,6.25,0,0,0-1.83-4.42,6.19,6.19,0,0,0-4.43-1.85,6.28,6.28,0,0,0-6.25,6.27,26.27,26.27,0,0,0,6.25,16,26.26,26.26,0,0,1-20.1,9.29"/><path class="cls-5" d="M1727.14,20.46a26.39,26.39,0,0,0,26.37-25.31h0a6.27,6.27,0,0,0-6.26-6.28A6.3,6.3,0,0,0,1741-4.81v0a26.39,26.39,0,0,0,26.38,25.31"/><path class="cls-5" d="M1841.66,20.46A26.39,26.39,0,0,0,1868-4.85h0"/><polyline class="cls-5" points="1457.4 175.59 1457.4 289.97 1402.29 289.97"/><polyline class="cls-5" points="1484.14 175.59 1484.14 289.97 1488.06 289.97"/><path class="cls-5" d="M1481.76,155.19a3.23,3.23,0,1,0,0-4.57A3.24,3.24,0,0,0,1481.76,155.19Zm.66-2.28,1.62-1.62,1.62,1.62-1.62,1.62Z"/><path class="cls-5" d="M1455.21,155.19a3.23,3.23,0,1,0,0-4.57A3.24,3.24,0,0,0,1455.21,155.19Zm.66-2.28,1.62-1.62,1.62,1.62-1.62,1.62Z"/><g id="INSERT-56" data-name="INSERT"><g id="CIRCLE-59" data-name="CIRCLE"><path class="cls-5" d="M1474,152.91a3.23,3.23,0,0,1-6.45,0"/></g></g><path class="cls-5" d="M1456.81,167.11a.67.67,0,0,1,.16.91h0l-1.72,2.61a3.19,3.19,0,1,0,5.33,3.52l1.72-2.61h0a1.67,1.67,0,0,1,1.89-.68,23.39,23.39,0,0,0,13.23,0,1.6,1.6,0,0,1,1.8.71h0l1.73,2.61a3.19,3.19,0,1,0,5.33-3.52l-1.72-2.61h0a.65.65,0,0,1,.13-.88,23.15,23.15,0,1,0-27.88,0Z"/><polyline class="cls-5" points="1643.96 47.97 1643.96 100.3 1647.32 100.3"/><polyline class="cls-5" points="1671.94 47.97 1671.94 104.65 1675.3 104.65"/><rect class="cls-5" x="1591.88" y="-10.42" width="135.5" height="58.39" rx="6.3" transform="translate(3319.26 37.55) rotate(-180)"/><rect class="cls-5" x="1705.97" y="6.52" width="10.3" height="14.65" transform="translate(3422.24 27.7) rotate(-180)"/><rect class="cls-5" x="1705.97" y="21.18" width="10.3" height="14.65" transform="translate(3422.24 57.01) rotate(-180)"/><rect class="cls-5" x="1695.67" y="6.52" width="10.3" height="14.65" transform="translate(3401.65 27.7) rotate(-180)"/><rect class="cls-5" x="1695.67" y="21.18" width="10.3" height="14.65" transform="translate(3401.65 57.01) rotate(-180)"/><rect class="cls-5" x="1685.38" y="6.52" width="10.3" height="14.65" transform="translate(3381.05 27.7) rotate(-180)"/><rect class="cls-5" x="1685.38" y="21.18" width="10.3" height="14.65" transform="translate(3381.05 57.01) rotate(-180)"/><rect class="cls-5" x="1675.08" y="6.52" width="10.3" height="14.65" transform="translate(3360.45 27.7) rotate(-180)"/><rect class="cls-5" x="1675.08" y="21.18" width="10.3" height="14.65" transform="translate(3360.45 57.01) rotate(-180)"/><rect class="cls-5" x="1664.78" y="6.52" width="10.3" height="14.65" transform="translate(3339.85 27.7) rotate(-180)"/><rect class="cls-5" x="1664.78" y="21.18" width="10.3" height="14.65" transform="translate(3339.85 57.01) rotate(-180)"/><rect class="cls-5" x="1654.48" y="6.52" width="10.3" height="14.65" transform="translate(3319.26 27.7) rotate(-180)"/><rect class="cls-5" x="1654.48" y="21.18" width="10.3" height="14.65" transform="translate(3319.26 57.01) rotate(-180)"/><rect class="cls-5" x="1644.18" y="6.52" width="10.3" height="14.65" transform="translate(3298.66 27.7) rotate(-180)"/><rect class="cls-5" x="1644.18" y="21.18" width="10.3" height="14.65" transform="translate(3298.66 57.01) rotate(-180)"/><rect class="cls-5" x="1633.88" y="6.52" width="10.3" height="14.65" transform="translate(3278.06 27.7) rotate(-180)"/><rect class="cls-5" x="1633.88" y="21.18" width="10.3" height="14.65" transform="translate(3278.06 57.01) rotate(-180)"/><rect class="cls-5" x="1623.58" y="6.52" width="10.3" height="14.65" transform="translate(3257.46 27.7) rotate(-180)"/><rect class="cls-5" x="1623.58" y="21.18" width="10.3" height="14.65" transform="translate(3257.46 57.01) rotate(-180)"/><rect class="cls-5" x="1613.28" y="6.52" width="10.3" height="14.65" transform="translate(3236.87 27.7) rotate(-180)"/><rect class="cls-5" x="1613.28" y="21.18" width="10.3" height="14.65" transform="translate(3236.87 57.01) rotate(-180)"/><rect class="cls-5" x="1602.98" y="6.52" width="10.3" height="14.65" transform="translate(3216.27 27.7) rotate(-180)"/><rect class="cls-5" x="1602.98" y="21.18" width="10.3" height="14.65" transform="translate(3216.27 57.01) rotate(-180)"/><g id="INSERT-57" data-name="INSERT"><g id="CIRCLE-60" data-name="CIRCLE"><path class="cls-5" d="M1658.65-1a1.4,1.4,0,0,1,0-2,1.39,1.39,0,0,1,2,0,1.4,1.4,0,0,1,0,2,1.37,1.37,0,0,1-2,0Z"/></g></g><path class="cls-5" d="M1670.27-.06a2.75,2.75,0,0,0,3.91,0,2.8,2.8,0,0,0,0-3.94,2.75,2.75,0,0,0-3.91,0A2.79,2.79,0,0,0,1670.27-.06Zm.56-2,1.39-1.39L1673.61-2l-1.39,1.4Z"/><path class="cls-5" d="M1645.08-.06a2.76,2.76,0,0,0,3.92,0A2.8,2.8,0,0,0,1649-4a2.76,2.76,0,0,0-3.92,0A2.79,2.79,0,0,0,1645.08-.06Zm.57-2L1647-3.42,1648.42-2,1647-.63Z"/><polyline class="cls-5" points="1742.3 268.49 1742.3 320.18 1745.66 320.18"/><polyline class="cls-5" points="1761.81 268.49 1761.81 287.85 1765.17 287.85"/><path class="cls-5" d="M1733.91,234.88h36.29a0,0,0,0,1,0,0v22a5.63,5.63,0,0,1-5.63,5.63h-25a5.63,5.63,0,0,1-5.63-5.63v-22a0,0,0,0,1,0,0Z" transform="translate(3504.11 497.43) rotate(-180)"/><rect class="cls-5" x="1738.45" y="262.55" width="7.71" height="5.94" transform="translate(3484.6 531.04) rotate(-180)"/><rect class="cls-5" x="1757.95" y="262.55" width="7.71" height="5.94"/><g id="INSERT-58" data-name="INSERT"><g id="CIRCLE-61" data-name="CIRCLE"><path class="cls-5" d="M1751.08,250.68a1.39,1.39,0,1,1,2-2,1.41,1.41,0,0,1,0,2,1.37,1.37,0,0,1-2,0Z"/></g></g><path class="cls-5" d="M1760.1,251.67a2.74,2.74,0,0,0,3.92,0,2.79,2.79,0,0,0,0-3.93,2.74,2.74,0,0,0-3.92,0A2.78,2.78,0,0,0,1760.1,251.67Zm.57-2,1.39-1.4,1.38,1.4-1.38,1.39Z"/><path class="cls-5" d="M1740.09,251.67a2.74,2.74,0,0,0,3.92,0,2.79,2.79,0,0,0,0-3.93,2.74,2.74,0,0,0-3.92,0A2.8,2.8,0,0,0,1740.09,251.67Zm.58-2,1.38-1.4,1.39,1.4-1.39,1.39Z"/><line class="cls-5" x1="1828.58" y1="52.02" x2="1828.58" y2="81.28"/><line class="cls-5" x1="1832.69" y1="52.02" x2="1832.69" y2="81.28"/><path class="cls-5" d="M1871.88,89.87v0a24.53,24.53,0,0,0-24.52-23.53"/><path class="cls-5" d="M1719.54,89.87v0a24.53,24.53,0,0,1,24.52-23.53"/><rect class="cls-5" x="1744.05" y="52.02" width="103.31" height="29.33" rx="14.67" transform="translate(3591.41 133.38) rotate(-180)"/><path class="cls-5" d="M1807.82,73.69a2.77,2.77,0,1,0,0-3.91A2.76,2.76,0,0,0,1807.82,73.69Zm.57-2,1.39-1.39,1.38,1.39-1.38,1.39Z"/><path class="cls-5" d="M1779.67,73.69a2.77,2.77,0,1,0,0-3.91A2.76,2.76,0,0,0,1779.67,73.69Zm.57-2,1.39-1.39,1.39,1.39-1.39,1.39Z"/><g id="INSERT-59" data-name="INSERT"><g id="CIRCLE-62" data-name="CIRCLE"><path class="cls-5" d="M1798.47,71.74a2.77,2.77,0,1,1-5.53,0"/></g></g><rect class="cls-5" x="1819.37" y="11.37" width="7.28" height="2.34"/><rect class="cls-5" x="1782.62" y="11.37" width="7.28" height="2.34"/><g id="INSERT-60" data-name="INSERT"><g id="CIRCLE-63" data-name="CIRCLE"><path class="cls-5" d="M1808.28,12.55a3.64,3.64,0,0,1-7.28,0"/></g></g><path class="cls-5" d="M1770.58-66.5a5.61,5.61,0,0,0-3,5V37.58a5.66,5.66,0,0,0,5.65,5.66H1836a5.66,5.66,0,0,0,5.65-5.66V-61.54a5.61,5.61,0,0,0-3-5"/><rect class="cls-5" x="1557.25" y="207.21" width="112.07" height="43.51" rx="19.08"/><line class="cls-5" x1="1648.04" y1="260.29" x2="1648.04" y2="289.99"/><polyline class="cls-5" points="1578.69 260.29 1578.69 297.18 1574.54 297.18"/><rect class="cls-5" x="1644.1" y="250.72" width="7.88" height="9.57"/><rect class="cls-5" x="1574.6" y="250.72" width="7.88" height="9.57" transform="translate(3157.08 511.01) rotate(-180)"/><path class="cls-5" d="M1577.22,232.52l-3.56,3.56,3.56,3.55,3.55-3.55Zm-1.75,3.56,1.78-1.78,1.77,1.78-1.77,1.77Z"/><path class="cls-5" d="M1613.31,232.52l-3.55,3.56,3.55,3.55,3.56-3.55Zm-1.74,3.56,1.77-1.78,1.78,1.78-1.78,1.77Z"/><g id="CIRCLE-64" data-name="CIRCLE"><path class="cls-5" d="M1591.72,235.19a3.55,3.55,0,1,0,7.09,0"/></g><line class="cls-5" x1="1652.21" y1="250.02" x2="1652.21" y2="207.91"/><line class="cls-5" x1="1648.04" y1="250.02" x2="1648.04" y2="207.91"/><polyline class="cls-5" points="1584.93 -27.44 1584.93 38.77 1588.29 38.77"/></g></g></svg>