<svg id="Capa_1" data-name="Capa 1" xmlns="http://www.w3.org/2000/svg" viewBox="0 0 546.65 103.72"><defs><style>.cls-1{fill:#ffb100;}.cls-2{fill:#fff;stroke:#fff;stroke-miterlimit:10;}</style></defs><rect class="cls-1" width="546.65" height="103.72" rx="51.86"/><path class="cls-2" d="M60.22,32.36H76.79a18.11,18.11,0,0,1,6.33,1A13,13,0,0,1,87.7,36.2a11.93,11.93,0,0,1,2.75,4.18,13.91,13.91,0,0,1,.93,5.1,12.21,12.21,0,0,1-2.72,8,12,12,0,0,1-2.59,2.39,17.88,17.88,0,0,1-2.58,1.45l10,16.84H81.9L74.47,59.07H70.29V74.12H60.22ZM70.29,51.45h3a10,10,0,0,0,5.57-1.39A5,5,0,0,0,81,45.55a5.22,5.22,0,0,0-1.72-4.11,7.26,7.26,0,0,0-5-1.53h-4Z"/><path class="cls-2" d="M100.86,32.36H128.7v7.69H110.93V48.6h16v7.62h-16V66.43h18v7.69h-28Z"/><path class="cls-2" d="M157.81,31.56a34,34,0,0,1,7.06.66A26,26,0,0,1,170.34,34l-2.06,6.63A18.7,18.7,0,0,0,163.54,39a24.65,24.65,0,0,0-4.81-.5,14.3,14.3,0,0,0-5,.86,10.93,10.93,0,0,0-4.08,2.69,12.8,12.8,0,0,0-2.75,4.61,19.78,19.78,0,0,0-1,6.63q0,7,3.08,10.77t8.85,3.75a21.23,21.23,0,0,0,2.52-.14,6.48,6.48,0,0,0,1.72-.39V58.21h-6.56V50.79h16.24V72.27a30.66,30.66,0,0,1-6.1,1.85,38.63,38.63,0,0,1-7.88.73A27.1,27.1,0,0,1,149,73.46a20.35,20.35,0,0,1-7.13-4.14,19,19,0,0,1-4.77-6.77,23,23,0,0,1-1.73-9.24A23.58,23.58,0,0,1,137.06,44a18.86,18.86,0,0,1,4.77-6.83A20.73,20.73,0,0,1,149,33,26.58,26.58,0,0,1,157.81,31.56Z"/><path class="cls-2" d="M191.42,32.36V74.12H181.34V32.36Zm-.67-4h-8.08l5.3-8.22h10.47Z"/><path class="cls-2" d="M216.28,31.56a28.08,28.08,0,0,1,7.56.9,26.4,26.4,0,0,1,5.5,2.15L227.08,42a29.91,29.91,0,0,0-5.2-2.09,17.84,17.84,0,0,0-5-.76,8,8,0,0,0-4.64,1.13,3.48,3.48,0,0,0-1.59,3,3.36,3.36,0,0,0,1.53,3.08,22.31,22.31,0,0,0,4.7,2l3.92,1.26a24.52,24.52,0,0,1,4.31,2,15.09,15.09,0,0,1,3.41,2.68,11.45,11.45,0,0,1,2.22,3.45,10.85,10.85,0,0,1,.8,4.18,12.72,12.72,0,0,1-1,5,11.46,11.46,0,0,1-3,4.15,14.52,14.52,0,0,1-5.1,2.82,23.13,23.13,0,0,1-7.26,1,32.31,32.31,0,0,1-7.46-.83,28.38,28.38,0,0,1-6.53-2.35l2.26-7.36A35.13,35.13,0,0,0,209,66.5a20.3,20.3,0,0,0,5.71.8q3.51,0,5.07-1.17A3.7,3.7,0,0,0,221.32,63a3.47,3.47,0,0,0-.27-1.33,3.72,3.72,0,0,0-1-1.33A9.07,9.07,0,0,0,217.9,59a28.09,28.09,0,0,0-3.48-1.29l-3.25-1.13a34.16,34.16,0,0,1-4.31-1.92,14,14,0,0,1-3.41-2.52,10.56,10.56,0,0,1-2.22-3.38,12,12,0,0,1-.8-4.58,12.17,12.17,0,0,1,1-5,11,11,0,0,1,3-4,15,15,0,0,1,5-2.65A22,22,0,0,1,216.28,31.56Z"/><path class="cls-2" d="M269.31,32.36v7.82h-11.4V74.12H247.83V40.18H236.7V32.36Z"/><path class="cls-2" d="M276.28,32.36h16.57a18.11,18.11,0,0,1,6.33,1,12.92,12.92,0,0,1,4.57,2.82,11.82,11.82,0,0,1,2.76,4.18,14.12,14.12,0,0,1,.92,5.1,12.47,12.47,0,0,1-.76,4.55,12.71,12.71,0,0,1-1.95,3.41,12,12,0,0,1-2.59,2.39,17.94,17.94,0,0,1-2.59,1.45l10,16.84H298l-7.42-15.05h-4.18V74.12H276.28Zm10.07,19.09h3A10,10,0,0,0,295,50.06a5,5,0,0,0,2.12-4.51,5.22,5.22,0,0,0-1.72-4.11,7.26,7.26,0,0,0-5-1.53h-4Z"/><path class="cls-2" d="M328.78,32.36h10.74l15.05,41.76H343.9l-2.85-9H327l-2.85,9H313.6Zm.4,25.52h9.54l-1.59-5c-.53-1.63-1.07-3.38-1.62-5.23s-1-3.56-1.43-5.11H334q-.66,2.32-1.52,5t-1.66,5.3Z"/><path class="cls-2" d="M362.13,32.36H378.7a18.11,18.11,0,0,1,6.33,1,13,13,0,0,1,4.58,2.82,11.93,11.93,0,0,1,2.75,4.18,13.91,13.91,0,0,1,.93,5.1,12.21,12.21,0,0,1-2.72,8A12,12,0,0,1,388,55.83a18.43,18.43,0,0,1-2.58,1.45l10,16.84h-11.6l-7.43-15.05H372.2V74.12H362.13ZM372.2,51.45h3.05a10,10,0,0,0,5.57-1.39,5,5,0,0,0,2.12-4.51,5.22,5.22,0,0,0-1.72-4.11,7.26,7.26,0,0,0-5-1.53H372.2Z"/><path class="cls-2" d="M405.48,32.36h12.6L422.59,47c.31.88.63,1.91,1,3.08s.66,2.39,1,3.65.64,2.53.93,3.81.52,2.47.7,3.58h.33c.18-1.19.43-2.49.76-3.88s.67-2.74,1-4,.65-2.51,1-3.62.55-2,.73-2.58l4.37-14.65h12.6l3,41.76h-9.41L439.76,60c-.09-1.32-.16-2.77-.2-4.34s-.08-3.17-.1-4.81,0-3.24,0-4.84V41.64h-.2c-.31,1.46-.65,3-1,4.51s-.76,3.08-1.16,4.6-.79,3-1.19,4.45-.8,2.75-1.2,3.94l-4.64,15h-7.55l-4.84-14.91c-.4-1.24-.8-2.58-1.2-4s-.78-2.92-1.16-4.45-.74-3.06-1.09-4.6-.66-3-.93-4.51H413c0,1.41.06,3,0,4.61s-.06,3.31-.1,5-.1,3.25-.17,4.77-.12,2.86-.17,4l-.72,14.12h-9.29Z"/><path class="cls-2" d="M460.51,32.36h27.84v7.69H470.59V48.6h16v7.62h-16V66.43h18v7.69h-28Z"/></svg>