<svg id="Capa_1" data-name="Capa 1" xmlns="http://www.w3.org/2000/svg" viewBox="0 0 304.93 204.34"><defs><style>.cls-1{fill:#ffb100;}.cls-2{fill:#fff;}</style></defs><path class="cls-1" d="M224.1,61.63H152.66V17.45a11,11,0,0,1,11-10.95h49.54a11,11,0,0,1,10.95,11ZM155.49,58.8h65.79V17.45a8.14,8.14,0,0,0-8.13-8.13H163.61a8.13,8.13,0,0,0-8.12,8.13Z"/><path class="cls-1" d="M215.51,72.86H198.12V58.8h17.39ZM200.94,70h11.75v-8.4H200.94Z"/><path class="cls-1" d="M178.64,72.86H161.25V58.8h17.39ZM164.07,70h11.75v-8.4H164.07Z"/><g id="INSERT"><g id="CIRCLE"><path class="cls-2" d="M190.23,37.78a2.63,2.63,0,0,0-3.71-3.72,2.66,2.66,0,0,0,0,3.72,2.6,2.6,0,0,0,3.71,0Z"/></g></g><path class="cls-2" d="M173.17,32.21a5.2,5.2,0,0,0-7.4,0,5.3,5.3,0,0,0,0,7.45,5.2,5.2,0,0,0,7.4,0A5.28,5.28,0,0,0,173.17,32.21Zm-3.7,6.36-2.62-2.64,2.62-2.63,2.62,2.63Z"/><path class="cls-2" d="M211,32.21a5.21,5.21,0,0,0-7.41,0,5.3,5.3,0,0,0,0,7.45,5.21,5.21,0,0,0,7.41,0A5.29,5.29,0,0,0,211,32.21Zm-3.7,6.36-2.62-2.64,2.62-2.63,2.62,2.63Z"/><path class="cls-2" d="M148.84,21.39a1.43,1.43,0,0,1-.56-.11c-1.82-.74-3.69-1.47-5.55-2.16a1.5,1.5,0,1,1,1.05-2.81c1.89.71,3.78,1.44,5.62,2.19a1.5,1.5,0,0,1,.83,1.95A1.48,1.48,0,0,1,148.84,21.39Z"/><path class="cls-2" d="M131.49,15.11A1.51,1.51,0,0,1,131,15c-3.91-1.25-7.9-2.43-11.88-3.49a1.5,1.5,0,0,1,.78-2.9c4,1.08,8.06,2.26,12,3.53a1.51,1.51,0,0,1,1,1.89A1.49,1.49,0,0,1,131.49,15.11ZM107.44,8.68a1.73,1.73,0,0,1-.32,0C103.1,7.79,99,7,95,6.35a1.5,1.5,0,0,1-1.23-1.73,1.49,1.49,0,0,1,1.72-1.23c4.1.67,8.25,1.45,12.31,2.33a1.5,1.5,0,0,1-.31,3ZM20.73,5.12a1.5,1.5,0,0,1-.19-3c4.12-.53,8.31-1,12.46-1.3a1.5,1.5,0,1,1,.24,3c-4.1.33-8.25.76-12.32,1.29Zm62.13-.47h-.17c-4.08-.46-8.23-.84-12.33-1.1a1.5,1.5,0,0,1,.19-3c4.16.27,8.36.65,12.48,1.12a1.5,1.5,0,0,1-.17,3ZM45.56,3.13a1.5,1.5,0,0,1-.05-3C49.66,0,53.88,0,58,0a1.48,1.48,0,0,1,1.47,1.52A1.49,1.49,0,0,1,58,3C53.88,3,49.7,3,45.6,3.13Z"/><path class="cls-2" d="M2.5,8.16a1.5,1.5,0,0,1-.3-3c2-.4,4-.78,5.93-1.13A1.49,1.49,0,0,1,9.87,5.27,1.51,1.51,0,0,1,8.66,7c-2,.35-3.93.73-5.86,1.12Z"/><path class="cls-2" d="M302.43,204.34a1.49,1.49,0,0,1-1.46-1.19c-.42-2-.86-3.93-1.31-5.82a1.5,1.5,0,1,1,2.92-.69c.46,1.92.9,3.9,1.32,5.89a1.5,1.5,0,0,1-1.16,1.78A1.55,1.55,0,0,1,302.43,204.34Z"/><path class="cls-2" d="M298.31,187.66a1.49,1.49,0,0,1-1.44-1.09c-1-3.54-2.11-7.12-3.28-10.62a1.5,1.5,0,0,1,2.85-.95c1.18,3.55,2.29,7.17,3.31,10.75a1.51,1.51,0,0,1-1,1.86A2,2,0,0,1,298.31,187.66Zm-7.05-21.21a1.49,1.49,0,0,1-1.4-1c-1.32-3.44-2.73-6.91-4.2-10.29a1.5,1.5,0,1,1,2.75-1.19c1.48,3.42,2.91,6.92,4.25,10.41a1.51,1.51,0,0,1-.87,1.94A1.39,1.39,0,0,1,291.26,166.45Zm-8.9-20.51a1.49,1.49,0,0,1-1.35-.85c-1.61-3.3-3.33-6.63-5.09-9.88a1.5,1.5,0,1,1,2.63-1.43c1.79,3.29,3.52,6.65,5.16,10a1.51,1.51,0,0,1-1.35,2.16Zm-10.68-19.65a1.5,1.5,0,0,1-1.28-.72c-1.91-3.17-3.91-6.33-5.94-9.4a1.5,1.5,0,1,1,2.5-1.66c2.06,3.11,4.08,6.31,6,9.51a1.51,1.51,0,0,1-.51,2.06A1.58,1.58,0,0,1,271.68,126.29Zm-12.36-18.63a1.49,1.49,0,0,1-1.21-.61c-2.17-3-4.44-6-6.74-8.84a1.5,1.5,0,0,1,2.35-1.87c2.32,2.92,4.62,5.93,6.82,8.94a1.51,1.51,0,0,1-.33,2.1A1.54,1.54,0,0,1,259.32,107.66ZM245.38,90.19a1.49,1.49,0,0,1-1.13-.51c-2.43-2.79-4.95-5.55-7.49-8.22a1.5,1.5,0,1,1,2.17-2.07c2.57,2.7,5.12,5.5,7.58,8.32a1.49,1.49,0,0,1-1.13,2.48Z"/><path class="cls-2" d="M230,74a1.5,1.5,0,0,1-1-.42c-1.43-1.38-2.9-2.75-4.35-4.09a1.5,1.5,0,0,1,2-2.21c1.47,1.35,2.95,2.74,4.4,4.14a1.49,1.49,0,0,1,0,2.12A1.52,1.52,0,0,1,230,74Z"/></svg>