<svg xmlns="http://www.w3.org/2000/svg" viewBox="0 0 59.33 55.11"><defs><style>.cls-1{fill:#ffb100;}.cls-2{fill:#fff;}</style></defs><g id="Textos"><path class="cls-1" d="M59.33,45.78H0V9.09A9.1,9.1,0,0,1,9.09,0H50.23a9.11,9.11,0,0,1,9.1,9.09Zm-57-2.34H57V9.09a6.76,6.76,0,0,0-6.75-6.75H9.09A6.76,6.76,0,0,0,2.34,9.09Z"/><path class="cls-1" d="M52.2,55.11H37.75V43.44H52.2ZM40.1,52.76h9.75v-7H40.1Z"/><path class="cls-1" d="M21.58,55.11H7.13V43.44H21.58ZM9.47,52.76h9.76v-7H9.47Z"/><g id="INSERT"><g id="CIRCLE"><path class="cls-2" d="M31.2,26a2.18,2.18,0,1,0-3.08,0,2.16,2.16,0,0,0,3.08,0Z"/></g></g><path class="cls-2" d="M17,21.35a4.33,4.33,0,0,0-6.15,0,4.41,4.41,0,0,0,0,6.19,4.33,4.33,0,0,0,6.15,0A4.39,4.39,0,0,0,17,21.35ZM14,26.63l-2.18-2.19L14,22.25l2.18,2.19Z"/><path class="cls-2" d="M48.44,21.35a4.33,4.33,0,0,0-6.15,0,4.39,4.39,0,0,0,0,6.19,4.33,4.33,0,0,0,6.15,0A4.39,4.39,0,0,0,48.44,21.35Zm-3.07,5.28-2.18-2.19,2.18-2.19,2.17,2.19Z"/></g></svg>