<svg id="Capa_1" data-name="Capa 1" xmlns="http://www.w3.org/2000/svg" viewBox="0 0 513.89 34.78"><defs><style>.cls-1{fill:#ff9300;}</style></defs><path class="cls-1" d="M0,21.14c0-8,6.15-13.65,14.54-13.65,5.1,0,9.13,1.87,11.7,5.22l-5.55,5A7.06,7.06,0,0,0,15,14.61c-3.65,0-6.11,2.54-6.11,6.53s2.46,6.52,6.11,6.52a7.06,7.06,0,0,0,5.71-3.06l5.55,5c-2.57,3.35-6.6,5.22-11.7,5.22C6.15,34.78,0,29.15,0,21.14Z"/><path class="cls-1" d="M28.11,21.14c0-7.91,6.22-13.65,14.72-13.65s14.73,5.74,14.73,13.65S51.33,34.78,42.83,34.78,28.11,29,28.11,21.14Zm20.57,0c0-4.07-2.6-6.53-5.85-6.53S37,17.07,37,21.14s2.61,6.52,5.85,6.52S48.68,25.2,48.68,21.14Z"/><path class="cls-1" d="M87.42,8.09V34.18H80.19L70.27,22.33V34.18H61.7V8.09h7.23l9.91,11.85V8.09Z"/><path class="cls-1" d="M103.67,21.14c0-8,6.15-13.65,14.54-13.65,5.11,0,9.13,1.87,11.71,5.22l-5.56,5a7,7,0,0,0-5.7-3.06c-3.65,0-6.11,2.54-6.11,6.53s2.46,6.52,6.11,6.52a7,7,0,0,0,5.7-3.06l5.56,5c-2.58,3.35-6.6,5.22-11.71,5.22C109.82,34.78,103.67,29.15,103.67,21.14Z"/><path class="cls-1" d="M131.78,21.14c0-7.91,6.23-13.65,14.73-13.65s14.72,5.74,14.72,13.65S155,34.78,146.51,34.78,131.78,29,131.78,21.14Zm20.58,0c0-4.07-2.61-6.53-5.85-6.53s-5.86,2.46-5.86,6.53,2.61,6.52,5.86,6.52S152.36,25.2,152.36,21.14Z"/><path class="cls-1" d="M165.37,8.09h8.8V27.36H186v6.82H165.37Z"/><path class="cls-1" d="M207.46,29.63h-9.92l-1.75,4.55h-8.95L198.25,8.09h8.65l11.4,26.09h-9.09ZM205,23.3l-2.53-6.56L200,23.3Z"/><path class="cls-1" d="M246.38,27c0,4.54-3.84,7.19-11,7.19H220.66V8.09H234.6c7.19,0,10.55,2.87,10.55,6.82a6.08,6.08,0,0,1-3.62,5.63C244.59,21.66,246.38,23.89,246.38,27ZM229.3,14.24v3.88h4.1c2,0,2.88-.67,2.88-1.94s-.9-1.94-2.88-1.94ZM237.51,26c0-1.34-1-2.05-2.91-2.05h-5.3V28h5.3C236.54,28,237.51,27.32,237.51,26Z"/><path class="cls-1" d="M249.36,21.14c0-7.91,6.23-13.65,14.73-13.65s14.72,5.74,14.72,13.65-6.22,13.64-14.72,13.64S249.36,29,249.36,21.14Zm20.58,0c0-4.07-2.61-6.53-5.85-6.53s-5.86,2.46-5.86,6.53,2.61,6.52,5.86,6.52S269.94,25.2,269.94,21.14Z"/><path class="cls-1" d="M294.13,27.62h-2.38v6.56H283V8.09h12.56c7.27,0,11.89,3.8,11.89,9.84a8.74,8.74,0,0,1-4.92,8.2L308,34.18h-9.39ZM295,14.87h-3.2V21H295c2.43,0,3.58-1.16,3.58-3.06S297.38,14.87,295,14.87Z"/><path class="cls-1" d="M329.44,29.63h-9.92l-1.75,4.55h-8.95L320.23,8.09h8.65l11.4,26.09h-9.09ZM327,23.3l-2.53-6.56-2.54,6.56Z"/><path class="cls-1" d="M341.22,21.14c0-8,6.15-13.65,14.54-13.65,5.1,0,9.13,1.87,11.7,5.22l-5.55,5a7.06,7.06,0,0,0-5.71-3.06c-3.65,0-6.11,2.54-6.11,6.53s2.46,6.52,6.11,6.52a7.06,7.06,0,0,0,5.71-3.06l5.55,5c-2.57,3.35-6.6,5.22-11.7,5.22C347.37,34.78,341.22,29.15,341.22,21.14Z"/><path class="cls-1" d="M370.93,8.09h8.8V34.18h-8.8Z"/><path class="cls-1" d="M383.87,21.14c0-7.91,6.22-13.65,14.72-13.65s14.72,5.74,14.72,13.65-6.22,13.64-14.72,13.64S383.87,29,383.87,21.14Zm20.57,0c0-4.07-2.61-6.53-5.85-6.53s-5.85,2.46-5.85,6.53,2.61,6.52,5.85,6.52S404.44,25.2,404.44,21.14ZM399.6,0h8l-7.34,6h-5.59Z"/><path class="cls-1" d="M443.18,8.09V34.18h-7.24L426,22.33V34.18h-8.57V8.09h7.23l9.91,11.85V8.09Z"/><path class="cls-1" d="M460.48,8.09h12.86c8.72,0,14.72,5,14.72,13.05s-6,13-14.72,13H460.48ZM473,27.32c3.69,0,6.23-2.2,6.23-6.18S476.65,15,473,15h-3.69V27.32Z"/><path class="cls-1" d="M513.89,27.55v6.63H492.2V8.09h21.21v6.63H500.85v3.06h11v6.34h-11v3.43Z"/></svg>