<svg id="Capa_1" data-name="Capa 1" xmlns="http://www.w3.org/2000/svg" viewBox="0 0 238 238"><defs><style>.cls-1{fill:#aa182c;}.cls-2{fill:#6bcbb8;}.cls-3{fill:#fff;}.cls-4{fill:#f4b223;}</style></defs><circle class="cls-1" cx="119" cy="119" r="119"/><path class="cls-2" d="M118.1,220h0c-2.68,0-5.38-.15-8-.39a2,2,0,0,1,.35-3.93c2.55.23,5.15.35,7.72.37a2,2,0,0,1,0,3.95Zm7.88-.24a2,2,0,0,1-.13-3.94c2.56-.18,5.15-.47,7.68-.85a2,2,0,0,1,.59,3.91c-2.64.39-5.33.69-8,.88Zm-23.59-1.14a1.84,1.84,0,0,1-.33,0c-2.64-.44-5.29-1-7.88-1.65a2,2,0,1,1,1-3.83c2.48.63,5,1.16,7.56,1.59a2,2,0,0,1-.32,3.92Zm39.19-1.21a2,2,0,0,1-.45-3.89c2.5-.59,5-1.28,7.45-2.06a2,2,0,0,1,1.21,3.76c-2.55.81-5.16,1.53-7.76,2.14A1.77,1.77,0,0,1,141.58,217.39ZM87.1,214.74a2,2,0,0,1-.64-.1c-2.53-.86-5-1.84-7.51-2.9a2,2,0,0,1,1.57-3.62c2.36,1,4.78,1.95,7.21,2.78a2,2,0,0,1-.63,3.84Zm69.51-2.16a2,2,0,0,1-.76-3.8c2.38-1,4.75-2.06,7-3.22a2,2,0,1,1,1.79,3.51c-2.39,1.22-4.85,2.35-7.32,3.36A1.83,1.83,0,0,1,156.61,212.58Zm-84-4.09a1.94,1.94,0,0,1-.93-.23c-2.35-1.25-4.69-2.62-7-4a2,2,0,0,1,2.12-3.33c2.17,1.38,4.42,2.69,6.68,3.89a2,2,0,0,1-.92,3.72Zm98-3.06a2,2,0,0,1-1-3.65c2.19-1.35,4.35-2.8,6.43-4.31a2,2,0,1,1,2.33,3.19c-2.17,1.58-4.42,3.08-6.7,4.48A1.91,1.91,0,0,1,170.67,205.43ZM59.33,200a2,2,0,0,1-1.19-.4c-2.13-1.61-4.22-3.32-6.22-5.1a2,2,0,0,1,2.62-2.95c1.92,1.71,3.94,3.36,6,4.9A2,2,0,0,1,59.33,200Zm124.09-3.87a2,2,0,0,1-1.28-3.47c2-1.68,3.85-3.45,5.66-5.27a2,2,0,1,1,2.8,2.78c-1.88,1.9-3.86,3.74-5.89,5.48A2,2,0,0,1,183.42,196.14Zm-135.88-6.6a2,2,0,0,1-1.42-.61c-1.85-1.93-3.65-4-5.34-6a2,2,0,1,1,3-2.5c1.63,2,3.36,3.93,5.14,5.78a2,2,0,0,1-1.43,3.35Zm147-4.59a1.93,1.93,0,0,1-1.27-.47,2,2,0,0,1-.23-2.78c1.66-2,3.26-4,4.76-6.09a2,2,0,1,1,3.2,2.3c-1.56,2.17-3.22,4.3-4.95,6.34A2,2,0,0,1,194.54,185Zm-157-7.62a2,2,0,0,1-1.63-.85c-1.52-2.2-3-4.49-4.32-6.8a2,2,0,1,1,3.41-2c1.29,2.22,2.69,4.41,4.16,6.53a2,2,0,0,1-1.62,3.1Zm166.19-5.18a1.91,1.91,0,0,1-1-.29,2,2,0,0,1-.67-2.71c1.33-2.19,2.59-4.47,3.74-6.77a2,2,0,0,1,3.53,1.77c-1.2,2.39-2.51,4.76-3.89,7A2,2,0,0,1,203.75,172.15ZM29.63,163.68a2,2,0,0,1-1.79-1.12c-1.15-2.41-2.22-4.9-3.18-7.4a2,2,0,1,1,3.68-1.41c.92,2.4,1.95,4.79,3.06,7.11a2,2,0,0,1-.92,2.63A2,2,0,0,1,29.63,163.68Zm181.18-5.62a1.92,1.92,0,0,1-.74-.15,2,2,0,0,1-1.09-2.57c1-2.38,1.84-4.83,2.6-7.28a2,2,0,0,1,3.77,1.18c-.8,2.55-1.71,5.1-2.71,7.58A2,2,0,0,1,210.81,158.06ZM24,149a2,2,0,0,1-1.89-1.41c-.75-2.57-1.41-5.19-2-7.81a2,2,0,1,1,3.86-.81c.53,2.52,1.16,5,1.89,7.5a2,2,0,0,1-1.34,2.45A1.81,1.81,0,0,1,24,149ZM215.53,143a2.12,2.12,0,0,1-.44,0,2,2,0,0,1-1.49-2.37c.57-2.5,1-5.05,1.41-7.6a2,2,0,1,1,3.91.57c-.38,2.64-.88,5.31-1.47,7.91A2,2,0,0,1,215.53,143ZM20.75,133.52a2,2,0,0,1-2-1.73c-.33-2.65-.56-5.34-.69-8a2,2,0,1,1,3.94-.18c.12,2.57.35,5.16.67,7.7A2,2,0,0,1,21,133.5Zm197-6.12h-.13a2,2,0,0,1-1.84-2.09c.13-2.08.2-4.2.2-6.3,0-2.57-.1-5.17-.3-7.73a2,2,0,1,1,3.93-.31c.21,2.66.32,5.36.32,8,0,2.18-.07,4.38-.21,6.55A2,2,0,0,1,217.78,127.4ZM20,117.76H20a2,2,0,0,1-1.91-2c.09-2.67.28-5.37.58-8a2,2,0,1,1,3.92.44c-.28,2.54-.47,5.14-.55,7.71A2,2,0,0,1,20,117.76Zm196.72-12.51a2,2,0,0,1-2-1.66c-.4-2.54-.91-5.09-1.52-7.58a2,2,0,1,1,3.84-.93c.63,2.59,1.16,5.25,1.58,7.89a2,2,0,0,1-1.64,2.26A1.62,1.62,0,0,1,216.74,105.25Zm-195-3.16a1.64,1.64,0,0,1-.38,0,2,2,0,0,1-1.57-2.31c.51-2.63,1.13-5.26,1.85-7.84A2,2,0,0,1,25.47,93c-.69,2.47-1.28,5-1.77,7.53A2,2,0,0,1,21.77,102.09ZM213,89.93a2,2,0,0,1-1.87-1.36c-.81-2.44-1.72-4.87-2.72-7.24a2,2,0,1,1,3.63-1.54c1.05,2.47,2,5,2.83,7.55A2,2,0,0,1,213,89.93Zm-187-3a1.78,1.78,0,0,1-.68-.12,2,2,0,0,1-1.18-2.53c.92-2.51,1.95-5,3.07-7.43a2,2,0,0,1,3.59,1.65c-1.08,2.33-2.07,4.73-2.95,7.14A2,2,0,0,1,26,86.89Zm180.9-11.5a2,2,0,0,1-1.75-1.07C204,72,202.66,69.78,201.3,67.6a2,2,0,1,1,3.34-2.09c1.42,2.27,2.77,4.62,4,7a2,2,0,0,1-1.75,2.89ZM32.58,72.58a2,2,0,0,1-1-.25,2,2,0,0,1-.75-2.69c1.3-2.33,2.72-4.64,4.21-6.86A2,2,0,1,1,38.35,65c-1.43,2.14-2.79,4.35-4.05,6.59A2,2,0,0,1,32.58,72.58ZM198.52,62a2,2,0,0,1-1.59-.8c-1.53-2.06-3.16-4.09-4.85-6a2,2,0,1,1,3-2.6c1.76,2,3.46,4.12,5,6.27a2,2,0,0,1-.4,2.76A2,2,0,0,1,198.52,62ZM41.37,59.49a2,2,0,0,1-1.23-.43,2,2,0,0,1-.32-2.78c1.66-2.09,3.43-4.14,5.25-6.1A2,2,0,0,1,48,52.87c-1.75,1.88-3.45,3.86-5.05,5.87A2,2,0,0,1,41.37,59.49Zm146.77-9.36a2,2,0,0,1-1.38-.56C184.92,47.77,183,46,181,44.39a2,2,0,1,1,2.52-3c2.06,1.71,4.07,3.52,6,5.39a2,2,0,0,1,0,2.79A2,2,0,0,1,188.14,50.13Zm-136-2.19a2,2,0,0,1-1.46-.64,2,2,0,0,1,.12-2.79c2-1.8,4-3.55,6.15-5.19a2,2,0,0,1,2.43,3.11c-2,1.58-4,3.26-5.91,5A2,2,0,0,1,52.12,47.94ZM176,40a2,2,0,0,1-1.14-.36c-2.1-1.49-4.28-2.9-6.49-4.21a2,2,0,1,1,2-3.39c2.3,1.36,4.57,2.83,6.76,4.37a2,2,0,0,1,.47,2.75A2,2,0,0,1,176,40ZM64.56,38.24a2,2,0,0,1-1.09-3.62c2.24-1.47,4.56-2.87,6.9-4.16a2,2,0,0,1,1.9,3.46c-2.25,1.24-4.48,2.58-6.62,4A2,2,0,0,1,64.56,38.24ZM162.46,32a2,2,0,0,1-.87-.2c-2.31-1.13-4.69-2.18-7.07-3.12A2,2,0,1,1,156,25c2.49,1,5,2.07,7.37,3.24a2,2,0,0,1-.87,3.75ZM78.39,30.64a2,2,0,0,1-1.8-1.17,2,2,0,0,1,1-2.61c2.44-1.09,5-2.11,7.47-3a2,2,0,0,1,1.33,3.71c-2.42.87-4.84,1.84-7.18,2.89A2,2,0,0,1,78.39,30.64Zm69.4-4.42a2.38,2.38,0,0,1-.58-.08c-2.45-.75-5-1.4-7.48-1.95a2,2,0,0,1,.84-3.86c2.61.57,5.23,1.25,7.79,2a2,2,0,0,1-.57,3.86Zm-54.54-.88a2,2,0,0,1-.51-3.88c2.58-.69,5.22-1.29,7.85-1.77a2,2,0,1,1,.71,3.88c-2.52.46-5.06,1-7.54,1.7A1.79,1.79,0,0,1,93.25,25.34Zm39.13-2.48h-.27c-2.54-.35-5.13-.59-7.7-.74a2,2,0,1,1,.22-3.94c2.68.15,5.37.41,8,.76a2,2,0,0,1-.26,3.93Zm-23.63-.38a2,2,0,0,1-.2-3.93c2.66-.28,5.36-.44,8-.51a2,2,0,1,1,.09,3.95c-2.58.06-5.17.22-7.72.48Z"/><path class="cls-3" d="M65.79,118.72v4a.65.65,0,0,1-.71.71H48a.65.65,0,0,1-.71-.71V94.82a.65.65,0,0,1,.71-.71H64.64a.65.65,0,0,1,.71.71v4.05a.66.66,0,0,1-.71.71H53.46v6.5h10a.66.66,0,0,1,.71.71v4a.65.65,0,0,1-.71.71h-10V118H65.08A.65.65,0,0,1,65.79,118.72Z"/><path class="cls-3" d="M92.36,94.91l-9.08,28a.81.81,0,0,1-.8.58H77.94a.78.78,0,0,1-.8-.58l-9.08-28c-.18-.54.09-.8.58-.8h4.72a.87.87,0,0,1,.8.57l2.89,8.91c1,3.38,2.14,7.83,3.16,11.84,1.07-4,2.14-8.46,3.21-11.84l2.89-8.91a.78.78,0,0,1,.8-.57h4.67C92.27,94.11,92.54,94.37,92.36,94.91Z"/><path class="cls-3" d="M114.44,118.72v4a.65.65,0,0,1-.71.71H96.64a.65.65,0,0,1-.72-.71V94.82a.65.65,0,0,1,.72-.71h16.64a.65.65,0,0,1,.71.71v4.05a.65.65,0,0,1-.71.71H102.11v6.5h10a.66.66,0,0,1,.72.71v4a.65.65,0,0,1-.72.71h-10V118h11.62A.65.65,0,0,1,114.44,118.72Z"/><path class="cls-3" d="M143.1,94.82v28a.65.65,0,0,1-.71.71h-4.81a.91.91,0,0,1-.84-.49l-6.23-9.92c-1.83-3-3.7-6.37-5.52-9.62.17,3.25.31,6.72.31,9.75v9.57a.65.65,0,0,1-.71.71h-4.68a.65.65,0,0,1-.71-.71V94.82a.65.65,0,0,1,.71-.71h4.9a.91.91,0,0,1,.84.49l6.15,9.79c1.78,3,3.6,6.27,5.43,9.48-.18-3.21-.27-6.54-.27-9.53V94.82a.65.65,0,0,1,.71-.71h4.72A.65.65,0,0,1,143.1,94.82Z"/><path class="cls-3" d="M167.45,94.82v4.09a.66.66,0,0,1-.72.72h-6.41v23.14a.65.65,0,0,1-.71.71h-4.76a.65.65,0,0,1-.71-.71V99.63h-6.41a.65.65,0,0,1-.71-.72V94.82a.65.65,0,0,1,.71-.71h19A.65.65,0,0,1,167.45,94.82Z"/><path class="cls-3" d="M168.56,108.79c0-10.86,3.6-15.22,12.37-15.22s12.38,4.36,12.38,15.22S189.74,124,180.93,124,168.56,119.65,168.56,108.79Zm18.29,0c0-7.61-1.47-9.74-5.92-9.74s-5.92,2.13-5.92,9.74,1.51,9.75,5.92,9.75S186.85,116.41,186.85,108.79Z"/><path class="cls-3" d="M60.38,135c0,4.58-1.9,6.22-6.36,6.22H51.25v5.82a.42.42,0,0,1-.45.45h-3a.42.42,0,0,1-.45-.45V129.3a.42.42,0,0,1,.45-.45H54C58.51,128.85,60.38,130.49,60.38,135Zm-4,0c0-2.2-.63-2.74-2.83-2.74H51.25v5.54h2.29C55.72,137.81,56.37,137.27,56.37,135Z"/><path class="cls-3" d="M76,147.5H72.87a.47.47,0,0,1-.51-.34l-2.57-6.07H67.05v6a.42.42,0,0,1-.46.45h-3a.42.42,0,0,1-.45-.45V129.3a.42.42,0,0,1,.45-.45h6.27c4.44,0,6.31,1.64,6.31,6.11,0,3-.85,4.74-2.77,5.56l3,6.44C76.48,147.3,76.32,147.5,76,147.5Zm-8.93-9.75h2.31c2.12,0,2.77-.56,2.77-2.79s-.62-2.69-2.77-2.69H67.05Z"/><path class="cls-3" d="M91.26,144.48v2.57a.42.42,0,0,1-.45.45H80a.42.42,0,0,1-.45-.45V129.3a.42.42,0,0,1,.45-.45H90.53a.42.42,0,0,1,.45.45v2.58a.42.42,0,0,1-.45.45H83.44v4.12h6.35a.42.42,0,0,1,.46.45v2.52a.42.42,0,0,1-.46.45H83.44V144h7.37A.42.42,0,0,1,91.26,144.48Z"/><path class="cls-3" d="M104,132.21a24.73,24.73,0,0,0-3.73-.33c-2.68,0-3.3.48-3.3,2,0,1.22.42,1.81,3.1,2.63l1.3.4c3.48,1.07,4.58,2.57,4.58,5.45,0,3.82-1.86,5.51-7,5.51a24.5,24.5,0,0,1-5.23-.59.51.51,0,0,1-.39-.54v-2.4c0-.4.22-.48.5-.43a30.56,30.56,0,0,0,5,.54c2.43,0,3.19-.56,3.19-2.12,0-1.24-.48-1.69-3.42-2.6l-1-.28c-3.31-1-4.55-2.77-4.55-5.62,0-3.59,1.87-5.29,6.67-5.29a21.6,21.6,0,0,1,4.29.45.47.47,0,0,1,.4.48v2.38C104.46,132.13,104.26,132.24,104,132.21Z"/><path class="cls-3" d="M120.31,144.48v2.57a.42.42,0,0,1-.45.45H109a.42.42,0,0,1-.45-.45V129.3a.42.42,0,0,1,.45-.45h10.57a.42.42,0,0,1,.45.45v2.58a.42.42,0,0,1-.45.45h-7.1v4.12h6.36a.42.42,0,0,1,.46.45v2.52a.42.42,0,0,1-.46.45h-6.36V144h7.38A.42.42,0,0,1,120.31,144.48Z"/><path class="cls-3" d="M138.51,129.3v17.75a.42.42,0,0,1-.45.45H135a.57.57,0,0,1-.54-.31l-4-6.3c-1.16-1.89-2.34-4-3.5-6.1.11,2.06.2,4.26.2,6.18v6.08a.42.42,0,0,1-.45.45h-3a.42.42,0,0,1-.45-.45V129.3a.42.42,0,0,1,.45-.45h3.11a.59.59,0,0,1,.53.31l3.9,6.22c1.13,1.89,2.29,4,3.45,6-.11-2-.17-4.16-.17-6.05v-6a.42.42,0,0,1,.45-.45h3A.42.42,0,0,1,138.51,129.3Z"/><path class="cls-3" d="M150.1,128.51a20.29,20.29,0,0,1,3.25.26c.34,0,.42.25.42.56v2.35c0,.36-.2.51-.48.48-1-.09-1.89-.17-2.83-.17-3.58,0-4.66,1.27-4.66,6.19s1,6.19,4.66,6.19c.94,0,1.87-.09,2.83-.17.28,0,.48.11.48.48V147c0,.31-.08.51-.42.57a21.38,21.38,0,0,1-3.25.25c-6,0-8.4-2.71-8.4-9.66S144.11,128.51,150.1,128.51Z"/><path class="cls-3" d="M156.77,147.05V129.3a.42.42,0,0,1,.45-.45h3.08a.42.42,0,0,1,.45.45v17.75a.42.42,0,0,1-.45.45h-3.08A.42.42,0,0,1,156.77,147.05Z"/><path class="cls-3" d="M178.86,147.5h-3.1a.51.51,0,0,1-.51-.37l-1.08-3.39H168L167,147.13a.52.52,0,0,1-.51.37h-3.14c-.31,0-.48-.17-.37-.51L169,129.22a.52.52,0,0,1,.51-.37h3.19a.51.51,0,0,1,.51.37l6,17.77C179.34,147.33,179.18,147.5,178.86,147.5Zm-5.79-7.15-.2-.68c-.59-1.86-1.18-4.21-1.78-6.27-.56,2.06-1.16,4.41-1.75,6.27l-.23.68Z"/><path class="cls-3" d="M192.09,144.48v2.57a.42.42,0,0,1-.45.45h-9.72a.42.42,0,0,1-.46-.45V129.3a.42.42,0,0,1,.46-.45h3a.42.42,0,0,1,.45.45V144h6.25A.42.42,0,0,1,192.09,144.48Z"/><path class="cls-3" d="M130.5,186.28h0v-.89h0A16.05,16.05,0,0,0,146.59,170l.88,0A16.93,16.93,0,0,1,130.5,186.28Z"/><path class="cls-3" d="M107.5,186.28a16.93,16.93,0,0,1-17-16.3l.88,0a16.05,16.05,0,0,0,16.09,15.44h0v.89Z"/><path class="cls-3" d="M133.45,201.29H104.56V195.4h28.89Zm-27.8-1.1h26.7v-3.7h-26.7Z"/><path class="cls-3" d="M131,196H130V180.72a11,11,0,1,0-21.9,0V196H107V180.72a12,12,0,1,1,24.08,0Z"/><g id="INSERT"><g id="CIRCLE"><path class="cls-4" d="M118.4,187.81a.85.85,0,0,1,0-1.2.83.83,0,0,1,1.2,0,.85.85,0,0,1,0,1.2.83.83,0,0,1-1.2,0Z"/></g></g><path class="cls-4" d="M125.51,188.42a1.68,1.68,0,0,0,2.4,0,1.71,1.71,0,0,0,0-2.41,1.68,1.68,0,0,0-2.4,0A1.71,1.71,0,0,0,125.51,188.42Zm.35-1.21.85-.85.85.85-.85.85Z"/><path class="cls-4" d="M110.09,188.42a1.68,1.68,0,0,0,2.4,0,1.71,1.71,0,0,0,0-2.41,1.68,1.68,0,0,0-2.4,0A1.72,1.72,0,0,0,110.09,188.42Zm.35-1.21.85-.85.85.85-.85.85Z"/><path class="cls-4" d="M119,35.85a12.37,12.37,0,0,0-12.37,12.37c0,13.29,12.37,26.52,12.37,26.52s12.37-13.23,12.37-26.52A12.37,12.37,0,0,0,119,35.85ZM119,55a6.76,6.76,0,1,1,6.76-6.76A6.76,6.76,0,0,1,119,55Z"/></svg>