<svg id="Capa_1" data-name="Capa 1" xmlns="http://www.w3.org/2000/svg" viewBox="0 0 101.24 111.5"><defs><style>.cls-1{fill:#fff;}</style></defs><path class="cls-1" d="M40.18,75.15c1.06,0,1.54.48,1.54,1.54v8.38c0,1.06-.48,1.54-1.54,1.54H7.32c-1.06,0-1.54-.48-1.54-1.54V76.69c0-1.06.48-1.54,1.54-1.54h11v-39l-9.83,4-.77.19c-.67,0-1.06-.48-1.06-1.34V30.53A1.74,1.74,0,0,1,7.8,28.7l12.43-5.3A3.66,3.66,0,0,1,22.06,23h7.32c1.06,0,1.55.48,1.55,1.54V75.15Z"/><path class="cls-1" d="M92.4,53.75c0,25.15-8.29,34-27.08,34h-.19a60.81,60.81,0,0,1-11.27-1.06,1.57,1.57,0,0,1-1.35-1.64V76.88a1.26,1.26,0,0,1,1.73-1.35,61.05,61.05,0,0,0,9.93,1h.19C74.19,76.49,78,73.7,79.1,62a28.8,28.8,0,0,1-11.17,2.22h-.2q-19.65,0-19.65-20.53v-.29c0-14.16,7.42-21.58,21.68-21.58C85.46,21.86,92.4,31.11,92.4,53.75Zm-22.16,0A25.93,25.93,0,0,0,79.39,52c-.19-15.61-2.6-19-9.73-19C63.49,33,61,36.12,61,43.35v.29c0,7.61,2.5,10.11,9.06,10.11Z"/><path class="cls-1" d="M10.44.24a.28.28,0,0,1,.32.32V13.14a.28.28,0,0,1-.32.32H8.27a.45.45,0,0,1-.38-.22L5.09,8.77C4.55,7.91,3.85,6.67,3,5.09L2.6,4.45c.1,1.7.14,3.16.14,4.38v4.31a.28.28,0,0,1-.32.32H.32A.28.28,0,0,1,0,13.14V.56A.28.28,0,0,1,.32.24h2.2A.45.45,0,0,1,2.9.46L5.67,4.87c.26.42.56.94.92,1.56s.62,1.12.84,1.5l.68,1.21C8,7.69,8,6.27,8,4.85V.56A.28.28,0,0,1,8.31.24Z"/><path class="cls-1" d="M13,6.85C13,2,14.64,0,18.59,0s5.57,2,5.57,6.85-1.61,6.85-5.57,6.85S13,11.74,13,6.85Zm8.23,0c0-3.42-.64-4.39-2.66-4.39s-2.67,1-2.67,4.39.64,4.39,2.67,4.39S21.25,10.28,21.25,6.85Z"/><path class="cls-1" d="M35.37.24c.24,0,.34.12.26.36L31.55,13.2a.36.36,0,0,1-.37.26h-2a.32.32,0,0,1-.36-.26L24.69.6a.3.3,0,0,1,0-.14c0-.14.1-.22.28-.22h2.13a.34.34,0,0,1,.36.26l1.3,4C29,5.29,29.4,6.85,30,9.2l.16.64.42-1.63c.44-1.68.78-2.92,1-3.7l1.3-4a.34.34,0,0,1,.36-.26Z"/><path class="cls-1" d="M37.55,13.46a.28.28,0,0,1-.32-.32V.56a.28.28,0,0,1,.32-.32h2.19a.28.28,0,0,1,.32.32V13.14a.28.28,0,0,1-.32.32Z"/><path class="cls-1" d="M50.79,11a.28.28,0,0,1,.32.32v1.82a.28.28,0,0,1-.32.32H43.1a.28.28,0,0,1-.32-.32V.56A.28.28,0,0,1,43.1.24h7.49a.28.28,0,0,1,.32.32V2.38a.28.28,0,0,1-.32.32h-5V5.63h4.51a.28.28,0,0,1,.32.32V7.73a.28.28,0,0,1-.32.32H45.56V11Z"/><path class="cls-1" d="M67.62,13.18c0,.18-.1.28-.3.28H65.23a.3.3,0,0,1-.32-.3l-.68-4.28c-.12-.71-.3-2-.54-3.75-.42,1.46-.78,2.72-1.12,3.75l-1.4,4.32a.34.34,0,0,1-.36.26H59.2a.34.34,0,0,1-.36-.26L57.48,9c-.46-1.39-.84-2.69-1.16-3.89C56.2,6,56,7.31,55.78,9l-.68,4.18a.31.31,0,0,1-.32.3H52.69c-.22,0-.32-.12-.28-.34l2-12.58a.31.31,0,0,1,.32-.3H56.9a.34.34,0,0,1,.36.26l1.58,4.91c.52,1.72.9,3.06,1.17,4,.34-1.33.74-2.65,1.16-4L62.77.5a.32.32,0,0,1,.34-.26h2.14a.33.33,0,0,1,.34.3l2,12.58Z"/><path class="cls-1" d="M79.27,9.76c0,2.58-1.3,3.7-4.51,3.7H69.88a.28.28,0,0,1-.32-.32V.56a.28.28,0,0,1,.32-.32h4.54c2.81,0,4.21,1.12,4.21,3.55a2.61,2.61,0,0,1-1.72,2.8C78.61,7,79.27,7.93,79.27,9.76Zm-7-7.26V5.55h1.8c1.29,0,1.75-.42,1.75-1.54S75.43,2.5,74.14,2.5Zm2.24,8.7c1.43,0,1.87-.42,1.87-1.68s-.46-1.69-2-1.69H72.32V11.2Z"/><path class="cls-1" d="M90.67,13.08c0,.08,0,.14,0,.16s-.1.22-.3.22H88.2a.35.35,0,0,1-.36-.24L86,8.91H84.08v4.23a.28.28,0,0,1-.32.32H81.61a.28.28,0,0,1-.32-.32V.56a.28.28,0,0,1,.32-.32h4.45c3.19,0,4.47,1.2,4.47,4.33,0,2.14-.6,3.36-2,3.94ZM84.08,6.55h1.64c1.52,0,2-.4,2-2s-.42-1.91-2-1.91H84.08Z"/><path class="cls-1" d="M100.92,11a.28.28,0,0,1,.32.32v1.82a.28.28,0,0,1-.32.32H93.23a.28.28,0,0,1-.32-.32V.56a.28.28,0,0,1,.32-.32h7.49a.28.28,0,0,1,.32.32V2.38a.28.28,0,0,1-.32.32h-5V5.63h4.51a.28.28,0,0,1,.32.32V7.73a.28.28,0,0,1-.32.32H95.69V11Z"/><path class="cls-1" d="M17.51,94.27c.31,0,.44.15.34.46l-5.24,16.13a.43.43,0,0,1-.46.33H9.54a.4.4,0,0,1-.46-.33L3.84,94.73a.47.47,0,0,1,0-.18c0-.18.13-.28.36-.28H6.9a.44.44,0,0,1,.46.33L9,99.73q.46,1.5,1.62,6l.21.82.53-2.07c.57-2.16,1-3.75,1.31-4.75l1.67-5.13a.44.44,0,0,1,.46-.33Z"/><path class="cls-1" d="M20.31,111.19c-.28,0-.41-.12-.41-.41V94.68a.36.36,0,0,1,.41-.41H23.1c.29,0,.41.13.41.41v16.1c0,.29-.12.41-.41.41Z"/><path class="cls-1" d="M37.26,108a.36.36,0,0,1,.41.41v2.33c0,.29-.13.41-.41.41H27.41c-.28,0-.41-.12-.41-.41V94.68a.36.36,0,0,1,.41-.41H37c.29,0,.42.13.42.41V97c0,.28-.13.41-.42.41H30.57v3.75h5.77a.36.36,0,0,1,.41.41v2.28a.36.36,0,0,1-.41.41H30.57V108Z"/><path class="cls-1" d="M52.42,110.71c0,.1,0,.18,0,.2,0,.18-.13.28-.39.28H49.26a.45.45,0,0,1-.46-.3l-2.33-5.52H44v5.41c0,.29-.13.41-.41.41H40.83c-.29,0-.41-.12-.41-.41V94.68c0-.28.12-.41.41-.41h5.69c4.08,0,5.72,1.54,5.72,5.54,0,2.74-.77,4.31-2.52,5ZM44,102.35h2.1c2,0,2.52-.52,2.52-2.54s-.54-2.44-2.52-2.44H44Z"/><path class="cls-1" d="M68.65,94.27a.36.36,0,0,1,.41.41v16.1c0,.29-.13.41-.41.41H65.88a.59.59,0,0,1-.49-.28l-3.59-5.72c-.69-1.1-1.59-2.69-2.71-4.72l-.47-.82c.13,2.18.18,4.06.18,5.62v5.51c0,.29-.12.41-.41.41H55.7c-.28,0-.41-.12-.41-.41V94.68a.36.36,0,0,1,.41-.41h2.82a.58.58,0,0,1,.49.28l3.54,5.64c.33.54.72,1.21,1.18,2s.79,1.44,1.08,1.93l.87,1.54c-.11-1.85-.16-3.67-.16-5.49V94.68a.36.36,0,0,1,.41-.41Z"/><path class="cls-1" d="M82.81,108a.36.36,0,0,1,.41.41v2.33c0,.29-.13.41-.41.41H73c-.28,0-.41-.12-.41-.41V94.68a.36.36,0,0,1,.41-.41h9.59a.36.36,0,0,1,.41.41V97a.36.36,0,0,1-.41.41H76.12v3.75h5.77a.36.36,0,0,1,.41.41v2.28a.36.36,0,0,1-.41.41H76.12V108Z"/><path class="cls-1" d="M95.2,97c0,.28-.16.39-.47.36A22.24,22.24,0,0,0,91.35,97c-2.46,0-3,.41-3,1.8,0,1.15.41,1.66,2.82,2.38l1.18.36c3.1,1,4.15,2.28,4.15,5,0,3.52-1.77,5-6.3,5a21.91,21.91,0,0,1-4.75-.54.43.43,0,0,1-.36-.48V108.3c0-.34.16-.47.46-.39a27.94,27.94,0,0,0,4.54.49c2.18,0,2.9-.49,2.9-1.92,0-1.16-.44-1.57-3.1-2.36l-.87-.26c-3-.92-4.13-2.46-4.13-5.1,0-3.31,1.74-4.8,6-4.8a19,19,0,0,1,3.9.41.42.42,0,0,1,.36.44Z"/></svg>