<svg id="Capa_1" data-name="Capa 1" xmlns="http://www.w3.org/2000/svg" viewBox="0 0 104.33 150.21"><defs><style>.cls-1,.cls-2{fill:#fff;}.cls-1{stroke:#fff;stroke-linecap:round;stroke-miterlimit:10;stroke-width:2px;}</style></defs><path class="cls-1" d="M4.23,118h7l6.94,10.6q1.85,2.87,3.59,5.85a40.66,40.66,0,0,1,2.68,5.4h.1q-.24-3-.3-6.05t-.05-6.06V118h7v31.64h-7l-7.33-10.8a62.36,62.36,0,0,1-3.31-5.42A37.73,37.73,0,0,1,11,127.6h-.1q.25,3.17.3,6.08c0,1.94,0,3.92,0,5.93v10h-7Z"/><path class="cls-1" d="M52.5,117.41a17.2,17.2,0,0,1,6.33,1.13,14.2,14.2,0,0,1,5,3.24A14.6,14.6,0,0,1,67.14,127a19.08,19.08,0,0,1,1.18,6.93,17.81,17.81,0,0,1-1.23,6.78,15.43,15.43,0,0,1-3.36,5.15,14.61,14.61,0,0,1-5.08,3.27,18.5,18.5,0,0,1-12.68,0,14.22,14.22,0,0,1-5-3.19,14.47,14.47,0,0,1-3.29-5.12,18.93,18.93,0,0,1-1.18-6.91,18.34,18.34,0,0,1,1.2-6.8,15.22,15.22,0,0,1,3.37-5.2,14.76,14.76,0,0,1,5.1-3.32A17.18,17.18,0,0,1,52.5,117.41Zm-8,16.47a15.61,15.61,0,0,0,.63,4.67,9.4,9.4,0,0,0,1.74,3.32,7.28,7.28,0,0,0,2.53,2,7.48,7.48,0,0,0,3.09.65,7.31,7.31,0,0,0,3-.65,7,7,0,0,0,2.49-2,9.65,9.65,0,0,0,1.65-3.32,16,16,0,0,0,.61-4.67,16.22,16.22,0,0,0-.63-4.79,9.48,9.48,0,0,0-1.73-3.34,7.19,7.19,0,0,0-5.63-2.62,7.07,7.07,0,0,0-3,.68,6.89,6.89,0,0,0-2.49,2,10.14,10.14,0,0,0-1.65,3.36A16.37,16.37,0,0,0,44.51,133.88Z"/><path class="cls-1" d="M78,118l4.16,13.21c.51,1.61,1,3.41,1.61,5.4s1.07,4,1.51,6h.15c.43-2,.93-4,1.48-6s1.1-3.8,1.63-5.47L92.68,118h7.84l-10.9,31.64H81.13L69.93,118Z"/><path class="cls-2" d="M4.89,2.73l2.52,8c.31,1,.63,2.06,1,3.27S9,16.4,9.3,17.62h.09c.26-1.22.56-2.42.89-3.62s.67-2.29,1-3.31l2.49-8H18.5L11.91,21.87H6.77L0,2.73Z"/><path class="cls-2" d="M23,4.44a2.3,2.3,0,0,1-1.77-.66,2.21,2.21,0,0,1-.6-1.56A2.18,2.18,0,0,1,21.28.65,2.32,2.32,0,0,1,23,0a2.29,2.29,0,0,1,1.74.64,2.15,2.15,0,0,1,.63,1.58,2.23,2.23,0,0,1-.61,1.58A2.34,2.34,0,0,1,23,4.44ZM20.78,21.87V7.29h4.49V21.87Z"/><path class="cls-2" d="M42.29,15.89H32.87V16a2.39,2.39,0,0,0,1.18,2.22,5.87,5.87,0,0,0,3,.7,8.46,8.46,0,0,0,2.19-.25,7.55,7.55,0,0,0,1.58-.57l.82,3.09a10.06,10.06,0,0,1-2.08.7,13,13,0,0,1-3.09.31,10.92,10.92,0,0,1-3.11-.44,7.41,7.41,0,0,1-2.58-1.36A6.34,6.34,0,0,1,29,18.11a7.82,7.82,0,0,1-.66-3.35,9.21,9.21,0,0,1,.53-3.17,7.31,7.31,0,0,1,1.51-2.48A6.72,6.72,0,0,1,32.7,7.52a7.62,7.62,0,0,1,3-.56,6.39,6.39,0,0,1,4.8,1.82A7.07,7.07,0,0,1,42.29,14ZM37.7,12.82a4.15,4.15,0,0,0-.12-1A2.64,2.64,0,0,0,37.2,11a2.07,2.07,0,0,0-.67-.61,2,2,0,0,0-1-.22,2.3,2.3,0,0,0-1.76.74,3.29,3.29,0,0,0-.82,2Z"/><path class="cls-2" d="M45.05,21.87V7.29h3.52L49,9.84a7.93,7.93,0,0,1,.67-1.08,4.32,4.32,0,0,1,.94-.92A4.39,4.39,0,0,1,51.9,7.2,5,5,0,0,1,53.5,7a4.41,4.41,0,0,1,1.23.16,4,4,0,0,1,.89.38L54.89,11a4.16,4.16,0,0,0-.85-.34,4.6,4.6,0,0,0-1.27-.15,3.17,3.17,0,0,0-2.33.91,4.34,4.34,0,0,0-.92,3.16v7.29Z"/><path class="cls-2" d="M61.42,21.87H56.93V7.29h3.49l.52,1.82a7.64,7.64,0,0,1,2.19-1.58A6.14,6.14,0,0,1,65.77,7a5,5,0,0,1,3.77,1.33,5.39,5.39,0,0,1,1.3,3.92v9.66H66.35v-9.2A2.6,2.6,0,0,0,65.84,11a1.78,1.78,0,0,0-1.47-.62,3.31,3.31,0,0,0-1.53.42,5,5,0,0,0-1.42,1.13Z"/><path class="cls-2" d="M87.52,15.89H78.1V16a2.4,2.4,0,0,0,1.19,2.22,5.83,5.83,0,0,0,3,.7,8.46,8.46,0,0,0,2.19-.25A7.34,7.34,0,0,0,86,18.11l.82,3.09a10.06,10.06,0,0,1-2.08.7,12.94,12.94,0,0,1-3.08.31,11,11,0,0,1-3.12-.44A7.41,7.41,0,0,1,76,20.41a6.34,6.34,0,0,1-1.76-2.3,7.82,7.82,0,0,1-.65-3.35,9,9,0,0,1,.53-3.17,7.13,7.13,0,0,1,1.5-2.48,6.66,6.66,0,0,1,2.33-1.59,7.59,7.59,0,0,1,3-.56,6.42,6.42,0,0,1,4.8,1.82A7.11,7.11,0,0,1,87.52,14Zm-4.59-3.07a4.15,4.15,0,0,0-.12-1,2.64,2.64,0,0,0-.38-.87,2,2,0,0,0-.67-.61,2,2,0,0,0-1-.22,2.32,2.32,0,0,0-1.77.74,3.35,3.35,0,0,0-.82,2Z"/><path class="cls-2" d="M99.28,11a9.24,9.24,0,0,0-1.74-.63,7.25,7.25,0,0,0-1.76-.22,2.6,2.6,0,0,0-1.27.27.84.84,0,0,0-.49.76,1.08,1.08,0,0,0,.47.87,6.58,6.58,0,0,0,1.87.74l.91.27a5.94,5.94,0,0,1,2.77,1.6,3.9,3.9,0,0,1,.94,2.69,4.26,4.26,0,0,1-.46,2,4.48,4.48,0,0,1-1.29,1.53,5.92,5.92,0,0,1-2,1,9.2,9.2,0,0,1-2.6.34,12,12,0,0,1-2.75-.28,9.35,9.35,0,0,1-2.23-.79l1-3.25a10.92,10.92,0,0,0,1.84.75,6.79,6.79,0,0,0,2,.29A2.93,2.93,0,0,0,96,18.59a1,1,0,0,0,.47-.79,1,1,0,0,0-.1-.47A1.24,1.24,0,0,0,96,17a3.42,3.42,0,0,0-.78-.35L94,16.19,93,15.92a5.34,5.34,0,0,1-2.61-1.6,4.21,4.21,0,0,1-.82-2.75A4.26,4.26,0,0,1,90,9.74a4.12,4.12,0,0,1,1.14-1.46,5.27,5.27,0,0,1,1.82-1A7.86,7.86,0,0,1,95.42,7a12.61,12.61,0,0,1,2.6.25,10.43,10.43,0,0,1,2.17.72Z"/><path class="cls-2" d="M39.09,36.37v68.54h-18V53L7.34,59,3,45.76l20.38-9.39Z"/><path class="cls-2" d="M77.86,35.05a26.12,26.12,0,0,1,11,2.24,23.06,23.06,0,0,1,8.34,6.49A30,30,0,0,1,102.47,54a46,46,0,0,1,1.86,13.57Q104.33,86,96,96.05t-23.55,10a51.87,51.87,0,0,1-10.39-.92,25.5,25.5,0,0,1-7.61-2.78l3.44-13.5a27.1,27.1,0,0,0,13,3q7.55,0,11.38-3.77a16,16,0,0,0,4.5-10.12,17.25,17.25,0,0,1-5.16,3,19.87,19.87,0,0,1-7.28,1.19q-10.46,0-16.94-6T50.87,59a24.53,24.53,0,0,1,1.92-9.86,20.67,20.67,0,0,1,5.49-7.54,25.42,25.42,0,0,1,8.53-4.83A33.49,33.49,0,0,1,77.86,35.05Zm-.13,13.89a8.44,8.44,0,0,0-6.42,2.58,9.5,9.5,0,0,0-2.45,6.81q0,5.43,2.65,7.81a9.68,9.68,0,0,0,6.75,2.38q4.23,0,6.09-2.25t1.85-6.61a12.21,12.21,0,0,0-2.32-7.81A7.46,7.46,0,0,0,77.73,48.94Z"/></svg>