<svg id="Capa_1" data-name="Capa 1" xmlns="http://www.w3.org/2000/svg" viewBox="0 0 1919.36 88.49"><defs><style>.cls-1{fill:#9bc6ca;}.cls-2{fill:#008791;}.cls-3{fill:#e65300;}.cls-4{fill:#ffb100;}.cls-5{fill:#fff;}</style></defs><rect class="cls-1" x="1502.75" y="29.71" width="416.6" height="19.94"/><rect class="cls-2" x="1288.13" y="39.68" width="363.83" height="29.71"/><rect class="cls-2" x="674.44" y="29.39" width="363.83" height="29.71"/><rect class="cls-2" y="41.57" width="363.83" height="29.71"/><rect class="cls-3" x="283.21" y="60.93" width="460.63" height="19.94"/><rect class="cls-4" y="58.77" width="460.63" height="29.71"/><rect class="cls-4" x="622.23" width="460.63" height="29.71"/><rect class="cls-4" x="320.6" y="7.43" width="460.63" height="29.71"/><rect class="cls-4" x="557.09" y="58.77" width="460.63" height="29.71"/><rect class="cls-3" x="1431.38" y="58.77" width="487.98" height="29.71"/><rect class="cls-4" x="1316.99" y="9.97" width="460.63" height="29.71"/><rect class="cls-5" x="283.21" y="31.22" width="460.63" height="29.71"/><rect class="cls-5" x="978.23" y="58.77" width="460.63" height="29.71"/><rect class="cls-5" x="1458.73" width="460.63" height="29.71"/><rect class="cls-3" x="968.9" y="17.12" width="363.61" height="32.25"/><rect class="cls-1" x="423.8" y="21.63" width="363.61" height="19.94"/><rect class="cls-1" x="1355.3" width="363.61" height="19.94"/><rect class="cls-2" width="363.83" height="29.71"/><rect class="cls-2" x="1003.67" width="363.83" height="29.71"/><rect class="cls-3" x="265.01" width="460.63" height="19.94"/><rect class="cls-1" x="856.36" y="49.89" width="460.63" height="19.94"/><rect class="cls-1" y="20.12" width="363.61" height="19.94"/><rect class="cls-5" y="11.2" width="150.36" height="14.86"/></svg>