<svg xmlns="http://www.w3.org/2000/svg" width="1339.49177" height="190" viewBox="0 0 1339.49177 190">
  <defs>
    <style>
      .cls-1 {
        fill: #007;
      }

      .cls-2 {
        fill: #1da7e0;
      }

      .cls-3 {
        fill: #d10071;
      }

      .cls-4 {
        fill: #ffc000;
      }

      .cls-5 {
        fill: #c3cc00;
      }

      .cls-6 {
        fill: #2a2824;
      }

      .cls-7 {
        fill: #7e848a;
      }

      .cls-8 {
        fill: #003a76;
      }
    </style>
  </defs>
  <g id="Capa_2" data-name="Capa 2">
    <g id="Capa_9" data-name="Capa 9">
      <g>
        <g>
          <g>
            <path class="cls-1" d="M785.01467,118.01678v-1.71194h-.10608a6.24422,6.24422,0,0,1-5.03311,2.06177c-4.05358,0-8.59693-3.07629-8.59693-9.43653s4.54335-9.4354,8.59693-9.4354a6.2405,6.2405,0,0,1,5.03311,2.06177h.10608V93.20328h6.04426v24.8135Zm-3.84593-4.99814a4.09108,4.09108,0,1,0-3.9475-4.08856A3.86245,3.86245,0,0,0,781.16874,113.01864Z"/>
            <path class="cls-1" d="M792.91193,108.96507a9.0953,9.0953,0,0,1,9.33271-9.47039c4.61106,0,10.1678,3.18012,8.91065,11.777H798.81851c.73352,1.46818,2.30665,2.20171,4.40341,2.20171a6.90167,6.90167,0,0,0,4.12355-1.18831l2.65649,2.83141a9.25609,9.25609,0,0,1-7.4436,3.25008C797.45528,118.36661,792.91193,114.94161,792.91193,108.96507Zm12.93037-1.95683a3.416,3.416,0,0,0-3.52995-2.48157,3.79442,3.79442,0,0,0-3.70374,2.48157Z"/>
            <path class="cls-1" d="M813.18208,93.20328h6.04651v24.8135h-6.04651Z"/>
            <path class="cls-1" d="M828.559,93.20328h14.64344V98.83h-8.49084v3.91477h7.05765v5.55675h-7.05765v4.08856h8.77071v5.62671H828.559Z"/>
            <path class="cls-1" d="M844.67179,113.1236l4.75325-1.29214a2.32736,2.32736,0,0,0,2.27055,1.85187c.8396,0,1.537-.38482,1.537-1.15333,0-.38482-.20765-.87346-1.15333-1.15333l-2.65424-.97841c-3.00633-1.04838-4.29959-3.04018-4.29959-5.38182,0-3.495,3.18012-5.52176,6.85-5.52176,3.56381,0,6.15033,2.02679,6.74392,5.067l-4.71713,1.15333c-.38369-1.39821-1.25715-1.60811-1.783-1.60811a1.107,1.107,0,0,0-1.25715,1.01452c0,.41867.24376.90844,1.29327,1.18718l2.48044.90958c1.74918.5586,4.43951,1.92183,4.43951,5.31185,0,3.66989-3.14624,5.83661-7.37361,5.83661C848.06181,118.36661,845.23153,116.68853,844.67179,113.1236Z"/>
            <path class="cls-1" d="M862.56306,111.93528v-7.33864h-2.76031V99.84339h2.76031v-4.6483h6.04651v4.6483h3.84594v4.75325h-3.84594v6.4302c0,.8396.48977,1.888,2.20284,1.888a5.765,5.765,0,0,0,1.71307-.27987v4.57834c-.69968.76851-2.34277,1.01339-3.706,1.01339C865.1857,118.22668,862.56306,116.47863,862.56306,111.93528Z"/>
            <path class="cls-1" d="M873.43279,108.93008c0-6.36023,4.54335-9.4354,8.59693-9.4354a6.24053,6.24053,0,0,1,5.03312,2.06177h.10607V99.84339h6.04426v18.17339h-6.04426v-1.71194h-.10607a6.24425,6.24425,0,0,1-5.03312,2.06177C877.97614,118.36661,873.43279,115.29032,873.43279,108.93008Zm9.89019,4.08856a4.09108,4.09108,0,1,0-3.9475-4.08856A3.86072,3.86072,0,0,0,883.323,113.01864Z"/>
            <path class="cls-1" d="M908.80229,118.01678v-1.71194h-.10607a6.24431,6.24431,0,0,1-5.03312,2.06177c-4.05358,0-8.59693-3.07629-8.59693-9.43653s4.54335-9.4354,8.59693-9.4354a6.24059,6.24059,0,0,1,5.03312,2.06177h.10607V93.20328h6.04426v24.8135Zm-3.84593-4.99814a4.09108,4.09108,0,1,0-3.9475-4.08856A3.86245,3.86245,0,0,0,904.95636,113.01864Z"/>
            <path class="cls-1" d="M916.69955,108.93008c0-6.18532,4.927-9.4354,9.7164-9.4354,4.75325,0,9.68029,3.25008,9.68029,9.4354,0,6.18645-4.927,9.43653-9.68029,9.43653C921.62659,118.36661,916.69955,115.11653,916.69955,108.93008Zm9.7164,4.01973a4.02714,4.02714,0,1,0-3.77371-4.01973A3.77407,3.77407,0,0,0,926.416,112.94981Z"/>
            <path class="cls-1" d="M957.4159,118.01678v-1.71194h-.10608a6.24425,6.24425,0,0,1-5.03312,2.06177c-4.05358,0-8.59693-3.07629-8.59693-9.43653s4.54335-9.4354,8.59693-9.4354a6.24053,6.24053,0,0,1,5.03312,2.06177h.10608V93.20328h6.04425v24.8135ZM953.57,113.01864a4.09108,4.09108,0,1,0-3.9475-4.08856A3.86071,3.86071,0,0,0,953.57,113.01864Z"/>
            <path class="cls-1" d="M965.31315,108.96507a9.09531,9.09531,0,0,1,9.33271-9.47039c4.61106,0,10.1678,3.18012,8.91065,11.777H971.21973c.73353,1.46818,2.30666,2.20171,4.40342,2.20171a6.90161,6.90161,0,0,0,4.12354-1.18831l2.65649,2.83141a9.25608,9.25608,0,0,1-7.44359,3.25008C969.8565,118.36661,965.31315,114.94161,965.31315,108.96507Zm12.93038-1.95683a3.41507,3.41507,0,0,0-3.5277-2.48157,3.7953,3.7953,0,0,0-3.706,2.48157Z"/>
            <path class="cls-1" d="M1006.76077,93.20328l9.36656,24.8135h-6.6401l-1.2233-3.52995h-9.57646l-1.2233,3.52995h-6.674l9.36654-24.8135Zm-.48752,15.65684-2.83253-8.10829-2.79418,8.10829Z"/>
            <path class="cls-1" d="M1019.4835,124.23708V119.45a9.0279,9.0279,0,0,0,4.12354.83847c3.39,0,4.96315-1.6431,4.96315-3.39v-.59359h-.2099a5.948,5.948,0,0,1-4.85933,2.06177c-4.08743,0-8.66689-3.11127-8.66689-9.43653s4.57946-9.4354,8.66689-9.4354a5.94447,5.94447,0,0,1,4.85933,2.06177h.2099V99.84339h6.04426v16.53029c0,7.37476-5.83661,8.91291-9.85408,8.91291C1022.90737,125.28659,1020.70679,125.0417,1019.4835,124.23708Zm5.27687-11.21844a4.09108,4.09108,0,0,0,0-8.17712,4.08994,4.08994,0,0,0,0,8.17712Z"/>
            <path class="cls-1" d="M1055.27055,118.01678H1049.224V115.885a6.06309,6.06309,0,0,1-5.17305,2.48157c-3.66989,0-6.74392-2.27167-6.74392-7.82841l.03385-10.69481h6.04651l-.03385,9.64643c0,1.88685.90731,3.52882,2.97021,3.52882,2.02679,0,2.90025-1.642,2.90025-3.52882l.03386-9.64643h6.04651Z"/>
            <path class="cls-1" d="M1057.15966,108.93008c0-6.36023,4.54335-9.4354,8.59693-9.4354a6.2405,6.2405,0,0,1,5.03311,2.06177h.10608V99.84339H1076.94v18.17339h-6.04426v-1.71194h-.10608a6.24422,6.24422,0,0,1-5.03311,2.06177C1061.703,118.36661,1057.15966,115.29032,1057.15966,108.93008Zm9.89019,4.08856a4.09108,4.09108,0,1,0-3.9475-4.08856A3.86245,3.86245,0,0,0,1067.04985,113.01864Z"/>
            <path class="cls-1" d="M1078.61925,113.1236l4.75325-1.29214a2.32736,2.32736,0,0,0,2.27055,1.85187c.8396,0,1.537-.38482,1.537-1.15333,0-.38482-.20764-.87346-1.15332-1.15333l-2.65424-.97841c-3.00633-1.04838-4.29959-3.04018-4.29959-5.38182,0-3.495,3.18012-5.52176,6.85-5.52176,3.56381,0,6.15034,2.02679,6.74393,5.067l-4.71714,1.15333c-.38369-1.39821-1.25715-1.60811-1.783-1.60811a1.107,1.107,0,0,0-1.25715,1.01452c0,.41867.24376.90844,1.29326,1.18718l2.48045.90958c1.74918.5586,4.43953,1.92183,4.43953,5.31185,0,3.66989-3.14627,5.83661-7.37364,5.83661C1082.00927,118.36661,1079.179,116.68853,1078.61925,113.1236Z"/>
            <path class="cls-1" d="M1094.1,108.8951c0-6.15034,4.8593-9.40042,9.75025-9.40042a8.9087,8.9087,0,0,1,7.8634,4.47338l-4.3673,2.86527a4.446,4.446,0,0,0-3.4961-1.92184,4.025,4.025,0,0,0,0,8.03832,4.447,4.447,0,0,0,3.4961-1.923l4.3673,2.86639a9.05689,9.05689,0,0,1-7.8634,4.47338C1098.95934,118.36661,1094.1,115.11653,1094.1,108.8951Z"/>
            <path class="cls-1" d="M1112.13124,108.93008c0-6.36023,4.54335-9.4354,8.59693-9.4354a6.24053,6.24053,0,0,1,5.03312,2.06177h.10607V99.84339h6.04426v18.17339h-6.04426v-1.71194h-.10607a6.24425,6.24425,0,0,1-5.03312,2.06177C1116.67459,118.36661,1112.13124,115.29032,1112.13124,108.93008Zm9.89019,4.08856a4.09108,4.09108,0,1,0-3.9475-4.08856A3.86245,3.86245,0,0,0,1122.02143,113.01864Z"/>
            <path class="cls-1" d="M1134.63808,93.20328h6.04651v24.8135h-6.04651Z"/>
            <path class="cls-1" d="M1143.4088,93.20328h6.04651v5.208h-6.04651Zm0,6.64011h6.04651v18.17339h-6.04651Z"/>
            <path class="cls-1" d="M1151.30605,108.96507a9.09531,9.09531,0,0,1,9.33271-9.47039c4.61106,0,10.1678,3.18012,8.91065,11.777h-12.33678c.73353,1.46818,2.30666,2.20171,4.40342,2.20171a6.90161,6.90161,0,0,0,4.12354-1.18831l2.65649,2.83141a9.25608,9.25608,0,0,1-7.44359,3.25008C1155.8494,118.36661,1151.30605,114.94161,1151.30605,108.96507Zm12.93038-1.95683a3.416,3.416,0,0,0-3.53-2.48157,3.79442,3.79442,0,0,0-3.70374,2.48157Z"/>
            <path class="cls-1" d="M1171.57846,99.84339h6.04651v2.13174a6.06518,6.06518,0,0,1,5.173-2.48045c3.66989,0,6.74393,2.27167,6.74393,7.82842v10.69368h-6.04651v-9.64531c0-1.888-.90732-3.52995-2.97022-3.52995-2.02679,0-2.90025,1.642-2.90025,3.52995v9.64531h-6.04651Z"/>
            <path class="cls-1" d="M1193.63164,111.93528v-7.33864h-2.76031V99.84339h2.76031v-4.6483h6.04652v4.6483h3.84593v4.75325h-3.84593v6.4302c0,.8396.48976,1.888,2.20283,1.888a5.765,5.765,0,0,0,1.71307-.27987v4.57834c-.69967.76851-2.34277,1.01339-3.706,1.01339C1196.25428,118.22668,1193.63164,116.47863,1193.63164,111.93528Z"/>
            <path class="cls-1" d="M1204.50137,108.96507a9.09531,9.09531,0,0,1,9.33271-9.47039c4.61106,0,10.1678,3.18012,8.91065,11.777H1210.408c.73353,1.46818,2.30666,2.20171,4.40341,2.20171a6.90162,6.90162,0,0,0,4.12355-1.18831l2.65649,2.83141a9.25608,9.25608,0,0,1-7.44359,3.25008C1209.04472,118.36661,1204.50137,114.94161,1204.50137,108.96507Zm12.93038-1.95683a3.41507,3.41507,0,0,0-3.5277-2.48157,3.7953,3.7953,0,0,0-3.706,2.48157Z"/>
            <path class="cls-1" d="M1223.20065,113.1236l4.75325-1.29214a2.32735,2.32735,0,0,0,2.27054,1.85187c.83961,0,1.537-.38482,1.537-1.15333,0-.38482-.20764-.87346-1.15333-1.15333l-2.65423-.97841c-3.00633-1.04838-4.29959-3.04018-4.29959-5.38182,0-3.495,3.18011-5.52176,6.85-5.52176,3.56381,0,6.15034,2.02679,6.74619,5.067l-4.7194,1.15333c-.38369-1.39821-1.25718-1.60811-1.783-1.60811a1.107,1.107,0,0,0-1.25715,1.01452c0,.41867.24375.90844,1.29326,1.18718l2.48045.90958c1.74692.5586,4.43952,1.92183,4.43952,5.31185,0,3.66989-3.14626,5.83661-7.37363,5.83661C1226.59067,118.36661,1223.76038,116.68853,1223.20065,113.1236Z"/>
          </g>
          <g>
            <path class="cls-1" d="M775.17414,55.94128h6.15259v24.8135h-6.15259Z"/>
            <path class="cls-1" d="M784.05093,62.58138h6.04651v2.13174a6.0652,6.0652,0,0,1,5.17306-2.48044c3.66989,0,6.74392,2.27167,6.74392,7.82841V80.75478h-6.04651V71.10947c0-1.888-.90731-3.52995-2.97022-3.52995-2.02678,0-2.90025,1.642-2.90025,3.52995v9.64531h-6.04651Z"/>
            <path class="cls-1" d="M803.69363,75.86159l4.75325-1.29213a2.32737,2.32737,0,0,0,2.27055,1.85187c.83961,0,1.537-.38482,1.537-1.15333,0-.38482-.20764-.87346-1.15333-1.15333l-2.65424-.97841c-3.00635-1.04838-4.29959-3.04018-4.29959-5.38182,0-3.495,3.18012-5.52176,6.85-5.52176,3.56381,0,6.15033,2.02679,6.74393,5.067L813.02409,68.453c-.38369-1.39822-1.25715-1.60812-1.783-1.60812a1.107,1.107,0,0,0-1.25715,1.01453c0,.41867.24376.90844,1.29327,1.18718l2.48044.90957c1.74918.55861,4.43953,1.92184,4.43953,5.31186,0,3.66989-3.14626,5.83661-7.37363,5.83661C807.08365,81.10461,804.25337,79.42653,803.69363,75.86159Z"/>
            <path class="cls-1" d="M821.5849,74.67328V67.33463h-2.76031V62.58138h2.76031v-4.6483h6.04652v4.6483h3.84593v4.75325h-3.84593v6.43021c0,.83847.48977,1.888,2.20283,1.888a5.7653,5.7653,0,0,0,1.71307-.27987v4.57833c-.69967.76851-2.34277,1.0134-3.706,1.0134C824.20754,80.96468,821.5849,79.21663,821.5849,74.67328Z"/>
            <path class="cls-1" d="M833.50414,55.94128h6.04651v5.208h-6.04651Zm0,6.6401h6.04651v18.1734h-6.04651Z"/>
            <path class="cls-1" d="M844.16171,74.67328V67.33463h-2.76032V62.58138h2.76032v-4.6483h6.04651v4.6483h3.84594v4.75325h-3.84594v6.43021c0,.83847.48977,1.888,2.20284,1.888a5.76519,5.76519,0,0,0,1.71306-.27987v4.57833c-.69967.76851-2.34277,1.0134-3.706,1.0134C846.78435,80.96468,844.16171,79.21663,844.16171,74.67328Z"/>
            <path class="cls-1" d="M874.00833,80.75478h-6.04652V78.623a6.06309,6.06309,0,0,1-5.173,2.48157c-3.66989,0-6.74393-2.27167-6.74393-7.82841l.03386-10.69482h6.04651l-.03385,9.64644c0,1.88685.90731,3.52882,2.97021,3.52882,2.02679,0,2.90025-1.642,2.90025-3.52882l.03386-9.64644h6.04651Z"/>
            <path class="cls-1" d="M878.6555,74.67328V67.33463h-2.76032V62.58138h2.76032v-4.6483H884.702v4.6483h3.84593v4.75325H884.702v6.43021c0,.83847.48977,1.888,2.20284,1.888a5.76519,5.76519,0,0,0,1.71306-.27987v4.57833c-.69967.76851-2.34277,1.0134-3.706,1.0134C881.27814,80.96468,878.6555,79.21663,878.6555,74.67328Z"/>
            <path class="cls-1" d="M889.52523,71.66808c0-6.18532,4.927-9.4354,9.7164-9.4354,4.75325,0,9.68029,3.25008,9.68029,9.4354,0,6.18645-4.927,9.43653-9.68029,9.43653C894.45227,81.10461,889.52523,77.85453,889.52523,71.66808Zm9.7164,4.01972a4.02714,4.02714,0,1,0-3.77371-4.01972A3.77406,3.77406,0,0,0,899.24163,75.6878Z"/>
            <path class="cls-1" d="M930.24157,80.75478V79.04284h-.10608a6.24425,6.24425,0,0,1-5.03311,2.06177c-4.05358,0-8.59693-3.07629-8.59693-9.43653s4.54335-9.4354,8.59693-9.4354a6.2405,6.2405,0,0,1,5.03311,2.06177h.10608V55.94128h6.04426v24.8135Zm-3.84593-4.99814a4.09108,4.09108,0,1,0-3.9475-4.08856A3.86072,3.86072,0,0,0,926.39564,75.75664Z"/>
            <path class="cls-1" d="M938.13883,71.70306a9.0953,9.0953,0,0,1,9.33271-9.47038c4.61106,0,10.1678,3.18011,8.91065,11.777H944.04541c.73352,1.46818,2.30665,2.20171,4.40341,2.20171a6.90163,6.90163,0,0,0,4.12355-1.18831l2.65649,2.83141a9.25609,9.25609,0,0,1-7.4436,3.25008C942.68218,81.10461,938.13883,77.67961,938.13883,71.70306Zm12.93037-1.95682a3.415,3.415,0,0,0-3.52769-2.48157,3.7953,3.7953,0,0,0-3.706,2.48157Z"/>
            <path class="cls-1" d="M964.66314,68.348c0-7.79344,5.94269-12.75546,12.96648-12.75546a11.33379,11.33379,0,0,1,10.31,5.76552l-4.43727,3.04131a6.88924,6.88924,0,1,0-5.66282,10.8686,6.381,6.381,0,0,0,5.66282-3.0052l4.43727,3.07517a11.38688,11.38688,0,0,1-10.34384,5.76664C970.56971,81.10461,964.66314,76.14146,964.66314,68.348Z"/>
            <path class="cls-1" d="M989.9664,55.94128h6.04652v5.208H989.9664Zm0,6.6401h6.04652v18.1734H989.9664Z"/>
            <path class="cls-1" d="M997.86366,71.70306a9.0953,9.0953,0,0,1,9.33271-9.47038c4.61106,0,10.1678,3.18011,8.91065,11.777h-12.33678c.73352,1.46818,2.30666,2.20171,4.40341,2.20171a6.90163,6.90163,0,0,0,4.12355-1.18831l2.65649,2.83141a9.25609,9.25609,0,0,1-7.4436,3.25008C1002.407,81.10461,997.86366,77.67961,997.86366,71.70306Zm12.93037-1.95682a3.415,3.415,0,0,0-3.52769-2.48157,3.7953,3.7953,0,0,0-3.706,2.48157Z"/>
            <path class="cls-1" d="M1018.13381,62.58138h6.04651v2.13174a6.0652,6.0652,0,0,1,5.17305-2.48044c3.66989,0,6.74393,2.27167,6.74393,7.82841V80.75478h-6.04651V71.10947c0-1.888-.90732-3.52995-2.97022-3.52995-2.02679,0-2.90025,1.642-2.90025,3.52995v9.64531h-6.04651Z"/>
            <path class="cls-1" d="M1037.95256,71.6331c0-6.15034,4.85933-9.40042,9.75025-9.40042a8.9087,8.9087,0,0,1,7.8634,4.47338l-4.3673,2.86526a4.446,4.446,0,0,0-3.4961-1.92183,4.025,4.025,0,0,0,0,8.03831,4.447,4.447,0,0,0,3.4961-1.923l4.3673,2.86639a9.05691,9.05691,0,0,1-7.8634,4.47338C1042.81189,81.10461,1037.95256,77.85453,1037.95256,71.6331Z"/>
            <path class="cls-1" d="M1057.417,55.94128h6.04651v5.208H1057.417Zm0,6.6401h6.04651v18.1734H1057.417Z"/>
            <path class="cls-1" d="M1065.31421,71.66808c0-6.36024,4.54335-9.4354,8.59693-9.4354a6.24053,6.24053,0,0,1,5.03312,2.06177h.10608V62.58138h6.04425v18.1734h-6.04425V79.04284h-.10608a6.24428,6.24428,0,0,1-5.03312,2.06177C1069.85756,81.10461,1065.31421,78.02832,1065.31421,71.66808Zm9.89019,4.08856a4.09108,4.09108,0,1,0-3.9475-4.08856A3.86072,3.86072,0,0,0,1075.2044,75.75664Z"/>
            <path class="cls-1" d="M1100.71532,80.57986l-7.51357-17.99848h6.15259l4.26348,11.11349,4.22737-11.11349h6.15259l-10.3461,24.8135h-5.90658Z"/>
            <path class="cls-1" d="M1126.75211,61.568h-5.52289V55.94128h17.19611V61.568h-5.52288V80.75478h-6.15034Z"/>
            <path class="cls-1" d="M1135.911,71.70306a9.09531,9.09531,0,0,1,9.33271-9.47038c4.61106,0,10.1678,3.18011,8.91065,11.777h-12.33678c.73353,1.46818,2.30666,2.20171,4.40341,2.20171a6.90162,6.90162,0,0,0,4.12355-1.18831l2.65649,2.83141a9.25609,9.25609,0,0,1-7.4436,3.25008C1140.45438,81.10461,1135.911,77.67961,1135.911,71.70306Zm12.93037-1.95682a3.415,3.415,0,0,0-3.52769-2.48157,3.7953,3.7953,0,0,0-3.706,2.48157Z"/>
            <path class="cls-1" d="M1155.30772,71.6331c0-6.15034,4.85933-9.40042,9.75026-9.40042a8.90871,8.90871,0,0,1,7.8634,4.47338l-4.36731,2.86526a4.446,4.446,0,0,0-3.49609-1.92183,4.025,4.025,0,0,0,0,8.03831,4.447,4.447,0,0,0,3.49609-1.923l4.36731,2.86639a9.05692,9.05692,0,0,1-7.8634,4.47338C1160.16705,81.10461,1155.30772,77.85453,1155.30772,71.6331Z"/>
            <path class="cls-1" d="M1174.77212,62.58138h6.04651v2.13174a6.0652,6.0652,0,0,1,5.17306-2.48044c3.66988,0,6.74392,2.27167,6.74392,7.82841V80.75478h-6.04651V71.10947c0-1.888-.90732-3.52995-2.97022-3.52995-2.02679,0-2.90025,1.642-2.90025,3.52995v9.64531h-6.04651Z"/>
            <path class="cls-1" d="M1194.58861,71.66808c0-6.18532,4.9293-9.4354,9.7164-9.4354,4.75325,0,9.68029,3.25008,9.68029,9.4354,0,6.18645-4.927,9.43653-9.68029,9.43653C1199.51791,81.10461,1194.58861,77.85453,1194.58861,71.66808Zm9.7164,4.01972a4.02714,4.02714,0,1,0-3.77371-4.01972A3.77406,3.77406,0,0,0,1204.305,75.6878Z"/>
            <path class="cls-1" d="M1215.836,55.94128h6.04652v24.8135H1215.836Z"/>
            <path class="cls-1" d="M1223.7333,71.66808c0-6.18532,4.927-9.4354,9.7164-9.4354,4.75325,0,9.68029,3.25008,9.68029,9.4354,0,6.18645-4.927,9.43653-9.68029,9.43653C1228.66034,81.10461,1223.7333,77.85453,1223.7333,71.66808Zm9.7164,4.01972a4.02714,4.02714,0,1,0-3.77371-4.01972A3.77406,3.77406,0,0,0,1233.4497,75.6878Z"/>
            <path class="cls-1" d="M1248.759,86.97508V82.188a9.02777,9.02777,0,0,0,4.12354.83848c3.39,0,4.96315-1.6431,4.96315-3.39v-.59359h-.2099a5.948,5.948,0,0,1-4.85933,2.06177c-4.08743,0-8.66689-3.11128-8.66689-9.43653s4.57946-9.4354,8.66689-9.4354a5.94447,5.94447,0,0,1,4.85933,2.06177h.2099V62.58138h6.04426v16.5303c0,7.37476-5.83661,8.91178-9.85408,8.91178C1252.18283,88.02346,1249.98225,87.7797,1248.759,86.97508Zm5.27687-11.21844a4.09108,4.09108,0,0,0,0-8.17712,4.08994,4.08994,0,0,0,0,8.17712Z"/>
            <path class="cls-1" d="M1266.61637,62.58138h6.04651v18.1734h-6.04651Zm4.68328-7.68848h4.68328l-3.80982,5.52176h-4.5772Z"/>
            <path class="cls-1" d="M1274.51363,71.66808c0-6.36024,4.54334-9.4354,8.59692-9.4354a6.24051,6.24051,0,0,1,5.03312,2.06177h.10608V62.58138h6.04426v18.1734h-6.04426V79.04284h-.10608a6.24426,6.24426,0,0,1-5.03312,2.06177C1279.057,81.10461,1274.51363,78.02832,1274.51363,71.66808Zm9.89019,4.08856a4.09108,4.09108,0,1,0-3.9475-4.08856A3.86245,3.86245,0,0,0,1284.40382,75.75664Z"/>
          </g>
        </g>
        <g>
          <g>
            <path class="cls-2" d="M781.1684,113.01864a4.09108,4.09108,0,1,0-3.9475-4.08856A3.86245,3.86245,0,0,0,781.1684,113.01864Z"/>
            <path class="cls-2" d="M883.32264,113.01864a4.09108,4.09108,0,1,0-3.9475-4.08856A3.86072,3.86072,0,0,0,883.32264,113.01864Z"/>
            <path class="cls-2" d="M904.956,113.01864a4.09108,4.09108,0,1,0-3.9475-4.08856A3.86245,3.86245,0,0,0,904.956,113.01864Z"/>
            <path class="cls-2" d="M926.41335,112.94981a4.02714,4.02714,0,1,0-3.77371-4.01973A3.77407,3.77407,0,0,0,926.41335,112.94981Z"/>
            <path class="cls-2" d="M953.56736,113.01864a4.09108,4.09108,0,1,0-3.9475-4.08856A3.86245,3.86245,0,0,0,953.56736,113.01864Z"/>
            <path class="cls-2" d="M1024.75777,113.01864a4.091,4.091,0,0,0,0-8.17712,4.08994,4.08994,0,0,0,0,8.17712Z"/>
            <path class="cls-2" d="M1067.045,113.01864a4.09108,4.09108,0,1,0-3.9475-4.08856A3.86245,3.86245,0,0,0,1067.045,113.01864Z"/>
            <path class="cls-2" d="M1122.01883,113.01864a4.09108,4.09108,0,1,0-3.9475-4.08856A3.86071,3.86071,0,0,0,1122.01883,113.01864Z"/>
          </g>
          <g>
            <path class="cls-2" d="M899.24129,75.6878a4.02714,4.02714,0,1,0-3.77371-4.01972A3.77406,3.77406,0,0,0,899.24129,75.6878Z"/>
            <path class="cls-2" d="M926.3953,75.75664a4.09108,4.09108,0,1,0-3.9475-4.08856A3.86072,3.86072,0,0,0,926.3953,75.75664Z"/>
            <path class="cls-2" d="M1075.2018,75.75664a4.09108,4.09108,0,1,0-3.94749-4.08856A3.86245,3.86245,0,0,0,1075.2018,75.75664Z"/>
            <path class="cls-2" d="M1204.30241,75.6878a4.02714,4.02714,0,1,0-3.77371-4.01972A3.77406,3.77406,0,0,0,1204.30241,75.6878Z"/>
            <path class="cls-2" d="M1233.4471,75.6878a4.02714,4.02714,0,1,0-3.77371-4.01972A3.77406,3.77406,0,0,0,1233.4471,75.6878Z"/>
            <path class="cls-2" d="M1254.03323,75.75664a4.091,4.091,0,0,0,0-8.17712,4.08994,4.08994,0,0,0,0,8.17712Z"/>
            <path class="cls-2" d="M1284.40122,75.75664a4.09108,4.09108,0,1,0-3.9475-4.08856A3.86072,3.86072,0,0,0,1284.40122,75.75664Z"/>
          </g>
        </g>
        <g>
          <g>
            <polygon class="cls-3" points="124.85 46.479 128.214 56.4 155.718 28.896 172.361 45.539 172.361 32.254 155.718 15.611 124.85 46.479"/>
            <polygon class="cls-4" points="172.361 134.158 172.361 113.829 162.196 123.994 172.361 134.158"/>
            <polygon class="cls-3" points="0 134.158 0 113.829 10.165 123.994 0 134.158"/>
            <polygon class="cls-5" points="101.957 102.495 100.186 96.911 94.602 102.495 101.957 102.495"/>
            <polygon class="cls-5" points="131.375 65.722 132.175 68.084 134.786 75.596 156.119 54.263 172.361 70.504 172.361 57.219 156.119 40.978 131.375 65.722"/>
            <polygon class="cls-5" points="65.431 131.666 61.432 131.666 59.711 137.386 57.82 143.671 54.969 153.151 43.946 153.151 26.832 170.266 37.446 170.186 40.196 170.186 78.716 131.666 65.431 131.666"/>
            <polygon class="cls-2" points="140.803 19.704 134.16 13.062 118.746 28.476 122.11 38.396 140.803 19.704"/>
            <polygon class="cls-2" points="91.378 69.129 88.18 59.042 82.552 64.67 76.696 83.811 91.378 69.129"/>
            <polygon class="cls-2" points="158.123 142.76 172.361 156.999 172.361 143.714 151.049 122.402 158.123 142.76"/>
            <polygon class="cls-1" points="137.5 83.408 140.925 93.266 155.769 78.424 170.538 93.193 150.672 113.058 157.315 119.699 172.361 104.653 172.361 81.732 155.769 65.139 137.5 83.408"/>
            <polygon class="cls-1" points="90.21 131.666 51.61 170.266 59.809 170.186 64.974 170.186 103.494 131.666 90.21 131.666"/>
            <polygon class="cls-3" points="157.551 152.539 157.405 152.539 144.195 152.466 144.268 152.539 136.857 152.539 119.212 170.186 124.227 170.186 132.496 170.186 147.205 155.476 161.913 170.186 172.361 170.186 172.361 167.349 157.551 152.539"/>
            <polygon class="cls-4" points="114.434 142.76 111.3 132.775 73.81 170.266 85.335 170.186 87.174 170.186 112.903 144.457 114.434 142.76"/>
            <polygon class="cls-2" points="117.502 152.539 116.517 149.397 95.648 170.266 104.296 170.186 109.012 170.186 126.658 152.539 117.502 152.539"/>
            <polygon class="cls-5" points="76.815 0 58.975 17.078 66.732 17.078 73.086 17.078 90.121 0.044 76.815 0"/>
            <polygon class="cls-1" points="105.123 0 99.058 0 81.999 17.078 92.526 17.078 95.28 17.078 112.299 0 105.123 0"/>
            <polygon class="cls-3" points="125.508 0 120.908 0.011 103.84 17.078 114.882 17.078 115.463 18.74 134.137 0 125.508 0"/>
            <polygon class="cls-1" points="172.361 22.159 172.361 16.811 169.687 19.485 172.361 22.159"/>
            <polygon class="cls-2" points="146.512 13.532 155.836 4.209 165.488 13.86 172.13 7.219 164.955 0.044 146.716 0.044 139.87 6.891 146.512 13.532"/>
            <polygon class="cls-4" points="161.669 92.857 155.027 86.216 142.744 98.499 146.169 108.357 161.669 92.857"/>
            <polygon class="cls-1" points="47.8 46.479 44.436 56.4 16.932 28.896 0.29 45.539 0.29 32.254 16.932 15.611 47.8 46.479"/>
            <polygon class="cls-2" points="64.646 0 51.607 0 38.547 13.118 38.491 13.062 31.848 19.704 50.54 38.396 53.904 28.476 45.288 19.859 64.646 0"/>
            <polygon class="cls-2" points="41.276 65.722 40.475 68.084 37.865 75.596 16.532 54.263 0.29 70.504 0.29 57.219 16.532 40.978 41.276 65.722"/>
            <polygon class="cls-2" points="14.528 142.76 0.29 156.999 0.29 143.714 21.602 122.402 14.528 142.76"/>
            <polygon class="cls-5" points="35.151 83.408 31.725 93.266 16.882 78.424 2.113 93.193 21.978 113.058 15.336 119.699 0.29 104.653 0.29 81.732 16.882 65.139 35.151 83.408"/>
            <polygon class="cls-3" points="18.446 152.539 18.593 152.539 31.803 152.466 14.085 170.186 3.637 170.186 0.29 170.186 18.446 152.539"/>
            <polygon class="cls-2" points="0.29 22.159 0.29 16.811 2.964 19.485 0.29 22.159"/>
            <polygon class="cls-4" points="26.138 13.532 16.815 4.209 7.163 13.86 0.52 7.219 7.695 0.044 25.934 0.044 32.781 6.891 26.138 13.532"/>
            <polygon class="cls-1" points="10.981 92.857 17.624 86.216 29.907 98.499 26.482 108.357 10.981 92.857"/>
            <polygon class="cls-3" points="95.404 81.828 93.983 77.346 78.638 92.691 74.602 96.727 71.835 99.703 70.981 102.495 81.747 102.495 82.12 102.495 97.181 87.433 95.404 81.828"/>
            <polygon class="cls-6" points="157.405 152.539 157.551 152.539 157.478 152.466 157.405 152.539"/>
            <polygon class="cls-5" points="142.215 170.266 153.264 170.266 147.475 164.116 142.215 170.266"/>
          </g>
          <g>
            <g>
              <path class="cls-7" d="M306.90977,188.91149c0,.35278,0,.36825-.16865.45954a8.11822,8.11822,0,0,1-3.2957.58255c-3.31079,0-6.23824-1.50163-6.23824-5.10369a4.82236,4.82236,0,0,1,2.36037-4.2612,6.755,6.755,0,0,1,3.63262-.84327,15.28826,15.28826,0,0,1,2.39132.21507c.2758.04565.75082.12224,1.073.13771.15318.01547.18374.06112.18374.15318a17.6605,17.6605,0,0,0-.09207,2.14607c0,.19883-.07659.29089-.18374.29089-.09206,0-.12262-.06112-.13809-.16865a1.73515,1.73515,0,0,0-.45954-1.073,4.1807,4.1807,0,0,0-2.92784-.99567,3.48186,3.48186,0,0,0-3.8473,3.93859,4.52216,4.52216,0,0,0,4.69018,4.84375,2.211,2.211,0,0,0,.95042-.1377.43069.43069,0,0,0,.26071-.45954V187.44c0-.64367,0-1.13415-.01547-1.53258-.01508-.44484-.15318-.58255-.58216-.70478a2.40852,2.40852,0,0,0-.52143-.04642c-.12263,0-.2143-.06112-.2143-.13771,0-.10753.10715-.123.29089-.123.70517,0,1.67106.03095,2.06948.03095.429,0,1.13415-.03095,1.57861-.03095.18413,0,.2758.01548.2758.123a.15587.15587,0,0,1-.16865.13771,1.8202,1.8202,0,0,0-.36748.04642c-.36825.06111-.506.24447-.52143.70478-.01509.39843-.01509.91986-.01509,1.56353Z"/>
              <path class="cls-7" d="M310.742,184.84989c0-2.22267,1.56352-5.10447,5.65607-5.10447,3.40246,0,5.518,1.88536,5.518,4.8747,0,2.98856-2.17663,5.33346-5.65607,5.33346C312.33607,189.95358,310.742,187.16461,310.742,184.84989Zm9.16607.24524c0-2.8818-1.73218-4.65962-3.90881-4.65962-1.502,0-3.26475.79684-3.26475,4.016,0,2.68221,1.533,4.79734,4.07746,4.79734C317.762,189.2488,319.90806,188.80395,319.90806,185.09513Z"/>
              <path class="cls-7" d="M325.96294,183.70026c0-1.97742,0-2.3449-.01547-2.75879-.03056-.44485-.15318-.58255-.58216-.70556a2.52278,2.52278,0,0,0-.53652-.04565c-.1381,0-.23016-.04642-.23016-.13848,0-.09129.10754-.12223.30675-.12223.70517,0,1.56352.03094,1.82385.03094.67461,0,1.56353-.03094,2.02345-.03094,2.437,0,2.86633,1.25716,2.86633,1.94647a2.87778,2.87778,0,0,1-1.51749,2.28378,3.22582,3.22582,0,0,1,2.483,2.82069c0,1.39487-1.1036,2.83538-3.58659,2.83538-.15357,0-.61311-.01547-1.073-.04564-.45993-.01547-.93494-.03095-1.14963-.03095-.15318,0-.44445.01548-.76629.01548-.32183.01547-.65914.03017-.93494.03017-.16865,0-.26071-.04565-.26071-.13771,0-.06112.046-.13771.21468-.13771a1.96605,1.96605,0,0,0,.475-.04642c.27619-.06111.35278-.30636.39843-.68931.0615-.5516.0615-1.579.0615-2.77427Zm1.74727.2143c0,.10753.046.123.09206.13848a2.91566,2.91566,0,0,0,.62858.04564,1.75112,1.75112,0,0,0,1.05756-.22977,1.70908,1.70908,0,0,0,.61311-1.37939,1.80678,1.80678,0,0,0-1.68614-1.962,3.486,3.486,0,0,0-.58255.03017c-.09168.01547-.12262.07659-.12262.21507Zm0,3.83183c0,.85874.046,1.11946.4754,1.28811a2.49,2.49,0,0,0,.9655.15318,1.61432,1.61432,0,0,0,1.6552-1.83971,2.85381,2.85381,0,0,0-1.27186-2.314,1.91419,1.91419,0,0,0-1.1651-.3373h-.58255c-.04565,0-.07659.01547-.07659.09206Z"/>
              <path class="cls-7" d="M336.69292,183.70026c0-1.97742,0-2.3449-.01547-2.75879-.03056-.44485-.16865-.598-.45954-.69009a1.73552,1.73552,0,0,0-.49049-.06112c-.13809,0-.21468-.03094-.21468-.15318,0-.07659.10715-.10753.32183-.10753.506,0,1.42543.03094,1.80877.03094.33692,0,1.21074-.03094,1.73179-.03094.16865,0,.27619.03094.27619.10753,0,.12224-.07659.15318-.21469.15318a1.90025,1.90025,0,0,0-.39842.04565c-.36787.06189-.4754.24524-.506.70556-.03056.41389-.03056.78137-.03056,2.75879v2.29925c0,1.25639,0,2.29926.06112,2.85086.046.35278.13809.55161.53652.61272a4.999,4.999,0,0,0,.6897.04642c.15318,0,.21468.07659.21468.13771,0,.09206-.10715.13771-.26072.13771-.88891,0-1.80838-.04565-2.17624-.04565-.30675,0-1.22622.04565-1.76274.04565-.16865,0-.26071-.04565-.26071-.13771,0-.06112.046-.13771.21468-.13771a1.9662,1.9662,0,0,0,.475-.04642c.2758-.06111.35277-.24524.39881-.62819.06111-.53613.06111-1.579.06111-2.83539Z"/>
              <path class="cls-7" d="M344.46451,183.70026c0-1.97742,0-2.3449-.01547-2.75879-.03056-.44485-.15318-.58255-.58217-.70556a2.52261,2.52261,0,0,0-.53651-.04565c-.1381,0-.23016-.04642-.23016-.13848,0-.09129.10753-.12223.30675-.12223.70517,0,1.56352.03094,1.94647.03094.42937,0,3.41832.0147,3.67865,0,.24525-.01547.45993-.06189.56708-.07659a1.58461,1.58461,0,0,1,.21468-.06189c.07659,0,.09207.06189.09207.123a5.80173,5.80173,0,0,0-.10754.84327c-.01508.1377-.04564.70478-.07659.858-.01508.06112-.04564.2143-.15318.2143-.09206,0-.10715-.06112-.10715-.16866a1.226,1.226,0,0,0-.09206-.475c-.10715-.22977-.21469-.4139-.88891-.475-.23016-.031-1.83933-.06112-2.11552-.06112-.06111,0-.09167.04564-.09167.12223v3.21911c0,.07659.01508.13771.09167.13771.30675,0,2.054,0,2.36076-.03017.32184-.03095.52105-.06189.64367-.1996.10715-.09206.15318-.16865.21468-.16865a.12365.12365,0,0,1,.10715.13771c0,.07659-.03056.29166-.10715.9508-.03094.26071-.0615.78137-.0615.87344,0,.10753-.01509.29166-.13771.29166-.09206,0-.12262-.04642-.12262-.10754-.01547-.13771-.01547-.30636-.046-.475-.07659-.26072-.24524-.46032-.7512-.506-.24525-.03095-1.77783-.06112-2.11513-.06112-.06151,0-.07659.06112-.07659.13771v1.04209c0,.44484-.01548,1.548,0,1.93178.03056.88891.44445,1.08773,1.82385,1.08773a3.6423,3.6423,0,0,0,1.27225-.16865c.33731-.15318.49049-.4286.58255-.9655.03056-.13771.06112-.19883.15318-.19883.10715,0,.12262.16788.12262.30636a8.78251,8.78251,0,0,1-.18412,1.44052c-.09168.3373-.2143.3373-.72026.3373-1.01153,0-1.82386-.01547-2.483-.04564-.65914-.01547-1.1651-.03095-1.56352-.03095-.15318,0-.44445.01548-.76629.01548-.32183.01547-.65914.03017-.93494.03017-.16865,0-.26072-.04565-.26072-.13771,0-.06112.046-.13771.21469-.13771a1.96605,1.96605,0,0,0,.475-.04642c.27619-.06111.35278-.30636.39843-.68931.0615-.5516.0615-1.579.0615-2.77427Z"/>
              <path class="cls-7" d="M354.51988,183.70026c0-1.97742,0-2.3449-.01547-2.75879-.03056-.44485-.15319-.58255-.58217-.70556a2.52265,2.52265,0,0,0-.53652-.04565c-.13809,0-.23015-.04642-.23015-.13848,0-.09129.10753-.12223.30674-.12223.70518,0,1.56353.03094,1.83933.03094.45993,0,1.68615-.03094,2.1-.03094a4.72485,4.72485,0,0,1,2.55959.5516,2.27681,2.27681,0,0,1,.95041,1.79329c0,.96628-.552,1.82424-1.87027,2.88181,1.19566,1.47146,2.14607,2.652,2.95839,3.46435a2.53021,2.53021,0,0,0,1.4409.858,1.24646,1.24646,0,0,0,.32184.03094.15654.15654,0,0,1,.16865.13771c0,.10754-.09206.13771-.26071.13771h-1.28734a2.93014,2.93014,0,0,1-1.47146-.25994,6.1067,6.1067,0,0,1-1.83933-1.91631c-.53651-.70478-1.10359-1.579-1.27224-1.77782a.31063.31063,0,0,0-.24525-.09206l-1.21113-.03095a.097.097,0,0,0-.10715.10754v.18412c0,1.21075.01547,2.22267.07659,2.77427.046.383.10754.6282.52105.68931a5.0647,5.0647,0,0,0,.65914.04642.15628.15628,0,0,1,.16865.13771c0,.09206-.10715.13771-.2758.13771-.78176,0-1.90083-.04565-2.1-.04565-.26033,0-1.11868.04565-1.6552.04565-.16866,0-.26072-.04565-.26072-.13771,0-.06112.046-.13771.21469-.13771a1.96605,1.96605,0,0,0,.475-.04642c.2758-.06111.35278-.30636.39881-.68931.06112-.5516.06112-1.579.06112-2.77427Zm1.7167,1.01192c0,.13771.03056.18335.12262.22977a3.69725,3.69725,0,0,0,1.027.12224,1.356,1.356,0,0,0,.95041-.2143,2.20594,2.20594,0,0,0,.87344-1.93178,2.04773,2.04773,0,0,0-2.05362-2.314,4.95384,4.95384,0,0,0-.79724.04564c-.09206.03095-.12262.07659-.12262.18413Z"/>
              <path class="cls-7" d="M367.41063,188.00711c.03095,1.01192.19921,1.31828.45993,1.41034a2.29067,2.29067,0,0,0,.70517.09206c.15318,0,.22977.06112.22977.13771,0,.10754-.12262.13771-.30636.13771-.87382,0-1.502-.04565-1.74726-.04565-.123,0-.76668.04565-1.45638.04565-.18374,0-.30636-.0147-.30636-.13771,0-.07659.09168-.13771.2143-.13771a2.79252,2.79252,0,0,0,.61311-.06111c.35278-.09207.39881-.44485.4139-1.579l.12262-7.72556c0-.25994.09206-.44406.23015-.44406.16866,0,.3524.19882.58217.42936.16865.16866,2.1921,2.23737,4.154,4.15367.91947.90438,2.71276,2.74332,2.912,2.92745h.0615l-.13809-5.79378c-.01509-.79685-.13771-1.02739-.45955-1.14963a2.26576,2.26576,0,0,0-.70517-.07659c-.16865,0-.21468-.06112-.21468-.13848,0-.10676.13809-.12223.3373-.12223.70518,0,1.42543.03094,1.71671.03094.15318,0,.65914-.03094,1.31828-.03094.18374,0,.30636.01547.30636.12223,0,.07736-.07659.13848-.22977.13848a1.37772,1.37772,0,0,0-.4139.04565c-.36786.10753-.475.3373-.49048,1.073l-.15318,8.216c0,.29088-.10754.41389-.21469.41389a.803.803,0,0,1-.552-.27619c-.84288-.78215-2.529-2.39131-3.939-3.75524-1.47146-1.41034-2.89689-2.98934-3.15761-3.21911h-.046Z"/>
              <path class="cls-7" d="M379.36683,184.84989c0-2.22267,1.56352-5.10447,5.65607-5.10447,3.40246,0,5.518,1.88536,5.518,4.8747,0,2.98856-2.17663,5.33346-5.65607,5.33346C380.96091,189.95358,379.36683,187.16461,379.36683,184.84989Zm9.16607.24524c0-2.8818-1.73218-4.65962-3.90881-4.65962-1.502,0-3.26475.79684-3.26475,4.016,0,2.68221,1.533,4.79734,4.07746,4.79734C386.38683,189.2488,388.5329,188.80395,388.5329,185.09513Z"/>
              <path class="cls-7" d="M401.1788,183.70026c0-1.97742,0-2.3449-.01548-2.75879-.03056-.44485-.15318-.58255-.58216-.70556a2.52278,2.52278,0,0,0-.53652-.04565c-.13809,0-.23016-.04642-.23016-.13848,0-.09129.10754-.12223.30675-.12223.70517,0,1.56353.03094,1.94648.03094.41389,0,1.37939-.03094,2.1921-.03094,1.68576,0,3.95446,0,5.42592,1.48693a4.5638,4.5638,0,0,1,1.27225,3.3104,5.05386,5.05386,0,0,1-1.47147,3.633,6.29159,6.29159,0,0,1-4.52191,1.53257c-.49049,0-1.07265-.04564-1.60917-.07659-.53652-.04564-1.027-.07659-1.36431-.07659-.15318,0-.44446.01548-.76629.01548-.32184.01547-.65914.03017-.93494.03017-.16866,0-.26072-.04565-.26072-.13771,0-.06112.046-.13771.21468-.13771a1.96609,1.96609,0,0,0,.475-.04642c.2758-.06111.35278-.30636.39881-.68931.06112-.5516.06112-1.579.06112-2.77427Zm1.80876,1.44052c0,1.37939.01509,2.37584.03056,2.63656a2.38511,2.38511,0,0,0,.15318.91985c.16866.24525.70517.52066,1.76274.52066a4.2498,4.2498,0,0,0,2.94292-.88891,3.97734,3.97734,0,0,0,1.14963-3.23381,4.23992,4.23992,0,0,0-1.25678-3.24928,5.43918,5.43918,0,0,0-3.77071-1.24169,2.842,2.842,0,0,0-.8278.09206.22809.22809,0,0,0-.16865.25994c-.01509.44485-.01509,1.51788-.01509,2.5445Z"/>
              <path class="cls-7" d="M415.29615,183.70026c0-1.97742,0-2.3449-.01547-2.75879-.03056-.44485-.15318-.58255-.58216-.70556a2.52278,2.52278,0,0,0-.53652-.04565c-.1381,0-.23016-.04642-.23016-.13848,0-.09129.10754-.12223.30675-.12223.70517,0,1.56352.03094,1.94647.03094.42937,0,3.41833.0147,3.67866,0,.24524-.01547.45992-.06189.56707-.07659a1.56842,1.56842,0,0,1,.21469-.06189c.07659,0,.09206.06189.09206.123a5.774,5.774,0,0,0-.10715.84327c-.01547.1377-.046.70478-.077.858-.01508.06112-.046.2143-.15318.2143-.09206,0-.10714-.06112-.10714-.16866a1.22607,1.22607,0,0,0-.09207-.475c-.10715-.22977-.21468-.4139-.88891-.475-.23016-.031-1.83932-.06112-2.11513-.06112-.0615,0-.09206.04564-.09206.12223v3.21911c0,.07659.01509.13771.09206.13771.30636,0,2.05363,0,2.36038-.03017.32183-.03095.521-.06189.64366-.1996.10715-.09206.15318-.16865.21469-.16865a.12366.12366,0,0,1,.10715.13771c0,.07659-.03056.29166-.10715.9508-.03056.26071-.06151.78137-.06151.87344,0,.10753-.01508.29166-.1377.29166-.09207,0-.12263-.04642-.12263-.10754-.01547-.13771-.01547-.30636-.046-.475-.07659-.26072-.24524-.46032-.7512-.506-.24524-.03095-1.77782-.06112-2.11513-.06112-.0615,0-.07659.06112-.07659.13771v1.04209c0,.44484-.01547,1.548,0,1.93178.03056.88891.44446,1.08773,1.82385,1.08773a3.64346,3.64346,0,0,0,1.27225-.16865c.33731-.15318.49049-.4286.58255-.9655.03056-.13771.06112-.19883.15318-.19883.10715,0,.12262.16788.12262.30636a8.82384,8.82384,0,0,1-.18373,1.44052c-.09207.3373-.21469.3373-.72065.3373-1.01153,0-1.82385-.01547-2.483-.04564-.65914-.01547-1.1651-.03095-1.56353-.03095-.15318,0-.44445.01548-.76628.01548-.32184.01547-.65914.03017-.935.03017-.16865,0-.26071-.04565-.26071-.13771,0-.06112.046-.13771.21468-.13771a1.9662,1.9662,0,0,0,.475-.04642c.2758-.06111.35277-.30636.39881-.68931.06111-.5516.06111-1.579.06111-2.77427Z"/>
              <path class="cls-7" d="M427.16029,185.99951c0,1.67029,0,2.49808.29127,2.74333.22977.1996.75082.27619,1.7933.27619.72026,0,1.2413-.01548,1.57861-.36826a1.56557,1.56557,0,0,0,.3373-.78137c.01509-.123.046-.1996.15318-.1996.09207,0,.12263.13848.12263.29166a9.93421,9.93421,0,0,1-.19922,1.50163c-.09206.29167-.15318.35278-.85835.35278-.9655,0-1.74726-.01547-2.42187-.04564-.67423-.01547-1.24131-.03095-1.7933-.03095-.15318,0-.44445.01548-.76629.01548-.32183.01547-.65914.03017-.93494.03017-.16865,0-.26072-.04565-.26072-.13771,0-.06112.046-.13771.21469-.13771a1.96605,1.96605,0,0,0,.475-.04642c.27619-.06111.35278-.30636.39843-.68931.0615-.5516.0615-1.579.0615-2.77427v-2.29925c0-1.97742,0-2.3449-.01547-2.75879-.03056-.44485-.15318-.58255-.58216-.70556a1.82846,1.82846,0,0,0-.44485-.04565c-.15318,0-.22977-.04642-.22977-.13848,0-.09129.09207-.12223.29128-.12223.62858,0,1.48693.03094,1.8548.03094.32183,0,1.42543-.03094,1.94647-.03094.19921,0,.29128.03094.29128.12223,0,.09206-.07659.13848-.24525.13848a3.03967,3.03967,0,0,0-.521.04565c-.36787.06189-.4754.24524-.506.70556-.03056.41389-.03056.78137-.03056,2.75879Z"/>
              <path class="cls-7" d="M441.47647,183.70026c0-1.97742,0-2.3449-.01547-2.75879-.03056-.44485-.15318-.58255-.58216-.70556a2.52278,2.52278,0,0,0-.53652-.04565c-.1381,0-.23016-.04642-.23016-.13848,0-.09129.10754-.12223.30675-.12223.70517,0,1.56352.03094,1.94647.03094.42937,0,3.41832.0147,3.67865,0,.24525-.01547.45993-.06189.56708-.07659a1.5843,1.5843,0,0,1,.21469-.06189c.07659,0,.09206.06189.09206.123a5.80173,5.80173,0,0,0-.10754.84327c-.01508.1377-.04564.70478-.07659.858-.01508.06112-.04564.2143-.15318.2143-.09206,0-.10715-.06112-.10715-.16866a1.226,1.226,0,0,0-.09206-.475c-.10715-.22977-.21468-.4139-.88891-.475-.23016-.031-1.83933-.06112-2.11552-.06112-.06111,0-.09167.04564-.09167.12223v3.21911c0,.07659.01508.13771.09167.13771.30675,0,2.054,0,2.36076-.03017.32184-.03095.52105-.06189.64367-.1996.10715-.09206.15318-.16865.21468-.16865a.12365.12365,0,0,1,.10715.13771c0,.07659-.03056.29166-.10715.9508-.03094.26071-.0615.78137-.0615.87344,0,.10753-.01509.29166-.13771.29166-.09206,0-.12262-.04642-.12262-.10754-.01547-.13771-.01547-.30636-.046-.475-.07659-.26072-.24524-.46032-.7512-.506-.24525-.03095-1.77783-.06112-2.11513-.06112-.06151,0-.07659.06112-.07659.13771v1.04209c0,.44484-.01547,1.548,0,1.93178.03056.88891.44445,1.08773,1.82385,1.08773a3.6423,3.6423,0,0,0,1.27225-.16865c.33731-.15318.49049-.4286.58255-.9655.03056-.13771.06112-.19883.15318-.19883.10715,0,.12262.16788.12262.30636a8.78251,8.78251,0,0,1-.18412,1.44052c-.09168.3373-.2143.3373-.72026.3373-1.01153,0-1.82385-.01547-2.483-.04564-.65914-.01547-1.1651-.03095-1.56353-.03095-.15318,0-.44445.01548-.76629.01548-.32183.01547-.65914.03017-.93494.03017-.16865,0-.26072-.04565-.26072-.13771,0-.06112.046-.13771.21469-.13771a1.96605,1.96605,0,0,0,.475-.04642c.27619-.06111.35278-.30636.39843-.68931.0615-.5516.0615-1.579.0615-2.77427Z"/>
              <path class="cls-7" d="M451.10246,189.61705c-.21468-.09206-.26071-.154-.26071-.44484,0-.70479.06151-1.51711.07659-1.73218,0-.19883.06151-.33731.16866-.33731.12262,0,.13809.123.13809.21507a2.424,2.424,0,0,0,.12262.67384,2.08523,2.08523,0,0,0,2.14608,1.28811,1.691,1.691,0,0,0,1.86988-1.65558c0-.56708-.13771-1.13416-1.33375-1.83972l-.78138-.45954c-1.59447-.93533-2.11551-1.80877-2.11551-2.95839,0-1.5937,1.533-2.62109,3.40285-2.62109a7.99565,7.99565,0,0,1,1.9163.21507c.12224.03017.18335.07659.18335.16865,0,.16866-.04564.53614-.04564,1.56275,0,.27619-.06112.4139-.16866.4139-.09206,0-.1377-.07659-.1377-.22977a1.47569,1.47569,0,0,0-.35278-.858,1.8124,1.8124,0,0,0-1.50241-.6135c-.9655,0-1.83894.506-1.83894,1.39487,0,.58255.2143,1.04209,1.425,1.7167l.55237.30637c1.77782.981,2.32943,1.97742,2.32943,3.158a2.78438,2.78438,0,0,1-1.34845,2.437,3.93666,3.93666,0,0,1-2.25361.53613A5.74669,5.74669,0,0,1,451.10246,189.61705Z"/>
              <path class="cls-7" d="M463.442,180.72639l-2.0076.04642c-.78215.01548-1.104.10676-1.3028.39843a1.52361,1.52361,0,0,0-.23055.44406c-.03017.10754-.06112.16866-.15318.16866s-.12223-.07659-.12223-.2143c0-.2143.26071-1.47146.29088-1.579.03095-.16865.07659-.24524.15318-.24524.10754,0,.24525.10754.58255.15318a12.53991,12.53991,0,0,0,1.34923.06189h5.47195a5.90716,5.90716,0,0,0,.91908-.06189c.21507-.03017.32261-.06112.36825-.06112.09206,0,.10754.07659.10754.27619,0,.27542-.031,1.24169-.031,1.57822-.01547.13849-.04564.21508-.12223.21508-.10754,0-.13849-.06112-.154-.26072l-.0147-.13771c-.03094-.3373-.38372-.73573-1.59447-.7512l-1.70123-.03095v5.27312c0,1.19528.01548,2.22267.07659,2.78975.04565.36747.12224.61272.52143.67383a4.98953,4.98953,0,0,0,.68932.04642c.15318,0,.21507.07659.21507.13771,0,.09206-.10754.13771-.26072.13771-.88891,0-1.79329-.04565-2.177-.04565-.30636,0-1.22621.04565-1.76235.04565-.16865,0-.26072-.04565-.26072-.13771,0-.06112.04643-.13771.21431-.13771a1.88734,1.88734,0,0,0,.47578-.04642c.27542-.06111.352-.30636.39843-.68931.06112-.5516.06112-1.579.06112-2.77427Z"/>
              <path class="cls-7" d="M472.547,186.50547c-.07659,0-.09206.0147-.123.09129l-.72026,1.74765a2.36334,2.36334,0,0,0-.19882.79685c0,.22977.12223.36825.53613.36825h.1996c.16865,0,.19882.06112.19882.13771,0,.10754-.07659.13771-.2143.13771-.44484,0-1.073-.04565-1.5024-.04565-.13771,0-.858.04565-1.56353.04565-.16865,0-.24524-.03017-.24524-.13771a.13352.13352,0,0,1,.15318-.13771c.123,0,.27619-.01547.3992-.01547.61272-.09206.84249-.49049,1.11868-1.14963l3.52547-8.20057c.15318-.36747.26072-.52065.39843-.52065.19882,0,.2607.12223.39842.41389.32183.72026,2.57544,6.0545,3.43341,8.03114.52143,1.18058.90438,1.34923,1.14962,1.39487a3.21756,3.21756,0,0,0,.506.04642c.12224,0,.18336.04565.18336.13771,0,.10754-.07659.13771-.58178.13771-.47579,0-1.45676,0-2.59092-.03017-.24524-.01548-.39842-.01548-.39842-.10754,0-.07659.03095-.12223.16865-.13771a.20526.20526,0,0,0,.123-.29166l-1.04286-2.62109a.12712.12712,0,0,0-.13771-.09129Zm2.8818-.721c.06112,0,.07659-.03017.06112-.07659l-1.27264-3.3104c-.0147-.04641-.03017-.123-.06111-.123-.04565,0-.06112.0766-.07659.123l-1.30281,3.2957c-.03095.06112,0,.09129.04564.09129Z"/>
              <path class="cls-7" d="M483.18449,183.70026c0-1.97742,0-2.3449-.01547-2.75879-.03018-.44485-.15318-.58255-.58255-.70556a2.51631,2.51631,0,0,0-.53614-.04565c-.1377,0-.22977-.04642-.22977-.13848,0-.09129.10677-.12223.30636-.12223.70479,0,1.56353.03094,1.94648.03094.4139,0,1.3794-.03094,2.19172-.03094,1.68653,0,3.95484,0,5.4263,1.48693a4.5621,4.5621,0,0,1,1.27186,3.3104,5.05227,5.05227,0,0,1-1.47146,3.633,6.29007,6.29007,0,0,1-4.52114,1.53257c-.49049,0-1.073-.04564-1.61-.07659-.53613-.04564-1.02661-.07659-1.36392-.07659-.15318,0-.44407.01548-.76668.01548-.32183.01547-.65836.03017-.93456.03017-.16865,0-.26071-.04565-.26071-.13771,0-.06112.04642-.13771.2143-.13771a1.9731,1.9731,0,0,0,.47579-.04642c.27541-.06111.352-.30636.39842-.68931.06112-.5516.06112-1.579.06112-2.77427Zm1.80877,1.44052c0,1.37939.01547,2.37584.03094,2.63656a2.36341,2.36341,0,0,0,.15318.91985c.16866.24525.70479.52066,1.76235.52066a4.2498,4.2498,0,0,0,2.94292-.88891,3.97857,3.97857,0,0,0,1.14963-3.23381,4.23856,4.23856,0,0,0-1.25716-3.24928,5.4363,5.4363,0,0,0-3.76994-1.24169,2.83667,2.83667,0,0,0-.8278.09206.22776.22776,0,0,0-.16865.25994c-.01547.44485-.01547,1.51788-.01547,2.5445Z"/>
              <path class="cls-7" d="M495.98357,184.84989c0-2.22267,1.56352-5.10447,5.65607-5.10447,3.40246,0,5.51759,1.88536,5.51759,4.8747,0,2.98856-2.17625,5.33346-5.65607,5.33346C497.57726,189.95358,495.98357,187.16461,495.98357,184.84989Zm9.16607.24524c0-2.8818-1.73218-4.65962-3.90843-4.65962-1.5024,0-3.26475.79684-3.26475,4.016,0,2.68221,1.53258,4.79734,4.07707,4.79734C503.00356,189.2488,505.14964,188.80395,505.14964,185.09513Z"/>
              <path class="cls-7" d="M516.40066,189.73928a.21881.21881,0,0,1-.2143-.21429c0-.123.15319-.26072.30637-.39843,2.14607-1.88536,5.19575-4.27667,5.19575-7.51126,0-2.42148-1.333-2.912-2.09965-2.912a2.17488,2.17488,0,0,0-1.62464.5516,2.47853,2.47853,0,0,0-.64367,1.47146c0,.15318-.04642.29167-.1996.29167-.07659,0-.12223-.10754-.13771-.29167-.01547-.1377-.09206-1.40957-.09206-1.85441,0-.13771.01547-.1996.18413-.30636a5.79241,5.79241,0,0,1,2.77426-.58255c2.69768,0,3.84731,1.47146,3.84731,3.26476,0,2.97386-3.2957,5.564-5.27312,7.14223-.07659.06189-.04565.10753.03094.10753h1.04209c.26072,0,2.06949-.01547,2.63656-.09206a1.79793,1.79793,0,0,0,1.74765-1.36392c.04565-.18413.09129-.24525.18336-.24525.10753,0,.123.13771.123.29089a17.36343,17.36343,0,0,1-.44485,2.19249c-.12223.4139-.36748.45954-1.333.45954Z"/>
              <path class="cls-7" d="M530.79344,190c-3.01952,0-3.84731-3.49453-3.84731-5.67154,0-3.57112,1.25716-6.34539,4.09255-6.34539,3.035,0,3.8473,3.21834,3.8473,5.65607C534.886,187.44,533.43,190,530.79344,190Zm-.07659-11.32762c-1.14963,0-1.97743,1.579-1.97743,5.07353,0,2.652.65914,5.564,2.34568,5.564,1.24091,0,2.00759-2.09965,2.00759-5.07352C533.09269,181.58513,532.3879,178.67238,530.71685,178.67238Z"/>
              <path class="cls-7" d="M537.85985,189.73928a.21881.21881,0,0,1-.2143-.21429c0-.123.15318-.26072.30636-.39843,2.14608-1.88536,5.19576-4.27667,5.19576-7.51126,0-2.42148-1.333-2.912-2.09965-2.912a2.17491,2.17491,0,0,0-1.62465.5516,2.47857,2.47857,0,0,0-.64366,1.47146c0,.15318-.04642.29167-.1996.29167-.07659,0-.12224-.10754-.13771-.29167-.01547-.1377-.09206-1.40957-.09206-1.85441,0-.13771.01547-.1996.18412-.30636a5.79249,5.79249,0,0,1,2.77427-.58255c2.69768,0,3.84731,1.47146,3.84731,3.26476,0,2.97386-3.2957,5.564-5.27312,7.14223-.07659.06189-.04565.10753.03094.10753H540.956c.26072,0,2.06949-.01547,2.63655-.09206a1.79793,1.79793,0,0,0,1.74766-1.36392c.04565-.18413.09129-.24525.18335-.24525.10754,0,.123.13771.123.29089a17.36316,17.36316,0,0,1-.44484,2.19249c-.12223.4139-.36748.45954-1.333.45954Z"/>
              <path class="cls-7" d="M548.59022,189.73928a.21881.21881,0,0,1-.2143-.21429c0-.123.15318-.26072.30636-.39843,2.14607-1.88536,5.19576-4.27667,5.19576-7.51126,0-2.42148-1.333-2.912-2.09966-2.912a2.17488,2.17488,0,0,0-1.62464.5516,2.47859,2.47859,0,0,0-.64367,1.47146c0,.15318-.04641.29167-.19959.29167-.07659,0-.12224-.10754-.13771-.29167-.01547-.1377-.09207-1.40957-.09207-1.85441,0-.13771.01548-.1996.18413-.30636a5.79243,5.79243,0,0,1,2.77427-.58255c2.69768,0,3.8473,1.47146,3.8473,3.26476,0,2.97386-3.2957,5.564-5.27312,7.14223-.07659.06189-.04564.10753.03095.10753h1.04209c.26072,0,2.06948-.01547,2.63656-.09206a1.79794,1.79794,0,0,0,1.74765-1.36392c.04564-.18413.09129-.24525.18335-.24525.10754,0,.123.13771.123.29089a17.36316,17.36316,0,0,1-.44484,2.19249c-.12224.4139-.36748.45954-1.333.45954Z"/>
              <path class="cls-7" d="M564.01038,184.911c.27542,0,.49049.03094.49049.21429,0,.21507-.26072.26072-.69009.33731-.61272.09206-3.41793.58255-3.95406.73573-.30714.07659-.55238.24524-.67462.24524-.123,0-.15318-.12223-.123-.27541l.22977-1.05757c.04641-.18412.10753-.19959.36825-.19959Z"/>
              <path class="cls-7" d="M567.3672,189.73928a.2188.2188,0,0,1-.2143-.21429c0-.123.15318-.26072.30636-.39843,2.14608-1.88536,5.19576-4.27667,5.19576-7.51126,0-2.42148-1.333-2.912-2.09965-2.912a2.17491,2.17491,0,0,0-1.62465.5516,2.47857,2.47857,0,0,0-.64366,1.47146c0,.15318-.04642.29167-.1996.29167-.07659,0-.12224-.10754-.13771-.29167-.01547-.1377-.09206-1.40957-.09206-1.85441,0-.13771.01547-.1996.18412-.30636a5.7901,5.7901,0,0,1,2.77427-.58255c2.69768,0,3.84731,1.47146,3.84731,3.26476,0,2.97386-3.2957,5.564-5.27312,7.14223-.07659.06189-.04565.10753.03094.10753h1.04209c.26072,0,2.06949-.01547,2.63656-.09206a1.79793,1.79793,0,0,0,1.74765-1.36392c.04565-.18413.09129-.24525.18335-.24525.10754,0,.123.13771.123.29089a17.36316,17.36316,0,0,1-.44484,2.19249c-.12223.4139-.36748.45954-1.333.45954Z"/>
              <path class="cls-7" d="M581.76,190c-3.01951,0-3.8473-3.49453-3.8473-5.67154,0-3.57112,1.25716-6.34539,4.09255-6.34539,3.035,0,3.8473,3.21834,3.8473,5.65607C585.85252,187.44,584.39653,190,581.76,190Zm-.07659-11.32762c-1.14962,0-1.97742,1.579-1.97742,5.07353,0,2.652.65914,5.564,2.34568,5.564,1.24169,0,2.00759-2.09965,2.00759-5.07352C584.05923,181.58513,583.35444,178.67238,581.68338,178.67238Z"/>
              <path class="cls-7" d="M588.82639,189.73928a.21881.21881,0,0,1-.2143-.21429c0-.123.15318-.26072.30636-.39843,2.14607-1.88536,5.19576-4.27667,5.19576-7.51126,0-2.42148-1.333-2.912-2.09966-2.912a2.17488,2.17488,0,0,0-1.62464.5516,2.47859,2.47859,0,0,0-.64367,1.47146c0,.15318-.04641.29167-.19959.29167-.07659,0-.12224-.10754-.13771-.29167-.01547-.1377-.09206-1.40957-.09206-1.85441,0-.13771.01547-.1996.18412-.30636a5.79007,5.79007,0,0,1,2.77427-.58255c2.69768,0,3.8473,1.47146,3.8473,3.26476,0,2.97386-3.2957,5.564-5.27312,7.14223-.07659.06189-.04564.10753.03095.10753h1.04209c.26072,0,2.06948-.01547,2.63656-.09206a1.79794,1.79794,0,0,0,1.74765-1.36392c.04564-.18413.09129-.24525.18335-.24525.10754,0,.123.13771.123.29089a17.36316,17.36316,0,0,1-.44484,2.19249c-.12224.4139-.36748.45954-1.333.45954Z"/>
              <path class="cls-7" d="M607.174,178.24379c.29089,0,.36748.04564.36748.12223a.55634.55634,0,0,1-.10676.27619,36.682,36.682,0,0,0-3.89373,9.85538,3.5349,3.5349,0,0,0,0,.56708c0,.30636-1.24091.93533-1.931.93533-.16865,0-.2143-.04642-.2143-.18413a2.23074,2.23074,0,0,1,.10677-.62819,56.10547,56.10547,0,0,1,4.50644-9.53432h-3.96954a2.8917,2.8917,0,0,0-1.44129.27619,1.55047,1.55047,0,0,0-.506.91985c-.0147.12224-.06111.19883-.15318.19883-.10676,0-.12223-.07659-.12223-.22977,0-.56708.22977-2.36037.22977-2.51355s.06112-.21508.15318-.21508a8.81291,8.81291,0,0,0,2.06948.154Z"/>
            </g>
            <g>
              <path class="cls-8" d="M235.38254,104.31862c0-6.96631,5.36524-11.45358,11.64092-11.45358a10.17517,10.17517,0,0,1,9.13064,5.02054l-3.57682,2.47905a6.65923,6.65923,0,0,0-12.08053,3.954c0,4.23624,2.82374,6.90263,6.58915,6.90263a4.91368,4.91368,0,0,0,5.20913-3.8903h-4.9581V103.2196h9.75884c1.16147,7.908-3.98522,12.55136-10.19845,12.55136A11.17775,11.17775,0,0,1,235.38254,104.31862Z"/>
              <path class="cls-8" d="M259.08275,107.331a8.13448,8.13448,0,0,1,8.31512-8.5037c4.14133,0,9.00576,2.88619,7.97043,10.35456H263.75736c.65941,1.75719,2.29046,2.63516,4.456,2.63516a6.17509,6.17509,0,0,0,3.92277-1.25389l2.1968,2.29047a8.337,8.337,0,0,1-6.65285,2.91741C263.16163,115.771,259.08275,112.69619,259.08275,107.331Zm12.01809-1.6323a3.5086,3.5086,0,0,0-3.64052-2.79252,3.74952,3.74952,0,0,0-3.79663,2.79252Z"/>
              <path class="cls-8" d="M277.69748,99.14072h4.86319v2.07066a5.50937,5.50937,0,0,1,4.83321-2.38413c3.29457,0,6.0871,2.03944,6.0871,7.02876v9.60148h-4.86444v-8.75473c0-2.03944-1.03533-3.54561-3.04355-3.54561-1.977,0-3.01232,1.50617-3.01232,3.54561v8.75473h-4.86319Z"/>
              <path class="cls-8" d="M297.59857,110.43694v-7.43715h-2.41536V99.14072h2.41536v-4.1738H302.463v4.1738h3.41947v3.85907H302.463v6.65285c0,.81553.47084,1.69475,1.94578,1.69475a5.37046,5.37046,0,0,0,1.53738-.251v3.70171a4.89113,4.89113,0,0,1-3.13846.848C299.79537,115.64607,297.59857,114.17113,297.59857,110.43694Z"/>
              <path class="cls-8" d="M307.27,107.331a8.13448,8.13448,0,0,1,8.31512-8.5037c4.14132,0,9.00576,2.88619,7.97042,10.35456H311.94459c.65941,1.75719,2.29047,2.63516,4.456,2.63516a6.17509,6.17509,0,0,0,3.92277-1.25389l2.1968,2.29047a8.337,8.337,0,0,1-6.65284,2.91741C311.34887,115.771,307.27,112.69619,307.27,107.331Zm12.01808-1.6323a3.5086,3.5086,0,0,0-3.64052-2.79252,3.74952,3.74952,0,0,0-3.79663,2.79252Z"/>
              <path class="cls-8" d="M344.14851,115.45749v-1.85086h-.09367c-.251.59572-1.94577,2.16433-4.832,2.16433-3.703,0-7.78184-2.79252-7.78184-8.47248,0-5.67871,4.07888-8.47123,7.78184-8.47123,2.88619,0,4.58093,1.56861,4.832,2.16433h.09367V93.17851h4.86443v22.279Zm-3.92152-4.01644a4.145,4.145,0,1,0-3.98522-4.14257A3.92747,3.92747,0,0,0,340.227,111.44105Z"/>
              <path class="cls-8" d="M351.186,107.331a8.13448,8.13448,0,0,1,8.31512-8.5037c4.14133,0,9.00576,2.88619,7.97043,10.35456h-11.611c.65942,1.75719,2.29047,2.63516,4.45605,2.63516a6.17509,6.17509,0,0,0,3.92277-1.25389l2.1968,2.29047a8.337,8.337,0,0,1-6.65285,2.91741C355.26489,115.771,351.186,112.69619,351.186,107.331Zm12.01809-1.6323a3.5086,3.5086,0,0,0-3.64052-2.79252,3.7495,3.7495,0,0,0-3.79663,2.79252Z"/>
              <path class="cls-8" d="M377.77367,110.43694v-7.43715h-2.41536V99.14072h2.41536v-4.1738h4.86443v4.1738h3.41946v3.85907H382.6381v6.65285c0,.81553.47083,1.69475,1.94452,1.69475a5.37152,5.37152,0,0,0,1.53864-.251v3.70171a4.89116,4.89116,0,0,1-3.13847.848C379.97047,115.64607,377.77367,114.17113,377.77367,110.43694Z"/>
              <path class="cls-8" d="M388.3855,99.14072h4.86318v4.42482c.53328-2.63641,2.10313-4.73829,5.05177-4.73829a3.84609,3.84609,0,0,1,1.16147.15611v4.6134a6.62054,6.62054,0,0,0-1.129-.09491c-3.23213,0-5.08424,2.16558-5.08424,5.24035v6.71529H388.3855Z"/>
              <path class="cls-8" d="M400.37735,107.29848c0-5.67871,4.07888-8.47123,7.78185-8.47123,2.88619,0,4.58093,1.56861,4.832,2.16433h.09367V99.14072h4.86443v16.31677h-4.86443v-1.85086h-.09367c-.251.59572-1.94577,2.16433-4.832,2.16433C404.45623,115.771,400.37735,112.97844,400.37735,107.29848Zm8.786,4.14257a4.145,4.145,0,1,0-3.98522-4.14257A3.92746,3.92746,0,0,0,409.16331,111.44105Z"/>
              <path class="cls-8" d="M425.76982,93.17851v7.81307h.09491c.251-.59572,1.94453-2.16433,4.832-2.16433,3.703,0,7.78184,2.79252,7.78184,8.47123,0,5.68-4.07888,8.47248-7.78184,8.47248-2.88744,0-4.58094-1.56861-4.832-2.16433h-.09491v1.85086h-4.86319v-22.279Zm3.92277,18.26254a4.143,4.143,0,1,0-4.04766-4.14257A3.9317,3.9317,0,0,0,429.69259,111.44105Z"/>
              <path class="cls-8" d="M439.86856,107.29848c0-5.67871,4.07888-8.47123,7.78184-8.47123,2.88619,0,4.58093,1.56861,4.832,2.16433h.09367V99.14072h4.86443v16.31677H452.576v-1.85086h-.09367c-.251.59572-1.94577,2.16433-4.832,2.16433C443.94744,115.771,439.86856,112.97844,439.86856,107.29848Zm8.786,4.14257a4.145,4.145,0,1,0-3.98522-4.14257A3.92747,3.92747,0,0,0,448.65451,111.44105Z"/>
              <path class="cls-8" d="M456.09915,117.0261h1.00411c2.228,0,3.38824-.5645,3.38824-3.41947V99.14072h4.86444v14.968c0,5.17666-2.38539,7.40468-8.00165,7.40468h-1.25514Zm4.39235-23.84759h4.86444v4.23624H460.4915Z"/>
              <path class="cls-8" d="M467.524,107.29848c0-5.55382,4.39235-8.47123,8.65982-8.47123s8.66106,2.91741,8.66106,8.47123c0,5.55507-4.3936,8.47248-8.66106,8.47248S467.524,112.85355,467.524,107.29848Zm8.65982,4.08013a4.0858,4.0858,0,1,0-3.85908-4.08013A3.83722,3.83722,0,0,0,476.18383,111.37861Z"/>
              <path class="cls-8" d="M499.03854,115.26891l-6.779-16.12819h4.9581l4.14257,10.60559,4.14133-10.60559h4.9581l-6.84018,16.31677-2.51028,5.96221h-4.76951Z"/>
              <path class="cls-8" d="M517.71821,111.12758l3.86033-1.03533a2.37429,2.37429,0,0,0,2.35291,1.88208c.878,0,1.69474-.43961,1.69474-1.3488,0-.53328-.31472-1.03533-1.38127-1.38128l-2.1968-.81552c-2.69761-.97289-3.85907-2.73008-3.85907-4.76952,0-3.04355,2.73007-4.832,5.931-4.832,3.07477,0,5.3028,1.726,5.86729,4.36113l-3.79663.94166a1.90768,1.90768,0,0,0-1.88332-1.53738c-.94042,0-1.41125.56449-1.41125,1.129,0,.53328.31347,1.03533,1.41125,1.38128l2.03944.75308c1.75843.59572,4.08012,1.81963,4.08012,4.76952,0,3.29457-2.79252,5.14543-6.433,5.14543C520.69932,115.771,518.22027,114.23357,517.71821,111.12758Z"/>
              <path class="cls-8" d="M531.8132,107.29848c0-5.55382,4.39236-8.47123,8.65982-8.47123s8.66106,2.91741,8.66106,8.47123c0,5.55507-4.3936,8.47248-8.66106,8.47248S531.8132,112.85355,531.8132,107.29848Zm8.65982,4.08013a4.0858,4.0858,0,1,0-3.85908-4.08013A3.83722,3.83722,0,0,0,540.473,111.37861Z"/>
              <path class="cls-8" d="M551.30715,93.17851h4.86319v22.279h-4.86319Z"/>
              <path class="cls-8" d="M574.90746,115.45749H570.043v-2.07066a5.50706,5.50706,0,0,1-4.832,2.38413c-3.29457,0-6.08709-2.03944-6.08709-7.02876V99.14072h4.86318v8.75473c0,2.03944,1.03533,3.5456,3.04355,3.5456,1.977,0,3.01232-1.50616,3.01232-3.5456V99.14072h4.86444Z"/>
              <path class="cls-8" d="M577.08053,107.26726c0-5.5226,4.32991-8.44,8.691-8.44a7.88193,7.88193,0,0,1,7.02876,4.01643l-3.51438,2.29047a4.31,4.31,0,0,0-3.51438-1.91455,4.0841,4.0841,0,0,0,0,8.159,4.31,4.31,0,0,0,3.51438-1.91455l3.51438,2.29046a8.00806,8.00806,0,0,1-7.02876,4.01644C581.41044,115.771,577.08053,112.85355,577.08053,107.26726Z"/>
              <path class="cls-8" d="M594.9734,93.17851h4.86318v4.23624H594.9734Zm0,5.96221h4.86318v16.31677H594.9734Z"/>
              <path class="cls-8" d="M602.00466,107.29848c0-5.55382,4.39235-8.47123,8.65981-8.47123s8.66107,2.91741,8.66107,8.47123c0,5.55507-4.3936,8.47248-8.66107,8.47248S602.00466,112.85355,602.00466,107.29848Zm8.65981,4.08013a4.0858,4.0858,0,1,0-3.85907-4.08013A3.83723,3.83723,0,0,0,610.66447,111.37861Z"/>
              <path class="cls-8" d="M621.49861,99.14072h4.86318v2.07066a5.50862,5.50862,0,0,1,4.832-2.38413c3.29583,0,6.08835,2.03944,6.08835,7.02876v9.60148h-4.86443v-8.75473c0-2.03944-1.03533-3.54561-3.04355-3.54561-1.977,0-3.01233,1.50617-3.01233,3.54561v8.75473h-4.86318Z"/>
              <path class="cls-8" d="M639.45517,107.331a8.13448,8.13448,0,0,1,8.31512-8.5037c4.14133,0,9.00576,2.88619,7.97043,10.35456h-11.611c.65942,1.75719,2.29047,2.63516,4.45605,2.63516a6.17511,6.17511,0,0,0,3.92277-1.25389l2.1968,2.29047a8.337,8.337,0,0,1-6.65285,2.91741C643.53405,115.771,639.45517,112.69619,639.45517,107.331Zm12.01808-1.6323a3.50858,3.50858,0,0,0-3.64051-2.79252,3.74952,3.74952,0,0,0-3.79664,2.79252Z"/>
              <path class="cls-8" d="M656.6574,111.12758l3.86033-1.03533a2.37429,2.37429,0,0,0,2.35291,1.88208c.878,0,1.69474-.43961,1.69474-1.3488,0-.53328-.31472-1.03533-1.38127-1.38128l-2.1968-.81552c-2.69761-.97289-3.85907-2.73008-3.85907-4.76952,0-3.04355,2.73007-4.832,5.931-4.832,3.07477,0,5.3028,1.726,5.86729,4.36113l-3.79663.94166a1.90768,1.90768,0,0,0-1.88332-1.53738c-.94042,0-1.41125.56449-1.41125,1.129,0,.53328.31347,1.03533,1.41125,1.38128l2.03944.75308c1.75843.59572,4.08012,1.81963,4.08012,4.76952,0,3.29457-2.79252,5.14543-6.433,5.14543C659.63851,115.771,657.15946,114.23357,656.6574,111.12758Z"/>
            </g>
            <g>
              <rect class="cls-8" x="494.50541" y="18.9776" width="13.57485" height="55.66141"/>
              <path class="cls-8" d="M688.31084,50.41308,682.7407,48.375c-2.35391-.62716-2.90491-1.72463-2.90491-2.66524,0-.86231.70772-2.27336,2.82662-2.27336,1.17576,0,3.1378.4703,4,3.606l10.594-2.587c-1.33262-6.81981-7.14018-11.36655-15.14506-11.36655-7.04312,0-13.26991,3.33275-14.9322,9.1963C663.24752,35.78233,656.12541,33.088,649.782,33.088a20.70762,20.70762,0,0,0-18.04856,9.92841V33.87263h-8.63191V23.44668H609.5266v10.426H603.327v6.684c-2.65833-5.19082-7.54023-7.46772-13.02714-7.46772-5.41343,0-9.25894,2.27337-11.613,5.56577V33.87277H565.112V47.03632c-2.86936-9.98315-11.74785-13.94828-19.4613-13.94828-8.70667,0-17.24294,5.04355-20.01,14.49927V33.87164H512.0658v40.765h13.57489V60.95949c2.76187,9.27558,11.31083,14.46359,20.71774,14.46359,7.68891,0,13.41817-3.13555,16.71269-7.29252L557.10685,61.781a15.50278,15.50278,0,0,1-9.25908,2.66524c-4.70783,0-8.23764-1.6462-9.8861-4.93861H565.112V74.63778h13.57489V53.00214c0-4.233,1.9619-7.91728,6.51314-7.91728,4.6294,0,6.66987,3.68427,6.66987,7.91728V74.63778h13.57489V50.65049a26.3877,26.3877,0,0,0-.66525-6.11691h4.747V60.99772c0,10.19079,5.886,14.11248,14.0452,14.11248,3.06162,0,6.7483-.551,8.31832-2.27548V65.69779c3.86512,6.27828,10.94323,9.72529,18.59955,9.72529,7.6889,0,13.41831-3.13555,16.71269-7.29252L661.23808,61.781a15.502,15.502,0,0,1-9.25893,2.66524c-4.708,0-8.23764-1.6462-9.8861-4.93861h27.69851a35.67741,35.67741,0,0,0,.36973-5.6528,16.36,16.36,0,0,0,6.22312,3.694l5.96442,2.19493c2.1165.627,2.58906,1.7245,2.58906,2.58681,0,1.72463-1.57,2.58695-3.45364,2.58695-3.61036,0-4.5511-2.74367-5.09984-4.15472l-10.6721,2.90039c1.25631,7.99586,7.61034,11.75857,16.0071,11.75857,9.49634,0,16.55822-4.86018,16.55822-13.09119C698.27763,54.72678,692.23493,51.66741,688.31084,50.41308Zm-150.81947-.469a8.51838,8.51838,0,0,1,8.31621-5.56563c3.4535,0,6.98331,1.7245,7.92632,5.56563Zm90.5531,13.24862c-3.84339,0-4.943-2.35166-4.943-4.233V44.53358h7.84126a22.58417,22.58417,0,0,0-2.111,9.80034,22.3237,22.3237,0,0,0,1.63986,8.59438A13.06469,13.06469,0,0,1,628.04447,63.19266ZM641.62275,49.944a8.51833,8.51833,0,0,1,8.31607-5.56563c3.45364,0,6.98345,1.7245,7.92631,5.56563Z"/>
              <path class="cls-8" d="M511.55383,24.449a7.61167,7.61167,0,0,1,15.22333,0,7.61167,7.61167,0,0,1-15.22333,0"/>
              <path class="cls-8" d="M476.84864,33.87263v3.84113h-.23515c-.31358-.70559-4.15909-4.625-11.29926-4.625a19.01506,19.01506,0,0,0-15.98594,8.835,19.86421,19.86421,0,0,0-16.81552-8.836c-10.98568,0-21.89322,7.29252-21.89322,21.08916,0,.15743.01975.3023.02257.458a16.39982,16.39982,0,0,0-7.08643-4.22186L397.98555,48.375c-2.354-.62716-2.9049-1.72463-2.9049-2.66524,0-.86231.70771-2.27336,2.82661-2.27336,1.17576,0,3.1378.4703,4,3.606l10.594-2.587c-1.33276-6.81981-7.14017-11.36655-15.14506-11.36655-7.23271,0-13.6158,3.507-15.06649,9.66788V33.87263h-13.575v3.84113h-.23515c-.31358-.70559-4.15909-4.625-11.29927-4.625a19.07636,19.07636,0,0,0-18.38964,14.27343l.026-13.4887H325.24176l-.07843,21.63564c0,4.23527-1.962,7.91968-6.51315,7.91968-4.62954,0-6.66987-3.68441-6.66987-7.91968l.07843-21.63564H299.77331v-.00084H286.19842v3.84113h-.47031c-.31344-.70559-4.00237-4.625-10.90739-4.625-9.02237,0-19.08353,6.75521-19.42843,20.45706L242.33115,18.97753H227.50207L206.471,74.63891h14.9882l2.74593-7.91954h21.5012l2.74593,7.91954h14.90976l-1.68189-4.45152a19.34274,19.34274,0,0,0,13.14056,5.23413c6.905,0,10.594-3.91942,10.90739-4.625h.47031v1.33262c0,3.91957-3.53193,7.6061-11.14255,7.6061-3.21849,0-7.29689-.62942-9.25893-1.88361V88.59326c2.74578,1.80306,7.6889,2.3518,11.84814,2.3518,8.86777,0,21.64678-3.36111,22.0869-19.17565a36.819,36.819,0,0,1-.78967-8.3416,26.05826,26.05826,0,0,0,.831,2.84509v-.01312c2.40469,6.39917,7.725,9.16259,13.777,9.16259,5.41342,0,9.25893-2.27322,11.613-5.56563v4.78175h13.57489l.02609-13.59746a19.08061,19.08061,0,0,0,18.41588,14.38049c7.14018,0,10.98569-3.91942,11.29927-4.625h.23515v3.84114h13.575v-6.8524c2.51219,5.14117,7.9029,7.63657,14.67462,7.63657,8.4718,0,14.99059-3.87612,16.30191-10.55474,3.89206,6.95552,11.54232,10.55587,19.2466,10.55587a20.15291,20.15291,0,0,0,16.80805-8.848,19.01574,19.01574,0,0,0,15.99341,8.8466c7.14017,0,10.98568-3.91942,11.29926-4.625h.23515v3.84114h13.575v-40.765ZM228.59954,54.09848l6.27786-18.18637,6.35643,18.18637Zm49.04554,9.32933a8.75356,8.75356,0,0,1-8.94549-9.17162,8.75356,8.75356,0,0,1,8.94549-9.17162c4.86469,0,8.86692,3.37084,8.86692,9.17162S282.50977,63.42781,277.64508,63.42781Zm82.43776,0a8.73642,8.73642,0,0,1-8.86706-9.17162,8.73642,8.73642,0,0,1,8.86706-9.17162c4.86469,0,8.94535,3.37084,8.94535,9.17162S364.94753,63.42781,360.08284,63.42781Zm36.64627,1.48976c-3.60825,0-4.55125-2.74367-5.09985-4.15472l-9.33962,2.53828V48.163c.86782,4.06373,3.78218,7.4491,9.33962,9.38589l5.96442,2.19493c2.1165.627,2.58906,1.7245,2.58906,2.58681C400.18274,64.05525,398.61272,64.91757,396.72911,64.91757Zm51.1681-1.019L440.3584,58.9588c-1.805,2.27323-4.31582,4.31144-7.84563,4.31144-4.70783,0-8.55348-3.606-8.55348-9.09333,0-5.33047,3.84565-8.93646,8.55348-8.93646,3.52981,0,6.04059,2.03821,7.84563,4.31144l7.539-4.93988a23.9826,23.9826,0,0,0-1.88728,9.64418A23.97777,23.97777,0,0,0,447.89721,63.89853Zm20.31981-.47072a8.73646,8.73646,0,0,1-8.86721-9.17162,8.73646,8.73646,0,0,1,8.86721-9.17162c4.86454,0,8.94521,3.37084,8.94521,9.17162S473.08156,63.42781,468.217,63.42781Z"/>
            </g>
            <g>
              <path class="cls-2" d="M313.70245,141.74861c-.33587-.04825-2.7314-.04825-3.69091-.04825-.47905,0-.86175-.23952-.86175-.76681,0-.62364,4.79218-7.9558,5.75042-9.29815.5273-.76682,2.01269-.91,3.97868-.91,1.14952,0,3.64139.14318,4.9836.14318a2.52823,2.52823,0,0,0,1.10269-2.30045c0-1.77316-1.10269-3.83408-2.54-3.83408-2.06092,0-11.26273.14458-13.56318.57539-.95824.14318-1.15093.431-1.15093.81506-.14318,3.45-4.40821,13.61-13.08272,29.28237a3.76988,3.76988,0,0,0-.67188,2.15727c0,1.34094,3.355,5.12819,5.17644,5.12819a3.63026,3.63026,0,0,0,1.63-.19283,36.49114,36.49114,0,0,1,11.3578-2.20411c.5754,0,.81492-.479.81492-1.19762a4.00529,4.00529,0,0,0-3.83408-4.31454c-2.25221,0-4.12186.43221-5.99136.43221-.81365,0-1.19776-.14459-1.19776-.57539,0-1.05459,2.58822-5.60739,3.25869-6.27786a49.608,49.608,0,0,1,8.38815-1.63,1.9199,1.9199,0,0,0,1.72506-2.109C315.28433,143.32908,314.51751,141.84368,313.70245,141.74861Z"/>
              <path class="cls-2" d="M332.529,143.5686c-.14318,0-.23952.09635-.3827.28777-.86316,1.199-5.56041,6.9977-6.94946,8.57957a30.40786,30.40786,0,0,1-5.03184,5.1282.64525.64525,0,0,1-.336.14318c-.28762,0-.4308-.336-.4308-.76682a3.39112,3.39112,0,0,1,.19128-1.00634c2.97092-7.23737,10.01686-18.5001,14.6646-25.54463a2.16193,2.16193,0,0,0,.33587-1.15093c0-1.62871-2.34855-3.40187-3.78584-3.40187a2.27221,2.27221,0,0,0-2.30045,1.34094c-1.72506,4.506-13.41874,23.485-13.41874,28.996,0,2.20411,1.82,5.75184,3.88092,5.75184a2.18748,2.18748,0,0,0,1.39046-.57554,49.00585,49.00585,0,0,0,6.03819-7.09278c2.68456-3.6909,5.56055-7.71627,6.85325-9.77719C333.24768,144.48,332.96132,143.5686,332.529,143.5686Z"/>
              <path class="cls-2" d="M352.12512,146.01364c0-1.77316-1.96459-3.01917-3.73774-3.16361a2.55264,2.55264,0,0,0,.57412-1.53364c0-1.86964-2.39553-3.49821-4.12058-3.49821-3.739,0-11.35908,14.33-11.35908,20.94358,0,1.14966,1.15093,2.20411,2.92409,2.20411a6.54522,6.54522,0,0,0,4.16869-1.77316c-1.19777,2.82774-2.54,5.84691-3.97727,8.8191-.86316,1.8214-1.77315,2.49187-2.54,2.49187-1.19777,0-2.06093-1.63-2.06093-3.45138a4.69362,4.69362,0,0,1,.33587-1.82.1036.1036,0,0,0-.09634-.09635,4.41776,4.41776,0,0,0-4.12186,4.45773c0,2.15586,1.63,4.265,5.84691,4.265,2.92395,0,5.75169-3.11551,7.189-6.326,3.93043-8.57958,6.99784-14.61777,10.44781-19.89055A2.83468,2.83468,0,0,0,352.12512,146.01364ZM345.51139,147.02c-.81492,1.96458-2.06093,5.22327-3.59456,9.01052-1.63,1.389-2.7795,1.77316-3.54632,1.77316-.67047,0-1.00634-.28777-1.00634-.47919,0-3.16361,5.99-11.88637,7.95594-11.88637.19128,0,.33446.14332.33446.57554A4.93377,4.93377,0,0,1,345.51139,147.02Z"/>
              <path class="cls-2" d="M363.95788,138.9677c1.29284,0,3.01917-2.87458,3.01917-4.12186a4.05451,4.05451,0,0,0-3.78726-3.40172c-1.86823,0-3.83281,2.7795-3.83281,4.45631C359.357,137.38723,362.3279,138.9677,363.95788,138.9677Z"/>
              <path class="cls-2" d="M379.24076,146.01364c0-1.77316-1.96458-3.01917-3.73774-3.16361a2.55264,2.55264,0,0,0,.57412-1.53364c0-1.86964-2.39552-3.49821-4.12044-3.49821-2.5033,0-6.73687,6.422-9.268,12.6522-.69163.8372-1.28988,1.55013-1.65495,1.96556a30.39642,30.39642,0,0,1-5.03185,5.1282.64443.64443,0,0,1-.33587.14318c-.28762,0-.43094-.336-.43094-.76682,0-.95824,3.16234-6.99784,6.66182-12.26921a2.17064,2.17064,0,0,0,.3346-1.14952c0-1.63-2.15586-3.21186-3.59456-3.21186a2.27368,2.27368,0,0,0-2.30045,1.34235c-1.72505,4.50456-5.175,11.21449-5.175,14.2819,0,2.2041,1.72505,5.94311,3.73774,5.94311a1.8928,1.8928,0,0,0,1.2941-.52729,39.32776,39.32776,0,0,0,4.73266-5.34882,13.82846,13.82846,0,0,0-.32839,2.7606c0,1.14966,1.15078,2.20411,2.92408,2.20411a6.54517,6.54517,0,0,0,4.16855-1.77316c-1.19762,2.82774-2.54,5.84691-3.97726,8.8191-.86317,1.8214-1.77316,2.49187-2.54,2.49187-1.19776,0-2.06093-1.63-2.06093-3.45138a4.6962,4.6962,0,0,1,.33587-1.82.10349.10349,0,0,0-.09634-.09635,4.41786,4.41786,0,0,0-4.12185,4.45773c0,2.15586,1.63012,4.265,5.8469,4.265,2.92409,0,5.75184-3.11551,7.18913-6.326,3.93043-8.57958,6.99769-14.61777,10.44767-19.89055A2.83474,2.83474,0,0,0,379.24076,146.01364ZM372.62717,147.02c-.81506,1.96458-2.06092,5.22327-3.59456,9.01052-1.63,1.389-2.77964,1.77316-3.54646,1.77316-.67047,0-1.00634-.28777-1.00634-.47919,0-3.16361,5.99009-11.88637,7.95594-11.88637.19142,0,.3346.14332.3346.57554A4.93377,4.93377,0,0,1,372.62717,147.02Z"/>
              <path class="cls-2" d="M451.53865,143.5686c-.14332,0-.23967.09635-.38284.28777-.86317,1.199-5.559,6.9977-6.94946,8.57957-3.21059,3.6895-6.99784,7.18912-10.30463,7.18912-1.05318,0-1.53364-.62363-1.53364-1.67822a13.98745,13.98745,0,0,1,.14459-1.96458c4.12186-2.15727,13.75461-8.53133,13.75461-10.83178,0-2.44363-1.8214-2.6833-2.77964-3.3068-1.43729-.95823-1.72506-3.49821-3.355-3.49821-4.04074,0-9.01348,6.392-11.06552,12.615-.50882.61193-.95937,1.14754-1.2477,1.47551a24.61849,24.61849,0,0,1-5.36772,5.03185,3.21517,3.21517,0,0,1-1.38919.5754c-.384,0-.52715-.28777-.52715-.76682a3.94058,3.94058,0,0,1,.23952-1.34221c1.72492-4.265,4.74408-8.96242,7.8596-13.51508l4.45772-.52729c.3827-.04811.67047-.19143.67047-.71858,0-.9114-1.48553-1.67822-2.54012-2.445,1.29411-1.86823,2.58822-3.68963,3.73774-5.46279a2.16125,2.16125,0,0,0,.336-1.15093c0-1.62857-2.34869-3.40314-3.786-3.40314a2.27343,2.27343,0,0,0-2.30045,1.34235c-.62364,1.58174-2.25235,4.649-4.2182,8.19546-2.15586-.04824-4.265-.336-5.12819-.336-.38271,0-.67047.19284-.67047.72,0,1.53363.38284,3.11551,3.355,4.12185-.996,1.88135-1.96557,3.77992-2.8324,5.59314-1.36647,1.68288-2.74141,3.34784-3.39185,4.08785-1.10142,1.29411-3.45,4.265-4.55266,4.265-.28777,0-.52729-.23967-.52729-.81507a6.89853,6.89853,0,0,1,.52729-2.2041,37.15262,37.15262,0,0,1,4.31314-7.28547,2.59518,2.59518,0,0,0,.57539-1.62871c0-1.72632-2.01268-3.019-3.78584-3.16361-2.01268.81506-8.72276,9.44147-9.7291,9.44147-.04824,0-.09634-.04825-.09634-.14318,0-.81506,4.649-6.80642,5.895-7.861a2.14052,2.14052,0,0,0,.95951-1.67682c0-1.48539-2.10917-2.87584-3.30821-2.87584-2.22639,0-5.78752,5.93183-8.31028,11.46036-.86937,1.05755-1.64663,1.98941-2.08392,2.48693-1.91634,2.20411-3.73774,4.40821-4.21679,4.84043a1.956,1.956,0,0,1-1.15093.67047c-.28636,0-.52729-.23952-.52729-.81506a6.90239,6.90239,0,0,1,.52729-2.2041,37.09807,37.09807,0,0,1,4.31454-7.28547,2.60011,2.60011,0,0,0,.57413-1.62857c0-1.72506-2.01283-3.01917-3.786-3.16361a2.16785,2.16785,0,0,0,.71871-1.48554c0-1.43728-1.72506-2.73139-2.77964-3.16361a1.98258,1.98258,0,0,0-.81492-.19142c-3.73774,0-12.02955,14.13872-12.02955,20.7523,0,1.96458,2.4449,3.45011,4.2663,3.45011,1.43729,0,3.786-2.68329,5.65549-4.50455.14318,3.16361,1.58047,4.31313,3.019,4.31313,1.42233,0,3.58468-2.59584,5.79485-5.54969a9.1743,9.1743,0,0,0-.43236,2.19465c0,2.15728,2.82761,4.02692,3.929,4.02692.5273,0,.91141-.28777,1.15094-.95965a26.0079,26.0079,0,0,1,4.0255-7.189c1.24587-1.53363,3.019-2.92282,3.64267-2.92282,0,0-.91127,1.24587-.91127,4.31328,0,3.59442.9581,4.93677,2.34855,4.93677,2.19579,0,5.46449-3.30129,7.567-6.04284a9.279,9.279,0,0,0-.43278,2.4c0,2.156,2.58822,4.5528,4.6009,4.5528a1.96844,1.96844,0,0,0,1.24587-.431,44.51438,44.51438,0,0,0,5.65027-5.96554c-.01891.28071-.047.5658-.047.83735,0,3.6428,4.5528,6.3742,6.3742,6.3742,3.019,0,7.61993-3.83423,10.92672-8.33879,2.73281-3.739,5.56056-7.71627,6.85466-9.77719C452.25863,144.48,451.97087,143.5686,451.53865,143.5686Zm-62.91,4.506c-.62222,1.72491-4.69724,8.76958-6.85325,10.544a1.39095,1.39095,0,0,1-.76681.2865c-.28763,0-.479-.19142-.479-.62237,0-2.54,5.79866-11.69368,7.38054-11.69368a.91.91,0,0,1,.81492.95824A1.11955,1.11955,0,0,1,388.62862,148.07457Zm52.79809-3.73915a1.6982,1.6982,0,0,1,.47919.09634c-.91014,1.8214-2.7314,4.79233-8.57831,8.771C434.86123,149.03266,438.07181,145.15048,441.42671,144.33542Z"/>
              <path class="cls-2" d="M495.47207,143.5686c-.14318,0-.23952.09635-.3827.28777-.86316,1.199-5.55914,6.9977-6.9496,8.57957-3.21044,3.6895-6.9977,7.18912-10.30449,7.18912-1.05458,0-1.53363-.62363-1.53363-1.67822a13.96493,13.96493,0,0,1,.14459-1.96458c4.12171-2.15727,13.75446-8.53133,13.75446-10.83178,0-2.44363-1.82126-2.6833-2.7795-3.3068-1.4387-.95823-1.72506-3.49821-3.355-3.49821-4.001,0-8.918,6.267-11.0067,12.43143-.57878.69812-1.08223,1.29708-1.40019,1.659-1.91774,2.20411-3.73774,4.40821-4.2182,4.84043a1.94919,1.94919,0,0,1-1.14952.67047c-.28776,0-.52729-.23952-.52729-.81506,0-3.019,8.72276-19.8409,13.89905-26.74225a2.17259,2.17259,0,0,0,.3346-1.15093c0-1.62871-2.34869-3.40187-3.786-3.40187a2.27232,2.27232,0,0,0-2.30045,1.34094c-1.82126,4.45773-3.69091,8.771-5.84677,13.32366-.76681-1.14952-2.15727-2.49187-3.54645-2.49187a2.42264,2.42264,0,0,0-1.19763.38411c-2.92409,2.34729-10.83192,12.8432-10.83192,20.36819,0,1.96458,2.44363,3.45011,4.265,3.45011,1.4387,0,3.786-2.68329,5.65549-4.50455.14317,3.16361,1.58187,4.31313,3.01916,4.31313,1.60783,0,4.16107-3.30975,6.65957-6.7136-.02257.30766-.05134.61814-.05134.91494,0,3.6428,4.5528,6.3742,6.37406,6.3742,3.01916,0,7.62006-3.83423,10.92686-8.33879,2.73281-3.739,5.56041-7.71627,6.85452-9.77719C496.19206,144.48,495.90443,143.5686,495.47207,143.5686Zm-30.37828,3.06727-1.10269,2.25362c-1.7733,3.16234-5.12819,8.38688-6.75817,9.72909a1.39173,1.39173,0,0,1-.767.2865c-.28763,0-.47905-.19142-.47905-.62237,0-2.54,6.80642-13.08413,8.38689-13.08413a.95844.95844,0,0,1,.81492,1.00634A1.4183,1.4183,0,0,1,465.09379,146.63587Zm20.26648-2.30045a1.6963,1.6963,0,0,1,.479.09634c-.91,1.8214-2.73125,4.79233-8.57816,8.771C478.79479,149.03266,482.00524,145.15048,485.36027,144.33542Z"/>
              <path class="cls-2" d="M536.58466,128.23226c0-1.38919-2.63646-4.6009-5.94325-4.6009a1.29632,1.29632,0,0,0-1.19776.76681c-.5754.91127-10.59226,16.24775-13.65953,19.89041l4.265-14.33a3.11148,3.11148,0,0,0,.28777-1.24728c0-2.39539-3.30694-3.97726-5.55914-3.97726-1.05459,0-2.54.38411-2.87585,1.67822-.52729,2.05951-9.48957,19.02583-16.53424,33.21279,0,1.389,3.01916,3.21045,4.17009,3.21045.38271,0,.76682-.14318,1.10128-.91A181.79688,181.79688,0,0,1,512.2859,140.4064l-3.739,12.50859c0,1.29411,2.34855,4.696,3.97853,4.696a1.03636,1.03636,0,0,0,.91013-.526c.91127-1.39046,7.23723-12.74953,11.55036-19.60264-3.45,9.48943-7.66817,20.65595-7.71627,21.42277,0,1.34221,3.02044,3.739,4.31313,3.739a1.278,1.278,0,0,0,1.24728-1.29411c2.635-9.82544,4.9355-15.57586,12.8432-30.91235C536.48832,128.80765,536.58466,128.904,536.58466,128.23226Z"/>
              <path class="cls-2" d="M543.28387,137.14771c5.03326,0,7.33371-2.445,7.33371-4.45773,0-1.43729-1.15093-2.63632-3.21185-2.63632-1.86951,0-1.58188,4.649-5.27138,6.13454-.47905.19128-.67174.384-.67174.52729C541.46261,137.00312,542.22943,137.14771,543.28387,137.14771Z"/>
              <path class="cls-2" d="M573.46693,138.9677c1.2941,0,3.02043-2.87458,3.02043-4.12186a4.05424,4.05424,0,0,0-3.786-3.40172c-1.86951,0-3.83536,2.7795-3.83536,4.45631C568.866,137.38723,571.83821,138.9677,573.46693,138.9677Z"/>
              <path class="cls-2" d="M610.07341,143.5686c-.14318,0-.23953.09635-.3827.28777-.5754.81492-2.63633,3.019-4.075,4.69725a6.20488,6.20488,0,0,1-4.50456,2.49187h-.09635c1.966-3.30679,3.355-6.326,3.355-7.18912a4.10548,4.10548,0,0,0-4.16869-3.59456c-1.24586-.76682-1.96585-2.25235-3.06726-2.25235-2.85638,0-7.909,7.56957-9.96312,14.259-.04232.04881-.1058.1247-.14332.16744-3.21186,3.6895-6.9977,7.18912-10.30464,7.18912-.91,0-1.62857-.336-1.62857-1.24727,0-2.06093,3.49822-9.44147,5.1282-9.44147.23952,0,.3827.14459.3827.43236,0,.23952-.52729,1.10127-.52729,1.48539,0,.91,1.8214,2.54,2.82774,2.54a.62061.62061,0,0,0,.62364-.4308c.71858-2.63647,3.83409-7.09419,4.74408-8.14736a1.18824,1.18824,0,0,0,.33587-.76809c0-.81379-1.199-1.34094-1.199-2.587,0-2.34855-1.96458-3.739-4.31313-3.739a2.3889,2.3889,0,0,0-1.53364.52729c-3.02749,2.29552-7.11266,7.40735-9.331,12.18007-.70559.85441-1.3178,1.58484-1.68823,2.00675a30.39682,30.39682,0,0,1-5.03185,5.1282.64446.64446,0,0,1-.33587.14318c-.28777,0-.43095-.336-.43095-.76682,0-.95824,3.16234-6.99784,6.66183-12.26921a2.17072,2.17072,0,0,0,.3346-1.14952c0-1.63-2.15586-3.21186-3.59456-3.21186a2.27271,2.27271,0,0,0-2.30045,1.34235c-.85809,2.24078-2.14246,5.02677-3.21722,7.63911-1.09056,1.334-2.09619,2.54379-2.62419,3.14457a30.40249,30.40249,0,0,1-5.03185,5.1282c-1.246,0-1.7733-3.06727-1.96458-6.61373a44.57794,44.57794,0,0,1,7.236-6.66183,1.78244,1.78244,0,0,0,1.15094-1.67808c0-1.72505-1.19777-4.45645-3.21186-4.45645a.73827.73827,0,0,0-.57413.3346c-1.34221,1.72632-2.97233,3.6909-4.74549,5.79993,0-1.39045.04824-2.54.04824-3.26a1.73666,1.73666,0,0,0-1.96458-1.77315c-1.67822,0-3.88232,1.34221-3.88232,3.30679a41.21689,41.21689,0,0,0,.43179,4.82872c-1.59373,1.97643-3.38974,4.16248-4.16544,5.045-3.21045,3.6895-6.9977,7.18912-10.30463,7.18912-1.05445,0-1.53364-.62363-1.53364-1.67822a13.986,13.986,0,0,1,.14459-1.96458c4.12185-2.15727,13.7546-8.53133,13.7546-10.83178,0-2.44363-1.8214-2.6833-2.77964-3.3068-1.43855-.95823-1.72491-3.49821-3.35489-3.49821-5.22454,0-12.02969,10.68719-12.02969,17.87632,0,3.6428,4.5528,6.3742,6.3742,6.3742,3.019,0,7.61993-3.83423,10.92686-8.33879,1.13076-1.547,2.27168-3.1282,3.31949-4.60414.04161.24023.08125.47862.12639.722-3.49807,4.69583-6.469,9.824-6.75676,14.7127a1.65014,1.65014,0,0,0,1.48539,1.58188.61736.61736,0,0,0,.62364-.5273c.57412-3.16361,2.97092-7.09277,5.84691-10.78368,1.10141,3.54646,2.68315,6.42231,4.84042,6.42231a1.64864,1.64864,0,0,0,1.14952-.431,45.93655,45.93655,0,0,0,5.63814-6.54884,6.68644,6.68644,0,0,0-.13119,1.133c0,2.2041,1.72506,5.94311,3.73774,5.94311a1.89282,1.89282,0,0,0,1.29411-.52729,41.03617,41.03617,0,0,0,4.97331-5.66607c-.01467.19608-.04049.39794-.04049.58612,0,3.97726,4.02551,6.75676,6.23088,6.75676,3.31117,0,6.55208-2.82957,9.42765-6.30353-.014.23233-.04119.47369-.04119.69629,0,2.87584,1.19776,4.84043,4.265,4.84043,2.3968,0,5.84818-4.02537,8.72275-8.33865a3.74644,3.74644,0,0,0,1.05459.09635,8.666,8.666,0,0,0,6.80628-4.02678c1.38918-1.96458,2.82774-4.12185,3.68963-5.51089C610.79212,144.48,610.50436,143.5686,610.07341,143.5686Zm-69.52093.76682a1.69625,1.69625,0,0,1,.47919.09634c-.91,1.8214-2.7314,4.79233-8.57831,8.771C533.987,149.03266,537.19758,145.15048,540.55248,144.33542Zm55.81457,7.42864c-1.8214,3.64281-4.985,7.861-6.27913,7.861-.28762,0-.47905-.19283-.47905-.62363,0-5.511,5.0801-12.55684,7.14088-12.55684h.14459a7.73155,7.73155,0,0,0-.91141,3.49807A4.41522,4.41522,0,0,0,596.367,151.76406Z"/>
            </g>
          </g>
        </g>
        <path class="cls-1" d="M1329.78482,10.24743V162.18408H738.53627V10.24743h591.24855m9.707-9.70692H728.82939V171.891h610.66238V.54051Z"/>
      </g>
    </g>
  </g>
</svg>
