<svg xmlns="http://www.w3.org/2000/svg" width="713.58636" height="475.42089" viewBox="0 0 713.58636 475.42089">
  <defs>
    <style>
      .cls-1, .cls-10, .cls-3, .cls-6, .cls-7, .cls-9 {
        fill: none;
        stroke-linecap: round;
        stroke-miterlimit: 10;
        stroke-width: 5.25599px;
      }

      .cls-1 {
        stroke: #98a3a7;
      }

      .cls-2 {
        fill: #00626f;
      }

      .cls-3 {
        stroke: #de3a00;
      }

      .cls-4 {
        fill: #de3a00;
      }

      .cls-5 {
        fill: #98a3a7;
      }

      .cls-6, .cls-7 {
        stroke: #00626f;
      }

      .cls-7 {
        opacity: 0.5;
      }

      .cls-8 {
        fill: #f26628;
      }

      .cls-9 {
        stroke: #572f1a;
      }

      .cls-10 {
        stroke: #ffb300;
      }
    </style>
  </defs>
  <g id="Capa_2" data-name="Capa 2">
    <g id="Capa_9" data-name="Capa 9">
      <g>
        <polyline class="cls-1" points="241.343 186.599 281.339 229.045 281.339 363.566"/>
        <polyline class="cls-1" points="305.985 388.696 305.985 133.795 355.441 84.338"/>
        <path class="cls-2" d="M185.80451,354.76169,225.86929,316.966c60.46726,25.392,88.07658,62.08537,91.79208,106.99671l-129.241,3.379c-17.79945-24.86492-34.13375-49.1093-39.92192-68.89067a2.11807,2.11807,0,0,0-2.841-1.366h0a2.12979,2.12979,0,0,0-1.23973,2.54344c5.02992,18.15336,17.89824,40.83149,34.14763,65.46061l-62.79019,2.25252,0-83.0633a136.23454,136.23454,0,0,1,56.62952-25.681Z"/>
        <path class="cls-3" d="M186.94215,356.17451c-13.50483-16.22826-16.64319-37.4075-14.20928-61.24763.575-5.63174,1.46088-11.412,2.59456-17.31049L163.07356,265.171a.65583.65583,0,0,1,.5292-1.11263c11.63137.97971,25.944.81695,41.43037-5.096"/>
        <path class="cls-3" d="M196.4452,284.79653c-7.21061,6.30789-15.04792,9.96726-23.7124,10.13022"/>
        <path class="cls-4" d="M246.8464,266.65626l-6.34623-9.27817A45.98809,45.98809,0,0,0,230.34349,246.708l-15.38-11.672a12.43015,12.43015,0,0,0-17.60069,2.63793c-.63165.87707-1.22353,1.69447-1.74018,2.40055a45.64914,45.64914,0,0,0-4.105-2.78711c-2.53352-1.51289-5.80857-2.80636-8.2999-1.22546-1.796,1.14013-2.97237,4.47933-2.68124,6.58667a13.37552,13.37552,0,0,0,2.64868,5.73622c2.92538,4.1242,7.5943,10.11258,12.88365,11.13144,2.83282.54568,4.64358-.12511,7.27478,1.417,2.70241,1.58379,4.92251,4.52392,6.90618,6.79454,1.81909,2.08231,5.30362,3.363,7.23965,1.38907a4.0854,4.0854,0,0,0,.93673-3.52624l10.54037-4.65737Z"/>
        <path class="cls-5" d="M229.99134,263.655a16.07306,16.07306,0,1,1-16.073,16.07312,16.09132,16.09132,0,0,1,16.073-16.07312m0-5.25586a21.329,21.329,0,1,0,21.329,21.329,21.329,21.329,0,0,0-21.329-21.329Z"/>
        <path class="cls-5" d="M367.49935,53.32178a16.073,16.073,0,1,1-16.073,16.073,16.0913,16.0913,0,0,1,16.073-16.073m0-5.25586a21.329,21.329,0,1,0,21.329,21.32886,21.329,21.329,0,0,0-21.329-21.32886Z"/>
        <circle class="cls-5" cx="236.96021" cy="180.2711" r="21.32898"/>
        <line class="cls-1" x1="229.99134" y1="245.72851" x2="229.99134" y2="260.93333"/>
        <path class="cls-6" d="M118.46775,426.07452v27.10077a14.32951,14.32951,0,0,0,18.07418,13.83157l37.30725-10.10035"/>
        <path class="cls-7" d="M315.02167,422.06214v31.11315a14.32951,14.32951,0,0,1-18.07418,13.83157"/>
        <path class="cls-1" d="M258.3755,457.90331a61.66936,61.66936,0,0,0-3.44922-32.11675"/>
        <path class="cls-1" d="M248.57974,457.90331a61.66936,61.66936,0,0,0-3.44922-32.11675"/>
        <path class="cls-1" d="M232.66528,426.36971a61.71855,61.71855,0,0,1,8.6688,27.64383,4.06353,4.06353,0,0,1-3.05078,4.23217l-.2091.05233a4.061,4.061,0,0,1-5.02335-3.90884q-.01138-.51555-.04223-1.02691c-.8246-13.69-12.63617-24.12994-26.34824-23.85383l-10.7869.2172a25.56073,25.56073,0,0,0-17.748,7.52838c-7.2812,7.41464-9.58864,17.10669-7.02154,29.03088"/>
        <path class="cls-1" d="M192.16773,439.66031a32.13421,32.13421,0,0,0-12.35441,26.25719"/>
        <path class="cls-1" d="M192.96214,466.94415a26.40493,26.40493,0,0,1,4.03637-20.0843,2.717,2.717,0,0,1,4.76422.50462,30.42588,30.42588,0,0,0,23.66873,18.93391"/>
        <g>
          <rect class="cls-2" x="29.94817" y="344.29511" width="9.03722" height="98.33921"/>
          <rect class="cls-2" x="98.44076" y="344.29511" width="9.03722" height="98.33921"/>
          <path class="cls-8" d="M0,226.21674V363.65865H137.44163V226.21674Zm68.72082,117.376a48.63287,48.63287,0,1,1,48.60941-48.65521A48.67137,48.67137,0,0,1,68.72082,343.59277Z"/>
          <g>
            <rect class="cls-8" x="19.12729" y="203.86151" width="30.67897" height="30.67898"/>
            <rect class="cls-8" x="87.61989" y="203.86151" width="30.67897" height="30.67898"/>
          </g>
          <rect class="cls-8" x="19.12729" y="350.35957" width="30.67897" height="30.67898"/>
          <rect class="cls-8" x="87.61989" y="350.35957" width="30.67897" height="30.67898"/>
        </g>
        <path class="cls-1" d="M57.35192,176.90513a20.91389,20.91389,0,0,1,22.56261-.93059"/>
        <path class="cls-1" d="M38.24467,161.05327c17.39312-12.61474,42.40424-13.64633,60.77711-2.50676"/>
        <path class="cls-1" d="M21.68336,141.439c27.356-18.51556,65.83951-18.85217,93.51517-.818"/>
        <g>
          <path class="cls-5" d="M456.49768,297.96691l31.37318,30.96573,14.36017-32.099c-7.81148-6.32618-21.63186-11.33-36.74506-16.04962-19.86361,10.79716-42.47792,19.60248-67.577,26.60843L351.44987,422.69568v23.65193H454.92709l-16.47188-8.02476.84471-16.04953-43.6648-14.28288a1.97636,1.97636,0,0,1-1.34984-2.09667h0a1.9763,1.9763,0,0,1,2.40643-1.708c18.778,9.42671,43.0698,15.61558,75.12958,17.243l.4224,15.20467,48.14858.84472,0-60.81927c8.464-14.214,14.3853-27.53682,10.98114-37.58973l-27.45307-33.36608-15.20482,31.25435-35.40378-35.80158a2.25387,2.25387,0,0,1,.59464-3.60073h0A2.25387,2.25387,0,0,1,456.49768,297.96691Z"/>
          <path class="cls-5" d="M535.84894,273.34975l-4.76739,55.58658c37.96386-21.96068,69.94278-53.76059,72.9372-102.63606l-46.4592-45.19236C569.38556,220.95029,564.57713,250.65765,535.84894,273.34975Z"/>
          <path class="cls-2" d="M492.23322,436.98881A59.3613,59.3613,0,0,1,475.892,472.787h-41.721c-.76118-8.07546.41623-17.04277,2.59269-26.43849h5.13783v7.59985l15.69891.14257c7.219-4.92362,11.92875-10.81065,14.64041-17.459Z"/>
          <path class="cls-2" d="M570.07347,472.787H511.77359c-.13081-9.31225,1.332-22.87056,2.42609-35.4177h26.46216C546.2755,451.0345,556.13479,462.8087,570.07347,472.787Z"/>
          <path class="cls-5" d="M631.08516,472.787H570.07347c-13.93868-9.97833-23.798-21.75253-29.41163-35.4177l45.8837,8.40836A68.82259,68.82259,0,0,1,631.08516,472.787Z"/>
          <path class="cls-3" d="M468.02013,219.54244l40.26359-1.47825-13.02159,14.57124c10.93314,16.22065,13.44682,38.16954,12.96628,62.15562"/>
          <path class="cls-3" d="M478.36785,242.98315a37.17525,37.17525,0,0,0,24.79992,6.306"/>
          <polygon class="cls-4" points="505.61 295.989 531.082 328.936 535.849 273.35 505.61 289.654 505.61 295.989"/>
          <path class="cls-4" d="M399.88,291.3431c10.36842-50.37072,27.512-76.181,50.96436-79.12145h8.87651a11.7541,11.7541,0,0,1,11.45306,14.39718c-9.87438,29.61849-14.57586,51.0521-15.26125,66.13194C441.2452,296.42232,421.30124,294.64541,399.88,291.3431Z"/>
          <circle class="cls-2" cx="460.41772" cy="272.12576" r="11.40361"/>
          <path class="cls-2" d="M455.26232,30.87891a19.97363,19.97363,0,1,1-19.97366,19.97363,19.99631,19.99631,0,0,1,19.97366-19.97363m0-13.1399a33.11353,33.11353,0,1,0,33.11359,33.11353A33.11355,33.11355,0,0,0,455.26232,17.739Z"/>
          <path class="cls-2" d="M455.26232,13.13989a37.71265,37.71265,0,1,1-37.71264,37.71265,37.75544,37.75544,0,0,1,37.71264-37.71265m0-13.13989a50.85254,50.85254,0,1,0,50.85254,50.85254A50.85267,50.85267,0,0,0,455.26232,0Z"/>
          <path class="cls-2" d="M649.91664,247.40089v28.45463l32.666,32.66609a53.23348,53.23348,0,1,1,26.26678-26.41787l-34.70269-34.70285Z"/>
          <polygon class="cls-2" points="492.228 85.771 540.252 133.795 551.365 122.682 501.344 72.661 492.228 85.771"/>
          <polygon class="cls-2" points="474.991 97.736 527.481 150.226 539.398 138.309 488.616 87.527 474.991 97.736"/>
          <polygon class="cls-2" points="641.89 211.799 583.323 153.233 571.779 164.777 628.656 221.654 625.137 225.174 569.104 169.141 557.56 181.108 613.803 237.352 641.89 211.799"/>
          <line class="cls-9" x1="533.48526" y1="153.23255" x2="557.55955" y2="129.15826"/>
          <line class="cls-9" x1="542.99604" y1="162.74333" x2="567.07033" y2="138.66903"/>
          <path class="cls-9" d="M551.39816,173.16849l22.216-22.216a2.628,2.628,0,0,1,3.71654,0l5.89565,5.89565"/>
        </g>
        <line class="cls-10" x1="107.47798" y1="472.7929" x2="637.80813" y2="472.7929"/>
      </g>
    </g>
  </g>
</svg>
