<svg id="Capa_1" data-name="Capa 1" xmlns="http://www.w3.org/2000/svg" viewBox="0 0 355.22 33.42"><defs><style>.cls-1{fill:#ff9300;}</style></defs><path class="cls-1" d="M30.18,1.47V32.08H19.86V20.8H10.32V32.08H0V1.47H10.32V12.31h9.54V1.47ZM61.72,24.3v7.78H36.26V1.47H61.15V9.25H46.41v3.59H59.35v7.43H46.41v4Zm3.85-7.53c0-9.4,7.21-16,17.05-16,6,0,10.72,2.18,13.74,6.12l-6.52,5.82a8.26,8.26,0,0,0-6.69-3.59c-4.29,0-7.18,3-7.18,7.65s2.89,7.66,7.18,7.66a8.26,8.26,0,0,0,6.69-3.59l6.52,5.82c-3,3.93-7.74,6.12-13.74,6.12C72.78,32.78,65.57,26.18,65.57,16.77Zm65-15.3V32.08H120.28V20.8h-9.53V32.08H100.43V1.47h10.32V12.31h9.53V1.47Zm4.86,15.3c0-9.27,7.31-16,17.28-16S170,7.5,170,16.77s-7.3,16-17.27,16S135.46,26.05,135.46,16.77Zm24.14,0c0-4.76-3.06-7.65-6.86-7.65s-6.87,2.89-6.87,7.65,3.06,7.66,6.87,7.66S159.6,21.54,159.6,16.77Zm28.26,0c0-9.4,7.22-16,17.06-16,6,0,10.71,2.18,13.73,6.12l-6.52,5.82a8.25,8.25,0,0,0-6.69-3.59c-4.28,0-7.17,3-7.17,7.65s2.89,7.66,7.17,7.66a8.25,8.25,0,0,0,6.69-3.59l6.52,5.82c-3,3.93-7.74,6.12-13.73,6.12C195.08,32.78,187.86,26.18,187.86,16.77Zm33,0c0-9.27,7.3-16,17.28-16s17.27,6.73,17.27,16-7.3,16-17.27,16S220.84,26.05,220.84,16.77Zm24.14,0c0-4.76-3.06-7.65-6.86-7.65s-6.87,2.89-6.87,7.65,3.06,7.66,6.87,7.66S245,21.54,245,16.77Zm45.45-15.3V32.08h-8.49L270.31,18.17V32.08H260.25V1.47h8.48l11.64,13.9V1.47Zm64.76,7.9a10.09,10.09,0,0,0-20-.87A10.09,10.09,0,1,0,317.82,17l0,0,15.79,15.78a2.26,2.26,0,0,0,3.21,0l15.07-15.07A10.07,10.07,0,0,0,355.19,9.37Z"/></svg>