<svg id="Capa_1" data-name="Capa 1" xmlns="http://www.w3.org/2000/svg" viewBox="0 0 284.89 107.96"><defs><style>.cls-1{fill:#fff;}</style></defs><path class="cls-1" d="M16.31.87c14,0,20.4,6.9,20.4,24s-6.39,24-20.4,24H2.23c-.8,0-1.16-.36-1.16-1.16V2c0-.8.36-1.16,1.16-1.16H16.31Zm.58,39c6.68,0,9.37-3.27,9.37-15s-2.69-15-9.37-15H11.16V39.85Z"/><path class="cls-1" d="M74,39.85c.8,0,1.16.36,1.16,1.16v6.61c0,.8-.36,1.16-1.16,1.16H46.15c-.8,0-1.17-.36-1.17-1.16V2c0-.8.37-1.16,1.17-1.16H73.29c.8,0,1.17.36,1.17,1.16V8.64c0,.8-.37,1.16-1.17,1.16H55.07V20.4H71.41c.8,0,1.16.36,1.16,1.16V28c0,.8-.36,1.16-1.16,1.16H55.07V39.85Z"/><path class="cls-1" d="M128.9,24c0,18.94-6.25,25.62-20.4,25.62h-.15a45.47,45.47,0,0,1-8.49-.8,1.19,1.19,0,0,1-1-1.23V41.45a1,1,0,0,1,1.31-1,46.35,46.35,0,0,0,7.48.73h.14c7.41,0,10.24-2.11,11.11-10.89a21.77,21.77,0,0,1-8.42,1.67h-.15q-14.81,0-14.8-15.46v-.22C95.51,5.59,101.09,0,111.84,0,123.67,0,128.9,7,128.9,24Zm-16.7,0a19.72,19.72,0,0,0,6.9-1.31c-.15-11.76-2-14.3-7.33-14.3-4.65,0-6.54,2.32-6.54,7.77v.22c0,5.73,1.89,7.62,6.83,7.62Z"/><path class="cls-1" d="M135.65,15.17a1.1,1.1,0,0,1,1.23-1.23h6.9A1.11,1.11,0,0,1,145,15.17v6.9a1.18,1.18,0,0,1-1.23,1.23h-6.9a1.1,1.1,0,0,1-1.23-1.23Zm0,25.48a1.1,1.1,0,0,1,1.23-1.23h6.9A1.11,1.11,0,0,1,145,40.65v6.9a1.18,1.18,0,0,1-1.23,1.23h-6.9a1.11,1.11,0,0,1-1.23-1.23Z"/><path class="cls-1" d="M152,24.83C152,6.1,156.84,0,168.67,0c12,0,16.55,6,16.55,24.83s-4.57,24.82-16.55,24.82C156.84,49.65,152,43.55,152,24.83Zm23.52,0c0-13.36-1.67-16.19-6.83-16.19s-6.89,2.9-6.89,16.19S163.59,41,168.67,41,175.5,38.18,175.5,24.83Z"/><path class="cls-1" d="M192.92,24.83C192.92,6.1,197.78,0,209.61,0s16.55,6,16.55,24.83-4.57,24.82-16.55,24.82S192.92,43.55,192.92,24.83Zm23.52,0c0-13.36-1.67-16.19-6.83-16.19s-6.89,2.9-6.89,16.19S204.53,41,209.61,41,216.44,38.18,216.44,24.83Z"/><path class="cls-1" d="M284.81,47.47a1,1,0,0,1,.08.51c0,.51-.37.8-1,.8h-8a1.25,1.25,0,0,1-1.31-.94l-2.76-8.72H256.07l-2.76,8.72a1.25,1.25,0,0,1-1.3.94H244c-.87,0-1.24-.44-.95-1.31L258.54,1.82a1.25,1.25,0,0,1,1.3-.95h8.21a1.24,1.24,0,0,1,1.3,1ZM269,30.41l-.51-1.74c-1.23-4-2.1-7.4-2.9-10-.36-1.67-.94-3.71-1.67-6.1L262.75,17c-1.45,5.22-2.54,9.14-3.34,11.68l-.58,1.74Z"/><path class="cls-1" d="M23.49,99.35a.91.91,0,0,1,1.05,1.05v5.72c0,.73-.33,1.06-1.05,1.06H1.05c-.72,0-1-.33-1-1.06V100.4a.91.91,0,0,1,1.05-1.05h7.5V72.7L1.84,75.4l-.52.13c-.46,0-.73-.33-.73-.92V68.88a1.2,1.2,0,0,1,.79-1.25L9.87,64a2.59,2.59,0,0,1,1.25-.26h5a.91.91,0,0,1,1.05,1V99.35Z"/><path class="cls-1" d="M43.42,81.25q12.84,0,12.83,13v.2c0,9.21-5,13.48-16,13.48a47.28,47.28,0,0,1-9.94-1,1.07,1.07,0,0,1-.92-1.12v-5.46c0-.72.4-1,1.12-1a62.44,62.44,0,0,0,8.68.85c5.79,0,8.23-1.64,8.23-5.92v-.2c0-4.14-1.65-5.52-7.77-5.52h-.13A49.6,49.6,0,0,0,33,89h-.39a2.57,2.57,0,0,1-1.32-.33l-.46-.27c-.46-.26-.33-1-.33-1.38l.6-22.3c0-.66.39-1,1.11-1H53c.73,0,1.06.33,1.06,1v5.73c0,.72-.33,1-1.06,1H38.82l-.2,10.13a25.32,25.32,0,0,1,4.67-.46Z"/><path class="cls-1" d="M61.19,76.71a1,1,0,0,1,1.12-1.12h6.25a1,1,0,0,1,1.12,1.12V83a1.07,1.07,0,0,1-1.12,1.12H62.31A1,1,0,0,1,61.19,83Zm0,23.1a1,1,0,0,1,1.12-1.12h6.25a1,1,0,0,1,1.12,1.12v6.25a1.08,1.08,0,0,1-1.12,1.12H62.31a1,1,0,0,1-1.12-1.12Z"/><path class="cls-1" d="M76,85.46C76,68.49,80.4,63,91.12,63s15,5.46,15,22.5S102,108,91.12,108,76,102.44,76,85.46Zm21.32,0c0-12.1-1.51-14.67-6.19-14.67s-6.25,2.63-6.25,14.67,1.65,14.68,6.25,14.68S97.31,97.57,97.31,85.46Z"/><path class="cls-1" d="M113.1,85.46c0-17,4.41-22.5,15.13-22.5s15,5.46,15,22.5-4.14,22.5-15,22.5S113.1,102.44,113.1,85.46Zm21.32,0c0-12.1-1.52-14.67-6.19-14.67S122,73.42,122,85.46s1.65,14.68,6.25,14.68S134.42,97.57,134.42,85.46Z"/><path class="cls-1" d="M196.53,63.75a.91.91,0,0,1,1.05,1v41.32c0,.73-.33,1.06-1.05,1.06h-7c-.73,0-1.06-.33-1.06-1.06v-16h-15v16c0,.73-.33,1.06-1.05,1.06h-7c-.72,0-1.05-.33-1.05-1.06V64.8a.91.91,0,0,1,1.05-1h7a.91.91,0,0,1,1.05,1V82h15V64.8c0-.72.33-1,1.06-1Z"/><path class="cls-1" d="M237.32,105.92a5,5,0,0,1,.13.53c0,.46-.33.73-1,.73h-7.23a1.16,1.16,0,0,1-1.19-.79l-6-14.15h-6.39v13.88c0,.73-.33,1.06-1,1.06h-7c-.72,0-1.05-.33-1.05-1.06V64.8a.91.91,0,0,1,1.05-1h14.61c10.46,0,14.67,4,14.67,14.21,0,7-2,11.06-6.45,13ZM215.67,84.48h5.4c5,0,6.45-1.32,6.45-6.52s-1.39-6.25-6.45-6.25h-5.4Z"/><path class="cls-1" d="M268.51,70.66c0,.72-.4,1-1.19.92a57.61,57.61,0,0,0-8.68-.79c-6.32,0-7.7,1-7.7,4.61,0,3,1.05,4.27,7.24,6.12l3,.92c8,2.43,10.66,5.85,10.66,12.69,0,9-4.54,12.83-16.18,12.83a56.32,56.32,0,0,1-12.18-1.38,1.12,1.12,0,0,1-.92-1.25V99.74c0-.85.4-1.18,1.19-1A72.66,72.66,0,0,0,255.41,100c5.59,0,7.44-1.25,7.44-4.93,0-3-1.12-4-8-6l-2.24-.66C245.08,86,242.06,82,242.06,75.27c0-8.49,4.47-12.31,15.52-12.31a48.52,48.52,0,0,1,10,1.05,1.08,1.08,0,0,1,.93,1.12Z"/><path class="cls-1" d="M276.4,99.81a1,1,0,0,1,1.12-1.12h6.25a1,1,0,0,1,1.12,1.12v6.25a1.08,1.08,0,0,1-1.12,1.12h-6.25a1,1,0,0,1-1.12-1.12Z"/></svg>