<svg id="Capa_1" data-name="Capa 1" xmlns="http://www.w3.org/2000/svg" viewBox="0 0 212.68 153.58"><defs><style>.cls-1{fill:#9ac4c8;}</style></defs><path class="cls-1" d="M34.93,61.76q5.19,5.79,5.19,18.07T34.93,97.89q-5.19,5.79-14.79,5.79T5.36,97.86Q.17,92,.17,79.83.17,56,20.14,56,29.74,56,34.93,61.76Zm-22,6.95q-2.37,3.36-2.36,11.12A35.28,35.28,0,0,0,11,85.68l15.31-18.2a8.42,8.42,0,0,0-6.14-2.12Q15.28,65.36,12.91,68.71ZM27.34,90.94q2.4-3.34,2.4-11.11a31,31,0,0,0-.63-6.78L13.51,91.68a8.39,8.39,0,0,0,6.63,2.62A8.27,8.27,0,0,0,27.34,90.94Z"/><path class="cls-1" d="M76.92,61.58q5.55,5.61,5.54,16.91,0,12.27-6,18.73t-18.91,6.46a39.05,39.05,0,0,1-6.28-.56A46.33,46.33,0,0,1,45,101.64V92A40,40,0,0,0,57.55,94.3q7.62,0,11-3.75T72.09,79h-.35a7.52,7.52,0,0,1-3.5,5.26q-3.13,2.22-8.93,2.22a20.6,20.6,0,0,1-9.17-1.87,13,13,0,0,1-7.62-12q0-7.49,4.87-12t14-4.55Q71.39,56,76.92,61.58Zm-9.35,15a8.65,8.65,0,0,0,3.81-4.05,9.33,9.33,0,0,0-3.53-5.44,11.09,11.09,0,0,0-6.42-1.69q-4.3,0-6.42,1.73a5.59,5.59,0,0,0-2.12,4.55q0,6.42,7.91,6.42A13.54,13.54,0,0,0,67.57,76.54Z"/><path class="cls-1" d="M99.08,102.06A5.55,5.55,0,0,1,97,97.4a5.45,5.45,0,0,1,2.08-4.62,9.3,9.3,0,0,1,5.76-1.59,9.42,9.42,0,0,1,5.78,1.59,5.43,5.43,0,0,1,2.12,4.62,5.53,5.53,0,0,1-2.12,4.66,9.29,9.29,0,0,1-5.78,1.62A9.17,9.17,0,0,1,99.08,102.06Zm.07-22.45A5.56,5.56,0,0,1,97.07,75a5.49,5.49,0,0,1,2.08-4.63,9.36,9.36,0,0,1,5.76-1.58,9.49,9.49,0,0,1,5.78,1.58A5.43,5.43,0,0,1,112.81,75a5.51,5.51,0,0,1-2.12,4.65,9.23,9.23,0,0,1-5.78,1.63A9.11,9.11,0,0,1,99.15,79.61Z"/><path class="cls-1" d="M162,61.76q5.19,5.79,5.18,18.07T162,97.89q-5.19,5.79-14.79,5.79T132.4,97.86q-5.19-5.82-5.19-18,0-23.86,20-23.86Q156.78,56,162,61.76Zm-22,6.95q-2.37,3.36-2.37,11.12a34.13,34.13,0,0,0,.43,5.85l15.31-18.2a8.42,8.42,0,0,0-6.14-2.12C143.94,65.36,141.52,66.48,140,68.71Zm14.43,22.23q2.4-3.34,2.4-11.11a31,31,0,0,0-.63-6.78l-15.6,18.63a8.39,8.39,0,0,0,6.63,2.62A8.27,8.27,0,0,0,154.38,90.94Z"/><path class="cls-1" d="M204.31,61.76q5.19,5.79,5.19,18.07t-5.19,18.06q-5.17,5.79-14.78,5.79t-14.79-5.82q-5.19-5.82-5.19-18,0-23.86,20-23.86Q199.13,56,204.31,61.76Zm-22,6.95q-2.35,3.36-2.36,11.12a35.28,35.28,0,0,0,.42,5.85l15.32-18.2a8.44,8.44,0,0,0-6.14-2.12Q184.66,65.36,182.29,68.71Zm14.44,22.23q2.4-3.34,2.4-11.11a30.89,30.89,0,0,0-.64-6.78l-15.6,18.63a8.42,8.42,0,0,0,6.64,2.62A8.27,8.27,0,0,0,196.73,90.94Z"/><path class="cls-1" d="M115.65,148v5.24H96.32V148h8.11V133.93l-6.74,4.29v-5.63l8.51-5.32h4V148Z"/><path class="cls-1" d="M136.12,138a7.55,7.55,0,0,1,3.49,2.72,6.89,6.89,0,0,1,1.12,3.88,8.64,8.64,0,0,1-1.24,4.62,8.24,8.24,0,0,1-3.8,3.19,15.14,15.14,0,0,1-6.3,1.17,22.8,22.8,0,0,1-5.83-.69,20.61,20.61,0,0,1-4.25-1.56v-5.71a19.41,19.41,0,0,0,4.53,1.93,18.22,18.22,0,0,0,5.28.79,8.1,8.1,0,0,0,4.48-.93,3.12,3.12,0,0,0,1.34-2.77,2.68,2.68,0,0,0-1.34-2.29,7.13,7.13,0,0,0-4-.9,15.23,15.23,0,0,0-7.25,1.89l-3.19-2.72,1.34-13.35h19v5.24H125.34l-.52,5.35a17.82,17.82,0,0,1,5.44-.86A15,15,0,0,1,136.12,138Z"/><path class="cls-1" d="M150,152.67a3.09,3.09,0,0,1-1.17-2.6,3,3,0,0,1,1.17-2.58,5.16,5.16,0,0,1,3.2-.88,5.25,5.25,0,0,1,3.23.88,3,3,0,0,1,1.18,2.58,3.07,3.07,0,0,1-1.18,2.6,5.19,5.19,0,0,1-3.23.91A5.1,5.1,0,0,1,150,152.67Zm0-12.52a3.12,3.12,0,0,1-1.16-2.6A3.06,3.06,0,0,1,150,135a5.21,5.21,0,0,1,3.21-.89,5.27,5.27,0,0,1,3.23.89,3,3,0,0,1,1.18,2.58,3.08,3.08,0,0,1-1.18,2.6,5.21,5.21,0,0,1-3.23.9A5.14,5.14,0,0,1,150,140.15Z"/><path class="cls-1" d="M185.09,130.19q2.9,3.23,2.89,10.08t-2.89,10.08q-2.9,3.22-8.25,3.23c-3.57,0-6.32-1.09-8.25-3.25s-2.89-5.52-2.89-10.06q0-13.32,11.14-13.31C180.41,127,183.16,128,185.09,130.19Zm-12.29,3.87q-1.32,1.88-1.32,6.21a19.15,19.15,0,0,0,.24,3.26l8.54-10.15a4.7,4.7,0,0,0-3.42-1.19A4.63,4.63,0,0,0,172.8,134.06Zm8.06,12.41q1.33-1.87,1.33-6.2a16.88,16.88,0,0,0-.35-3.78l-8.7,10.39a5.33,5.33,0,0,0,7.72-.41Z"/><path class="cls-1" d="M208.71,130.19q2.89,3.23,2.9,10.08t-2.9,10.08q-2.9,3.22-8.25,3.23c-3.57,0-6.32-1.09-8.25-3.25s-2.89-5.52-2.89-10.06q0-13.32,11.14-13.31C204,127,206.78,128,208.71,130.19Zm-12.28,3.87q-1.32,1.88-1.32,6.21a20.34,20.34,0,0,0,.23,3.26l8.55-10.15a4.74,4.74,0,0,0-3.43-1.19A4.61,4.61,0,0,0,196.43,134.06Zm8,12.41q1.34-1.87,1.34-6.2a16.81,16.81,0,0,0-.36-3.78l-8.7,10.39a4.71,4.71,0,0,0,3.7,1.46A4.63,4.63,0,0,0,204.48,146.47Z"/><path class="cls-1" d="M1.27,9.68a13.81,13.81,0,0,1,6.8-1.82A7.65,7.65,0,0,1,13,9.33,5.67,5.67,0,0,1,14.83,14V24.71H11l-.45-1.65h-.13a5,5,0,0,1-1.91,1.46,6.7,6.7,0,0,1-2.86.57,6.82,6.82,0,0,1-2.46-.41,5,5,0,0,1-1.73-1.1A4.58,4.58,0,0,1,.36,22a5.6,5.6,0,0,1-.36-2,4.57,4.57,0,0,1,.64-2.47,4.91,4.91,0,0,1,1.71-1.68,7.9,7.9,0,0,1,2.54-1A14.71,14.71,0,0,1,8,14.52H9.71v-.9a1.7,1.7,0,0,0-.65-1.42,3,3,0,0,0-1.85-.5,7,7,0,0,0-2,.31A11.39,11.39,0,0,0,3,13Zm8.48,7.93-1.14,0A7,7,0,0,0,7,17.85a3.26,3.26,0,0,0-1,.43,1.44,1.44,0,0,0-.57.61,1.63,1.63,0,0,0-.17.74,1.58,1.58,0,0,0,.63,1.46,2.75,2.75,0,0,0,1.46.39A2.41,2.41,0,0,0,8.8,21a2.84,2.84,0,0,0,.95-1.06Z"/><path class="cls-1" d="M36.21,25.09a7.87,7.87,0,0,1-1.68-.19,5.76,5.76,0,0,1-1.34-.46V32.6h-5V8.24h3.78L32.4,10a7,7,0,0,1,2.32-1.56,7.22,7.22,0,0,1,2.9-.57,7,7,0,0,1,2.88.58,6,6,0,0,1,2.2,1.67,7.86,7.86,0,0,1,1.38,2.62,10.93,10.93,0,0,1,.5,3.43,10.47,10.47,0,0,1-.65,3.8,8,8,0,0,1-1.78,2.79,7.77,7.77,0,0,1-2.66,1.74A8.89,8.89,0,0,1,36.21,25.09Zm0-13.46a3.41,3.41,0,0,0-1.81.49,4.28,4.28,0,0,0-1.17,1v7.55a3.47,3.47,0,0,0,2.37.75,3.75,3.75,0,0,0,1.37-.27,3.34,3.34,0,0,0,1.22-.88A4.82,4.82,0,0,0,39,18.67a7.05,7.05,0,0,0,.35-2.37A6.25,6.25,0,0,0,38.54,13,2.63,2.63,0,0,0,36.17,11.63Z"/><path class="cls-1" d="M48,9.68a13.89,13.89,0,0,1,6.8-1.82,7.68,7.68,0,0,1,4.91,1.47A5.69,5.69,0,0,1,61.57,14V24.71H57.69l-.44-1.65h-.14a5,5,0,0,1-1.91,1.46,7.49,7.49,0,0,1-5.31.16,5.08,5.08,0,0,1-1.74-1.1,4.55,4.55,0,0,1-1-1.63,5.4,5.4,0,0,1-.37-2,4.66,4.66,0,0,1,.64-2.47,4.86,4.86,0,0,1,1.72-1.68,7.81,7.81,0,0,1,2.54-1,14.61,14.61,0,0,1,3.1-.31h1.72v-.9a1.7,1.7,0,0,0-.65-1.42A3,3,0,0,0,54,11.7a7,7,0,0,0-2,.31,11.18,11.18,0,0,0-2.2,1Zm8.48,7.93-1.13,0a6.92,6.92,0,0,0-1.61.21,3.22,3.22,0,0,0-1,.43,1.57,1.57,0,0,0-.57.61,1.78,1.78,0,0,0-.17.74,1.57,1.57,0,0,0,.64,1.46,2.72,2.72,0,0,0,1.46.39A2.45,2.45,0,0,0,55.55,21a2.81,2.81,0,0,0,.94-1.06Z"/><path class="cls-1" d="M65.28,24.71V8.24h4l.51,2.88a8.44,8.44,0,0,1,.76-1.22,5,5,0,0,1,1.06-1.05A6,6,0,0,1,73,8.13a5.62,5.62,0,0,1,1.8-.27,4.72,4.72,0,0,1,1.39.19,3.87,3.87,0,0,1,1,.43l-.82,3.94a5.08,5.08,0,0,0-1-.37A5,5,0,0,0,74,11.87a3.62,3.62,0,0,0-2.63,1,4.91,4.91,0,0,0-1.05,3.57v8.24Z"/><path class="cls-1" d="M90.09,11.87H85.87v7a2.06,2.06,0,0,0,.5,1.58,2,2,0,0,0,1.39.45,7.08,7.08,0,0,0,1.37-.14,3.08,3.08,0,0,0,1.06-.38L91,23.82a8.88,8.88,0,0,1-1.77.6,10.75,10.75,0,0,1-2.52.29c-2.13,0-3.63-.41-4.51-1.24a4.85,4.85,0,0,1-1.33-3.74V11.87H78.25V8.24h2.57v-5h5.05v5h4.22Z"/><path class="cls-1" d="M96.13,5a2.56,2.56,0,0,1-2-.74,2.49,2.49,0,0,1-.69-1.76A2.47,2.47,0,0,1,94.16.74a2.59,2.59,0,0,1,2-.74,2.64,2.64,0,0,1,2,.72,2.5,2.5,0,0,1,.7,1.79,2.48,2.48,0,0,1-.69,1.78A2.62,2.62,0,0,1,96.13,5Zm-2.54,19.7V8.24h5.08V24.71Z"/><path class="cls-1" d="M103,24.71V8.24h4l.52,2.88a7.57,7.57,0,0,1,.75-1.22,5,5,0,0,1,1.06-1.05,6,6,0,0,1,1.43-.72,5.67,5.67,0,0,1,1.8-.27,4.72,4.72,0,0,1,1.39.19,3.87,3.87,0,0,1,1,.43l-.82,3.94a5.08,5.08,0,0,0-1-.37,5,5,0,0,0-1.44-.18,3.62,3.62,0,0,0-2.63,1,4.91,4.91,0,0,0-1,3.57v8.24Z"/><path class="cls-1" d="M136.73.17h5.08V24.71h-3.5l-.51-1.78h-.18A4.78,4.78,0,0,1,136,24.38a6,6,0,0,1-3.11.71,7.35,7.35,0,0,1-3-.6,6.64,6.64,0,0,1-2.37-1.72,8.17,8.17,0,0,1-1.56-2.71,10.61,10.61,0,0,1-.57-3.59,11.36,11.36,0,0,1,.52-3.55,7.56,7.56,0,0,1,1.49-2.71,6.66,6.66,0,0,1,2.42-1.73,8.07,8.07,0,0,1,3.26-.62,6.91,6.91,0,0,1,2.15.33,3.92,3.92,0,0,1,1.52.8Zm0,12.53a2.94,2.94,0,0,0-1-.79,2.82,2.82,0,0,0-1.44-.38,4.22,4.22,0,0,0-1.48.26,3.09,3.09,0,0,0-1.21.84,4.06,4.06,0,0,0-.84,1.49,7,7,0,0,0-.31,2.25,5.82,5.82,0,0,0,1,3.79,3.22,3.22,0,0,0,2.62,1.22,2.68,2.68,0,0,0,1.67-.51,3,3,0,0,0,.94-1.1Z"/><path class="cls-1" d="M160.72,18H150.08v.14a2.69,2.69,0,0,0,1.34,2.5,6.49,6.49,0,0,0,3.37.79,10.15,10.15,0,0,0,2.47-.27,8.44,8.44,0,0,0,1.78-.66L160,24a12.16,12.16,0,0,1-2.35.78,15,15,0,0,1-3.49.35,12.2,12.2,0,0,1-3.51-.5,8.07,8.07,0,0,1-2.92-1.53,7.15,7.15,0,0,1-2-2.61,8.71,8.71,0,0,1-.74-3.77,10.36,10.36,0,0,1,.6-3.59,8.11,8.11,0,0,1,1.7-2.79,7.64,7.64,0,0,1,2.62-1.81,8.81,8.81,0,0,1,3.38-.63,7.28,7.28,0,0,1,5.43,2.06,8,8,0,0,1,2,5.87Zm-5.18-3.47a4.73,4.73,0,0,0-.14-1.13,2.9,2.9,0,0,0-.43-1,2.14,2.14,0,0,0-.75-.68,2.18,2.18,0,0,0-1.12-.26,2.62,2.62,0,0,0-2,.84,3.76,3.76,0,0,0-.92,2.28Z"/><path class="cls-1" d="M173.56,24.71V.17h5V24.71Z"/><path class="cls-1" d="M183,9.68a13.18,13.18,0,0,1,3.17-1.32,13.4,13.4,0,0,1,3.62-.5,7.68,7.68,0,0,1,4.91,1.47A5.69,5.69,0,0,1,196.55,14V24.71h-3.88l-.44-1.65h-.14a5,5,0,0,1-1.9,1.46,7.52,7.52,0,0,1-5.32.16,5.08,5.08,0,0,1-1.74-1.1,4.69,4.69,0,0,1-1-1.63,5.6,5.6,0,0,1-.36-2,4.65,4.65,0,0,1,.63-2.47,4.94,4.94,0,0,1,1.72-1.68,7.81,7.81,0,0,1,2.54-1,14.61,14.61,0,0,1,3.1-.31h1.72v-.9a1.7,1.7,0,0,0-.65-1.42,3,3,0,0,0-1.86-.5,7,7,0,0,0-2,.31,11.45,11.45,0,0,0-2.2,1Zm8.47,7.93-1.13,0a6.92,6.92,0,0,0-1.61.21,3.22,3.22,0,0,0-1,.43,1.57,1.57,0,0,0-.57.61,1.78,1.78,0,0,0-.17.74,1.57,1.57,0,0,0,.64,1.46,2.72,2.72,0,0,0,1.46.39,2.43,2.43,0,0,0,1.49-.48,2.73,2.73,0,0,0,.94-1.06Z"/><path class="cls-1" d="M210.76,12.46a10.62,10.62,0,0,0-2-.71,8.22,8.22,0,0,0-2-.25,2.9,2.9,0,0,0-1.44.31,1,1,0,0,0-.55.85,1.17,1.17,0,0,0,.54,1,6.75,6.75,0,0,0,2.11.84l1,.31a6.65,6.65,0,0,1,3.12,1.8,4.38,4.38,0,0,1,1.06,3,5,5,0,0,1-.51,2.25,5.14,5.14,0,0,1-1.46,1.73,6.76,6.76,0,0,1-2.27,1.1,10.67,10.67,0,0,1-2.93.38,13.87,13.87,0,0,1-3.11-.31,11.39,11.39,0,0,1-2.52-.89l1.1-3.68a11.79,11.79,0,0,0,2.08.85,7.82,7.82,0,0,0,2.21.32,3.26,3.26,0,0,0,1.84-.38,1.09,1.09,0,0,0,.53-.89,1.12,1.12,0,0,0-.12-.53,1.35,1.35,0,0,0-.43-.43,3.51,3.51,0,0,0-.88-.39c-.37-.13-.86-.28-1.46-.47L203.69,18a6,6,0,0,1-2.95-1.8,4.77,4.77,0,0,1-.93-3.1,4.73,4.73,0,0,1,1.74-3.73,6.13,6.13,0,0,1,2.06-1.1,9.13,9.13,0,0,1,2.79-.39,14.37,14.37,0,0,1,2.94.29,11.36,11.36,0,0,1,2.45.81Z"/><path class="cls-1" d="M1.27,135.22a13.81,13.81,0,0,1,6.8-1.82,7.59,7.59,0,0,1,4.9,1.48,5.63,5.63,0,0,1,1.86,4.7v10.67H11l-.45-1.65h-.13a5,5,0,0,1-1.91,1.46,6.7,6.7,0,0,1-2.86.57,6.82,6.82,0,0,1-2.46-.41,5,5,0,0,1-1.73-1.1,4.58,4.58,0,0,1-1-1.63,5.6,5.6,0,0,1-.36-2A4.57,4.57,0,0,1,.64,143a4.91,4.91,0,0,1,1.71-1.68,7.9,7.9,0,0,1,2.54-1A14.71,14.71,0,0,1,8,140.06H9.71v-.89a1.7,1.7,0,0,0-.65-1.43,3,3,0,0,0-1.85-.5,7,7,0,0,0-2,.31,11.39,11.39,0,0,0-2.19,1Zm8.48,7.93-1.14,0a7,7,0,0,0-1.61.21,3.26,3.26,0,0,0-1,.43,1.44,1.44,0,0,0-.57.61,1.63,1.63,0,0,0-.17.74,1.58,1.58,0,0,0,.63,1.46,2.76,2.76,0,0,0,1.46.4,2.42,2.42,0,0,0,1.49-.49,2.84,2.84,0,0,0,.95-1.06Z"/><path class="cls-1" d="M35.28,150.25V125.71h5v24.54Z"/><path class="cls-1" d="M43.86,135.22A13.43,13.43,0,0,1,47,133.9a13.29,13.29,0,0,1,3.62-.5,7.64,7.64,0,0,1,4.91,1.48,5.66,5.66,0,0,1,1.85,4.7v10.67H53.54l-.45-1.65H53a5,5,0,0,1-1.91,1.46,6.7,6.7,0,0,1-2.86.57,6.82,6.82,0,0,1-2.46-.41,5,5,0,0,1-1.73-1.1,4.58,4.58,0,0,1-1-1.63,5.6,5.6,0,0,1-.36-2,4.57,4.57,0,0,1,.64-2.47,4.91,4.91,0,0,1,1.71-1.68,7.9,7.9,0,0,1,2.54-1,14.71,14.71,0,0,1,3.11-.31h1.72v-.89a1.68,1.68,0,0,0-.66-1.43,3,3,0,0,0-1.85-.5,7,7,0,0,0-2,.31,11.39,11.39,0,0,0-2.19,1Zm8.48,7.93-1.13,0a7.09,7.09,0,0,0-1.62.21,3.26,3.26,0,0,0-1,.43,1.44,1.44,0,0,0-.57.61,1.78,1.78,0,0,0-.17.74,1.58,1.58,0,0,0,.63,1.46,2.76,2.76,0,0,0,1.46.4,2.47,2.47,0,0,0,1.5-.49,2.81,2.81,0,0,0,.94-1.06Z"/><path class="cls-1" d="M70.77,138a9.92,9.92,0,0,0-2-.7,7.78,7.78,0,0,0-2-.26,2.9,2.9,0,0,0-1.44.31.93.93,0,0,0-.55.85,1.19,1.19,0,0,0,.53,1,7,7,0,0,0,2.11.84l1,.31a6.72,6.72,0,0,1,3.13,1.8,4.38,4.38,0,0,1,1.06,3,4.9,4.9,0,0,1-.51,2.25,5.14,5.14,0,0,1-1.46,1.73,6.76,6.76,0,0,1-2.27,1.1,10.72,10.72,0,0,1-2.93.38,13.81,13.81,0,0,1-3.11-.31,11.39,11.39,0,0,1-2.52-.89l1.1-3.67a12.46,12.46,0,0,0,2.07.84,7.89,7.89,0,0,0,2.22.32,3.2,3.2,0,0,0,1.83-.38,1.07,1.07,0,0,0,.54-.89,1.25,1.25,0,0,0-.12-.53,1.46,1.46,0,0,0-.43-.43,3.51,3.51,0,0,0-.88-.39l-1.46-.47-1.06-.31a6,6,0,0,1-3-1.8,5.38,5.38,0,0,1-.48-5.18,4.73,4.73,0,0,1,1.28-1.65,6.22,6.22,0,0,1,2.06-1.1,9.2,9.2,0,0,1,2.8-.39,14.2,14.2,0,0,1,2.93.29,11.27,11.27,0,0,1,2.46.81Z"/></svg>