<svg id="Capa_1" data-name="Capa 1" xmlns="http://www.w3.org/2000/svg" viewBox="0 0 128.11 110.07"><defs><style>.cls-1{fill:#fff;}</style></defs><path class="cls-1" d="M81.19,89.21c3.31,0,6.46,0,9.61,0,1.3,0,3.44,2.11,3.52,3.41a23.45,23.45,0,0,1,0,4.19,8.17,8.17,0,0,1-1.08,2.22c1.82,1.61,1.13,3.91,1.11,6,0,1.56-2,3.46-3.71,3.52-2.87.1-5.75.05-8.62.08-.84,0-.84-.51-.84-1.11q0-7.44,0-14.86C81.2,91.6,81.19,90.49,81.19,89.21Zm2.61,8.52c1.83,0,3.53-.06,5.23,0,1.24,0,2.39-.22,2.71-1.43s.62-2.77-.48-4a1.32,1.32,0,0,0-.78-.48c-2.21,0-4.43,0-6.68,0Zm0,8.49c1.89,0,3.6-.07,5.31,0a2.75,2.75,0,0,0,2.67-1.42,4.93,4.93,0,0,0-.44-3.87,2.08,2.08,0,0,0-1.21-.62c-1.83-.07-3.67-.06-5.51,0-.28,0-.78.3-.79.47C83.76,102.56,83.78,104.35,83.78,106.22Z"/><path class="cls-1" d="M106.65,100.65l4.42,7.67c-1.61.73-2.43.51-3.14-.75-1.22-2.12-2.4-4.27-3.66-6.37a1.86,1.86,0,0,0-1.2-.72,23.69,23.69,0,0,0-2.39-.06c-1-.06-1.28.4-1.27,1.29,0,2,0,3.92,0,5.87,0,1.17-.69,1.09-1.49,1.11s-1-.44-1-1.19c0-5.75,0-11.51,0-17.26,0-.28,0-.55,0-.93.31,0,.62-.1.92-.1h8.27a4.58,4.58,0,0,1,4,3.87c0,1.19,0,2.39,0,3.59,0,1.63-1.22,2.39-2.27,3.26A9.47,9.47,0,0,1,106.65,100.65Zm-7.16-8.8c0,1.91,0,3.67,0,5.41,0,.27.59.72.92.74,1.63.08,3.27.08,4.91,0a2.25,2.25,0,0,0,2.3-2.19,6.74,6.74,0,0,0-.09-2.38c-.21-.62-.83-1.52-1.33-1.56C104.06,91.75,101.87,91.85,99.49,91.85Z"/><path class="cls-1" d="M3.07,89.21c3.3,0,6.45-.06,9.6,0,1.32.05,3.51,2.68,3.52,4,0,3.68,0,7.35,0,11,0,1.77-2.48,4.1-4.56,4.2-2.52.12-5,.09-7.55,0-.34,0-1-.54-1-.83C3.05,101.61,3.07,95.5,3.07,89.21Zm2.47,9.58h0q0,3.06,0,6.11c0,.55-.06,1.15.82,1.13,1.6,0,3.2,0,4.8,0a2.74,2.74,0,0,0,2.48-2.56c0-3.08,0-6.16,0-9.23a2.65,2.65,0,0,0-2.57-2.58c-1.51,0-3,0-4.54,0-.81,0-1,.32-1,1.07C5.56,94.72,5.54,96.76,5.54,98.79Z"/><path class="cls-1" d="M36.06,96.34c3.27.9,6.57,1.71,9.78,2.77,1.26.42,1.72,1.82,1.9,3.1A5.51,5.51,0,0,1,45,108.1a5.3,5.3,0,0,1-2.3.75c-1.63.12-3.28.05-4.92,0s-4.33-2.25-4.62-3.78a.82.82,0,0,1,.16-.63,2.35,2.35,0,0,1,2.56.31,2.85,2.85,0,0,0,3,1.49c1-.1,2.07,0,3.11,0A3.11,3.11,0,0,0,45,101.86a1.45,1.45,0,0,0-.82-.79c-1.83-.49-3.7-.86-5.52-1.36a31.22,31.22,0,0,1-4.13-1.37,2.26,2.26,0,0,1-1.27-2.26,5.88,5.88,0,0,0,0-1.19c-.51-2.56.89-4.12,2.79-5.41a1.94,1.94,0,0,1,1-.26c2,0,4.08,0,6.11,0,1.29,0,3.7,2.19,3.87,3.47,0,.27-.32.82-.52.84a3.76,3.76,0,0,1-1.93-.22c-.82-.45-1.46-1.62-2.25-1.69a18.1,18.1,0,0,0-5.29.37c-1,.21-1.52,1.79-1.31,3C35.81,95.46,35.94,95.87,36.06,96.34Z"/><path class="cls-1" d="M29.93,97.73v2.51c-.92,0-1.85,0-2.79,0-1.55,0-3.11-.07-4.66-.14-.95,0-1.3.41-1.27,1.3,0,1.35.07,2.71.06,4.06,0,.78.45.79,1,.79q3.54,0,7.08,0c.39,0,.77,0,1.23.06,0,.3,0,.53,0,.76,0,1.59,0,1.6-1.56,1.6-3,0-6,0-9,0-.78,0-1.3-.14-1.3-1.1,0-5.92,0-11.83,0-17.75a2.87,2.87,0,0,1,.1-.54H30.52a.84.84,0,0,1,.12.29c.09,2.22.09,2.22-2.15,2.22-2.07,0-4.15,0-6.23,0-.7,0-.9.2-.89.89,0,1.31-.06,2.62-.13,3.93,0,.8.24,1.17,1.1,1.15,2.08,0,4.15,0,6.23,0Z"/><path class="cls-1" d="M125,106.25c.17,2.41.17,2.42-2,2.44l-8.52,0c-.66,0-1-.16-1-.93,0-5.92,0-11.84,0-17.76a4.81,4.81,0,0,1,.12-.75H125v2.47h-9c0,1.8,0,3.5,0,5.2,0,.7.48.79,1.07.79,2,0,4.08,0,6.12,0h1.24c.11.16.18.22.19.29.17,2,.17,2.08-1.83,2.14-1.79,0-3.6,0-5.39,0-1-.06-1.48.3-1.45,1.33,0,1.31.08,2.63.06,3.94,0,.71.29.89.94.88,2.28,0,4.56,0,6.84,0Z"/><path class="cls-1" d="M76.31,89.29h2.4V98c0,2,0,4.08,0,6.12a5.42,5.42,0,0,1-4.73,4.8c-1.24,0-2.48-.06-3.72,0-2.17.15-5.08-2.63-5.07-5q0-6.89,0-13.78c0-1,.52-1,1.23-1s1.41-.06,1.39,1.06c0,4.24,0,8.47,0,12.71,0,2.23,1,3.28,3.2,3.28h2.28a2.68,2.68,0,0,0,3-3l0-13.06C76.26,89.92,76.29,89.64,76.31,89.29Z"/><path class="cls-1" d="M52.35,98.93c0,1.63,0,3.27,0,4.91a2.49,2.49,0,0,0,2.42,2.41,27.28,27.28,0,0,1,3,0,2.5,2.5,0,0,0,2.53-1.35,2.18,2.18,0,0,1,2.58-.45,1.09,1.09,0,0,1,.09.93,5.76,5.76,0,0,1-5.22,3.47c-1.72-.06-3.46.33-5.15-.6a5.39,5.39,0,0,1-2.9-4.35c0-3.48,0-7,0-10.43a3.44,3.44,0,0,1,.63-1.71c1.24-1.86,2.87-3,5.28-2.64a9.55,9.55,0,0,0,2.39,0c2.37-.25,3.6,1.33,4.77,2.94.26.36.71,1.05-.16,1.39s-1.6.73-2.12-.19A3.38,3.38,0,0,0,57,91.49c-1.47.11-3.11-.38-4.08,1.27a3.13,3.13,0,0,0-.5,1.37C52.32,95.73,52.35,97.33,52.35,98.93Z"/><circle class="cls-1" cx="61.48" cy="39.5" r="4.75"/><path class="cls-1" d="M54.15,45.32c-4.36-2.18-7.07-3.79-13.52-3.79C34.51,41.53,27,43.18,27,52.47v25s-.14,1.62,1,1.62H54.68c20.56,0,43.22-10.35,43.22-39v.06c0-28.65-22.66-39-43.22-39H27.93c-1.12,0-1,1.62-1,1.62v23C27,35,35.64,38.53,40.57,38.53c5.88,0,8.13-2.46,11.3-3.94,2-.94,7.24-2.48,9.61-2.48,5.89,0,10.66,3.27,10.66,7.29s-4.77,7.29-10.66,7.29A19.86,19.86,0,0,1,54.15,45.32Z"/></svg>