<svg id="Capa_1" data-name="Capa 1" xmlns="http://www.w3.org/2000/svg" viewBox="0 0 2664.57 1218.9"><defs><style>.cls-1,.cls-2{fill:#1b4d21;}.cls-1,.cls-4{fill-rule:evenodd;}.cls-3{fill:#6a3f24;}.cls-4{fill:#005626;}</style></defs><path class="cls-1" d="M548.81,581.2c1.17.49,2.37,1.1,3.66,1.54,13.39,4.7,20.68,17,18.79,31.51-1.64,12.43-12.72,22.45-26,23.39-2.6.15-5.16.18-7.7.18H193.77c-7.62,0-7.62,0-7.62,7.81v415.73H546.22c16.61,0,29,11.12,29.86,26.72.95,16.48-11.56,29.49-28.82,30-4.26.08-8.57,0-12.84,0H165c-20.87,0-27.42-4.28-35.48-23.22V603.75c2-3.83,3.15-8.6,6.15-11.32,4.81-4.47,10.87-7.55,16.35-11.23Z"/><path class="cls-1" d="M346.85,755.65c10.47-18.82,26.4-29.82,47-33.26,31.95-5.41,60.4.78,80.53,28.49,4.15,5.62,7.24,7,13.85,5.33a53.17,53.17,0,0,1,30.37.53c9.37,3,15.78,9.08,19,18.5,4.13,12.3,8,24.46,6.22,37.93-2.6,19.74-25,41.12-48.78,36.88-7.38-1.31-14,2.54-20.8,4.31-4.48,1.18-5.59,6-5.59,10.59,0,11.44,0,22.92,0,34.33v67.65c0,10.54,3.88,14.37,14.36,15,1.79.07,3.41,1.75,5.24,2.47a11.83,11.83,0,0,0,4.27.82c13.67.07,27.3,0,41,.07,11.59.16,20.88,8.11,22.35,18.65,1.76,12-4.49,22.31-15.53,25.53a29.16,29.16,0,0,1-8.09,1q-157.09.06-314.12,0c-1.66,0-3.3-.22-5.23-.34-.09-1.83-.23-3.29-.23-4.83V716.79c0-10.66,6.14-19.29,15.57-22.26a23,23,0,0,1,25.5,8.45c3.54,5,4.14,10.65,4.14,16.55q-.06,121.43,0,242.9V985.3h15c18.76,0,37.58,0,56.33,0,2.39,0,5.13,1,6.35-2.63.22-.66,2.7-.7,4.2-.81,10.63-.5,14.27-3.84,14.31-14.34q.24-51.16,0-102.43c0-7.88-3.32-11.55-11.22-12.52-5.87-.73-11.8-.61-17.71-1.1-20.25-1.61-33.83-12.5-39.83-32.09-3.71-12.23-4.9-24.88-2.59-37.4C288.45,751.51,320.1,738.38,346.85,755.65Zm40.49,163.89c0,16.57-.4,32.56.14,48.51.33,10.29,4.17,13.25,14.45,13.89,1.64.07,3.14,1.86,4.84,2.18,3,.49,8,1.67,8.78.41,2.11-3.35,4.74-2.52,7.4-2.74,8.56-.86,12.05-3.91,12.34-12.57.51-15.39.33-30.73.51-46.12,0-3.07-1.43-3.67-4.07-3.59-6,.07-12,0-18,0Zm47.6-9.19c0-16.89.32-33.59-.16-50.18-.13-4.71-5.37-7-10-5.57-8.52,2.69-17,3.21-25.65.4-6.91-2.21-11.08.5-11.47,8.07-.52,9.34-.5,18.76-.63,28.14-.06,6.26,0,12.53,0,19.14Zm48.18-62.17c-5.07-3-9.93-5.33-14.23-8.45-5.05-3.6-10.52-3.53-15.48-1.42s-9.32,5.85-14,8.9a9,9,0,0,1,.4,1Zm-98.48.15c-4.2-3.26-7.43-5.71-10.58-8.15-1.21-.91-2.36-2.13-3.74-2.62-7-2.64-13.15-2.86-17.73,3.52-1.69,2.41-3.68,4.62-5.74,7.25Z"/><path class="cls-2" d="M2451.49,870.88c-11.12-2.57-18.34-10.2-24.42-19.11-5.68-8.33-11.11-16.82-16.56-25.3-2.41-3.76-5-6.56-10-4-13.27,6.83-27.73,7.71-42.16,7.72-364,.08-1375.86,0-1646,0-6.21,0-12.68.94-17-5.16v-6.54c4.23-2,8.35-4.19,12.71-5.78,1.93-.71,4.32-.13,6.5-.13,632.61,0,1008.91.05,1641.52.24,12.06,0,23.67-.5,35.3-4,7.15-2.16,10.38-6.12,10.74-13.27.41-8.15.76-16.33,1.8-24.41,1.67-13.06,8.33-23.07,18.77-31.3,13.81-10.9,26.88-22.74,40.26-34.18h3.27c-.78,18.46-.73,37-7.38,54.73-2.15,5.74,1,7,6.46,6.37,7.5-.88,15.14-1.67,22.64-1.18,12.46.81,24.85,2.66,37.28,4.07l9.83,1.16c-21.52,18.09-36.72,40-59.87,50.72l36.47,40-6.32,1-52.2,8.37Z"/><path class="cls-3" d="M779.92,1039.42c0,35.11,0,54,5.76,59,4.66,4.12,11.79,6,33.19,6,14.53,0,25.23-.28,32.09-7.68,3.29-3.57,6.58-11.25,7.13-16.46.27-2.47.82-4.11,3-4.11,1.92,0,2.19,1.37,2.19,4.66,0,3-1.92,23.59-4.11,31.54-1.65,6-3,7.41-17.28,7.41-19.75,0-34-.55-46.36-.83-12.34-.54-22.21-.82-33.46-.82-3,0-9.05,0-15.63.28-6.31,0-13.44.54-18.93.54-3.56,0-5.49-.82-5.49-2.74,0-1.37,1.1-2.19,4.39-2.19a44.67,44.67,0,0,0,9.88-1.1c5.48-1.1,6.86-7.13,8-15.09,1.37-11.52,1.37-33.18,1.37-58.42V991.15c0-41.69,0-49.37-.55-58.15-.54-9.33-2.74-13.71-11.79-15.63a40.5,40.5,0,0,0-9-.83c-3,0-4.66-.55-4.66-2.47s1.92-2.46,6-2.46c12.89,0,30.17.82,37.58.82,6.58,0,26.6-.82,37.3-.82,3.84,0,5.76.55,5.76,2.46s-1.65,2.47-4.94,2.47a73.06,73.06,0,0,0-10.7.83c-7.4,1.37-9.6,6-10.14,15.63-.55,8.78-.55,16.46-.55,58.15Z"/><path class="cls-3" d="M948.6,1047.37c-1.37,0-1.92.55-2.47,2.2l-14.81,39.22c-2.74,6.86-4.12,13.44-4.12,16.73,0,4.94,2.47,8.51,11,8.51h4.11c3.29,0,4.11.55,4.11,2.19,0,2.2-1.64,2.74-4.66,2.74-8.78,0-20.57-.82-29.07-.82-3,0-18.1.82-32.37.82-3.56,0-5.21-.54-5.21-2.74,0-1.64,1.1-2.19,3.29-2.19a84.12,84.12,0,0,0,8.5-.55c12.62-1.65,17.83-11,23.32-24.69L979,916.54c3.3-7.95,4.94-11,7.68-11,2.47,0,4.12,2.47,6.86,8.78,6.58,15.08,50.47,127,68,168.68,10.43,24.69,18.38,28.53,24.14,29.9a60.4,60.4,0,0,0,11.52,1.1c2.19,0,3.57.27,3.57,2.19,0,2.2-2.47,2.74-12.62,2.74-9.88,0-29.9,0-51.84-.54-4.94-.28-8.23-.28-8.23-2.2,0-1.64,1.1-2.19,3.84-2.47,1.92-.55,3.84-3,2.47-6.31l-21.94-58.14a2.64,2.64,0,0,0-2.75-1.93Zm55.95-13.71c1.37,0,1.65-.82,1.37-1.64l-24.68-67.75c-.27-1.1-.55-2.47-1.37-2.47s-1.37,1.37-1.65,2.47L953,1031.74c-.28,1.1,0,1.92,1.09,1.92Z"/><path class="cls-3" d="M1120.58,1115.67c-4.39-1.92-5.21-3.29-5.21-9.32,0-15.09,1.09-31.55,1.37-35.94.27-4.11,1.09-7.13,3.29-7.13,2.47,0,2.74,2.47,2.74,4.67a58.12,58.12,0,0,0,2.47,14c6,20.29,22.22,27.7,39.22,27.7,24.69,0,36.76-16.73,36.76-31.27,0-13.44-4.12-26.06-26.88-43.89l-12.62-9.87c-30.17-23.59-40.59-42.79-40.59-65,0-30.17,25.23-51.83,63.36-51.83a132.89,132.89,0,0,1,36.48,4.66c2.46.55,3.84,1.37,3.84,3.29,0,3.57-1.1,11.52-1.1,32.91,0,6-.83,8.23-3,8.23-1.92,0-2.74-1.64-2.74-4.93a33.21,33.21,0,0,0-7.13-18.11c-4.12-5.21-12.07-13.44-29.9-13.44-20.3,0-32.64,11.8-32.64,28.25,0,12.62,6.31,22.22,29.07,39.5l7.68,5.76c33.19,25,45,43.89,45,69.94,0,15.91-6,34.84-25.79,47.73-13.71,8.77-29.07,11.24-43.61,11.24C1144.71,1122.8,1132.37,1120.88,1120.58,1115.67Z"/><path class="cls-3" d="M1532,998.83c.83,0,1.65-.55,1.65-1.92v-5.76c0-41.69,0-49.37-.55-58.15-.55-9.33-2.74-13.71-11.79-15.63a56.29,56.29,0,0,0-10.7-.83c-3,0-4.66-.55-4.66-2.47s1.92-2.46,5.76-2.46c14.81,0,32.09.82,39.49.82,6.59,0,23.87-.82,34.56-.82,3.84,0,5.76.55,5.76,2.46s-1.64,2.47-4.93,2.47a48.82,48.82,0,0,0-8,.83c-7.4,1.37-9.6,6-10.15,15.63-.54,8.78-.54,16.46-.54,58.15v48.27c0,25.24,0,46.9,1.37,58.7.82,7.68,2.47,13.71,10.69,14.81a115.36,115.36,0,0,0,14,1.1c3,0,4.39.82,4.39,2.19,0,1.92-2.19,2.74-5.49,2.74-17.82,0-35.1-.82-42.78-.82-6.31,0-23.59.82-34.29.82-3.84,0-5.76-.82-5.76-2.74,0-1.37,1.1-2.19,4.39-2.19a44.57,44.57,0,0,0,9.87-1.1c5.49-1.1,6.86-7.13,8-15.09,1.37-11.52,1.37-33.18,1.37-58.42v-24.14a1.58,1.58,0,0,0-1.65-1.64H1427.22a1.44,1.44,0,0,0-1.65,1.64v24.14c0,25.24,0,46.9,1.37,58.7.83,7.68,2.47,13.71,10.7,14.81a115.36,115.36,0,0,0,14,1.1c3,0,4.39.82,4.39,2.19,0,1.92-2.2,2.74-5.49,2.74-17.83,0-35.11-.82-42.79-.82-6.3,0-23.58.82-34.56.82-3.56,0-5.48-.82-5.48-2.74,0-1.37,1.1-2.19,4.39-2.19a44.65,44.65,0,0,0,9.87-1.1c5.49-1.1,6.86-7.13,8-15.09,1.37-11.52,1.37-33.18,1.37-58.42V991.15c0-41.69,0-49.37-.55-58.15-.55-9.33-2.74-13.71-11.79-15.63a56.29,56.29,0,0,0-10.7-.83c-3,0-4.67-.55-4.67-2.47s1.93-2.46,5.77-2.46c14.81,0,32.09.82,39.49.82,6.58,0,23.86-.82,34.56-.82,3.84,0,5.76.55,5.76,2.46s-1.64,2.47-4.94,2.47a48.72,48.72,0,0,0-8,.83c-7.41,1.37-9.6,6-10.15,15.63-.55,8.78-.55,16.46-.55,58.15v5.76c0,1.37.83,1.92,1.65,1.92Z"/><path class="cls-3" d="M1689.43,1047.37c-1.37,0-1.92.55-2.47,2.2l-14.81,39.22c-2.74,6.86-4.11,13.44-4.11,16.73,0,4.94,2.47,8.51,11,8.51h4.11c3.29,0,4.12.55,4.12,2.19,0,2.2-1.65,2.74-4.67,2.74-8.77,0-20.57-.82-29.07-.82-3,0-18.1.82-32.37.82-3.56,0-5.21-.54-5.21-2.74,0-1.64,1.1-2.19,3.29-2.19a84.52,84.52,0,0,0,8.51-.55c12.61-1.65,17.83-11,23.31-24.69l68.85-172.25c3.29-7.95,4.93-11,7.68-11,2.47,0,4.11,2.47,6.85,8.78,6.58,15.08,50.47,127,68,168.68,10.42,24.69,18.37,28.53,24.13,29.9a60.47,60.47,0,0,0,11.52,1.1c2.2,0,3.57.27,3.57,2.19,0,2.2-2.47,2.74-12.62,2.74-9.87,0-29.9,0-51.84-.54-4.94-.28-8.23-.28-8.23-2.2,0-1.64,1.1-2.19,3.84-2.47,1.92-.55,3.84-3,2.47-6.31l-21.94-58.14a2.64,2.64,0,0,0-2.74-1.93Zm56-13.71c1.38,0,1.65-.82,1.38-1.64l-24.69-67.75c-.27-1.1-.55-2.47-1.37-2.47s-1.37,1.37-1.65,2.47l-25.23,67.47c-.27,1.1,0,1.92,1.1,1.92Z"/><path class="cls-3" d="M1905.3,1047.92c0-14.81-2.75-20.84-6.31-28.8-1.92-4.38-38.68-64.73-48.28-79-6.85-10.15-13.71-17-18.92-20-3.57-1.92-8.23-3.57-11.52-3.57-2.2,0-4.12-.55-4.12-2.47,0-1.64,1.92-2.46,5.21-2.46,4.94,0,25.51.82,34.56.82,5.76,0,17-.82,29.35-.82q4.13,0,4.12,2.46c0,1.65-1.92,1.92-6,3a5,5,0,0,0-3.84,4.94c0,2.19,1.37,5.48,3.29,9.32,3.84,8.23,42.24,74.33,46.63,82,2.74-6.59,37.3-66.93,41.15-75.43,2.74-6,3.84-10.7,3.84-14.27,0-2.74-1.1-5.76-5.77-6.85-2.46-.55-4.93-1.1-4.93-2.75,0-1.91,1.37-2.46,4.66-2.46,9,0,17.83.82,25.78.82,6,0,24.14-.82,29.35-.82,3,0,4.94.55,4.94,2.19,0,1.92-2.2,2.74-5.21,2.74a29.68,29.68,0,0,0-12.07,3.29c-5.76,2.75-8.78,6-14.81,13.44-9,11-47.45,75.43-52.39,87.23-4.12,9.87-4.12,18.37-4.12,27.42v22.49c0,4.39,0,15.91.83,27.43.55,8,3,14,11.24,15.09a115.29,115.29,0,0,0,13.72,1.1c3,0,4.39.82,4.39,2.19,0,1.92-2.2,2.74-5.76,2.74-17.28,0-34.56-.82-42-.82-6.86,0-24.14.82-34.28.82-3.84,0-6-.54-6-2.74,0-1.37,1.37-2.19,4.39-2.19a44,44,0,0,0,9.6-1.1c5.49-1.1,8-7.13,8.5-15.09.83-11.52.83-23,.83-27.43Z"/><path class="cls-3" d="M2077.55,1047.37c-1.37,0-1.92.55-2.47,2.2l-14.81,39.22c-2.74,6.86-4.12,13.44-4.12,16.73,0,4.94,2.47,8.51,11,8.51h4.11c3.29,0,4.11.55,4.11,2.19,0,2.2-1.64,2.74-4.66,2.74-8.78,0-20.57-.82-29.07-.82-3,0-18.1.82-32.37.82-3.56,0-5.21-.54-5.21-2.74,0-1.64,1.1-2.19,3.29-2.19a84.12,84.12,0,0,0,8.5-.55c12.62-1.65,17.83-11,23.32-24.69L2108,916.54c3.3-7.95,4.94-11,7.68-11,2.47,0,4.12,2.47,6.86,8.78,6.58,15.08,50.47,127,68,168.68,10.43,24.69,18.38,28.53,24.14,29.9a60.4,60.4,0,0,0,11.52,1.1c2.19,0,3.57.27,3.57,2.19,0,2.2-2.47,2.74-12.62,2.74-9.88,0-29.9,0-51.84-.54-4.94-.28-8.23-.28-8.23-2.2,0-1.64,1.1-2.19,3.84-2.47,1.92-.55,3.84-3,2.47-6.31l-21.94-58.14a2.64,2.64,0,0,0-2.75-1.93Zm55.95-13.71c1.37,0,1.65-.82,1.37-1.64l-24.68-67.75c-.27-1.1-.55-2.47-1.37-2.47s-1.37,1.37-1.65,2.47l-25.23,67.47c-.28,1.1,0,1.92,1.1,1.92Z"/><path class="cls-3" d="M2254.46,1115.67c-4.39-1.92-5.21-3.29-5.21-9.32,0-15.09,1.1-31.55,1.37-35.94.28-4.11,1.1-7.13,3.29-7.13,2.47,0,2.75,2.47,2.75,4.67a58.06,58.06,0,0,0,2.46,14c6,20.29,22.22,27.7,39.23,27.7,24.68,0,36.75-16.73,36.75-31.27,0-13.44-4.11-26.06-26.88-43.89l-12.62-9.87c-30.17-23.59-40.59-42.79-40.59-65,0-30.17,25.24-51.83,63.36-51.83a132.76,132.76,0,0,1,36.48,4.66c2.47.55,3.84,1.37,3.84,3.29,0,3.57-1.1,11.52-1.1,32.91,0,6-.82,8.23-3,8.23-1.92,0-2.75-1.64-2.75-4.93a33.21,33.21,0,0,0-7.13-18.11c-4.11-5.21-12.07-13.44-29.9-13.44-20.29,0-32.64,11.8-32.64,28.25,0,12.62,6.31,22.22,29.08,39.5l7.68,5.76c33.19,25,45,43.89,45,69.94,0,15.91-6,34.84-25.78,47.73-13.72,8.77-29.08,11.24-43.61,11.24C2278.6,1122.8,2266.26,1120.88,2254.46,1115.67Z"/><path class="cls-3" d="M769.58,710.49c-18.52-16.25-23.43-37.41-23.43-55.74,0-12.85,4-35.15,22.11-51.77,13.6-12.48,31.55-20,59.7-20a185.88,185.88,0,0,1,27.4,1.89c7.18.94,13.23,2.64,18.9,3.21,2.08.19,2.83,1.13,2.83,2.27,0,1.51-.56,3.78-.94,10.39-.38,6.23-.19,16.63-.57,20.41-.19,2.83-.57,4.34-2.27,4.34-1.51,0-1.89-1.51-1.89-4.15a26.94,26.94,0,0,0-7.36-17.39c-6.24-6.61-21-11.71-38.36-11.71-16.44,0-27.21,4.15-35.53,11.71-13.79,12.66-17.38,30.61-17.38,48.94,0,45,34.2,67.27,59.52,67.27,16.82,0,27-1.89,34.58-10.58a31.47,31.47,0,0,0,6.42-12.47c.57-3,1-3.78,2.46-3.78,1.32,0,1.7,1.32,1.7,2.83,0,2.27-2.27,18.71-4.16,25.13-.94,3.21-1.7,4.16-4.91,5.48-7.56,3-21.92,4.35-34,4.35C808.5,731.09,786.77,725.42,769.58,710.49Z"/><path class="cls-3" d="M1001.23,657c0-32.31,21.35-74.07,78-74.07,47,0,76.34,27.4,76.34,70.67s-30.24,77.47-78.23,77.47C1023.15,731.09,1001.23,690.46,1001.23,657Zm127.92,3.59c0-42.33-24.37-68.59-55.36-68.59-21.73,0-46.49,12.09-46.49,59.14,0,39.3,21.74,70.48,58,70.48C1098.54,721.64,1129.15,715.22,1129.15,660.61Z"/><path class="cls-3" d="M1322.63,673.64c0,24.19,0,37.23,4,40.63,3.22,2.84,8.13,4.16,22.87,4.16,10,0,17.38-.19,22.11-5.29a23.81,23.81,0,0,0,4.91-11.34c.19-1.7.56-2.83,2.07-2.83,1.33,0,1.52.94,1.52,3.21,0,2.08-1.32,16.25-2.84,21.73-1.13,4.15-2.07,5.1-11.9,5.1-13.61,0-23.43-.38-31.93-.57-8.51-.38-15.31-.56-23.06-.56-2.08,0-6.23,0-10.77.18-4.34,0-9.26.38-13,.38-2.45,0-3.78-.56-3.78-1.89,0-.94.76-1.51,3-1.51a31.38,31.38,0,0,0,6.8-.75c3.78-.76,4.72-4.92,5.48-10.4,1-7.93,1-22.86,1-40.25V640.39c0-28.72,0-34-.38-40.06-.38-6.42-1.89-9.45-8.13-10.77a27.87,27.87,0,0,0-6.23-.57c-2.08,0-3.22-.37-3.22-1.7s1.33-1.7,4.16-1.7c8.88,0,20.79.57,25.89.57,4.53,0,18.33-.57,25.7-.57,2.64,0,4,.38,4,1.7s-1.13,1.7-3.4,1.7a50.16,50.16,0,0,0-7.37.57c-5.1.94-6.61,4.16-7,10.77-.38,6-.38,11.34-.38,40.06Z"/><path class="cls-3" d="M1517.25,640.39c0-28.72,0-34-.37-40.06-.38-6.42-1.89-9.45-8.13-10.77a38.62,38.62,0,0,0-7.37-.57c-2.08,0-3.21-.37-3.21-1.7s1.32-1.7,4.16-1.7c5.1,0,10.58.19,15.3.19,4.91.19,9.26.38,11.91.38,6,0,43.65,0,47.24-.19a78.54,78.54,0,0,0,8.12-1.13,17.81,17.81,0,0,1,3-.76c.95,0,1.14.76,1.14,1.7,0,1.32-1,3.59-1.52,12.28-.18,1.89-.56,10.21-.94,12.47-.19,1-.57,2.08-1.89,2.08s-1.7-.94-1.7-2.64a20.31,20.31,0,0,0-1.13-6.8c-1.33-3.41-3.22-5.67-12.66-6.81-3.22-.38-23.06-.75-26.84-.75-.94,0-1.32.56-1.32,1.89v47.8c0,1.33.19,2.08,1.32,2.08,4.16,0,25.89,0,30.24-.38,4.53-.37,7.37-.94,9.07-2.83,1.32-1.51,2.07-2.46,3-2.46.76,0,1.32.38,1.32,1.51s-.75,4.16-1.51,13.8c-.19,3.78-.76,11.34-.76,12.66,0,1.51,0,3.59-1.7,3.59a1.5,1.5,0,0,1-1.7-1.7,50.76,50.76,0,0,0-.75-6.8c-.95-3.78-3.59-6.62-10.58-7.37-3.59-.38-22.3-.57-26.83-.57-1,0-1.14.76-1.14,1.89v14.92c0,6.43-.19,23.82,0,29.3.38,13,3.4,15.87,22.68,15.87,4.91,0,12.84,0,17.76-2.27s7.18-6.24,8.5-14c.38-2.08.76-2.84,2.08-2.84,1.51,0,1.51,1.51,1.51,3.4a147.43,147.43,0,0,1-2.46,21c-1.32,4.91-3,4.91-10.2,4.91-14.17,0-24.56-.38-32.69-.57-8.12-.38-14-.56-19.65-.56-2.08,0-6.23,0-10.77.18-4.35,0-9.26.38-13,.38-2.45,0-3.78-.56-3.78-1.89,0-.94.76-1.51,3-1.51a31.38,31.38,0,0,0,6.8-.75c3.78-.76,4.72-4.92,5.48-10.4.94-7.93.94-22.86.94-40.25Z"/><path class="cls-3" d="M1855.29,715.78c0,5.1-.19,5.48-2.46,6.8-12.28,6.43-30.8,8.51-45.54,8.51C1761,731.09,1720,709.17,1720,657c0-30.24,15.68-51.4,32.87-61.79,18.14-11,35-12.28,50.83-12.28a227,227,0,0,1,33.45,3,122.85,122.85,0,0,0,14.93,2.08c2.26.19,2.64.94,2.64,2.27,0,2.07-1.32,7.37-1.32,31,0,3-.57,4-2.08,4-1.32,0-1.7-.94-1.89-2.45-.57-4.35-1.51-10.4-6.42-15.69-5.67-6-20.79-14.74-42.14-14.74-10.39,0-24.19.76-37.41,11.72-10.59,8.88-17.39,23-17.39,46.29,0,40.63,25.89,71.05,65.76,71.05,4.91,0,11.53,0,16.06-2.08,2.83-1.32,3.59-3.77,3.59-7V694.62c0-9.45,0-16.63-.19-22.3-.19-6.42-1.89-9.44-8.12-10.77a39.73,39.73,0,0,0-7.37-.56c-1.7,0-2.84-.38-2.84-1.52,0-1.51,1.33-1.88,4-1.88,9.83,0,21.73.56,27.4.56,5.86,0,15.87-.56,22.11-.56,2.45,0,3.78.37,3.78,1.88,0,1.14-1.14,1.52-2.46,1.52a30.44,30.44,0,0,0-5.1.56c-5.1,1-7,4.16-7.18,10.77-.19,5.67-.19,13.23-.19,22.68Z"/><path class="cls-3" d="M2011.92,640.39c0-28.72,0-34-.37-40.06-.38-6.42-2.27-9.64-6.43-10.58a26.66,26.66,0,0,0-6.8-.76c-1.89,0-3-.37-3-1.89,0-1.13,1.52-1.51,4.54-1.51,7.18,0,19.08.57,24.56.57,4.73,0,15.88-.57,23.06-.57,2.45,0,4,.38,4,1.51,0,1.52-1.14,1.89-3,1.89a31.8,31.8,0,0,0-5.67.57c-5.1.94-6.61,4.16-7,10.77-.38,6-.38,11.34-.38,40.06v33.25c0,18.34,0,33.26.76,41.39.57,5.1,1.89,8.5,7.56,9.26a81.13,81.13,0,0,0,9.64.75c2.07,0,3,.57,3,1.51,0,1.33-1.51,1.89-3.59,1.89-12.47,0-24.38-.56-29.48-.56-4.35,0-16.25.56-23.81.56-2.45,0-3.78-.56-3.78-1.89,0-.94.76-1.51,3-1.51a31.38,31.38,0,0,0,6.8-.75c3.78-.76,4.91-4,5.48-9.45.94-7.94.94-22.86.94-41.2Z"/><path class="cls-3" d="M2178.77,657c0-32.31,21.35-74.07,78-74.07,47.05,0,76.34,27.4,76.34,70.67s-30.24,77.47-78.23,77.47C2200.69,731.09,2178.77,690.46,2178.77,657Zm127.92,3.59c0-42.33-24.37-68.59-55.36-68.59-21.73,0-46.49,12.09-46.49,59.14,0,39.3,21.73,70.48,58,70.48C2276.08,721.64,2306.69,715.22,2306.69,660.61Z"/><path class="cls-4" d="M1910.28,96.09c4.74,2.42,6.29,6.45,6.88,11.59,2.75,24.28,5.85,48.52,8.78,72.78,1,7.88,2.12,15.75,2.6,23.67.44,7.38-7,11.49-13.43,7.83a9.24,9.24,0,0,1-4.64-7.47q-1.92-15.93-3.86-31.84c-1.21-10-2.43-20-4.13-30.09-1.09,2.69-2.19,5.37-3.27,8.07q-10.95,27.48-21.89,55a19,19,0,0,1-.79,2c-1.86,3.39-4.31,6-8.53,5.93s-6.86-2.44-8.42-6c-2.43-5.59-4.59-11.3-6.87-17q-9.39-23.35-18.8-46.71a5.55,5.55,0,0,0-1.7-2.48q-1.62,11.26-3.24,22.52c-1.91,13.5-3.75,27-5.72,40.51-1.18,8.08-9,11.45-15.14,6.65-3.39-2.64-3.42-6.18-2.85-10,1.22-8.15,2.35-16.32,3.5-24.48,3.34-23.49,6.74-47,9.94-70.46.66-4.78,2.63-8.22,7.17-10h4.89c3.65,1.48,5.53,4.34,7,7.94,8,20.25,16.16,40.43,24.27,60.63,1.89,4.72,3.82,9.43,6,14.72.66-1.59,1-2.51,1.42-3.43,9.55-23.91,19.15-47.79,28.6-71.73,1.41-3.57,3.27-6.47,6.79-8.13Z"/><path class="cls-4" d="M1374.45,96.09c5.06,2.35,6.71,6.39,6.68,11.83-.12,31.18-.05,62.36-.07,93.55a23.74,23.74,0,0,1-.42,4.84,8.19,8.19,0,0,1-6.16,6.54c-3.35.92-6.67.55-8.9-2.38-4.26-5.58-8.33-11.31-12.38-17q-19.42-27.42-38.78-54.9a7.78,7.78,0,0,0-2.47-2.4v3.08q0,31.95,0,63.89c0,6.18-3.75,10.19-9.36,10.12a8.86,8.86,0,0,1-8.9-8.32c-.09-1-.08-2-.08-3.05,0-31.48.06-63-.07-94.46,0-5.43,1.8-9.23,6.89-11.3h4.9c2.12,2,4.66,3.65,6.3,6,16.32,22.88,32.48,45.86,48.7,68.81.59.84,1.25,1.64,2.39,3.13v-4.3c0-20.79.11-41.57-.07-62.35-.05-5.48,1.77-9.24,6.9-11.25Z"/><path class="cls-4" d="M1221.53,96.09c3.57.59,7.18,1,10.71,1.79,27.09,5.8,46.31,30.78,45.56,59.1-.73,27.27-21.49,51-48.49,55.42-33,5.43-62.89-16.36-67.81-49.49a6.79,6.79,0,0,0-.53-1.37V148.08a8.18,8.18,0,0,0,.57-1.64,58.35,58.35,0,0,1,45-48.59c3.53-.79,7.15-1.18,10.72-1.76Zm37.92,59a40,40,0,0,0-40-40.32c-22.52,0-40.19,17.72-40.19,40.37a40.08,40.08,0,0,0,80.16-.05Z"/><path class="cls-4" d="M1740.84,96.09a13.35,13.35,0,0,1,7.16,7.48q20.63,48.08,41.37,96.11c1.55,3.6,1.42,6.94-.91,10.08-2.18,2.92-5.28,3.63-8.72,3.17-3.61-.49-5.71-2.78-7.09-6-3.71-8.59-7.53-17.13-11.17-25.75-.83-2-1.83-2.71-4-2.69q-18.79.18-37.59,0c-2.2,0-3.19.73-4,2.7q-5.58,13.22-11.47,26.28a9.17,9.17,0,0,1-10.83,5.34,8.64,8.64,0,0,1-6.7-8.41,12.58,12.58,0,0,1,1.11-4.68q20.71-47.88,41.5-95.72c1.52-3.51,3.6-6.31,7.11-7.93Zm-2.11,33.25L1725.21,160h26.94C1747.65,149.74,1743.31,139.81,1738.73,129.34Z"/><path class="cls-4" d="M1460.08,96.09c1.57,1.09,3.42,1.92,4.63,3.32a9.08,9.08,0,0,1-7,14.92q-19.41,0-38.83,0H1415v30.58h7c6.62,0,13.25-.06,19.87,0,5.6.08,9.35,3.83,9.37,9.13s-3.83,9.1-9.38,9.17c-8.86.09-17.73,0-26.84,0v31.81h3.26q19.41,0,38.82,0c5.82,0,9.73,3.63,9.75,9s-3.89,9.13-9.66,9.14q-25.53.06-51.06,0c-6.07,0-9.62-3.68-9.62-9.78,0-31.9.09-63.79-.09-95.69,0-5.55,1.65-9.45,6.82-11.65Z"/><path class="cls-4" d="M1666.83,96.09c2,1.9,4.75,3.43,5.89,5.76,2.89,5.9-1.71,12.44-8.43,12.47-13,.06-26.09,0-39.13,0h-3.5v30.58h3.2c7.64,0,15.29,0,22.93,0,6,0,10.09,3.69,10.14,9,.06,5.52-4,9.28-10.23,9.3-7.55,0-15.09,0-22.63,0h-3.44v31.81h3.31q19.43,0,38.84,0c5.78,0,9.76,3.69,9.77,9s-4,9.1-9.74,9.12q-25.53,0-51.06,0c-5.92,0-9.59-3.55-9.6-9.5q-.09-49.08,0-98.15c0-4.85,2.69-7.66,6.83-9.47Z"/><path class="cls-4" d="M1584.87,96.09c3,1.61,5.6,3.54,6.36,7.23a9,9,0,0,1-8.82,11c-6.72.09-13.44,0-20.69,0V118q0,42.65,0,85.31c0,6.62-4.6,10.79-10.72,9.74a8.31,8.31,0,0,1-7.15-6.62,20.73,20.73,0,0,1-.46-4.85q0-41.59,0-83.18v-4.08h-19.94c-4.85,0-8.38-2.51-9.45-6.64-1.17-4.54.71-8.51,5.15-10.92a7.41,7.41,0,0,0,.9-.69Z"/><path class="cls-4" d="M1835.18,250.51q-5.91,42.81-11.83,85.63c-.12.91-.36,1.81-.44,2.72-.17,2-.88,3.41-3.19,3.12-2.6-.33-2.53-2.18-2.25-4.13.6-4.14,1.17-8.27,1.75-12.4q6-42.51,12-85c.25-1.78.33-3.57,2.6-3.89,2.49-.35,3,1.62,3.67,3.32q18,44.56,36,89.15c.27.66.55,1.31,1,2.4.53-1.06,1-1.78,1.27-2.55q17.79-44,35.56-88a5.64,5.64,0,0,1,.81-2,38.15,38.15,0,0,1,3.33-2.56c.79,1,2.09,2,2.27,3.16,1.5,9.46,2.79,18.94,4.12,28.42q4.77,33.88,9.51,67.77c.14,1,.27,2,.37,3,.17,1.71-.21,3-2.25,3.28s-3-1-3.21-2.82c-.67-4.63-1.29-9.28-1.93-13.92q-5-36.17-10-72.33c-.13-.9-.36-1.78-.68-3.3-1.7,4.17-3.2,7.81-4.67,11.46q-15.52,38.51-31.1,77c-.61,1.49-1.89,3.39-3.22,3.74-2.45.65-2.94-1.88-3.65-3.64q-17.11-42.65-34.22-85.28c-.33-.83-.74-1.63-1.1-2.43Z"/><path class="cls-4" d="M1354.57,329.47V241.29c0-.92-.3-2,.12-2.7a4.6,4.6,0,0,1,2.71-2.13c.74-.07,1.77,1.23,2.38,2.11.34.49.09,1.39.09,2.1q0,48.45,0,96.92c0,1.64.62,3.71-1.75,4.32-2.22.58-3.28-1-4.37-2.59q-30.84-44.22-61.72-88.43a5.76,5.76,0,0,0-2.08-2v89c0,2,.1,4.24-2.76,4-1-.09-1.93-1.3-2.62-2.21-.36-.45-.12-1.38-.12-2.09V241c0-.51-.17-1.11,0-1.51.52-1,1-2.43,1.87-2.71a3.53,3.53,0,0,1,3.08,1,80.51,80.51,0,0,1,4.83,6.68l58.09,83.15c.46.66,1,1.31,1.44,2Z"/><path class="cls-4" d="M1466.3,289.06v-48c0-4.14.66-4.84,4.76-4.8,11.2.1,22.44-.36,33.58.51,25.44,2,45.6,22.92,47.29,48.27,1.83,27.36-15.64,50.48-42.4,56a48.67,48.67,0,0,1-9.09.93c-9.68.11-19.36,0-29,0-4.79,0-5.1-.32-5.1-5.26Zm5.63,47.46c9.79,0,19.27.27,28.73,0a47.18,47.18,0,0,0,45.84-43.59c2.23-25.34-16.34-48.25-41.71-50.56-10.61-1-21.37-.36-32.06-.45-.26,0-.52.26-.8.41Z"/><path class="cls-4" d="M1270.15,289.45c0,29.56-23.67,52.58-54,52.54-28.28,0-51.62-23.87-51.61-52.71a52.81,52.81,0,1,1,105.61.17ZM1170,289.11a47.07,47.07,0,0,0,47.23,47.47c26,0,47.35-21.07,47.38-46.79,0-26.7-21.05-48-47.46-48A47.3,47.3,0,0,0,1170,289.11Z"/><path class="cls-4" d="M1572.73,290.1v15.72q0,16.21,0,32.42c0,1.95,0,3.8-2.73,3.75-2.5-.05-2.58-1.79-2.58-3.63q0-49.23,0-98.46c0-2.18.61-3.63,3-3.61,10.49.09,21-.41,31.46.49,13.92,1.2,24.28,13.66,24,27.44-.32,13.23-11.72,24.8-25.52,25.88-.3,0-.61.07-1.26.15.47.88.82,1.67,1.28,2.39q13.68,21.71,27.39,43.4c.49.78,1.25,1.54,1.33,2.37a3.63,3.63,0,0,1-.78,2.84,3.47,3.47,0,0,1-3,.13c-.82-.36-1.39-1.42-1.93-2.26-9.85-15.46-19.72-30.91-29.47-46.43A4.84,4.84,0,0,0,1589,290C1583.75,290.23,1578.46,290.1,1572.73,290.1Zm.16-5.51c9.4,0,18.56.3,27.69-.08a20.84,20.84,0,0,0,19.76-19.68c.5-11.66-6.64-21.39-17.83-22.49-9.58-.94-19.31-.37-29-.45-.16,0-.34.19-.65.38Z"/><path class="cls-4" d="M1711.57,339.41c.59-1.53.92-2.49,1.32-3.43q20.79-48,41.62-96.06a6.6,6.6,0,0,1,2.19-3.14c2.47-1.4,3.43.63,4.23,2.46q8.11,18.62,16.19,37.23,12.78,29.38,25.58,58.77c.32.74.67,1.48,1,2.24.73,1.82.69,3.5-1.42,4.3s-3-.62-3.67-2.24c-4.38-10.08-8.81-20.13-13.1-30.24-.86-2-1.86-2.87-4.21-2.85q-23.23.18-46.48,0c-2.35,0-3.55.56-4.51,2.87q-6.29,15.23-13.08,30.25a4.62,4.62,0,0,1-3.35,2.13C1713.13,341.78,1712.24,340.13,1711.57,339.41ZM1781.8,301,1758,246c-8.18,18.8-16,36.79-24,55Z"/><path class="cls-4" d="M1379.5,241.78v43.93h8.55c7.74,0,15.49,0,23.23,0,1.9,0,3.3.53,3.37,2.61.08,2.25-1.36,2.92-3.39,2.92-10.49,0-21,0-31.69,0v45.37h48.09c.82,0,1.87-.31,2.4.09,1,.73,2.18,1.81,2.29,2.85.08.72-1.45,2.25-2.36,2.34-3.13.29-6.31.12-9.47.12H1378c-3.78,0-4.18-.39-4.18-4.23q0-48.61,0-97.22c0-3.64.63-4.26,4.29-4.26q25.21,0,50.44,0c2,0,3.88.11,4,2.68.07,2.83-2,2.84-4,2.83h-49Z"/><path class="cls-4" d="M1646.49,241.78v43.93h3.27q14.07,0,28.13,0c1.68,0,3.41-.06,3.68,2.2.32,2.65-1.2,3.33-3.52,3.32-9.38,0-18.75,0-28.13,0h-3.43v45.37h48.21c.82,0,1.87-.31,2.4.08,1,.73,2.14,1.82,2.25,2.87.08.72-1.44,2.26-2.32,2.33-3.65.27-7.33.12-11,.12h-41c-3.78,0-4-.23-4-4q0-48.76,0-97.52c0-3.78.41-4.2,4.2-4.2q25.07,0,50.14,0c.51,0,1,0,1.53,0,1.87.15,3,1.3,2.49,3a3.94,3.94,0,0,1-2.75,2.35c-5.09.24-10.19.12-15.28.12h-34.88Z"/></svg>