<svg id="Capa_1" data-name="Capa 1" xmlns="http://www.w3.org/2000/svg" viewBox="0 0 450.48 114.67"><defs><style>.cls-1{fill:#003a5d;}.cls-2{fill:#fff;}.cls-3{fill:#ee7623;}</style></defs><path class="cls-1" d="M439.49,0H11A11,11,0,0,0,0,11V73.06a10.83,10.83,0,0,0,.12,1.5C1.35,86.25,13,100.32,38.84,100.32l166.76.09c12.59.09,15,6.36,19.64,14.26h0c4.67-7.9,7-14.17,19.63-14.26l166.76-.09c25.85,0,37.5-14.07,38.73-25.76a12.61,12.61,0,0,0,.11-1.5V11A11,11,0,0,0,439.49,0Z"/><path class="cls-2" d="M45.35,20.85a58.68,58.68,0,0,1,9.16.71c.94.08,1.17.62,1.17,1.65V31c0,1-.47,1.57-1.33,1.49-3.21-.31-5.79-.47-7.59-.47C37.44,32,35,35.1,35,47.63,35.17,60.46,37.12,63,46.68,63.28c1.88,0,4.46-.15,7.67-.47h.16c.7,0,1.17.56,1.17,1.5v7.75c0,1-.23,1.56-1.17,1.64a59.93,59.93,0,0,1-9.16.7c-17,0-23.49-7.52-23.49-26.77s6.58-26.78,23.49-26.78"/><path class="cls-2" d="M57.25,54.67C57.25,41,62.49,35,75.65,35S94,41,94,54.67,88.8,74.4,75.65,74.4s-18.4-6-18.4-19.73m24.89,0c0-7.2-1.72-9.39-6.49-9.39s-6.5,2.19-6.5,9.39,1.72,9.4,6.5,9.4,6.49-2.2,6.49-9.4"/><path class="cls-2" d="M132.32,48.41v23.8c0,.86-.39,1.25-1.25,1.25h-9.23c-.87,0-1.26-.39-1.26-1.25V52c0-5.24-.94-6.73-4.3-6.73a13.4,13.4,0,0,0-6.19,1.64V72.29a1.11,1.11,0,0,1-1.17,1.17h-9.4a1.11,1.11,0,0,1-1.17-1.17V37.14c0-.86.39-1.25,1.25-1.25h8c.86,0,1.25.39,1.25,1.25v1.72A18,18,0,0,1,120.43,35c8.37,0,11.89,4.38,11.89,13.46"/><path class="cls-2" d="M160.27,64c.71,0,1,.32,1,1v7.51a1.37,1.37,0,0,1-1.17,1.41,41.09,41.09,0,0,1-6.19.47c-9.47,0-13.3-3.36-13.3-13.31V45.43h-4.54c-.87,0-1.26-.38-1.26-1.25v-7a1.09,1.09,0,0,1,1.26-1.26h4.54V25.39c0-.86.39-1.25,1.25-1.25h9.23c.87,0,1.26.39,1.26,1.25V35.88c5.93,0,20.67,0,21.92,16.74-5.87-8.37-17.82-7.19-21.92-7.19V58.82c0,4.62.78,5.4,4.3,5.4A22.75,22.75,0,0,0,160,64Z"/><path class="cls-3" d="M162.55,25.47a1.27,1.27,0,0,1,1.33-1.33H173a1.2,1.2,0,0,1,1.33,1.33v9.08A1.28,1.28,0,0,1,173,35.89h-9.08a1.38,1.38,0,0,1-1.33-1.34Z"/><path class="cls-2" d="M163.72,73.46a1.11,1.11,0,0,1-1.17-1.17V50.2c3.34,0,9.24.89,11.74,4.47V72.29a1.11,1.11,0,0,1-1.17,1.17Z"/><path class="cls-2" d="M214.22,38.63v33c0,13-5.09,17.61-19.89,17.61a77.72,77.72,0,0,1-10.88-.77,1.21,1.21,0,0,1-1.17-1.34V79.57c0-.86.47-1.18,1.41-1.1a76,76,0,0,0,9.47.71c7.28,0,9.31-1.73,9.31-6.89v-.71a13.52,13.52,0,0,1-8.92,2.82c-9.63,0-14.87-6.57-14.87-19.1,0-13.54,6.26-20.35,19.65-20.35a57.25,57.25,0,0,1,8.69.7,45.74,45.74,0,0,1,6.18,1.41,1.43,1.43,0,0,1,1,1.57m-11.75,24.5V45.36a29.51,29.51,0,0,0-3.75-.24c-6.42,0-8.14,2.27-8.14,9.63,0,7.2,1.8,9.48,6.57,9.48a13.24,13.24,0,0,0,5.32-1.1"/><path class="cls-2" d="M218.52,54.67c0-13.7,5.25-19.72,18.4-19.72s18.4,6,18.4,19.72-5.25,19.73-18.4,19.73-18.4-6-18.4-19.73m24.9,0c0-7.2-1.73-9.39-6.5-9.39s-6.5,2.19-6.5,9.39,1.73,9.4,6.5,9.4,6.5-2.2,6.5-9.4"/><path class="cls-2" d="M345.47,62.66c.86,0,1.25.39,1.25,1.25v8.3c0,.86-.39,1.25-1.25,1.25H318.39c-.87,0-1.26-.39-1.26-1.25v-8.3c0-.86.39-1.25,1.26-1.25h8.29V34.32l-7.43,2.9a1.51,1.51,0,0,1-.63.08c-.55,0-.86-.32-.86-1V27.9a1.41,1.41,0,0,1,.94-1.49l10.49-4.31a3,3,0,0,1,1.48-.3h6.66c.86,0,1.25.38,1.25,1.25V62.66Z"/><path class="cls-2" d="M349.78,47.63c0-20.27,5-26.77,18.47-26.77s18.32,6.5,18.32,26.77S381.72,74.4,368.25,74.4s-18.47-6.5-18.47-26.77m24.58,0c0-13.47-1.33-16-6.11-16s-6.26,2.5-6.26,16,1.49,16,6.26,16,6.11-2.51,6.11-16"/><path class="cls-2" d="M391.82,47.63c0-20.27,5-26.77,18.47-26.77s18.32,6.5,18.32,26.77S423.76,74.4,410.29,74.4s-18.47-6.5-18.47-26.77m24.58,0c0-13.47-1.33-16-6.11-16s-6.26,2.5-6.26,16,1.49,16,6.26,16,6.11-2.51,6.11-16"/><path class="cls-3" d="M293.23,50.42V72.27c0,.82-.37,1.19-1.19,1.19h-3.49c-.82,0-1.19-.37-1.19-1.19V70.34a18.36,18.36,0,0,1-11.89,4c-7.73,0-12-3.86-12-11.22V63c0-7.35,4.38-10.77,15.3-10.77h.3a64.25,64.25,0,0,1,8,.59V50.57c0-6.91-1.93-8.47-8.92-8.47a49.88,49.88,0,0,0-9.59,1h-.29a.94.94,0,0,1-1-1V39.2c0-.81.29-1.26,1-1.33a67.74,67.74,0,0,1,10.78-1c10.18,0,14.19,3.64,14.19,13.52M269.6,63.13c0,4.24,2.16,6.32,6.84,6.32a18,18,0,0,0,10.7-3.72V57.41a69.21,69.21,0,0,0-8.4-.45h-.3c-6.46,0-8.84,1.64-8.84,6Z"/><path class="cls-3" d="M300,73.46a1,1,0,0,1-1.11-1.11V24.11a1,1,0,0,1,1.18-1.18h3.73c.82,0,1.18.37,1.18,1.18V72.35a1,1,0,0,1-1.11,1.11Z"/></svg>