<svg id="Capa_1" data-name="Capa 1" xmlns="http://www.w3.org/2000/svg" viewBox="0 0 191.23 125.98"><defs><style>.cls-1{fill:#00865e;}</style></defs><path class="cls-1" d="M90.61,100.78H71.23q.88,2,2.36,5.16l-6.5,20h7.55l3.27-10.07H86.3L83,126h7.55l5.66-17.42a5.92,5.92,0,0,0-5.63-7.75m-2.67,10.07H79.55l1.36-4.2H89.3Z"/><polygon class="cls-1" points="127.04 100.78 103.79 100.78 101.88 106.65 109.73 106.65 103.47 125.95 111.02 125.95 117.28 106.65 125.14 106.65 127.04 100.78"/><path class="cls-1" d="M134.9,100.78a5.69,5.69,0,0,0-4.36,9.36l7,8.33a1,1,0,0,1-.75,1.61H124.49L122.58,126h17.68a5.7,5.7,0,0,0,4.36-9.36l-7-8.33a1,1,0,0,1,.75-1.61h8.94l1.9-5.87H134.9Z"/><path class="cls-1" d="M46.64,104.9l-4.33,13.33A5.92,5.92,0,0,0,47.94,126H63.28l-1.91-5.88H49.25l4.36-13.42h10.9l1.91-5.87H52.27a5.91,5.91,0,0,0-5.63,4.09"/><polygon class="cls-1" points="32.51 75.59 26.84 75.59 20.7 94.48 24.25 94.48 26.37 94.48 34.56 94.48 35.99 90.07 27.8 90.07 32.51 75.59"/><path class="cls-1" d="M17.8,86.92,19,83.14H9.35l1-3.14H21.63l1.43-4.41H3.15c.27.63.85,1.9,1.75,3.8L0,94.48H18.88c-.76-1.57-1.45-3-2.11-4.41H7.1l1-3.15Z"/><path class="cls-1" d="M57.21,94.48l-2.1-4.41H45.44l1-3.15h9.67l1.23-3.78H47.69l1-3.14H60l1.44-4.41H41.48c.27.63.86,1.9,1.76,3.8l-4.9,15.09Z"/><polygon class="cls-1" points="167.92 75.59 161.78 94.48 167.45 94.48 173.59 75.59 167.92 75.59"/><polygon class="cls-1" points="82.76 75.59 81.32 80 87.22 80 82.51 94.48 88.18 94.48 92.89 80 98.79 80 100.22 75.59 82.76 75.59"/><path class="cls-1" d="M158.22,75.59H143.67c.44,1,1,2.29,1.77,3.87l-4.88,15h5.67L150.94,80h6.3l-4.71,14.48h5.67l4.24-13.07a4.44,4.44,0,0,0-4.22-5.82"/><path class="cls-1" d="M65.1,94.48H76.62l-1.44-4.41h-9.1L69.36,80h8.18L79,75.59H68.35a4.45,4.45,0,0,0-4.23,3.07l-3.25,10a4.45,4.45,0,0,0,4.23,5.82"/><path class="cls-1" d="M189.8,80l1.43-4.41H180.6a4.46,4.46,0,0,0-4.23,3.07l-3.25,10a4.45,4.45,0,0,0,4.23,5.82h11.52l-1.43-4.41h-9.11L181.61,80Z"/><path class="cls-1" d="M125.36,94.48h8.29a4.46,4.46,0,0,0,4.23-3.07l3.25-10a4.45,4.45,0,0,0-4.23-5.82h-8.29a4.45,4.45,0,0,0-4.23,3.07l-3.25,10a4.45,4.45,0,0,0,4.23,5.82M129.62,80h6.3l-3.28,10.07h-6.3Z"/><path class="cls-1" d="M107.14,86.92h2.09l2.45,7.56h5.67l-2.45-7.56a4.15,4.15,0,0,0,3.95-2.87l.86-2.64a4.45,4.45,0,0,0-4.23-5.82H101.69l2,4.41H114.5l-1,3.14H102.7l-1.23,3.78L99,94.48h5.67Z"/><path class="cls-1" d="M144.83,52.3a4.66,4.66,0,1,0,0-3.29h-12a21,21,0,0,0,1.47-7.19l8.81-2.41a4.66,4.66,0,1,0-.86-3.17l-8.15,2.22a22.41,22.41,0,0,0-4-9.83,52.37,52.37,0,0,0,2.83-17.1,53,53,0,0,0-.67-8.44,3.69,3.69,0,0,0-4.55-3c-7.43,1.83-14,7.2-19.07,14.9a52.79,52.79,0,0,0-26.15.05C77.48,7.39,70.93,2,63.58.16a3.68,3.68,0,0,0-4.57,3,53.81,53.81,0,0,0-.66,8.4,52.63,52.63,0,0,0,2.82,17.1,22.51,22.51,0,0,0-4,9.83L49,36.24a4.67,4.67,0,1,0-.87,3.17L57,41.82A21,21,0,0,0,58.43,49h-12a4.66,4.66,0,1,0,0,3.29H60a27.17,27.17,0,0,0,4.07,5.24l-16,4.36A4.65,4.65,0,1,0,49,65.07l18-4.92c7.07,5.61,17.26,9.14,28.58,9.14s21.52-3.53,28.59-9.14l18,4.92a4.66,4.66,0,1,0,.86-3.17l-16-4.36a27.17,27.17,0,0,0,4.07-5.24Zm4.35-3.46a1.82,1.82,0,1,1-1.81,1.81,1.81,1.81,0,0,1,1.81-1.81m-2.33-14A1.81,1.81,0,1,1,145,36.68a1.81,1.81,0,0,1,1.81-1.81M44.38,38.49a1.81,1.81,0,1,1,1.81-1.81,1.81,1.81,0,0,1-1.81,1.81m-2.33,14a1.82,1.82,0,1,1,1.81-1.82,1.82,1.82,0,0,1-1.81,1.82m2.33,14a1.81,1.81,0,1,1,1.81-1.81,1.81,1.81,0,0,1-1.81,1.81m44.1-15.93a17.48,17.48,0,0,1-2.18.14A16.29,16.29,0,0,1,70,34.35a17.48,17.48,0,0,1,.14-2.18A17.48,17.48,0,0,1,72.32,32,16.31,16.31,0,0,1,88.63,48.33a17.48,17.48,0,0,1-.15,2.18m16.45.14a17.36,17.36,0,0,1-2.18-.14,17.48,17.48,0,0,1-.15-2.18A16.31,16.31,0,0,1,118.9,32a17.35,17.35,0,0,1,2.18.15,15.76,15.76,0,0,1,.15,2.18,16.3,16.3,0,0,1-16.3,16.3m41.92,12.17A1.81,1.81,0,1,1,145,64.63a1.81,1.81,0,0,1,1.81-1.81"/></svg>