<svg id="Capa_1" data-name="Capa 1" xmlns="http://www.w3.org/2000/svg" viewBox="0 0 314.07 229.71"><defs><style>.cls-1{fill:#003a5d;}.cls-2{fill:#6bcbb8;}.cls-3{fill:#00afaa;}</style></defs><path class="cls-1" d="M163,30.25c.07.64,1,.43,1-.1C163.87,29.15,162.77,29.76,163,30.25ZM147.23,53.32V52.9c-.48,0-.66,0-.7-.48,0-.17,0-.46,0-.88V50.41l.42,0,1.1,1.94c.55.94.6.94,1.58,1h.89v-.41c-.29,0-.42-.2-.8-.79l-1.29-2a1.8,1.8,0,0,0,1-.8,1.75,1.75,0,0,0,.22-.84,1.45,1.45,0,0,0-.79-1.34,3.06,3.06,0,0,0-1.36-.23l-1.48,0c-.57,0-1.13,0-1.71,0v.43c.65,0,.67.12.68,1.22v3.34c0,.92,0,1-.68,1v.42l1.58,0C146.38,53.29,146.8,53.31,147.23,53.32Zm-.71-5.92a1.51,1.51,0,0,1,1.1.23,1.34,1.34,0,0,1,.34,1,1.38,1.38,0,0,1-.31,1,1.44,1.44,0,0,1-1.13.38Zm19-14.62c-.08-1-1.18-.38-1,.11C164.56,33.54,165.53,33.33,165.48,32.78Zm6.44,96.69-1.18-3.61c-.18-.53-.23-.7-.35-1.12l-1.06.34-.3.84-.55,1.42-.48,1.2-.38.92c-.36.86-.43.93-.87,1v.4l1,0,.88,0v-.41c-.15,0-.45,0-.45-.33a6.25,6.25,0,0,1,.41-1.38h1.56l.19.63a4.59,4.59,0,0,1,.22.8c0,.27-.26.28-.44.3v.39c.42,0,.85,0,1.28,0l1.27,0v-.4C172.25,130.44,172.22,130.38,171.92,129.47Zm-3.14-1.21.69-1.91.56,1.91Zm-18.28-75h0v0l1.11,0,1,0v-.44c-.15,0-.47,0-.47-.36a6.64,6.64,0,0,1,.44-1.5h1.69l.21.68a4.84,4.84,0,0,1,.23.87c0,.29-.27.31-.48.32v.43c.47,0,.93,0,1.4,0l1.37,0v-.44c-.47,0-.5-.08-.83-1.06l-1.28-3.91c-.19-.59-.25-.77-.38-1.22l-1.15.37L153,48l-.61,1.54-.51,1.3-.42,1c-.4.93-.46,1-.95,1.07h0Zm2.95-4.87.6,2.07H152.7Zm8.66-21c.07.64,1,.44,1-.11C163,26.28,161.92,26.89,162.11,27.38ZM157.22,122h0a.67.67,0,0,0,.28-.06.81.81,0,0,0,.14-.12s0,0,.06,0c.18-.2.5-.26,1.37-.26h16.79a4.84,4.84,0,0,0,4.86-5.13v-27s0,0,0,0V56.32H134.38V89.39s0,0,0,0l0,27a4.85,4.85,0,0,0,4.87,5.13h16c1.11,0,1.26,0,1.59.32A.62.62,0,0,0,157.22,122Zm22.24-5.58a3.61,3.61,0,0,1-3.59,3.85H159.08a5.63,5.63,0,0,0-1.2.09l0-30.28h21.56ZM135.65,57.6h43.79V88.79H135.65Zm20.94,62.79a6.64,6.64,0,0,0-1.35-.08h-.86l-15.1,0a3.62,3.62,0,0,1-3.6-3.85l-.05-26.33h21Zm-28.12-73v4.22c0,1.19,0,1.26-.76,1.25v.45l1.55,0c.5,0,1,0,1.5,0v-.44c-.68,0-.71-.14-.72-1V47.41h.61c.29,0,.67,0,.67.51a4.58,4.58,0,0,1-.07.53h.51l.38-1.73h-.4a.52.52,0,0,1-.25.1,5.3,5.3,0,0,1-.86,0h-2.15c-.31,0-.76,0-.92,0a.56.56,0,0,1-.29-.12h-.37c-.17.65-.24,1-.46,1.73H127C127.3,47.47,127.6,47.41,128.47,47.41Zm3.06,58.72c0,.63-.15.65-1.05.67h-2.15c-1.27,0-2,0-2.5.73a2.71,2.71,0,0,0-.48,1.73,2.45,2.45,0,0,0,.54,1.78,2.69,2.69,0,0,0,2.2.74c1.85,0,2.37,0,2.85.06s.58.18.59.67H132c0-.33,0-.65,0-1s0-.63,0-1.1h-.43c0,.38,0,.54-.29.61a13.62,13.62,0,0,1-2.24.08,12.46,12.46,0,0,1-1.66,0,1.58,1.58,0,0,1-1.09-.57,1.26,1.26,0,0,1-.22-.73,1.18,1.18,0,0,1,.24-.77,1.45,1.45,0,0,1,1-.51,12.21,12.21,0,0,1,2.09-.08c.38,0,1.45,0,1.8,0s.41.27.4.65H132c0-.57,0-1,0-1.52s0-1,0-1.42Zm28.08,24.34c-1.34,0-1.81-1.26-1.81-2.55a3.33,3.33,0,0,1,.57-2.07,1.51,1.51,0,0,1,1.25-.54,1.53,1.53,0,0,1,1.51,1.5l.46,0c-.05-.7-.07-.91-.09-1.65a8.37,8.37,0,0,0-2.12-.35,3,3,0,0,0-3.16,3.16,2.82,2.82,0,0,0,3,3.06,5.56,5.56,0,0,0,2.19-.49l.29-1.72-.46,0C161.1,129.43,160.87,130.47,159.61,130.47ZM126,118.27c0-.47.08-.5,1-.83l3.92-1.29,1.21-.37-.37-1.15-.91-.33-1.54-.6-1.3-.52-1-.42c-.92-.39-1-.46-1.06-.94h-.45c0,.4,0,.73,0,1.11s0,.64,0,1H126c0-.16,0-.49.36-.49a7,7,0,0,1,1.49.44v1.7l-.68.2a4.17,4.17,0,0,1-.86.24c-.3,0-.31-.28-.33-.48h-.43c0,.47,0,.92,0,1.39s0,.88,0,1.38Zm2.37-4.25,2.07.75-2.07.61Zm-2.89-42.91c0-.64.14-.66,1.09-.66h3c1.46,0,1.47,0,1.5.72h.43c0-.46,0-.79,0-1.12s0-.66,0-1H131c0,.66-.09.71-1.36.72l-3.19,0,5-3.88v-.52h-1.32c-.08,0-3.72,0-4.25-.06s-.48-.23-.49-.64H125c0,.34,0,.69,0,1s0,.69,0,1h.42c0-.67.06-.71,1.12-.73h2.38c-1.28,1-2.59,2-3.92,2.92,0,.41,0,.76,0,1.15s0,.65,0,1Zm89.16-25.44c-.45-.71-.78,0-2.23-.28a4.76,4.76,0,0,1-2.87-2.49,72,72,0,0,1-4.07-10.35c-1.65-4.89-3.23-8-8.69-10.16a28,28,0,0,0-4.93-.83c1.15-1,2.71-1.23,3.11-3.49-2.52.41-3.24-.64-7.25,1.3a9.42,9.42,0,0,0,2-2.35c-2.67-.47-2.77.48-5.22,1.51-.67-.09,1-1.7.23-1.54-.84-.28-1.72,1.37-2.94,1.62-2.25.49-2.87-1-.16-1.32a16.11,16.11,0,0,0,3.65-1.23c1.08-.51,1.43-1.13.45-2a3.9,3.9,0,0,0,1.83.24c.65-.41.2-1.34-.35-1.77a4.82,4.82,0,0,0,2.06-.55,3.83,3.83,0,0,0,.54-1.65,3.7,3.7,0,0,0,1.3,0c.1,1.32.66,2.88,2.22,3.13a4.35,4.35,0,0,1,.19-2.21c.15-.39.06-.33.3-.12a12.56,12.56,0,0,0,5.8,5,2.27,2.27,0,0,1,1,3.43.88.88,0,0,0,.49.28,1.53,1.53,0,0,0,1.48-.47c.06-.16.13-.32.18-.46a3.2,3.2,0,0,0,2.77.71,1.73,1.73,0,0,0,.18-1.08c3.19-1.59,2.92,4.48,5,5.08a1.18,1.18,0,0,0,0-.92c1.09.13,1.81,1.46,3.7,1.67-.8-1-1.17-1.26-1.3-2.4.23-.07.44-.14.65-.19,0-1.5-.29-2.7-1.94-3a1.88,1.88,0,0,0,.09-1.41c-1.13.27-5,1.34-6.76-1.37a2.88,2.88,0,0,0,1.67-2.68c-.9-.29-1.54.22-2.22.36a2.75,2.75,0,0,0-.93-1.57c-.22-.21-.4-.21-.55,0,0,2.59-3.44,3.53-3.83,1.76-.11-1.65.24-2.06,1.86-2.41a3.28,3.28,0,0,1-.59-1.47c-.05-.42.48-.1.87-.51a8.21,8.21,0,0,1-1.79-1.87,1.25,1.25,0,0,0,.81-.29c-.91-1-.89-1.86-5.42-3.78a10.94,10.94,0,0,0-2.78-.58,13.33,13.33,0,0,0-4.23.4,4.35,4.35,0,0,1-2.37.44,3.33,3.33,0,0,0,0-2.78c-.32-1-2.54-.19-3.31,1.49-.1.3-.14.35-.12,0A2.87,2.87,0,0,0,180.92,0c-1.28.24-1.76,1.31-2.31,2.6a2,2,0,0,0-.25.41c-.44-.93-.77-1.3-1.07-1.39-.43.1-.74.64-1.16,1.37-2.08,4.19-2.78,7.86-7.17,7.11-2.33-.53-.51-5-3.57-5.1A3,3,0,0,1,165,7.5c-.18.19-.14.36-.55,0a8.21,8.21,0,0,0-7.65-2.12,10.21,10.21,0,0,0-4.65,2.48c-.42.37-.37.2-.55,0a3.31,3.31,0,0,1-.1-2.68c-2.87-.9-4.57,4.7-6.43,5.1C140.72,11,140,7.18,137.94,3c-.42-.73-.73-1.27-1.16-1.37-.31.09-.62.46-1.07,1.39a1.37,1.37,0,0,0-.25-.41c-.55-1.29-1-2.36-2.32-2.6a2.71,2.71,0,0,0-1.25,2.67c0,.44.07.28-.15-.09-.5-1.3-3-2.49-3.31-1.47a3.37,3.37,0,0,0,0,2.78,4.35,4.35,0,0,1-2.37-.44,13.36,13.36,0,0,0-4.24-.4,11,11,0,0,0-2.77.58c-4.53,1.92-4.51,2.8-5.41,3.78a1.21,1.21,0,0,0,.8.29,8.21,8.21,0,0,1-1.79,1.87c.39.41.91.09.87.51a3.28,3.28,0,0,1-.59,1.47c1.62.35,2,.76,1.87,2.41-.4,1.77-3.8.83-3.84-1.76-.15-.21-.33-.21-.55,0a2.86,2.86,0,0,0-.93,1.57c-.68-.14-1.32-.65-2.22-.36a2.88,2.88,0,0,0,1.67,2.68c-1.8,2.71-5.63,1.64-6.76,1.37a1.88,1.88,0,0,0,.09,1.41c-1.65.26-1.94,1.46-1.94,3,.22.05.42.12.65.19-.13,1.14-.5,1.42-1.29,2.4,1.89-.21,2.59-1.54,3.7-1.67a1.1,1.1,0,0,0,0,.92c2.08-.6,1.81-6.67,5-5.08a1.73,1.73,0,0,0,.19,1.08,3.18,3.18,0,0,0,2.76-.71l.19.46a1.52,1.52,0,0,0,1.48.47.85.85,0,0,0,.48-.28,2.28,2.28,0,0,1,1-3.43,12.44,12.44,0,0,0,5.81-5c.24-.21.15-.27.3.12a4.35,4.35,0,0,1,.19,2.21c1.56-.25,2.13-1.81,2.22-3.13a3.7,3.7,0,0,0,1.3,0,4,4,0,0,0,.54,1.65,4.87,4.87,0,0,0,2.06.55c-.55.43-1,1.36-.34,1.77a2.59,2.59,0,0,0,1.9,0c-1,.82-.58,1.5.5,2a9.18,9.18,0,0,0,3.54.81c2.89.26,2.43,2,0,1.53-1.22-.23-2-2-2.86-1.69-.62.15.28,1.41-.4,1.49-2.45-1-2.2-2-4.87-1.49a9.59,9.59,0,0,0,2,2.35c-4-1.94-4.73-.89-7.24-1.3.41,2.26,2,2.44,3.11,3.49a28.12,28.12,0,0,0-4.93.83c-5.46,2.19-7,5.27-8.69,10.16a70.86,70.86,0,0,1-4.07,10.35,4.74,4.74,0,0,1-2.87,2.49c-1.45.29-1.78-.43-2.22.28-.66,1.78.36,3.84,3.15,3.61-.24,1.9.23,2,.19,4.33a6.15,6.15,0,0,0,3.5-1.84,6.29,6.29,0,0,0,.32,2,3.69,3.69,0,0,0,2.42-1.25c-.73,2-1.3,2.55-3.75,3-.21,2,2.07,1.9,3.14,1.48-.84,2.09,1.72,2.55,3.46,1.66a2.63,2.63,0,0,1-.14,2.22c-2.42,3.94-7.51,9.88-5.45,15,3.23-1.36,5.13-6.52,5.89-7.77,1.11,1.67-6,10.17-3.66,13.58.65-1.31,1.49-1.39,2.72-2.31a33.9,33.9,0,0,0-5.6,22.2,10.82,10.82,0,0,0,.93,3.49c.85,1.92,6,8.27,3.25,9.9-.33.12-.36.33-.1.65,1.38,1.72,4.5,1.69,5.07-1.2,4.08,2.06,6.46-2.33,5.68-5.65-.69.64-3-1-4,0,1.72-3.35-.9-6.83-4-5-.3.13.07.42.2.63a1.79,1.79,0,0,1,0,1.45,1.62,1.62,0,0,1-1.06,1,4.11,4.11,0,0,1-4-2.31c-3.79-7.06,5.12-18.25,8.54-24.16a18.51,18.51,0,0,0,1.9-4.86c.38,1.24,1.16,1.83,2,1.35-1.25-2-.08-6.65-1.87-9.24,2.87.34,2.8-3.71,2.19-4.44-1.24,1.81-2.9,1.17-3.18-.43a4.72,4.72,0,0,0,.21-3.73c-.37-1.48-1.26-3-1.35-3.75.46,1,2.15,1.68,2.7,2.41.27-1.53-.87-2.87-2.58-7.13,1,.12,2.11.22,2.55-1.11-1.69-.42-1.6-2.74-2.19-3.7a2.82,2.82,0,0,0,2-.12c.15-.88.32-3.39-2.25-6.09-1-.67-.33-.52.46-.36,2.61,1,4.76-1.46,7.79-1.9,7.37-1,8.56,2.35,14,3.94,1.58-3.45,4.74-2.5,8-2.16a6.74,6.74,0,0,0,2.52,4h-28v83.9c.17,5.15,3.63,7.67,7.06,7.62H153c2.55.37,3.1,1.27,4,2.85.94-1.58,1.41-2.48,4-2.85h25.58c2.79,0,6.25-3.11,6.25-7.44l0-84L157.69,43c1.33-2,4.28-2.48,7-3.91,4.39.49,9.71-.95,10.7,2.06,5.47-1.59,6.66-4.89,14-3.94,3,.44,5.18,2.91,7.79,1.9.8-.16,1.44-.31.46.36-2.57,2.7-2.4,5.21-2.25,6.09a2.79,2.79,0,0,0,2,.12c-.57,1-.49,3.28-2.18,3.7.44,1.33,1.55,1.23,2.55,1.11-1.72,4.26-2.84,5.6-2.58,7.13.55-.73,2.24-1.4,2.7-2.41-.09.74-1,2.27-1.35,3.75a4.64,4.64,0,0,0,.22,3.73c-.29,1.6-2,2.24-3.18.43-.62.73-.68,4.78,2.18,4.44-1.79,2.59-.61,7.25-1.87,9.24.87.48,1.65-.11,2-1.35a18.86,18.86,0,0,0,1.9,4.86c3.41,5.91,12.33,17.1,8.55,24.16a4.13,4.13,0,0,1-4,2.31,1.62,1.62,0,0,1-1.06-1,1.83,1.83,0,0,1,0-1.45c.13-.21.51-.5.2-.63-3.1-1.85-5.71,1.63-4,5-1-1-3.32.64-4,0-.78,3.32,1.59,7.71,5.68,5.65a2.81,2.81,0,0,0,5.07,1.2c.26-.32.23-.53-.09-.65-2.71-1.63,2.4-8,3.24-9.9a10.56,10.56,0,0,0,.92-3.49,33.77,33.77,0,0,0-5.59-22.2c1.24.92,2.07,1,2.73,2.31,2.36-3.41-4.78-11.91-3.67-13.58.76,1.25,2.67,6.41,5.88,7.77,2.07-5.11-3-11-5.44-15a2.71,2.71,0,0,1-.14-2.22c1.75.89,4.3.43,3.46-1.66,1.07.42,3.35.49,3.14-1.48-2.46-.43-3-1-3.75-3a3.69,3.69,0,0,0,2.42,1.25,6,6,0,0,0,.31-2,6.24,6.24,0,0,0,3.52,1.84c-.05-2.35.42-2.43.19-4.33C214.22,49.51,215.24,47.45,214.59,45.67Zm-2.91-27.75c.18.33-.09.65-.14,1,1.58.63,1.84,1.18,1.92,2.55a1.86,1.86,0,0,1-1.22-.52,1.12,1.12,0,0,1-.21,1c-1.67-1.21-1.69-3.26-3.44-3.81A6.14,6.14,0,0,0,211.68,17.92ZM200,7.28c-1.78.1.84,2,.8,2.23-1.24-.15.13,2-.15,1.74-1.47.43-1.92,1.17-1.54,3.05-.64-.14-.6-.29-1.07-.61-.15-.14-1.15-1.28-.22-1.18,0-.11-1.51-1.21-.14-.7,0-.52-1.82-1.41.08-.78-.13-.75-2.24-1.75,0-1-.24-.68-2.72-1.84-.18-1.05-.13-.72-3.18-1.81-.46-1.15-.8-1-2.56-1.32-.17-.91a23.28,23.28,0,0,0-2.44-1.33c2.67.77.27-.67-.51-.83-.27-.37,0-.11-.87-.81C194.43,3.31,198.9,5.5,200,7.28Zm-8-1.17a4.53,4.53,0,0,0-.29-2c4.13.52,3.18,8.6,7.37,11-2.8-.18-4.66-4.87-5.59-4.46a3.89,3.89,0,0,0-.55,2.28c-1.48-.57-1.49-3.05-1.23-4.12a1.3,1.3,0,0,1-1-.66C191.25,7.84,191.63,7.47,192,6.11ZM102.13,21.94a1.15,1.15,0,0,1-.21-1,1.84,1.84,0,0,1-1.21.52c.08-1.37.34-1.92,1.91-2.55,0-.34-.32-.66-.13-1a6.11,6.11,0,0,0,3.08.21C103.82,18.68,103.81,20.73,102.13,21.94Zm11.41-10.69c-.29.27,1.07-1.89-.16-1.74,0-.27,2.58-2.13.8-2.23,1.09-1.78,5.55-4,6.89-3.31-.85.7-.61.44-.87.81-.78.16-3.18,1.6-.5.83a22.61,22.61,0,0,0-2.45,1.33c2.39-.41.63-.11-.17.91,2.72-.66-.34.43-.45,1.15,2.54-.79.07.37-.18,1.05,2.2-.77.1.23,0,1,1.91-.63.09.26.08.78,1.38-.51-.11.59-.13.7.93-.1-.08,1-.23,1.18-.46.32-.42.47-1.07.61C115.45,12.42,115,11.68,113.54,11.25Zm8.89-2.45c.27,1.07.27,3.55-1.22,4.12a3.82,3.82,0,0,0-.56-2.28c-.93-.41-2.77,4.28-5.59,4.46,4.19-2.43,3.24-10.51,7.37-11a4.68,4.68,0,0,0-.28,2c.4,1.36.77,1.73,1.3,2A1.32,1.32,0,0,1,122.43,8.8Zm-8.58,106.32a2.3,2.3,0,0,1-2.79.44c3.43-2.42-1.88-7.59-2.21-8.29C110.12,108.5,116,112,113.85,115.12Zm-.78-10.77c2.38-.23,3.27,2.56,2.44,4.85,3.15-1.12,3.15.47,4.75,0-1.92,5.34-8.58.21-11.85-2.91C111.81,108.21,113.79,106.68,113.07,104.35Zm90,11.21a2.3,2.3,0,0,1-2.79-.44c-2.13-3.13,3.72-6.62,5-7.85C205,108,199.68,113.14,203.11,115.56Zm-9.2-6.4c1.6.51,1.6-1.08,4.74,0-.82-2.29.07-5.08,2.45-4.85-.72,2.33,1.26,3.86,4.65,1.9C202.48,109.37,195.82,114.5,193.91,109.16Zm2.67-85.59c-.61-.16-1.59-.26-1.75.09a5.79,5.79,0,0,1,2.51.82,8.73,8.73,0,0,0-2.45,0c.72.13,2.07.38,2.29.72a2.69,2.69,0,0,0-1.67.11,3.72,3.72,0,0,1,2.05.65,6,6,0,0,0-2.63-.06c.24.14,1.77.26,2.19.66a5.68,5.68,0,0,0-1.87,0c1.07.13,2.42.48,2.43.69a10.85,10.85,0,0,0-2.48-.07,4.91,4.91,0,0,1,2.43.83c-8.17-1.34-13.72.36-19.58.83-2.21-1.16-4.64.17-7.22-.29.43-.16,1.49-.1,2-.32a25.19,25.19,0,0,1-2.92-.5c.6-.09,3.71.2,4.3-.13a18.8,18.8,0,0,1-3.47-.36c.4-.13,2,0,2.27-.15a11.7,11.7,0,0,1-2.95-.67c.11,0,3.77.26,3.73.13a19.82,19.82,0,0,1-2.86-.53c0-.11,1.47,0,2.14-.17a9.22,9.22,0,0,1-2.7-.65,33.71,33.71,0,0,0,5,.19C185.94,25.05,193.06,20.58,196.58,23.57Zm-2.35-5c-6.56,3.54-15.43,7.82-24.81,6.07a27.58,27.58,0,0,0,3.13-.15,16.63,16.63,0,0,1-2.22-.39A8.43,8.43,0,0,0,172,24a11,11,0,0,1-2.53-.82c.49.07,3,.71,3.37.47a12.11,12.11,0,0,1-2.15-.64,7.68,7.68,0,0,0,1.6.14,9.13,9.13,0,0,1-2.45-.94,17.09,17.09,0,0,0,3.14.62,14.68,14.68,0,0,1-2-.83c.75.1,1.77.43,3,.59C186.07,23.71,185.47,17.82,194.23,18.56Zm-5.07-1.24c-6.12,4-7.66,4.83-9.79,5a18.21,18.21,0,0,1-5.38,0,13.18,13.18,0,0,1-2.4-.8,10.59,10.59,0,0,0,1.64.28,5.66,5.66,0,0,1-1.13-.55,11.72,11.72,0,0,0,1.67.24,10,10,0,0,1-2.52-1.08,9.79,9.79,0,0,0,2,.55,5.34,5.34,0,0,1-1.4-.72,14.39,14.39,0,0,0,1.89.43,15.06,15.06,0,0,1-2.64-1.19c.22,0,1.62.56,1.9.54a4.36,4.36,0,0,1-1.33-.89C182.16,24,186.72,16.1,189.16,17.32Zm-.65-6.9c-.21.5-2.72.89-2.84,1a16.36,16.36,0,0,1,2.81-.15c1.5.74-3.38.87-4,1.1,1.07.2,2.58.59,2.53.91.74.68-.44.56-2.37.3.3,0-2.87.74-4.28,1.22,1.21.54,5.59-.46,4.89.42.15.22-4.92,1.42-5.78,2.22-.6,1.05.51,1.71,1.87,1.6,1.68-.26,2.46-2.18,3-1.7,0,.55-2.93,3.55-7.06,3.11A17,17,0,0,1,172,18.82a13.78,13.78,0,0,0,2.29.19,22.1,22.1,0,0,1-3.62-1.34c.38,0,1.91.63,2.39.45a4,4,0,0,1-1.59-.64,7.11,7.11,0,0,0,2.28.31,23,23,0,0,1-3.65-1.3,9.37,9.37,0,0,0,2.65.52c-.36-.07-1.43-.33-1.57-.61a7.29,7.29,0,0,0,2,.23,16,16,0,0,1-3.55-1.25,13.85,13.85,0,0,0,2.55.55c-.22-.08-1.16-.32-1.36-.65a7.2,7.2,0,0,0,1.9.3,8.6,8.6,0,0,1-3.48-1.27,23,23,0,0,0,2.52.74c-.35-.18-1.18-.37-1.34-.72,3.19,1.2,13.36-2.24,16.74-5.61-.19.77-.17.88-.56,1.24.05.21,1.16-.25,1.16-.26.06.17-.79.78-.82.72C187.27,10.45,188.51,10.39,188.51,10.42Zm-20.48,0c5.13,1.77,7.68-3.83,9.31-7.93,2.09,2.57-3.3,7.25-3.8,7.78,4.75-1.64,6.82-5,7.24-9.46,1.3.22,1,1.44,1.1,2.91.26,0,1.57-2.84,3.13-2C184.07,5,180.55,8,179.41,9a19.79,19.79,0,0,0,7.22-4.6A9.14,9.14,0,0,1,184.69,7a22.15,22.15,0,0,0,2.64-2.37,18.25,18.25,0,0,1-2.08,2.51S187,5.73,187,5.77a18.11,18.11,0,0,1-2.35,2.32C185,7.92,188,5.67,188,5.7a13.09,13.09,0,0,1-2.46,2.37A8.13,8.13,0,0,0,187,7a12.38,12.38,0,0,1-2.16,1.91c.3-.1,2.76-1.86,3.09-2.06a24.88,24.88,0,0,1-2.48,2.34c0,.16,1.61-1.08,1.54-.92-2.52,3.49-11.43,5.25-15.5,5.05-1.22-.06-3.35-.55-3.68-.95a9.23,9.23,0,0,0,2,.34,5.31,5.31,0,0,1-1.18-.5,11,11,0,0,0,1.58.19s-2.92-.71-3-1a15.8,15.8,0,0,0,2.33.48,2.61,2.61,0,0,1-1.23-.6,5.66,5.66,0,0,0,1.81.34c-.41,0-2.95-.91-3-1.21a12.25,12.25,0,0,0,2.22.64C169.12,11,168.19,10.67,168,10.42ZM165.7,5.3c1,1,.58,3.26.25,3.56a4.37,4.37,0,0,0-.82-.9A3.28,3.28,0,0,0,165.7,5.3ZM154,9.81a9.06,9.06,0,0,1,3.51.18v.38l1.11.36v.56l1-.19a2.22,2.22,0,0,0-.09.37c.21,0,.42.12.65.19a2.37,2.37,0,0,0,.09.36,3.6,3.6,0,0,1,.55.07c-.37.37.05-.05-.13.6.12,0,.49-.28.62-.28s.18,1,.18.85c.74-.59.33,0,.88-.11.57.2.3.33.46.48l.57-.25L164,14l.5-.48c0-.23.35.13.5.32.17,0,.17,0,.4,0a7.49,7.49,0,0,0-.62-3.62c-.78-2-4.12-4.14-6.8-4.16-.52,0-1.66-.09.12-.41,2.7-.22,6.6,1.83,7.79,4.67a10.8,10.8,0,0,1,.92,3.31c.67,4.78-2.72,15.65,2.08,18.51-.08.72,0,.43-.6,1-1.54.08-4.91-7.4-5.05-11.7A7.51,7.51,0,0,1,164.66,20a12,12,0,0,0-.41-4.16c-6.09-.64-6.28-5.56-10.21-5.63Zm-.19,19H155c0,.14.12.3.19.46a2.8,2.8,0,0,0,2.86-.46c.53-2.66,2.2-5.94,4.72-6.83.25,3.05,2.48,10.53,5.26,11.59a16.19,16.19,0,0,1-3.11,3,45.56,45.56,0,0,1-6,2.91,21.1,21.1,0,0,0-4.07,2.69c-1.06.75-.87,1.08-1.51,1-1.48-.2-3.2-2.3-3.94-3.21-1.07-2.16.79-4.48,1.53-5.58.81-.66,1.47.25,2.06,1.25C154.77,35.6,154.06,30.07,153.85,28.85Zm-1.65-20c.31,0,.57.19.88.17.4.83,1.68.54.21,1.13a5.66,5.66,0,0,0-2.95,1.69A4.9,4.9,0,0,1,152.2,8.84ZM151,5.62c-.21,1-.29,2.18.57,2.8a8.92,8.92,0,0,0-2,2.48C148.82,8.91,149.64,6.37,151,5.62Zm-1,6.72c.24.17.47.73.89.41.49.79,2.35,1,.73,1.05A5.83,5.83,0,0,0,148,15.47,4.88,4.88,0,0,1,150,12.34Zm-17.3,6.73c1.36.11,2.47-.55,1.85-1.6-.85-.8-5.92-2-5.76-2.22-.7-.88,3.23-.87,4.44-1.41-1.06,0-5,.25-4.71.31-2,.26-2.22-.58-1.49-1.26,0-.32,2.11-.42,3.17-.49-.58-.23-5.26-.07-3.73-1a16.27,16.27,0,0,1,2.92,0c-.13-.14-2-.35-2.25-.85,0,0,1.23,0,1.54,0,0,.06-.87-.55-.82-.72,0,0,1.12.47,1.17.26-.4-.36-.38-.47-.57-1.23,3.39,3.36,12,6.62,15.14,5.42-.15.35-1,.54-1.34.72a23.42,23.42,0,0,0,2.54-.74,8.76,8.76,0,0,1-3.48,1.27,7.26,7.26,0,0,0,1.89-.3c-.2.33-1.14.57-1.35.65a13.93,13.93,0,0,0,2.54-.55,15.85,15.85,0,0,1-3.55,1.25,7.29,7.29,0,0,0,2-.23c-.14.28-1.21.54-1.57.61a9.37,9.37,0,0,0,2.65-.52,23,23,0,0,1-3.65,1.3,7.05,7.05,0,0,0,2.27-.31,3.89,3.89,0,0,1-1.58.64c.48.18,2-.48,2.39-.45A22.1,22.1,0,0,1,139.79,19a13.78,13.78,0,0,0,2.29-.19,17,17,0,0,1-5.29,1.66c-4.13.44-7-2.56-7-3.11C130.29,16.89,131.06,18.81,132.74,19.07Zm-7.8-1.75c2.44-1.22,7,6.72,17.5,1.79a4.43,4.43,0,0,1-1.32.89c.28,0,1.68-.53,1.89-.54a14.84,14.84,0,0,1-2.65,1.19,14.21,14.21,0,0,0,1.9-.43,5.23,5.23,0,0,1-1.41.72,9.7,9.7,0,0,0,2-.55,10,10,0,0,1-2.52,1.08,11.72,11.72,0,0,0,1.67-.24,5.66,5.66,0,0,1-1.13.55,10.38,10.38,0,0,0,1.64-.28,13,13,0,0,1-2.41.8,18.12,18.12,0,0,1-5.37,0C132.6,22.15,131.06,21.28,124.94,17.32Zm-5.07,1.24c8.76-.74,8.16,5.15,20.27,4,1.22-.16,2.26-.49,3-.59a14.68,14.68,0,0,1-2,.83,17.38,17.38,0,0,0,3.15-.62,9.26,9.26,0,0,1-2.47.94,7.72,7.72,0,0,0,1.61-.14,11.73,11.73,0,0,1-2.16.64c.42.24,2.89-.4,3.38-.47a11,11,0,0,1-2.53.82,8.39,8.39,0,0,0,1.67.08,16.77,16.77,0,0,1-2.21.39,27.37,27.37,0,0,0,3.13.15C135.3,26.38,126.42,22.1,119.87,18.56Zm-2.89,8c.42-.4,2-.52,2.19-.66a6,6,0,0,0-2.63.06,3.75,3.75,0,0,1,2-.65,2.73,2.73,0,0,0-1.68-.11c.22-.34,1.58-.59,2.3-.72a8.73,8.73,0,0,0-2.45,0,5.84,5.84,0,0,1,2.51-.82c-.15-.35-1.14-.25-1.75-.09,3.53-3,10.63,1.48,21.24,1.87a33.79,33.79,0,0,0,5-.19,9.08,9.08,0,0,1-2.7.65c.67.2,2.14.06,2.15.17a20.12,20.12,0,0,1-2.88.53c0,.13,3.63-.14,3.74-.13a11.73,11.73,0,0,1-2.94.67c.21.13,1.86,0,2.26.15a18.8,18.8,0,0,1-3.47.36c.6.33,3.69,0,4.3.13a24.5,24.5,0,0,1-2.92.5c.5.22,1.57.16,2,.32-9.14,1.63-15.42-2.4-26.81-.54a5,5,0,0,1,2.44-.83,10.78,10.78,0,0,0-2.47.07c0-.21,1.36-.56,2.41-.69A5.62,5.62,0,0,0,117,26.57Zm-14.79,22A1.79,1.79,0,0,1,100.47,47c6.28,1.18,9.61-15.19,10-16.4C109.61,37.48,107.09,48.63,102.19,48.61Zm6.86,9c2.35-1.09,2.68-4.22,1.18-4.6.6.16-1.72,5.46-4.2,2.9,3,0,4.49-4.33,3.37-5.66-.1.31-.74,2.59-2.28,2.8a60.66,60.66,0,0,0,2.37-9.51c-.11-.06-2.14,9.23-6,9.06.59,0,6.33-11.14,6.71-17.07,0,3.16-.19,9,.93,12.78,1.78,7.54,5,9.49,4.89,12.94-3.42-2.25-3.73-3.06-3.43-6.82a6.73,6.73,0,0,1-.4,2.34C111.5,58.08,110.27,59,109.05,57.66Zm6.62,7c-.51,2-3.22,1.1-2.82-.78A1.9,1.9,0,0,0,115.67,64.63ZM106.85,75c.34-5.61,4.77-9,6.32-15.7a.72.72,0,0,1,.19.24C112.82,63.9,111.51,71.36,106.85,75Zm5.34-8.09c1.62.46,2.58-.08,3.58-1.48A1.94,1.94,0,0,1,112.19,66.9Zm-2.88,12.57c1.36-4.38,5.82-7.8,4.66-10.87a2.67,2.67,0,0,0,1.65-.58C118.11,72.61,110.76,78.72,109.31,79.47Zm11-15.08c.73,3.18-3.31,3.77-4.08.82A2.53,2.53,0,0,0,120.33,64.39Zm-2.68,4.17c3.11,8.91-10.49,21.2-11.05,30.08C105,92.75,116.14,78.84,117.65,68.56Zm-.3-13.5c.22-.13-1.08.18-1.66-1.2a7.25,7.25,0,0,0,.41,2.46.69.69,0,0,1-.93.44c-4.37-6.33-4.7-14.58-4.63-16.3C111,45.91,117,53.41,117.35,55.06Zm.53-5.66c0,.59-.8,1.09-1.84.65-2.53-.75-5.24-8.12-5.44-12.89C111,39.35,114.36,49.19,117.88,49.4ZM116.4,38.67c-.81-.31-.62.22-.8.27-1.28.14-3.43-3.13-4.07-5.12,1.11,6.15,6,8.52,6.35,11.27a2.13,2.13,0,0,1-1.74-.25,17.48,17.48,0,0,1-5.25-10.42c-.53-3.8,1.45-9.29,5-9.77-1.44,1.62-4.49,5.3-2.24,7.53,1,1,3.72-.1,3.63-1.62,2.07.93.45,3.87-1.89,3.47a4.07,4.07,0,0,1,4.21,3.48c-2.75.67-7.11-2.82-7.67-7,.7,4.75,4.13,7.81,7.74,7.39C119.21,39.7,117.19,38.81,116.4,38.67Zm18.15-4.48c0,.11-3.09,0-3.12.1s2.7.43,2.67.55-2.19,0-2.2.12,2.76.47,2.75.8c0,.1-3.25-.27-3.25-.17s2.51.72,2.52.82-2.34-.18-2.33-.1A15.07,15.07,0,0,1,134,37.37a16.84,16.84,0,0,1-2.67-.63,6.35,6.35,0,0,1,1.16.91c-3.33-1.16-5.87-1.82-11.4.06a10.46,10.46,0,0,1,2.32-1.32c-.49-.32-1.55-.11-2.73.07a6.93,6.93,0,0,1,3-1.21c-.24-.28-2.49-.08-3.23.13.56-.71,2.86-1.2,2.74-1.25s-3.6.44-3.6.44a7.75,7.75,0,0,1,3.14-1.35,14.52,14.52,0,0,0-2.92,0c.42-.39,3.22-.76,3.47-.9a14.8,14.8,0,0,0-4.1.15,9.86,9.86,0,0,1,3.46-.93,8,8,0,0,0-2.9-.23c.22-.33,3-.56,3.77-.7a27.74,27.74,0,0,0-4.3-.49c.38-.36,2.35-.5,3.41-.65-.14-.36-2.66-1-3.27-.88,4-1.1,7.76-.35,17.12.82,2,.26,4.86-.15,5.74,0-.68.09-2.51.62-2.81.58.3.22,3.37-.14,3.39,0l-3.15.59c0,.14,2.93,0,3,.27-.27-.09-3.83.45-4.2.47.21.13,2.63-.12,2.74.28a25.11,25.11,0,0,0-4.68.24,9.15,9.15,0,0,1,2.31.34,25,25,0,0,0-3.08.05,5.92,5.92,0,0,1,1.68.4,21.4,21.4,0,0,0-4,.29c-.08.1,1.65.44,1.59.54s-2.31.05-2.36.15S134.59,34.08,134.55,34.19Zm3.52,6.17c-1.53-.17-2.69-2.87-1-3.84a2.94,2.94,0,0,1-1.61-2.58,8.08,8.08,0,0,0,5.09,2.89C138.51,36.92,136.78,38.73,138.07,40.36Zm1-4.46c-.24-.45.26-1,1-.88-.39-.77.57-2.17,1.76-2.17a4.41,4.41,0,0,0,3,4.5C143,37.06,140.57,36.79,139.11,35.9Zm3.46-22.57c-4.07.2-11.44-1.59-14-5.08-.07-.16,1.55,1.08,1.53.92a23.77,23.77,0,0,1-2.48-2.34c.34.2,2.79,2,3.1,2.06A11.68,11.68,0,0,1,128.59,7a8.15,8.15,0,0,0,1.52,1.07,13.38,13.38,0,0,1-2.45-2.37s3,2.21,3.34,2.39a18.23,18.23,0,0,1-2.34-2.33s1.7,1.39,1.71,1.36a17.07,17.07,0,0,1-2.09-2.51A21.29,21.29,0,0,0,130.93,7a8.85,8.85,0,0,1-2-2.58c1.21,1.5,3.22,3.79,5.71,4.63-1.15-1-4.66-4-5.6-7.25,1.57-.88,2.87,2,3.13,2,.07-1.47-.2-2.69,1.1-2.91.42,4.48,2.49,7.82,7.25,9.46-.51-.53-5.89-5.21-3.82-7.78,1.64,4.1,4.19,9.7,9.33,7.93a4.53,4.53,0,0,1-1.42.65,12.25,12.25,0,0,0,2.22-.64c-.06.3-2.6,1.21-3,1.21a5.72,5.72,0,0,0,1.81-.34,2.56,2.56,0,0,1-1.23.6,15.8,15.8,0,0,0,2.33-.48c-.05.28-2.93,1-3,1a10.56,10.56,0,0,0,1.56-.19,4.92,4.92,0,0,1-1.18.5,9.12,9.12,0,0,0,2.06-.34C145.93,12.78,143.79,13.27,142.57,13.33Zm5.12,2.94c-1.3,2.61.29,8.05,3.72,9a6.9,6.9,0,0,1-1-1.51,2.53,2.53,0,0,1-.75,0s-.11-.56-.1-.58.35-.09.56-.17a11.2,11.2,0,0,1-.4-2.12s-1.24,0-1.24,0-.09-.69-.09-.72,1.15-.1,1.16-.14-.06-2.07,0-2.11-1.38.06-1.37,0-.07-.48-.05-.53,1.46-.14,1.52-.28.25-1.2.26-1.26a1.42,1.42,0,0,1,.64,0c-.94,2.6-.06,8.34,1.44,9.21,0-.06.71.51.72.45s.48-.87.48-.95-.36-1.37-.35-1.44-1.15.18-1.14.1-.2-.7-.19-.77,1-.2,1-.28-.25-1.84-.24-1.91-1.22,0-1.21-.07,0-.47,0-.55,1,0,1.06-.13.11-1.75.12-1.84-1.18.05-1.17,0S151,17,151,16.9s1.42.09,1.43,0,.42-1.83.43-1.92-.55-.13-.65-.17,0-.22,0-.3a7,7,0,0,1,1.25.17c-.85,3.18-1,6.77.51,9.56a1.27,1.27,0,0,0,.47,0c0-.52.34-.86,1.1-1.05-.08-.06-.62-1.22-.52-1.31s-1.15.27-1.14.16a1.29,1.29,0,0,1-.09-.62,7.12,7.12,0,0,0,.94-.16,5.53,5.53,0,0,1-.17-1.45c-.25,0-.82.11-1.05.11-.14-.26-.11-.86-.06-.77s1-.07,1-.1a7.22,7.22,0,0,1,.08-1.66c.05,0-1,0-1,0s0-.51,0-.55.87,0,.93-.05a4.54,4.54,0,0,1,.36-1.25,1.92,1.92,0,0,1,.83.13,10.08,10.08,0,0,0,.42,7.17,2.38,2.38,0,0,0,.52-.28,2.28,2.28,0,0,0,0-.42,4.92,4.92,0,0,0,.68-.33s-.18-.91-.16-1-.85.05-.85-.06a1.69,1.69,0,0,1-.09-.47,7.72,7.72,0,0,0,.85,0c0-.16,0-.82,0-1s-1.12.05-1.12,0,0-.29,0-.46,1.13-.1,1.11-.19a5,5,0,0,1,0-1.19c0-.17.31-.2.5-.21a11.56,11.56,0,0,0,.45,4c.16,0,.26.14.42.12,0-.19,0-.82,0-1l1.11-.18a8.17,8.17,0,0,0,.09-.85s-.37,0-.42,0-.53.37-.6.34,0,.39,0,.37c-.3,0-.18,0-.34,0,.16-.74-.19-.35.68-.87a2.06,2.06,0,0,0,0-.34c-.18,0-.61-.16-.81-.18,0-.24-.08-.33,0-.32.21-.14,1.54.46,1.44-.13-1.8-1.29-4.23-3.64-6.23-4-.82-.13-.15-.23-.15-.35.05-.36-.09-.29-.31-.34-.33-.86.21-.24.19-.8.24,0-.48-.45-.22-.45,0-.13.32-.4.32-.53-.32-.06-.24-.17-.54-.22.05-.16.12-.32.18-.47,2.29-.67,3.8,1.18,4.24,1.49,3,3.54,5.16,3.71,6.57,4a9,9,0,0,1,.26,3.26c-7,5.49-5.36,6.65-8.64,8-.11-.09.31-.48.49-.87.45-.51,1.16-1.95.78-2.67a6.46,6.46,0,0,1-3.72,2.58,4.21,4.21,0,0,0,2.53.42c-.11.35-.18.29-.47.6a3.36,3.36,0,0,1-2,.55c-.79-.41-1.41-1.7-1.88-3C147.87,25,144.87,20,147.69,16.27ZM191.7,44l0,83a6.38,6.38,0,0,1-6.13,6.45l-24.64,0c-2.44.34-2.93,1-3.82,2.49-.9-1.5-1.38-2.15-3.82-2.49l-24.64,0a6.52,6.52,0,0,1-6.3-6.45l0-83,27.82,0c3.71,2.47,4.19,1.11,6.92,0Zm-25.63-6.62c-1.67,1.22-8.44,3.83-8.91,4.56-1.62,1.15-2.95,3.16-5,2.19a10.43,10.43,0,0,1-4.15-4c-.74-1.25-.21-3.11.78-5,1.61-2.72,3.65-2.66,4.95-2.18.12,0,0,.69.06.72a3.28,3.28,0,0,0-2.7.08c-.89.14-3.1,3.66-2.44,5.45.08,1.33,3,3.74,4,4.09,1.43.81,2.4-1.09,4.4-2.47,1.37-1,7.74-3.4,8.22-4.19,1.41-.76,3.35-3.19,4.15-4.29,2-2.59,5.48-4,7.53-3.44.26.23.53.64-.58.8C172.15,29,169,35.74,166.07,37.39Zm3.24,0a4.42,4.42,0,0,0,3-4.5c1.19,0,2.15,1.4,1.75,2.17.78-.08,1.28.43,1,.88C173.64,36.79,171.24,37.06,169.31,37.35Zm6.84,3c1.28-1.63-.44-3.44-2.44-3.53a8.08,8.08,0,0,0,5.09-2.89,2.93,2.93,0,0,1-1.6,2.58C178.84,37.49,177.68,40.19,176.15,40.36Zm17.29-3.9c-1.18-.18-2.24-.39-2.74-.07A10.51,10.51,0,0,1,193,37.71c-5.53-1.88-8.07-1.22-11.41-.06a6.78,6.78,0,0,1,1.17-.91,16.77,16.77,0,0,1-2.68.63,14.21,14.21,0,0,1,2.4-1.06c0-.08-2.34.19-2.33.1s2.52-.72,2.52-.82-3.25.27-3.26.17c0-.33,2.77-.79,2.75-.8S180,35,180,34.84s2.69-.43,2.67-.55-3.08,0-3.12-.1,2.07-.52,2-.64-2.29,0-2.36-.15,1.67-.44,1.59-.54a14.28,14.28,0,0,0-3.1-.11,7.62,7.62,0,0,1,1.71-.54,20.62,20.62,0,0,0-3.12.1,9.18,9.18,0,0,1,2.3-.61,16.84,16.84,0,0,0-4,.13c.11-.39,3.09-.66,3.31-.8-.38,0-2.94-.33-3.21-.24,0-.23,4.65-.28,4.65-.42l-2.1-.37c0-.11,2.53-.05,2.83-.25-.3,0-1.79-.47-2.47-.56.87-.16,3.19-.39,5.08-.62,5.64-.71,7.88-.95,12.08,0-.62-.15-3.13.52-3.28.88,1.06.15,3,.29,3.42.65a27.6,27.6,0,0,0-4.3.49c.71.14,3.53.37,3.76.7a8,8,0,0,0-2.9.23,10,10,0,0,1,3.47.93,14.88,14.88,0,0,0-4.11-.15c.24.14,3.05.51,3.47.9a14.51,14.51,0,0,0-2.92,0,7.94,7.94,0,0,1,3.15,1.35s-3.48-.49-3.61-.44,2.19.54,2.73,1.25c-.73-.21-3-.41-3.22-.13A6.83,6.83,0,0,1,193.44,36.46Zm2.85,8.63c.3-2.75,5.24-5.12,6.35-11.29-.64,2-2.8,5.28-4.08,5.14-.18,0,0-.58-.79-.27-.79.14-2.81,1-3.28-.78,3.61.42,7-2.64,7.74-7.39-.56,4.19-4.92,7.68-7.66,7A4.05,4.05,0,0,1,198.78,34c-2.35.4-4-2.54-1.89-3.47-.08,1.52,2.61,2.61,3.64,1.62,2.23-2.23-.81-5.91-2.25-7.53,3.55.48,5.53,6,5,9.77A17.53,17.53,0,0,1,198,44.84,2.11,2.11,0,0,1,196.29,45.09Zm0,4.31c3.52-.21,6.91-10.1,7.28-12.26-.2,4.77-2.91,12.15-5.45,12.91C197.08,50.49,196.25,50,196.29,49.4Zm.52,5.66c.37-1.65,6.38-9.15,6.81-14.6.08,1.72-.25,10-4.63,16.3a.69.69,0,0,1-.93-.44,7.2,7.2,0,0,0,.42-2.46C197.89,55.24,196.61,54.93,196.81,55.06Zm-3,9.33a2.53,2.53,0,0,0,4.08.82C197.14,68.16,193.11,67.57,193.84,64.39Zm13.73,34.25c-.57-8.88-14.16-21.17-11.06-30.08C198,78.84,209.15,92.75,207.57,98.64Zm-2.71-19.17c-1.46-.75-8.8-6.86-6.31-11.45a2.64,2.64,0,0,0,1.64.58C199,71.67,203.5,75.09,204.86,79.47Zm-6.47-14c1,1.4,2,1.94,3.59,1.48A1.94,1.94,0,0,1,198.39,65.42Zm.11-.79a1.89,1.89,0,0,0,2.81-.78C201.72,65.73,199,66.61,198.5,64.63ZM207.32,75c-4.67-3.63-6-11.09-6.51-15.46.11-.18,0-.08.18-.24C202.54,66,207,69.38,207.32,75Zm-2.64-31.4a60.66,60.66,0,0,0,2.37,9.51c-1.54-.21-2.18-2.49-2.28-2.8-1.13,1.33.35,5.71,3.37,5.66-2.49,2.56-4.8-2.74-4.2-2.9-1.5.38-1.17,3.51,1.18,4.6-1.22,1.34-2.45.42-3.17-.84a6.78,6.78,0,0,1-.41-2.34c.32,3.76,0,4.57-3.42,6.82-.14-3.45,3.11-5.4,4.89-12.94,1.11-3.76.94-9.62.93-12.78.38,5.93,6.11,17.08,6.71,17.07C206.83,52.82,204.78,43.53,204.68,43.59Zm7.3,5c-4.9,0-7.42-11.13-8.33-18,.44,1.21,3.77,17.58,10,16.4A1.78,1.78,0,0,1,212,48.61Zm-71.19,4.71V52.9c-.49,0-.66,0-.7-.48,0-.17,0-.46,0-.88V50.41l.42,0,1.1,1.94c.55.94.6.94,1.58,1h.91v-.4c-.31-.06-.43-.2-.82-.8l-1.29-2a1.82,1.82,0,0,0,1-.8,1.68,1.68,0,0,0,.2-.84,1.44,1.44,0,0,0-.78-1.34,3,3,0,0,0-1.35-.23l-1.49,0c-.56,0-1.13,0-1.7,0v.43c.64,0,.66.12.67,1.22v3.34c0,.92,0,1-.67,1v.42l1.58,0C140,53.29,140.36,53.31,140.79,53.32Zm-.7-5.92a1.53,1.53,0,0,1,1.1.23,1.38,1.38,0,0,1,.33,1A1.21,1.21,0,0,1,140.09,50Zm26.4,81.8a1.44,1.44,0,0,1-1.44,1.16c-.7,0-.72-.16-.72-1v-2.95c0-1,0-1.06.67-1.08v-.39l-1.46,0c-.41,0-.8,0-1.28,0v.39c.55,0,.62,0,.62,1.08v3c0,1,0,1.09-.62,1.08v.39c.54,0,.83,0,1.68,0,1.76,0,1.82,0,2.55,0,.18-.69.22-.85.43-1.52ZM128.27,78.46a3.11,3.11,0,0,0,3.35-3.28,3.25,3.25,0,0,0-3.37-3.41,3.17,3.17,0,0,0-3.35,3.37A3.24,3.24,0,0,0,128.27,78.46Zm-2.35-4.38a3.87,3.87,0,0,1,2.12-.57h0a3.77,3.77,0,0,1,2.62.64,1.34,1.34,0,0,1,.4,1,1.32,1.32,0,0,1-.4.94,3.65,3.65,0,0,1-2.4.64,4.37,4.37,0,0,1-2-.35,1.36,1.36,0,0,1-.86-1.25A1.2,1.2,0,0,1,125.92,74.08Zm6.94-25.37v3c0,1.09,0,1.16-.69,1.19v.43c1.05,0,1.61,0,2.51,0s1.54,0,2.31,0c.17-.84.21-1,.39-1.72L137,51.5a2.66,2.66,0,0,1-.65,1.07,1.66,1.66,0,0,1-1.08.23c-.74,0-.76-.25-.77-.79l0-1.8a7.32,7.32,0,0,1,1.07,0c.29.08.32.3.36.71h.46c0-.37,0-.72,0-1.08s0-.64,0-1h-.45c-.06.75-.14.76-1.44.78V48.19c0-.79,0-.82.53-.82,1,0,1.22.16,1.42,1.14l.47-.06c-.07-.67-.1-.88-.15-1.6l-3.22,0c-.35,0-.72,0-1.32,0v.44C132.83,47.31,132.85,47.34,132.86,48.71ZM165,13.87h0C165.12,14.05,165.08,14,165,13.87Zm23.1,87.44h-3.2c-1.06,0-1.14,0-1.16-.67h-.43c0,.49,0,1,0,1.46s0,.81,0,1.29h.43c0-.55,0-.61,1.17-.62h3.26c1,0,1.18,0,1.17.62h.43c0-.54,0-.83,0-1.69,0-1.77,0-1.84,0-2.56-.75-.18-.92-.23-1.66-.43l-.13.43c.5.18,1.26.44,1.26,1.45C189.22,101.29,189.05,101.29,188.08,101.31Zm-.92-7.64c-1.85,0-2.36,0-2.84-.06s-.58-.17-.59-.61h-.43c0,.3,0,.6,0,.94s0,.59,0,1h.43c0-.34,0-.49.28-.56a13.55,13.55,0,0,1,2.25-.08,10.07,10.07,0,0,1,1.66.05,1.57,1.57,0,0,1,1.08.52,1,1,0,0,1,.22.68,1,1,0,0,1-.24.71,1.43,1.43,0,0,1-.95.46,12.42,12.42,0,0,1-2.1.08c-.37,0-1.43,0-1.79,0s-.41-.24-.4-.59h-.44c0,.53,0,.95,0,1.41s0,.87,0,1.31h.43c0-.58.14-.61,1-.62h2.15c1.28,0,2,0,2.5-.69A2.35,2.35,0,0,0,189.9,96a2.17,2.17,0,0,0-.54-1.65A2.82,2.82,0,0,0,187.16,93.67Zm-6.58-40.35,1.11,0,1,0v-.44c-.16,0-.48,0-.48-.36a6.64,6.64,0,0,1,.44-1.5h1.69l.21.68a4.37,4.37,0,0,1,.24.87c0,.29-.28.31-.48.32v.43c.46,0,.92,0,1.39,0l1.38,0v-.44c-.47,0-.51-.08-.84-1.06l-1.28-3.91c-.19-.59-.25-.77-.37-1.22l-1.16.37-.32.91-.6,1.54-.52,1.3-.42,1c-.39.93-.46,1-.95,1.07Zm3-4.89.61,2.07h-1.36Zm-7,4.89v-.44c-.66,0-.7-.09-.72-1.36V48.34l3.88,5h.52V52c0-.09,0-3.73,0-4.26s.23-.47.64-.49v-.42l-1,0-1,0v.42c.66,0,.72.07.72,1.12l0,2.39c-1-1.29-2-2.6-2.92-3.93-.41,0-.75,0-1.14,0s-.66,0-1,0v.43c.63,0,.65.13.65,1.08v3c0,1.46,0,1.47-.71,1.5v.43l1.12,0Zm-6.09.15a3.25,3.25,0,0,0,3.42-3.36,3.19,3.19,0,0,0-3.38-3.36,3.24,3.24,0,0,0-3.32,3.37A3.11,3.11,0,0,0,170.45,53.47Zm-1.17-5.33a1.38,1.38,0,0,1,1.26-.86,1.21,1.21,0,0,1,1,.49,3.88,3.88,0,0,1,.57,2.13h0a3.8,3.8,0,0,1-.64,2.62,1.31,1.31,0,0,1-1.9,0,3.61,3.61,0,0,1-.64-2.4A4.56,4.56,0,0,1,169.28,48.14Zm14.08,25.41h1.31c.1,0,3.74,0,4.26,0s.48.23.49.65h.43c0-.35,0-.7,0-1s0-.69,0-1h-.43c0,.67-.06.71-1.12.72l-2.38,0c1.28-1,2.59-2,3.93-2.92,0-.42,0-.76,0-1.15s0-.65,0-1h-.44c0,.63-.13.65-1.08.65h-3c-1.47,0-1.48,0-1.5-.72h-.44c0,.46,0,.8,0,1.13s0,.65,0,1h.45c0-.67.08-.71,1.36-.72l3.19,0-5,3.88Zm1.71-6.27.12-.43a2.35,2.35,0,0,1-1.06-.66,1.53,1.53,0,0,1-.24-1.06c0-.74.25-.76.79-.78l1.8,0a8.87,8.87,0,0,1,0,1.06c-.09.29-.31.32-.71.36v.47c.36,0,.72,0,1.07,0s.65,0,1,0v-.45c-.74-.07-.75-.15-.78-1.44h1.53c.78,0,.81,0,.81.53,0,1-.16,1.21-1.13,1.43l.05.46c.67-.08.88-.11,1.61-.16,0-.51,0-2.75,0-3.21s0-.72,0-1.32h-.44c0,.66,0,.68-1.43.69h-3c-1.09,0-1.15,0-1.18-.68h-.43c0,1,0,1.61,0,2.5s0,1.54,0,2.31C184.2,67.05,184.36,67.09,185.07,67.28Zm2.87,7.53c-1.17,0-1.64.79-2.11,1.57s-.62,1.07-1.17,1.07a.88.88,0,0,1-.85-1,1.27,1.27,0,0,1,.17-.67,1.84,1.84,0,0,1,1.35-.8l-.11-.54-1.62.28a5,5,0,0,0-.34,1.75,2.07,2.07,0,0,0,2.13,2.3c1.21,0,1.69-.8,2.32-1.86.34-.54.55-.81.95-.81a.8.8,0,0,1,.77.9,1,1,0,0,1-.36.79,1.56,1.56,0,0,1-.91.34l.08.51c.71-.07.9-.08,1.5-.11a4.91,4.91,0,0,0,.22-1.49A2,2,0,0,0,187.94,74.81Zm-4.7-16a7.29,7.29,0,0,0,.44,2.3c.46,0,.68,0,1,0,.94,0,1.07,0,1.13.53h.43V58.7h-.44v.18c0,.67-.11.67-1.24.67-.33,0-.79,0-.79-.71,0-.47.3-1.32,1.57-1.63a5.68,5.68,0,0,1,1.31-.14,3.56,3.56,0,0,1,2.17.6A1.64,1.64,0,0,1,189.4,59a1.52,1.52,0,0,1-.67,1.31,2.85,2.85,0,0,1-1,.35l0,.49c.85-.06,1.05-.06,1.78-.07a8.83,8.83,0,0,0,.4-2.32,3.15,3.15,0,0,0-3.3-3.35A3.23,3.23,0,0,0,183.24,58.77Zm4.25,53.44,0,.47c.72.15,1.84.38,1.84,1.64s-1.35,1.83-2.76,1.83a3.76,3.76,0,0,1-2.24-.59,1.43,1.43,0,0,1-.59-1.24c0-1.33,1.3-1.47,1.63-1.52l0-.46c-.78,0-1,.07-1.79.08a7.59,7.59,0,0,0-.38,2.14c0,2.29,1.78,3.16,3.43,3.16,1.92,0,3.32-1,3.32-3a5,5,0,0,0-.55-2.2Zm-25-87.68c-.08-1-1.17-.4-1,.1C161.56,25.28,162.53,25.07,162.47,24.53Zm15.22,105.2-1.19-1.88a1.51,1.51,0,0,0,1.14-1.5,1.35,1.35,0,0,0-.72-1.24,2.85,2.85,0,0,0-1.25-.21l-1.37,0-1.57,0v.39c.6,0,.62.12.62,1.12v3.09c0,.85,0,1-.62,1v.38l1.45,0c.47,0,.85,0,1.24,0v-.38c-.44,0-.61-.05-.64-.44,0-.16,0-.43,0-.82v-1l.39,0,1,1.79c.49.87.56.89,1.45.89h.84v-.36C178.16,130.42,178,130.29,177.69,129.73Zm-1.88-2.33a1.3,1.3,0,0,1-1,.35V125.4a1.25,1.25,0,0,1,1,.22,1.17,1.17,0,0,1,.32.9A1.21,1.21,0,0,1,175.81,127.4Zm6.9-2.13c-.07-.4-.1-.6.34-.77l-.16-.38-.72.27-.9.35.13.42c.24-.12.37-.21.49,0s.38.89.84,1.87a5.47,5.47,0,0,1,.68,1.73.85.85,0,0,1-.26.81,1.16,1.16,0,0,1-.63.33,1.08,1.08,0,0,1-.73-.07,1.31,1.31,0,0,1-.63-.77,11.2,11.2,0,0,1-.46-1.88c-.06-.34-.26-1.31-.27-1.64s.16-.41.51-.48l-.08-.39-1.38.3c-.43.09-.85.17-1.28.24l.08.38c.57-.1.62,0,.8.82l.39,2c.23,1.15.39,1.76,1.11,2.13a2.51,2.51,0,0,0,1.65.11,2.24,2.24,0,0,0,1.51-.81,1.76,1.76,0,0,0,.1-2A21,21,0,0,1,182.71,125.27Zm5.06-42.84a1.06,1.06,0,1,0-2.11,0,1.06,1.06,0,0,0,2.11,0Zm-29.56-29c.14,0,.29,0,.29.25a.71.71,0,0,1-.09.31,1.11,1.11,0,0,1-.72.39l0,.4a1.73,1.73,0,0,0,1.26-.6,1.81,1.81,0,0,0,.36-1.07c0-.66-.35-1.2-.95-1.2a.8.8,0,0,0-.8.83A.64.64,0,0,0,158.21,53.45Zm25.51,39.09c0-.47.09-.59.71-.59l.88,0,2.57.12c1.37.06,1.42.09,1.44.67h.44c0-.38,0-.66,0-1s0-.58,0-.87h-.44c0,.48-.12.53-1,.53h-.7l-2.33,0,.95-.38L188.88,90l.88-.33v-.47l-.89-.36-2.37-1-1.31-.54h2.69c1.39,0,1.44,0,1.44.68h.44c0-.51,0-1,0-1.48s0-.8,0-1.22h-.44c0,.62-.07.62-1.44.65l-2.82,0c-1.22,0-1.34,0-1.34-.55h-.44c0,.37,0,.62,0,.9s0,.61,0,.9c.67.23.84.29,1.55.58l1.26.52c.65.28.82.35,1.64.67-.81.3-.95.37-1.71.68l-1.88.76c-.4.16-.43.18-.86.32,0,.43,0,.68,0,1s0,.45,0,.89ZM164.13,53.32a2.48,2.48,0,0,0,2-.69,1.93,1.93,0,0,0,.4-1.17,1.48,1.48,0,0,0-1-1.47,3.85,3.85,0,0,0-.92-.19c.13,0,.27-.06.39-.09a1.43,1.43,0,0,0,1.1-1.39,1.31,1.31,0,0,0-.47-1,2.15,2.15,0,0,0-1.48-.41h-.85l-.86,0c-.54,0-1,0-1.58,0v.44c.34,0,.62,0,.66.41,0,.17,0,1.89,0,2.22s0,2,0,2.41-.18.52-.66.55v.44c.59,0,1.08,0,1.58,0Zm-1.08-6a2,2,0,0,1,1,.13,1.12,1.12,0,0,1,.43,1c0,1.18-.74,1.19-1.44,1.19Zm0,2.78c.62,0,1.05,0,1.37.26a1.35,1.35,0,0,1,.42,1.13,1.39,1.39,0,0,1-.29,1,1,1,0,0,1-.78.29c-.7,0-.72-.35-.72-1Zm23.49,61.61a3,3,0,0,0,3.26-3.1c0-1,0-1.47,0-2.31s0-1.42,0-2.13c-.84-.17-1-.19-1.72-.38l-.12.4a2.6,2.6,0,0,1,1.06.6,1.38,1.38,0,0,1,.24,1c0,.68-.25.7-.79.72l-1.8,0a6.31,6.31,0,0,1,.05-1c.08-.26.3-.29.7-.33v-.42l-1.08,0-.95,0v.41c.74.07.76.13.78,1.33h-1.52c-.79,0-.81,0-.81-.49,0-.94.15-1.12,1.13-1.32l-.06-.43c-.67.07-.88.09-1.6.14,0,.47,0,2.55,0,3s0,.67,0,1.22h.44c0-.62,0-.63,1.42-.64h3c1.09,0,1.16,0,1.19.63a1.13,1.13,0,0,1-.41.86,3.85,3.85,0,0,1-2.41.6,4.86,4.86,0,0,1-2-.32,1.21,1.21,0,0,1-.83-1.13h-.43A3,3,0,0,0,186.52,111.76Zm2.73,8.23c0,.61-.06.61-1.32.62l-2.6,0c-1.13,0-1.24,0-1.23-.56h-.41c0,.37,0,.63,0,.9s0,.6,0,.89l1.2,1.2-1.38.45-.32.86.34.16c.12-.45.33-.3.51-.26l2.69,3.88c.15.23.41.49,0,.81l.39.33,1.09-1.45-.38-.31c-.2.3-.33.39-.58.23l-2.08-2.86,2.2-.14.06-.54-1.69-1.73c-.41-.43.24-.27-.32-.54l2.47,0c1.28,0,1.33,0,1.32.69h.4c0-.52,0-1,0-1.48s0-.8,0-1.21Zm-34.53-9.75c-.19,0-17.61-.14-17.63.09s17.64,0,17.65.11-.05.39-.14.41c-.69,0-.53.1-1.22.05-.43,0-.33.44,0,.33s.51-.06.41.12-.17.35-.27.55a2.43,2.43,0,0,1-.94,1c-.22,0-1.23.92-1.53,1a3.77,3.77,0,0,0-1.76,1c-.3.13-.77.17-.48-.18.08-.34.56-1.47.68-2,.1-.16.24-1,.29-1,.13-.26.24-.47.42-.45.15-.21.65-.11.69-.24s0-.24-.63-.12c-.28.09-1.82,0-1.77.06-.16.14-.11.18.08.22.57,0,.56.17.6.42-.15.68-.47,1.56-.58,2-.19.86-.51,1.47-.81,1.54-.24.35-.42.7,0,.69.31-.22.65-.32.71-.59.07-.08.11-.12.22,0a1.12,1.12,0,0,0,1.06-.35c.69-.8,1.38-.69,2-1.16a7.5,7.5,0,0,1,1.34-.85,11.51,11.51,0,0,0,.9-1.14c.35-.79,1.08-.31,1.11-.79S155.26,110.17,154.72,110.24Zm-5.77,7.2c0-.14.59-.65-.64-.6-.23,0-1.25,0-1.24-.17.19-.09.67-.59,0-.62s-.68-.31.33-.55c.21-.42.8-.69.85-1.2-.85.13-1-.45-1.59-.39-.85.63-1.17.33-2.21.54-.12-.12.12-.25.13-.84,0-.06.47-1.71.51-1.92.12-.62,1.34-.36,1.26-.53s.07-.27-.61-.15c-.85-.08-.93.07-1.79,0-.54,0-.42.45,0,.31s.37.6.28.88c-.19.13.09.74-.18.86a3.23,3.23,0,0,1-.37.83c.11.06-.2.72-.49.54-.28,0-.1-.34-.33-.44-.52,0-2.57,0-2.62,0-.29-.41-.6-.41-.69-.72a8.58,8.58,0,0,1-.75-1.31c-.15-.32,0-.5.27-.48.18-.25,1.2-.09,1.26-.27-.06,0,0-.32-.77-.17-.36.11-2.46,0-2.4.06-.2.17-.14.22.1.27a1,1,0,0,1,1,.58,26.27,26.27,0,0,0,1.93,2.6c.05.1.23,0,.27.08.28.08-.12.13-.08.31s0,.7.26.55c0,0,1.24,0,1.26,0-.26.56.3.75,1,.65.73.1.82.12.32.59s0,1.23,1.32,1.1c.69.11,2.66-.3,2.82-.1s-.5.49.76.63a4.39,4.39,0,0,0,3-.64C151.09,117.83,148.67,117.64,149,117.44Zm-.7.79c-1.14-.14-.37-.55-.65-.63s-2.26.08-2.89,0c-1.19.13-1.59-.42-1.2-.83s.45-.64-.21-.73c-.12-.07-1,0-1.12-.07-.26-.27.37-.52,1.12-.58s.54-.55,1.24-.68c.94-.2,1.37,0,2.15-.55.5,0,.48.48,1.26.37-.72.6-.53.75-1,.92-.82.22-.76.82-.09.77s.11.41-.06.5c-.32.36,1.13.4,1.33.35,1.12,0,.6.28.66.49-.25.18,1.6.47,1.62.36A5.91,5.91,0,0,1,148.25,118.23Zm5.84-9.31a2.73,2.73,0,0,1-.65.17c-.14,0-.39-.15-.7-.15A.7.7,0,0,0,154.09,108.92Zm4-29.65c0,.16.15.47-.09.75s.06.23.06.22c.26-.14.3-.56.23-1.22s.5-.62.59-1.62c0-.14-.17-.1-.14,0-.15.21-.09.52-.42.89s-.24.67-.75,1l-.59.4a1.07,1.07,0,0,0-.47.43,3.46,3.46,0,0,0-.15.6c0,.13,0,.35.32.23s.27-.4.14-.26c-.28.28-.51.22-.09-.56.17-.23.39-.24.32-.05.07.42-.16.77-.05.78.14.19.37-.67.27-.95s.3-.33.51-.48S158.15,79.11,158.07,79.27Zm-1,2.14a4.73,4.73,0,0,1-.41,1.09c-.19.56-.26,0-.21-.49,0-.14-.42-.69-.11-.88.1-.14,0-.25-.15-.11s-.16.58,0,.86-.05,1.43.47,1a6.45,6.45,0,0,0,.74-1.63C157.31,81.12,157.21,81.21,157.05,81.41Zm-5,26.71a3.56,3.56,0,0,1-.68.32c-.14.06-.4,0-.71,0C150.86,109.14,151.93,108.78,152,108.12Zm-.68.41c.1,0,.32-.17.48-.24-.06.35-.89.61-1,.25C151,108.5,151.24,108.56,151.34,108.53Zm-3.08-24.62c-.23,0-.7-.3-.68-.41-.27,0,.24-.47.26-.56s.12-.34.14-.41c.28-.49-.17-.55-.07-.86-.09-.29.45-1.15-.24-.42-.14-.52.76-1.78,0-1.78a6.72,6.72,0,0,1-.06-1.3s-.06-.59.11-.71.6-.42.56-.51a1.9,1.9,0,0,0-.07-.76c-.06-.25-2.8-1.71-2.9-1.88,0-.91.37-1.83.35-2.31a1.3,1.3,0,0,0-1.61-1.21c0,.31-.25-3.66-1.92-2.48-.59.34-.41,2.15-.33,2.87a1.82,1.82,0,0,0-3.12,1c-.24,1.55.65,2.57.64,3.16-.33.3-1.69,1.37-1.86,1.49a.8.8,0,0,0,0,1c.69.28.3.42.46,1.29.12,2.2-.26,1.33.52,2-.2.85-.66,1.91,1.47,2.48.23,0-1.14.6-1.37.9-.68.65,0,1.1.44,1.12a17.65,17.65,0,0,0,2.42-1.25c.29-.09-.45.26-.16.4.65-.5.92.64,1.58.37s-.18-.44.21-1c.22-.31.1.46,1.1.28.12.08,1.2.43,1.61.56s.82,0,.91-.43c-.05-.12,1.25.87,1.29.64.19.18,1-.13.82-.63C148.93,84.24,148.31,83.81,148.26,83.91ZM148,77c-.11.17-2,1.87-2.56,2.27-1.51,0-4.46.16-4.57.12s-.2-.4-.06-.5,4.67,0,4.71-.14c.9-.65,2.43-2.15,2.49-2.14S148.1,77,148,77Zm-1.56,3.09c-.33.34-.36.41-.37.41-.23.26-.36.69-.43.35,0-.09-.1-1-.07-1a.6.6,0,0,1,.22-.55A19.46,19.46,0,0,1,147.3,78a6,6,0,0,1,.06,2,11.17,11.17,0,0,0-.61,1c.06,0-.29.27-.06-.15.05-.27.29-.53.21-.87C146.83,79.86,146.88,79.81,146.46,80.08Zm-2.73,1.67c-.48.16-.63.14-.28-.09s1.18.12.93-.54c-.22-.35-.43-.19-.22-.64,0,0,.4-.56-.06-.25a1.65,1.65,0,0,1-1.07.54c-.39,0-.9.62-1,1-.3.54-1,.6-.61.32a.91.91,0,0,0,.12-.89,1.06,1.06,0,0,1,.2-1.12c.11,0,.22-.2-.13-.14-.11,0-.25.2-.31.18s0,0,0,0a.45.45,0,0,1,0-.5,32.75,32.75,0,0,1,4.07-.08,5.39,5.39,0,0,1,.11,2c-.07.2-.73-.09-1.3.53,0,.18-.74,1.25-.63.5C143.52,82.29,144.29,81.81,143.73,81.75ZM141.28,81c.08.38.33.92-.33,1.09-.49.28-.27.68-.49.65s-.28-.14-.36-.43c-.13-.12-.54-.46-.49-.55,0-.32.42-1.06.68-1,.72.15,1-.52,1.13-.58C141.51,80.46,141.12,80.48,141.28,81Zm1.34-12.73c.95-.2,1.16,2,1.28,2.48a3.06,3.06,0,0,0-.38.1c-.1-.8-.29-1.34-.65-1.27-.57,0-.34,2.06-.35,2.11-.26,1.29-.67-1.26-.64-2.15C142,69.43,141.85,68.45,142.62,68.31Zm.75,2.67a1.87,1.87,0,0,0-.68.79,7.33,7.33,0,0,1-.05-1.15c0-.09,0-.72.27-.79S143.32,70.7,143.37,71Zm-4.07,3.39A2.73,2.73,0,0,1,139,72c.81-2,3.63-1.34,3.29,1.5-.05.52.29.38.18,0A2.3,2.3,0,0,1,143.81,71c1.12-.21,1.62.27,1.66,1.13,0,.62-.54,2-.28,3.08.16.5.1.5.09.54s-.1-.07-.22-.36a3.53,3.53,0,0,1-.28-2.37c.24-.77-.45-1.59-1-1-.23.1-.69,1.17-.67,1.17a2.35,2.35,0,0,0,.1,1.84s.49.61.45.56c.18.16-.36.15-.41,0s-.35-.2-.2.08c.25.46.21.57.65.62.11,0,.08-.24-.12-.22s-.17-.2,0-.19.55-.13.46-.28-.49-.22-.44-.39c.32,0,.65-.06,1-.06.43.91,1.35,1.38,1.11.87-.13-.15-.41-.55-.29-.79.37.18.78.49,1.17.73.16.07.22.21.07.28-.47.42-.93.76-1.4,1.14,0,.08-.17.13-.43.14l-3.85,0c-.62-.28-1.24-.51-1.85-.83-.13-.06-.18-.12-.08-.22l.33-.27c-.12.91.74-.1.73-.65l1.27-.14a.09.09,0,0,1,0,.16c0,.07-.12.07-.15.13s-.07.43.34-.14a2.42,2.42,0,0,0,.4-1.12,6,6,0,0,0-.11-1.52c-.32-1.21-1-1.31-1.61-1.15s-.91,1.36-.58,2.16a4.65,4.65,0,0,1,.18,1.8c-.14.55-.36.61-.3.32A5.42,5.42,0,0,0,139.3,74.37Zm5.24-.11c0,.33-.31.15-1.32.39a2.94,2.94,0,0,1,.16-1.69c.06-.08.24-.79.3-.06.08.26,0,.58.13.66s.39-.3.38-.94c.05-.21-.05-.65.06-.65s.47.4.33,1.1A4.17,4.17,0,0,0,144.54,74.26Zm0,.68c-.11,0-1,.14-1.09.11s-.09-.28,0-.27,1-.11,1.07-.1S144.6,75,144.54,74.94Zm-.77-2.6c0-.19.17-.41.25-.29a3.09,3.09,0,0,1,0,.55c0,.05,0,.44-.13.47S143.81,72.46,143.77,72.34Zm-3.67,2.41c0-.5-.52-2.18,0-2.55a.87.87,0,0,1,1.15,0c.74.58.54,2.42.54,2.58C141.45,74.69,140,75,140.1,74.75Zm1.49.49c-.13,0-1.27.13-1.37.1s-.1-.29,0-.28,1.26-.09,1.35-.09S141.66,75.24,141.59,75.24Zm-3.76,1.55c.52-.41,1-.78,1.54-1.23a1.17,1.17,0,0,1,0,.38,4.5,4.5,0,0,0-.52.54.24.24,0,0,0,.13.41c.57.29,1.14.54,1.71.81a.62.62,0,0,0,.41.09h3.77a.54.54,0,0,0,.47-.17L147,76.25c.13-.1.11-.22,0-.34L145.39,75a.49.49,0,0,1,0-.42c.86.54,1.68,1.08,2.53,1.6a.17.17,0,0,1,0,.29l-2.2,2a.72.72,0,0,1-.57.18l-4,0a1.05,1.05,0,0,1-.52-.13c-.94-.41-1.87-1-2.81-1.44C137.78,77.1,137.59,77,137.83,76.79Zm-.28.82c-.08,0-.11-.34,0-.34s2.81,1.36,2.88,1.37.07.29,0,.29S137.63,77.63,137.55,77.61Zm.73,3a12.23,12.23,0,0,1,0-2.42c.12,0,2.05.9,2.12.9.38.3,0,.4.5.49.12,0,0,.64.09.72.12.31-.52.4-.9.28,0,0,0-.18-.29-.57s-.45-.34-.56-.34c-.33.11-.64-.4-.68-.11.7.45.17.86.08,1.32C138.4,80.76,138.31,80.66,138.28,80.65Zm.71,4.8c-.24,0-.56-.19-.45-.48a.22.22,0,0,1,.12-.21c.18-.05.05.17,0,.22s0,.13.15.29.3,0,.28-.1.09-.1.06-.14,0,0,0,.07S139.24,85.39,139,85.45Zm-.15-.63c0-.14.23-.07.3.19L139,84.9C139,84.83,138.91,85,138.84,84.82Zm6-.35c-.26,0-.53-.31-.48-.66,0-.19.28-.11.36,0s.12.13.12.37C144.78,84.23,145,84.38,144.8,84.47Zm1.41.39c-.33,0-.79-.22-.64-.59a.24.24,0,0,1,.19-.25c.24-.08.1.12,0,.19s-.13.37.17.4c0,0,.32-.15.34-.16s-.42-.07-.09-.28c0-.1-.12.1-.21-.16s.47-.13.46.38C146.57,84.45,146.54,84.77,146.21,84.86Zm-.08-1.22c-.25-.41-.62-.29-.72-.49s-.19-.22.14-.67c.11-.15.15-.31,0-.23a1,1,0,0,0-.33.5c-.11.19-.09.42-.25.09a.76.76,0,0,1,.16-.6c.3.05.22-.3-.16-.17-.16,0-.27.92-.2.93.4.42.73.41.86.68s-.27.34-.29.42c0,.36-.19.49-.27,0-.24-.75-.41-.46-.62-.63s-.59.28-.37.44c.19.42-.11.51-.5.12-.05-.05-.74-.4-.75.09-.27.27-.11.54-.05.76-.25.2-.72-.35-.82-.41-.39.08-.18-.16-.29-.26s-.24-.11-.15-.37-.2-.49-.3-.32c0,0-.16-.12-.2-.19s-.33-.15-.33,0,.31,0,.24.25c0,.44.25,0,.33.07.24.14,0,.46,0,.57s-1.44.9-1.48.91c-.25.18-.46.09-.42-.06.07-.48-.66-.46-.49-.66,0,0,1.14-.65,1.52-.79.16,0,.34-.2.13-.23h-.1s0,0,0,0c-1.31-.14-1.78-.53-1.93-1a3.39,3.39,0,0,1,.33-1.53c.36-.51.23-.9.32-.92.18-.18.82.44.77.72,0,.47-.56.8-.53,1.34,0,.11.71.42.56.67.19.26.61.59.74.23.15-.6.33-.45.76-.43v0c.65-.2.95-1.2,1.21-1.3.84-.45,1-.24,1.29-.53-.09.28-.24.28.13.68.06.14-.66,0-1,.35s-.08.55.19.51.39-.19.38-.07-.57.3-.47.69.58.35.78.11c.4-.51.3-.8.63-.81.2-.26.67-.12.94-.31s.11-.57.52-.84a.62.62,0,0,1,.31-.38c0-.13.24-.27.33-.29a7,7,0,0,0-.25.8c0,.36,0,1-.21,1.16-.36.08-.14.4,0,.18s.42-.24.37-.8c0-.22.41-.72.51-.93s.18-.32.21-.37.36-.4.39-.5a.79.79,0,0,1,0,.47,2.47,2.47,0,0,0-.23.88,1.16,1.16,0,0,1-.07.79c0,.07-.58.63-.33.59.18.15.38-.44.62-.76,0,.17.27.45.22.57h0c-.2.3-.19.7-.78,1-.06,0-.36.26-.49.48C146.37,83.55,146.28,83.7,146.13,83.64Zm1.72,1.12c.08-.25.68.13.26.24.08.08-.44,0-.65-.2-.45-.26-.91-.5-.77-.68s.33-.48.44-.52.77.46.71.42-.07.29.24.32c0,0,.06-.2.09-.21.29-.12.38.38.11.26C147.75,84.35,147.43,84.72,147.85,84.76Zm.68.19c-.06.09-.16-.06-.14-.13s0-.1.08-.19,0-.16.11-.13A.31.31,0,0,1,148.53,85Zm9.27-2.06c.07.17.17.19.3,0,.32,0,.51-.27.76-.66.42.08.92-.83,1.3-1.25.22-.18,0-.67-.39-.54.09-.81,1.26-.84.37-2.63a.7.7,0,0,1-.08-.61,6.36,6.36,0,0,0,.38-1.64c.37-.65,1.09-.65,1.38-1.26.12-.27.19-.18.33-.55a.29.29,0,0,0,0-.42c0-.17-.09-.29-.06-.45s.16-.34.14.07c.07.11,0,.2.09.31.18.27.37.39.63.23.17,0,.28,0,.33-.16q.44,0,.45-.33l.07,0a1,1,0,0,0,.94.08c1,.14,1-.19,1.28-.48.18-.12.38-.08.52-.46a2.86,2.86,0,0,0,.46-.31,1,1,0,0,0,.39-.38c.12-.29.11-.46,0-.51a.49.49,0,0,0-.32.1c-.27.21-.6.07-.91.1s-.76,0-1.24,0c-.06,0,0-.1-.33,0s-.37-.17-.25-.21c.68,0,1.3-.32,1.21-.73a1.09,1.09,0,0,0,.43-.77l.39-.4a.55.55,0,0,0,0-.38c.07-.27.27-.36.21-.82,0-.26.13-.39.16-.67a4.22,4.22,0,0,0,.27-1.16c0-.35-.34-.27-.48.07-.28.53-.16.8-.58,1.32a5.71,5.71,0,0,1-1.15,1.48c-.08,0-.39.34-1.12.69-.06.07-.11.12-.11.16a1.2,1.2,0,0,0-1,.86c-.89-.82-.47-.86-.92-1.45.09-.41.26,0,.39-.62,0-.09.31,0,.45-.05a2,2,0,0,0,.61-.59A.64.64,0,0,0,163,67a.74.74,0,0,0-.51-.15c-.19.09-.35.08-.44-.07-.24-.36-.52-.2-.84-.43s-.31-.55-.77-.72a1.06,1.06,0,0,0-.79-.32s0-.09,0-.11A.62.62,0,0,0,160,65c.18-.08.32-.26.4-.29.73-.11.93-.66.66-1.61a1.26,1.26,0,0,1,.33-.32,2.18,2.18,0,0,0,.6-.34.28.28,0,0,0,.09-.14s.07-.21,0-.25,0-.08,0-.17a.18.18,0,0,0-.09-.15.2.2,0,0,0-.18,0l-.21.19a.41.41,0,0,1-.26.13c-.08,0,0-.27,0-.37s-.08-.14-.17,0a.64.64,0,0,0-.34.47,1.13,1.13,0,0,1-.4.59h-.06c-.22.13-.14,0-.29.12s-.14.24-.3.36-.22.2-.38.14c0-.38-.37,0-.59-.06-.11-.26-.25.06-.28-.64.07-.3,0-.91.17-1.1a1.38,1.38,0,0,0-.46-2.56c-1.28-.15-2.27.74-1.57,1.78l-1.14,1.34c-.27.2.07.49-.46.53-1.2-.13-.63-1.06-1.39-1.24l-.24-.18c.09-.38-.32-.52-.37-.82s-.32,0-.28.25c-.11.35-.25-.34-.88-.08-.35.21.74.67,1.1,1.17-.38.79,0,1.6.79,2.3,1.23.77,1.24.31,1.38,1.42a.5.5,0,0,0-.38.09c-.71,0-1.17,0-1.45.44-.22-.17-.5.09-.83.54a2,2,0,0,0-.39,1.91c-.16.59-.4-.45-.47-.74a2.45,2.45,0,0,1-.1-1.69c.05-.28-.07-.33-.25-.16a1.91,1.91,0,0,0-.45.81,2,2,0,0,0-.22,1.07c-.35.39-.15,1-.35.89A5.91,5.91,0,0,1,149,64.19c0-.52-.43-.21-.5.45-.18.46-.05,1.4-.16,1.36,0-.29-.13-.76-.13-1.07.1-.58,0-.69-.28-.31a2.68,2.68,0,0,0-.14,1.91,4.45,4.45,0,0,0,.18,1.28c-.18.92.3,1.06.72,1.6l.1.27a1.11,1.11,0,0,0,.42.71.82.82,0,0,0,.34.56c.39.61.91.3,1.36.46a1.52,1.52,0,0,1-.74.12c-.34-.07-.4.08-.34.37a.41.41,0,0,0,.35.3.37.37,0,0,0,.33.43c0,.32.19.42.51.32-.07.16,0,.24.29.23a.42.42,0,0,0,.58.2c-.1.21.27.24.39.1.06.22.42,0,.39.25.07.45.21.62.39.65A4.51,4.51,0,0,1,153,76.1c.19.89-.07,1.22.12,1.81-.13.24-.3.34-.51.27-.25-.3-.5-.37-.75,0-.74,1,0,.84-.75,1.59-.52.53-.74,1-.55,1.3.4.53.63,1,.54,1.21,0,.5.73.27,1.1.41.2.61,1.19.81,1,1.21a.66.66,0,0,0-.14.91.89.89,0,0,0,1.4-.26.37.37,0,0,0,.35.12c.08,0,.08.06,0,.08s0,.16.07.18c.24,0,.75.23,1.26-.77.31-.3.59,0,.91-.51C157.58,83.64,157.21,82.63,157.8,82.89Zm.79-1.25c0,.27.14.74-.35,1.07-.21.16-.39,0-.27-.33a1.81,1.81,0,0,0,.3-.75,1.33,1.33,0,0,1,.26-.75c0-.11.22-.34.18-.16S158.48,81.36,158.59,81.64Zm1.41-5.2a5.14,5.14,0,0,0,0-.73c0-.17-.2-.26-.25-.32s0-.14.15,0,.14,0,.29.25-.08.66,0,.73S160,76.75,160,76.44Zm1.53-2.15c0,.15-.54.55-.76.62-.52.63-.28.09-.56.5,0,0-.28-.25-.2-.31a1.39,1.39,0,0,0,.61-.87s-.09-.24-.22.16c0,.16-.66.85-.72.75-.33-.09,0-.14.16-.29a2.26,2.26,0,0,0,.52-.77c0-.22-.18-.18-.29.09s-.44.82-.8.83,0-.12.12-.17a3,3,0,0,0,.85-1.38c0-.33-.31-.3-.29.19a3.51,3.51,0,0,1-.7,1.09c-.37.41-.64.68-1.18,0,0-.38-.36-.84.63-1.33.12,0,.26-.36.26.17,0,.17.43.48.25,0-.18-.26-.16-.88-.06-.46,0-.19.16.73.34.42a1.44,1.44,0,0,1-.15-.74,4.61,4.61,0,0,1,.76-.92c.4-.38.54.16.68.17.37-.06.1.19.3.29s.18.48,0,.36c-.25-.33-.35.41-.11.48s0-.5.18-.2c0,.35,0,.38.15.43.2-.17,0-.34.08-.45s.12.08.15.22.29.47.3.18a.48.48,0,0,1,0-.69c.15-.17,0,.17.12.45-.1.1.22.29.07.41A2,2,0,0,1,161.53,74.29Zm-6.18-.51c-.14-.27-.17-.17-.25-.38-.27-.2.05-.19.1-.06a3.49,3.49,0,0,0,.45.49c.11,0,0,.37-.11.65s-.23-.19-.27-.17C155.19,74,155.45,74.17,155.35,73.78Zm-.44-.27c0-.18.1-.14.08-.06s.13.22.15.34.06.18,0,.24-.09.16-.11.16-.07-.07-.05-.26S154.89,73.66,154.91,73.51Zm-.55-.55c-.13-.27-.22-.2-.3-.41s.11-.17.16,0a1.9,1.9,0,0,0,.33.43c.08.08.16.26.23.31s.07.14,0,.16S154.53,73.24,154.36,73Zm.42,1c.09.28-.42.29-.8.3-.11-.09,0-.36-.1-.32a1.2,1.2,0,0,1,0-.75c0-.47.17-.41.34-.11C154.43,73.52,154.85,73.65,154.78,73.94Zm-.35-1.46c-.56-.22.06-.14-.5-.71-.34-.45.3-.29.22-.45-.23-.21.08-.46.63.08.05.06.16.06.23.2s.37.16.27.21-.45.09-.27.28c0,0,.15,0,.18,0s.18-.09.24-.16c.23,0,.27.09.4.19s-.2.12-.25.09-.24.09-.14.2.47,0,.5.07.22-.26.27-.14-.22.27-.2.3a.87.87,0,0,1,0,.3c-.15,0-.08.29,0,.3s.13-.34.19-.38.13-.49.23-.36c.07,0,0,.24,0,.29s-.06.41-.16.41.19,0,.26.18c0,.33.48.34.14-.11-.07-.3-.06-.63.2-.7s0,.67.48,1.47c.36.32-.62.16-.88,0s-1-1-1.47-1S154.53,72.67,154.43,72.48ZM155,70c1,.1,1.88-.76,2.33-.94s.76-.33.89-.2.27.27.41.2c.16-.25-.15-.18-.26-.34s.16-.32.29-.2c.67.31.76.81,1.06.89,0-.06,0,.72-.08.74-1.18-.06-1.4-.36-2.91.53-.89.64-1,.25-1.78.56,0,0,0,0,0,0s0,0,0,0-.07,0-.08,0a1.36,1.36,0,0,0-.94-.21c-.24-.37-.17-.54-.17-.56.62,0,.34-1,.48-1a1.54,1.54,0,0,0,.74.19c.37,0,1.06-.06,1,.08,0,0-.68.28-1.07.13S155,70.07,155,70Zm1.32-1.29c.1-.07.05,0,.16,0s0,.12-.08.2S156.14,68.7,156.31,68.68Zm-.11-.23c0,.14-.28,0-.14-.12l.16-.25c.1-.17.15-.35.21-.42s.11,0,.07.07a1.6,1.6,0,0,1-.18.42A2.68,2.68,0,0,1,156.2,68.45Zm.33-.2c.22-.73.43-.75.21-.77s-.09-.07-.05-.12.25-.63.24-.73.16-.27.29-.14a.23.23,0,0,0,.12.1.25.25,0,0,0,.12,0c.2,0,.41-.18.52,0a2,2,0,0,1,.15,1.66,2.45,2.45,0,0,1-1.49.36C156.48,68.6,156.32,68.51,156.53,68.25Zm.86,4.63c-.37.24-.24-.46-.24-.51a1.86,1.86,0,0,1,.55-.31,2.58,2.58,0,0,1,.72-.25c.11,0-.41.21.05.26.73.1.49.31-.06.3C157.53,72.4,157.74,72.4,157.39,72.88Zm.21.76c0,.24-.14.43-.2.11a.61.61,0,0,1-.1-.59C157.32,73.08,157.53,72.72,157.6,73.64Zm.56-3s0,0,0,0,0,.09,0,.12a3,3,0,0,1-.19.69c.12.4-.19.37-.5.46a1.71,1.71,0,0,0-.68.44c-.11.14-.17-.21-.23-.19a.27.27,0,0,1-.29-.06c-.14-.09-.3,0-.28-.3s0-.63.31-.67c.51-.28,1.36-1,1.56-.81.23-.22.23-.26.26.24h0S158.17,70.6,158.16,70.61Zm-.38,2.62c-.16-.53.12-.67.27-.64a2.23,2.23,0,0,0,.92-.08c.07,0,.74-.25.13-.41-.18-.19-.66,0-.47-.35,0-.26-.21-.14-.22-.1-.37,0,0-.8-.1-1.18-.09-.21.05-.25.26-.28.56-.07.54.13.67.13.5-.14.44.14.54.32.32.46.19.49.57.88a1.51,1.51,0,0,0-.81.73A3.32,3.32,0,0,0,159,73c0,.34-.23,0-.52.34-.33,0-.58.83-.75.82S158,73.85,157.78,73.23Zm-2-1.44c0,.14-.28-.22-.57-.33-.14-.09-.14-.17.06-.18C156.12,71.14,155.82,71.28,155.82,71.79ZM155.9,74c0-.18.63.39.81.31s.67.07.79-.09c.15,0-.15.3-.32.32s-.82-.11-1.13.2.53.12-.17.39c-.23.07-.16-.09-.25-.27S155.84,74.47,155.9,74Zm.23,1.19c.78-.32,0-.31.11-.36-.09-.11.7-.07.77-.07.32,0,.6-.37.78-.48,0,.18.19.57,0,.63a5.4,5.4,0,0,0-.91.29C156.28,75.64,155.5,75.41,156.13,75.22Zm0,.36c.77-.09,1.18-.53,1.64-.51.23-.07.5.2.16.34a3.13,3.13,0,0,0-.89.24,5.5,5.5,0,0,1-.91.24C156,76,155.84,75.5,156.17,75.58Zm5.59-3.07a.1.1,0,0,1,0,.15c-.35,0-.15.15-.32,0,0-.08-.11-.14,0-.27s0-.18-.25-.14.09-.18.16-.13c.28,0,.19.1.19.2S161.7,72.48,161.76,72.51Zm.17-.19c-.14-.2-.13-.12-.24-.25s0-.17.08-.09a1.59,1.59,0,0,0,.33.25c.07,0,.1.13.16.15s.05.09,0,.11S162.11,72.49,161.93,72.32Zm.36-.19c-.15-.16-.19-.15-.3-.27s0-.15.11-.06a1.44,1.44,0,0,0,.32.23c.08,0,.17.15.22.17s.09.09.07.11S162.47,72.3,162.29,72.13Zm0-.47a3.17,3.17,0,0,1,.46.19,3,3,0,0,0,.39.21c.07,0,.07.13,0,.15s-.34-.09-.59-.21-.3-.15-.41-.28S162.24,71.58,162.31,71.66Zm.21.86c.07.06-.06,0,0,0a.09.09,0,0,1,.05.13c-.05.07-.11,0-.15,0S162.5,72.48,162.52,72.52Zm0,.69c-.05-.12,0-.17,0-.23s0-.17.06-.09,0,.15.11.22.06.13.12.15,0,.1,0,.12S162.66,73.39,162.55,73.21Zm.54,0a.73.73,0,0,1-.23-.27c-.09-.19-.13-.34,0-.38s.15,0,.16.12a.9.9,0,0,0,.07.22,1.92,1.92,0,0,0,.14.29C163.23,73.31,163.19,73.31,163.09,73.22Zm.48-.2c-.08.06-.11.21-.21,0s-.19-.38-.19-.49.11-.17.14,0l.1.13c.2,0,.18.2.28.21S163.59,73,163.57,73Zm.29-.32c-.15-.16-.16-.09-.26-.22-.26,0,0-.17.1-.08a1,1,0,0,0,.32.2c.08.05.14.15.2.17s.17.13.15.15A.5.5,0,0,1,163.86,72.7Zm.89.16c-.11-.13-.76-.46-.91-.61-.36-.16,0-.16.14-.12a1.5,1.5,0,0,0,.63.46c.28.06.72,0,.76.07.14-.07.34,0,.32,0C165.42,73,164.79,73,164.75,72.86Zm.53-.41c-.21-.12-.62,0-.78-.09-.36-.16,0-.12.09-.07a3.43,3.43,0,0,1,.78,0c.48-.1.47,0,.53,0s.39-.06.38,0A1.3,1.3,0,0,1,165.28,72.45Zm-.85-1s.16,0,.24-.06.22,0,.27,0c.35.06,1.32,0,1.33,0s-.37.18-.52.13a1.52,1.52,0,0,1-1,.13c-.73-.11-.92-.18-.76-.27S164.12,71.12,164.43,71.4Zm.58-.77a.79.79,0,0,1-.46.08c-.05,0-.09-.11,0-.12s.29,0,.39-.07.38-.16.37-.2.09,0,.11,0S165.22,70.51,165,70.63Zm.93-1.31a3.25,3.25,0,0,1-.77.55s-.06-.08,0-.15a4.32,4.32,0,0,0,.59-.45c.07-.08.45-.37.43-.41s.1-.06.11,0S166,69.19,165.94,69.32Zm-.76-.44a5.32,5.32,0,0,0,1.09-1.43,9.91,9.91,0,0,0,.49-1.13c0-.11.08-.13.1-.08.1.23-.2.91-.35,1.23a5.75,5.75,0,0,1-1.33,1.68C165.08,69.19,165.05,69,165.18,68.88Zm-.08.56c.12-.12.67-.57.74-.68a4.37,4.37,0,0,0,.44-.49s.09,0,.1,0-.25.4-.35.53a6,6,0,0,1-.95.8S165,69.51,165.1,69.44Zm-.18.7a.65.65,0,0,0,.35-.13,1.66,1.66,0,0,0,.34-.25c0-.05.09-.06.1,0s-.17.33-.39.45a2.52,2.52,0,0,1-.41.17C164.78,70.39,164.82,70.15,164.92,70.14Zm-1-.41a1.92,1.92,0,0,0,.38-.25c.06-.06.23-.11.26-.16a.12.12,0,0,1,.16,0c0,.1-.18.21-.4.32s-.22.14-.37.2S163.85,69.77,164,69.73Zm-.13.35c.16,0,.33-.19.51-.2s.13,0,.17-.08.14,0,.15,0-.23.22-.41.33a1.2,1.2,0,0,0-.32.15C163.61,70.28,163.73,70.16,163.82,70.08Zm0,.41c0,.05.33,0,.4-.09a.69.69,0,0,0,.19-.12c.06,0,.16-.16.18-.13s-.13.31-.37.43-.31.08-.47.15S163.59,70.22,163.81,70.49Zm-.11.46c.07-.06.23,0,.3-.09s.14,0,.15,0,0,.06-.22.18-.18,0-.36.07-.13,0,0-.09S163.67,71,163.7,71Zm-.57-.72c.06-.14.3-.16.37-.2s0,.29,0,.32a1.78,1.78,0,0,0-.1.38c-.08.09,0,.31-.1.32-.19-.18-.55,0-.57-.29A1.14,1.14,0,0,1,163.13,70.23Zm0,1c.16.11.64.28.82.43a.67.67,0,0,1,.45.18c.1-.16.83.06,1.08,0a5.42,5.42,0,0,0,1.23-.45c.22.06.43-.17.44,0-.39.61-.53.45-.92.6s-1.33.1-1.43.09c-.33.13-.49-.19-.82-.14a2,2,0,0,1-.82-.07c-.14-.2-.57-.13-.67-.26S162.79,71,163.16,71.24Zm-.69-.53c.05.1.13.4-.16.35a.55.55,0,0,1-.09-.13c-.53.09-.52-1.3-.71-1.37s-.31-.26-.1.12c.16.21.11.84.34,1.14a1.15,1.15,0,0,1-.49-.93c.06-.11-.11-.36-.15,0,0,.63.58,1,.65,1.34,0,0,.16.1.17-.17.09,0,.41.12.4.13a4.27,4.27,0,0,1-1.28.76s-.2,0-.18-.25-.65-.4-.68-.79c0-.17-.19-.18-.28-.47.07,0,.65,0,.54.25-.17.59.35.38.36.65s.69.37.68.14-.12-.18.08-.37c-.36,0-.54-.51-.49-.65s-.14-.32-.16,0c-.07,0,.06.59.2.64.47.38,0,.4-.08.37s-.08-.28-.13-.41c-.16,0-.19-.2-.19-.2-.23-.23.11-.43,0-.44-.2-.18-.87.11-.89-.28a.86.86,0,0,1,.8-1c.77-.09.94.32,1,.47C161.74,70,162.47,70.67,162.47,70.71Zm-1.22-3.95c0-.19-.05-.28.2-.19a.35.35,0,0,0,.12.1.18.18,0,0,0,.12,0c.2,0,.24.1.35.29,0,.83.37.71.39.53.14-.51.09-.43.37-.23.06,0,.2.21-.2.87a.35.35,0,0,1-.43.15c-.27-.11-.23.21-.29.24s-.29.3-.35.44c-.29-.11-.39-.12-.42-.11s.1-.41.15-.35.38,0,.17-.09,0-.11-.07-.39c.1-.3.13-.54.07-.52,0-.24,0-.21-.09-.1s0,.46-.13.58c-.3.67-.16.94-.29.85-.34,0-.45.08-.57,0s.61-.5.69-.85C161.3,67.83,161.31,66.88,161.25,66.76Zm-.92-1c.12,0,.39.22.4.31a1.66,1.66,0,0,1,.11,2c-.32.41-.78.68-.68,1-.21.11-.15.24-.37.23-.16-.26-1-1-1.18-.94-.22-.17-.16-1.28-.28-1.42-.06-.38-.37-.31-.18-.76.17-.05.32-.35.26-.47.05-.61-.06-.48.55,0,.16,0,.21.31.27.45.06.49,0,1.14.29,1.08s.32-.32.27-.64-.43-.2-.19,0c.12.44-.13.24-.11.3-.08-.39,0-.73-.11-1-.27-.43.06-.2.09-.13.88.68.19,2.11.22,2.18-.11.36.2.27.22.11,0,0,.25-.56.28-.55s-.22-.21-.09-.42a1.76,1.76,0,0,0-.28-1.21c0-.09-.51-.5-.56-.4s-.21-.08-.21-.07-.29-.21-.09-.2C159.58,65.48,160.23,65.51,160.33,65.75Zm-1.6-.74c.15,0,.09.08.11.18s-.1.1-.18,0S158.42,65,158.73,65Zm1.75-2.15c.29-.26.14-.18.42-.57A1.84,1.84,0,0,0,161,62c.08-.07.13-.18.17-.14s-.11.28,0,.38.48-.12.68-.27c0-.08.13-.21.15,0l0,.08h0s.08.16.05.19-.06.11-.18.21-.33.09-.56.25a3,3,0,0,0-.67.67C160.46,63.46,160.31,63,160.48,62.86Zm.23.84c-.08.44-.32.28-.24,0s.06-.13.12-.27S160.75,63.35,160.71,63.7Zm-.68-.52c.24-.5.21-.19.23,0a2.54,2.54,0,0,0,0,.9c0,.1.48.45.63-.44,0-.31.08-.43.08,0s-.48.88-.82.83A1.42,1.42,0,0,1,160,63.18Zm-.94.2c.2,0,0,.36,0,.61,0,0,0,0,0,0s0,.76.19.42a2.45,2.45,0,0,1,.11-.86c.1-.1.07.09.07.09a2.14,2.14,0,0,0,.08.75c.06.18.26.16.18,0a1.52,1.52,0,0,1,0-.87c0-.19.15-.23.11-.11a1.64,1.64,0,0,0,.23,1.23c0,.29-.77.51-1,.26-.38-.11,0-.82-.2-.89s-.09,1-.34.74c-.08-.07.09-.92,0-1.1-.28-.56-.09.32-.18.77,0,0-.16,1.46-.19,1.47s-.06-.7,0-.85c.08-.32-.06-.18-.09-.15-.21.26,0,1.3-.39,1.49-.2.07-.55,0-.38-.63,0-.25-.16-.79.06-1,.13,0,.22-.19,0-.11,0-.19-.22-.17-.22,0a12.21,12.21,0,0,0-.22,1.58c-.19.11-.13.63-.16.65-1,1.67-.32.26-.38-.52a1.35,1.35,0,0,1,.12-1c.35.45.5,0,.46.11-.34,0-.14-.45-.2-.52a1,1,0,0,0,.22-.6c.27-.29.12-.92.24-1a1.18,1.18,0,0,0,.36-.39c0-.39.49-.14.55-.07s.18.19.37.35C158.69,63.29,158.84,63.65,159.09,63.38Zm-2.19-2.12c.06-.49.2-.53.26-.6l.08.05,0,0s0,0-.1,0,.11,0,.09,0h0a0,0,0,0,1,0,0v0h0s0,0,0,.07a.07.07,0,0,0,.09-.05s.07.06.08.07-.06-.1,0-.13.07.08.09.09.05.05,0,0c-.06-.31-.32-.19-.29-.36.21-.13.65-.28.74-.18s.18.43.16.73c0,0,0,0,0,0s-.25-.17-.35-.07.1,0,.08,0c.13,0,0,0-.08,0s0,0,.08,0a0,0,0,0,0,0,0h0s0,0,0,0,0,0,0,0,.07-.06.07,0,.06.06.07.06-.07-.11,0-.08.07.09,0,.21a1.51,1.51,0,0,1-.55.6C157.09,62.34,156.81,62.11,156.9,61.26Zm.4,1.21c-.07.4-.07.35-.29.55-.39.27-.72-.09-.51-.41.19-.13.15-.12.21-.2s.16-.27.28-.14S157.33,62.21,157.3,62.47Zm.94-.29c-.06-.08.18-1.27.08-1.4,0-.41-.2-.52-.26-.55s-.05-.15.08-.12a.71.71,0,0,1,.31.61c0,.21-.08,1.1-.11,1.39S158.25,62.4,158.24,62.18Zm0,.67c-.07,0-.54,0-.38-.45s.25-.34.3,0C158.19,62.56,158.36,62.55,158.28,62.85Zm-.52-.43c0,.32-.37.4-.28-.05C157.48,62.17,157.8,62,157.76,62.42Zm-.49-3.21a1.34,1.34,0,0,1,1.86.81,1.16,1.16,0,0,1-.48,1.16,3.12,3.12,0,0,0-.15-.93c-.1-.46-1.09-.19-1.67.34C156.45,60.09,156.56,59.59,157.27,59.21ZM156.66,62a.43.43,0,0,1-.34.46c-.3.25.1,1.38,1,.53.15-.16.29-.08,0,.14-1,.73-1.59-.2-.85-1.14C156.56,61.81,156.64,61.84,156.66,62Zm-.4,0a1.4,1.4,0,0,1-.15.3c-.08.13-.3,0-.16-.13l.2-.25a2.91,2.91,0,0,1,.3-.4c0-.06.11,0,.06.08S156.4,61.79,156.26,62Zm-.72.25c0-.07.14-.16.23-.28a9.92,9.92,0,0,1,.66-.84c0-.06.11,0,.06.07s-.48.63-.62.85l-.23.28C155.57,62.47,155.39,62.41,155.54,62.26ZM152.42,61c-.27-.21-.61-.39-.36-.39,0-.05,0-.05.14,0s.07,0,.16,0,.41.2.45.1,0-.31,0-.36,0,0,.18.4c.31.37,0,.49.43.71s.07.63,0,.51A5.78,5.78,0,0,0,152.42,61Zm.85,1.21c0,.09-.29.27-.22,0s0-.06.09-.2S153.28,62,153.27,62.19Zm.39,1.39c0-.08-.35-.34-.47-.48-.06-.31-.35-.43-.16-.46.24-.27.45-.17.66-.71,0-.56.31-.19.25,0s-.05.6-.1.76-.25.18-.43.43c.08.29.17-.07.37-.13s0,.24.07.48S153.73,63.65,153.66,63.58Zm-1,3.16c.2-.25.19-.09.2.21s.26.1.23.07c0-.29.15-.71.36-.82.06-.2.37-.47.56-.43.07-.12.37-.19.29-.06a1.64,1.64,0,0,0-.37.77c-.08.16.21.27.26,0s.31-1,.61-.79c.2-.16.39.07.49-.18.21-.73-.21-.42.21-1.51.07-.05,0-1-.14-.74a5.15,5.15,0,0,1-.11,1.11c-.1.2-.23-.29-.17-.3s.06-.75.17-.93-.11-.22-.14,0,0,.65-.19.94a.75.75,0,0,1-.78-.29c-.1,0-.15.15-.18-.13a3.78,3.78,0,0,0,.05-.91c.11-.11.08-.46.09-.26-.05-.48.31,0,.22.09s0,.7-.22,1.06c0,.2.11,0,.11,0s.16-.11.14-.8c0-.29.16-.35.13-.28s.29.11.24.07c.2-.08.12.13.13.13s-.17.18-.19.49.19.1.19,0c.13-.75.59-.59.71-.71s.51-.33.54.05c-.1.06-.1.26,0,.51a1.28,1.28,0,0,1-.22.58c0,.13.24.11.41,0-.06.06.12-.38.32-.14,0-.06.35,0,.52-.13.05.18-.2.41-.18.67a3.83,3.83,0,0,0-.32,1c0,.11-.31.27-.35.56.06,0-.06.14-.09,0a1.13,1.13,0,0,1,.12-.67c-.07-.16-.21-.09-.28.17,0,1.5.29,1,.31,1.21-.13.15-.05.35-.17.7,0,.1-.22.43-.18.68s.18-.08.25,0a1.22,1.22,0,0,1-.23.46c0,.22-.25.45-.23-.19a6.13,6.13,0,0,1,.19-1.24c-.1-.23.22-.39,0-.48-.26.06-.25.78-.28.8s-.05.48-.08.51,0,.84-.12.42c-.11,0-.17-.8-.28-.74s.06,0,0,0,0-.81.1-.79c.13-.26.14-.6-.07-.3a4.66,4.66,0,0,0-.5,1.42c.17.44,0,.39.17.59s.12-.16.08-.39.1-.37.21.11c0,0,.3.61.27.62,0,.18.42,0,.39,0,.3,0,.44.28.08.25s-.83-.44-.74-.06c.42.11,0,.28,1.3.24.06-.1.7-.25.64-.14.14,0-.27.18-.46.3s-.28.32-1.17.22a2.11,2.11,0,0,1-1.25-.22c-.35.06-.15-.69-.56-.91a1.42,1.42,0,0,0-1.29,0A2.15,2.15,0,0,1,152.61,66.74Zm-.31,1.8a1.22,1.22,0,0,1,1.26-.12c.29.21.09.61.25.74s.07.37,0,.63,0,.32-.09.35l-.23,0c-.13-.05,0-.55-.2-.61s0-.38.14-.63c-.05-.19-.31,0-.38.25s.19.55.11,1-.16.36-.16.93c-.05.11-.19.07-.21-.05a2.93,2.93,0,0,1,.13-1c.05-.17-.12-.49-.11-.73s0-.23-.11,0,.07.64,0,1c-.11.07,0,.25,0,.73,0,.07-.16.23-.15,0s0-.7.06-.75c0-.28-.1-.66,0-.9s0-.36-.14-.16c-.14.4.1.73.05,1s0,.36,0,.47-.12.24-.14,0-.06-.22,0-.45-.13-.4-.07-.61-.16-.28-.15-.15c-.07.39.18.5,0,.91-.12,0-.12-.15-.1-.22s-.1-.31,0-.56A.92.92,0,0,1,152.3,68.54Zm1,2.48c-.11,0-.14-.36,0-.44s.19,0,.22.08S153.58,71.06,153.35,71Zm-2.14-5c0-.06.11,0,.08.07a4.41,4.41,0,0,0,.08,1.57,3.49,3.49,0,0,0,.37,1.15c.17-.07,0,.16,0,.27s-.39-.29-.4-.72A4.1,4.1,0,0,1,151.21,66Zm.52,3.52s-.18-.07-.14-.19.09,0,.13,0A.14.14,0,0,1,151.73,69.56Zm-.88-2.71c0-.06.09,0,.06.08a4.54,4.54,0,0,0,.15,1.16,2,2,0,0,0,.41,1c.14.14.11.32,0,.28a2.16,2.16,0,0,1-.56-1.1A2.13,2.13,0,0,1,150.85,66.85Zm-.31,1.39c.11-.36.11-.09.17,0a5.85,5.85,0,0,1,.33.87c-.26,0-.39-.26-.5-.28S150.46,68.39,150.54,68.24Zm-1.84-3.57c0-.06.1,0,.07.08s0,.93.08,1.17a8,8,0,0,0,1,2.52c.14.13.11.31,0,.27s-.31-.45-.57-.64-.59-1-.63-1.14A6.83,6.83,0,0,1,148.7,64.67ZM148,65c0-.06.1,0,.07.08a4.17,4.17,0,0,0,.15,1.16,10.05,10.05,0,0,0,1.08,2.29c.05.13.1.32,0,.27a8.48,8.48,0,0,1-1.17-2A2.88,2.88,0,0,1,148,65Zm.13,2.09a2.66,2.66,0,0,0,.27.61c.05.07.14.38.3.51s0,.23,0,.21-.48-.42-.42-.6a1.18,1.18,0,0,1-.2-.77S148.14,67,148.14,67.05Zm.58,2a1.71,1.71,0,0,1-.57-1s.08,0,.08,0a2.82,2.82,0,0,0,1,1c.08.15.48.1.37.37.14-.06.18.38.07.27s-.42-.16-.57-.27C149,69.19,148.8,69.19,148.72,69.07Zm.38.83c-.11-.35.06-.13.16-.15.18.19.86.34.9.47s-.17.38-.26.31A1.4,1.4,0,0,1,149.1,69.9Zm.48.81s0-.06.06,0a1.4,1.4,0,0,0,.42,0,.56.56,0,0,0,.27-.12c.06,0,.23.07.2.1s-.15,0-.26.09S149.66,70.81,149.58,70.71Zm.41.39c-.31-.2,0-.17.06-.14.29,0,.8-.19.77-.13.07.23.29.18.24.33A2.57,2.57,0,0,1,150,71.1Zm.22.94c-.13,0-.35-.36-.12-.38a1.56,1.56,0,0,0,.82-.06c.08,0,.12.15-.09.27A.74.74,0,0,1,150.21,72Zm2.46,1.35c-.25,0,0-.32,0-.65s-.2-.39-.2-.12a1.49,1.49,0,0,1-.12.67c-.11.27-.41.19-.39,0a1.89,1.89,0,0,0,.33-.63c.12-.17-.16-.63-.34.26,0,.23-.16.4-.32.29s.23-.42.3-.78-.13-.24-.16-.08a2.12,2.12,0,0,1-.31.73c-.16.13-.47,0-.32-.16.45-.35.31-.63.47-.7s0-.23-.09-.09a4,4,0,0,0-.29.41.34.34,0,0,1-.45.24c-.18-.17.57-.49.59-.65.19-.25-.06-.28-.06-.19a1.33,1.33,0,0,1-.67.49c-.15.09-.36-.21-.12-.24a1.22,1.22,0,0,0,.6-.32c.2-.14.15-.23.08-.24-.24,0-.14-.29-.17-.28.13-.11.11,0,.25.15s0,.22.29.28,0,.25.38.34c.09-.09.13,0,.2-.14s.1.24.33.12c0,0,.19-.1.16-.09,0,.3.36.23.36.23.19,0,.19-.39,0-.23s-.24-.06-.11-.13.05-.26-.06-.19,0,.15-.16.15c-.13.16-.36.18-.27,0s-.08-.22-.25,0-.39.13-.22-.11c.1-.06,0-.2-.1-.14s-.31,0-.27-.13.27,0,.51-.09c.13.11.37,0,.2-.08a.72.72,0,0,0-.27-.1c0-.14-.15-.22,0-.43s-.14-.23-.16.1c0,.15-.24,0-.35.28,0,.11,0,.31-.1.18s.21-.26-.16-.35-.11-.25.06-.23.4-.1.4-.18c-.1-.25-.12-.34,0-.43s-.17-.21-.16,0-.24.08-.12.4c.11.11-.24.08-.27.07s-.18.2-.27.08-.36-.21-.44-.32.35-.19.58-.11.35,0,.19-.1-.74,0-.86-.11a1.34,1.34,0,0,1-.54-.81c0-.27.05-.21.38.12s.49.27.9.51c.18,0,.2-.17.06-.21-1.05-.25-.71-.4-1.13-.79,0-.07.11-.12.13,0a2.47,2.47,0,0,0,.89.59c.05.07,0-.08.11-.11a4,4,0,0,0,.53.59c.15,0,.2.07.22.23a.31.31,0,0,1,.1.08c-.08.08,0,.59.28.61,0,.25.05.47.17.39,0,.3.33.42.47.37s.11.11.1.19v0a.18.18,0,0,0,.29,0c.2-.08.13-.22,0-.16s-.29.06-.1-.11c0,0,0,0,0,0s0,0,0,0-.28,0-.49-.06-.05-.1,0-.1.11,0,.39,0,.58,0,.95-.1c.09.16-.07.28-.33.17-.11,0-.39.07-.08.3.06.28-.2.1-.24.21.09.34.33-.06.45,0a.58.58,0,0,0,0,.45s-.19,0-.16.17.1.64,0,.76c-.28.08-.28-.45-.24-.69s-.24-.24-.2.09.16.68-.06.7c0,0-.21.09-.13-.49,0-.24-.2-.45-.17-.12a1.89,1.89,0,0,1,0,.44C152.92,73.32,152.8,73.38,152.67,73.39Zm-1.1-2.23c0-.09.23-.15.28,0s0,0,0,.09S151.52,71.29,151.57,71.16Zm1.67,12.26a4.28,4.28,0,0,1-.36-.26c-.17-.25-.17-.11-.26-.25s0-.22.19-.13,0,0,.19.16a1.85,1.85,0,0,0,.33.35c.14.13.31.24.33.3s.16.21.12.23A1.33,1.33,0,0,1,153.24,83.42Zm.61.71c.14.06.09.45-.13.36S153.63,83.92,153.85,84.13Zm2.27-.07c-.18,0-.27.64-.58.7-.09,0-.43.15-.43,0s0-.06.12-.09a.4.4,0,0,0,.17-.3c.08-.27.12-.45.16-.54s.37-.33.5-.3.3.08.26.27S156.19,84,156.12,84.06Zm.86-.44c-.52.61-.48-.45-1.11-.2-.22,0-.38.63-.64-.43,0-.19,0-.7-.18-.44,0,.29-.07.51-.15.29s.29-.78-.5-1c-.28-.09.15-1.06.19-1.68s.23-.47.24.22c-.28,1,.13.77,0,1.38,0,.41.23.32.18-.27-.37-.76,0-1-.05-1.52s-.42-.14-.28-1.08c0-.14.33-1,.08-.76a2.13,2.13,0,0,0-.32,1c.15.56-.08,1-.17,1.72-.1.23-.12.65-.26.21s.22-.68.16-1c.18-.82-.13-1.38.13-1.72.13-.08.23-.5,0-.31-.34.35-.32.66-.29,2-.07.64-.48.48,0,1.37.16.39-.07.28-.24-.1-.69-1.41.23-1.49.16-1.69-.24-.28-.76.64-.58,1,0,.42.66,1.45,1.2,1.47.37.28-.08.6.22.87-.24.19-.26-.73-.42-.47-.16.58.51.64.52,1.24s.23.44.17-.18c-.24-.48,0-.61.17-.06s0,.62-.35.8c-.46.36-.33.12-.33-.26.13-1-1.07-1.41-1.17-2-.14-.09-.2-.95-.28-1.17-.37-.1,0,1.39.34,1.72.11.21,1.05.75.93,1.78-.37.93-1.24.4-1.18.24-.12-.36.39-.86.19-.29,0,.53.85.47.79-.11.12-.47-.92-1.25-1.29-1.62-.41-.64-.59-.27-.38-.19.15.25-.34,0-.93.08s.06-.22-.58-1.06c0-.15-.83-.73.16-1.4.84-1,.21-1,.92-1.85.12-.24.36,0,.27.29-.49.75-.23.75-.56,1.26s-.18.86.26,2c.12.42.51.44.25,0a7.44,7.44,0,0,1-.45-1.21c0-.52.49-1.21.46-1.53.27-.46-.08-.61.61-.73.33-.32.47-.25.41-.13s.23.38.22.82c-.11.6-.31.31-.16.18-.13-.32-.39.42,0,.38.64-.2.28-1.48-.11-1.86a27.31,27.31,0,0,1,.08-3.42c-.06-.65-.38-1-.19-.09,0,.24-.3-.09-.29-.4-.2-.47.25-.21.35-.37.38-.41.35.56.47.58.21.52-.11.39-.09.67.16.84-.27,1.19-.13,2.12.09.69.22.49.18-.05-.2-.65.21-1.27.14-2-.08-.4.61-.29.83-.33.7-.34,1,1,1.22,1.71-1.55,1.64-.47,1.49-.89,3.22,0,.27.24.3.38.09.3-.22.42-1.15.83-1.34-.11-.09.41-.63.55-.73.51-.44.89-.76.72-1.11s-.49.08-.63.19c-.35.23-.82.14-.93.54s.42.16.75,0,.29,0,.13.1a3.78,3.78,0,0,0-.94,1.07,2.46,2.46,0,0,0-.39.83s-.25.34-.23.23a2.15,2.15,0,0,0,0-.68,2.34,2.34,0,0,1,.21-1.79c.52-.66.82-.58,1.08-.82.67,0,.56-.32,1.22-.22-.12.06-.25.53-.1.42.31-.18.61-1,.94-.84.18.1-.12.32-.39.55.07-.07-.58.31-.44.47s.87-.65,1-.71c.08-.31.28-.49.41-.36.22-.26.24,0,.26,0s.23.09.06.11c-.06.32.5.19.3.7s.12.41.15,1.93c.46.21.56,1.22-.19,2.16-.61.79,0,.66-.59.84-.38.39-.26.8-.08.64.1,0-.06-.53.43-.6.3-.09.24-.58.52-.37s-.5.94-.52,1c-.47.37-.56.52-.65.4s0-1.07.13-1.41c.58-1.39.13-1.45.43-1.67s.28-.77,0-.33-.43.38-.21-.22c.1-.29.37-.59,0-.53-.7.8-.12,1.11-.16,1.64.06.91-.56.81-.88,1.55-.29.33,0,.51-.4,1.2,0,.55-.21.44-.3.47a3.19,3.19,0,0,1,.45-1.65c.45-.48.2-.67,0-.24C157.35,81.15,157.25,83.41,157,83.62Zm-.15-6.84c-.09.06-.51.12-.58.17s-.17,0-.18,0,.25-.18.57-.25.32-.2.49-.22.17.12,0,.22S157.05,76.63,156.83,76.78ZM151,109a.73.73,0,0,0,1.39-.13,2.5,2.5,0,0,1-.68.22C151.52,109.18,151.26,109,151,109Zm.14.1c.22,0,.47.1.57.08a2.4,2.4,0,0,0,.49-.17C152.08,109.4,151.24,109.53,151.09,109.14Zm-6.6-32.67a.73.73,0,0,1-.35-.12c-.13,0-.2,0-.15.11a1.1,1.1,0,0,0,.52.14C144.67,76.64,144.62,76.47,144.49,76.47Zm-.17.18s-.2,0-.13.09l.22.14c.07.05.08-.1,0-.12A.29.29,0,0,1,144.32,76.65Zm-3.72-.27s-.08-.18-.18,0a1,1,0,0,1-.32.31c-.06.06,0,.15.12.06a.57.57,0,0,0,.13-.08c.05,0,.15-.06.17,0s.26.17.38.15.19-.2,0-.13S140.57,76.61,140.6,76.38Zm8.27,32.53a.76.76,0,0,0,1.42,0,3.09,3.09,0,0,1-.69.17C149.45,109.06,149.19,108.91,148.87,108.91Zm.15.11c.22,0,.47.12.58.09a2,2,0,0,0,.49-.13C150,109.31,149.18,109.39,149,109Zm-.24-.74a.7.7,0,0,0,1.32-.14,3.12,3.12,0,0,1-.64.21C149.32,108.39,149.07,108.25,148.78,108.28Zm.13.09c.21,0,.45.08.55,0a3.67,3.67,0,0,0,.46-.14C149.86,108.58,149.06,108.71,148.91,108.37Zm-7.64-32c-.19.06-.09.22,0,.13a1.5,1.5,0,0,0,.58-.41c0-.08.09,0,.11,0a.49.49,0,0,0,.24.27c.11,0,.15-.07.07-.13a.67.67,0,0,1-.15-.7c0-.06-.08-.19-.18,0A1.31,1.31,0,0,1,141.27,76.34Zm14.31-10.29c0-.09-.12-.2-.08-.34s.05-.2,0-.31-.08-.08-.11,0,0,.15-.09.32.06.25.08.32S155.63,66.19,155.58,66.05Zm-7.11,41.5c.22.66,1.31.46,1.39-.13a4,4,0,0,1-.68.2C149,107.67,148.79,107.53,148.47,107.55Zm.15.09c.21,0,.47.08.56.06a3.6,3.6,0,0,0,.48-.15C149.61,107.85,148.77,108,148.62,107.64Zm6.65-40.84a2,2,0,0,0,0,.38c-.06.16.17.23.17.08s0-.26,0-.39a1.67,1.67,0,0,0,.11-.34.07.07,0,0,0-.12-.06A.51.51,0,0,0,155.27,66.8Zm8.06,3.52s0-.1-.1,0-.07.28-.1.36-.06.19,0,.22.09-.06.16-.16S163.34,70.36,163.33,70.32Zm-6-8.95c0,.17.09.2.23.14,0-.07-.06,0-.12,0S157.41,61.37,157.31,61.37Zm.59-.16h0l0,0h0S157.9,61.21,157.9,61.21Zm-.6-.36a0,0,0,0,1,0,0h0Zm-.17.81a.31.31,0,0,0,.25.17c0-.09,0-.07-.11-.11S157.22,61.64,157.13,61.66ZM152.6,78.78c-.13.19,0,.32.14.14,0-.12.2-.34.24-.15a.78.78,0,0,1-.15.59,1.6,1.6,0,0,0-.16,1.06c-.07.09.12.5-.09.27-.07-.06,0-.48-.18-.43s0,.79.27.75.11-.61.18-.75c0-.47.18-.6.35-1.25C153.29,78.17,152.73,78.42,152.6,78.78Zm7.12.75c-.25.55-.41.55-.52.84-.17.45.12.29.16.06s.64-.71.66-1.11a4.53,4.53,0,0,0-.15-1c-.11-.27-.29-.19-.2,0A2.25,2.25,0,0,1,159.72,79.53Zm-8.45.73c0-.15-.18-.1-.15,0s-.24.28-.19.55a.8.8,0,0,0,.28.44c0,.06.21.16.19,0s-.23-.24-.28-.56C151.13,80.57,151.3,80.39,151.27,80.26Zm2.3,29.7a8.62,8.62,0,0,0,1.88-.1,9.94,9.94,0,0,0-1.88-.09H138.86a9.94,9.94,0,0,0-1.88.09,8.62,8.62,0,0,0,1.88.1Zm.52-41.91a2.55,2.55,0,0,1,.62-1.62,6,6,0,0,0-.35,1.15c0,.09.14.26.22-.1a3.46,3.46,0,0,1,.56-1.48c.3,0,0-.27-.06-.15A2.6,2.6,0,0,0,153.89,68C153.81,68.22,154.06,68.22,154.09,68.05Zm.44,2.76a2.5,2.5,0,0,0,1.41-.18.8.8,0,0,0,.64-.53c.08-.21-.12-.4-.5-.17a1.14,1.14,0,0,0-.41.55,1.71,1.71,0,0,1-1.14.14C154.24,70.58,154.25,70.79,154.53,70.81Zm1.81-.77c.08,0,0,.17-.13.27s-.44.22-.27,0S156.23,70,156.34,70Zm-1.13,2.68c.14,0,0-.35-.24-.23,0,0,0,.12,0,.1C155.18,72.52,155.08,72.79,155.21,72.72Zm.27,3.19c.07.15.13-.06.09-.14a2.91,2.91,0,0,1-.17-.67,3.59,3.59,0,0,0-.42-.6c0-.13-.26-.15-.16,0a.93.93,0,0,0,.25.37C155.24,75.18,155.41,75.85,155.48,75.91Zm-14.93,53.56-1.18-3.61c-.18-.53-.23-.7-.34-1.12l-1.07.34-.3.84-.55,1.42-.48,1.2-.38.92c-.36.84-.43.93-.87,1v.4l1,0,.89,0v-.41c-.15,0-.45,0-.45-.33a6.25,6.25,0,0,1,.41-1.38h1.56l.19.63a4.59,4.59,0,0,1,.22.8c0,.27-.26.28-.44.3v.39l1.27,0c.44,0,.82,0,1.28,0v-.4C140.89,130.44,140.86,130.37,140.55,129.47Zm-3.13-1.21.68-1.91.56,1.91Zm3.67-19.13c.13.55,1.16.57,1.31.1a3.62,3.62,0,0,1-.66.07C141.6,109.31,141.39,109.16,141.09,109.13Zm.12.1c.21,0,.43.13.52.13s.32,0,.48,0C142.11,109.56,141.3,109.53,141.21,109.23Zm-8.25,21c-.69,0-.45-.32-.21-1.18l.78-2.94c.25-.95,0-1.06.7-1.06l.12-.39c-.49,0-1,0-1.46,0s-.8,0-1.28,0l-.13.39c.55,0,.84.09.6,1.1l-.74,3c-.23.92-.37,1.2-1,1.17l0,.48c.55,0,.62,0,1.47.05,1.76,0,1.82,0,2.55.08.2-.68.24-.84.47-1.52l-.43-.13A1.34,1.34,0,0,1,133,130.22ZM130,123c-1.62-1.07-3.34.11-4.35,1.58-1.16,1.7-1.27,3.45.12,4.36a3.54,3.54,0,0,0,1.89.55L129,128l-.31-.24c-.54.57-1.39,1.46-2.29.87s-.47-2.06.39-3.3a5.11,5.11,0,0,1,1.78-1.74,1.23,1.23,0,0,1,1.25.07c.94.61.25,1.85.08,2.15l.35.2c.43-.72.55-.93,1-1.64A5.18,5.18,0,0,0,130,123Zm22.25,6.44-1.19-3.61c-.17-.53-.23-.7-.34-1.12l-1.06.34-.3.84-.56,1.42-.47,1.2-.39.92c-.35.84-.42.93-.87,1h0v.36h0v0l1,0,.88,0v-.41c-.14,0-.43,0-.43-.33a6.12,6.12,0,0,1,.4-1.38h1.56l.18.63a3.79,3.79,0,0,1,.22.8c0,.27-.25.28-.44.3v.39c.43,0,.85,0,1.28,0s.81,0,1.27,0v-.4C152.57,130.44,152.54,130.37,152.24,129.47Zm-3.15-1.21.69-1.91.56,1.91Zm-2.77,1.47-1.19-1.88a1.51,1.51,0,0,0,1.14-1.5,1.37,1.37,0,0,0-.72-1.24,2.85,2.85,0,0,0-1.25-.21l-1.37,0c-.53,0-1,0-1.57,0v.39c.59,0,.61.12.62,1.12v3.09c0,.85,0,1-.62,1v.38l1.45,0c.47,0,.85,0,1.24,0v-.38c-.44,0-.6-.05-.64-.44,0-.16,0-.43,0-.82v-1l.39,0,1,1.79c.51.86.56.86,1.45.89h.83v-.37C146.79,130.41,146.67,130.28,146.32,129.73Zm-1.87-2.33a1.35,1.35,0,0,1-1.06.35V125.4a1.3,1.3,0,0,1,1,.22,1.21,1.21,0,0,1,.3.9A1.3,1.3,0,0,1,144.45,127.4Zm-2.57-18.85c-.18,0-.44-.14-.79-.16.18.66,1.41.6,1.57,0A5,5,0,0,1,141.88,108.55Zm-.64,0c.24,0,.51.13.63.12a2.78,2.78,0,0,0,.56-.09C142.33,108.82,141.38,108.85,141.24,108.5Zm-.5-.42a4.07,4.07,0,0,1-.74.27c-.17.06-.46,0-.81,0C139.51,109,140.7,108.66,140.74,108.08Zm-1.38.35c.25,0,.53,0,.64,0a5.23,5.23,0,0,0,.54-.19C140.49,108.53,139.56,108.75,139.36,108.43ZM127.31,89.09a1.05,1.05,0,1,0,1.06-1A1.05,1.05,0,0,0,127.31,89.09Zm-1.88-4.31c0-.33,0-.61.41-.65.18,0,1.9,0,2.23,0s2,0,2.41,0,.52.18.54.65h.45c0-.59,0-1.07,0-1.57,0-.27,0-1.47,0-1.71a2.43,2.43,0,0,0-.7-2,1.8,1.8,0,0,0-1.17-.4,1.49,1.49,0,0,0-1.47,1A4,4,0,0,0,128,81c0-.12-.06-.26-.1-.38a1.45,1.45,0,0,0-1.39-1.1,1.29,1.29,0,0,0-1,.47A2.2,2.2,0,0,0,125,81.5c0,.12,0,.48,0,.84s0,.74,0,.87c0,.54,0,1,0,1.57Zm3.13-3.55a1.36,1.36,0,0,1,1.14-.42,1.41,1.41,0,0,1,1,.29,1.08,1.08,0,0,1,.28.78c0,.71-.34.72-1,.72h-1.67A2,2,0,0,1,128.56,81.23Zm-2.9.33a1.09,1.09,0,0,1,1-.41c1.18,0,1.19.73,1.19,1.42h-2.32A2,2,0,0,1,125.66,81.56Zm22.61,26.5a3.48,3.48,0,0,1-.72.2c-.16,0-.45-.09-.79-.07C147.06,108.82,148.22,108.63,148.27,108.06Zm-1.34.22c.23,0,.51.09.63.06a5,5,0,0,0,.51-.15C148,108.48,147.12,108.61,146.93,108.28ZM126,104.36a3,3,0,0,0,1.26,1,3.87,3.87,0,0,0,1.46.29,3.52,3.52,0,0,0,2.46-.94,3.39,3.39,0,0,0,.9-2.37,3.31,3.31,0,0,0-1.61-3,3.52,3.52,0,0,0-1.77-.44,3.34,3.34,0,0,0-2.51,1,3.24,3.24,0,0,0-.54.82,2,2,0,0,0-.11.26l-.63,1a18.64,18.64,0,0,0-1.29,2.29,4.7,4.7,0,0,0-.33,1.75,11.51,11.51,0,0,0,.27,2.2H124a4.62,4.62,0,0,1-.11-1,3.67,3.67,0,0,1,.21-1.19,12.5,12.5,0,0,1,1.44-2.75A3.35,3.35,0,0,0,126,104.36Zm.3-3a3.63,3.63,0,0,1,2.41-.64,6.17,6.17,0,0,1,1.28.11,2.19,2.19,0,0,1,1.35.75,1.27,1.27,0,0,1,.21.74,1.21,1.21,0,0,1-.54,1,4.12,4.12,0,0,1-2.54.53,3.37,3.37,0,0,1-2.18-.64,1.3,1.3,0,0,1-.4-1A1.27,1.27,0,0,1,126.31,101.39Zm28.23,28.15a.72.72,0,0,0-.74.76.6.6,0,0,0,.62.64c.14,0,.28,0,.28.23a.56.56,0,0,1-.1.29,1,1,0,0,1-.65.35l0,.37a1.54,1.54,0,0,0,1.15-.55,1.65,1.65,0,0,0,.33-1C155.41,130,155.09,129.54,154.54,129.54ZM126,98.82c0-.47.08-.5,1-.84l3.92-1.28c.58-.19.76-.24,1.21-.37l-.37-1.15-.91-.34-1.54-.58-1.3-.53-1-.42c-.92-.39-1-.46-1.06-.94h-.45c0,.4,0,.73,0,1.12s0,.63,0,1H126c0-.16,0-.48.36-.48a6.45,6.45,0,0,1,1.49.44v1.69l-.68.21a4.61,4.61,0,0,1-.86.23c-.3,0-.31-.28-.33-.48h-.43c0,.46,0,.92,0,1.39s0,.88,0,1.38Zm2.37-4.24,2.07.74-2.07.61Zm-2.2-32,1.55.6,1.29.52,1,.42c.92.39,1,.46,1.07.94h.44c0-.4,0-.73,0-1.11s0-.63,0-1H131c0,.15,0,.49-.35.49a6.63,6.63,0,0,1-1.5-.45V61.33l.68-.21a4.61,4.61,0,0,1,.86-.23c.3,0,.31.27.33.48h.43c0-.47,0-.93,0-1.39s0-.89,0-1.39H131c0,.48-.08.5-1.06.84l-3.92,1.28c-.57.19-.76.24-1.21.37l.37,1.16Zm2.53-1.08v1.36l-2.07-.75Zm12.08,47.32a8.26,8.26,0,0,1-1.22.25c-.27,0-.7-.18-1.27-.18C138.6,109.89,140.54,109.68,140.73,108.8Zm-1.23.36a6,6,0,0,0,.88-.18c-.13.47-1.64.59-1.89,0C138.88,109,139.32,109.19,139.5,109.16ZM167.59,105l.06.26a3.26,3.26,0,0,1-1.12,1.4l-.27,1,.2-.09-.22.84.15.07-.47.7.22.36,0-.43.37-.64.2-.05-.13-.91.25-.12a5.66,5.66,0,0,1,.43-1.08l-.19.74,0,.63.08.56.14.45.24.44.27.36.42.28.52.18.6-.23.3-.29.3-.4.2-.4.15-.56,0-.39,0-.65-.19-.81a7.09,7.09,0,0,1,.46,1.17l.25.12-.13.92.21.06.36.61.06.43.22-.33-.5-.74.15-.07-.21-.8.18,0-.24-.94a3.62,3.62,0,0,1-1.15-1.36l.09-.25c.42,1.68,2.85,2.68,3.69,1.67l-.09-1a14.19,14.19,0,0,0-2.79-1.75l.06-.29.72-.24,0-.24.4-.53.33-.21-.33-.06-.45.71-.07-.11-.6.5,0-.18-.58.48-.13,0a4.92,4.92,0,0,1,.78-1.27l0-.29.66-.36,0-.21.31-.6.28-.28h-.31l-.34.76-.08-.09-.5.58v-.16a3,3,0,0,0-1,1.71l-.23-.59.11-.16.11-.24-.05-.27-.15-.19-.21-.15-.21,0h-.15l.36-.56.35-.34.61-.14-.31-.15-.39.15-.39.43-.23.37-.4-.07-.39.05-.22-.33-.38-.45-.39-.14-.32.13.61.15.38.39.34.51h-.13l-.29.08-.21.13-.14.19-.05.24.12.28.1.12-.18.54a3.11,3.11,0,0,0-1-1.67v.23l-.5-.61-.1.14-.31-.81-.32,0,.28.24.31.63,0,.2.66.36,0,.29a6.64,6.64,0,0,1,.78,1.25l-.11,0-.57-.48v.19l-.6-.5-.06.12-.46-.73-.31.06.32.22.4.55v.22l.75.24.05.29a13.77,13.77,0,0,0-2.87,1.76l-.05,1C164.47,107.44,166.81,107.23,167.59,105Zm-1.05,1.28-.35-.42.45-.35.29.3A1.33,1.33,0,0,1,166.54,106.29Zm2.42,3.37-.23,0-.27-.06-.25-.1.06-.15.12.09.13-.13.09.12.13-.12.1.12.11-.11.1.1.12,0,0,.15Zm.55-.32-.32-.18-.35-.09h-.3l-.36.07-.3.17-.38-.54.21-.12.2.16.29-.22.25.21.32-.23.25.22.25-.19.27.18.15-.11.22.12Zm.63-1.23-.1.39-.41-.31-.65-.12h-.56l-.6.13-.45.21-.11-.33,0-.37.26-.23.25.2.35-.27.3.26.41-.28.31.27.31-.24.34.23.18-.13.26.21Zm-.07-1.66.12.61-.85-.24h-1.26l-.85.25.12-.64.18-.15.24.18.33-.25.3.25.39-.27.31.26.3-.23.32.22.18-.13Zm-.2-.46-.39-.21-.43-.1h-.51l-.53.07-.42.15.37-.38.4-.19h.69l.53.31Zm-1.82-2.24h.08l0-.08h0l0,0,.08,0,0-.08,0,0h.05l0,.07,0,0,0,.06.08,0v.11h.06l0,.11h.08V104l0,0-.07,0,.06.07h0l0,.06,0,0,0,0h0l0,.11-.05,0,0,.07,0-.08-.07.08v-.08l-.06,0,0-.06v-.07l-.06,0,0-.11H168V104l.06,0-.1,0,.06,0,0,0Zm.59.6.12,0-.07-.08.07-.09,0-.08.13,0-.15-.1.06-.07-.05-.1.07,0-.08-.08h.14l-.05-.09.09,0,0-.11.11,0,.06.09.09,0,0,.12h.14l0,.16.12.1-.07,0,.14.11-.09.06.09.07v.1l-.12,0,.1.09-.09,0,.08,0,0,.07,0,.1-.13-.07.07.12-.16,0,.06.1h-.13l-.05.09-.1-.05-.06.13-.11-.11-.06.1-.06-.1-.07.08,0-.16-.08.13-.08-.09-.06.11-.12-.12-.07.1-.05-.1-.09,0,0-.25.07,0,0-.1.06.09.07-.11.07.11,0-.09.11.09,0-.11.14,0,0-.1.13,0Zm1.86,1.47.3-.3.44.35-.35.42A1.44,1.44,0,0,1,170.5,105.82Zm2.79.05.13.6-.71-.54,0-.57A1.83,1.83,0,0,1,173.29,105.87Zm.08.79c-.44.28-1.17.51-2.39-.28l.36-.44,1.22,0Zm-.84-1.44-.06.64-1.11-.11a4.62,4.62,0,0,1-1-1l.35.63-.38.37-.73-1.61.13-.26A10.38,10.38,0,0,1,172.53,105.22Zm-3.4-2.91.25,0,.2.07.12.1,0,.12-.09.14-.11.09-.45,0-.15,0-.13-.07-.06-.36.15-.06Zm-.4-.58.23,0-.1.14-.16.09-.16-.09-.08-.16Zm-1.09.89,0-.13.12-.1.2-.08.25,0h.22l.19.08-.06.37-.13.07-.18,0-.44,0h0l-.1-.09Zm.14.48.92-.08.89.08.11.25,0,.24-.11,0v-.08h-.11l0-.09-.12,0v-.09l-.1,0v-.09l-.11,0,0-.11-.12,0-.09-.08-.1.1,0-.11-.1.07,0-.06-.12.1-.08-.06-.1.09-.09-.07,0,.11-.12-.07-.09.11-.12,0v.12l-.09-.07,0,.15-.09-.06-.1.07v-.2Zm-.12.76.12.26-.72,1.61-.38-.37.34-.63a4.83,4.83,0,0,1-.94,1l-1.12.11-.06-.64A10.6,10.6,0,0,1,167.66,103.86Zm-3.52,2a1.94,1.94,0,0,1,.62-.51l0,.57-.7.54Zm.74.12,1.21,0,.36.44c-1.21.79-1.95.56-2.38.28ZM170,79.09a.1.1,0,0,1-.17,0c-.7-.82-2,.28-2.89.3a3.64,3.64,0,0,0,5.91,0C172.14,79.4,170.81,78.27,170,79.09Zm-2.43.78c1-.52,1.94.14,2.34.1s1.67-.62,2.38-.11A3.81,3.81,0,0,1,167.59,79.87Zm2.61-.17c-.27.12-.28.11-.62,0-.78-.35-1.61,0-2.12-.14.75-.33,1.95-.89,2.26-.29a.26.26,0,0,0,.4,0c.45-.61,1.3-.09,2.32.27C171.92,79.65,171.14,79.27,170.2,79.7Zm-9.5,26.57a7.42,7.42,0,0,0,.39,1.49l-1,1.22a13.83,13.83,0,0,0,.87,1.51l1.51-.34a8,8,0,0,0,1.08,1.09l-.29,1.56a13.38,13.38,0,0,0,1.53.86l1.12-1a8.09,8.09,0,0,0,1.48.41l.52,1.49c.11,0,1.58,0,1.75,0l.49-1.49a8.48,8.48,0,0,0,1.49-.43l1.17,1.05c.21-.11,1.34-.72,1.5-.86l-.32-1.58a10.09,10.09,0,0,0,1.11-1.06l1.5.33a16.53,16.53,0,0,0,.9-1.5l-1-1.2a7.43,7.43,0,0,0,.4-1.47l1.47-.47a11.36,11.36,0,0,0,0-1.75l-1.48-.54a7.86,7.86,0,0,0-.42-1.51l1.05-1.09a10,10,0,0,0-.87-1.49l-1.54.27a7.7,7.7,0,0,0-1.11-1.1l.36-1.48a8.85,8.85,0,0,0-1.5-.88l-1.2,1a7.62,7.62,0,0,0-1.49-.4l-.47-1.48c-.13,0-.63,0-.92,0a7.56,7.56,0,0,0-.82,0l-.52,1.48a7.86,7.86,0,0,0-1.46.4l-1.18-1a13.29,13.29,0,0,0-1.49.86l.32,1.51a9.35,9.35,0,0,0-1.09,1.09L161,99.44a9.33,9.33,0,0,0-.88,1.51l1,1.12a8.09,8.09,0,0,0-.41,1.48l-1.48.54a9.67,9.67,0,0,0,0,1.75Zm8.07-8.11a6.87,6.87,0,0,1,6.84,6.7,6.86,6.86,0,1,1-6.84-6.7Zm1.47-18c-.06,0-.13.1-.12.17a.1.1,0,0,0,.12.1,2.24,2.24,0,0,0,.85-.28c.06,0,.11-.07.09-.12s-.08-.06-.14,0A1.79,1.79,0,0,0,170.24,80.18Zm.8,0a3.08,3.08,0,0,1-.75.23c-.06,0-.11,0-.12-.07s.06-.13.12-.16A2.77,2.77,0,0,1,171,80s.12,0,.13,0S171.09,80.16,171,80.18Zm-23,27.15a3.38,3.38,0,0,1-.6.26c-.12,0-.37-.06-.66,0A.68.68,0,0,0,148,107.33Zm-1.11.32c.19,0,.44,0,.52,0a2.86,2.86,0,0,0,.43-.19C147.82,107.77,147.07,108,146.88,107.65Zm18.47-33.22a1.2,1.2,0,0,0-.27,1.58s-.58.78-1,1.36a1.2,1.2,0,0,0-1.41.77l-.63,2.3a.63.63,0,1,0,1.21.3l.53-1.72a.64.64,0,0,0,.79-.3l-.67,2.16a.65.65,0,1,0,1.21.42l.6-2.21a1.29,1.29,0,0,0-.44-1.32,6,6,0,0,1,.61-.81,1.19,1.19,0,0,0,1.43,0l1.91-1.48a1.22,1.22,0,0,0,.44-.74h.58a1.25,1.25,0,0,0,.43.74l1.92,1.48A1.19,1.19,0,0,0,174,77a6,6,0,0,1,.61.81,1.29,1.29,0,0,0-.44,1.32l.6,2.21a.65.65,0,1,0,1.21-.42l-.67-2.16a.64.64,0,0,0,.79.3l.53,1.72a.62.62,0,1,0,1.2-.3l-.62-2.3a1.22,1.22,0,0,0-1.41-.77c-.44-.58-1-1.34-1-1.36a1.21,1.21,0,0,0-.29-1.58L172.62,73a1.19,1.19,0,0,0-1.67.21l-.29.36h-1.45l-.28-.36a1.19,1.19,0,0,0-1.67-.21Zm-2.75,6.64a.4.4,0,1,1,0-.8.4.4,0,0,1,.39.39A.4.4,0,0,1,162.6,81.07Zm.57-.63a.6.6,0,0,0-.73-.36l.47-1.68a1,1,0,0,1,1-.77c-.6.71-.59,1-.25,1.32Zm1.28,1.16a.4.4,0,0,1-.39-.4.4.4,0,0,1,.79,0A.4.4,0,0,1,164.45,81.6Zm.94-2.5-.48,1.7a.58.58,0,0,0-.73-.14l.45-1.52c.09-.3.07-.43,0-.55l.45-.58A1,1,0,0,1,165.39,79.1Zm-1.06-.43a.39.39,0,1,1-.63-.46l1.84-2.5a.42.42,0,0,1,.56-.09.39.39,0,0,1,.07.55Zm1.82-3.28,1.62-1.19a.6.6,0,0,0,.43.51l-1.51,1.13a.76.76,0,0,1-.23.13A.6.6,0,0,0,166.15,75.39Zm2.77-.09-1.67,1.3a1,1,0,0,1-1.22.1l.32-.42.06-.11a.67.67,0,0,0,.36-.14l1.52-1.15.19-.16h.84A1.15,1.15,0,0,1,168.92,75.3Zm3.7,1.3L171,75.3a1,1,0,0,1-.4-.57h.83l.19.16L173.11,76a.67.67,0,0,0,.36.14.28.28,0,0,0,.06.11l.31.42A1,1,0,0,1,172.62,76.6Zm-1-1.89a.63.63,0,0,0,.45-.51l1.6,1.19a.61.61,0,0,0-.3.58.76.76,0,0,1-.23-.13Zm4.15,6.49a.4.4,0,1,1-.79,0,.4.4,0,0,1,.79,0Zm-.12-.54a.58.58,0,0,0-.73.14l-.47-1.7a1,1,0,0,1,.3-1.09l.45.58a.65.65,0,0,0,0,.55Zm2,0a.4.4,0,1,1-.8,0,.4.4,0,0,1,.8,0ZM177,78.4l.46,1.68a.59.59,0,0,0-.72.36L176.26,79c.33-.36.35-.61-.26-1.32A1,1,0,0,1,177,78.4Zm-.8-.19a.4.4,0,0,1-.07.55.41.41,0,0,1-.56-.09l-1.83-2.5a.39.39,0,0,1,.07-.55.41.41,0,0,1,.55.09Zm-5-4.83a.94.94,0,0,1,1.38-.12l1.67,1.3a1,1,0,0,1,.4,1.17c-.31-.5-.69-.39-.71-.39s0,0-.17-.15L172.11,74a.61.61,0,0,0-.59-.46H171Zm.33.36a.39.39,0,1,1,0,.78h-3.11a.39.39,0,0,1,0-.78Zm-2.75-.36.11.15h-.48a.62.62,0,0,0-.59.46l-1.61,1.2c-.18.13-.16.16-.17.15a.67.67,0,0,0-.72.39,1.05,1.05,0,0,1,.41-1.17l1.66-1.3A1,1,0,0,1,168.73,73.38Zm-20.25,35.31a2.86,2.86,0,0,1-.66.27c-.14.06-.42,0-.74,0A.76.76,0,0,0,148.48,108.69Zm-1.24.35c.22,0,.5,0,.6,0a3.32,3.32,0,0,0,.47-.21C148.3,109.18,147.46,109.39,147.24,109Zm-2.63,0a4.35,4.35,0,0,1-.89.18c-.19,0-.51-.16-.92-.17C143.07,109.85,144.48,109.71,144.61,109Zm-.25.14c-.1.38-1.19.45-1.38,0,.28,0,.6.16.74.14A5.13,5.13,0,0,0,144.36,109.14Zm.1-1.07a4.05,4.05,0,0,1-.67.28c-.14.05-.42-.06-.74,0A.78.78,0,0,0,144.46,108.07Zm-.65.35a4.61,4.61,0,0,0,.47-.2c0,.31-.86.52-1.07.2C143.43,108.39,143.7,108.46,143.81,108.42Zm.75-1a5,5,0,0,1-.62.21c-.13,0-.39,0-.68,0C143.56,108.13,144.55,107.88,144.56,107.41Zm-1.15.28c.2,0,.45,0,.55,0s.28-.12.43-.16C144.37,107.78,143.6,108,143.41,107.69Zm3.12,1.13a3.76,3.76,0,0,1-.76.24c-.16,0-.45-.09-.8-.06A.86.86,0,0,0,146.53,108.82Zm-1.39.27c.24,0,.54.09.64.06s.36-.13.54-.17C146.28,109.31,145.34,109.47,145.14,109.09Zm1.14-1.75a2.76,2.76,0,0,1-.67.21c-.14,0-.4-.09-.72-.07A.74.74,0,0,0,146.28,107.34Zm-1.24.24c.22,0,.48.09.58.06a3.33,3.33,0,0,0,.48-.16C146.06,107.81,145.22,108,145,107.58Zm1.24.58a3.42,3.42,0,0,1-.67.22c-.15,0-.41-.09-.73-.06A.75.75,0,0,0,146.28,108.16Zm-.19.13c0,.34-.88.49-1.06.12.22,0,.48.09.58.06S145.93,108.34,146.09,108.29ZM141,97.12c0,.14.15,0,.14.37a.7.7,0,0,0,0,.84c.47,0,.43-.31.65-.08.51.17-.2.82.49,1.1.57,0,.31.49.06.74s-.06.45-.64.88c-.17.32-.11.46.3.53.12.61.45.44,1,.24.09-.53.48-.32.47-.19.33.61.73.46.83.75,0,.55.47.89.57.8-.28,1,.42,1.49.62,1.47.14,1,1.06,1.3,1.46.41.17-.42-.13-1-.34-1,.11-.27,0-.37,0-.42.4-.08.38-1.31,0-1.57a.81.81,0,0,0,.05-.94c.41.14,1.13-.53.75-1.55a.65.65,0,0,0,.25-.09.59.59,0,0,0,1.09,0c.25.16.43.6.73,0a5,5,0,0,0,.26-1.58c.3-.66.05-.52,0-1.2-.06-.28.33-.57-.09-1.45-.38-.08-.64,0-.27-.68.2-.44-.16-.52-.12-1.33-.05-.55-.64-.36-1.1,0-.73.5-.88.3-.78-.13s-.05-.59.31-.64c.13-.07,1-.56,1-.67s0-.62-.41-.39c-.91.38-1.58.63-1.62,1.06,0,0-.08,1.12-.12,1.47s-.1.16-.17.2a4.61,4.61,0,0,0-1.39-.85,1.32,1.32,0,0,0-1.65,1.13c-.29.2-.3-.45-.94-.34s-.61.81-1.22,1.26a.67.67,0,0,0-.16,1c-.18.2-.15.17-.21.43S140.82,97,141,97.12Zm3.15,4.72c-.34,0-.52-.34-.52-.8a.8.8,0,0,1,.71-.81.55.55,0,0,1,.25.07.83.83,0,0,0,.29.89A.66.66,0,0,1,144.11,101.84Zm2-.87c.24,0,.39.25.39.56a.56.56,0,0,1-.53.54c-.24,0-.37-.24-.37-.54A.56.56,0,0,1,146.08,101Zm-.88.12c-.29,0-.44-.32-.44-.74a.72.72,0,0,1,.61-.76c.29,0,.46.33.46.76A.72.72,0,0,1,145.2,101.09Zm.17-1.68c-.4,0-.59-.41-.59-.93a.91.91,0,0,1,.81-.94c.4,0,.64.41.64.94A1,1,0,0,1,145.37,99.41Zm.68-2c-.34,0-.51-.34-.51-.8a.78.78,0,0,1,.7-.8c.34,0,.54.36.54.8A.8.8,0,0,1,146.05,97.45Zm-.76-1.77c-.23,0-.35-.23-.35-.54a.54.54,0,0,1,.49-.56c.23,0,.37.24.37.56A.55.55,0,0,1,145.29,95.68Zm.07.9a.92.92,0,0,1-.81.82c-.36,0-.51-.36-.48-.82a.86.86,0,0,1,.77-.83C145.2,95.75,145.38,96.11,145.36,96.58Zm-.7,1.52a.56.56,0,0,1-.5.55c-.25,0-.36-.24-.36-.55a.54.54,0,0,1,.48-.55C144.52,97.55,144.66,97.79,144.66,98.1Zm-.92-2c-.27,0-.35-.39-.28-.79s.41-.7.68-.65.37.4.31.81A.72.72,0,0,1,143.74,96.11Zm.14,1.28a.89.89,0,0,1-.79.9c-.37,0-.56-.39-.56-.9a.88.88,0,0,1,.76-.92C143.66,96.47,143.88,96.87,143.88,97.39Zm-.2,1.07c.14.4.44.45.82.24a.9.9,0,0,1,0,1.14c-.26.22-.61.07-.9-.28A.83.83,0,0,1,143.68,98.46Zm.91,3.79a.6.6,0,0,1,.53-.61c.27,0,.43.27.43.61a.62.62,0,0,1-.57.62C144.72,102.87,144.59,102.6,144.59,102.25Zm.94,2.11c-.33,0-.5-.31-.5-.72a.72.72,0,0,1,.69-.72c.34,0,.53.31.53.72A.74.74,0,0,1,145.53,104.36Zm1.14.37a.51.51,0,0,1-.47.51c-.22,0-.32-.22-.32-.51a.49.49,0,0,1,.44-.52C146.54,104.21,146.67,104.43,146.67,104.73Zm0-1.9a.62.62,0,0,1-.26.5.79.79,0,0,0-.68-.71.58.58,0,0,1,.51-.41C146.51,102.21,146.67,102.48,146.67,102.83Zm-.18-2c-.34,0-.5-.35-.5-.8a.78.78,0,0,1,.69-.8c.34,0,.54.36.54.8A.81.81,0,0,1,146.49,100.88Zm.5-1.68c-.39,0-.59-.4-.59-.92a.91.91,0,0,1,.81-.93c.4,0,.63.41.63.93A.93.93,0,0,1,147,99.2Zm.85-3.23c.4,0,.63.41.63.94a1.05,1.05,0,0,1-.46.8.91.91,0,0,0-.95-.57.94.94,0,0,1,.78-1.17Zm-.43-.47c0-.24.21-.64.47-.64s.47.28.51.64a.58.58,0,0,1-.09.4.75.75,0,0,0-.76-.06A.62.62,0,0,1,147.41,95.5Zm.67,4a.64.64,0,0,1-.41-.27,1.23,1.23,0,0,0,.33-1.36,1.43,1.43,0,0,1,.28-.07c.36,0,.58.37.58.85A.86.86,0,0,1,148.08,99.46Zm1.36-1.4a2.21,2.21,0,0,1-.17,1c0,.39-.15.37-.24.2s.2-.61,0-1.44c-.64-.58-.23-.14-.24-1.18,0-.32.33-.06.56,0,0,.28.1.34.12.68S149.43,97.64,149.44,98.06Zm-1-4.62c.34-.31.57-.28.56,0-.09.79.17.46.18.81s-.62,1,0,1.08c.44.29.18.56.26.83s-.67.11-.69,0-.29-.21-.15-.48a.91.91,0,0,0-1-1.07c-.19,0-.35.3-.59,0-.08-.17-.36-.07-.32-.18l.07-.2c-.08-.28.19-.6.4-.55C147.84,93.94,147.88,93.49,148.41,93.44Zm-1.54-.81c0-.14-.05-.25.33-.5a8,8,0,0,1,.84-.47c.12,0,.28,0,.29,0s-.09.16-.19.22c-1.38.62-1,.86-1.12,1.42,0,.19-.37.33-.32,0Zm-.28,2.08c.33.05.51.34.56.75a.71.71,0,0,1-.26.64.79.79,0,0,0-.84-.48C146,95.16,146.25,94.66,146.59,94.71Zm-5.37.85c.6,0,.57-1.3,1-1.24.57-.1.43.71,1.27.18a1,1,0,0,1,1.51-.79c.47,0,1,.45,1,.77a1,1,0,0,0-1.35.23c-.26-.43-1.64-.72-1.41,1.51a1.23,1.23,0,0,0-.15,2.4c0,.73.09,1.2.77,1.43a1,1,0,0,0-.64,1.12c-.3,0-.68.27-.48.39-.17,0-.47.35-.62-.11-.14-.14-.43-.21-.21-.43s.5-.31.36-.61a1.17,1.17,0,0,0,.53-.84.45.45,0,0,0-.18-.47c-.17-.09-.63-.1-.5-.44s.21-.43-.15-.51-.15-.34-.29-.49c-.32-.24-.09.51-.53.45-.32-.53.39-.39.19-.71a1.33,1.33,0,0,1-.11-.34c-.12-.29-.18-.23-.25-.36.17-.25.17-.2.48-.16C141.53,96.19,140.78,96.27,141.22,95.56Z"/><path class="cls-2" d="M189.25,149.15l-27.5,0h0c-2.95,0-3.54,1.54-4.64,3.4V157c1.09-1.85,1.64-3.91,4.58-3.93l27.56,0c6.39,0,9.06-3.76,9.06-6.56C195.89,148.51,194.18,149.15,189.25,149.15Z"/><path class="cls-3" d="M124.82,149.15l27.63,0h0c2.94,0,3.54,1.54,4.63,3.4V157c-1.09-1.85-1.64-3.91-4.57-3.93l-27.69,0c-6.38,0-9-3.76-9-6.56C118.18,148.51,119.89,149.15,124.82,149.15Z"/><path class="cls-1" d="M22.71,200.62H18.86a.76.76,0,0,1-.75-.54l-1.75-5.36H6.94L5.2,200.08a.77.77,0,0,1-.75.54H.59c-.46,0-.7-.25-.54-.75l8.84-26.11a.77.77,0,0,1,.75-.54h4a.75.75,0,0,1,.74.54l8.84,26.11C23.42,200.37,23.17,200.62,22.71,200.62Zm-7.8-10.3-.79-2.53c-.83-2.53-1.66-5.77-2.49-8.63-.79,2.86-1.62,6.1-2.45,8.63l-.78,2.53Z"/><path class="cls-1" d="M45.57,185.59v13.49a.71.71,0,0,1-.54.79,25.41,25.41,0,0,1-7.88,1.25c-8.14,0-11.83-4-11.83-14.24,0-9.88,3.4-14.16,12.53-14.16a36,36,0,0,1,6.15.58.72.72,0,0,1,.58.75V177c0,.58-.29.79-.91.7a42.1,42.1,0,0,0-5.53-.41c-5.77,0-7.55,1.54-7.55,9.51s1.83,10,7,10a18.8,18.8,0,0,0,3.2-.25v-7.26h-4a.61.61,0,0,1-.66-.67v-3a.61.61,0,0,1,.66-.66h8.18A.6.6,0,0,1,45.57,185.59Z"/><path class="cls-1" d="M51.09,190.57V173.89a.61.61,0,0,1,.66-.67h3.78a.61.61,0,0,1,.66.67V190.2c0,4.81,1.45,6.39,5.32,6.39s5.27-1.58,5.27-6.39V173.89a.61.61,0,0,1,.66-.67h3.78a.61.61,0,0,1,.66.67v16.68c0,7.43-3,10.55-10.37,10.55S51.09,198,51.09,190.57Z"/><path class="cls-1" d="M97.48,200.62H93.62a.77.77,0,0,1-.75-.54l-1.74-5.36H81.71L80,200.08a.77.77,0,0,1-.75.54H75.36c-.46,0-.71-.25-.54-.75l8.84-26.11a.77.77,0,0,1,.75-.54h4a.76.76,0,0,1,.75.54L98,199.87C98.19,200.37,97.94,200.62,97.48,200.62Zm-7.8-10.3-.79-2.53c-.83-2.53-1.66-5.77-2.49-8.63-.79,2.86-1.62,6.1-2.45,8.63l-.79,2.53Z"/><path class="cls-1" d="M116.15,177.62a34.76,34.76,0,0,0-5.39-.5c-4.11,0-5.15.83-5.15,3.28,0,2,.71,3,4.48,4.2l2,.62c5.23,1.62,6.85,3.65,6.85,7.89,0,5.56-2.79,8-10,8a34.16,34.16,0,0,1-7.51-.88.73.73,0,0,1-.58-.78v-3c0-.58.33-.71.75-.63a38.78,38.78,0,0,0,7.14.84c3.82,0,5.1-1,5.1-3.57,0-2-.74-2.79-4.85-4l-1.66-.54c-5.07-1.54-6.81-4-6.81-8.14,0-5.18,2.74-7.68,9.58-7.68a29.94,29.94,0,0,1,6.15.67.68.68,0,0,1,.58.71V177C116.9,177.54,116.61,177.71,116.15,177.62Z"/><path class="cls-1" d="M135,172.72a29.2,29.2,0,0,1,4.73.38c.5.08.62.37.62.83v2.9c0,.54-.29.75-.7.71a37.94,37.94,0,0,0-4.24-.29c-5.6,0-7.3,2-7.3,9.67s1.66,9.67,7.3,9.67a37.94,37.94,0,0,0,4.24-.29c.41,0,.7.17.7.71v2.9c0,.46-.12.75-.62.83a29.2,29.2,0,0,1-4.73.38c-8.76,0-12.25-4-12.25-14.2S126.19,172.72,135,172.72Z"/><path class="cls-1" d="M166,200.62h-3.86a.77.77,0,0,1-.75-.54l-1.74-5.36h-9.42l-1.75,5.36a.75.75,0,0,1-.74.54h-3.86c-.46,0-.71-.25-.54-.75l8.84-26.11a.76.76,0,0,1,.75-.54h4a.77.77,0,0,1,.75.54l8.84,26.11C166.66,200.37,166.41,200.62,166,200.62Zm-7.8-10.3-.79-2.53c-.83-2.53-1.66-5.77-2.49-8.63-.79,2.86-1.62,6.1-2.45,8.63l-.79,2.53Z"/><path class="cls-1" d="M186.11,196.76V200a.61.61,0,0,1-.66.67h-14a.61.61,0,0,1-.66-.67V173.89a.61.61,0,0,1,.66-.67h3.78a.61.61,0,0,1,.66.67v22.2h9.55A.61.61,0,0,1,186.11,196.76Z"/><path class="cls-1" d="M191.09,200V173.89a.61.61,0,0,1,.66-.67h3.82a.61.61,0,0,1,.66.67V200a.61.61,0,0,1-.66.67h-3.82A.61.61,0,0,1,191.09,200Z"/><path class="cls-1" d="M219.93,196.76V200a.62.62,0,0,1-.67.67H203.61A.61.61,0,0,1,203,200V173.89a.61.61,0,0,1,.66-.67h15.24a.61.61,0,0,1,.66.67v3.19a.61.61,0,0,1-.66.67H208.06v6.93h9.58a.61.61,0,0,1,.67.66v3.12a.61.61,0,0,1-.67.66h-9.58v7h11.2A.62.62,0,0,1,219.93,196.76Z"/><path class="cls-1" d="M247.19,173.89V200a.61.61,0,0,1-.66.67h-3.86a.86.86,0,0,1-.79-.46L234.74,189c-1.54-2.45-3.07-5.35-4.61-8,.17,2.7.25,5.61.25,8.1V200a.62.62,0,0,1-.67.67H226a.61.61,0,0,1-.66-.67V173.89a.61.61,0,0,1,.66-.67h3.9a.86.86,0,0,1,.79.46l7.06,11.12c1.53,2.45,3.07,5.27,4.56,7.93-.12-2.66-.24-5.48-.24-8V173.89a.61.61,0,0,1,.66-.67h3.78A.61.61,0,0,1,247.19,173.89Z"/><path class="cls-1" d="M270.38,173.89v3.23a.61.61,0,0,1-.66.67h-6.06V200a.62.62,0,0,1-.67.67h-3.78a.61.61,0,0,1-.66-.67V177.79h-6.1a.61.61,0,0,1-.66-.67v-3.23a.61.61,0,0,1,.66-.67h17.27A.61.61,0,0,1,270.38,173.89Z"/><path class="cls-1" d="M292,196.76V200a.61.61,0,0,1-.66.67H275.69A.62.62,0,0,1,275,200V173.89a.62.62,0,0,1,.67-.67h15.23a.62.62,0,0,1,.67.67v3.19a.62.62,0,0,1-.67.67H280.13v6.93h9.59a.61.61,0,0,1,.66.66v3.12a.61.61,0,0,1-.66.66h-9.59v7h11.21A.61.61,0,0,1,292,196.76Z"/><path class="cls-1" d="M311.25,177.62a34.88,34.88,0,0,0-5.4-.5c-4.11,0-5.14.83-5.14,3.28,0,2,.7,3,4.48,4.2l2,.62c5.23,1.62,6.85,3.65,6.85,7.89,0,5.56-2.78,8-10,8a34.1,34.1,0,0,1-7.51-.88.72.72,0,0,1-.58-.78v-3c0-.58.33-.71.74-.63a38.88,38.88,0,0,0,7.14.84c3.82,0,5.11-1,5.11-3.57,0-2-.75-2.79-4.86-4l-1.66-.54c-5.06-1.54-6.8-4-6.8-8.14,0-5.18,2.74-7.68,9.58-7.68a30,30,0,0,1,6.15.67.68.68,0,0,1,.58.71V177C312,177.54,311.71,177.71,311.25,177.62Z"/><path class="cls-3" d="M36.75,219.44v8.92a.48.48,0,0,1-.36.53,16.94,16.94,0,0,1-5.22.82c-5.38,0-7.82-2.64-7.82-9.42,0-6.54,2.25-9.37,8.29-9.37a23.21,23.21,0,0,1,4.06.39.46.46,0,0,1,.39.49v1.93c0,.38-.19.52-.61.46a28,28,0,0,0-3.65-.27c-3.82,0-5,1-5,6.29s1.21,6.64,4.62,6.64a12.65,12.65,0,0,0,2.11-.16v-4.81H30.9a.4.4,0,0,1-.44-.44v-2a.4.4,0,0,1,.44-.44h5.41A.4.4,0,0,1,36.75,219.44Z"/><path class="cls-3" d="M39.63,220.32c0-6.7,2.26-9.4,7.56-9.4s7.49,2.7,7.49,9.4-2.22,9.39-7.49,9.39S39.63,227,39.63,220.32Zm11.54,0c0-4.95-1-6.4-4-6.4s-4,1.45-4,6.4,1,6.4,4,6.4S51.17,225.26,51.17,220.32Z"/><path class="cls-3" d="M71.36,224.3c0,3.46-1.73,5.08-6.1,5.08H58.75a.41.41,0,0,1-.44-.44V211.69a.41.41,0,0,1,.44-.44h6c3.79,0,5.77,1.49,5.77,4.86,0,2-.72,3.22-2.36,3.85C70.54,220.51,71.36,221.91,71.36,224.3ZM61.66,214v4.67h2.72c2.06,0,2.72-.66,2.72-2.36S66.44,214,64.41,214Zm6.24,10c0-1.89-.69-2.55-3.1-2.55H61.66v5.11H65C67.21,226.61,67.9,226,67.9,224.05Z"/><path class="cls-3" d="M74.66,228.94V211.69a.41.41,0,0,1,.44-.44h2.53a.41.41,0,0,1,.44.44v17.25a.41.41,0,0,1-.44.44H75.1A.41.41,0,0,1,74.66,228.94Z"/><path class="cls-3" d="M93.59,226.83v2.11a.41.41,0,0,1-.44.44H82.79a.41.41,0,0,1-.44-.44V211.69a.41.41,0,0,1,.44-.44H92.87a.4.4,0,0,1,.44.44v2.12a.4.4,0,0,1-.44.44H85.73v4.58h6.34a.4.4,0,0,1,.44.44v2.06a.4.4,0,0,1-.44.44H85.73v4.62h7.42A.4.4,0,0,1,93.59,226.83Z"/><path class="cls-3" d="M109.16,229.38h-2.58a.48.48,0,0,1-.5-.33l-2.63-6.1h-3v6a.41.41,0,0,1-.44.44h-2.5a.41.41,0,0,1-.44-.44V211.69a.41.41,0,0,1,.44-.44h5.82c4.29,0,6.1,1.6,6.1,5.85,0,2.94-.85,4.62-2.8,5.36l2.94,6.4C109.66,229.19,109.49,229.38,109.16,229.38Zm-8.76-9.28H103c2.28,0,3-.61,3-3s-.66-2.91-3-2.91H100.4Z"/><path class="cls-3" d="M127.59,211.69v17.25a.4.4,0,0,1-.44.44H124.6a.55.55,0,0,1-.52-.3l-4.73-7.42c-1-1.62-2-3.54-3-5.3.11,1.79.17,3.71.17,5.36v7.22a.41.41,0,0,1-.44.44h-2.44a.4.4,0,0,1-.44-.44V211.69a.4.4,0,0,1,.44-.44h2.58a.57.57,0,0,1,.52.31l4.67,7.36c1,1.62,2,3.48,3,5.24-.08-1.76-.17-3.62-.17-5.27v-7.2a.41.41,0,0,1,.44-.44h2.5A.4.4,0,0,1,127.59,211.69Z"/><path class="cls-3" d="M131.2,220.32c0-6.7,2.25-9.4,7.55-9.4s7.5,2.7,7.5,9.4-2.23,9.39-7.5,9.39S131.2,227,131.2,220.32Zm11.53,0c0-4.95-1-6.4-4-6.4s-4,1.45-4,6.4,1,6.4,4,6.4S142.73,225.26,142.73,220.32Z"/><path class="cls-3" d="M167.9,220.32c0,6.56-2.5,9.06-7.72,9.06H155.1a.4.4,0,0,1-.44-.44V211.69a.4.4,0,0,1,.44-.44h5.08C165.4,211.25,167.9,213.75,167.9,220.32Zm-3.52,0c0-4.76-1.21-6.07-4-6.07H158v12.14h2.36C163.17,226.39,164.38,225.07,164.38,220.32Z"/><path class="cls-3" d="M182.79,226.83v2.11a.41.41,0,0,1-.44.44H172a.4.4,0,0,1-.44-.44V211.69a.4.4,0,0,1,.44-.44h10.07a.4.4,0,0,1,.44.44v2.12a.4.4,0,0,1-.44.44h-7.14v4.58h6.35a.41.41,0,0,1,.44.44v2.06a.4.4,0,0,1-.44.44h-6.35v4.62h7.42A.4.4,0,0,1,182.79,226.83Z"/><path class="cls-3" d="M196.36,226.83v2.11a.41.41,0,0,1-.44.44h-9.26a.4.4,0,0,1-.43-.44V211.69a.4.4,0,0,1,.43-.44h2.5a.4.4,0,0,1,.44.44v14.7h6.32A.4.4,0,0,1,196.36,226.83Z"/><path class="cls-3" d="M216.08,226.83v2.11a.41.41,0,0,1-.44.44H205.29a.4.4,0,0,1-.44-.44V211.69a.4.4,0,0,1,.44-.44h10.08a.41.41,0,0,1,.44.44v2.12a.41.41,0,0,1-.44.44h-7.14v4.58h6.34a.41.41,0,0,1,.44.44v2.06a.4.4,0,0,1-.44.44h-6.34v4.62h7.41A.4.4,0,0,1,216.08,226.83Z"/><path class="cls-3" d="M228.66,214.17a22.09,22.09,0,0,0-3.57-.34c-2.72,0-3.41.55-3.41,2.17,0,1.35.47,2,3,2.78l1.35.41c3.46,1.07,4.53,2.42,4.53,5.22,0,3.68-1.84,5.3-6.59,5.3a22.91,22.91,0,0,1-5-.58.48.48,0,0,1-.38-.52v-2c0-.38.22-.46.5-.41a25.67,25.67,0,0,0,4.72.55c2.53,0,3.38-.63,3.38-2.36,0-1.35-.5-1.84-3.22-2.67l-1.09-.35c-3.36-1-4.51-2.64-4.51-5.39,0-3.43,1.82-5.08,6.34-5.08a20.37,20.37,0,0,1,4.07.44.45.45,0,0,1,.38.47v1.95C229.15,214.11,229,214.22,228.66,214.17Z"/><path class="cls-3" d="M244,211.69v2.14a.4.4,0,0,1-.44.44h-4v14.67a.41.41,0,0,1-.44.44h-2.5a.4.4,0,0,1-.44-.44V214.27h-4a.4.4,0,0,1-.44-.44v-2.14a.41.41,0,0,1,.44-.44h11.43A.41.41,0,0,1,244,211.69Z"/><path class="cls-3" d="M258.17,229.38h-2.56a.5.5,0,0,1-.49-.36L254,225.48h-6.23L246.57,229a.5.5,0,0,1-.49.36h-2.55c-.3,0-.47-.17-.36-.49L249,211.61a.51.51,0,0,1,.5-.36h2.66a.5.5,0,0,1,.49.36l5.85,17.28C258.63,229.21,258.47,229.38,258.17,229.38ZM253,222.57l-.52-1.68c-.55-1.67-1.1-3.81-1.65-5.71-.52,1.9-1.07,4-1.62,5.71l-.52,1.68Z"/><path class="cls-3" d="M274.45,220.32c0,6.56-2.49,9.06-7.71,9.06h-5.08a.4.4,0,0,1-.44-.44V211.69a.4.4,0,0,1,.44-.44h5.08C272,211.25,274.45,213.75,274.45,220.32Zm-3.51,0c0-4.76-1.21-6.07-4-6.07H264.6v12.14H267C269.73,226.39,270.94,225.07,270.94,220.32Z"/><path class="cls-3" d="M277.45,220.32c0-6.7,2.26-9.4,7.56-9.4s7.49,2.7,7.49,9.4-2.22,9.39-7.49,9.39S277.45,227,277.45,220.32Zm11.54,0c0-4.95-1-6.4-4-6.4s-4,1.45-4,6.4,1,6.4,4,6.4S289,225.26,289,220.32Z"/></svg>