<svg id="Capa_1" data-name="Capa 1" xmlns="http://www.w3.org/2000/svg" viewBox="0 0 543.42 223.27"><defs><style>.cls-1{fill:#fff;}.cls-2{fill:#e65300;}.cls-3{fill:#ffb100;}.cls-4{fill:#6aacb3;}.cls-5{fill:#9bc6ca;}.cls-6{fill:#ffc033;}.cls-7{fill:#007481;}.cls-8{fill:#64acb0;}.cls-9{fill:#03aeb2;}</style></defs><path class="cls-1" d="M359.73,173l8.37-26.7h7.44L384,173h-7l-1.48-5.46h-7.68L366.5,173Zm11.82-20.37-2.42,9.77h5.05Z"/><path class="cls-1" d="M388.27,146.27H399c7.4,0,10.19,3.78,10.19,8.92,0,3.65-1.48,6.44-4.39,8L410,173h-7.8l-4-8.46h-3.32V173h-6.62Zm13.93,9c0-2.39-.87-3.58-3.95-3.58h-3.36v7.56h3.49C400.68,159.21,402.2,158.18,402.2,155.23Z"/><path class="cls-1" d="M414.56,146.27h8.75c10,0,13.31,4.73,13.31,13.11,0,6.32-1.93,13.59-13.27,13.59h-8.79Zm6.62,5.38v15.86h2.5c5.47,0,5.88-3.33,5.88-7.85,0-5.21-.54-8-6.45-8Z"/><path class="cls-1" d="M456.17,146.27h6.37v17.54c0,7.89-6,9.57-10.76,9.57-4.56,0-10.39-1.52-10.39-9.61v-17.5H448v16.27c0,4.43,1.56,5.46,4.07,5.46,3,0,4.1-1.36,4.1-5.42Z"/><path class="cls-1" d="M468.45,167.51h6.9V151.74h-6.9v-5.47h20.46v5.47H482v15.77h6.94V173H468.45Z"/><path class="cls-1" d="M500.62,173h-6.25v-26.7h7.19l8.67,16v-16h6.16V173H509.7l-9.12-17.09Z"/><path class="cls-1" d="M543.42,159.62c0,7.72-2.84,13.76-11.42,13.76-7.68,0-11.21-4.64-11.21-13.47,0-8,3.08-14,11.17-14C539.56,145.9,543.42,149.44,543.42,159.62Zm-7,0c0-6.53-.54-8.34-4.44-8.34-3.53,0-4.15,2.1-4.15,8.63,0,5.38.37,8.09,4.19,8.09S536.4,165.78,536.4,159.62Z"/><path class="cls-2" d="M216.81,155.43a173.89,173.89,0,0,1-30.14,32.06l2.62,3.23a177.39,177.39,0,0,0,29.88-31.47c18.65,25.45,49.69,55.65,94.68,62.07l1.07-7.46c-46-6.57-76.79-39.08-95.1-66.76C219,145.8,216.81,155.43,216.81,155.43Z"/><path class="cls-3" d="M126.94,214.46l-1.37-9.59c44.67-6.38,74.23-39.62,91.17-66.42.52-.9,5.08-8.81,6.83-12.13l8.58,4.51c-1.93,3.68-6.85,12.2-7.06,12.56l-.1.16C207,172.09,175.32,207.56,126.94,214.46Z"/><path class="cls-1" d="M110.36,223.27a116.63,116.63,0,0,1-81.15-32.16l7.66-8a105.58,105.58,0,0,0,73.48,29.09,113.32,113.32,0,0,0,16.1-1.15c20.73-3,40.25-11.79,58-26.24l7,8.6C172.11,209.13,150.76,218.76,128,222A125.07,125.07,0,0,1,110.36,223.27Z"/><path class="cls-4" d="M331.42,180.42a80.83,80.83,0,0,1-11.6-.84c-48.37-6.9-76.67-56-81.85-65.79l7.48-4c3,5.6,30.32,54.92,75.57,61.38a72.87,72.87,0,0,0,10.4.75Z"/><path class="cls-2" d="M293.44,57.46l-1.6-2.88C260.05,72.2,241.43,106.7,238,113.44l-3.37,6.86-3.56-1.75-1.47,3.26,12.63,5.67,5.67-12.62c3.33-6.17,29.19-51.71,70.82-59.38l-1.26-6.8A79.21,79.21,0,0,0,293.44,57.46Z"/><path class="cls-5" d="M149.12,54.13l1-1.83a85.45,85.45,0,0,0-28-9.41,84.55,84.55,0,0,0-11.73-.83C79.21,42.06,51.31,60.82,41,88.74l10,3.71c8.8-23.74,32.66-39.69,59.39-39.69a73.61,73.61,0,0,1,10.22.73c18.12,2.59,35.54,12.48,51.76,29.38l5.91-5.67A116.36,116.36,0,0,0,149.12,54.13Z"/><path class="cls-4" d="M76,179.12C49.06,166.63,31.69,140.2,31.69,111.8A72.29,72.29,0,0,1,43.87,71.58,75.66,75.66,0,0,1,54.51,58.91l4.94,5.16a68.43,68.43,0,0,0-9.64,11.47,65.15,65.15,0,0,0-11,36.26c0,26,15.37,49.35,40.12,60.85Z"/><path class="cls-4" d="M206.89,120.56l-3.09-7.22c-.28-.56-.67-1.3-1.15-2.18-5.41,10.26-33.92,60.36-80.79,67.05-3.83.55-7.77,1.8-11.51,1.8a73.17,73.17,0,0,1-31.11-6.83l-3.58,6.55a81.82,81.82,0,0,0,34.7,7.62,89.69,89.69,0,0,0,12.58-.91c45.22-6.46,73.77-47.82,84.28-66Z"/><path class="cls-2" d="M210.47,119l-3.58,1.53-3.09-7.22A166.45,166.45,0,0,0,178.28,77.2l-5.91,5.67a149.13,149.13,0,0,1,23.08,31.46l10.86,19L215.6,128Z"/><path class="cls-4" d="M269.33,62.09l-4.57-5.2C281.21,42.44,299.12,33.75,318,31.06a94.61,94.61,0,0,1,13.41-1A87,87,0,0,1,392,54l-4.78,5a80.15,80.15,0,0,0-55.79-22,88.18,88.18,0,0,0-12.43.89C301.45,40.41,284.75,48.54,269.33,62.09Z"/><path class="cls-6" d="M234.16,129.52l-24-11.42,5.71-12c3.71-7.8,17.73-34.92,42.42-56.59l10-8.78,17.54,20-10,8.77c-21.41,18.79-33.7,43.31-35.95,48Z"/><path class="cls-1" d="M59.49,64.12l-5-5.25a80.36,80.36,0,0,1,55.92-22,87,87,0,0,1,42.19,10.88l-3.46,6.39a79.46,79.46,0,0,0-38.73-10A73.14,73.14,0,0,0,59.49,64.12Z"/><path class="cls-3" d="M9.78,111.8H5.35a98.73,98.73,0,0,1,31-71.92l3.06,3.2A94.37,94.37,0,0,0,9.78,111.8Z"/><path class="cls-1" d="M185.16,36C167.25,21.72,147.62,13,126.82,10a116.38,116.38,0,0,0-16.43-1.17A109.16,109.16,0,0,0,50.56,26.35l-3.23-5A115,115,0,0,1,110.39,2.91a122.07,122.07,0,0,1,17.26,1.23c21.87,3.12,42.45,12.3,61.2,27.28Z"/><path class="cls-7" d="M240.07,76.1l-8.25-6.23c16.33-21.6,44.14-48.53,83.95-54.21a110.75,110.75,0,0,1,15.61-1.12A104.75,104.75,0,0,1,370,21.81l-3.8,9.62a94.49,94.49,0,0,0-34.83-6.55,100.61,100.61,0,0,0-14.15,1C280.91,31.08,255.22,56.06,240.07,76.1Z"/><path class="cls-4" d="M223.44,92.94l-11.54-4.7,3.43-8.43.29-.47c14.91-23.58,47.59-64.25,99-71.59a119.39,119.39,0,0,1,16.74-1.19V19a106.26,106.26,0,0,0-15,1.07c-43.9,6.26-73.11,38.94-90,65.45Z"/><path class="cls-2" d="M406.67,38.61A108.24,108.24,0,0,0,331.38,8.82,116.35,116.35,0,0,0,315,10l-.83-5.85a122,122,0,0,1,17.25-1.23,114.09,114.09,0,0,1,79.37,31.43Z"/><path class="cls-1" d="M125.38,203.5l-2.16-15.08c60.3-8.61,90.35-78.85,90.64-79.56,1.34-3.21,33.57-78.93,102.55-88.77l2.15,15.08c-60.49,8.63-90.34,78.84-90.64,79.55C226.59,117.94,194.33,193.65,125.38,203.5Z"/><path class="cls-1" d="M62,188.25l6.61-11.38c16.23,9.43,35,12.95,54.39,10.18l1.87,13a102.42,102.42,0,0,0,36.61-12.83l-11-19.21a80.52,80.52,0,0,1-28.72,10.11,81.49,81.49,0,0,1-11.4.82,72.57,72.57,0,0,1-50.5-19.87,66.16,66.16,0,0,1-15-21.34l-19,8.33a87.32,87.32,0,0,0,19.68,28l-.95,1A92.38,92.38,0,0,0,62,188.25Z"/><path class="cls-1" d="M110.36,206.91a100.37,100.37,0,0,1-69.84-27.62l4.18-4.37a94.34,94.34,0,0,0,65.65,25.94,102.91,102.91,0,0,0,14.5-1c49.73-7.1,79.79-49.19,93.32-73.74L221.6,118l5.57,2.36-3.63,8.55c-14,25.52-45.42,69.46-97.84,76.95A108.84,108.84,0,0,1,110.36,206.91Z"/><path class="cls-5" d="M62.37,187.65C34.56,171.5,18,143.14,18,111.8A86.59,86.59,0,0,1,19,98.21l6.84,1.08a80.15,80.15,0,0,0-1,12.51c0,28.84,15.31,55,41,69.86Z"/><path class="cls-2" d="M29,99.79,15.87,97.71c3.8-23.95,17-45.12,37.28-59.59C73.71,23.41,99.3,17.35,125.24,21.05a100.56,100.56,0,0,1,17.3,4.05l-4.15,12.63a88.86,88.86,0,0,0-15-3.52C77.34,27.66,35.88,56.45,29,99.79Z"/><path class="cls-3" d="M154.87,181.76l-3-5.24,2.63-1.51c34.21-19.64,53.32-57.18,56.8-64.5l1.3-2.74,5.46,2.6-1.3,2.73c-3.61,7.61-23.48,46.62-59.25,67.16Z"/><path class="cls-8" d="M230.44,107.82a145.73,145.73,0,0,0-6.56-13.25l1.54-.85C211.15,67.83,179.26,23.26,126,15.66a110.78,110.78,0,0,0-15.62-1.12V24.88a100.64,100.64,0,0,1,14.16,1A97.37,97.37,0,0,1,141,29.74l-3.78,11.5c49.16,16.17,73.88,74,74.11,74.53,1.37,3.27,34.19,80.36,104.68,90.42l2.92-20.47C260.21,177.33,230.73,108.51,230.44,107.82Z"/><path class="cls-3" d="M424.49,111.8h-8.31a79.6,79.6,0,0,0-27.7-60c-18.91-16.41-44.57-23.7-70.41-20l-1.18-8.22c28.22-4,56.3,4,77,22A87.91,87.91,0,0,1,424.49,111.8Z"/><rect class="cls-3" x="99.88" y="76.94" width="22.47" height="69.72"/><rect class="cls-1" x="76.25" y="100.57" width="69.72" height="22.48"/><path class="cls-9" d="M445.1,122l-8.88-.82c.28-3.07.43-6.21.43-9.33a99,99,0,0,0-31-72.1l6.16-6.45a107.87,107.87,0,0,1,33.78,78.55C445.57,115.2,445.41,118.61,445.1,122Z"/><path class="cls-5" d="M414.54,127.14,408.75,126A73.25,73.25,0,0,0,387.21,58.5l4.09-4.27a79.1,79.1,0,0,1,23.24,72.91Z"/><path class="cls-2" d="M404.39,128.57,391,125.15a53.9,53.9,0,0,0,1.67-13.35c0-31.69-27.48-57.47-61.26-57.47a70.46,70.46,0,0,0-10,.72c-.89.12-1.77.27-2.65.43l-2.5-13.62c1.06-.19,2.12-.37,3.2-.52a84.76,84.76,0,0,1,11.94-.86c41.41,0,75.11,32,75.11,71.32A67.9,67.9,0,0,1,404.39,128.57Z"/><path class="cls-5" d="M331.42,210.11a112.37,112.37,0,0,1-15.8-1.13c-23.51-3.36-45.33-14.28-64.84-32.47l8.5-9.11c17.61,16.41,37.16,26.25,58.1,29.24a101.51,101.51,0,0,0,16.74,1l.29,12.46C333.41,210.1,332.42,210.11,331.42,210.11Z"/><path class="cls-1" d="M398.82,92.93A65.61,65.61,0,0,0,381.43,65a70.91,70.91,0,0,0-39.26-18.9l1.37-9.59A80.39,80.39,0,0,1,388.13,58a75.19,75.19,0,0,1,19.95,32.08Z"/><path class="cls-1" d="M226.72,74.4l-11.66-8.23C233.71,39.74,265.94,6.8,313.54,0l2,14.13C273,20.2,243.76,50.26,226.72,74.4Z"/><path class="cls-4" d="M223.24,80.17l-6-7.33a173.26,173.26,0,0,0-33-35.65l5.54-6.92A182,182,0,0,1,224.42,67.6l5.69,7Z"/><path class="cls-5" d="M110.36,215.65a109.11,109.11,0,0,1-75.89-30A102,102,0,0,1,3,119.49v-.18L2.72,112l9.69-.36.27,7.24A92.31,92.31,0,0,0,41.17,178.6,99.46,99.46,0,0,0,110.35,206a108.53,108.53,0,0,0,15.22-1.09l1.37,9.59A117.46,117.46,0,0,1,110.36,215.65Z"/><path class="cls-3" d="M27.29,193.11A112.64,112.64,0,0,1,0,152.61l15.47-6.07A96.15,96.15,0,0,0,38.78,181.1Z"/><path class="cls-1" d="M337,186.45a87.63,87.63,0,0,1-18.05-.7c-13.82-2-27.21-7.49-39.8-16.4l-3.92,5.54c13.48,9.53,27.87,15.44,42.76,17.57a95.36,95.36,0,0,0,13.44,1c1.86,0,3.72-.08,5.57-.19Z"/><path class="cls-2" d="M361.27,185.1h8.91c10.16,0,13.54,4.81,13.54,13.34,0,6.44-2,13.84-13.5,13.84h-9Zm6.73,5.48v16.14h2.55c5.56,0,6-3.39,6-8,0-5.31-.54-8.15-6.56-8.15Z"/><path class="cls-2" d="M386,212.28l8.53-27.18h7.57l8.65,27.18h-7.15l-1.5-5.56h-7.82l-1.38,5.56Zm12-20.74-2.47,10h5.15Z"/><path class="cls-2" d="M424.32,196.22l4.81-11.12h6.73l-8.49,16.43v10.75h-6.73V201.74l-8.78-16.64h7.28Z"/><path class="cls-3" d="M461.46,193a4.52,4.52,0,0,0-4.85-4.77,8.31,8.31,0,0,0-5.77,2.88l-1.75-2.17a11.6,11.6,0,0,1,8.19-3.55c4.23,0,7.61,2.51,7.61,7.23,0,5.56-7.36,13.34-12.83,17.44h14.13v2.88h-18.4v-2.34C452.85,206.92,461.46,198.31,461.46,193Z"/><path class="cls-3" d="M492.86,198.6c0,6.65-1.79,14.72-10.57,14.72-6.9,0-10.21-4.81-10.21-13.46,0-7.74,2.3-14.51,10.5-14.51C490,185.35,492.86,190.49,492.86,198.6Zm-15.38,9.7,8.07-19.44a7.34,7.34,0,0,0-3.22-.67c-5.56,0-6.86,5.43-6.86,10.75C475.47,202.53,475.76,206.09,477.48,208.3Zm12-9.24c0-3.22-.3-6.65-2.09-8.78l-8.12,19.53a7.05,7.05,0,0,0,3.31.71C488.39,210.52,489.48,204.5,489.48,199.06Z"/><path class="cls-3" d="M512.47,193a4.52,4.52,0,0,0-4.85-4.77,8.29,8.29,0,0,0-5.77,2.88l-1.76-2.17a11.61,11.61,0,0,1,8.2-3.55c4.22,0,7.61,2.51,7.61,7.23,0,5.56-7.36,13.34-12.84,17.44H517.2v2.88H498.8v-2.34C503.86,206.92,512.47,198.31,512.47,193Z"/><path class="cls-3" d="M524.43,210h7.65V189.28l-6.94,1.38v-2.72l10.24-2.55V210h8v2.88h-19Z"/></svg>