<svg id="Capa_1" data-name="Capa 1" xmlns="http://www.w3.org/2000/svg" viewBox="0 0 71.44 66.36"><defs><style>.cls-1{fill:#e65300;}.cls-2{fill:#007481;}</style></defs><path class="cls-1" d="M71.44,55.13H0V11A11,11,0,0,1,11,0H60.49A11,11,0,0,1,71.44,11ZM2.82,52.3H68.61V11a8.13,8.13,0,0,0-8.12-8.13H11A8.14,8.14,0,0,0,2.82,11Z"/><path class="cls-1" d="M62.85,66.36H45.46V52.3H62.85ZM48.28,63.53H60v-8.4H48.28Z"/><path class="cls-1" d="M26,66.36H8.58V52.3H26ZM11.41,63.53H23.16v-8.4H11.41Z"/><g id="INSERT"><g id="CIRCLE"><path class="cls-2" d="M37.57,31.28a2.63,2.63,0,1,0-3.71,0,2.6,2.6,0,0,0,3.71,0Z"/></g></g><path class="cls-2" d="M20.5,25.71a5.2,5.2,0,0,0-7.4,0,5.3,5.3,0,0,0,0,7.45,5.2,5.2,0,0,0,7.4,0A5.26,5.26,0,0,0,20.5,25.71Zm-3.69,6.36-2.62-2.64,2.62-2.63,2.62,2.63Z"/><path class="cls-2" d="M58.33,25.71a5.21,5.21,0,0,0-7.41,0,5.3,5.3,0,0,0,0,7.45,5.21,5.21,0,0,0,7.41,0A5.29,5.29,0,0,0,58.33,25.71Zm-3.7,6.36L52,29.43l2.62-2.63,2.62,2.63Z"/></svg>