<svg id="Capa_1" data-name="Capa 1" xmlns="http://www.w3.org/2000/svg" viewBox="0 0 411.26 122.91"><defs><style>.cls-1{fill:#ffb100;}.cls-2{fill:#9bc6ca;}.cls-3{fill:#fff;}</style></defs><path class="cls-1" d="M82.27,105a8.22,8.22,0,0,1-5.81-14l4.31-4.32a49,49,0,1,1,73.94,0L159,91a8.22,8.22,0,0,1-.11,11.72,8.37,8.37,0,0,1-11.67-.25l-4.37-4.37c-.13-.13-.26-.27-.38-.41a.89.89,0,0,0-1.11-.23,49.81,49.81,0,0,1-47.29,0,.89.89,0,0,0-1.11.23l-.39.41-4.51,4.52A8.2,8.2,0,0,1,82.27,105Zm.92-16-4.34,4.33a4.87,4.87,0,0,0,0,6.84,5,5,0,0,0,6.84,0l4.76-4.78a4.24,4.24,0,0,1,5.28-.94,46.42,46.42,0,0,0,44,0,4.28,4.28,0,0,1,5.31,1l.22.25,4.37,4.36a5,5,0,0,0,6.92.21,4.82,4.82,0,0,0,.06-6.89l-4.52-4.52a3.05,3.05,0,0,1-.15-4.18A45.59,45.59,0,0,0,117.75,9h-.63A45.59,45.59,0,0,0,83.56,84.69a3,3,0,0,1-.17,4.14Z"/><g id="INSERT"><g id="CIRCLE"><path class="cls-2" d="M119.85,68a3,3,0,0,0,0-4.23,3,3,0,0,0-4.21,0,3,3,0,0,0,0,4.23,3,3,0,0,0,4.21,0Z"/></g></g><path class="cls-2" d="M94.88,61.62a5.92,5.92,0,0,0-8.41,0,6,6,0,0,0,0,8.47,5.92,5.92,0,0,0,8.41,0A6,6,0,0,0,94.88,61.62Zm-4.19,7.23-3-3,3-3,3,3Z"/><path class="cls-2" d="M149,61.62a5.93,5.93,0,0,0-8.42,0,6,6,0,0,0,0,8.47,5.93,5.93,0,0,0,8.42,0A6,6,0,0,0,149,61.62Zm-4.21,7.23-3-3,3-3,3,3Z"/><path class="cls-3" d="M366,103.83a5.55,5.55,0,0,1-4.63-8.61L363,92.74a29.68,29.68,0,1,1,37.1,0l1.63,2.47a5.55,5.55,0,1,1-9.27,6.12l-2.1-3.17c-.06-.1-.17-.21-.31-.15a30.07,30.07,0,0,1-17,0,.32.32,0,0,0-.31.14l-2.1,3.18A5.55,5.55,0,0,1,366,103.83Zm15.57-60.58-1.28,0a26.31,26.31,0,0,0-14.57,47.28,2.48,2.48,0,0,1,.57,3.36l-2.09,3.16a2.17,2.17,0,1,0,3.62,2.39l2.2-3.32a3.64,3.64,0,0,1,4-1.39,26.61,26.61,0,0,0,15.06,0,3.67,3.67,0,0,1,4,1.38l.11.16,2.08,3.17a2.17,2.17,0,1,0,3.63-2.39l-2.09-3.16a2.51,2.51,0,0,1,.58-3.37h0a26.3,26.3,0,0,0-15.84-47.29Zm17.89,50Z"/><g id="INSERT-2" data-name="INSERT"><g id="CIRCLE-2" data-name="CIRCLE"><path class="cls-2" d="M383.68,73.94a3,3,0,1,0-4.21,0,3,3,0,0,0,4.21,0Z"/></g></g><polygon class="cls-2" points="359.16 69.93 363.19 69.93 363.19 65.89 367.02 65.89 367.02 69.93 371.06 69.93 371.06 73.76 367.02 73.76 367.02 77.8 363.19 77.8 363.19 73.76 359.16 73.76 359.16 69.93"/><polygon class="cls-2" points="392.1 69.93 396.12 69.93 396.12 65.89 399.96 65.89 399.96 69.93 404 69.93 404 73.76 399.96 73.76 399.96 77.8 396.12 77.8 396.12 73.76 392.1 73.76 392.1 69.93"/><path class="cls-3" d="M239.22,61a50.82,50.82,0,0,1-9.24-.85,1.38,1.38,0,1,1,.51-2.71,47.89,47.89,0,0,0,8.73.8,1.38,1.38,0,0,1,0,2.76Zm-74.15,0a1.38,1.38,0,1,1,0-2.76c1.49,0,3-.07,4.44-.2a1.38,1.38,0,1,1,.25,2.74C168.21,60.9,166.63,61,165.07,61Zm13.44-1.88a1.38,1.38,0,0,1-.38-2.71,46.33,46.33,0,0,0,8.16-3.19,1.38,1.38,0,0,1,1.24,2.47A49.59,49.59,0,0,1,178.89,59,1.31,1.31,0,0,1,178.51,59.1Zm43.05-1.42a1.24,1.24,0,0,1-.5-.1,49.15,49.15,0,0,1-8.3-4.16,1.38,1.38,0,0,1,1.47-2.34A46.24,46.24,0,0,0,222.06,55a1.38,1.38,0,0,1-.5,2.67Zm-27-6.65a1.42,1.42,0,0,1-1.1-.54,1.39,1.39,0,0,1,.26-1.94,46.56,46.56,0,0,0,6.45-5.94l.18-.16q-.61-.75-1.2-1.53a1.38,1.38,0,1,1,2.21-1.65,47.69,47.69,0,0,0,5.88,6.5,1.38,1.38,0,0,1-1.86,2c-1.13-1-2.21-2.12-3.23-3.25a52.14,52.14,0,0,1-6.75,6.2A1.39,1.39,0,0,1,194.56,51Zm12.05-13.34a1.42,1.42,0,0,1-.72-.2,1.38,1.38,0,0,1-.46-1.9,47.83,47.83,0,0,0,3.86-7.87,1.38,1.38,0,0,1,2.58,1A50.65,50.65,0,0,1,207.78,37,1.38,1.38,0,0,1,206.61,37.69Zm-11.07-3.91A1.38,1.38,0,0,1,194.3,33a49.43,49.43,0,0,1-3.3-8.67,1.38,1.38,0,1,1,2.66-.74,46.61,46.61,0,0,0,3.11,8.19,1.38,1.38,0,0,1-.62,1.85A1.5,1.5,0,0,1,195.54,33.78ZM213,20.89l-.24,0a1.38,1.38,0,0,1-1.12-1.6,48,48,0,0,0,.69-6.34,10.9,10.9,0,0,0-.21-2,1.38,1.38,0,1,1,2.7-.55,13.29,13.29,0,0,1,.27,2.51V13c0,.05,0,.1,0,.15a49.79,49.79,0,0,1-.73,6.58A1.37,1.37,0,0,1,213,20.89Zm-22.24-4.43a1.37,1.37,0,0,1-1.37-1.26c-.07-.73-.11-1.46-.14-2.2a13,13,0,0,1,2.22-7.32,1.38,1.38,0,0,1,2.29,1.54A10.15,10.15,0,0,0,192,12.94c0,.64.07,1.34.12,2a1.37,1.37,0,0,1-1.26,1.49ZM208.56,4.72a1.4,1.4,0,0,1-.77-.24,10,10,0,0,0-5.63-1.72c-.51.06-1.32.06-2,.18a1.38,1.38,0,1,1-.53-2.7A12.74,12.74,0,0,1,202.13,0h0a12.77,12.77,0,0,1,7.18,2.2,1.38,1.38,0,0,1-.78,2.52Z"/><path class="cls-3" d="M71.34,61a1.47,1.47,0,0,1-1.49-1.37,1.29,1.29,0,0,1,1.27-1.38h.11a1.43,1.43,0,0,1,1.43,1.38A1.32,1.32,0,0,1,71.34,61Zm-70-.15a1.38,1.38,0,0,1-.12-2.76A46.85,46.85,0,0,0,9.9,56.51a1.37,1.37,0,1,1,.73,2.65A49.48,49.48,0,0,1,1.49,60.8Zm60.77-.7-.26,0A49.49,49.49,0,0,1,53,57.5a1.38,1.38,0,1,1,1-2.56,47.33,47.33,0,0,0,8.41,2.44,1.38,1.38,0,0,1-.25,2.73ZM18.69,56a1.38,1.38,0,0,1-.61-2.62,46.94,46.94,0,0,0,7.47-4.59A1.38,1.38,0,1,1,27.21,51a50.89,50.89,0,0,1-7.9,4.85A1.38,1.38,0,0,1,18.69,56Zm26.74-2.49a1.43,1.43,0,0,1-.74-.21,50.27,50.27,0,0,1-7.35-5.66,1.38,1.38,0,0,1,1.87-2A48,48,0,0,0,46.16,51a1.37,1.37,0,0,1,.43,1.9A1.38,1.38,0,0,1,45.43,53.51Zm-12.36-8.3a1.4,1.4,0,0,1-.93-.36,1.38,1.38,0,0,1-.08-2l.41-.46a50.76,50.76,0,0,1-3.61-5.07,1.38,1.38,0,0,1,2.34-1.45,48.34,48.34,0,0,0,4.13,5.65,1.38,1.38,0,0,1,0,1.79c-.41.47-.82.94-1.24,1.4A1.36,1.36,0,0,1,33.07,45.21Zm3.24-3.92a1.41,1.41,0,0,1-.82-.27,1.37,1.37,0,0,1-.28-1.93,46.5,46.5,0,0,0,4.54-7.5A1.4,1.4,0,0,1,41.59,31a1.38,1.38,0,0,1,.64,1.85,49.28,49.28,0,0,1-4.81,7.93A1.37,1.37,0,0,1,36.31,41.29ZM26,30a1.38,1.38,0,0,1-1.28-.88,50,50,0,0,1-2.54-8.93,1.38,1.38,0,1,1,2.71-.51,46.24,46.24,0,0,0,2.4,8.44,1.38,1.38,0,0,1-.79,1.78A1.44,1.44,0,0,1,26,30Zm18.16-4.84a1.49,1.49,0,0,1-.36-.05,1.38,1.38,0,0,1-1-1.69,47.76,47.76,0,0,0,1.49-8.64,1.38,1.38,0,1,1,2.75.21,51.36,51.36,0,0,1-1.58,9.15A1.38,1.38,0,0,1,44.15,25.12ZM22.92,12.3l-.24,0a1.39,1.39,0,0,1-1.12-1.6A12.9,12.9,0,0,1,25.15,3.8a12.41,12.41,0,0,1,1.69-1.45,1.4,1.4,0,0,1,1.93.33,1.38,1.38,0,0,1-.33,1.92,9.09,9.09,0,0,0-1.33,1.14,10.08,10.08,0,0,0-2.83,5.42A1.39,1.39,0,0,1,22.92,12.3ZM43.65,7.63A1.34,1.34,0,0,1,42.53,7,10,10,0,0,0,36,2.88a1.37,1.37,0,0,1-1.12-1.59A1.36,1.36,0,0,1,36.46.17a12.7,12.7,0,0,1,8.32,5.29,1.38,1.38,0,0,1-.33,1.92A1.4,1.4,0,0,1,43.65,7.63Z"/><path class="cls-2" d="M260.62,75.19a6,6,0,1,0,0,8.42A6,6,0,0,0,260.62,75.19Zm-4.2,7.2-3-3,3-3,3,3Z"/><path class="cls-2" d="M309.56,75.19a6,6,0,1,0,0,8.42A6,6,0,0,0,309.56,75.19Zm-4.21,7.2-3-3,3-3,3,3Z"/><g id="INSERT-3" data-name="INSERT"><g id="CIRCLE-3" data-name="CIRCLE"><path class="cls-2" d="M274.94,79.41a5.95,5.95,0,1,0,11.89,0"/></g></g><path class="cls-1" d="M257.18,122.9a7.47,7.47,0,0,1-4.16-1.25,7.58,7.58,0,0,1-2.16-10.5l2.94-4.46a44.36,44.36,0,1,1,54.16,0l3,4.46a7.58,7.58,0,0,1-12.66,8.35l-3.18-4.81a1.4,1.4,0,0,0-1.6-.59,44.72,44.72,0,0,1-25.35,0,1.27,1.27,0,0,0-1.41.61l-3.19,4.84A7.58,7.58,0,0,1,257.18,122.9Zm-.41-14.56L253.68,113a4.2,4.2,0,0,0,7,4.62l3.21-4.88a4.62,4.62,0,0,1,5.2-2,41.35,41.35,0,0,0,23.41,0,4.78,4.78,0,0,1,5.38,2l3.19,4.83a4.19,4.19,0,0,0,7-4.62l-3.18-4.82a3,3,0,0,1,.68-4,41,41,0,1,0-49.34.05,2.91,2.91,0,0,1,.63,3.9Z"/></svg>