<svg id="Capa_1" data-name="Capa 1" xmlns="http://www.w3.org/2000/svg" viewBox="0 0 426.89 129.02"><defs><style>.cls-1{fill:#386783;}.cls-2{fill:#003a5d;}</style></defs><path class="cls-1" d="M248.06,63.23a51.89,51.89,0,0,1-9.58-.88,1.43,1.43,0,1,1,.53-2.81,49.63,49.63,0,0,0,9.05.83,1.43,1.43,0,1,1,0,2.86Zm-76.89,0a1.43,1.43,0,0,1,0-2.86c1.55,0,3.09-.07,4.6-.21a1.42,1.42,0,0,1,1.56,1.29A1.44,1.44,0,0,1,176,63C174.43,63.16,172.79,63.23,171.17,63.23Zm13.93-1.95a1.43,1.43,0,0,1-.39-2.8,49.58,49.58,0,0,0,8.47-3.31,1.43,1.43,0,0,1,1.28,2.56,52.18,52.18,0,0,1-9,3.5A1.9,1.9,0,0,1,185.1,61.28Zm44.65-1.47a1.34,1.34,0,0,1-.52-.1,51.58,51.58,0,0,1-8.6-4.31A1.43,1.43,0,0,1,222.14,53a48.29,48.29,0,0,0,8.13,4.08,1.43,1.43,0,0,1-.52,2.76Zm-28-6.9a1.41,1.41,0,0,1-1.13-.56,1.43,1.43,0,0,1,.26-2,48.25,48.25,0,0,0,6.69-6.16,1.54,1.54,0,0,1,.19-.17c-.43-.52-.84-1.05-1.25-1.59a1.43,1.43,0,0,1,2.29-1.71,50,50,0,0,0,6.1,6.74A1.43,1.43,0,1,1,213,49.57q-1.75-1.6-3.35-3.38a52,52,0,0,1-7,6.43A1.4,1.4,0,0,1,201.75,52.91Zm12.49-13.83A1.43,1.43,0,0,1,213,36.91a49.5,49.5,0,0,0,4-8.17,1.43,1.43,0,1,1,2.67,1,52.41,52.41,0,0,1-4.24,8.64A1.43,1.43,0,0,1,214.24,39.08Zm-11.47-4a1.45,1.45,0,0,1-1.29-.8,51.28,51.28,0,0,1-3.42-9,1.43,1.43,0,0,1,2.76-.76,48.57,48.57,0,0,0,3.23,8.5A1.43,1.43,0,0,1,202.77,35Zm18.08-13.37-.25,0A1.43,1.43,0,0,1,219.44,20a48.14,48.14,0,0,0,.71-6.58,10.19,10.19,0,0,0-.21-2.05,1.44,1.44,0,0,1,1.12-1.68,1.42,1.42,0,0,1,1.68,1.12,13.35,13.35,0,0,1,.28,2.6v.11c0,.05,0,.1,0,.15a53.63,53.63,0,0,1-.75,6.83A1.44,1.44,0,0,1,220.85,21.66Zm-23.06-4.59a1.42,1.42,0,0,1-1.42-1.31c-.07-.75-.11-1.51-.15-2.28a13.42,13.42,0,0,1,2.31-7.59,1.43,1.43,0,0,1,2.37,1.6,10.53,10.53,0,0,0-1.82,5.93c0,.67.08,1.39.13,2.1a1.43,1.43,0,0,1-1.3,1.55ZM216.27,4.89a1.49,1.49,0,0,1-.8-.24,10.39,10.39,0,0,0-5.84-1.79c-.53.06-1.36.06-2,.19a1.43,1.43,0,1,1-.55-2.8A12.92,12.92,0,0,1,209.61,0h0a13.21,13.21,0,0,1,7.44,2.28,1.43,1.43,0,0,1,.39,2A1.45,1.45,0,0,1,216.27,4.89Z"/><path class="cls-1" d="M74,63.22a1.53,1.53,0,0,1-1.54-1.43,1.35,1.35,0,0,1,1.32-1.43h.11a1.48,1.48,0,0,1,1.49,1.43A1.39,1.39,0,0,1,74,63.22ZM1.43,63.05a1.43,1.43,0,0,1-.12-2.85,50.28,50.28,0,0,0,9-1.6A1.43,1.43,0,1,1,11,61.35a51.63,51.63,0,0,1-9.48,1.7Zm63-.72-.27,0a51.4,51.4,0,0,1-9.24-2.68A1.43,1.43,0,1,1,56,57a49.24,49.24,0,0,0,8.73,2.53,1.43,1.43,0,0,1-.27,2.83Zm-45-4.26a1.43,1.43,0,0,1-.64-2.71,48.6,48.6,0,0,0,7.75-4.77,1.43,1.43,0,0,1,1.72,2.29,52.31,52.31,0,0,1-8.2,5A1.42,1.42,0,0,1,19.39,58.07Zm27.72-2.58a1.4,1.4,0,0,1-.76-.22,51.6,51.6,0,0,1-7.63-5.87,1.43,1.43,0,1,1,1.94-2.09,49,49,0,0,0,7.21,5.54,1.43,1.43,0,0,1-.76,2.64ZM34.29,46.88a1.44,1.44,0,0,1-1-2.4c.15-.15.29-.31.43-.47a53.37,53.37,0,0,1-3.74-5.26,1.43,1.43,0,0,1,2.43-1.51,48.9,48.9,0,0,0,4.28,5.87,1.44,1.44,0,0,1,0,1.85c-.42.49-.85,1-1.29,1.46A1.45,1.45,0,0,1,34.29,46.88Zm3.37-4.06a1.52,1.52,0,0,1-.86-.28,1.43,1.43,0,0,1-.29-2,49.27,49.27,0,0,0,4.71-7.78,1.44,1.44,0,0,1,1.91-.66A1.42,1.42,0,0,1,43.79,34a50,50,0,0,1-5,8.23A1.42,1.42,0,0,1,37.66,42.82ZM27,31.06a1.42,1.42,0,0,1-1.33-.91A52.55,52.55,0,0,1,23,20.9a1.43,1.43,0,0,1,2.81-.53,47.71,47.71,0,0,0,2.49,8.74A1.43,1.43,0,0,1,27.47,31,1.34,1.34,0,0,1,27,31.06Zm18.83-5a1.57,1.57,0,0,1-.37-.05,1.44,1.44,0,0,1-1-1.75,49.52,49.52,0,0,0,1.55-9,1.43,1.43,0,0,1,2.85.22A52.49,52.49,0,0,1,47.16,25,1.42,1.42,0,0,1,45.78,26.05Zm-22-13.3a1,1,0,0,1-.25,0,1.43,1.43,0,0,1-1.16-1.66,13.34,13.34,0,0,1,3.72-7.13,12.77,12.77,0,0,1,1.76-1.5,1.43,1.43,0,1,1,1.65,2.33A9.76,9.76,0,0,0,28.11,6a10.52,10.52,0,0,0-2.94,5.62A1.41,1.41,0,0,1,23.77,12.75Zm21.5-4.84A1.42,1.42,0,0,1,44.1,7.3,10.42,10.42,0,0,0,37.32,3a1.42,1.42,0,0,1-1.16-1.65A1.42,1.42,0,0,1,37.81.17a13.26,13.26,0,0,1,8.63,5.49,1.43,1.43,0,0,1-.35,2A1.4,1.4,0,0,1,45.27,7.91Z"/><path class="cls-2" d="M365.18,72.86a30.5,30.5,0,1,1,48.47,24.6v9.27H400.09v-6.08a28,28,0,0,1-8.82,0v6.08H377.72V97.46A30.42,30.42,0,0,1,365.18,72.86Z"/><path class="cls-1" d="M414.36,107.44h-15v-6a26.9,26.9,0,0,1-7.39,0v6H377V97.82a31.21,31.21,0,1,1,37.35,0ZM400.8,106h12.14V97.1l.29-.21a29.8,29.8,0,1,0-35.09,0l.29.21V106h12.13v-6.2l.82.12a26.4,26.4,0,0,0,8.6,0l.82-.12Z"/><g id="INSERT"><g id="CIRCLE"><path class="cls-2" d="M396.94,79.42a1.79,1.79,0,0,0-2.52-2.53,1.8,1.8,0,0,0,0,2.53,1.77,1.77,0,0,0,2.52,0Z"/><path class="cls-1" d="M395.68,80.66a2.45,2.45,0,0,1-1.76-.74,2.49,2.49,0,1,1,3.52-3.53,2.47,2.47,0,0,1,0,3.53,2.41,2.41,0,0,1-1.75.74Zm0-3.58a1.08,1.08,0,0,0-.76,1.84,1.1,1.1,0,0,0,.76.31h0a1,1,0,0,0,.75-.31h0a1.08,1.08,0,0,0-.76-1.84Z"/></g></g><polygon class="cls-2" points="374.08 77.01 376.49 77.01 376.49 74.59 378.8 74.59 378.8 77.01 381.23 77.01 381.23 79.3 378.8 79.3 378.8 81.73 376.49 81.73 376.49 79.3 374.08 79.3 374.08 77.01"/><path class="cls-1" d="M379.51,82.44h-3.73V80h-2.41V76.3h2.41V73.88h3.73V76.3h2.43V80h-2.43ZM377.2,81h.89V78.59h2.42v-.87h-2.42V75.3h-.89v2.42h-2.41v.87h2.41Z"/><polygon class="cls-2" points="412 74.82 413.71 76.53 415.42 74.82 417.05 76.44 415.34 78.15 417.06 79.87 415.43 81.49 413.71 79.78 412 81.49 410.37 79.87 412.09 78.15 410.38 76.44 412 74.82"/><path class="cls-1" d="M415.43,82.5l-1.72-1.72L412,82.5l-2.63-2.63,1.71-1.72-1.7-1.71L412,73.81l1.71,1.71,1.71-1.71,2.63,2.63-1.71,1.71,1.72,1.72Zm-1.72-3.73,1.72,1.72.62-.62-1.72-1.72L416,76.44l-.62-.62-1.71,1.72L412,75.83l-.62.61,1.71,1.71-1.72,1.72.62.62Z"/><path class="cls-2" d="M244.16,76.05a46.72,46.72,0,1,1,74.24,37.68v14.2H297.62v-9.32a42.46,42.46,0,0,1-13.5,0v9.32H263.37V113.74A46.62,46.62,0,0,1,244.16,76.05Z"/><path class="cls-1" d="M319.49,129h-23v-9.16a41.27,41.27,0,0,1-11.32,0V129H262.28V114.29a47.79,47.79,0,1,1,57.21,0Zm-20.78-2.18h18.6V113.18l.44-.33a45.62,45.62,0,1,0-53.74,0l.44.32v13.66H283v-9.49l1.25.18a40.48,40.48,0,0,0,13.18,0l1.25-.18Z"/><g id="INSERT-2" data-name="INSERT"><g id="CIRCLE-2" data-name="CIRCLE"><path class="cls-2" d="M292.8,86.11a2.74,2.74,0,1,0-3.86,0,2.74,2.74,0,0,0,3.86,0Z"/><path class="cls-1" d="M290.87,88a3.8,3.8,0,0,1-2.7-1.12,3.83,3.83,0,0,1,5.4-5.42,3.81,3.81,0,0,1,1.13,2.71,3.77,3.77,0,0,1-1.13,2.7A3.73,3.73,0,0,1,290.88,88Zm0-5.47a1.64,1.64,0,0,0-1.16.48,1.65,1.65,0,0,0,1.16,2.81h0a1.62,1.62,0,0,0,1.15-.48h0a1.6,1.6,0,0,0,.49-1.16,1.64,1.64,0,0,0-1.65-1.64Z"/></g></g><polygon class="cls-2" points="257.79 82.41 261.49 82.41 261.49 78.71 265.02 78.71 265.02 82.41 268.74 82.41 268.74 85.93 265.02 85.93 265.02 89.64 261.49 89.64 261.49 85.93 257.79 85.93 257.79 82.41"/><path class="cls-1" d="M266.11,90.73H260.4V87h-3.7v-5.7h3.7v-3.7h5.71v3.7h3.72V87h-3.72Zm-3.53-2.17h1.36V84.84h3.71V83.5h-3.71V79.8h-1.36v3.7h-3.7v1.34h3.7Z"/><polygon class="cls-2" points="315.87 79.06 318.49 81.68 321.11 79.06 323.59 81.55 320.98 84.16 323.61 86.8 321.12 89.28 318.49 86.65 315.86 89.28 313.38 86.79 316 84.16 313.39 81.55 315.87 79.06"/><path class="cls-1" d="M321.12,90.82l-2.63-2.63-2.63,2.63-4-4,2.63-2.63-2.61-2.61,4-4,2.62,2.62,2.62-2.63,4,4-2.61,2.62,2.63,2.64Zm-2.63-5.71,2.63,2.63.95-.94-2.63-2.64,2.61-2.62-.94-.94-2.62,2.62-2.62-2.62-.94,1,2.61,2.61-2.63,2.63.95.95Z"/><path class="cls-2" d="M71.44,55.1A50.63,50.63,0,1,1,151.9,95.94v15.39H129.38v-10.1a45.64,45.64,0,0,1-14.63,0v10.1H92.25V96A50.54,50.54,0,0,1,71.44,55.1Z"/><path class="cls-1" d="M153.09,112.51H128.2v-9.92a45.83,45.83,0,0,1-12.27,0v9.92H91.07v-16a51.81,51.81,0,1,1,62,0Zm-22.53-2.36h20.16V95.34l.49-.35A49.46,49.46,0,1,0,93,95l.48.36v14.8h20.14V99.86l1.35.2a43.93,43.93,0,0,0,14.29,0l1.35-.2Z"/><g id="INSERT-3" data-name="INSERT"><g id="CIRCLE-3" data-name="CIRCLE"><path class="cls-2" d="M124.16,66A3,3,0,1,0,120,66a3,3,0,0,0,4.19,0Z"/><path class="cls-1" d="M122.07,68.05a4.08,4.08,0,0,1-2.93-1.22A4.14,4.14,0,1,1,125,61a4.16,4.16,0,0,1-2.91,7.09Zm0-5.93a1.78,1.78,0,0,0-1.26,3,1.76,1.76,0,0,0,1.26.53h0a1.76,1.76,0,0,0,1.25-.53h0a1.78,1.78,0,0,0-1.26-3Z"/></g></g><polygon class="cls-2" points="86.2 61.99 90.21 61.99 90.21 57.97 94.05 57.97 94.05 61.99 98.07 61.99 98.07 65.8 94.05 65.8 94.05 69.83 90.21 69.83 90.21 65.8 86.2 65.8 86.2 61.99"/><path class="cls-1" d="M95.23,71H89V67H85V60.81h4v-4h6.2v4h4V67h-4Zm-3.84-2.36h1.48v-4h4V63.17h-4v-4H91.39v4h-4v1.45h4Z"/><polygon class="cls-2" points="149.17 58.36 152 61.2 154.84 58.35 157.54 61.05 154.7 63.89 157.55 66.74 154.86 69.44 152 66.58 149.16 69.43 146.46 66.74 149.31 63.89 146.48 61.05 149.17 58.36"/><path class="cls-1" d="M154.86,71.11,152,68.26l-2.85,2.84-4.37-4.36,2.85-2.85-2.83-2.84,4.36-4.36L152,59.53l2.84-2.85,4.37,4.37-2.84,2.84,2.85,2.85ZM152,64.92l2.86,2.85,1-1L153,63.89l2.84-2.84-1-1L152,62.86,149.17,60l-1,1L151,63.89l-2.85,2.85,1,1Z"/></svg>