<svg width="1920" height="141" viewBox="0 0 1920 141" fill="none" xmlns="http://www.w3.org/2000/svg">
<path d="M1920 0H0V139.524H1920V0Z" fill="#00626F"/>
<path d="M1920 97.316H0V140.593H1920V97.316Z" fill="#36D2B6"/>
<g opacity="0.6">
<mask id="mask0_101_3" style="mask-type:luminance" maskUnits="userSpaceOnUse" x="0" y="96" width="1920" height="45">
<path d="M1920 96.963H0V140.963H1920V96.963Z" fill="white"/>
</mask>
<g mask="url(#mask0_101_3)">
<path d="M113.601 97.316L86.225 123.64L97.859 135.273L135.813 97.316H113.601Z" fill="white"/>
<path d="M150.48 97.316L105.306 142.521L115.954 153.767L172.313 97.316H150.48Z" fill="white"/>
<path d="M186.514 97.316L123.112 160.718L133.961 171.769L208.309 97.316H186.514Z" fill="white"/>
<path d="M229.115 97.316L222.891 103.542L233.844 114.489L249.212 99.118L265.125 115.028L276.075 104.081L269.313 97.316H229.115Z" fill="white"/>
<path d="M0 138.141V160.043L20.223 139.817L93.598 213.192L104.451 202.141L20.223 117.914L0 138.141Z" fill="white"/>
<path d="M72.272 97.316L55.856 113.805L55.764 113.711L44.817 124.661L113.271 193.12L124.224 182.17L66.972 124.916L93.876 97.316H72.272Z" fill="white"/>
<path d="M528.351 97.316L500.975 123.64L512.609 135.273L550.563 97.316H528.351Z" fill="white"/>
<path d="M565.23 97.316L520.057 142.521L530.704 153.767L587.063 97.316H565.23Z" fill="white"/>
<path d="M601.264 97.316L537.862 160.718L548.711 171.769L623.06 97.316H601.264Z" fill="white"/>
<path d="M487.023 97.316L470.606 113.805L470.514 113.711L459.568 124.661L528.021 193.12L538.974 182.17L481.723 124.916L508.626 97.316H487.023Z" fill="white"/>
<path d="M299.896 97.316L283.479 113.805L283.388 113.711L272.441 124.661L362.526 215.549L373.788 204.114L294.596 124.916L321.5 97.316H299.896Z" fill="white"/>
<path d="M0 322.059V343.949L224.429 124.662L213.48 113.715L0 322.059Z" fill="white"/>
<path d="M647.489 97.316L641.265 103.542L652.215 114.489L667.586 99.118L683.499 115.028L694.449 104.081L687.683 97.316H647.489Z" fill="white"/>
<path d="M642.802 124.662L631.853 113.712L403.951 336.311L414.639 347.523L642.802 124.662Z" fill="white"/>
<path d="M0 97.316V110.913L4.118 115.028L20.031 99.118L35.402 114.489L46.352 103.542L40.128 97.316H0Z" fill="white"/>
<path d="M522.341 202.14L511.489 213.191L438.117 139.819L369.264 208.669L355.301 200.735L438.117 117.916L522.341 202.14Z" fill="white"/>
<path d="M364.616 97.316L390.791 123.492L362.797 151.482L325.436 114.127L312.734 126.605L362.797 176.665L415.243 124.216L388.85 97.316H364.616Z" fill="white"/>
<path d="M417.825 97.316L411.06 104.081L422.013 115.028L437.926 99.118L453.293 114.489L464.243 103.542L458.02 97.316H417.825Z" fill="white"/>
<path d="M345.484 97.316L335.791 107.009L361.343 132.56L372.397 121.718L347.998 97.316H345.484Z" fill="white"/>
<path d="M0 365.564V371.677H16.593L249.017 139.817L417.301 308.098L428.251 297.152L249.017 117.914L0 365.564Z" fill="white"/>
<path d="M945.895 97.316L918.519 123.64L930.149 135.273L968.107 97.316H945.895Z" fill="white"/>
<path d="M982.771 97.316L937.601 142.521L948.248 153.767L1004.61 97.316H982.771Z" fill="white"/>
<path d="M1018.81 97.316L955.402 160.718L966.251 171.769L1040.6 97.316H1018.81Z" fill="white"/>
<path d="M904.566 97.316L888.149 113.805L888.058 113.711L877.108 124.661L945.564 193.12L956.517 182.17L899.266 124.916L926.169 97.316H904.566Z" fill="white"/>
<path d="M717.44 97.316L701.023 113.805L700.931 113.711L689.982 124.661L780.07 215.549L791.328 204.114L712.14 124.916L739.043 97.316H717.44Z" fill="white"/>
<path d="M1065.03 97.316L1058.81 103.542L1069.76 114.489L1085.13 99.118L1101.04 115.028L1111.99 104.081L1105.22 97.316H1065.03Z" fill="white"/>
<path d="M1060.34 124.662L1049.4 113.712L821.494 336.311L832.182 347.523L1060.34 124.662Z" fill="white"/>
<path d="M939.885 202.14L929.032 213.191L855.66 139.819L786.807 208.669L772.842 200.735L855.66 117.916L939.885 202.14Z" fill="white"/>
<path d="M782.157 97.316L808.332 123.492L780.339 151.482L742.98 114.127L730.278 126.605L780.339 176.665L832.784 124.216L806.391 97.316H782.157Z" fill="white"/>
<path d="M835.369 97.316L828.604 104.081L839.557 115.028L855.466 99.118L870.837 114.489L881.787 103.542L875.564 97.316H835.369Z" fill="white"/>
<path d="M763.027 97.316L753.334 107.009L778.886 132.56L789.937 121.718L765.542 97.316H763.027Z" fill="white"/>
<path d="M411.397 371.677H434.134L666.561 139.818L834.842 308.099L845.799 297.149L666.561 117.915L411.397 371.677Z" fill="white"/>
<path d="M1363.44 97.316L1336.06 123.64L1347.69 135.273L1385.65 97.316H1363.44Z" fill="white"/>
<path d="M1400.31 97.316L1355.14 142.521L1365.79 153.767L1422.15 97.316H1400.31Z" fill="white"/>
<path d="M1436.35 97.316L1372.95 160.718L1383.8 171.769L1458.15 97.316H1436.35Z" fill="white"/>
<path d="M1322.11 97.316L1305.69 113.805L1305.6 113.711L1294.65 124.661L1363.1 193.12L1374.06 182.17L1316.81 124.916L1343.71 97.316H1322.11Z" fill="white"/>
<path d="M1134.98 97.316L1118.57 113.805L1118.48 113.711L1107.52 124.661L1197.61 215.549L1208.87 204.114L1129.68 124.916L1156.59 97.316H1134.98Z" fill="white"/>
<path d="M1482.58 97.316L1476.35 103.542L1487.3 114.489L1502.67 99.118L1518.58 115.028L1529.53 104.081L1522.77 97.316H1482.58Z" fill="white"/>
<path d="M1477.89 124.662L1466.94 113.712L1239.04 336.311L1249.72 347.523L1477.89 124.662Z" fill="white"/>
<path d="M1357.43 202.14L1346.57 213.191L1273.2 139.819L1204.35 208.669L1190.39 200.735L1273.2 117.916L1357.43 202.14Z" fill="white"/>
<path d="M1199.7 97.316L1225.88 123.492L1197.88 151.482L1160.52 114.127L1147.82 126.605L1197.88 176.665L1250.33 124.216L1223.94 97.316H1199.7Z" fill="white"/>
<path d="M1252.91 97.316L1246.15 104.081L1257.1 115.028L1273.01 99.118L1288.38 114.489L1299.33 103.542L1293.1 97.316H1252.91Z" fill="white"/>
<path d="M1180.57 97.316L1170.88 107.009L1196.43 132.56L1207.48 121.718L1183.08 97.316H1180.57Z" fill="white"/>
<path d="M828.94 371.677H851.678L1084.1 139.818L1252.39 308.099L1263.34 297.149L1084.1 117.915L828.94 371.677Z" fill="white"/>
<path d="M1780.98 97.316L1753.6 123.64L1765.24 135.273L1803.19 97.316H1780.98Z" fill="white"/>
<path d="M1817.86 97.316L1772.69 142.521L1783.33 153.767L1839.69 97.316H1817.86Z" fill="white"/>
<path d="M1853.89 97.316L1790.49 160.718L1801.34 171.769L1875.69 97.316H1853.89Z" fill="white"/>
<path d="M1739.65 97.316L1723.23 113.805L1723.15 113.711L1712.19 124.661L1780.65 193.12L1791.6 182.17L1734.35 124.916L1761.26 97.316H1739.65Z" fill="white"/>
<path d="M1552.53 97.316L1536.11 113.805L1536.02 113.711L1525.07 124.661L1615.15 215.549L1626.42 204.114L1547.22 124.916L1574.13 97.316H1552.53Z" fill="white"/>
<path d="M1900.12 97.316L1893.89 103.542L1904.84 114.489L1920 99.333V97.316H1900.12Z" fill="white"/>
<path d="M1895.43 124.662L1884.48 113.712L1656.58 336.311L1667.27 347.523L1895.43 124.662Z" fill="white"/>
<path d="M1774.97 202.14L1764.12 213.191L1690.75 139.819L1621.89 208.669L1607.93 200.735L1690.75 117.916L1774.97 202.14Z" fill="white"/>
<path d="M1617.24 97.316L1643.42 123.492L1615.43 151.482L1578.06 114.127L1565.36 126.605L1615.43 176.665L1667.87 124.216L1641.48 97.316H1617.24Z" fill="white"/>
<path d="M1670.45 97.316L1663.69 104.081L1674.64 115.028L1690.55 99.118L1705.92 114.489L1716.88 103.542L1710.65 97.316H1670.45Z" fill="white"/>
<path d="M1598.11 97.316L1588.42 107.009L1613.97 132.56L1625.02 121.718L1600.63 97.316H1598.11Z" fill="white"/>
<path d="M1246.48 371.677H1269.22L1501.65 139.818L1669.93 308.099L1680.88 297.149L1501.65 117.915L1246.48 371.677Z" fill="white"/>
<path d="M1664.03 371.677H1686.77L1919.19 139.818L1920 140.624V118.724L1919.19 117.915L1664.03 371.677Z" fill="white"/>
</g>
</g>
</svg>
