<svg xmlns="http://www.w3.org/2000/svg" width="341.86741" height="341.86741" viewBox="0 0 341.86741 341.86741">
  <defs>
    <style>
      .cls-1 {
        fill: #fff;
      }

      .cls-2 {
        fill: #ff8f00;
      }
    </style>
  </defs>
  <g id="Capa_2" data-name="Capa 2">
    <g id="Capa_9" data-name="Capa 9">
      <g>
        <path class="cls-1" d="M320.26879,242.52112l-14.8957-71.97872,14.8957-71.62531a18.96207,18.96207,0,0,0-16.60615-23.78251l-.04438-.06942-66.54415-21.5166L194.09747,14.81988c-3.26311-2.93492-6.51358-5.89511-9.54954-9.0636a18.97776,18.97776,0,0,0-27.2285,0c-3.036,3.16849-6.28644,6.12868-9.54954,9.0636L104.79325,53.54856,38.24909,75.06516l-.04438.06942A18.96207,18.96207,0,0,0,21.59857,98.91709l14.8957,71.62531-14.8957,71.97872a18.95985,18.95985,0,0,0,13.53258,23.25236c1.49564.385,64.92832,20.2732,64.92832,20.2732s54.83636,47.767,57.82795,50.63252a18.99714,18.99714,0,0,0,26.09251,0c2.99159-2.86554,57.828-50.63252,57.828-50.63252s63.43268-19.8882,64.92832-20.2732A18.95986,18.95986,0,0,0,320.26879,242.52112Z"/>
        <path class="cls-1" d="M242.52112,21.59862,170.5424,36.49432,98.91709,21.59862A18.96207,18.96207,0,0,0,75.13458,38.20476l-.06942.04438L53.54856,104.7933,14.81988,147.76994c-2.93492,3.2631-5.89511,6.51357-9.0636,9.54954a18.97776,18.97776,0,0,0,0,27.2285c3.16849,3.036,6.12868,6.28643,9.0636,9.54954l38.72868,42.97664,21.5166,66.54415.06942.04438a18.96207,18.96207,0,0,0,23.78251,16.60615l71.62531-14.8957,71.97872,14.8957a18.95986,18.95986,0,0,0,23.25236-13.53258c.385-1.49564,20.2732-64.92832,20.2732-64.92832s47.767-54.83637,50.63252-57.828a18.99714,18.99714,0,0,0,0-26.09251c-2.86554-2.99159-50.63252-57.82795-50.63252-57.82795s-19.8882-63.43268-20.2732-64.92832A18.95985,18.95985,0,0,0,242.52112,21.59862Z"/>
        <g>
          <circle class="cls-2" cx="172.84747" cy="129.415" r="56.62198"/>
          <rect class="cls-2" x="144.51158" y="172.19273" width="22.11096" height="26.49331"/>
          <rect class="cls-2" x="178.17601" y="172.19273" width="22.11096" height="26.49331"/>
          <rect class="cls-2" x="151.6827" y="193.90529" width="7.56952" height="78.88234"/>
          <rect class="cls-2" x="185.44673" y="193.90529" width="7.56952" height="78.88234"/>
        </g>
      </g>
    </g>
  </g>
</svg>
