<svg id="Capa_6" data-name="Capa 6" xmlns="http://www.w3.org/2000/svg" viewBox="0 0 302.31 273.34"><defs><style>.cls-1{fill:#6bcbb8;}.cls-2{fill:#007481;}.cls-3{fill:#e65300;}</style></defs><path class="cls-1" d="M110.91,273.17a2.77,2.77,0,0,1-2.76-2.76V252.34a2.76,2.76,0,0,1,5.52,0v18.07A2.77,2.77,0,0,1,110.91,273.17Zm0-36.15a2.77,2.77,0,0,1-2.76-2.76V216.19a2.76,2.76,0,0,1,5.52,0v18.07A2.77,2.77,0,0,1,110.91,237Zm0-36.15a2.77,2.77,0,0,1-2.76-2.76V180a2.76,2.76,0,0,1,5.52,0v18.07A2.77,2.77,0,0,1,110.91,200.87Z"/><path class="cls-1" d="M190.5,273.17a2.77,2.77,0,0,1-2.76-2.76V252.34a2.76,2.76,0,0,1,5.52,0v18.07A2.77,2.77,0,0,1,190.5,273.17Zm0-36.15a2.77,2.77,0,0,1-2.76-2.76V216.19a2.76,2.76,0,0,1,5.52,0v18.07A2.77,2.77,0,0,1,190.5,237Zm0-36.15a2.77,2.77,0,0,1-2.76-2.76V180a2.76,2.76,0,1,1,5.52,0v18.07A2.77,2.77,0,0,1,190.5,200.87Z"/><polygon class="cls-2" points="127.3 17.49 120.52 17.49 120.52 6.95 102.33 6.95 102.33 17.49 95.56 17.49 95.56 0.17 127.3 0.17 127.3 17.49"/><polygon class="cls-2" points="206.38 17.49 199.6 17.49 199.6 6.95 181.4 6.95 181.4 17.49 174.62 17.49 174.62 0.17 206.38 0.17 206.38 17.49"/><polygon class="cls-2" points="127.3 183.42 95.56 183.42 95.56 165.41 102.33 165.41 102.33 176.65 120.52 176.65 120.52 165.41 127.3 165.41 127.3 183.42"/><polygon class="cls-2" points="206.38 183.42 174.62 183.42 174.62 165.41 181.4 165.41 181.4 176.65 199.6 176.65 199.6 165.41 206.38 165.41 206.38 183.42"/><path class="cls-3" d="M151.15,169.32a77.52,77.52,0,1,1,77.53-77.5A77.59,77.59,0,0,1,151.15,169.32Zm0-148.26A70.74,70.74,0,1,0,221.9,91.82,70.83,70.83,0,0,0,151.15,21.06Z"/><path class="cls-2" d="M205.59,169.32H96.71a23.13,23.13,0,0,1-23.07-23.13V37.39A23.12,23.12,0,0,1,96.71,14.27H205.59a23.13,23.13,0,0,1,23.09,23.12v108.8A23.14,23.14,0,0,1,205.59,169.32ZM96.71,21a16.34,16.34,0,0,0-16.3,16.35v108.8a16.34,16.34,0,0,0,16.3,16.35H205.59a16.35,16.35,0,0,0,16.31-16.35V37.39A16.35,16.35,0,0,0,205.59,21Z"/><rect class="cls-2" x="191.4" y="87.05" width="19.88" height="6.38"/><rect class="cls-2" x="91.03" y="87.05" width="19.87" height="6.38"/><g id="INSERT"><g id="CIRCLE"><path class="cls-2" d="M161.08,90.26a9.93,9.93,0,1,1-19.85,0"/></g></g></svg>