<svg id="Capa_7" data-name="Capa 7" xmlns="http://www.w3.org/2000/svg" viewBox="0 0 302.31 273.34"><defs><style>.cls-1{fill:#e65300;}.cls-2{fill:#007481;}.cls-3{fill:#6bcbb8;}</style></defs><path class="cls-1" d="M118.23,181.71c-28.1,0-52.19-.1-61.26-.41C39.13,181.3,22,172.2,11.34,157-.29,140.42-2.86,119.57,4.28,99.77,22.47,67,46.81,65.8,54.89,66.38,56,58.79,60.54,39.84,78.3,27.32c21.19-14.94,44.49-9.24,50.84-7.26,24.2-20.87,57.69-26,85.74-12.9,34.39,16,42.82,51.86,44.29,59.77,8.2,3.08,47.52,20.24,42.37,64.51-9.09,48.34-54.71,49.85-55.17,49.86C245.26,181.31,173.9,181.71,118.23,181.71ZM52.13,71.24c-8.67,0-28.2,3.34-43.33,30.58-6.42,17.89-4.07,37.08,6.61,52.28,9.77,13.92,25.34,22.23,41.65,22.23,27,.91,187.62,0,189.24,0s42-1.5,50.32-45.64c5.22-44.82-38.53-58.95-40.4-59.52l-1.5-.47-.23-1.56c-.23-1.66-6.18-40.93-41.71-57.47C186.12-.75,154.15,4.38,131.36,24.73l-1.1,1-1.4-.51c-2.63-.95-26.36-8.87-47.69,6.18-18.57,13.09-21.28,33.93-21.63,38l-.25,2.76-2.72-.54A25,25,0,0,0,52.13,71.24Z"/><path class="cls-2" d="M162.09,113.85a9.94,9.94,0,0,1-19.88,0Z"/><circle class="cls-2" cx="199.02" cy="113.85" r="6.19"/><circle class="cls-2" cx="101.75" cy="113.85" r="6.19"/><path class="cls-3" d="M192.94,209.27a2.78,2.78,0,0,1-2.78-2.78V189.77a2.79,2.79,0,0,1,5.57,0v16.72A2.79,2.79,0,0,1,192.94,209.27Z"/><path class="cls-3" d="M192.94,238.24a2.77,2.77,0,0,1-2.78-2.78V218.74a2.79,2.79,0,0,1,5.57,0v16.72A2.78,2.78,0,0,1,192.94,238.24Z"/><path class="cls-3" d="M192.94,267.21a2.77,2.77,0,0,1-2.78-2.78V247.71a2.79,2.79,0,0,1,5.57,0v16.72A2.78,2.78,0,0,1,192.94,267.21Z"/><path class="cls-3" d="M200.74,270.56a2.79,2.79,0,0,1,2.79-2.79h16.71a2.79,2.79,0,1,1,0,5.57H203.53A2.78,2.78,0,0,1,200.74,270.56Z"/><path class="cls-3" d="M231.94,270.56a2.79,2.79,0,0,1,2.79-2.79h16.71a2.79,2.79,0,1,1,0,5.57H234.73A2.78,2.78,0,0,1,231.94,270.56Z"/><path class="cls-3" d="M48.08,270.56a2.79,2.79,0,0,1,2.79-2.79H67.58a2.79,2.79,0,1,1,0,5.57H50.87A2.78,2.78,0,0,1,48.08,270.56Z"/><path class="cls-3" d="M79.28,270.56a2.79,2.79,0,0,1,2.79-2.79H98.78a2.79,2.79,0,1,1,0,5.57H82.07A2.78,2.78,0,0,1,79.28,270.56Z"/><path class="cls-3" d="M110.48,209.27a2.79,2.79,0,0,1-2.78-2.78V189.77a2.79,2.79,0,0,1,5.57,0v16.72A2.79,2.79,0,0,1,110.48,209.27Z"/><path class="cls-3" d="M110.48,238.24a2.78,2.78,0,0,1-2.78-2.78V218.74a2.79,2.79,0,0,1,5.57,0v16.72A2.78,2.78,0,0,1,110.48,238.24Z"/><path class="cls-3" d="M110.48,267.21a2.78,2.78,0,0,1-2.78-2.78V247.71a2.79,2.79,0,0,1,5.57,0v16.72A2.78,2.78,0,0,1,110.48,267.21Z"/></svg>