<svg id="Capa_5" data-name="Capa 5" xmlns="http://www.w3.org/2000/svg" viewBox="0 0 302.31 273.34"><defs><style>.cls-1{fill:#6bcbb8;}.cls-2{fill:#007481;}.cls-3{fill:#e65300;}</style></defs><path class="cls-1" d="M71.43,33.62A3.06,3.06,0,0,0,70,33.9c-5.63,2.63-11.2,5.57-16.56,8.73a3.07,3.07,0,1,0,3.12,5.29c5.19-3.06,10.59-5.9,16-8.45a3.07,3.07,0,0,0-1.13-5.85Z"/><path class="cls-1" d="M39.72,52.32a3.08,3.08,0,0,0-2,.58c-5,3.66-9.93,7.6-14.59,11.73a3.07,3.07,0,0,0,4.07,4.6c4.51-4,9.27-7.82,14.14-11.36a3.07,3.07,0,0,0-1.64-5.55Z"/><path class="cls-1" d="M142.56,16h-.33c-6.21.31-12.48.92-18.63,1.82a3.07,3.07,0,0,0,.89,6.08c6-.87,12-1.46,18-1.76a3.07,3.07,0,0,0,0-6.13Z"/><path class="cls-1" d="M106.14,21.36a2.85,2.85,0,0,0-.91.09c-6,1.49-12.07,3.3-17.93,5.37a3.07,3.07,0,0,0,2,5.8c5.68-2,11.52-3.76,17.37-5.21a3.07,3.07,0,0,0-.57-6.05Z"/><path class="cls-1" d="M179.58,17.76C174,17,168.37,16.41,162.75,16.1L161,16a3.07,3.07,0,0,0-3.21,2.93,3,3,0,0,0,2.92,3.21c6,.28,12.11.85,18.06,1.7a3.07,3.07,0,0,0,.86-6.08Z"/><path class="cls-1" d="M265.58,52.44a3.07,3.07,0,0,0-1.62-.58,3.1,3.1,0,0,0-2.67,1.27,3.07,3.07,0,0,0,.7,4.29c4.88,3.53,9.65,7.33,14.17,11.31a3.07,3.07,0,1,0,4.06-4.61C275.55,60,270.62,56.08,265.58,52.44Z"/><path class="cls-1" d="M215.93,26.57c-5.87-2-11.92-3.82-18-5.29a3.78,3.78,0,0,0-.56-.08,3.08,3.08,0,0,0-.89,6.06c5.85,1.42,11.7,3.14,17.39,5.12a3.08,3.08,0,0,0,2-5.81Z"/><path class="cls-1" d="M249.89,42.23c-5.37-3.14-10.95-6-16.6-8.66a3.17,3.17,0,0,0-1.11-.27,3.07,3.07,0,0,0-1.46,5.86c5.46,2.51,10.87,5.33,16.07,8.37a3.07,3.07,0,1,0,3.1-5.3Z"/><rect class="cls-1" x="171.61" y="162.21" width="127.08" height="7.34"/><path class="cls-2" d="M194.62,110.43l-9.86,9.85,9.86,9.86,9.87-9.86Zm-4.85,9.85,4.92-4.92,4.94,4.92-4.94,4.94Z"/><path class="cls-2" d="M275.69,110.43l-9.88,9.85,9.88,9.86,9.86-9.86Zm-4.87,9.85,4.94-4.92,4.93,4.92-4.93,4.94Z"/><g id="INSERT"><g id="CIRCLE"><path class="cls-2" d="M225.3,117.81a9.85,9.85,0,1,0,19.7,0"/></g></g><path class="cls-3" d="M278.59,257.34H191.72a23.13,23.13,0,0,1-23.11-23.11V217.28a20.51,20.51,0,0,1,8.79-17.11,10.35,10.35,0,0,0,0-17.19,20.49,20.49,0,0,1-8.79-17.1V90.36a23.14,23.14,0,0,1,23.11-23.11h86.87A23.14,23.14,0,0,1,301.7,90.36V165a23.19,23.19,0,0,1-9.34,18.35,10.37,10.37,0,0,0,.54,16.8,20.49,20.49,0,0,1,8.8,17.12v16.94A23.13,23.13,0,0,1,278.59,257.34ZM191.72,73.26a17.12,17.12,0,0,0-17.1,17.1v75.52A14.51,14.51,0,0,0,180.76,178a16.36,16.36,0,0,1,0,27.14,14.5,14.5,0,0,0-6.14,12.13v16.95a17.13,17.13,0,0,0,17.1,17.11h86.87a17.14,17.14,0,0,0,17.11-17.11V217.29a14.49,14.49,0,0,0-6.16-12.14,16.4,16.4,0,0,1-7.21-13.58,16.23,16.23,0,0,1,6.37-12.95,17.29,17.29,0,0,0,7-13.6V90.36a17.13,17.13,0,0,0-17.11-17.1Z"/><rect class="cls-1" x="3.61" y="162.21" width="127.08" height="7.34"/><path class="cls-2" d="M26.62,110.43l-9.86,9.85,9.86,9.86,9.87-9.86Zm-4.85,9.85,4.92-4.92,4.94,4.92-4.94,4.94Z"/><path class="cls-2" d="M107.69,110.43l-9.88,9.85,9.88,9.86,9.86-9.86Zm-4.87,9.85,4.94-4.92,4.93,4.92-4.93,4.94Z"/><g id="INSERT-2" data-name="INSERT"><g id="CIRCLE-2" data-name="CIRCLE"><path class="cls-2" d="M57.3,117.81a9.85,9.85,0,1,0,19.7,0"/></g></g><path class="cls-3" d="M110.59,257.34H23.72A23.13,23.13,0,0,1,.61,234.23V217.28A20.51,20.51,0,0,1,9.4,200.17,10.35,10.35,0,0,0,9.4,183a20.49,20.49,0,0,1-8.79-17.1V90.36A23.14,23.14,0,0,1,23.72,67.25h86.87A23.14,23.14,0,0,1,133.7,90.36V165a23.19,23.19,0,0,1-9.34,18.35,10.37,10.37,0,0,0,.54,16.8,20.49,20.49,0,0,1,8.8,17.12v16.94A23.13,23.13,0,0,1,110.59,257.34ZM23.72,73.26a17.12,17.12,0,0,0-17.1,17.1v75.52A14.51,14.51,0,0,0,12.76,178,16.32,16.32,0,0,1,20,191.57a16.38,16.38,0,0,1-7.22,13.58,14.5,14.5,0,0,0-6.14,12.13v16.95a17.13,17.13,0,0,0,17.1,17.11h86.87a17.14,17.14,0,0,0,17.11-17.11V217.29a14.49,14.49,0,0,0-6.16-12.14,16.4,16.4,0,0,1-7.21-13.58,16.23,16.23,0,0,1,6.37-12.95,17.29,17.29,0,0,0,7-13.6V90.36a17.13,17.13,0,0,0-17.11-17.1Z"/></svg>