<svg id="Capa_8" data-name="Capa 8" xmlns="http://www.w3.org/2000/svg" viewBox="0 0 302.31 273.34"><defs><style>.cls-1{fill:#007481;}.cls-2{fill:#e65300;}</style></defs><path class="cls-1" d="M219.08,213.8H180.85V185.14H170.26V213.8H132.05V185.14H121.46V213.8H83.25V183.5A22.51,22.51,0,0,1,64,161.38V59.48h19.9v-26H64V22.34A22.37,22.37,0,0,1,86.33,0H216a22.36,22.36,0,0,1,22.34,22.34V33.48h-19.9v26h19.9v101.9a22.5,22.5,0,0,1-19.25,22.12Zm-32.89-5.34h27.55v-30l2.61-.06a17.12,17.12,0,0,0,16.65-17V64.82H213.09V28.14H233v-5.8a17,17,0,0,0-17-17H86.33a17,17,0,0,0-17,17v5.8h19.9V64.82H69.31v96.56a17.13,17.13,0,0,0,16.66,17l2.61.06v30h27.54V179.81h21.26v28.65h27.55V179.81h21.26Z"/><rect class="cls-1" x="85.91" y="178.37" width="130.49" height="5.34"/><path class="cls-2" d="M151.16,64.94a20.09,20.09,0,1,1,20.09-20.1A20.11,20.11,0,0,1,151.16,64.94Zm0-34.59a14.5,14.5,0,1,0,14.5,14.49A14.52,14.52,0,0,0,151.16,30.35Z"/><polygon class="cls-1" points="111.11 101.03 101.2 110.93 91.29 101.03 101.2 91.13 111.11 101.03"/><polygon class="cls-1" points="211.03 101.03 201.12 110.93 191.22 101.03 201.12 91.13 211.03 101.03"/><g id="INSERT"><g id="CIRCLE"><path class="cls-1" d="M156.11,101a5,5,0,1,0-5,4.94,5,5,0,0,0,5-4.94Z"/></g></g><path class="cls-2" d="M200.94,238.24a2.77,2.77,0,0,1-2.78-2.78V218.74a2.79,2.79,0,0,1,5.57,0v16.72A2.78,2.78,0,0,1,200.94,238.24Z"/><path class="cls-2" d="M200.94,267.21a2.77,2.77,0,0,1-2.78-2.78V247.71a2.79,2.79,0,0,1,5.57,0v16.72A2.78,2.78,0,0,1,200.94,267.21Z"/><path class="cls-2" d="M208.74,270.56a2.79,2.79,0,0,1,2.79-2.79h16.71a2.79,2.79,0,1,1,0,5.57H211.53A2.78,2.78,0,0,1,208.74,270.56Z"/><path class="cls-2" d="M239.94,270.56a2.79,2.79,0,0,1,2.79-2.79h16.71a2.79,2.79,0,1,1,0,5.57H242.73A2.78,2.78,0,0,1,239.94,270.56Z"/><path class="cls-2" d="M39.08,270.56a2.79,2.79,0,0,1,2.79-2.79H58.58a2.79,2.79,0,1,1,0,5.57H41.87A2.78,2.78,0,0,1,39.08,270.56Z"/><path class="cls-2" d="M70.28,270.56a2.79,2.79,0,0,1,2.79-2.79H89.78a2.79,2.79,0,1,1,0,5.57H73.07A2.78,2.78,0,0,1,70.28,270.56Z"/><path class="cls-2" d="M101.48,238.24a2.78,2.78,0,0,1-2.78-2.78V218.74a2.79,2.79,0,0,1,5.57,0v16.72A2.78,2.78,0,0,1,101.48,238.24Z"/><path class="cls-2" d="M101.48,267.21a2.78,2.78,0,0,1-2.78-2.78V247.71a2.79,2.79,0,0,1,5.57,0v16.72A2.78,2.78,0,0,1,101.48,267.21Z"/></svg>