<svg id="Capa_1" data-name="Capa 1" xmlns="http://www.w3.org/2000/svg" viewBox="0 0 302.31 273.34"><defs><style>.cls-1{fill:#6bcbb8;}.cls-2{fill:#007481;}.cls-3{fill:#e65300;}</style></defs><path class="cls-1" d="M103.28,11.55a1.91,1.91,0,0,0-.87.17c-3.36,1.57-6.68,3.31-9.87,5.2a1.83,1.83,0,1,0,1.86,3.15c3.09-1.82,6.31-3.52,9.56-5a1.83,1.83,0,0,0-.68-3.49Z"/><path class="cls-1" d="M84.39,22.69a1.86,1.86,0,0,0-1.18.35c-3,2.18-5.92,4.53-8.69,7A1.83,1.83,0,1,0,77,32.76c2.68-2.37,5.52-4.65,8.42-6.76a1.83,1.83,0,0,0-1-3.31Z"/><path class="cls-1" d="M68,37.23a1.82,1.82,0,0,0-1.45.58c-2.52,2.71-5,5.57-7.2,8.51a1.83,1.83,0,1,0,2.9,2.23c2.19-2.85,4.53-5.62,7-8.25a1.82,1.82,0,0,0-.09-2.58A1.78,1.78,0,0,0,68,37.23Z"/><path class="cls-1" d="M55.5,54.9a2,2,0,0,0-.87-.27,1.83,1.83,0,0,0-1.66.86c-2,3.14-3.79,6.42-5.44,9.73a1.83,1.83,0,1,0,3.28,1.63c1.6-3.21,3.37-6.38,5.27-9.42A1.84,1.84,0,0,0,55.5,54.9Z"/><path class="cls-1" d="M145.65,1.07h-.19c-3.7.18-7.44.55-11.1,1.08a1.83,1.83,0,0,0,.53,3.62c3.55-.52,7.16-.87,10.75-1a1.83,1.83,0,0,0,0-3.66Z"/><path class="cls-1" d="M124,4.25a2,2,0,0,0-.54,0c-3.6.89-7.19,2-10.69,3.2A1.83,1.83,0,0,0,114,11c3.39-1.19,6.87-2.23,10.35-3.1a1.83,1.83,0,0,0-.34-3.6Z"/><path class="cls-1" d="M235.67,37.48A1.83,1.83,0,0,0,233,40c2.46,2.62,4.82,5.39,7,8.23a1.83,1.83,0,0,0,2.9-2.24C240.64,43,238.21,40.18,235.67,37.48Z"/><path class="cls-1" d="M167.71,2.1c-3.3-.47-6.68-.8-10-1l-1.07-.05a1.83,1.83,0,0,0-.17,3.65c3.58.17,7.21.51,10.75,1a1.83,1.83,0,1,0,.52-3.63Z"/><path class="cls-1" d="M254.77,64.82c-1.66-3.3-3.5-6.57-5.48-9.71a1.83,1.83,0,1,0-3.09,2c1.91,3,3.69,6.2,5.3,9.41a1.83,1.83,0,0,0,3.27-1.65Z"/><path class="cls-1" d="M218.94,22.76a1.83,1.83,0,0,0-2.14,3c2.91,2.1,5.75,4.37,8.44,6.74a1.83,1.83,0,1,0,2.42-2.75C224.88,27.27,222,24.93,218.94,22.76Z"/><path class="cls-1" d="M189.36,7.35c-3.5-1.21-7.1-2.27-10.7-3.15l-.33,0a1.83,1.83,0,0,0-.53,3.61c3.49.85,7,1.87,10.36,3.05a1.83,1.83,0,0,0,1.2-3.46Z"/><path class="cls-1" d="M209.6,16.68c-3.2-1.87-6.53-3.61-9.89-5.16a2,2,0,0,0-.67-.16,1.83,1.83,0,0,0-.87,3.49c3.26,1.5,6.48,3.18,9.58,5a1.83,1.83,0,0,0,1.85-3.16Z"/><path class="cls-1" d="M103.28,262.85a1.91,1.91,0,0,1-.87-.17c-3.36-1.57-6.68-3.32-9.87-5.2a1.83,1.83,0,1,1,1.86-3.15c3.09,1.82,6.31,3.51,9.56,5a1.83,1.83,0,0,1-.68,3.49Z"/><path class="cls-1" d="M84.39,251.71a1.86,1.86,0,0,1-1.18-.35c-3-2.18-5.92-4.53-8.69-7A1.83,1.83,0,1,1,77,241.63c2.68,2.38,5.52,4.66,8.42,6.77a1.83,1.83,0,0,1-1,3.31Z"/><path class="cls-1" d="M68,237.17a1.85,1.85,0,0,1-1.45-.58c-2.52-2.71-5-5.57-7.2-8.51a1.83,1.83,0,1,1,2.9-2.23c2.19,2.84,4.53,5.62,7,8.24a1.83,1.83,0,0,1-.09,2.59A1.78,1.78,0,0,1,68,237.17Z"/><path class="cls-1" d="M55.5,219.49a1.86,1.86,0,0,1-.87.28,1.83,1.83,0,0,1-1.66-.86c-2-3.14-3.79-6.42-5.44-9.74a1.83,1.83,0,0,1,3.28-1.63c1.6,3.22,3.37,6.39,5.27,9.43A1.83,1.83,0,0,1,55.5,219.49Z"/><path class="cls-1" d="M145.65,273.33h-.19c-3.7-.18-7.44-.55-11.1-1.08a1.83,1.83,0,0,1,.53-3.62c3.55.51,7.16.87,10.75,1a1.83,1.83,0,0,1,0,3.66Z"/><path class="cls-1" d="M124,270.15a2,2,0,0,1-.54,0c-3.6-.89-7.19-2-10.69-3.2a1.83,1.83,0,0,1,1.22-3.45c3.39,1.19,6.87,2.23,10.35,3.09a1.83,1.83,0,0,1-.34,3.61Z"/><path class="cls-1" d="M235.67,236.92a1.83,1.83,0,0,1-2.67-2.5c2.46-2.62,4.82-5.39,7-8.23a1.83,1.83,0,1,1,2.9,2.24C240.64,231.36,238.21,234.22,235.67,236.92Z"/><path class="cls-1" d="M167.71,272.3c-3.3.47-6.68.8-10,1l-1.07,0a1.83,1.83,0,0,1-.17-3.66c3.58-.16,7.21-.5,10.75-1a1.83,1.83,0,1,1,.52,3.63Z"/><path class="cls-1" d="M254.77,209.57c-1.66,3.31-3.5,6.58-5.48,9.72a1.83,1.83,0,0,1-3.09-1.95c1.91-3,3.69-6.21,5.3-9.41a1.83,1.83,0,0,1,3.27,1.64Z"/><path class="cls-1" d="M218.94,251.63a1.76,1.76,0,0,1-1,.35,1.83,1.83,0,0,1-1.18-3.31c2.91-2.1,5.75-4.37,8.44-6.74a1.83,1.83,0,1,1,2.42,2.75C224.88,247.13,222,249.47,218.94,251.63Z"/><path class="cls-1" d="M189.36,267.05c-3.5,1.21-7.1,2.27-10.7,3.15a1.86,1.86,0,0,1-.33,0,1.83,1.83,0,0,1-.53-3.6c3.49-.85,7-1.87,10.36-3.05a1.83,1.83,0,0,1,1.2,3.46Z"/><path class="cls-1" d="M209.6,257.72c-3.2,1.87-6.53,3.6-9.89,5.15a1.84,1.84,0,0,1-.67.17,1.83,1.83,0,0,1-.87-3.49c3.26-1.5,6.48-3.18,9.58-5a1.83,1.83,0,0,1,1.85,3.16Z"/><path class="cls-2" d="M240.84,178.5H61.47a41.21,41.21,0,0,1-41.16-41.16V116A41.21,41.21,0,0,1,61.47,74.8H240.84A41.2,41.2,0,0,1,282,116v21.38A41.2,41.2,0,0,1,240.84,178.5ZM61.47,78.24A37.76,37.76,0,0,0,23.75,116v21.38a37.76,37.76,0,0,0,37.72,37.72H240.84a37.76,37.76,0,0,0,37.72-37.72V116a37.76,37.76,0,0,0-37.72-37.72Z"/><path class="cls-2" d="M81.88,200.54H60.28V175.06h21.6ZM63.72,197.1H78.44V178.5H63.72Z"/><path class="cls-2" d="M242,200.54h-21.6V175.06H242Zm-18.16-3.44h14.72V178.5H223.87Z"/><path class="cls-2" d="M226.09,143l8.18,8.2,8.2-8.2-8.2-8.19Zm8.12,4.09L230.12,143l4.09-4.09L238.3,143Z"/><path class="cls-2" d="M142.9,143l8.2,8.2,8.19-8.2-8.19-8.19Zm8.14,4.09-4.1-4.09,4.1-4.09,4.09,4.09Z"/><g id="CIRCLE"><path class="cls-2" d="M200.85,141a8.17,8.17,0,1,1-16.34,0"/></g><rect class="cls-3" x="59.67" y="78.13" width="3.6" height="97.04"/><rect class="cls-1" x="68.98" y="78.13" width="4.2" height="97.04"/></svg>