<svg id="Capa_9" data-name="Capa 9" xmlns="http://www.w3.org/2000/svg" viewBox="0 0 302.31 273.34"><defs><style>.cls-1{fill:#6bcbb8;}.cls-2{fill:#e65300;}.cls-3{fill:#007481;}</style></defs><path class="cls-1" d="M231,155.22a2.3,2.3,0,1,1,0-4.59c2.49,0,5-.12,7.39-.35a2.3,2.3,0,0,1,.43,4.57c-2.58.24-5.21.36-7.82.37Zm22.38-3.13a2.3,2.3,0,0,1-.63-4.51,78.1,78.1,0,0,0,13.6-5.31,2.3,2.3,0,0,1,2.07,4.1A83,83,0,0,1,254,152,2.41,2.41,0,0,1,253.39,152.09Zm26.74-13.44a2.3,2.3,0,0,1-1.39-4.12,79.35,79.35,0,0,0,10.74-9.9,2.52,2.52,0,0,1,.3-.27c-.68-.84-1.35-1.69-2-2.56a2.29,2.29,0,1,1,3.67-2.75,80,80,0,0,0,9.81,10.83,2.3,2.3,0,0,1-3.11,3.38c-1.87-1.71-3.66-3.52-5.38-5.41a84,84,0,0,1-11.24,10.33A2.36,2.36,0,0,1,280.13,138.65Z"/><path class="cls-1" d="M71.3,155.22c-2.61,0-5.24-.13-7.81-.37a2.29,2.29,0,1,1,.42-4.57c2.44.23,4.9.34,7.39.35a2.3,2.3,0,1,1,0,4.59Zm-23-3.22a82.39,82.39,0,0,1-14.4-5.63,2.29,2.29,0,1,1,2.06-4.1,78.1,78.1,0,0,0,13.6,5.31A2.3,2.3,0,1,1,48.29,152ZM20.78,138.18A84.59,84.59,0,0,1,9.54,127.85c-1.71,1.89-3.51,3.7-5.37,5.41a2.3,2.3,0,1,1-3.12-3.38,78.72,78.72,0,0,0,9.81-10.83,2.29,2.29,0,1,1,3.67,2.75c-.64.87-1.31,1.72-2,2.56a3.58,3.58,0,0,1,.29.27,79.43,79.43,0,0,0,10.75,9.9,2.3,2.3,0,0,1-1.4,4.12A2.36,2.36,0,0,1,20.78,138.18Z"/><path class="cls-2" d="M92.07,219.5a13.7,13.7,0,0,1-9.69-23.37l7.19-7.19a81.42,81.42,0,0,1-20-54.34C70,90.67,106.12,54.45,150,53.86a81.59,81.59,0,0,1,62.71,135.08l7.17,7.19a13.68,13.68,0,0,1-.17,19.52,14,14,0,0,1-19.44-.42L193,208c-.21-.22-.43-.44-.63-.68a1.47,1.47,0,0,0-1.85-.38c-24,13.26-54.82,13.25-78.78,0a1.48,1.48,0,0,0-1.86.39c-.2.23-.41.45-.63.67l-7.53,7.53A13.61,13.61,0,0,1,92.07,219.5Zm59.09-160h-1c-40.89.55-74.49,34.26-74.9,75.16a75.77,75.77,0,0,0,19,51,5,5,0,0,1-.28,6.9l-7.54,7.55a8.06,8.06,0,0,0,0,11.39,8.24,8.24,0,0,0,11.38,0l7.9-7.93A7.14,7.14,0,0,1,114.5,202c22.3,12.34,51,12.34,73.32,0a7.1,7.1,0,0,1,8.83,1.61l.38.41,7.28,7.27a8.27,8.27,0,0,0,11.52.35,8.05,8.05,0,0,0,.11-11.48h0l-7.53-7.53a5.09,5.09,0,0,1-.25-7,75.94,75.94,0,0,0-57-126.12Z"/><g id="INSERT"><g id="CIRCLE"><path class="cls-3" d="M154.66,157.79a5,5,0,1,0-7,0,4.91,4.91,0,0,0,7,0Z"/></g></g><path class="cls-3" d="M113.07,147.24a9.83,9.83,0,0,0-14,0,10,10,0,0,0,0,14.1,9.83,9.83,0,0,0,14,0A10,10,0,0,0,113.07,147.24Zm-7,12-5-5,5-5,5,5Z"/><path class="cls-3" d="M203.24,147.24a9.86,9.86,0,0,0-14,0,10,10,0,0,0,0,14.1,9.86,9.86,0,0,0,14,0A10,10,0,0,0,203.24,147.24Zm-7,12-5-5,5-5,5,5Z"/></svg>