<svg id="Capa_3" data-name="Capa 3" xmlns="http://www.w3.org/2000/svg" viewBox="0 0 302.31 273.34"><defs><style>.cls-1{fill:#6bcbb8;}.cls-2{fill:#e65300;}.cls-3{fill:#007481;}</style></defs><path class="cls-1" d="M89.74,23.2a2.34,2.34,0,0,0-1.12.22c-4.3,2-8.56,4.25-12.66,6.66a2.35,2.35,0,0,0,2.39,4.05c4-2.34,8.09-4.51,12.26-6.46a2.35,2.35,0,0,0-.87-4.47Z"/><path class="cls-1" d="M65.51,37.49a2.33,2.33,0,0,0-1.51.44c-3.84,2.8-7.6,5.81-11.15,9A2.35,2.35,0,1,0,56,50.41c3.45-3,7.08-6,10.8-8.68a2.34,2.34,0,0,0-1.25-4.24Z"/><path class="cls-1" d="M44.45,56.14a2.34,2.34,0,0,0-1.85.74C39.36,60.36,36.25,64,33.36,67.8a2.35,2.35,0,0,0,3.73,2.86C39.88,67,42.9,63.45,46,60.08a2.34,2.34,0,0,0-1.59-3.94Z"/><path class="cls-1" d="M28.44,78.81a2.37,2.37,0,0,0-1.11-.35,2.33,2.33,0,0,0-2.12,1.1c-2.52,4-4.87,8.24-7,12.49a2.35,2.35,0,1,0,4.2,2.09C24.48,90,26.75,86,29.19,82.05A2.35,2.35,0,0,0,28.44,78.81Z"/><path class="cls-1" d="M144.1,9.75h-.25c-4.75.24-9.54.7-14.24,1.39a2.35,2.35,0,0,0,.68,4.65c4.55-.67,9.19-1.12,13.79-1.35a2.35,2.35,0,0,0,0-4.69Z"/><path class="cls-1" d="M116.27,13.83a2.41,2.41,0,0,0-.7.07C111,15,106.35,16.42,101.87,18a2.35,2.35,0,1,0,1.56,4.43c4.34-1.53,8.81-2.87,13.27-4a2.35,2.35,0,0,0-.43-4.63Z"/><path class="cls-1" d="M259.58,56.46a2.32,2.32,0,0,0-1.58-.74,2.35,2.35,0,0,0-1.85,4c3.15,3.36,6.18,6.91,9,10.55a2.35,2.35,0,0,0,3.72-2.87C266,63.59,262.83,59.92,259.58,56.46Z"/><path class="cls-1" d="M172.39,11.08c-4.24-.61-8.56-1-12.86-1.27l-1.38-.07a2.35,2.35,0,0,0-.22,4.69c4.6.21,9.26.65,13.8,1.3a2.35,2.35,0,1,0,.66-4.65Z"/><path class="cls-1" d="M284.08,91.54c-2.13-4.25-4.5-8.44-7-12.46a2.35,2.35,0,0,0-1.86-1.1,2.39,2.39,0,0,0-1.38.36,2.35,2.35,0,0,0-.74,3.24c2.46,3.9,4.75,8,6.81,12.07a2.35,2.35,0,0,0,4.2-2.11Z"/><path class="cls-1" d="M238.11,37.58a2.35,2.35,0,0,0-2.74,3.81c3.72,2.69,7.37,5.6,10.83,8.64a2.35,2.35,0,0,0,3.1-3.53C245.73,43.36,242,40.36,238.11,37.58Z"/><path class="cls-1" d="M200.17,17.81c-4.49-1.56-9.11-2.92-13.73-4a3,3,0,0,0-.42-.06,2.35,2.35,0,0,0-.68,4.63c4.47,1.08,8.94,2.4,13.28,3.91a2.35,2.35,0,0,0,1.55-4.44Z"/><path class="cls-1" d="M226.12,29.78c-4.1-2.4-8.37-4.63-12.68-6.62a2.64,2.64,0,0,0-.86-.21,2.35,2.35,0,0,0-1.11,4.48c4.18,1.92,8.31,4.08,12.28,6.4a2.35,2.35,0,1,0,2.37-4Z"/><path class="cls-2" d="M97,192.63a80.87,80.87,0,0,1-81-77.8l6.24-.25A74.64,74.64,0,0,0,97,186.39h0v6.24Z"/><path class="cls-2" d="M205.35,192.63h0v-6.24h0a74.63,74.63,0,0,0,74.8-71.81l6.24.25A80.86,80.86,0,0,1,205.35,192.63Z"/><path class="cls-2" d="M220.5,263.61H81.81V233.33H220.5Zm-131-7.68H212.82V241H89.49Z"/><path class="cls-2" d="M209.17,237.17h-7.68V165.42a50.34,50.34,0,1,0-100.68,0v71.75H93.13V165.42a58,58,0,1,1,116,0Z"/><g id="INSERT"><g id="CIRCLE"><path class="cls-3" d="M154,198.83a4,4,0,1,0-5.65,0,4,4,0,0,0,5.65,0Z"/></g></g><path class="cls-3" d="M120.46,190.33a7.93,7.93,0,0,0-11.29,0,8.06,8.06,0,0,0,0,11.36,7.93,7.93,0,0,0,11.29,0A8,8,0,0,0,120.46,190.33ZM114.82,200l-4-4,4-4,4,4Z"/><path class="cls-3" d="M193.14,190.33a8,8,0,0,0-11.32,0,8.08,8.08,0,0,0,0,11.36,8,8,0,0,0,11.32,0A8.07,8.07,0,0,0,193.14,190.33ZM187.48,200l-4-4,4-4,4,4Z"/></svg>