<svg id="Capa_1" data-name="Capa 1" xmlns="http://www.w3.org/2000/svg" viewBox="0 0 431.82 248.75"><defs><style>.cls-1{fill:#ff7800;}.cls-2{fill:#e65300;}.cls-3{fill:#007481;}.cls-4{fill:#6bcbb8;}</style></defs><path class="cls-1" d="M0,100.56H20.52a34.07,34.07,0,0,1,9.27,1.17,20.7,20.7,0,0,1,7.07,3.42,15.59,15.59,0,0,1,4.5,5.44,16.54,16.54,0,0,1,1.57,7.34A18.16,18.16,0,0,1,41,126.48a17.52,17.52,0,0,1-5.08,6A21.56,21.56,0,0,1,28.49,136a35.51,35.51,0,0,1-9,1.13H13.68v20.16H0Zm13.68,26.19h4.95a16.65,16.65,0,0,0,3.87-.45,10,10,0,0,0,3.29-1.4A7.33,7.33,0,0,0,28,122.43a7.77,7.77,0,0,0,.85-3.78,6.86,6.86,0,0,0-2.65-5.85,11.58,11.58,0,0,0-7.07-2H13.68Z"/><path class="cls-1" d="M14.18,157.76H-.5v-57.7h21a34.81,34.81,0,0,1,9.41,1.19,21.27,21.27,0,0,1,7.23,3.5,16,16,0,0,1,4.64,5.62,17,17,0,0,1,1.63,7.56,18.62,18.62,0,0,1-2,8.78,18,18,0,0,1-5.23,6.15,22,22,0,0,1-7.64,3.6,36.34,36.34,0,0,1-9.17,1.14H14.18Zm-13.68-1H13.18V136.6h6.26a34.82,34.82,0,0,0,8.92-1.11,21,21,0,0,0,7.3-3.43,17,17,0,0,0,4.94-5.81,17.86,17.86,0,0,0,1.83-8.32,16,16,0,0,0-1.52-7.12,15,15,0,0,0-4.36-5.27,20.34,20.34,0,0,0-6.9-3.33,33.88,33.88,0,0,0-9.13-1.15H.5Zm18.13-29.51H13.18V110.32h6a12.07,12.07,0,0,1,7.36,2.08,7.33,7.33,0,0,1,2.86,6.25,8.16,8.16,0,0,1-.92,4,7.66,7.66,0,0,1-2.4,2.65,10.67,10.67,0,0,1-3.45,1.47A17.63,17.63,0,0,1,18.63,127.25Zm-4.45-1h4.45a16.1,16.1,0,0,0,3.75-.44,9.3,9.3,0,0,0,3.12-1.32,6.58,6.58,0,0,0,2.1-2.31,7.26,7.26,0,0,0,.79-3.53,6.31,6.31,0,0,0-2.45-5.45,11.14,11.14,0,0,0-6.77-1.88h-5Z"/><path class="cls-1" d="M80,99.48a31.09,31.09,0,0,1,11.34,2,25.72,25.72,0,0,1,9,5.81,26.41,26.41,0,0,1,5.9,9.27A34.56,34.56,0,0,1,108.36,129a32.08,32.08,0,0,1-2.2,12.15,27.81,27.81,0,0,1-6,9.22A25.81,25.81,0,0,1,91,156.22a33.21,33.21,0,0,1-22.73.05,25,25,0,0,1-14.89-14.9A33.74,33.74,0,0,1,51.3,129a32.85,32.85,0,0,1,2.16-12.2,27.13,27.13,0,0,1,6-9.31,26.51,26.51,0,0,1,9.13-5.94A30.87,30.87,0,0,1,80,99.48ZM65.7,129a27.79,27.79,0,0,0,1.13,8.37,16.7,16.7,0,0,0,3.1,5.94,12.93,12.93,0,0,0,4.55,3.51A13.15,13.15,0,0,0,80,148a13,13,0,0,0,5.45-1.17,12.18,12.18,0,0,0,4.45-3.51,17.23,17.23,0,0,0,3-5.94,33.13,33.13,0,0,0,0-17,16.8,16.8,0,0,0-3.1-6,13,13,0,0,0-4.54-3.51,13.2,13.2,0,0,0-5.54-1.17A12.54,12.54,0,0,0,74.21,111a12.31,12.31,0,0,0-4.46,3.65,18.27,18.27,0,0,0-3,6A29.22,29.22,0,0,0,65.7,129Z"/><path class="cls-1" d="M79.65,158.75a32.5,32.5,0,0,1-11.52-2A26.19,26.19,0,0,1,59,150.91a26.51,26.51,0,0,1-6-9.36A34.51,34.51,0,0,1,50.8,129,33.41,33.41,0,0,1,53,116.62a27.62,27.62,0,0,1,6.14-9.48,26.94,26.94,0,0,1,9.3-6.06,33.08,33.08,0,0,1,23.09,0A26.22,26.22,0,0,1,100.7,107a26.76,26.76,0,0,1,6,9.44,34.9,34.9,0,0,1,2.15,12.6,32.53,32.53,0,0,1-2.24,12.34,28.49,28.49,0,0,1-6.14,9.39,26.39,26.39,0,0,1-9.27,6A32,32,0,0,1,79.65,158.75ZM80,100a30.46,30.46,0,0,0-11.2,2,26.25,26.25,0,0,0-9,5.83A27,27,0,0,0,53.92,117a32.48,32.48,0,0,0-2.12,12,33.6,33.6,0,0,0,2.08,12.19,25.5,25.5,0,0,0,5.78,9,25.13,25.13,0,0,0,8.83,5.6,32.74,32.74,0,0,0,22.37,0A25.45,25.45,0,0,0,99.77,150a27.33,27.33,0,0,0,5.92-9.06,31.51,31.51,0,0,0,2.17-12,34,34,0,0,0-2.08-12.24,26,26,0,0,0-5.78-9.1A25.34,25.34,0,0,0,91.17,102,30.78,30.78,0,0,0,80,100Zm0,48.51a13.65,13.65,0,0,1-5.74-1.22,13.44,13.44,0,0,1-4.72-3.64,17.26,17.26,0,0,1-3.2-6.11A28.8,28.8,0,0,1,65.2,129a29.84,29.84,0,0,1,1.1-8.51,18.82,18.82,0,0,1,3.06-6.2A12.87,12.87,0,0,1,74,110.5a13.08,13.08,0,0,1,5.66-1.26,13.84,13.84,0,0,1,5.74,1.21,13.59,13.59,0,0,1,4.72,3.65,17.16,17.16,0,0,1,3.2,6.16,33.63,33.63,0,0,1,0,17.25,18,18,0,0,1-3.06,6.11,12.52,12.52,0,0,1-4.64,3.65A13.44,13.44,0,0,1,80,148.49Zm-.36-38.25a12,12,0,0,0-5.23,1.17,11.87,11.87,0,0,0-4.28,3.5,17.92,17.92,0,0,0-2.88,5.86A29,29,0,0,0,66.2,129a27.77,27.77,0,0,0,1.1,8.22,16.66,16.66,0,0,0,3,5.77,12.71,12.71,0,0,0,14.94,3.37A11.66,11.66,0,0,0,89.52,143a17,17,0,0,0,2.88-5.77,32.74,32.74,0,0,0,0-16.68,16.5,16.5,0,0,0-3-5.81,12.26,12.26,0,0,0-9.7-4.5Z"/><path class="cls-1" d="M120,100.56h12.6l12.42,19q3.33,5.13,6.43,10.48a74,74,0,0,1,4.82,9.68h.18c-.3-3.6-.48-7.21-.54-10.85s-.09-7.24-.09-10.84V100.56h12.6v56.7h-12.6l-13.14-19.35q-3.24-4.77-5.94-9.72a67.94,67.94,0,0,1-4.59-10.44h-.18q.45,5.67.54,10.89t.09,10.62v18H120Z"/><path class="cls-1" d="M168.89,157.76H155.52l-13.28-19.57c-2.16-3.18-4.17-6.46-6-9.76a67.49,67.49,0,0,1-3.62-7.79c.17,2.74.28,5.42.33,8,.06,3.49.09,7.06.09,10.63v18.5h-13.6v-57.7h13.37l12.57,19.22c2.21,3.4,4.38,6.94,6.45,10.5a83.15,83.15,0,0,1,3.87,7.45c-.19-2.77-.31-5.57-.35-8.36-.06-3.61-.09-7.26-.09-10.85v-18h13.6Zm-12.84-1h11.84v-55.7h-11.6v17c0,3.58,0,7.23.09,10.84s.24,7.24.54,10.81l0,.54H155.9l-.13-.32a72.75,72.75,0,0,0-4.78-9.6c-2.06-3.55-4.22-7.08-6.42-10.47L132.3,101.06H120.47v55.7h11.6v-17.5c0-3.56,0-7.13-.09-10.61s-.24-7.12-.54-10.86l0-.54h1.08l.11.34A67.46,67.46,0,0,0,137.15,128c1.78,3.27,3.77,6.53,5.91,9.68Z"/><path class="cls-1" d="M182.52,100.56h37.8V111H196.2v11.61H218V133H196.2v13.86h24.39v10.44H182.52Z"/><path class="cls-1" d="M221.09,157.76H182v-57.7h38.8V111.5H196.7v10.61h21.78v11.35H196.7v12.86h24.39Zm-38.07-1h37.07v-9.44H195.7V132.46h21.78v-9.35H195.7V110.5h24.12v-9.44H183Z"/><path class="cls-1" d="M231.84,100.56h12.6l12.42,19q3.33,5.13,6.43,10.48a74,74,0,0,1,4.82,9.68h.18c-.3-3.6-.48-7.21-.54-10.85s-.09-7.24-.09-10.84V100.56h12.6v56.7h-12.6l-13.14-19.35q-3.24-4.77-5.94-9.72A67.94,67.94,0,0,1,244,117.75h-.18q.45,5.67.54,10.89t.09,10.62v18h-12.6Z"/><path class="cls-1" d="M280.76,157.76H267.39l-.15-.22L254.1,138.19c-2.15-3.18-4.16-6.46-6-9.76a67.49,67.49,0,0,1-3.62-7.79c.17,2.74.28,5.42.33,8,.06,3.49.09,7.06.09,10.63v18.5h-13.6v-57.7h13.37l.15.23,12.42,19c2.21,3.4,4.38,6.94,6.45,10.5a83.15,83.15,0,0,1,3.87,7.45c-.19-2.77-.31-5.57-.35-8.36-.06-3.61-.09-7.26-.09-10.85v-18h13.6Zm-12.84-1h11.84v-55.7h-11.6v17c0,3.58,0,7.23.09,10.84s.24,7.24.54,10.81l0,.54h-1.06l-.13-.32a72.75,72.75,0,0,0-4.78-9.6c-2.06-3.55-4.22-7.08-6.42-10.47l-12.27-18.76H232.34v55.7h11.6v-17.5c0-3.56,0-7.13-.09-10.61s-.24-7.12-.54-10.86l0-.54h1.07l.12.34A67.46,67.46,0,0,0,249,128c1.78,3.27,3.77,6.53,5.91,9.68Z"/><path class="cls-1" d="M333.63,100.56v10.62H318.15v46.08H304.47V111.18H289.35V100.56Z"/><path class="cls-1" d="M318.65,157.76H304V111.68H288.85V100.06h45.28v11.62H318.65Zm-13.68-1h12.68V110.68h15.48v-9.62H289.85v9.62H305Z"/><path class="cls-1" d="M342.63,100.56h37.8V111H356.31v11.61h21.78V133H356.31v13.86H380.7v10.44H342.63Z"/><path class="cls-1" d="M381.2,157.76H342.13v-57.7h38.8V111.5H356.81v10.61h21.78v11.35H356.81v12.86H381.2Zm-38.07-1H380.2v-9.44H355.81V132.46h21.78v-9.35H355.81V110.5h24.12v-9.44h-36.8Z"/><path class="cls-1" d="M411.12,99.48a38.2,38.2,0,0,1,10.26,1.21,36.25,36.25,0,0,1,7.47,2.93l-3.06,10a40,40,0,0,0-7.07-2.84,24.26,24.26,0,0,0-6.79-1,10.85,10.85,0,0,0-6.3,1.53,4.74,4.74,0,0,0-2.16,4,4.57,4.57,0,0,0,2.07,4.18,31,31,0,0,0,6.39,2.75l5.31,1.71a32.47,32.47,0,0,1,5.85,2.65,20.25,20.25,0,0,1,4.63,3.65,15.47,15.47,0,0,1,3,4.68,14.68,14.68,0,0,1,1.08,5.67,17.25,17.25,0,0,1-1.35,6.79,15.56,15.56,0,0,1-4.1,5.63,19.7,19.7,0,0,1-6.93,3.82,31.2,31.2,0,0,1-9.85,1.4,44.42,44.42,0,0,1-10.13-1.13,38.74,38.74,0,0,1-8.86-3.19l3.06-10a48,48,0,0,0,7.56,3A27.42,27.42,0,0,0,409,148q4.77,0,6.88-1.58a5,5,0,0,0,2.12-4.27,4.82,4.82,0,0,0-.36-1.8,4.91,4.91,0,0,0-1.4-1.8,12.3,12.3,0,0,0-2.88-1.76A39.55,39.55,0,0,0,408.6,135l-4.41-1.53a47.75,47.75,0,0,1-5.85-2.61,18.8,18.8,0,0,1-4.64-3.42,14.34,14.34,0,0,1-3-4.59,16.19,16.19,0,0,1-1.08-6.21,16.7,16.7,0,0,1,1.39-6.84,14.91,14.91,0,0,1,4.14-5.45,20.1,20.1,0,0,1,6.75-3.6A30.12,30.12,0,0,1,411.12,99.48Z"/><path class="cls-1" d="M409.59,158.75a44.82,44.82,0,0,1-10.24-1.14,38.69,38.69,0,0,1-9-3.24l-.37-.19,3.35-11,.53.26a47.2,47.2,0,0,0,7.48,2.94,27.15,27.15,0,0,0,7.6,1.06c3.05,0,5.27-.5,6.58-1.48a4.53,4.53,0,0,0,1.92-3.87,4,4,0,0,0-1.59-3.22,11.82,11.82,0,0,0-2.76-1.68,38.5,38.5,0,0,0-4.66-1.73L404,134a46.75,46.75,0,0,1-5.92-2.64,19.71,19.71,0,0,1-4.76-3.51,14.9,14.9,0,0,1-3.12-4.75,16.8,16.8,0,0,1-1.11-6.4,17.31,17.31,0,0,1,1.43-7,15.51,15.51,0,0,1,4.28-5.63,20.83,20.83,0,0,1,6.92-3.69A30.47,30.47,0,0,1,411.12,99a38.8,38.8,0,0,1,10.39,1.23,37.22,37.22,0,0,1,7.57,3l.36.2-3.35,11-.53-.28a39.75,39.75,0,0,0-7-2.8,24.05,24.05,0,0,0-6.65-1,10.37,10.37,0,0,0-6,1.44,4.21,4.21,0,0,0-1.95,3.64,4.08,4.08,0,0,0,1.83,3.76,30.48,30.48,0,0,0,6.28,2.69l5.31,1.71a33.27,33.27,0,0,1,5.95,2.7,21,21,0,0,1,4.75,3.74,16.12,16.12,0,0,1,3.11,4.83,15.25,15.25,0,0,1,1.12,5.86,17.91,17.91,0,0,1-1.39,7,16.11,16.11,0,0,1-4.23,5.8,20.28,20.28,0,0,1-7.1,3.93A32,32,0,0,1,409.59,158.75Zm-18.39-5.08a38.77,38.77,0,0,0,8.38,3,43.93,43.93,0,0,0,10,1.11,30.82,30.82,0,0,0,9.69-1.37,19.24,19.24,0,0,0,6.76-3.73,15.07,15.07,0,0,0,4-5.44,16.86,16.86,0,0,0,1.31-6.6,14.08,14.08,0,0,0-1.05-5.48,15.07,15.07,0,0,0-2.91-4.53,20,20,0,0,0-4.53-3.55,32.19,32.19,0,0,0-5.76-2.62l-5.3-1.71a31.27,31.27,0,0,1-6.5-2.79,5.06,5.06,0,0,1-2.3-4.61,5.23,5.23,0,0,1,2.37-4.46,11.41,11.41,0,0,1,6.59-1.62,24.94,24.94,0,0,1,6.93,1.05,40.58,40.58,0,0,1,6.62,2.61l2.77-9a36.52,36.52,0,0,0-7-2.7A38,38,0,0,0,411.12,100a29.42,29.42,0,0,0-9.07,1.28,19.78,19.78,0,0,0-6.59,3.51,14.39,14.39,0,0,0-4,5.26,16.25,16.25,0,0,0-1.35,6.64,15.82,15.82,0,0,0,1,6,13.91,13.91,0,0,0,2.91,4.43,18.39,18.39,0,0,0,4.51,3.33,49,49,0,0,0,5.79,2.58l4.4,1.53a39.3,39.3,0,0,1,4.77,1.77,12.78,12.78,0,0,1,3,1.83,5,5,0,0,1,1.93,4,5.55,5.55,0,0,1-2.32,4.68c-1.51,1.12-3.86,1.67-7.18,1.67a28,28,0,0,1-7.88-1.1,47.88,47.88,0,0,1-7.12-2.75Z"/><path class="cls-2" d="M235.65,41.73H181.71V20.84A20.86,20.86,0,0,1,202.54,0h12.27a20.87,20.87,0,0,1,20.84,20.84Zm-51.4-2.55h48.86V20.84a18.32,18.32,0,0,0-18.3-18.3H202.54a18.32,18.32,0,0,0-18.29,18.3Z"/><g id="INSERT"><g id="CIRCLE"><path class="cls-3" d="M210.06,23.65a2,2,0,1,0-2.77-2.79,2,2,0,0,0,0,2.79,1.93,1.93,0,0,0,2.77,0Z"/></g></g><path class="cls-3" d="M197.28,19.47a3.9,3.9,0,0,0-5.54,0,4,4,0,0,0,0,5.58,3.88,3.88,0,0,0,5.54,0A4,4,0,0,0,197.28,19.47Zm-2.76,4.77-2-2,2-2,2,2Z"/><path class="cls-3" d="M225.62,19.47a3.91,3.91,0,0,0-5.55,0,4,4,0,0,0,0,5.58,3.89,3.89,0,0,0,5.55,0A4,4,0,0,0,225.62,19.47Zm-2.78,4.77-2-2,2-2,2,2Z"/><path class="cls-2" d="M229.22,50.14H215.76v-11h13.46Zm-10.91-2.55h8.37V41.73h-8.37Z"/><path class="cls-2" d="M201.6,50.14H188.14v-11H201.6Zm-10.92-2.55h8.37V41.73h-8.37Z"/><path class="cls-4" d="M212.85,248.75c-3.36,0-6.74-.15-10.07-.43a1.83,1.83,0,1,1,.32-3.65c3.56.31,7.2.45,10.79.41a1.83,1.83,0,1,1,0,3.66Zm12-.63a1.83,1.83,0,0,1-.19-3.65c3.57-.37,7.17-.93,10.67-1.64a1.83,1.83,0,0,1,.74,3.59c-3.63.74-7.34,1.31-11,1.69Zm-32.8-1.26-.33,0c-3.65-.68-7.3-1.53-10.86-2.55a1.83,1.83,0,0,1,1-3.52c3.45,1,7,1.82,10.51,2.47a1.83,1.83,0,0,1-.33,3.63Zm54.29-3.11a1.84,1.84,0,0,1-.54-3.59c3.43-1,6.84-2.28,10.16-3.66a1.83,1.83,0,1,1,1.4,3.38c-3.42,1.42-7,2.7-10.49,3.78A1.69,1.69,0,0,1,246.35,243.75ZM171,240.81a1.79,1.79,0,0,1-.68-.13c-3.44-1.36-6.86-2.9-10.16-4.59a1.83,1.83,0,0,1,1.67-3.26c3.19,1.63,6.51,3.13,9.84,4.45a1.83,1.83,0,0,1-.67,3.53Zm95.6-5.5a1.83,1.83,0,0,1-.87-3.45c3.16-1.69,6.28-3.56,9.26-5.55a1.83,1.83,0,0,1,2,3c-3.09,2.06-6.31,4-9.57,5.74A1.8,1.8,0,0,1,266.59,235.31Zm-115.12-4.49a1.81,1.81,0,0,1-1-.29c-3.12-2-6.17-4.17-9.09-6.46a1.83,1.83,0,1,1,2.26-2.88c2.83,2.22,5.79,4.32,8.81,6.26a1.83,1.83,0,0,1-1,3.37Zm133.36-7.68a1.83,1.83,0,0,1-1.16-3.25c2.78-2.27,5.48-4.7,8-7.22a1.83,1.83,0,0,1,2.58,2.6c-2.63,2.6-5.42,5.11-8.29,7.45A1.82,1.82,0,0,1,284.83,223.14Zm-150.61-5.87a1.85,1.85,0,0,1-1.26-.5c-2.68-2.56-5.27-5.28-7.69-8.08A1.83,1.83,0,1,1,128,206.3c2.34,2.71,4.85,5.34,7.45,7.82a1.83,1.83,0,0,1-1.27,3.15Zm166.19-9.56a1.87,1.87,0,0,1-1.17-.42,1.84,1.84,0,0,1-.23-2.58c2.3-2.76,4.49-5.66,6.51-8.62a1.83,1.83,0,1,1,3,2.06c-2.08,3.06-4.35,6-6.72,8.9A1.8,1.8,0,0,1,300.41,207.71Zm-180.53-7a1.84,1.84,0,0,1-1.5-.77c-2.14-3-4.17-6.19-6-9.4a1.83,1.83,0,0,1,3.18-1.82c1.78,3.11,3.74,6.17,5.82,9.1a1.83,1.83,0,0,1-.44,2.55A1.8,1.8,0,0,1,119.88,200.69ZM312.77,189.6a1.86,1.86,0,0,1-.88-.23,1.84,1.84,0,0,1-.72-2.49c1.73-3.14,3.32-6.41,4.74-9.7a1.83,1.83,0,0,1,3.36,1.44c-1.46,3.4-3.11,6.78-4.89,10A1.85,1.85,0,0,1,312.77,189.6ZM115.1,76.24a1.78,1.78,0,0,1-.94-.26,1.83,1.83,0,0,1-.63-2.51c1.91-3.17,4-6.29,6.19-9.27a1.83,1.83,0,1,1,3,2.17c-2.14,2.89-4.16,5.91-6,9A1.82,1.82,0,0,1,115.1,76.24Zm193.18-3.69a1.84,1.84,0,0,1-1.53-.83c-2-3-4.1-6-6.34-8.75a1.83,1.83,0,0,1,2.86-2.29c2.31,2.9,4.52,5.93,6.54,9a1.84,1.84,0,0,1-1.53,2.84ZM128.14,58.61a1.78,1.78,0,0,1-1.22-.47,1.81,1.81,0,0,1-.14-2.58c2.48-2.76,5.12-5.42,7.85-7.92a1.83,1.83,0,1,1,2.47,2.69c-2.64,2.43-5.2,5-7.6,7.68A1.82,1.82,0,0,1,128.14,58.61Zm166.43-3.18a1.84,1.84,0,0,1-1.31-.56c-2.5-2.57-5.15-5.06-7.89-7.38a1.83,1.83,0,1,1,2.37-2.79c2.82,2.4,5.57,5,8.15,7.62a1.84,1.84,0,0,1,0,2.59A1.87,1.87,0,0,1,294.57,55.43ZM144.31,43.79a1.83,1.83,0,0,1-1.11-3.29c3-2.23,6.06-4.34,9.22-6.28a1.83,1.83,0,1,1,1.91,3.12c-3.06,1.88-6.06,3.92-8.92,6.08A1.82,1.82,0,0,1,144.31,43.79Zm133.55-2.56a1.86,1.86,0,0,1-1.05-.33c-2.94-2-6-4-9.15-5.73a1.83,1.83,0,0,1,1.79-3.2c3.23,1.82,6.41,3.81,9.45,5.93a1.83,1.83,0,0,1-1,3.33ZM163,32.33a1.83,1.83,0,0,1-.8-3.47c3.33-1.63,6.78-3.11,10.25-4.4a1.83,1.83,0,0,1,1.28,3.43c-3.36,1.25-6.7,2.68-9.93,4.26A1.9,1.9,0,0,1,163,32.33Zm95.74-1.83a1.76,1.76,0,0,1-.74-.16c-3.28-1.45-6.68-2.75-10.08-3.87A1.83,1.83,0,0,1,249.06,23c3.52,1.16,7,2.51,10.42,4a1.84,1.84,0,0,1-.74,3.51Z"/></svg>