<svg id="Capa_4" data-name="Capa 4" xmlns="http://www.w3.org/2000/svg" viewBox="0 0 302.31 273.34"><defs><style>.cls-1{fill:#e65300;}.cls-2{fill:#007481;}.cls-3{fill:#6bcbb8;}</style></defs><path class="cls-1" d="M232.63,125.9H69.49V25a25,25,0,0,1,25-25H207.62a25,25,0,0,1,25,25Zm-156.7-6.45H226.19V25A18.59,18.59,0,0,0,207.62,6.45H94.5A18.59,18.59,0,0,0,75.93,25Z"/><path class="cls-1" d="M213,151.54H173.31V119.45H213Zm-33.27-6.44h26.82V125.9H179.76Z"/><path class="cls-1" d="M128.82,151.54H89.09V119.45h39.73ZM95.54,145.1h26.83V125.9H95.54Z"/><g id="INSERT"><g id="CIRCLE"><path class="cls-2" d="M155.28,71.44a6,6,0,1,0-8.46,0,5.92,5.92,0,0,0,8.46,0Z"/></g></g><path class="cls-2" d="M116.31,58.72a11.86,11.86,0,0,0-16.9,0,12.1,12.1,0,0,0,0,17,11.86,11.86,0,0,0,16.9,0A12,12,0,0,0,116.31,58.72Zm-8.43,14.51-6-6,6-6,6,6Z"/><path class="cls-2" d="M202.7,58.72a11.88,11.88,0,0,0-16.92,0,12.08,12.08,0,0,0,0,17,11.88,11.88,0,0,0,16.92,0A12.07,12.07,0,0,0,202.7,58.72Zm-8.46,14.51-6-6,6-6,6,6Z"/><path class="cls-3" d="M193.79,178a2.79,2.79,0,0,1-2.79-2.79V158.46a2.79,2.79,0,1,1,5.57,0v16.71A2.79,2.79,0,0,1,193.79,178Z"/><path class="cls-3" d="M193.79,206.93a2.79,2.79,0,0,1-2.79-2.79V187.43a2.79,2.79,0,1,1,5.57,0v16.71A2.79,2.79,0,0,1,193.79,206.93Z"/><path class="cls-3" d="M193.79,235.9a2.79,2.79,0,0,1-2.79-2.79V216.4a2.79,2.79,0,1,1,5.57,0v16.71A2.79,2.79,0,0,1,193.79,235.9Z"/><path class="cls-3" d="M193.79,264.87a2.79,2.79,0,0,1-2.79-2.78V245.37a2.79,2.79,0,0,1,5.57,0v16.72A2.79,2.79,0,0,1,193.79,264.87Z"/><path class="cls-3" d="M201.59,268.21a2.78,2.78,0,0,1,2.78-2.78h16.72a2.79,2.79,0,0,1,0,5.57H204.37A2.78,2.78,0,0,1,201.59,268.21Z"/><path class="cls-3" d="M232.79,268.21a2.78,2.78,0,0,1,2.78-2.78h16.72a2.79,2.79,0,0,1,0,5.57H235.57A2.78,2.78,0,0,1,232.79,268.21Z"/><path class="cls-3" d="M48.93,268.21a2.79,2.79,0,0,1,2.78-2.78H68.43a2.79,2.79,0,0,1,0,5.57H51.71A2.79,2.79,0,0,1,48.93,268.21Z"/><path class="cls-3" d="M80.13,268.21a2.79,2.79,0,0,1,2.78-2.78H99.63a2.79,2.79,0,0,1,0,5.57H82.91A2.79,2.79,0,0,1,80.13,268.21Z"/><path class="cls-3" d="M111.33,178a2.79,2.79,0,0,1-2.79-2.79V158.46a2.79,2.79,0,1,1,5.57,0v16.71A2.78,2.78,0,0,1,111.33,178Z"/><path class="cls-3" d="M111.33,206.93a2.79,2.79,0,0,1-2.79-2.79V187.43a2.79,2.79,0,1,1,5.57,0v16.71A2.78,2.78,0,0,1,111.33,206.93Z"/><path class="cls-3" d="M111.33,235.9a2.79,2.79,0,0,1-2.79-2.79V216.4a2.79,2.79,0,1,1,5.57,0v16.71A2.78,2.78,0,0,1,111.33,235.9Z"/><path class="cls-3" d="M111.33,264.87a2.79,2.79,0,0,1-2.79-2.78V245.37a2.79,2.79,0,0,1,5.57,0v16.72A2.78,2.78,0,0,1,111.33,264.87Z"/></svg>