<svg id="Capa_1" data-name="Capa 1" xmlns="http://www.w3.org/2000/svg" viewBox="0 0 302.31 273.34"><defs><style>.cls-1{fill:#6bcbb8;}.cls-2{fill:#e65300;}.cls-3{fill:#007481;}</style></defs><path class="cls-1" d="M252.3,123H223.66V83.7H252.3A10.71,10.71,0,0,1,263,94.39v18A10.71,10.71,0,0,1,252.3,123Zm-23.52-5.13H252.3a5.57,5.57,0,0,0,5.57-5.57v-18a5.56,5.56,0,0,0-5.57-5.56H228.78Z"/><path class="cls-1" d="M252.3,188.18H223.66V148.85H252.3A10.7,10.7,0,0,1,263,159.54v18A10.7,10.7,0,0,1,252.3,188.18Zm-23.52-5.12H252.3a5.57,5.57,0,0,0,5.57-5.57v-18A5.57,5.57,0,0,0,252.3,154H228.78Z"/><path class="cls-1" d="M252.3,253.33H223.66V214H252.3a10.71,10.71,0,0,1,10.7,10.7v17.95A10.7,10.7,0,0,1,252.3,253.33Zm-23.52-5.12H252.3a5.57,5.57,0,0,0,5.57-5.57V224.69a5.57,5.57,0,0,0-5.57-5.57H228.78Z"/><path class="cls-1" d="M78.65,123H50a10.71,10.71,0,0,1-10.7-10.7v-18A10.71,10.71,0,0,1,50,83.7H78.65ZM50,88.83a5.57,5.57,0,0,0-5.57,5.56v18A5.58,5.58,0,0,0,50,117.91H73.52V88.83Z"/><path class="cls-1" d="M78.65,188.18H50a10.7,10.7,0,0,1-10.7-10.69v-18A10.7,10.7,0,0,1,50,148.85H78.65ZM50,154a5.58,5.58,0,0,0-5.57,5.57v18A5.58,5.58,0,0,0,50,183.06H73.52V154Z"/><path class="cls-1" d="M78.65,253.33H50a10.7,10.7,0,0,1-10.7-10.69V224.69A10.71,10.71,0,0,1,50,214H78.65ZM50,219.12a5.58,5.58,0,0,0-5.57,5.57v17.95A5.58,5.58,0,0,0,50,248.21H73.52V219.12Z"/><path class="cls-2" d="M228.78,273.34H73.52V63.69H228.78ZM78.65,268.22h145V68.81h-145Z"/><g id="INSERT"><g id="CIRCLE"><path class="cls-3" d="M155.62,141.28a6.34,6.34,0,1,0-9,0,6.28,6.28,0,0,0,9,0Z"/></g></g><path class="cls-3" d="M114.39,127.81a12.57,12.57,0,0,0-17.88,0,12.8,12.8,0,0,0,0,18,12.57,12.57,0,0,0,17.88,0A12.74,12.74,0,0,0,114.39,127.81Zm-8.92,15.36-6.34-6.36,6.34-6.37,6.33,6.37Z"/><path class="cls-3" d="M205.79,127.81a12.59,12.59,0,0,0-17.9,0,12.8,12.8,0,0,0,0,18,12.59,12.59,0,0,0,17.9,0A12.77,12.77,0,0,0,205.79,127.81Zm-8.94,15.36-6.34-6.36,6.34-6.37,6.33,6.37Z"/><path class="cls-1" d="M103.28,12.61a1.78,1.78,0,0,0-.87.17c-3.36,1.56-6.68,3.31-9.87,5.19a1.83,1.83,0,1,0,1.86,3.16c3.09-1.83,6.31-3.52,9.56-5a1.83,1.83,0,0,0-.68-3.48Z"/><path class="cls-1" d="M84.39,23.75a1.85,1.85,0,0,0-1.18.34c-3,2.18-5.92,4.53-8.69,7A1.83,1.83,0,1,0,77,33.82c2.68-2.38,5.52-4.66,8.42-6.77a1.81,1.81,0,0,0,.4-2.55A1.8,1.8,0,0,0,84.39,23.75Z"/><path class="cls-1" d="M68,38.28a1.85,1.85,0,0,0-1.45.58c-2.52,2.71-5,5.58-7.2,8.52a1.83,1.83,0,0,0,2.9,2.23c2.19-2.85,4.53-5.62,7-8.25a1.83,1.83,0,0,0-.09-2.59A1.89,1.89,0,0,0,68,38.28Z"/><path class="cls-1" d="M55.5,56a1.83,1.83,0,0,0-2.53.58c-2,3.15-3.79,6.42-5.44,9.74a1.83,1.83,0,0,0,3.28,1.63c1.6-3.21,3.37-6.38,5.27-9.43A1.83,1.83,0,0,0,55.5,56Z"/><path class="cls-1" d="M145.65,2.13h-.19c-3.7.18-7.44.54-11.1,1.08a1.83,1.83,0,0,0,.53,3.62c3.55-.52,7.16-.87,10.75-1a1.83,1.83,0,0,0,0-3.65Z"/><path class="cls-1" d="M124,5.3a2,2,0,0,0-.54.06c-3.6.89-7.19,2-10.69,3.2A1.83,1.83,0,0,0,114,12c3.39-1.2,6.87-2.24,10.35-3.1A1.83,1.83,0,0,0,124,5.3Z"/><path class="cls-1" d="M235.67,38.53a1.82,1.82,0,0,0-1.23-.57,1.79,1.79,0,0,0-1.35.49A1.83,1.83,0,0,0,233,41c2.46,2.62,4.82,5.38,7,8.22a1.83,1.83,0,0,0,2.9-2.24C240.64,44.09,238.21,41.24,235.67,38.53Z"/><path class="cls-1" d="M167.71,3.16c-3.3-.47-6.68-.81-10-1l-1.07-.06a1.83,1.83,0,0,0-1.91,1.75,1.81,1.81,0,0,0,1.74,1.91c3.58.17,7.21.51,10.75,1a1.83,1.83,0,1,0,.52-3.62Z"/><path class="cls-1" d="M254.77,65.88c-1.66-3.31-3.5-6.58-5.48-9.71a1.83,1.83,0,1,0-3.09,1.95c1.91,3,3.69,6.2,5.3,9.4a1.83,1.83,0,1,0,3.27-1.64Z"/><path class="cls-1" d="M218.94,23.82a1.75,1.75,0,0,0-1-.34,1.82,1.82,0,0,0-1.59.75,1.84,1.84,0,0,0,.41,2.56c2.91,2.1,5.75,4.36,8.44,6.73a1.83,1.83,0,1,0,2.42-2.75C224.88,28.33,222,26,218.94,23.82Z"/><path class="cls-1" d="M189.36,8.41c-3.5-1.22-7.1-2.28-10.7-3.15a1.88,1.88,0,0,0-.33,0,1.83,1.83,0,0,0-.53,3.61c3.49.84,7,1.87,10.36,3a1.83,1.83,0,0,0,1.2-3.46Z"/><path class="cls-1" d="M209.6,17.73c-3.2-1.87-6.53-3.6-9.89-5.15a2.07,2.07,0,0,0-.67-.17,1.83,1.83,0,0,0-.87,3.49c3.26,1.51,6.48,3.18,9.58,5a1.84,1.84,0,0,0,1.85-3.17Z"/></svg>