<svg id="Capa_1" data-name="Capa 1" xmlns="http://www.w3.org/2000/svg" viewBox="0 0 591.38 61.35"><defs><style>.cls-1,.cls-3{fill:#fff;}.cls-1{stroke:#fff;stroke-miterlimit:10;}.cls-2{fill:#ffb100;}</style></defs><path class="cls-1" d="M99.87,1.74h21a34.7,34.7,0,0,1,9.47,1.2,21.18,21.18,0,0,1,7.23,3.5,15.86,15.86,0,0,1,4.6,5.56,16.81,16.81,0,0,1,1.61,7.5,18.54,18.54,0,0,1-1.94,8.74,18,18,0,0,1-5.19,6.12A22.19,22.19,0,0,1,129,38a36.52,36.52,0,0,1-9.25,1.14h-5.88V59.7h-14Zm14,26.77h5.06a16.86,16.86,0,0,0,4-.46,10,10,0,0,0,3.36-1.42,7.28,7.28,0,0,0,2.3-2.53,7.84,7.84,0,0,0,.87-3.86,7,7,0,0,0-2.71-6,11.86,11.86,0,0,0-7.22-2h-5.61Z"/><path class="cls-1" d="M154.89,1.74h23a25,25,0,0,1,8.78,1.43A17.74,17.74,0,0,1,193,7.08a16.38,16.38,0,0,1,3.82,5.79A19.4,19.4,0,0,1,198.13,20a17.4,17.4,0,0,1-1.06,6.3A17.62,17.62,0,0,1,194.36,31a16.56,16.56,0,0,1-3.59,3.31,24.61,24.61,0,0,1-3.59,2L201.07,59.7H185l-10.3-20.88h-5.8V59.7h-14Zm14,26.5h4.23a13.94,13.94,0,0,0,7.73-1.93c2-1.29,2.95-3.38,2.95-6.26a7.21,7.21,0,0,0-2.4-5.7q-2.38-2.12-6.9-2.12h-5.61Z"/><path class="cls-1" d="M237.6.64a31.78,31.78,0,0,1,11.59,2.07,26.46,26.46,0,0,1,9.2,5.93,27,27,0,0,1,6,9.48,35.12,35.12,0,0,1,2.17,12.7,32.68,32.68,0,0,1-2.26,12.42,28.35,28.35,0,0,1-6.16,9.43,26.61,26.61,0,0,1-9.3,6,32.07,32.07,0,0,1-11.63,2.06,32.46,32.46,0,0,1-11.6-2,25.61,25.61,0,0,1-15.22-15.23,34.71,34.71,0,0,1-2.16-12.64,33.37,33.37,0,0,1,2.21-12.47,27.6,27.6,0,0,1,6.16-9.52A27.16,27.16,0,0,1,226,2.75,31.52,31.52,0,0,1,237.6.64ZM223,30.82a28.58,28.58,0,0,0,1.15,8.55,17,17,0,0,0,3.17,6.07A13.27,13.27,0,0,0,231.94,49a13.43,13.43,0,0,0,5.66,1.2,13.21,13.21,0,0,0,5.56-1.2,12.35,12.35,0,0,0,4.55-3.59,17.36,17.36,0,0,0,3-6.07,29.66,29.66,0,0,0,1.11-8.55A30.13,30.13,0,0,0,250.71,22a17.26,17.26,0,0,0-3.18-6.12,13.38,13.38,0,0,0-4.65-3.59,13.53,13.53,0,0,0-5.65-1.19,12.81,12.81,0,0,0-5.57,1.24,12.6,12.6,0,0,0-4.55,3.72,18.83,18.83,0,0,0-3,6.17A30.05,30.05,0,0,0,223,30.82Z"/><path class="cls-1" d="M307.05.64a47.12,47.12,0,0,1,9.8.92A35,35,0,0,1,324.44,4l-2.85,9.2A26.25,26.25,0,0,0,315,11a34,34,0,0,0-6.67-.69,19.63,19.63,0,0,0-6.9,1.2,15,15,0,0,0-5.66,3.72,17.67,17.67,0,0,0-3.81,6.4,27.37,27.37,0,0,0-1.38,9.2q0,9.75,4.27,14.94T307.15,51a30.74,30.74,0,0,0,3.49-.18,8.71,8.71,0,0,0,2.39-.55V37.62h-9.1V27.32h22.54V57.13A43.42,43.42,0,0,1,318,59.7a53.71,53.71,0,0,1-10.95,1,37.73,37.73,0,0,1-12.28-1.93A28,28,0,0,1,284.88,53a26.47,26.47,0,0,1-6.62-9.38,32.16,32.16,0,0,1-2.39-12.83,32.84,32.84,0,0,1,2.39-12.93,26.42,26.42,0,0,1,6.62-9.48,28.84,28.84,0,0,1,9.89-5.79A37,37,0,0,1,307.05.64Z"/><path class="cls-1" d="M339.25,1.74h23A25.08,25.08,0,0,1,371,3.17a17.83,17.83,0,0,1,6.35,3.91,16.36,16.36,0,0,1,3.81,5.79A19.4,19.4,0,0,1,382.49,20a17.18,17.18,0,0,1-1.06,6.3A17.36,17.36,0,0,1,378.72,31a16.33,16.33,0,0,1-3.59,3.31,24.1,24.1,0,0,1-3.59,2l13.9,23.37h-16.1L359,38.82h-5.79V59.7h-14Zm14,26.5h4.23a14,14,0,0,0,7.73-1.93q2.94-1.93,2.94-6.26a7.24,7.24,0,0,0-2.39-5.7q-2.4-2.12-6.9-2.12h-5.61Z"/><path class="cls-1" d="M411.66,1.74h14.9l20.88,58H432.63l-3.95-12.42H409.17L405.22,59.7H390.59Zm.55,35.42h13.25l-2.21-7q-1.11-3.41-2.26-7.27t-2-7.08h-.19c-.61,2.15-1.32,4.48-2.11,7s-1.57,5-2.3,7.36Z"/><path class="cls-1" d="M461.24,1.74h17.48L485,22.08c.43,1.22.87,2.65,1.33,4.27s.92,3.32,1.38,5.06.89,3.51,1.29,5.29.72,3.44,1,5h.46c.24-1.66.6-3.45,1.06-5.38s.92-3.8,1.38-5.61.9-3.48,1.33-5l1-3.58,6.07-20.34h17.48l4.14,58H509.82l-1-19.59q-.19-2.76-.28-6t-.14-6.67q0-3.4,0-6.71V14.62h-.28c-.43,2-.9,4.11-1.42,6.26s-1.06,4.28-1.61,6.39-1.11,4.17-1.66,6.17-1.11,3.81-1.66,5.47L495.28,59.7H484.8L478.08,39c-.55-1.71-1.1-3.57-1.66-5.56s-1.09-4-1.61-6.17-1-4.24-1.51-6.39-.92-4.23-1.29-6.26h-.28q.09,3,0,6.4t-.14,6.9c-.06,2.3-.14,4.5-.23,6.62s-.17,4-.23,5.57l-1,19.59H457.29Z"/><path class="cls-1" d="M553.61,1.74h14.9l20.89,58H574.59l-4-12.42h-19.5l-4,12.42H532.54Zm.55,35.42h13.25l-2.21-7c-.73-2.27-1.49-4.69-2.25-7.27s-1.43-4.93-2-7.08h-.18c-.62,2.15-1.32,4.48-2.12,7s-1.56,5-2.3,7.36Z"/><path class="cls-2" d="M61.3,50.3H2V13.61a9.1,9.1,0,0,1,9.09-9.09H52.21a9.1,9.1,0,0,1,9.09,9.09ZM4.32,48H59V13.61a6.76,6.76,0,0,0-6.75-6.75H11.07a6.76,6.76,0,0,0-6.75,6.75Z"/><path class="cls-2" d="M54.18,59.62H39.73V48H54.18ZM42.07,57.28h9.76v-7H42.07Z"/><path class="cls-2" d="M23.55,59.62H9.11V48H23.55Zm-12.1-2.34h9.76v-7H11.45Z"/><g id="INSERT"><g id="CIRCLE"><path class="cls-3" d="M33.18,30.5a2.18,2.18,0,1,0-3.08,0,2.16,2.16,0,0,0,3.08,0Z"/></g></g><path class="cls-3" d="M19,25.87a4.33,4.33,0,0,0-6.15,0,4.4,4.4,0,0,0,0,6.18,4.31,4.31,0,0,0,6.15,0A4.38,4.38,0,0,0,19,25.87Zm-3.07,5.28L13.76,29l2.18-2.19L18.11,29Z"/><path class="cls-3" d="M50.42,25.87a4.33,4.33,0,0,0-6.15,0,4.38,4.38,0,0,0,0,6.18,4.31,4.31,0,0,0,6.15,0A4.39,4.39,0,0,0,50.42,25.87Zm-3.08,5.28L45.17,29l2.17-2.19L49.52,29Z"/></svg>