<svg id="Capa_1" data-name="Capa 1" xmlns="http://www.w3.org/2000/svg" viewBox="0 0 213.51 66.43"><defs><style>.cls-1{fill:#ffb100;}.cls-2{fill:#e65300;}.cls-3{fill:#007481;}</style></defs><rect class="cls-1" x="60.08" y="0.93" width="1.86" height="40.71"/><rect class="cls-1" x="54.35" y="0.93" width="1.86" height="40.71"/><path class="cls-1" d="M.76,54.41h0A.76.76,0,0,1,0,53.65v0a35.82,35.82,0,0,1,.56-5A.75.75,0,1,1,2,48.93a34.35,34.35,0,0,0-.53,4.75A.76.76,0,0,1,.76,54.41Zm1.8-9.65a.73.73,0,0,1-.25,0,.76.76,0,0,1-.47-1,34.66,34.66,0,0,1,2-4.66.76.76,0,0,1,1.35.7,32.88,32.88,0,0,0-1.9,4.45A.76.76,0,0,1,2.56,44.76ZM7.07,36a.82.82,0,0,1-.44-.14.76.76,0,0,1-.17-1.05,35.36,35.36,0,0,1,3.23-3.9.77.77,0,0,1,1.07,0,.76.76,0,0,1,0,1.07,32.26,32.26,0,0,0-3.09,3.72A.75.75,0,0,1,7.07,36Zm6.84-7.12a.76.76,0,0,1-.47-1.35,35.73,35.73,0,0,1,4.2-2.81A.75.75,0,1,1,18.39,26a33.92,33.92,0,0,0-4,2.69A.74.74,0,0,1,13.91,28.86ZM22.48,24a.74.74,0,0,1-.7-.48.76.76,0,0,1,.43-1A35,35,0,0,1,27,21a.75.75,0,1,1,.34,1.47,33.39,33.39,0,0,0-4.62,1.43A.92.92,0,0,1,22.48,24Zm9.62-2.21A.76.76,0,0,1,32,20.26c.93-.07,1.88-.11,2.84-.11a.76.76,0,0,1,0,1.51c-.92,0-1.82,0-2.72.11Z"/><path class="cls-1" d="M212.76,66.43a.75.75,0,0,1-.76-.75v-5a.76.76,0,0,1,1.51,0v5A.75.75,0,0,1,212.76,66.43Zm0-9.9a.76.76,0,0,1-.76-.76v-2.1q0-1.34-.21-2.64a.76.76,0,0,1,.66-.84.74.74,0,0,1,.84.66c.11.87.18,1.76.22,2.66v2.26A.76.76,0,0,1,212.76,56.53Zm-1.17-9.69a.74.74,0,0,1-.72-.56,32.5,32.5,0,0,0-1.61-4.56.76.76,0,0,1,.39-1,.77.77,0,0,1,1,.39,34.61,34.61,0,0,1,1.67,4.77.75.75,0,0,1-.53.93A.64.64,0,0,1,211.59,46.84Zm-3.94-9a.75.75,0,0,1-.64-.36,33.11,33.11,0,0,0-2.85-3.91.76.76,0,0,1,1.16-1,36.13,36.13,0,0,1,3,4.09.76.76,0,0,1-.24,1A.75.75,0,0,1,207.65,37.8Zm-6.37-7.55a.75.75,0,0,1-.5-.19,34,34,0,0,0-3.84-2.94.75.75,0,1,1,.83-1.26,35.9,35.9,0,0,1,4,3.07.76.76,0,0,1-.51,1.32ZM193,24.83a.77.77,0,0,1-.32-.07,32,32,0,0,0-4.52-1.71.76.76,0,0,1-.51-.94.75.75,0,0,1,.94-.51,35.07,35.07,0,0,1,4.73,1.79.77.77,0,0,1,.37,1A.76.76,0,0,1,193,24.83ZM183.57,22h-.11a33.77,33.77,0,0,0-4.82-.35.76.76,0,1,1,0-1.51,35.39,35.39,0,0,1,5,.36.76.76,0,0,1,.64.86A.77.77,0,0,1,183.57,22Z"/><path class="cls-2" d="M167.11,42.68H46.41A12.47,12.47,0,0,1,34,30.22V12.46A12.47,12.47,0,0,1,46.41,0h120.7a12.47,12.47,0,0,1,12.46,12.46V30.22A12.47,12.47,0,0,1,167.11,42.68ZM46.41,1.86a10.61,10.61,0,0,0-10.6,10.6V30.22a10.61,10.61,0,0,0,10.6,10.6h120.7a10.61,10.61,0,0,0,10.6-10.6V12.46a10.61,10.61,0,0,0-10.6-10.6Z"/><path class="cls-3" d="M89.89,25.64a3.85,3.85,0,1,0,0,5.45A3.84,3.84,0,0,0,89.89,25.64ZM87.17,30.3l-1.92-1.93,1.92-1.93,1.93,1.93Z"/><path class="cls-3" d="M129.07,25.64a3.85,3.85,0,1,0,0,5.45A3.84,3.84,0,0,0,129.07,25.64Zm-2.72,4.66-1.93-1.93,1.93-1.93,1.93,1.93Z"/><g id="INSERT"><g id="CIRCLE"><path class="cls-3" d="M102.91,28.37a3.85,3.85,0,1,0,7.7,0"/></g></g></svg>