<svg id="Capa_1" data-name="Capa 1" xmlns="http://www.w3.org/2000/svg" viewBox="0 0 213.52 66.43"><defs><style>.cls-1{fill:#e65300;}.cls-2{fill:#003a5d;}.cls-3{fill:#ffb100;}</style></defs><rect class="cls-1" x="60.09" y="0.93" width="1.86" height="40.71"/><rect class="cls-1" x="54.36" y="0.93" width="1.86" height="40.71"/><path class="cls-2" d="M.76,54.41h0A.76.76,0,0,1,0,53.65s0,0,0,0a34.35,34.35,0,0,1,.55-5,.76.76,0,0,1,1.49.28,32.88,32.88,0,0,0-.53,4.75A.76.76,0,0,1,.76,54.41Zm1.8-9.65a.67.67,0,0,1-.24,0,.74.74,0,0,1-.47-1,34.66,34.66,0,0,1,2-4.66.76.76,0,0,1,1.34.7,32.83,32.83,0,0,0-1.89,4.45A.76.76,0,0,1,2.56,44.76ZM7.08,36a.79.79,0,0,1-.44-.14.75.75,0,0,1-.18-1.05,36.52,36.52,0,0,1,3.23-3.9.77.77,0,0,1,1.07,0,.76.76,0,0,1,0,1.07,34.44,34.44,0,0,0-3.09,3.72A.74.74,0,0,1,7.08,36Zm6.83-7.12a.76.76,0,0,1-.46-1.35,34.92,34.92,0,0,1,4.2-2.81A.75.75,0,0,1,18.4,26a33.12,33.12,0,0,0-4,2.69A.76.76,0,0,1,13.91,28.86ZM22.49,24a.76.76,0,0,1-.28-1.46A35.17,35.17,0,0,1,27.05,21a.75.75,0,0,1,.34,1.47,33.52,33.52,0,0,0-4.63,1.43A.86.86,0,0,1,22.49,24Zm9.61-2.21a.75.75,0,0,1-.75-.69.77.77,0,0,1,.69-.82c.94-.07,1.89-.11,2.84-.11a.76.76,0,1,1,0,1.51c-.91,0-1.82,0-2.72.11Z"/><path class="cls-2" d="M212.76,66.43a.75.75,0,0,1-.75-.75v-5a.76.76,0,0,1,1.51,0v5A.75.75,0,0,1,212.76,66.43Zm0-9.9a.76.76,0,0,1-.75-.76v-2.1Q212,52.34,211.8,51a.75.75,0,0,1,.66-.84.74.74,0,0,1,.84.66c.1.87.17,1.76.21,2.66a.28.28,0,0,1,0,.09v2.17A.76.76,0,0,1,212.76,56.53Zm-1.16-9.69a.76.76,0,0,1-.73-.56,32.5,32.5,0,0,0-1.61-4.56.76.76,0,0,1,1.39-.61,34.66,34.66,0,0,1,1.68,4.77.76.76,0,0,1-.53.93Zm-3.95-9a.77.77,0,0,1-.64-.36,33,33,0,0,0-2.84-3.91.76.76,0,0,1,.09-1.07.75.75,0,0,1,1.06.09,35,35,0,0,1,3,4.09.75.75,0,0,1-.25,1A.72.72,0,0,1,207.65,37.8Zm-6.36-7.55a.73.73,0,0,1-.5-.19A34,34,0,0,0,197,27.12a.75.75,0,1,1,.83-1.26,35.79,35.79,0,0,1,4,3.07.76.76,0,0,1,.06,1.07A.72.72,0,0,1,201.29,30.25ZM193,24.83a.71.71,0,0,1-.32-.07,32.15,32.15,0,0,0-4.53-1.71.76.76,0,0,1-.51-.94.75.75,0,0,1,.94-.51,35.2,35.2,0,0,1,4.74,1.79.76.76,0,0,1-.32,1.44ZM183.58,22h-.11a33.91,33.91,0,0,0-4.83-.35.76.76,0,0,1,0-1.51,35.39,35.39,0,0,1,5,.36.76.76,0,0,1-.1,1.51Z"/><path class="cls-3" d="M167.11,42.68H46.42A12.48,12.48,0,0,1,34,30.22V12.46A12.48,12.48,0,0,1,46.42,0H167.11a12.48,12.48,0,0,1,12.47,12.46V30.22A12.48,12.48,0,0,1,167.11,42.68ZM46.42,1.86a10.61,10.61,0,0,0-10.61,10.6V30.22a10.62,10.62,0,0,0,10.61,10.6H167.11a10.62,10.62,0,0,0,10.61-10.6V12.46a10.61,10.61,0,0,0-10.61-10.6Z"/><path class="cls-2" d="M89.9,25.64a3.85,3.85,0,1,0,0,5.45A3.84,3.84,0,0,0,89.9,25.64ZM87.18,30.3l-1.93-1.93,1.93-1.93,1.93,1.93Z"/><path class="cls-2" d="M129.07,25.64a3.85,3.85,0,1,0,0,5.45A3.84,3.84,0,0,0,129.07,25.64Zm-2.72,4.66-1.93-1.93,1.93-1.93,1.93,1.93Z"/><g id="INSERT"><g id="CIRCLE"><path class="cls-2" d="M102.91,28.37a3.86,3.86,0,0,0,7.71,0"/></g></g></svg>