<svg xmlns="http://www.w3.org/2000/svg" width="141.73228" height="141.73228" viewBox="0 0 141.73228 141.73228">
  <defs>
    <style>
      .cls-1 {
        fill: none;
      }

      .cls-2 {
        fill: #4bb1e0;
      }

      .cls-3 {
        fill: #55565a;
      }
    </style>
  </defs>
  <g id="Capa_2" data-name="Capa 2">
    <g id="Capa_1-2" data-name="Capa 1">
      <g>
        <rect class="cls-1" width="141.73228" height="141.73228"/>
        <g>
          <g>
            <g>
              <path class="cls-2" d="M66.48878,64.53528a8.14806,8.14806,0,0,0-5.77966-2.394H39.27049a.67769.67769,0,0,1-.64522-.47029,33.64387,33.64387,0,0,1-1.27215-5.526.678.678,0,0,1,.67033-.77508l24.04,0a8.148,8.148,0,0,1,5.77965,2.394l1.98338,1.98331a8.14809,8.14809,0,0,0,5.77966,2.394h26.38829a.67775.67775,0,0,1,.63423.91465,33.69819,33.69819,0,0,1-2.43648,5.1812,1.35424,1.35424,0,0,1-1.17229.67549h-24.768a8.14809,8.14809,0,0,1-5.77966-2.394Z"/>
              <path class="cls-2" d="M71.1807,55.68444a8.14809,8.14809,0,0,0,5.77965,2.394h26.52637a.67685.67685,0,0,0,.66589-.55222,33.99682,33.99682,0,0,0,.5634-5.53176.676.676,0,0,0-.67709-.68736l-25.7243,0a8.14811,8.14811,0,0,1-5.77966-2.394l-1.98338-1.98331a8.14807,8.14807,0,0,0-5.77965-2.394H38.24556a.67684.67684,0,0,0-.66588.55221,33.99582,33.99582,0,0,0-.5634,5.53176.676.676,0,0,0,.67709.68737l25.72429,0a8.14809,8.14809,0,0,1,5.77966,2.394Z"/>
              <path class="cls-2" d="M71.90585,42.867a8.14809,8.14809,0,0,0-5.77966-2.394l-26.38828,0a.67775.67775,0,0,1-.63424-.91464,33.69913,33.69913,0,0,1,2.43648-5.1812,1.35424,1.35424,0,0,1,1.17229-.6755h24.768a8.14807,8.14807,0,0,1,5.77965,2.394l1.98338,1.98331a8.14807,8.14807,0,0,0,5.77966,2.394l21.43863,0a.6777.6777,0,0,1,.64523.47028,33.6449,33.6449,0,0,1,1.27215,5.526.678.678,0,0,1-.67033.77508H79.66889a8.14807,8.14807,0,0,1-5.77965-2.394Z"/>
            </g>
            <path class="cls-2" d="M67.41384,76.26116a6.11112,6.11112,0,0,1-4.33475,1.79551l-10.8868.00172a.6774.6774,0,0,0-.38165,1.23707,33.78422,33.78422,0,0,0,5.82541,3.18548,8.15414,8.15414,0,0,0,3.18886.65147H80.90735a8.13189,8.13189,0,0,0,3.17756-.64665A33.93493,33.93493,0,0,0,95.8912,74.11059a.6772.6772,0,0,0-.5018-1.13243H73.23612a6.11106,6.11106,0,0,0-4.33475,1.79551Z"/>
            <path class="cls-2" d="M68.49616,29.63881a6.11106,6.11106,0,0,0,4.33475-1.79551l1.48754-1.48748a6.111,6.111,0,0,1,4.33474-1.79551l10.9.00446a.6774.6774,0,0,0,.38193-1.23688A33.78551,33.78551,0,0,0,84.123,20.14455a8.15135,8.15135,0,0,0-3.19434-.65381H60.80359a8.12961,8.12961,0,0,0-3.18312.649,33.9359,33.9359,0,0,0-11.78773,8.373.6772.6772,0,0,0,.502,1.13224Z"/>
          </g>
          <g>
            <path class="cls-3" d="M3.19756,116.38519H19.24287c1.98489,0,2.06707-1.29587,2.06707-2.00656,0-1.0042-.49577-1.84041-2.23233-2.385L7.7462,108.56391c-3.76389-1.1288-4.88006-4.09712-4.88006-8.196,0-4.39241,1.90272-7.40317,6.6997-7.40317H27.43169v5.85536H12.4601c-1.07463,0-2.02553.41811-2.02553,1.92258,0,1.13061.57795,1.9253,2.3154,2.46892l10.17372,3.01075c4.3012,1.25434,5.99713,3.42888,5.99713,8.23849,0,4.64346-1.69593,7.78064-6.61752,7.78064H3.19756Z"/>
            <path class="cls-3" d="M42.2458,122.2408c-4.75636,0-8.14728-1.92438-8.14728-7.36071v-9.99672H31.039v-4.80871h3.05952V92.96407h6.45135v7.11059h6.203v4.80871h-6.203V112.496c0,3.34488,1.49,4.93515,5.00467,4.93515h1.19835v4.80961Z"/>
            <path class="cls-3" d="M63.81873,108.81524c1.1577,0,1.19924-.79469,1.19924-1.33833,0-2.25851-2.52129-2.9692-4.59017-2.9692-3.10106,0-4.63082,1.04662-4.63082,4.30753Zm-6.203,13.42556c-7.03022,0-8.35408-3.01075-8.35408-11.16614,0-9.41065,2.48157-11.25015,11.16616-11.25015,7.23791,0,11.16615,1.16944,11.16615,8.90674,0,2.51047-.745,4.601-3.43338,4.601H55.797c0,2.71816.86782,4.22444,4.38247,4.22444H70.84894v4.68409Z"/>
            <path class="cls-3" d="M75.16045,108.8575c0-6.5236,3.3494-8.78211,9.80075-8.78211h4.34274v4.80871H86.7402c-3.80543,0-5.12839,2.049-5.12839,5.89689v11.46055H75.16045Z"/>
            <path class="cls-3" d="M105.855,108.81524c1.1577,0,1.19835-.79469,1.19835-1.33833,0-2.25851-2.52131-2.9692-4.58928-2.9692-3.102,0-4.63173,1.04662-4.63173,4.30753ZM99.652,122.2408c-7.03021,0-8.35408-3.01075-8.35408-11.16614,0-9.41065,2.48247-11.25015,11.16616-11.25015,7.237,0,11.16435,1.16944,11.16435,8.90674,0,2.51047-.7441,4.601-3.43067,4.601H97.8323c0,2.71816.86874,4.22444,4.3843,4.22444h10.66768v4.68409Z"/>
            <path class="cls-3" d="M117.19667,104.25674c0-2.92766,1.44578-4.182,4.135-4.182h8.93293c5.169,0,8.6015,2.34251,8.6015,7.98835v14.1778h-6.45225V109.73643c0-3.34668-1.239-4.85207-4.54864-4.85207h-2.76964c-1.03489,0-1.44758.41811-1.44758,1.46384v15.89269h-6.45136Z"/>
          </g>
        </g>
      </g>
    </g>
  </g>
</svg>
